<?xml version="1.0" encoding="utf-8" standalone="no"?>
<!DOCTYPE svg PUBLIC "-//W3C//DTD SVG 1.1//EN"
  "http://www.w3.org/Graphics/SVG/1.1/DTD/svg11.dtd">
<svg xmlns:xlink="http://www.w3.org/1999/xlink" width="864pt" height="432pt" viewBox="0 0 864 432" xmlns="http://www.w3.org/2000/svg" version="1.1">
 <metadata>
  <rdf:RDF xmlns:dc="http://purl.org/dc/elements/1.1/" xmlns:cc="http://creativecommons.org/ns#" xmlns:rdf="http://www.w3.org/1999/02/22-rdf-syntax-ns#">
   <cc:Work>
    <dc:type rdf:resource="http://purl.org/dc/dcmitype/StillImage"/>
    <dc:date>2026-05-16T19:23:15.527718</dc:date>
    <dc:format>image/svg+xml</dc:format>
    <dc:creator>
     <cc:Agent>
      <dc:title>Matplotlib v3.9.2, https://matplotlib.org/</dc:title>
     </cc:Agent>
    </dc:creator>
   </cc:Work>
  </rdf:RDF>
 </metadata>
 <defs>
  <style type="text/css">*{stroke-linejoin: round; stroke-linecap: butt}</style>
 </defs>
 <g id="figure_1">
  <g id="patch_1">
   <path d="M 0 432 
L 864 432 
L 864 0 
L 0 0 
z
" style="fill: #ffffff"/>
  </g>
  <g id="axes_1">
   <g id="patch_2">
    <path d="M 53.75 387.16 
L 853.2 387.16 
L 853.2 28.32 
L 53.75 28.32 
z
" style="fill: #ffffff"/>
   </g>
   <g id="matplotlib.axis_1">
    <g id="xtick_1">
     <g id="line2d_1">
      <defs>
       <path id="m410718c61f" d="M 0 0 
L 0 3.5 
" style="stroke: #000000; stroke-width: 0.8"/>
      </defs>
      <g>
       <use xlink:href="#m410718c61f" x="53.75" y="387.16" style="stroke: #000000; stroke-width: 0.8"/>
      </g>
     </g>
     <g id="text_1">
      <!-- 0 -->
      <g transform="translate(50.56875 401.758438) scale(0.1 -0.1)">
       <defs>
        <path id="DejaVuSans-30" d="M 2034 4250 
Q 1547 4250 1301 3770 
Q 1056 3291 1056 2328 
Q 1056 1369 1301 889 
Q 1547 409 2034 409 
Q 2525 409 2770 889 
Q 3016 1369 3016 2328 
Q 3016 3291 2770 3770 
Q 2525 4250 2034 4250 
z
M 2034 4750 
Q 2819 4750 3233 4129 
Q 3647 3509 3647 2328 
Q 3647 1150 3233 529 
Q 2819 -91 2034 -91 
Q 1250 -91 836 529 
Q 422 1150 422 2328 
Q 422 3509 836 4129 
Q 1250 4750 2034 4750 
z
" transform="scale(0.015625)"/>
       </defs>
       <use xlink:href="#DejaVuSans-30"/>
      </g>
     </g>
    </g>
    <g id="xtick_2">
     <g id="line2d_2">
      <g>
       <use xlink:href="#m410718c61f" x="161.792836" y="387.16" style="stroke: #000000; stroke-width: 0.8"/>
      </g>
     </g>
     <g id="text_2">
      <!-- 5 -->
      <g transform="translate(158.611586 401.758438) scale(0.1 -0.1)">
       <defs>
        <path id="DejaVuSans-35" d="M 691 4666 
L 3169 4666 
L 3169 4134 
L 1269 4134 
L 1269 2991 
Q 1406 3038 1543 3061 
Q 1681 3084 1819 3084 
Q 2600 3084 3056 2656 
Q 3513 2228 3513 1497 
Q 3513 744 3044 326 
Q 2575 -91 1722 -91 
Q 1428 -91 1123 -41 
Q 819 9 494 109 
L 494 744 
Q 775 591 1075 516 
Q 1375 441 1709 441 
Q 2250 441 2565 725 
Q 2881 1009 2881 1497 
Q 2881 1984 2565 2268 
Q 2250 2553 1709 2553 
Q 1456 2553 1204 2497 
Q 953 2441 691 2322 
L 691 4666 
z
" transform="scale(0.015625)"/>
       </defs>
       <use xlink:href="#DejaVuSans-35"/>
      </g>
     </g>
    </g>
    <g id="xtick_3">
     <g id="line2d_3">
      <g>
       <use xlink:href="#m410718c61f" x="269.835672" y="387.16" style="stroke: #000000; stroke-width: 0.8"/>
      </g>
     </g>
     <g id="text_3">
      <!-- 10 -->
      <g transform="translate(263.473172 401.758438) scale(0.1 -0.1)">
       <defs>
        <path id="DejaVuSans-31" d="M 794 531 
L 1825 531 
L 1825 4091 
L 703 3866 
L 703 4441 
L 1819 4666 
L 2450 4666 
L 2450 531 
L 3481 531 
L 3481 0 
L 794 0 
L 794 531 
z
" transform="scale(0.015625)"/>
       </defs>
       <use xlink:href="#DejaVuSans-31"/>
       <use xlink:href="#DejaVuSans-30" x="63.623047"/>
      </g>
     </g>
    </g>
    <g id="xtick_4">
     <g id="line2d_4">
      <g>
       <use xlink:href="#m410718c61f" x="377.878508" y="387.16" style="stroke: #000000; stroke-width: 0.8"/>
      </g>
     </g>
     <g id="text_4">
      <!-- 15 -->
      <g transform="translate(371.516008 401.758438) scale(0.1 -0.1)">
       <use xlink:href="#DejaVuSans-31"/>
       <use xlink:href="#DejaVuSans-35" x="63.623047"/>
      </g>
     </g>
    </g>
    <g id="xtick_5">
     <g id="line2d_5">
      <g>
       <use xlink:href="#m410718c61f" x="485.921344" y="387.16" style="stroke: #000000; stroke-width: 0.8"/>
      </g>
     </g>
     <g id="text_5">
      <!-- 20 -->
      <g transform="translate(479.558844 401.758438) scale(0.1 -0.1)">
       <defs>
        <path id="DejaVuSans-32" d="M 1228 531 
L 3431 531 
L 3431 0 
L 469 0 
L 469 531 
Q 828 903 1448 1529 
Q 2069 2156 2228 2338 
Q 2531 2678 2651 2914 
Q 2772 3150 2772 3378 
Q 2772 3750 2511 3984 
Q 2250 4219 1831 4219 
Q 1534 4219 1204 4116 
Q 875 4013 500 3803 
L 500 4441 
Q 881 4594 1212 4672 
Q 1544 4750 1819 4750 
Q 2544 4750 2975 4387 
Q 3406 4025 3406 3419 
Q 3406 3131 3298 2873 
Q 3191 2616 2906 2266 
Q 2828 2175 2409 1742 
Q 1991 1309 1228 531 
z
" transform="scale(0.015625)"/>
       </defs>
       <use xlink:href="#DejaVuSans-32"/>
       <use xlink:href="#DejaVuSans-30" x="63.623047"/>
      </g>
     </g>
    </g>
    <g id="xtick_6">
     <g id="line2d_6">
      <g>
       <use xlink:href="#m410718c61f" x="593.96418" y="387.16" style="stroke: #000000; stroke-width: 0.8"/>
      </g>
     </g>
     <g id="text_6">
      <!-- 25 -->
      <g transform="translate(587.60168 401.758438) scale(0.1 -0.1)">
       <use xlink:href="#DejaVuSans-32"/>
       <use xlink:href="#DejaVuSans-35" x="63.623047"/>
      </g>
     </g>
    </g>
    <g id="xtick_7">
     <g id="line2d_7">
      <g>
       <use xlink:href="#m410718c61f" x="702.007016" y="387.16" style="stroke: #000000; stroke-width: 0.8"/>
      </g>
     </g>
     <g id="text_7">
      <!-- 30 -->
      <g transform="translate(695.644516 401.758438) scale(0.1 -0.1)">
       <defs>
        <path id="DejaVuSans-33" d="M 2597 2516 
Q 3050 2419 3304 2112 
Q 3559 1806 3559 1356 
Q 3559 666 3084 287 
Q 2609 -91 1734 -91 
Q 1441 -91 1130 -33 
Q 819 25 488 141 
L 488 750 
Q 750 597 1062 519 
Q 1375 441 1716 441 
Q 2309 441 2620 675 
Q 2931 909 2931 1356 
Q 2931 1769 2642 2001 
Q 2353 2234 1838 2234 
L 1294 2234 
L 1294 2753 
L 1863 2753 
Q 2328 2753 2575 2939 
Q 2822 3125 2822 3475 
Q 2822 3834 2567 4026 
Q 2313 4219 1838 4219 
Q 1578 4219 1281 4162 
Q 984 4106 628 3988 
L 628 4550 
Q 988 4650 1302 4700 
Q 1616 4750 1894 4750 
Q 2613 4750 3031 4423 
Q 3450 4097 3450 3541 
Q 3450 3153 3228 2886 
Q 3006 2619 2597 2516 
z
" transform="scale(0.015625)"/>
       </defs>
       <use xlink:href="#DejaVuSans-33"/>
       <use xlink:href="#DejaVuSans-30" x="63.623047"/>
      </g>
     </g>
    </g>
    <g id="xtick_8">
     <g id="line2d_8">
      <g>
       <use xlink:href="#m410718c61f" x="810.049852" y="387.16" style="stroke: #000000; stroke-width: 0.8"/>
      </g>
     </g>
     <g id="text_8">
      <!-- 35 -->
      <g transform="translate(803.687352 401.758438) scale(0.1 -0.1)">
       <use xlink:href="#DejaVuSans-33"/>
       <use xlink:href="#DejaVuSans-35" x="63.623047"/>
      </g>
     </g>
    </g>
    <g id="text_9">
     <!-- Gameplay duration (Minutes) -->
     <g transform="translate(365.546875 416.95625) scale(0.12 -0.12)">
      <defs>
       <path id="DejaVuSans-47" d="M 3809 666 
L 3809 1919 
L 2778 1919 
L 2778 2438 
L 4434 2438 
L 4434 434 
Q 4069 175 3628 42 
Q 3188 -91 2688 -91 
Q 1594 -91 976 548 
Q 359 1188 359 2328 
Q 359 3472 976 4111 
Q 1594 4750 2688 4750 
Q 3144 4750 3555 4637 
Q 3966 4525 4313 4306 
L 4313 3634 
Q 3963 3931 3569 4081 
Q 3175 4231 2741 4231 
Q 1884 4231 1454 3753 
Q 1025 3275 1025 2328 
Q 1025 1384 1454 906 
Q 1884 428 2741 428 
Q 3075 428 3337 486 
Q 3600 544 3809 666 
z
" transform="scale(0.015625)"/>
       <path id="DejaVuSans-61" d="M 2194 1759 
Q 1497 1759 1228 1600 
Q 959 1441 959 1056 
Q 959 750 1161 570 
Q 1363 391 1709 391 
Q 2188 391 2477 730 
Q 2766 1069 2766 1631 
L 2766 1759 
L 2194 1759 
z
M 3341 1997 
L 3341 0 
L 2766 0 
L 2766 531 
Q 2569 213 2275 61 
Q 1981 -91 1556 -91 
Q 1019 -91 701 211 
Q 384 513 384 1019 
Q 384 1609 779 1909 
Q 1175 2209 1959 2209 
L 2766 2209 
L 2766 2266 
Q 2766 2663 2505 2880 
Q 2244 3097 1772 3097 
Q 1472 3097 1187 3025 
Q 903 2953 641 2809 
L 641 3341 
Q 956 3463 1253 3523 
Q 1550 3584 1831 3584 
Q 2591 3584 2966 3190 
Q 3341 2797 3341 1997 
z
" transform="scale(0.015625)"/>
       <path id="DejaVuSans-6d" d="M 3328 2828 
Q 3544 3216 3844 3400 
Q 4144 3584 4550 3584 
Q 5097 3584 5394 3201 
Q 5691 2819 5691 2113 
L 5691 0 
L 5113 0 
L 5113 2094 
Q 5113 2597 4934 2840 
Q 4756 3084 4391 3084 
Q 3944 3084 3684 2787 
Q 3425 2491 3425 1978 
L 3425 0 
L 2847 0 
L 2847 2094 
Q 2847 2600 2669 2842 
Q 2491 3084 2119 3084 
Q 1678 3084 1418 2786 
Q 1159 2488 1159 1978 
L 1159 0 
L 581 0 
L 581 3500 
L 1159 3500 
L 1159 2956 
Q 1356 3278 1631 3431 
Q 1906 3584 2284 3584 
Q 2666 3584 2933 3390 
Q 3200 3197 3328 2828 
z
" transform="scale(0.015625)"/>
       <path id="DejaVuSans-65" d="M 3597 1894 
L 3597 1613 
L 953 1613 
Q 991 1019 1311 708 
Q 1631 397 2203 397 
Q 2534 397 2845 478 
Q 3156 559 3463 722 
L 3463 178 
Q 3153 47 2828 -22 
Q 2503 -91 2169 -91 
Q 1331 -91 842 396 
Q 353 884 353 1716 
Q 353 2575 817 3079 
Q 1281 3584 2069 3584 
Q 2775 3584 3186 3129 
Q 3597 2675 3597 1894 
z
M 3022 2063 
Q 3016 2534 2758 2815 
Q 2500 3097 2075 3097 
Q 1594 3097 1305 2825 
Q 1016 2553 972 2059 
L 3022 2063 
z
" transform="scale(0.015625)"/>
       <path id="DejaVuSans-70" d="M 1159 525 
L 1159 -1331 
L 581 -1331 
L 581 3500 
L 1159 3500 
L 1159 2969 
Q 1341 3281 1617 3432 
Q 1894 3584 2278 3584 
Q 2916 3584 3314 3078 
Q 3713 2572 3713 1747 
Q 3713 922 3314 415 
Q 2916 -91 2278 -91 
Q 1894 -91 1617 61 
Q 1341 213 1159 525 
z
M 3116 1747 
Q 3116 2381 2855 2742 
Q 2594 3103 2138 3103 
Q 1681 3103 1420 2742 
Q 1159 2381 1159 1747 
Q 1159 1113 1420 752 
Q 1681 391 2138 391 
Q 2594 391 2855 752 
Q 3116 1113 3116 1747 
z
" transform="scale(0.015625)"/>
       <path id="DejaVuSans-6c" d="M 603 4863 
L 1178 4863 
L 1178 0 
L 603 0 
L 603 4863 
z
" transform="scale(0.015625)"/>
       <path id="DejaVuSans-79" d="M 2059 -325 
Q 1816 -950 1584 -1140 
Q 1353 -1331 966 -1331 
L 506 -1331 
L 506 -850 
L 844 -850 
Q 1081 -850 1212 -737 
Q 1344 -625 1503 -206 
L 1606 56 
L 191 3500 
L 800 3500 
L 1894 763 
L 2988 3500 
L 3597 3500 
L 2059 -325 
z
" transform="scale(0.015625)"/>
       <path id="DejaVuSans-20" transform="scale(0.015625)"/>
       <path id="DejaVuSans-64" d="M 2906 2969 
L 2906 4863 
L 3481 4863 
L 3481 0 
L 2906 0 
L 2906 525 
Q 2725 213 2448 61 
Q 2172 -91 1784 -91 
Q 1150 -91 751 415 
Q 353 922 353 1747 
Q 353 2572 751 3078 
Q 1150 3584 1784 3584 
Q 2172 3584 2448 3432 
Q 2725 3281 2906 2969 
z
M 947 1747 
Q 947 1113 1208 752 
Q 1469 391 1925 391 
Q 2381 391 2643 752 
Q 2906 1113 2906 1747 
Q 2906 2381 2643 2742 
Q 2381 3103 1925 3103 
Q 1469 3103 1208 2742 
Q 947 2381 947 1747 
z
" transform="scale(0.015625)"/>
       <path id="DejaVuSans-75" d="M 544 1381 
L 544 3500 
L 1119 3500 
L 1119 1403 
Q 1119 906 1312 657 
Q 1506 409 1894 409 
Q 2359 409 2629 706 
Q 2900 1003 2900 1516 
L 2900 3500 
L 3475 3500 
L 3475 0 
L 2900 0 
L 2900 538 
Q 2691 219 2414 64 
Q 2138 -91 1772 -91 
Q 1169 -91 856 284 
Q 544 659 544 1381 
z
M 1991 3584 
L 1991 3584 
z
" transform="scale(0.015625)"/>
       <path id="DejaVuSans-72" d="M 2631 2963 
Q 2534 3019 2420 3045 
Q 2306 3072 2169 3072 
Q 1681 3072 1420 2755 
Q 1159 2438 1159 1844 
L 1159 0 
L 581 0 
L 581 3500 
L 1159 3500 
L 1159 2956 
Q 1341 3275 1631 3429 
Q 1922 3584 2338 3584 
Q 2397 3584 2469 3576 
Q 2541 3569 2628 3553 
L 2631 2963 
z
" transform="scale(0.015625)"/>
       <path id="DejaVuSans-74" d="M 1172 4494 
L 1172 3500 
L 2356 3500 
L 2356 3053 
L 1172 3053 
L 1172 1153 
Q 1172 725 1289 603 
Q 1406 481 1766 481 
L 2356 481 
L 2356 0 
L 1766 0 
Q 1100 0 847 248 
Q 594 497 594 1153 
L 594 3053 
L 172 3053 
L 172 3500 
L 594 3500 
L 594 4494 
L 1172 4494 
z
" transform="scale(0.015625)"/>
       <path id="DejaVuSans-69" d="M 603 3500 
L 1178 3500 
L 1178 0 
L 603 0 
L 603 3500 
z
M 603 4863 
L 1178 4863 
L 1178 4134 
L 603 4134 
L 603 4863 
z
" transform="scale(0.015625)"/>
       <path id="DejaVuSans-6f" d="M 1959 3097 
Q 1497 3097 1228 2736 
Q 959 2375 959 1747 
Q 959 1119 1226 758 
Q 1494 397 1959 397 
Q 2419 397 2687 759 
Q 2956 1122 2956 1747 
Q 2956 2369 2687 2733 
Q 2419 3097 1959 3097 
z
M 1959 3584 
Q 2709 3584 3137 3096 
Q 3566 2609 3566 1747 
Q 3566 888 3137 398 
Q 2709 -91 1959 -91 
Q 1206 -91 779 398 
Q 353 888 353 1747 
Q 353 2609 779 3096 
Q 1206 3584 1959 3584 
z
" transform="scale(0.015625)"/>
       <path id="DejaVuSans-6e" d="M 3513 2113 
L 3513 0 
L 2938 0 
L 2938 2094 
Q 2938 2591 2744 2837 
Q 2550 3084 2163 3084 
Q 1697 3084 1428 2787 
Q 1159 2491 1159 1978 
L 1159 0 
L 581 0 
L 581 3500 
L 1159 3500 
L 1159 2956 
Q 1366 3272 1645 3428 
Q 1925 3584 2291 3584 
Q 2894 3584 3203 3211 
Q 3513 2838 3513 2113 
z
" transform="scale(0.015625)"/>
       <path id="DejaVuSans-28" d="M 1984 4856 
Q 1566 4138 1362 3434 
Q 1159 2731 1159 2009 
Q 1159 1288 1364 580 
Q 1569 -128 1984 -844 
L 1484 -844 
Q 1016 -109 783 600 
Q 550 1309 550 2009 
Q 550 2706 781 3412 
Q 1013 4119 1484 4856 
L 1984 4856 
z
" transform="scale(0.015625)"/>
       <path id="DejaVuSans-4d" d="M 628 4666 
L 1569 4666 
L 2759 1491 
L 3956 4666 
L 4897 4666 
L 4897 0 
L 4281 0 
L 4281 4097 
L 3078 897 
L 2444 897 
L 1241 4097 
L 1241 0 
L 628 0 
L 628 4666 
z
" transform="scale(0.015625)"/>
       <path id="DejaVuSans-73" d="M 2834 3397 
L 2834 2853 
Q 2591 2978 2328 3040 
Q 2066 3103 1784 3103 
Q 1356 3103 1142 2972 
Q 928 2841 928 2578 
Q 928 2378 1081 2264 
Q 1234 2150 1697 2047 
L 1894 2003 
Q 2506 1872 2764 1633 
Q 3022 1394 3022 966 
Q 3022 478 2636 193 
Q 2250 -91 1575 -91 
Q 1294 -91 989 -36 
Q 684 19 347 128 
L 347 722 
Q 666 556 975 473 
Q 1284 391 1588 391 
Q 1994 391 2212 530 
Q 2431 669 2431 922 
Q 2431 1156 2273 1281 
Q 2116 1406 1581 1522 
L 1381 1569 
Q 847 1681 609 1914 
Q 372 2147 372 2553 
Q 372 3047 722 3315 
Q 1072 3584 1716 3584 
Q 2034 3584 2315 3537 
Q 2597 3491 2834 3397 
z
" transform="scale(0.015625)"/>
       <path id="DejaVuSans-29" d="M 513 4856 
L 1013 4856 
Q 1481 4119 1714 3412 
Q 1947 2706 1947 2009 
Q 1947 1309 1714 600 
Q 1481 -109 1013 -844 
L 513 -844 
Q 928 -128 1133 580 
Q 1338 1288 1338 2009 
Q 1338 2731 1133 3434 
Q 928 4138 513 4856 
z
" transform="scale(0.015625)"/>
      </defs>
      <use xlink:href="#DejaVuSans-47"/>
      <use xlink:href="#DejaVuSans-61" x="77.490234"/>
      <use xlink:href="#DejaVuSans-6d" x="138.769531"/>
      <use xlink:href="#DejaVuSans-65" x="236.181641"/>
      <use xlink:href="#DejaVuSans-70" x="297.705078"/>
      <use xlink:href="#DejaVuSans-6c" x="361.181641"/>
      <use xlink:href="#DejaVuSans-61" x="388.964844"/>
      <use xlink:href="#DejaVuSans-79" x="450.244141"/>
      <use xlink:href="#DejaVuSans-20" x="509.423828"/>
      <use xlink:href="#DejaVuSans-64" x="541.210938"/>
      <use xlink:href="#DejaVuSans-75" x="604.6875"/>
      <use xlink:href="#DejaVuSans-72" x="668.066406"/>
      <use xlink:href="#DejaVuSans-61" x="709.179688"/>
      <use xlink:href="#DejaVuSans-74" x="770.458984"/>
      <use xlink:href="#DejaVuSans-69" x="809.667969"/>
      <use xlink:href="#DejaVuSans-6f" x="837.451172"/>
      <use xlink:href="#DejaVuSans-6e" x="898.632812"/>
      <use xlink:href="#DejaVuSans-20" x="962.011719"/>
      <use xlink:href="#DejaVuSans-28" x="993.798828"/>
      <use xlink:href="#DejaVuSans-4d" x="1032.8125"/>
      <use xlink:href="#DejaVuSans-69" x="1119.091797"/>
      <use xlink:href="#DejaVuSans-6e" x="1146.875"/>
      <use xlink:href="#DejaVuSans-75" x="1210.253906"/>
      <use xlink:href="#DejaVuSans-74" x="1273.632812"/>
      <use xlink:href="#DejaVuSans-65" x="1312.841797"/>
      <use xlink:href="#DejaVuSans-73" x="1374.365234"/>
      <use xlink:href="#DejaVuSans-29" x="1426.464844"/>
     </g>
    </g>
   </g>
   <g id="matplotlib.axis_2">
    <g id="ytick_1">
     <g id="line2d_9">
      <defs>
       <path id="m2b203c07e4" d="M 0 0 
L -3.5 0 
" style="stroke: #000000; stroke-width: 0.8"/>
      </defs>
      <g>
       <use xlink:href="#m2b203c07e4" x="53.75" y="387.16" style="stroke: #000000; stroke-width: 0.8"/>
      </g>
     </g>
     <g id="text_10">
      <!-- 0 -->
      <g transform="translate(40.3875 390.959219) scale(0.1 -0.1)">
       <use xlink:href="#DejaVuSans-30"/>
      </g>
     </g>
    </g>
    <g id="ytick_2">
     <g id="line2d_10">
      <g>
       <use xlink:href="#m2b203c07e4" x="53.75" y="319.197879" style="stroke: #000000; stroke-width: 0.8"/>
      </g>
     </g>
     <g id="text_11">
      <!-- 20 -->
      <g transform="translate(34.025 322.997098) scale(0.1 -0.1)">
       <use xlink:href="#DejaVuSans-32"/>
       <use xlink:href="#DejaVuSans-30" x="63.623047"/>
      </g>
     </g>
    </g>
    <g id="ytick_3">
     <g id="line2d_11">
      <g>
       <use xlink:href="#m2b203c07e4" x="53.75" y="251.235758" style="stroke: #000000; stroke-width: 0.8"/>
      </g>
     </g>
     <g id="text_12">
      <!-- 40 -->
      <g transform="translate(34.025 255.034976) scale(0.1 -0.1)">
       <defs>
        <path id="DejaVuSans-34" d="M 2419 4116 
L 825 1625 
L 2419 1625 
L 2419 4116 
z
M 2253 4666 
L 3047 4666 
L 3047 1625 
L 3713 1625 
L 3713 1100 
L 3047 1100 
L 3047 0 
L 2419 0 
L 2419 1100 
L 313 1100 
L 313 1709 
L 2253 4666 
z
" transform="scale(0.015625)"/>
       </defs>
       <use xlink:href="#DejaVuSans-34"/>
       <use xlink:href="#DejaVuSans-30" x="63.623047"/>
      </g>
     </g>
    </g>
    <g id="ytick_4">
     <g id="line2d_12">
      <g>
       <use xlink:href="#m2b203c07e4" x="53.75" y="183.273636" style="stroke: #000000; stroke-width: 0.8"/>
      </g>
     </g>
     <g id="text_13">
      <!-- 60 -->
      <g transform="translate(34.025 187.072855) scale(0.1 -0.1)">
       <defs>
        <path id="DejaVuSans-36" d="M 2113 2584 
Q 1688 2584 1439 2293 
Q 1191 2003 1191 1497 
Q 1191 994 1439 701 
Q 1688 409 2113 409 
Q 2538 409 2786 701 
Q 3034 994 3034 1497 
Q 3034 2003 2786 2293 
Q 2538 2584 2113 2584 
z
M 3366 4563 
L 3366 3988 
Q 3128 4100 2886 4159 
Q 2644 4219 2406 4219 
Q 1781 4219 1451 3797 
Q 1122 3375 1075 2522 
Q 1259 2794 1537 2939 
Q 1816 3084 2150 3084 
Q 2853 3084 3261 2657 
Q 3669 2231 3669 1497 
Q 3669 778 3244 343 
Q 2819 -91 2113 -91 
Q 1303 -91 875 529 
Q 447 1150 447 2328 
Q 447 3434 972 4092 
Q 1497 4750 2381 4750 
Q 2619 4750 2861 4703 
Q 3103 4656 3366 4563 
z
" transform="scale(0.015625)"/>
       </defs>
       <use xlink:href="#DejaVuSans-36"/>
       <use xlink:href="#DejaVuSans-30" x="63.623047"/>
      </g>
     </g>
    </g>
    <g id="ytick_5">
     <g id="line2d_13">
      <g>
       <use xlink:href="#m2b203c07e4" x="53.75" y="115.311515" style="stroke: #000000; stroke-width: 0.8"/>
      </g>
     </g>
     <g id="text_14">
      <!-- 80 -->
      <g transform="translate(34.025 119.110734) scale(0.1 -0.1)">
       <defs>
        <path id="DejaVuSans-38" d="M 2034 2216 
Q 1584 2216 1326 1975 
Q 1069 1734 1069 1313 
Q 1069 891 1326 650 
Q 1584 409 2034 409 
Q 2484 409 2743 651 
Q 3003 894 3003 1313 
Q 3003 1734 2745 1975 
Q 2488 2216 2034 2216 
z
M 1403 2484 
Q 997 2584 770 2862 
Q 544 3141 544 3541 
Q 544 4100 942 4425 
Q 1341 4750 2034 4750 
Q 2731 4750 3128 4425 
Q 3525 4100 3525 3541 
Q 3525 3141 3298 2862 
Q 3072 2584 2669 2484 
Q 3125 2378 3379 2068 
Q 3634 1759 3634 1313 
Q 3634 634 3220 271 
Q 2806 -91 2034 -91 
Q 1263 -91 848 271 
Q 434 634 434 1313 
Q 434 1759 690 2068 
Q 947 2378 1403 2484 
z
M 1172 3481 
Q 1172 3119 1398 2916 
Q 1625 2713 2034 2713 
Q 2441 2713 2670 2916 
Q 2900 3119 2900 3481 
Q 2900 3844 2670 4047 
Q 2441 4250 2034 4250 
Q 1625 4250 1398 4047 
Q 1172 3844 1172 3481 
z
" transform="scale(0.015625)"/>
       </defs>
       <use xlink:href="#DejaVuSans-38"/>
       <use xlink:href="#DejaVuSans-30" x="63.623047"/>
      </g>
     </g>
    </g>
    <g id="ytick_6">
     <g id="line2d_14">
      <g>
       <use xlink:href="#m2b203c07e4" x="53.75" y="47.349394" style="stroke: #000000; stroke-width: 0.8"/>
      </g>
     </g>
     <g id="text_15">
      <!-- 100 -->
      <g transform="translate(27.6625 51.148613) scale(0.1 -0.1)">
       <use xlink:href="#DejaVuSans-31"/>
       <use xlink:href="#DejaVuSans-30" x="63.623047"/>
       <use xlink:href="#DejaVuSans-30" x="127.246094"/>
      </g>
     </g>
    </g>
    <g id="text_16">
     <!-- Temperature (°C) -->
     <g transform="translate(21.166875 259.521875) rotate(-90) scale(0.12 -0.12)">
      <defs>
       <path id="DejaVuSans-54" d="M -19 4666 
L 3928 4666 
L 3928 4134 
L 2272 4134 
L 2272 0 
L 1638 0 
L 1638 4134 
L -19 4134 
L -19 4666 
z
" transform="scale(0.015625)"/>
       <path id="DejaVuSans-b0" d="M 1600 4347 
Q 1350 4347 1178 4173 
Q 1006 4000 1006 3750 
Q 1006 3503 1178 3333 
Q 1350 3163 1600 3163 
Q 1850 3163 2022 3333 
Q 2194 3503 2194 3750 
Q 2194 3997 2020 4172 
Q 1847 4347 1600 4347 
z
M 1600 4750 
Q 1800 4750 1984 4673 
Q 2169 4597 2303 4453 
Q 2447 4313 2519 4134 
Q 2591 3956 2591 3750 
Q 2591 3338 2302 3052 
Q 2013 2766 1594 2766 
Q 1172 2766 890 3047 
Q 609 3328 609 3750 
Q 609 4169 896 4459 
Q 1184 4750 1600 4750 
z
" transform="scale(0.015625)"/>
       <path id="DejaVuSans-43" d="M 4122 4306 
L 4122 3641 
Q 3803 3938 3442 4084 
Q 3081 4231 2675 4231 
Q 1875 4231 1450 3742 
Q 1025 3253 1025 2328 
Q 1025 1406 1450 917 
Q 1875 428 2675 428 
Q 3081 428 3442 575 
Q 3803 722 4122 1019 
L 4122 359 
Q 3791 134 3420 21 
Q 3050 -91 2638 -91 
Q 1578 -91 968 557 
Q 359 1206 359 2328 
Q 359 3453 968 4101 
Q 1578 4750 2638 4750 
Q 3056 4750 3426 4639 
Q 3797 4528 4122 4306 
z
" transform="scale(0.015625)"/>
      </defs>
      <use xlink:href="#DejaVuSans-54"/>
      <use xlink:href="#DejaVuSans-65" x="44.083984"/>
      <use xlink:href="#DejaVuSans-6d" x="105.607422"/>
      <use xlink:href="#DejaVuSans-70" x="203.019531"/>
      <use xlink:href="#DejaVuSans-65" x="266.496094"/>
      <use xlink:href="#DejaVuSans-72" x="328.019531"/>
      <use xlink:href="#DejaVuSans-61" x="369.132812"/>
      <use xlink:href="#DejaVuSans-74" x="430.412109"/>
      <use xlink:href="#DejaVuSans-75" x="469.621094"/>
      <use xlink:href="#DejaVuSans-72" x="533"/>
      <use xlink:href="#DejaVuSans-65" x="571.863281"/>
      <use xlink:href="#DejaVuSans-20" x="633.386719"/>
      <use xlink:href="#DejaVuSans-28" x="665.173828"/>
      <use xlink:href="#DejaVuSans-b0" x="704.1875"/>
      <use xlink:href="#DejaVuSans-43" x="754.1875"/>
      <use xlink:href="#DejaVuSans-29" x="824.011719"/>
     </g>
    </g>
   </g>
   <g id="line2d_15">
    <path d="M 53.75 196.866061 
L 54.472086 196.866061 
L 55.913018 183.273636 
L 56.635464 193.467955 
L 57.354309 142.496364 
L 58.078196 190.069848 
L 58.808205 193.467955 
L 59.529571 186.671742 
L 60.25814 190.069848 
L 60.971223 179.87553 
L 61.69547 156.088788 
L 62.432322 159.486894 
L 63.136762 128.903939 
L 63.857407 122.107727 
L 64.575532 135.700152 
L 65.294737 173.079318 
L 66.029428 166.283106 
L 66.730626 125.505833 
L 67.456314 173.079318 
L 68.1784 162.885 
L 68.897606 162.885 
L 69.620052 152.690682 
L 70.339617 190.069848 
L 71.066385 149.292576 
L 71.80972 128.903939 
L 72.504436 135.700152 
L 73.224001 125.505833 
L 74.167215 132.302045 
L 74.667453 125.505833 
L 75.39026 125.505833 
L 76.108745 156.088788 
L 76.832271 139.098258 
L 77.554358 135.700152 
L 78.277164 139.098258 
L 79.006453 145.89447 
L 79.727099 135.700152 
L 80.456748 145.89447 
L 81.180996 139.098258 
L 81.896959 118.709621 
L 82.62985 128.903939 
L 83.343293 128.903939 
L 84.064659 125.505833 
L 84.788906 125.505833 
L 85.511353 101.719091 
L 86.231638 118.709621 
L 86.953004 105.117197 
L 87.672569 145.89447 
L 88.392855 159.486894 
L 89.108459 156.088788 
L 89.833426 149.292576 
L 90.54939 118.709621 
L 91.990321 132.302045 
L 92.712047 132.302045 
L 93.437015 135.700152 
L 94.158381 128.903939 
L 95.599312 108.515303 
L 96.317077 125.505833 
L 97.041324 111.913409 
L 97.758368 125.505833 
L 98.477933 118.709621 
L 99.208303 125.505833 
L 99.926428 115.311515 
L 100.644913 108.515303 
L 102.085124 122.107727 
L 102.809371 108.515303 
L 104.266148 122.107727 
L 104.97563 88.126667 
L 105.696635 115.311515 
L 106.424484 105.117197 
L 107.144049 125.505833 
L 107.864335 139.098258 
L 108.589662 88.126667 
L 109.308147 111.913409 
L 110.033475 84.728561 
L 110.756642 101.719091 
L 111.475487 101.719091 
L 112.202255 94.922879 
L 112.92074 91.524773 
L 113.641745 118.709621 
L 114.365272 108.515303 
L 115.089159 108.515303 
L 115.809805 94.922879 
L 116.542335 91.524773 
L 117.261541 118.709621 
L 117.974983 122.107727 
L 118.69815 105.117197 
L 119.423838 118.709621 
L 120.140882 118.709621 
L 120.870531 125.505833 
L 121.591897 125.505833 
L 122.308582 132.302045 
L 123.038951 101.719091 
L 123.754915 125.505833 
L 124.479882 125.505833 
L 125.199088 139.098258 
L 125.922975 142.496364 
L 126.652984 128.903939 
L 127.371109 128.903939 
L 128.094275 139.098258 
L 128.817082 132.302045 
L 129.535927 132.302045 
L 130.263055 108.515303 
L 130.982981 135.700152 
L 131.702186 139.098258 
L 132.427513 132.302045 
L 133.148519 64.339924 
L 133.869885 122.107727 
L 134.58693 125.505833 
L 135.317299 101.719091 
L 136.040826 122.107727 
L 136.762552 132.302045 
L 137.482117 128.903939 
L 138.207085 122.107727 
L 138.930252 128.903939 
L 139.652338 115.311515 
L 140.370823 125.505833 
L 141.091468 128.903939 
L 141.823639 91.524773 
L 142.547166 105.117197 
L 143.26313 105.117197 
L 143.989538 101.719091 
L 144.717386 94.922879 
L 145.435151 105.117197 
L 146.161919 84.728561 
L 146.879683 101.719091 
L 147.600689 88.126667 
L 148.327457 77.932348 
L 149.053505 84.728561 
L 149.781714 64.339924 
L 150.499839 118.709621 
L 151.229488 118.709621 
L 151.959137 125.505833 
L 152.678342 125.505833 
L 153.397548 118.709621 
L 154.122515 128.903939 
L 154.846762 122.107727 
L 155.569929 125.505833 
L 156.289494 125.505833 
L 157.015542 108.515303 
L 157.74267 125.505833 
L 159.187923 125.505833 
L 159.912531 128.903939 
L 160.64218 125.505833 
L 161.364266 111.913409 
L 162.084192 122.107727 
L 162.808799 118.709621 
L 163.524042 125.505833 
L 164.245769 118.709621 
L 165.684179 125.505833 
L 166.404464 122.107727 
L 167.12403 122.107727 
L 167.848277 115.311515 
L 168.566762 125.505833 
L 169.285247 115.311515 
L 170.725818 122.107727 
L 172.889556 122.107727 
L 173.60732 98.320985 
L 174.332648 118.709621 
L 175.060136 115.311515 
L 175.77718 118.709621 
L 177.218112 111.913409 
L 177.941278 118.709621 
L 178.658683 105.117197 
L 179.381129 115.311515 
L 180.102855 101.719091 
L 180.825662 118.709621 
L 181.55207 98.320985 
L 182.275957 67.73803 
L 182.995522 64.339924 
L 183.722651 84.728561 
L 184.439335 88.126667 
L 185.162501 77.932348 
L 185.886028 91.524773 
L 186.615317 71.136136 
L 187.338124 77.932348 
L 188.05985 77.932348 
L 188.784818 91.524773 
L 189.511226 64.339924 
L 190.234392 74.534242 
L 190.951076 74.534242 
L 191.671722 84.728561 
L 192.394169 101.719091 
L 193.118776 108.515303 
L 193.840862 108.515303 
L 194.559707 115.311515 
L 195.288996 115.311515 
L 196.002799 111.913409 
L 196.731008 115.311515 
L 197.449853 111.913409 
L 198.17446 115.311515 
L 199.614671 115.311515 
L 200.335317 105.117197 
L 201.059204 115.311515 
L 201.785612 115.311515 
L 202.509859 108.515303 
L 203.232666 115.311515 
L 203.952231 108.515303 
L 204.676118 111.913409 
L 205.404327 98.320985 
L 206.120291 115.311515 
L 206.844898 74.534242 
L 207.566984 77.932348 
L 208.296273 67.73803 
L 209.021601 108.515303 
L 209.740086 111.913409 
L 211.182818 111.913409 
L 211.900943 115.311515 
L 212.621588 111.913409 
L 213.345475 111.913409 
L 214.073324 115.311515 
L 214.79397 105.117197 
L 215.519657 105.117197 
L 216.241744 108.515303 
L 216.958788 98.320985 
L 217.683395 108.515303 
L 219.843171 108.515303 
L 220.57066 111.913409 
L 221.288064 108.515303 
L 222.010151 108.515303 
L 222.736559 94.922879 
L 223.462967 108.515303 
L 224.17785 105.117197 
L 226.344109 105.117197 
L 227.065115 108.515303 
L 227.790802 108.515303 
L 228.506046 64.339924 
L 229.227772 88.126667 
L 229.958142 71.136136 
L 230.672305 98.320985 
L 231.395832 105.117197 
L 232.116117 105.117197 
L 232.837123 94.922879 
L 233.553807 108.515303 
L 234.277334 105.117197 
L 235.001581 105.117197 
L 235.728349 108.515303 
L 236.447555 108.515303 
L 237.891727 101.719091 
L 238.616695 64.339924 
L 239.332298 71.136136 
L 240.057986 98.320985 
L 240.772869 108.515303 
L 241.503239 98.320985 
L 242.221364 105.117197 
L 242.951373 105.117197 
L 243.676341 108.515303 
L 244.399147 71.136136 
L 245.119433 71.136136 
L 245.84404 74.534242 
L 246.566847 64.339924 
L 247.287132 67.73803 
L 248.0121 74.534242 
L 248.738508 71.136136 
L 249.465996 71.136136 
L 250.185561 74.534242 
L 250.904046 67.73803 
L 251.629374 74.534242 
L 252.358663 94.922879 
L 253.078588 98.320985 
L 253.797433 94.922879 
L 254.515198 108.515303 
L 255.245567 88.126667 
L 255.969815 105.117197 
L 256.69082 94.922879 
L 257.412547 94.922879 
L 258.136434 88.126667 
L 258.855279 94.922879 
L 259.574484 98.320985 
L 260.29585 94.922879 
L 261.015055 101.719091 
L 261.741103 105.117197 
L 262.454546 101.719091 
L 263.176272 91.524773 
L 263.900519 94.922879 
L 264.623325 94.922879 
L 265.354415 98.320985 
L 266.070739 94.922879 
L 266.794266 98.320985 
L 267.523555 98.320985 
L 268.969529 91.524773 
L 269.695937 91.524773 
L 270.418743 98.320985 
L 271.14191 94.922879 
L 271.858954 105.117197 
L 272.587523 94.922879 
L 273.305288 98.320985 
L 274.024853 91.524773 
L 274.746939 105.117197 
L 275.466144 98.320985 
L 276.18751 101.719091 
L 276.907436 94.922879 
L 277.62484 105.117197 
L 278.348727 105.117197 
L 279.069013 98.320985 
L 279.787498 105.117197 
L 280.512825 101.719091 
L 281.240314 105.117197 
L 281.964921 98.320985 
L 282.685927 105.117197 
L 283.409454 94.922879 
L 284.13262 94.922879 
L 284.855427 98.320985 
L 285.572471 98.320985 
L 286.297079 74.534242 
L 287.020966 101.719091 
L 287.741611 84.728561 
L 288.462977 84.728561 
L 289.184343 98.320985 
L 289.910391 84.728561 
L 290.632838 98.320985 
L 291.353843 88.126667 
L 292.07737 94.922879 
L 292.799457 94.922879 
L 293.520462 88.126667 
L 294.237147 98.320985 
L 294.962474 88.126667 
L 295.680239 98.320985 
L 296.405926 98.320985 
L 297.128733 91.524773 
L 297.842896 98.320985 
L 298.564982 98.320985 
L 299.285268 84.728561 
L 300.010596 98.320985 
L 300.730521 94.922879 
L 301.463772 88.126667 
L 302.176854 77.932348 
L 302.899301 98.320985 
L 303.620667 88.126667 
L 304.338431 94.922879 
L 305.067721 88.126667 
L 305.785125 98.320985 
L 306.506491 91.524773 
L 307.231098 98.320985 
L 307.950664 98.320985 
L 308.674911 94.922879 
L 309.407441 94.922879 
L 310.123045 88.126667 
L 310.851974 98.320985 
L 312.292905 84.728561 
L 313.014991 84.728561 
L 313.745361 91.524773 
L 314.467807 91.524773 
L 315.195656 98.320985 
L 315.917022 91.524773 
L 316.636227 71.136136 
L 317.360114 77.932348 
L 318.08076 77.932348 
L 318.805727 71.136136 
L 320.239456 71.136136 
L 320.968025 74.534242 
L 322.415438 67.73803 
L 323.137525 71.136136 
L 323.85637 71.136136 
L 324.587099 67.73803 
L 325.305584 60.941818 
L 326.028031 67.73803 
L 326.7566 71.136136 
L 327.471123 88.126667 
L 328.193929 77.932348 
L 328.918537 101.719091 
L 329.641343 88.126667 
L 330.357667 77.932348 
L 331.077953 84.728561 
L 331.803641 101.719091 
L 332.519605 128.903939 
L 333.242051 139.098258 
L 333.964137 142.496364 
L 335.405429 135.700152 
L 336.123193 142.496364 
L 336.841318 152.690682 
L 337.565565 145.89447 
L 339.727862 156.088788 
L 340.45427 142.496364 
L 341.178157 156.088788 
L 341.899163 156.088788 
L 342.620889 152.690682 
L 343.348738 162.885 
L 344.074786 156.088788 
L 344.798313 162.885 
L 345.521479 166.283106 
L 346.246807 166.283106 
L 346.974295 162.885 
L 347.694941 166.283106 
L 350.580405 166.283106 
L 351.295649 152.690682 
L 352.015214 145.89447 
L 352.739821 145.89447 
L 353.454345 156.088788 
L 354.17463 145.89447 
L 354.898157 159.486894 
L 355.619883 162.885 
L 356.336567 159.486894 
L 357.062255 166.283106 
L 357.785062 156.088788 
L 358.506428 173.079318 
L 359.224912 169.681212 
L 359.945558 183.273636 
L 360.668005 179.87553 
L 361.394413 169.681212 
L 362.12046 145.89447 
L 362.838225 173.079318 
L 363.570035 173.079318 
L 364.286359 176.477424 
L 365.005204 173.079318 
L 365.728011 183.273636 
L 366.451177 173.079318 
L 367.165701 183.273636 
L 367.887427 183.273636 
L 368.614195 176.477424 
L 370.061969 183.273636 
L 370.783335 179.87553 
L 371.506502 179.87553 
L 372.229668 186.671742 
L 372.955356 179.87553 
L 373.673841 183.273636 
L 375.118734 183.273636 
L 375.84046 179.87553 
L 376.558225 179.87553 
L 377.282472 183.273636 
L 377.996635 179.87553 
L 378.717641 183.273636 
L 379.443328 179.87553 
L 380.161093 190.069848 
L 380.882819 169.681212 
L 381.600944 183.273636 
L 382.324471 190.069848 
L 383.042235 179.87553 
L 383.763601 179.87553 
L 384.481726 190.069848 
L 385.202732 190.069848 
L 385.923017 183.273636 
L 386.644744 186.671742 
L 387.364309 176.477424 
L 388.088196 190.069848 
L 388.810642 190.069848 
L 389.530928 193.467955 
L 390.249053 190.069848 
L 391.696827 190.069848 
L 392.421794 186.671742 
L 393.861645 193.467955 
L 394.583371 190.069848 
L 396.027904 190.069848 
L 396.743147 193.467955 
L 397.461632 179.87553 
L 398.18804 190.069848 
L 398.916249 190.069848 
L 399.638695 186.671742 
L 400.354659 179.87553 
L 401.081788 190.069848 
L 401.802073 190.069848 
L 402.522359 179.87553 
L 403.245886 173.079318 
L 403.966531 193.467955 
L 404.683215 179.87553 
L 405.404581 139.098258 
L 406.125947 176.477424 
L 406.841911 156.088788 
L 407.563998 159.486894 
L 408.284643 183.273636 
L 409.013212 179.87553 
L 409.73998 159.486894 
L 410.462787 159.486894 
L 411.189195 183.273636 
L 411.90948 173.079318 
L 412.635168 156.088788 
L 413.357615 179.87553 
L 414.075739 166.283106 
L 414.794944 179.87553 
L 415.524594 179.87553 
L 416.2456 173.079318 
L 416.970207 190.069848 
L 417.693013 149.292576 
L 419.138627 196.866061 
L 419.867195 193.467955 
L 420.58604 193.467955 
L 421.306686 196.866061 
L 422.028052 169.681212 
L 422.749778 183.273636 
L 423.467183 190.069848 
L 424.19107 186.671742 
L 425.62876 193.467955 
L 426.350126 190.069848 
L 427.077254 190.069848 
L 427.804022 186.671742 
L 429.246394 193.467955 
L 429.96704 190.069848 
L 430.687685 193.467955 
L 432.133659 193.467955 
L 432.856465 190.069848 
L 433.585394 193.467955 
L 434.30676 183.273636 
L 435.025605 193.467955 
L 436.467977 193.467955 
L 437.196546 190.069848 
L 437.91287 196.866061 
L 439.35128 190.069848 
L 440.072646 183.273636 
L 440.794372 190.069848 
L 441.516819 193.467955 
L 442.234223 186.671742 
L 442.961352 186.671742 
L 443.684158 193.467955 
L 444.402643 196.866061 
L 445.844295 190.069848 
L 446.567101 190.069848 
L 448.011994 196.866061 
L 449.456887 196.866061 
L 450.177893 190.069848 
L 450.90214 190.069848 
L 451.619184 186.671742 
L 452.345952 190.069848 
L 453.066598 186.671742 
L 453.790485 190.069848 
L 454.514732 186.671742 
L 455.233937 166.283106 
L 455.953503 179.87553 
L 456.671627 176.477424 
L 457.394434 169.681212 
L 458.117601 166.283106 
L 458.845449 173.079318 
L 460.281339 166.283106 
L 461.002344 169.681212 
L 461.729113 169.681212 
L 462.449398 183.273636 
L 463.893931 169.681212 
L 464.616737 159.486894 
L 465.342425 159.486894 
L 466.066672 179.87553 
L 466.789119 183.273636 
L 467.515527 169.681212 
L 468.239054 176.477424 
L 468.9615 169.681212 
L 469.685747 190.069848 
L 470.410354 193.467955 
L 471.128479 193.467955 
L 471.86173 196.866061 
L 473.306263 190.069848 
L 474.023307 183.273636 
L 474.746113 190.069848 
L 475.466039 186.671742 
L 476.191006 179.87553 
L 476.904809 190.069848 
L 477.622214 193.467955 
L 478.347541 183.273636 
L 479.069267 196.866061 
L 480.508758 196.866061 
L 481.226163 200.264167 
L 481.948969 196.866061 
L 482.668174 196.866061 
L 483.398544 190.069848 
L 484.839115 190.069848 
L 485.553638 183.273636 
L 486.276445 193.467955 
L 486.998531 190.069848 
L 487.723499 193.467955 
L 488.441623 193.467955 
L 489.160828 196.866061 
L 489.880394 190.069848 
L 490.598879 193.467955 
L 491.317363 193.467955 
L 492.03945 190.069848 
L 493.485063 190.069848 
L 494.21039 183.273636 
L 494.932837 193.467955 
L 496.374488 159.486894 
L 497.107019 159.486894 
L 497.823343 152.690682 
L 498.544349 183.273636 
L 499.269676 193.467955 
L 499.98636 190.069848 
L 500.714209 196.866061 
L 501.430893 183.273636 
L 502.875426 196.866061 
L 503.600033 200.264167 
L 504.319238 190.069848 
L 505.044566 193.467955 
L 505.76197 193.467955 
L 506.481175 183.273636 
L 507.204342 190.069848 
L 508.653197 196.866061 
L 509.369161 196.866061 
L 510.102051 190.069848 
L 510.820896 193.467955 
L 511.542982 190.069848 
L 512.272632 193.467955 
L 512.997599 190.069848 
L 513.714283 176.477424 
L 514.440331 190.069848 
L 516.603709 190.069848 
L 517.318592 183.273636 
L 518.760964 176.477424 
L 520.196493 190.069848 
L 520.91858 190.069848 
L 521.641746 186.671742 
L 522.359871 190.069848 
L 525.250377 190.069848 
L 525.96526 179.87553 
L 526.692749 179.87553 
L 527.416996 190.069848 
L 528.143764 179.87553 
L 528.869812 183.273636 
L 529.59622 183.273636 
L 530.320827 176.477424 
L 531.050116 183.273636 
L 531.769322 183.273636 
L 532.489607 190.069848 
L 533.208452 179.87553 
L 533.926577 190.069848 
L 534.655506 179.87553 
L 535.378673 159.486894 
L 536.104 183.273636 
L 536.828968 190.069848 
L 537.550334 190.069848 
L 538.2735 186.671742 
L 538.995587 190.069848 
L 539.720194 186.671742 
L 540.443 190.069848 
L 541.165447 190.069848 
L 541.892215 183.273636 
L 542.614301 186.671742 
L 543.34143 149.292576 
L 544.060635 159.486894 
L 544.778759 166.283106 
L 545.501926 169.681212 
L 546.21753 135.700152 
L 546.941057 183.273636 
L 547.659181 169.681212 
L 548.385589 190.069848 
L 549.099392 183.273636 
L 549.821479 179.87553 
L 550.549327 190.069848 
L 551.270333 190.069848 
L 552.717027 196.866061 
L 553.434071 196.866061 
L 554.156878 179.87553 
L 554.876803 196.866061 
L 555.60069 190.069848 
L 556.326378 162.885 
L 557.053866 149.292576 
L 557.77019 159.486894 
L 558.494797 179.87553 
L 559.223006 162.885 
L 559.946173 169.681212 
L 560.664658 173.079318 
L 561.388905 179.87553 
L 562.111711 196.866061 
L 563.559846 196.866061 
L 564.284453 190.069848 
L 565.005099 200.264167 
L 565.722503 200.264167 
L 566.44639 169.681212 
L 567.170997 159.486894 
L 567.893084 190.069848 
L 568.609408 193.467955 
L 569.333655 190.069848 
L 570.055381 183.273636 
L 570.781429 193.467955 
L 571.509998 190.069848 
L 572.233885 152.690682 
L 572.958492 169.681212 
L 573.678778 179.87553 
L 574.400864 176.477424 
L 575.12331 176.477424 
L 575.846477 183.273636 
L 576.569644 203.662273 
L 577.294611 169.681212 
L 578.009855 186.671742 
L 578.734102 159.486894 
L 579.458709 159.486894 
L 580.185117 152.690682 
L 580.904322 186.671742 
L 581.623527 183.273636 
L 582.348855 135.700152 
L 583.069861 176.477424 
L 583.796989 193.467955 
L 584.517275 193.467955 
L 585.248004 183.273636 
L 585.969731 183.273636 
L 586.692537 190.069848 
L 587.413183 186.671742 
L 588.133108 190.069848 
L 588.859516 190.069848 
L 589.5762 186.671742 
L 590.302248 169.681212 
L 591.034058 183.273636 
L 591.751823 183.273636 
L 592.467427 190.069848 
L 593.917001 196.866061 
L 594.64485 179.87553 
L 595.370178 173.079318 
L 596.087942 190.069848 
L 597.542919 183.273636 
L 598.258883 193.467955 
L 598.98241 190.069848 
L 599.707737 196.866061 
L 600.425862 190.069848 
L 601.873636 190.069848 
L 602.595362 196.866061 
L 604.035213 190.069848 
L 604.753338 196.866061 
L 605.476865 190.069848 
L 606.19571 193.467955 
L 606.915275 190.069848 
L 608.36629 190.069848 
L 609.09666 176.477424 
L 609.812263 176.477424 
L 610.537951 190.069848 
L 611.263639 193.467955 
L 612.70421 179.87553 
L 613.421614 190.069848 
L 614.150183 183.273636 
L 614.870109 186.671742 
L 616.315722 186.671742 
L 617.031686 190.069848 
L 617.751611 176.477424 
L 618.476939 190.069848 
L 619.200826 186.671742 
L 619.925073 173.079318 
L 620.657963 190.069848 
L 621.378609 190.069848 
L 622.101776 193.467955 
L 622.824582 173.079318 
L 623.553151 186.671742 
L 624.278119 190.069848 
L 624.999125 186.671742 
L 625.716529 193.467955 
L 626.435374 179.87553 
L 627.162502 190.069848 
L 628.617119 190.069848 
L 629.340646 176.477424 
L 630.065973 183.273636 
L 630.792021 169.681212 
L 631.515908 190.069848 
L 632.234753 190.069848 
L 632.953958 173.079318 
L 633.680366 179.87553 
L 634.398131 190.069848 
L 635.125259 173.079318 
L 635.846625 190.069848 
L 637.292238 190.069848 
L 638.750817 169.681212 
L 639.463179 179.87553 
L 640.181664 166.283106 
L 640.905551 179.87553 
L 642.344322 173.079318 
L 643.07217 166.283106 
L 643.793896 179.87553 
L 644.521385 159.486894 
L 645.243471 179.87553 
L 645.963757 173.079318 
L 646.681521 176.477424 
L 647.405408 176.477424 
L 648.133617 179.87553 
L 648.864347 190.069848 
L 649.583552 179.87553 
L 650.301676 159.486894 
L 651.021602 179.87553 
L 651.741167 159.486894 
L 652.460732 152.690682 
L 653.18678 173.079318 
L 653.913548 159.486894 
L 654.629152 166.283106 
L 655.353039 179.87553 
L 656.070083 200.264167 
L 656.791089 196.866061 
L 657.512815 196.866061 
L 658.235622 190.069848 
L 658.959869 193.467955 
L 659.678714 190.069848 
L 660.39972 196.866061 
L 661.839571 196.866061 
L 662.559136 190.069848 
L 664.723594 190.069848 
L 665.449282 176.477424 
L 666.169207 145.89447 
L 666.891654 169.681212 
L 667.609779 166.283106 
L 668.336547 149.292576 
L 669.056472 183.273636 
L 669.785761 193.467955 
L 670.501725 179.87553 
L 671.225972 193.467955 
L 671.950219 190.069848 
L 672.669425 156.088788 
L 673.397273 176.477424 
L 674.12044 183.273636 
L 675.562091 169.681212 
L 676.280576 176.477424 
L 677.001582 159.486894 
L 677.72871 183.273636 
L 678.450437 186.671742 
L 679.172523 176.477424 
L 679.89713 159.486894 
L 680.625339 169.681212 
L 681.344544 186.671742 
L 682.068791 173.079318 
L 682.789437 166.283106 
L 683.515845 149.292576 
L 684.241893 196.866061 
L 684.958217 190.069848 
L 685.677062 159.486894 
L 686.397707 190.069848 
L 687.120514 183.273636 
L 687.84224 186.671742 
L 688.57261 135.700152 
L 689.295776 183.273636 
L 690.021464 179.87553 
L 690.738148 149.292576 
L 691.459514 179.87553 
L 692.17944 145.89447 
L 692.902967 159.486894 
L 693.627934 186.671742 
L 694.347499 190.069848 
L 695.065624 186.671742 
L 695.784829 190.069848 
L 696.513398 190.069848 
L 697.239806 183.273636 
L 697.960092 193.467955 
L 698.681097 179.87553 
L 699.403544 193.467955 
L 700.12635 183.273636 
L 700.844115 193.467955 
L 701.570523 190.069848 
L 702.290088 193.467955 
L 703.016857 190.069848 
L 704.46391 190.069848 
L 705.183836 193.467955 
L 706.629809 186.671742 
L 707.349734 193.467955 
L 708.073261 186.671742 
L 708.799669 196.866061 
L 709.517074 196.866061 
L 710.241681 193.467955 
L 710.963047 196.866061 
L 711.682252 190.069848 
L 712.406859 190.069848 
L 713.129306 186.671742 
L 713.852473 193.467955 
L 716.011168 193.467955 
L 716.727492 190.069848 
L 717.454981 193.467955 
L 718.175987 193.467955 
L 718.901674 128.903939 
L 719.628082 166.283106 
L 720.348008 156.088788 
L 721.066493 183.273636 
L 722.519669 176.477424 
L 723.239954 179.87553 
L 723.966002 193.467955 
L 724.688449 190.069848 
L 725.415577 179.87553 
L 726.141265 190.069848 
L 726.86011 186.671742 
L 727.587598 190.069848 
L 728.306083 190.069848 
L 729.747014 176.477424 
L 730.469821 190.069848 
L 731.187946 193.467955 
L 731.912193 193.467955 
L 732.640762 190.069848 
L 733.362128 193.467955 
L 734.083854 173.079318 
L 734.810262 190.069848 
L 735.530547 190.069848 
L 736.250113 186.671742 
L 736.968597 179.87553 
L 737.694645 190.069848 
L 738.41169 190.069848 
L 739.135577 183.273636 
L 739.859464 190.069848 
L 740.583711 179.87553 
L 741.303276 190.069848 
L 742.026083 193.467955 
L 742.745288 190.069848 
L 744.915868 190.069848 
L 745.634353 183.273636 
L 746.3586 193.467955 
L 747.081047 190.069848 
L 747.798811 190.069848 
L 748.523419 196.866061 
L 749.971193 190.069848 
L 750.69724 193.467955 
L 751.415725 183.273636 
L 752.13421 179.87553 
L 752.856657 190.069848 
L 753.580544 190.069848 
L 754.30227 193.467955 
L 755.019314 190.069848 
L 755.74176 179.87553 
L 756.458084 190.069848 
L 757.183052 190.069848 
L 757.899016 183.273636 
L 758.629385 193.467955 
L 759.34751 190.069848 
L 760.065995 193.467955 
L 760.786641 183.273636 
L 761.503325 190.069848 
L 762.227572 183.273636 
L 762.95434 186.671742 
L 763.673905 179.87553 
L 764.396712 179.87553 
L 765.127082 190.069848 
L 765.846647 190.069848 
L 766.573415 183.273636 
L 767.29226 190.069848 
L 768.017588 190.069848 
L 768.737153 186.671742 
L 769.462841 190.069848 
L 770.186007 190.069848 
L 770.907373 183.273636 
L 771.62982 190.069848 
L 772.350105 190.069848 
L 773.069671 169.681212 
L 773.791037 190.069848 
L 774.514203 186.671742 
L 775.23773 186.671742 
L 776.67542 179.87553 
L 778.840238 190.069848 
L 779.556202 179.87553 
L 780.28189 190.069848 
L 780.998214 193.467955 
L 782.441666 186.671742 
L 783.159431 190.069848 
L 783.880437 190.069848 
L 784.601803 193.467955 
L 785.32533 186.671742 
L 786.048136 186.671742 
L 786.775625 176.477424 
L 787.500592 190.069848 
L 788.223759 179.87553 
L 788.940443 183.273636 
L 789.660008 196.866061 
L 790.384255 190.069848 
L 791.108863 193.467955 
L 791.825907 190.069848 
L 793.990725 190.069848 
L 794.721455 193.467955 
L 795.44138 173.079318 
L 796.164547 190.069848 
L 796.892756 183.273636 
L 797.61016 190.069848 
L 798.332246 186.671742 
L 799.060095 196.866061 
L 799.783262 183.273636 
L 800.506068 183.273636 
L 801.231756 190.069848 
L 803.396214 190.069848 
L 804.111818 186.671742 
L 804.838586 179.87553 
L 805.557431 190.069848 
L 806.280958 190.069848 
L 807.004485 169.681212 
L 807.722609 190.069848 
L 808.450098 190.069848 
L 809.170023 186.671742 
L 809.89211 179.87553 
L 812.801703 193.467955 
L 813.518747 190.069848 
L 814.242995 183.273636 
L 814.96328 183.273636 
L 815.682485 179.87553 
L 816.403131 196.866061 
L 817.127378 179.87553 
L 817.851265 190.069848 
L 819.30084 190.069848 
L 820.022926 186.671742 
L 820.754376 190.069848 
L 821.46998 190.069848 
L 822.193147 186.671742 
L 822.919194 190.069848 
L 823.645242 186.671742 
L 824.366968 179.87553 
L 825.094097 186.671742 
L 825.816903 190.069848 
L 826.543311 186.671742 
L 827.266838 193.467955 
L 827.989645 193.467955 
L 829.434538 186.671742 
L 830.155904 190.069848 
L 830.874389 190.069848 
L 831.596115 186.671742 
L 832.3164 186.671742 
L 833.035966 190.069848 
L 833.75337 190.069848 
L 834.475816 183.273636 
L 835.203665 190.069848 
L 837.363801 190.069848 
L 838.086248 193.467955 
L 839.541585 186.671742 
L 840.25971 190.069848 
L 842.420206 190.069848 
L 843.143733 186.671742 
L 843.862578 186.671742 
L 844.582503 190.069848 
L 845.299908 190.069848 
L 846.024155 179.87553 
L 846.740839 166.283106 
L 847.467247 176.477424 
L 848.194375 169.681212 
L 848.910699 169.681212 
L 849.636387 162.885 
L 850.365676 166.283106 
L 851.092444 166.283106 
L 851.809849 169.681212 
L 852.528334 169.681212 
L 853.252581 183.273636 
L 853.252581 183.273636 
" clip-path="url(#pab84ce8f85)" style="fill: none; stroke: #e74c3c; stroke-width: 2; stroke-linecap: square"/>
   </g>
   <g id="patch_3">
    <path d="M 53.75 387.16 
L 53.75 28.32 
" style="fill: none; stroke: #000000; stroke-width: 0.8; stroke-linejoin: miter; stroke-linecap: square"/>
   </g>
   <g id="patch_4">
    <path d="M 853.2 387.16 
L 853.2 28.32 
" style="fill: none; stroke: #000000; stroke-width: 0.8; stroke-linejoin: miter; stroke-linecap: square"/>
   </g>
   <g id="patch_5">
    <path d="M 53.75 387.16 
L 853.2 387.16 
" style="fill: none; stroke: #000000; stroke-width: 0.8; stroke-linejoin: miter; stroke-linecap: square"/>
   </g>
   <g id="patch_6">
    <path d="M 53.75 28.32 
L 853.2 28.32 
" style="fill: none; stroke: #000000; stroke-width: 0.8; stroke-linejoin: miter; stroke-linecap: square"/>
   </g>
   <g id="text_17">
    <!-- CPU package temperature over time -->
    <g transform="translate(288.98125 22.32) scale(0.16 -0.16)">
     <defs>
      <path id="DejaVuSans-Bold-43" d="M 4288 256 
Q 3956 84 3597 -3 
Q 3238 -91 2847 -91 
Q 1681 -91 1000 561 
Q 319 1213 319 2328 
Q 319 3447 1000 4098 
Q 1681 4750 2847 4750 
Q 3238 4750 3597 4662 
Q 3956 4575 4288 4403 
L 4288 3438 
Q 3953 3666 3628 3772 
Q 3303 3878 2944 3878 
Q 2300 3878 1931 3465 
Q 1563 3053 1563 2328 
Q 1563 1606 1931 1193 
Q 2300 781 2944 781 
Q 3303 781 3628 887 
Q 3953 994 4288 1222 
L 4288 256 
z
" transform="scale(0.015625)"/>
      <path id="DejaVuSans-Bold-50" d="M 588 4666 
L 2584 4666 
Q 3475 4666 3951 4270 
Q 4428 3875 4428 3144 
Q 4428 2409 3951 2014 
Q 3475 1619 2584 1619 
L 1791 1619 
L 1791 0 
L 588 0 
L 588 4666 
z
M 1791 3794 
L 1791 2491 
L 2456 2491 
Q 2806 2491 2997 2661 
Q 3188 2831 3188 3144 
Q 3188 3456 2997 3625 
Q 2806 3794 2456 3794 
L 1791 3794 
z
" transform="scale(0.015625)"/>
      <path id="DejaVuSans-Bold-55" d="M 588 4666 
L 1791 4666 
L 1791 1869 
Q 1791 1291 1980 1042 
Q 2169 794 2597 794 
Q 3028 794 3217 1042 
Q 3406 1291 3406 1869 
L 3406 4666 
L 4609 4666 
L 4609 1869 
Q 4609 878 4112 393 
Q 3616 -91 2597 -91 
Q 1581 -91 1084 393 
Q 588 878 588 1869 
L 588 4666 
z
" transform="scale(0.015625)"/>
      <path id="DejaVuSans-Bold-20" transform="scale(0.015625)"/>
      <path id="DejaVuSans-Bold-70" d="M 1656 506 
L 1656 -1331 
L 538 -1331 
L 538 3500 
L 1656 3500 
L 1656 2988 
Q 1888 3294 2169 3439 
Q 2450 3584 2816 3584 
Q 3463 3584 3878 3070 
Q 4294 2556 4294 1747 
Q 4294 938 3878 423 
Q 3463 -91 2816 -91 
Q 2450 -91 2169 54 
Q 1888 200 1656 506 
z
M 2400 2772 
Q 2041 2772 1848 2508 
Q 1656 2244 1656 1747 
Q 1656 1250 1848 986 
Q 2041 722 2400 722 
Q 2759 722 2948 984 
Q 3138 1247 3138 1747 
Q 3138 2247 2948 2509 
Q 2759 2772 2400 2772 
z
" transform="scale(0.015625)"/>
      <path id="DejaVuSans-Bold-61" d="M 2106 1575 
Q 1756 1575 1579 1456 
Q 1403 1338 1403 1106 
Q 1403 894 1545 773 
Q 1688 653 1941 653 
Q 2256 653 2472 879 
Q 2688 1106 2688 1447 
L 2688 1575 
L 2106 1575 
z
M 3816 1997 
L 3816 0 
L 2688 0 
L 2688 519 
Q 2463 200 2181 54 
Q 1900 -91 1497 -91 
Q 953 -91 614 226 
Q 275 544 275 1050 
Q 275 1666 698 1953 
Q 1122 2241 2028 2241 
L 2688 2241 
L 2688 2328 
Q 2688 2594 2478 2717 
Q 2269 2841 1825 2841 
Q 1466 2841 1156 2769 
Q 847 2697 581 2553 
L 581 3406 
Q 941 3494 1303 3539 
Q 1666 3584 2028 3584 
Q 2975 3584 3395 3211 
Q 3816 2838 3816 1997 
z
" transform="scale(0.015625)"/>
      <path id="DejaVuSans-Bold-63" d="M 3366 3391 
L 3366 2478 
Q 3138 2634 2908 2709 
Q 2678 2784 2431 2784 
Q 1963 2784 1702 2511 
Q 1441 2238 1441 1747 
Q 1441 1256 1702 982 
Q 1963 709 2431 709 
Q 2694 709 2930 787 
Q 3166 866 3366 1019 
L 3366 103 
Q 3103 6 2833 -42 
Q 2563 -91 2291 -91 
Q 1344 -91 809 395 
Q 275 881 275 1747 
Q 275 2613 809 3098 
Q 1344 3584 2291 3584 
Q 2566 3584 2833 3536 
Q 3100 3488 3366 3391 
z
" transform="scale(0.015625)"/>
      <path id="DejaVuSans-Bold-6b" d="M 538 4863 
L 1656 4863 
L 1656 2216 
L 2944 3500 
L 4244 3500 
L 2534 1894 
L 4378 0 
L 3022 0 
L 1656 1459 
L 1656 0 
L 538 0 
L 538 4863 
z
" transform="scale(0.015625)"/>
      <path id="DejaVuSans-Bold-67" d="M 2919 594 
Q 2688 288 2409 144 
Q 2131 0 1766 0 
Q 1125 0 706 504 
Q 288 1009 288 1791 
Q 288 2575 706 3076 
Q 1125 3578 1766 3578 
Q 2131 3578 2409 3434 
Q 2688 3291 2919 2981 
L 2919 3500 
L 4044 3500 
L 4044 353 
Q 4044 -491 3511 -936 
Q 2978 -1381 1966 -1381 
Q 1638 -1381 1331 -1331 
Q 1025 -1281 716 -1178 
L 716 -306 
Q 1009 -475 1290 -558 
Q 1572 -641 1856 -641 
Q 2406 -641 2662 -400 
Q 2919 -159 2919 353 
L 2919 594 
z
M 2181 2772 
Q 1834 2772 1640 2515 
Q 1447 2259 1447 1791 
Q 1447 1309 1634 1061 
Q 1822 813 2181 813 
Q 2531 813 2725 1069 
Q 2919 1325 2919 1791 
Q 2919 2259 2725 2515 
Q 2531 2772 2181 2772 
z
" transform="scale(0.015625)"/>
      <path id="DejaVuSans-Bold-65" d="M 4031 1759 
L 4031 1441 
L 1416 1441 
Q 1456 1047 1700 850 
Q 1944 653 2381 653 
Q 2734 653 3104 758 
Q 3475 863 3866 1075 
L 3866 213 
Q 3469 63 3072 -14 
Q 2675 -91 2278 -91 
Q 1328 -91 801 392 
Q 275 875 275 1747 
Q 275 2603 792 3093 
Q 1309 3584 2216 3584 
Q 3041 3584 3536 3087 
Q 4031 2591 4031 1759 
z
M 2881 2131 
Q 2881 2450 2695 2645 
Q 2509 2841 2209 2841 
Q 1884 2841 1681 2658 
Q 1478 2475 1428 2131 
L 2881 2131 
z
" transform="scale(0.015625)"/>
      <path id="DejaVuSans-Bold-74" d="M 1759 4494 
L 1759 3500 
L 2913 3500 
L 2913 2700 
L 1759 2700 
L 1759 1216 
Q 1759 972 1856 886 
Q 1953 800 2241 800 
L 2816 800 
L 2816 0 
L 1856 0 
Q 1194 0 917 276 
Q 641 553 641 1216 
L 641 2700 
L 84 2700 
L 84 3500 
L 641 3500 
L 641 4494 
L 1759 4494 
z
" transform="scale(0.015625)"/>
      <path id="DejaVuSans-Bold-6d" d="M 3781 2919 
Q 3994 3244 4286 3414 
Q 4578 3584 4928 3584 
Q 5531 3584 5847 3212 
Q 6163 2841 6163 2131 
L 6163 0 
L 5038 0 
L 5038 1825 
Q 5041 1866 5042 1909 
Q 5044 1953 5044 2034 
Q 5044 2406 4934 2573 
Q 4825 2741 4581 2741 
Q 4263 2741 4089 2478 
Q 3916 2216 3909 1719 
L 3909 0 
L 2784 0 
L 2784 1825 
Q 2784 2406 2684 2573 
Q 2584 2741 2328 2741 
Q 2006 2741 1831 2477 
Q 1656 2213 1656 1722 
L 1656 0 
L 531 0 
L 531 3500 
L 1656 3500 
L 1656 2988 
Q 1863 3284 2130 3434 
Q 2397 3584 2719 3584 
Q 3081 3584 3359 3409 
Q 3638 3234 3781 2919 
z
" transform="scale(0.015625)"/>
      <path id="DejaVuSans-Bold-72" d="M 3138 2547 
Q 2991 2616 2845 2648 
Q 2700 2681 2553 2681 
Q 2122 2681 1889 2404 
Q 1656 2128 1656 1613 
L 1656 0 
L 538 0 
L 538 3500 
L 1656 3500 
L 1656 2925 
Q 1872 3269 2151 3426 
Q 2431 3584 2822 3584 
Q 2878 3584 2943 3579 
Q 3009 3575 3134 3559 
L 3138 2547 
z
" transform="scale(0.015625)"/>
      <path id="DejaVuSans-Bold-75" d="M 500 1363 
L 500 3500 
L 1625 3500 
L 1625 3150 
Q 1625 2866 1622 2436 
Q 1619 2006 1619 1863 
Q 1619 1441 1641 1255 
Q 1663 1069 1716 984 
Q 1784 875 1895 815 
Q 2006 756 2150 756 
Q 2500 756 2700 1025 
Q 2900 1294 2900 1772 
L 2900 3500 
L 4019 3500 
L 4019 0 
L 2900 0 
L 2900 506 
Q 2647 200 2364 54 
Q 2081 -91 1741 -91 
Q 1134 -91 817 281 
Q 500 653 500 1363 
z
" transform="scale(0.015625)"/>
      <path id="DejaVuSans-Bold-6f" d="M 2203 2784 
Q 1831 2784 1636 2517 
Q 1441 2250 1441 1747 
Q 1441 1244 1636 976 
Q 1831 709 2203 709 
Q 2569 709 2762 976 
Q 2956 1244 2956 1747 
Q 2956 2250 2762 2517 
Q 2569 2784 2203 2784 
z
M 2203 3584 
Q 3106 3584 3614 3096 
Q 4122 2609 4122 1747 
Q 4122 884 3614 396 
Q 3106 -91 2203 -91 
Q 1297 -91 786 396 
Q 275 884 275 1747 
Q 275 2609 786 3096 
Q 1297 3584 2203 3584 
z
" transform="scale(0.015625)"/>
      <path id="DejaVuSans-Bold-76" d="M 97 3500 
L 1216 3500 
L 2088 1081 
L 2956 3500 
L 4078 3500 
L 2700 0 
L 1472 0 
L 97 3500 
z
" transform="scale(0.015625)"/>
      <path id="DejaVuSans-Bold-69" d="M 538 3500 
L 1656 3500 
L 1656 0 
L 538 0 
L 538 3500 
z
M 538 4863 
L 1656 4863 
L 1656 3950 
L 538 3950 
L 538 4863 
z
" transform="scale(0.015625)"/>
     </defs>
     <use xlink:href="#DejaVuSans-Bold-43"/>
     <use xlink:href="#DejaVuSans-Bold-50" x="73.388672"/>
     <use xlink:href="#DejaVuSans-Bold-55" x="146.679688"/>
     <use xlink:href="#DejaVuSans-Bold-20" x="227.880859"/>
     <use xlink:href="#DejaVuSans-Bold-70" x="262.695312"/>
     <use xlink:href="#DejaVuSans-Bold-61" x="334.277344"/>
     <use xlink:href="#DejaVuSans-Bold-63" x="401.757812"/>
     <use xlink:href="#DejaVuSans-Bold-6b" x="461.035156"/>
     <use xlink:href="#DejaVuSans-Bold-61" x="527.539062"/>
     <use xlink:href="#DejaVuSans-Bold-67" x="595.019531"/>
     <use xlink:href="#DejaVuSans-Bold-65" x="666.601562"/>
     <use xlink:href="#DejaVuSans-Bold-20" x="734.423828"/>
     <use xlink:href="#DejaVuSans-Bold-74" x="769.238281"/>
     <use xlink:href="#DejaVuSans-Bold-65" x="817.041016"/>
     <use xlink:href="#DejaVuSans-Bold-6d" x="884.863281"/>
     <use xlink:href="#DejaVuSans-Bold-70" x="989.0625"/>
     <use xlink:href="#DejaVuSans-Bold-65" x="1060.644531"/>
     <use xlink:href="#DejaVuSans-Bold-72" x="1128.466797"/>
     <use xlink:href="#DejaVuSans-Bold-61" x="1177.783203"/>
     <use xlink:href="#DejaVuSans-Bold-74" x="1245.263672"/>
     <use xlink:href="#DejaVuSans-Bold-75" x="1293.066406"/>
     <use xlink:href="#DejaVuSans-Bold-72" x="1364.257812"/>
     <use xlink:href="#DejaVuSans-Bold-65" x="1413.574219"/>
     <use xlink:href="#DejaVuSans-Bold-20" x="1481.396484"/>
     <use xlink:href="#DejaVuSans-Bold-6f" x="1516.210938"/>
     <use xlink:href="#DejaVuSans-Bold-76" x="1584.912109"/>
     <use xlink:href="#DejaVuSans-Bold-65" x="1650.097656"/>
     <use xlink:href="#DejaVuSans-Bold-72" x="1717.919922"/>
     <use xlink:href="#DejaVuSans-Bold-20" x="1767.236328"/>
     <use xlink:href="#DejaVuSans-Bold-74" x="1802.050781"/>
     <use xlink:href="#DejaVuSans-Bold-69" x="1849.853516"/>
     <use xlink:href="#DejaVuSans-Bold-6d" x="1884.130859"/>
     <use xlink:href="#DejaVuSans-Bold-65" x="1988.330078"/>
    </g>
   </g>
   <g id="legend_1">
    <g id="patch_7">
     <path d="M 707.0875 67.67625 
L 848.2 67.67625 
Q 850.2 67.67625 850.2 65.67625 
L 850.2 37.32 
Q 850.2 35.32 848.2 35.32 
L 707.0875 35.32 
Q 705.0875 35.32 705.0875 37.32 
L 705.0875 65.67625 
Q 705.0875 67.67625 707.0875 67.67625 
z
" style="fill: #4d4d4d; opacity: 0.5; stroke: #4d4d4d; stroke-linejoin: miter"/>
    </g>
    <g id="patch_8">
     <path d="M 705.0875 65.67625 
L 846.2 65.67625 
Q 848.2 65.67625 848.2 63.67625 
L 848.2 35.32 
Q 848.2 33.32 846.2 33.32 
L 705.0875 33.32 
Q 703.0875 33.32 703.0875 35.32 
L 703.0875 63.67625 
Q 703.0875 65.67625 705.0875 65.67625 
z
" style="fill: #ffffff; stroke: #cccccc; stroke-linejoin: miter"/>
    </g>
    <g id="line2d_16">
     <path d="M 707.0875 41.418437 
L 717.0875 41.418437 
L 727.0875 41.418437 
" style="fill: none; stroke: #e74c3c; stroke-width: 2; stroke-linecap: square"/>
    </g>
    <g id="text_18">
     <!-- CPU package (°C) -->
     <g transform="translate(735.0875 44.918437) scale(0.1 -0.1)">
      <defs>
       <path id="DejaVuSans-50" d="M 1259 4147 
L 1259 2394 
L 2053 2394 
Q 2494 2394 2734 2622 
Q 2975 2850 2975 3272 
Q 2975 3691 2734 3919 
Q 2494 4147 2053 4147 
L 1259 4147 
z
M 628 4666 
L 2053 4666 
Q 2838 4666 3239 4311 
Q 3641 3956 3641 3272 
Q 3641 2581 3239 2228 
Q 2838 1875 2053 1875 
L 1259 1875 
L 1259 0 
L 628 0 
L 628 4666 
z
" transform="scale(0.015625)"/>
       <path id="DejaVuSans-55" d="M 556 4666 
L 1191 4666 
L 1191 1831 
Q 1191 1081 1462 751 
Q 1734 422 2344 422 
Q 2950 422 3222 751 
Q 3494 1081 3494 1831 
L 3494 4666 
L 4128 4666 
L 4128 1753 
Q 4128 841 3676 375 
Q 3225 -91 2344 -91 
Q 1459 -91 1007 375 
Q 556 841 556 1753 
L 556 4666 
z
" transform="scale(0.015625)"/>
       <path id="DejaVuSans-63" d="M 3122 3366 
L 3122 2828 
Q 2878 2963 2633 3030 
Q 2388 3097 2138 3097 
Q 1578 3097 1268 2742 
Q 959 2388 959 1747 
Q 959 1106 1268 751 
Q 1578 397 2138 397 
Q 2388 397 2633 464 
Q 2878 531 3122 666 
L 3122 134 
Q 2881 22 2623 -34 
Q 2366 -91 2075 -91 
Q 1284 -91 818 406 
Q 353 903 353 1747 
Q 353 2603 823 3093 
Q 1294 3584 2113 3584 
Q 2378 3584 2631 3529 
Q 2884 3475 3122 3366 
z
" transform="scale(0.015625)"/>
       <path id="DejaVuSans-6b" d="M 581 4863 
L 1159 4863 
L 1159 1991 
L 2875 3500 
L 3609 3500 
L 1753 1863 
L 3688 0 
L 2938 0 
L 1159 1709 
L 1159 0 
L 581 0 
L 581 4863 
z
" transform="scale(0.015625)"/>
       <path id="DejaVuSans-67" d="M 2906 1791 
Q 2906 2416 2648 2759 
Q 2391 3103 1925 3103 
Q 1463 3103 1205 2759 
Q 947 2416 947 1791 
Q 947 1169 1205 825 
Q 1463 481 1925 481 
Q 2391 481 2648 825 
Q 2906 1169 2906 1791 
z
M 3481 434 
Q 3481 -459 3084 -895 
Q 2688 -1331 1869 -1331 
Q 1566 -1331 1297 -1286 
Q 1028 -1241 775 -1147 
L 775 -588 
Q 1028 -725 1275 -790 
Q 1522 -856 1778 -856 
Q 2344 -856 2625 -561 
Q 2906 -266 2906 331 
L 2906 616 
Q 2728 306 2450 153 
Q 2172 0 1784 0 
Q 1141 0 747 490 
Q 353 981 353 1791 
Q 353 2603 747 3093 
Q 1141 3584 1784 3584 
Q 2172 3584 2450 3431 
Q 2728 3278 2906 2969 
L 2906 3500 
L 3481 3500 
L 3481 434 
z
" transform="scale(0.015625)"/>
      </defs>
      <use xlink:href="#DejaVuSans-43"/>
      <use xlink:href="#DejaVuSans-50" x="69.824219"/>
      <use xlink:href="#DejaVuSans-55" x="130.126953"/>
      <use xlink:href="#DejaVuSans-20" x="203.320312"/>
      <use xlink:href="#DejaVuSans-70" x="235.107422"/>
      <use xlink:href="#DejaVuSans-61" x="298.583984"/>
      <use xlink:href="#DejaVuSans-63" x="359.863281"/>
      <use xlink:href="#DejaVuSans-6b" x="414.84375"/>
      <use xlink:href="#DejaVuSans-61" x="471.003906"/>
      <use xlink:href="#DejaVuSans-67" x="532.283203"/>
      <use xlink:href="#DejaVuSans-65" x="595.759766"/>
      <use xlink:href="#DejaVuSans-20" x="657.283203"/>
      <use xlink:href="#DejaVuSans-28" x="689.070312"/>
      <use xlink:href="#DejaVuSans-b0" x="728.083984"/>
      <use xlink:href="#DejaVuSans-43" x="778.083984"/>
      <use xlink:href="#DejaVuSans-29" x="847.908203"/>
     </g>
    </g>
    <g id="line2d_17">
     <path d="M 707.0875 56.096563 
L 717.0875 56.096563 
L 727.0875 56.096563 
" style="fill: none; stroke-dasharray: 7.4,3.2; stroke-dashoffset: 0; stroke: #000000; stroke-opacity: 0.9; stroke-width: 2"/>
    </g>
    <g id="text_19">
     <!-- Cooler on (5000 RPM) -->
     <g transform="translate(735.0875 59.596563) scale(0.1 -0.1)">
      <defs>
       <path id="DejaVuSans-52" d="M 2841 2188 
Q 3044 2119 3236 1894 
Q 3428 1669 3622 1275 
L 4263 0 
L 3584 0 
L 2988 1197 
Q 2756 1666 2539 1819 
Q 2322 1972 1947 1972 
L 1259 1972 
L 1259 0 
L 628 0 
L 628 4666 
L 2053 4666 
Q 2853 4666 3247 4331 
Q 3641 3997 3641 3322 
Q 3641 2881 3436 2590 
Q 3231 2300 2841 2188 
z
M 1259 4147 
L 1259 2491 
L 2053 2491 
Q 2509 2491 2742 2702 
Q 2975 2913 2975 3322 
Q 2975 3731 2742 3939 
Q 2509 4147 2053 4147 
L 1259 4147 
z
" transform="scale(0.015625)"/>
      </defs>
      <use xlink:href="#DejaVuSans-43"/>
      <use xlink:href="#DejaVuSans-6f" x="69.824219"/>
      <use xlink:href="#DejaVuSans-6f" x="131.005859"/>
      <use xlink:href="#DejaVuSans-6c" x="192.1875"/>
      <use xlink:href="#DejaVuSans-65" x="219.970703"/>
      <use xlink:href="#DejaVuSans-72" x="281.494141"/>
      <use xlink:href="#DejaVuSans-20" x="322.607422"/>
      <use xlink:href="#DejaVuSans-6f" x="354.394531"/>
      <use xlink:href="#DejaVuSans-6e" x="415.576172"/>
      <use xlink:href="#DejaVuSans-20" x="478.955078"/>
      <use xlink:href="#DejaVuSans-28" x="510.742188"/>
      <use xlink:href="#DejaVuSans-35" x="549.755859"/>
      <use xlink:href="#DejaVuSans-30" x="613.378906"/>
      <use xlink:href="#DejaVuSans-30" x="677.001953"/>
      <use xlink:href="#DejaVuSans-30" x="740.625"/>
      <use xlink:href="#DejaVuSans-20" x="804.248047"/>
      <use xlink:href="#DejaVuSans-52" x="836.035156"/>
      <use xlink:href="#DejaVuSans-50" x="905.517578"/>
      <use xlink:href="#DejaVuSans-4d" x="965.820312"/>
      <use xlink:href="#DejaVuSans-29" x="1052.099609"/>
     </g>
    </g>
   </g>
   <g id="line2d_18">
    <path d="M 323.85709 387.16 
L 323.85709 28.32 
" clip-path="url(#pab84ce8f85)" style="fill: none; stroke-dasharray: 7.4,3.2; stroke-dashoffset: 0; stroke: #000000; stroke-opacity: 0.9; stroke-width: 2"/>
   </g>
  </g>
 </g>
 <defs>
  <clipPath id="pab84ce8f85">
   <rect x="53.75" y="28.32" width="799.45" height="358.84"/>
  </clipPath>
 </defs>
</svg>
