<?xml version="1.0" encoding="utf-8" standalone="no"?>
<!DOCTYPE svg PUBLIC "-//W3C//DTD SVG 1.1//EN"
  "http://www.w3.org/Graphics/SVG/1.1/DTD/svg11.dtd">
<svg xmlns:xlink="http://www.w3.org/1999/xlink" width="864pt" height="432pt" viewBox="0 0 864 432" xmlns="http://www.w3.org/2000/svg" version="1.1">
 <metadata>
  <rdf:RDF xmlns:dc="http://purl.org/dc/elements/1.1/" xmlns:cc="http://creativecommons.org/ns#" xmlns:rdf="http://www.w3.org/1999/02/22-rdf-syntax-ns#">
   <cc:Work>
    <dc:type rdf:resource="http://purl.org/dc/dcmitype/StillImage"/>
    <dc:date>2026-05-17T12:03:38.221950</dc:date>
    <dc:format>image/svg+xml</dc:format>
    <dc:creator>
     <cc:Agent>
      <dc:title>Matplotlib v3.9.2, https://matplotlib.org/</dc:title>
     </cc:Agent>
    </dc:creator>
   </cc:Work>
  </rdf:RDF>
 </metadata>
 <defs>
  <style type="text/css">*{stroke-linejoin: round; stroke-linecap: butt}</style>
 </defs>
 <g id="figure_1">
  <g id="patch_1">
   <path d="M 0 432 
L 864 432 
L 864 0 
L 0 0 
z
" style="fill: #ffffff"/>
  </g>
  <g id="axes_1">
   <g id="patch_2">
    <path d="M 47.45 387.16 
L 853.2 387.16 
L 853.2 28.32 
L 47.45 28.32 
z
" style="fill: #ffffff"/>
   </g>
   <g id="matplotlib.axis_1">
    <g id="xtick_1">
     <g id="line2d_1">
      <defs>
       <path id="m2b6fcb3ed4" d="M 0 0 
L 0 3.5 
" style="stroke: #000000; stroke-width: 0.8"/>
      </defs>
      <g>
       <use xlink:href="#m2b6fcb3ed4" x="47.45" y="387.16" style="stroke: #000000; stroke-width: 0.8"/>
      </g>
     </g>
     <g id="text_1">
      <!-- 0 -->
      <g transform="translate(44.26875 401.758438) scale(0.1 -0.1)">
       <defs>
        <path id="DejaVuSans-30" d="M 2034 4250 
Q 1547 4250 1301 3770 
Q 1056 3291 1056 2328 
Q 1056 1369 1301 889 
Q 1547 409 2034 409 
Q 2525 409 2770 889 
Q 3016 1369 3016 2328 
Q 3016 3291 2770 3770 
Q 2525 4250 2034 4250 
z
M 2034 4750 
Q 2819 4750 3233 4129 
Q 3647 3509 3647 2328 
Q 3647 1150 3233 529 
Q 2819 -91 2034 -91 
Q 1250 -91 836 529 
Q 422 1150 422 2328 
Q 422 3509 836 4129 
Q 1250 4750 2034 4750 
z
" transform="scale(0.015625)"/>
       </defs>
       <use xlink:href="#DejaVuSans-30"/>
      </g>
     </g>
    </g>
    <g id="xtick_2">
     <g id="line2d_2">
      <g>
       <use xlink:href="#m2b6fcb3ed4" x="156.344259" y="387.16" style="stroke: #000000; stroke-width: 0.8"/>
      </g>
     </g>
     <g id="text_2">
      <!-- 5 -->
      <g transform="translate(153.163009 401.758438) scale(0.1 -0.1)">
       <defs>
        <path id="DejaVuSans-35" d="M 691 4666 
L 3169 4666 
L 3169 4134 
L 1269 4134 
L 1269 2991 
Q 1406 3038 1543 3061 
Q 1681 3084 1819 3084 
Q 2600 3084 3056 2656 
Q 3513 2228 3513 1497 
Q 3513 744 3044 326 
Q 2575 -91 1722 -91 
Q 1428 -91 1123 -41 
Q 819 9 494 109 
L 494 744 
Q 775 591 1075 516 
Q 1375 441 1709 441 
Q 2250 441 2565 725 
Q 2881 1009 2881 1497 
Q 2881 1984 2565 2268 
Q 2250 2553 1709 2553 
Q 1456 2553 1204 2497 
Q 953 2441 691 2322 
L 691 4666 
z
" transform="scale(0.015625)"/>
       </defs>
       <use xlink:href="#DejaVuSans-35"/>
      </g>
     </g>
    </g>
    <g id="xtick_3">
     <g id="line2d_3">
      <g>
       <use xlink:href="#m2b6fcb3ed4" x="265.238517" y="387.16" style="stroke: #000000; stroke-width: 0.8"/>
      </g>
     </g>
     <g id="text_3">
      <!-- 10 -->
      <g transform="translate(258.876017 401.758438) scale(0.1 -0.1)">
       <defs>
        <path id="DejaVuSans-31" d="M 794 531 
L 1825 531 
L 1825 4091 
L 703 3866 
L 703 4441 
L 1819 4666 
L 2450 4666 
L 2450 531 
L 3481 531 
L 3481 0 
L 794 0 
L 794 531 
z
" transform="scale(0.015625)"/>
       </defs>
       <use xlink:href="#DejaVuSans-31"/>
       <use xlink:href="#DejaVuSans-30" x="63.623047"/>
      </g>
     </g>
    </g>
    <g id="xtick_4">
     <g id="line2d_4">
      <g>
       <use xlink:href="#m2b6fcb3ed4" x="374.132776" y="387.16" style="stroke: #000000; stroke-width: 0.8"/>
      </g>
     </g>
     <g id="text_4">
      <!-- 15 -->
      <g transform="translate(367.770276 401.758438) scale(0.1 -0.1)">
       <use xlink:href="#DejaVuSans-31"/>
       <use xlink:href="#DejaVuSans-35" x="63.623047"/>
      </g>
     </g>
    </g>
    <g id="xtick_5">
     <g id="line2d_5">
      <g>
       <use xlink:href="#m2b6fcb3ed4" x="483.027035" y="387.16" style="stroke: #000000; stroke-width: 0.8"/>
      </g>
     </g>
     <g id="text_5">
      <!-- 20 -->
      <g transform="translate(476.664535 401.758438) scale(0.1 -0.1)">
       <defs>
        <path id="DejaVuSans-32" d="M 1228 531 
L 3431 531 
L 3431 0 
L 469 0 
L 469 531 
Q 828 903 1448 1529 
Q 2069 2156 2228 2338 
Q 2531 2678 2651 2914 
Q 2772 3150 2772 3378 
Q 2772 3750 2511 3984 
Q 2250 4219 1831 4219 
Q 1534 4219 1204 4116 
Q 875 4013 500 3803 
L 500 4441 
Q 881 4594 1212 4672 
Q 1544 4750 1819 4750 
Q 2544 4750 2975 4387 
Q 3406 4025 3406 3419 
Q 3406 3131 3298 2873 
Q 3191 2616 2906 2266 
Q 2828 2175 2409 1742 
Q 1991 1309 1228 531 
z
" transform="scale(0.015625)"/>
       </defs>
       <use xlink:href="#DejaVuSans-32"/>
       <use xlink:href="#DejaVuSans-30" x="63.623047"/>
      </g>
     </g>
    </g>
    <g id="xtick_6">
     <g id="line2d_6">
      <g>
       <use xlink:href="#m2b6fcb3ed4" x="591.921294" y="387.16" style="stroke: #000000; stroke-width: 0.8"/>
      </g>
     </g>
     <g id="text_6">
      <!-- 25 -->
      <g transform="translate(585.558794 401.758438) scale(0.1 -0.1)">
       <use xlink:href="#DejaVuSans-32"/>
       <use xlink:href="#DejaVuSans-35" x="63.623047"/>
      </g>
     </g>
    </g>
    <g id="xtick_7">
     <g id="line2d_7">
      <g>
       <use xlink:href="#m2b6fcb3ed4" x="700.815552" y="387.16" style="stroke: #000000; stroke-width: 0.8"/>
      </g>
     </g>
     <g id="text_7">
      <!-- 30 -->
      <g transform="translate(694.453052 401.758438) scale(0.1 -0.1)">
       <defs>
        <path id="DejaVuSans-33" d="M 2597 2516 
Q 3050 2419 3304 2112 
Q 3559 1806 3559 1356 
Q 3559 666 3084 287 
Q 2609 -91 1734 -91 
Q 1441 -91 1130 -33 
Q 819 25 488 141 
L 488 750 
Q 750 597 1062 519 
Q 1375 441 1716 441 
Q 2309 441 2620 675 
Q 2931 909 2931 1356 
Q 2931 1769 2642 2001 
Q 2353 2234 1838 2234 
L 1294 2234 
L 1294 2753 
L 1863 2753 
Q 2328 2753 2575 2939 
Q 2822 3125 2822 3475 
Q 2822 3834 2567 4026 
Q 2313 4219 1838 4219 
Q 1578 4219 1281 4162 
Q 984 4106 628 3988 
L 628 4550 
Q 988 4650 1302 4700 
Q 1616 4750 1894 4750 
Q 2613 4750 3031 4423 
Q 3450 4097 3450 3541 
Q 3450 3153 3228 2886 
Q 3006 2619 2597 2516 
z
" transform="scale(0.015625)"/>
       </defs>
       <use xlink:href="#DejaVuSans-33"/>
       <use xlink:href="#DejaVuSans-30" x="63.623047"/>
      </g>
     </g>
    </g>
    <g id="xtick_8">
     <g id="line2d_8">
      <g>
       <use xlink:href="#m2b6fcb3ed4" x="809.709811" y="387.16" style="stroke: #000000; stroke-width: 0.8"/>
      </g>
     </g>
     <g id="text_8">
      <!-- 35 -->
      <g transform="translate(803.347311 401.758438) scale(0.1 -0.1)">
       <use xlink:href="#DejaVuSans-33"/>
       <use xlink:href="#DejaVuSans-35" x="63.623047"/>
      </g>
     </g>
    </g>
    <g id="text_9">
     <!-- Test duration (Minutes) -->
     <g transform="translate(381.14875 416.95625) scale(0.12 -0.12)">
      <defs>
       <path id="DejaVuSans-54" d="M -19 4666 
L 3928 4666 
L 3928 4134 
L 2272 4134 
L 2272 0 
L 1638 0 
L 1638 4134 
L -19 4134 
L -19 4666 
z
" transform="scale(0.015625)"/>
       <path id="DejaVuSans-65" d="M 3597 1894 
L 3597 1613 
L 953 1613 
Q 991 1019 1311 708 
Q 1631 397 2203 397 
Q 2534 397 2845 478 
Q 3156 559 3463 722 
L 3463 178 
Q 3153 47 2828 -22 
Q 2503 -91 2169 -91 
Q 1331 -91 842 396 
Q 353 884 353 1716 
Q 353 2575 817 3079 
Q 1281 3584 2069 3584 
Q 2775 3584 3186 3129 
Q 3597 2675 3597 1894 
z
M 3022 2063 
Q 3016 2534 2758 2815 
Q 2500 3097 2075 3097 
Q 1594 3097 1305 2825 
Q 1016 2553 972 2059 
L 3022 2063 
z
" transform="scale(0.015625)"/>
       <path id="DejaVuSans-73" d="M 2834 3397 
L 2834 2853 
Q 2591 2978 2328 3040 
Q 2066 3103 1784 3103 
Q 1356 3103 1142 2972 
Q 928 2841 928 2578 
Q 928 2378 1081 2264 
Q 1234 2150 1697 2047 
L 1894 2003 
Q 2506 1872 2764 1633 
Q 3022 1394 3022 966 
Q 3022 478 2636 193 
Q 2250 -91 1575 -91 
Q 1294 -91 989 -36 
Q 684 19 347 128 
L 347 722 
Q 666 556 975 473 
Q 1284 391 1588 391 
Q 1994 391 2212 530 
Q 2431 669 2431 922 
Q 2431 1156 2273 1281 
Q 2116 1406 1581 1522 
L 1381 1569 
Q 847 1681 609 1914 
Q 372 2147 372 2553 
Q 372 3047 722 3315 
Q 1072 3584 1716 3584 
Q 2034 3584 2315 3537 
Q 2597 3491 2834 3397 
z
" transform="scale(0.015625)"/>
       <path id="DejaVuSans-74" d="M 1172 4494 
L 1172 3500 
L 2356 3500 
L 2356 3053 
L 1172 3053 
L 1172 1153 
Q 1172 725 1289 603 
Q 1406 481 1766 481 
L 2356 481 
L 2356 0 
L 1766 0 
Q 1100 0 847 248 
Q 594 497 594 1153 
L 594 3053 
L 172 3053 
L 172 3500 
L 594 3500 
L 594 4494 
L 1172 4494 
z
" transform="scale(0.015625)"/>
       <path id="DejaVuSans-20" transform="scale(0.015625)"/>
       <path id="DejaVuSans-64" d="M 2906 2969 
L 2906 4863 
L 3481 4863 
L 3481 0 
L 2906 0 
L 2906 525 
Q 2725 213 2448 61 
Q 2172 -91 1784 -91 
Q 1150 -91 751 415 
Q 353 922 353 1747 
Q 353 2572 751 3078 
Q 1150 3584 1784 3584 
Q 2172 3584 2448 3432 
Q 2725 3281 2906 2969 
z
M 947 1747 
Q 947 1113 1208 752 
Q 1469 391 1925 391 
Q 2381 391 2643 752 
Q 2906 1113 2906 1747 
Q 2906 2381 2643 2742 
Q 2381 3103 1925 3103 
Q 1469 3103 1208 2742 
Q 947 2381 947 1747 
z
" transform="scale(0.015625)"/>
       <path id="DejaVuSans-75" d="M 544 1381 
L 544 3500 
L 1119 3500 
L 1119 1403 
Q 1119 906 1312 657 
Q 1506 409 1894 409 
Q 2359 409 2629 706 
Q 2900 1003 2900 1516 
L 2900 3500 
L 3475 3500 
L 3475 0 
L 2900 0 
L 2900 538 
Q 2691 219 2414 64 
Q 2138 -91 1772 -91 
Q 1169 -91 856 284 
Q 544 659 544 1381 
z
M 1991 3584 
L 1991 3584 
z
" transform="scale(0.015625)"/>
       <path id="DejaVuSans-72" d="M 2631 2963 
Q 2534 3019 2420 3045 
Q 2306 3072 2169 3072 
Q 1681 3072 1420 2755 
Q 1159 2438 1159 1844 
L 1159 0 
L 581 0 
L 581 3500 
L 1159 3500 
L 1159 2956 
Q 1341 3275 1631 3429 
Q 1922 3584 2338 3584 
Q 2397 3584 2469 3576 
Q 2541 3569 2628 3553 
L 2631 2963 
z
" transform="scale(0.015625)"/>
       <path id="DejaVuSans-61" d="M 2194 1759 
Q 1497 1759 1228 1600 
Q 959 1441 959 1056 
Q 959 750 1161 570 
Q 1363 391 1709 391 
Q 2188 391 2477 730 
Q 2766 1069 2766 1631 
L 2766 1759 
L 2194 1759 
z
M 3341 1997 
L 3341 0 
L 2766 0 
L 2766 531 
Q 2569 213 2275 61 
Q 1981 -91 1556 -91 
Q 1019 -91 701 211 
Q 384 513 384 1019 
Q 384 1609 779 1909 
Q 1175 2209 1959 2209 
L 2766 2209 
L 2766 2266 
Q 2766 2663 2505 2880 
Q 2244 3097 1772 3097 
Q 1472 3097 1187 3025 
Q 903 2953 641 2809 
L 641 3341 
Q 956 3463 1253 3523 
Q 1550 3584 1831 3584 
Q 2591 3584 2966 3190 
Q 3341 2797 3341 1997 
z
" transform="scale(0.015625)"/>
       <path id="DejaVuSans-69" d="M 603 3500 
L 1178 3500 
L 1178 0 
L 603 0 
L 603 3500 
z
M 603 4863 
L 1178 4863 
L 1178 4134 
L 603 4134 
L 603 4863 
z
" transform="scale(0.015625)"/>
       <path id="DejaVuSans-6f" d="M 1959 3097 
Q 1497 3097 1228 2736 
Q 959 2375 959 1747 
Q 959 1119 1226 758 
Q 1494 397 1959 397 
Q 2419 397 2687 759 
Q 2956 1122 2956 1747 
Q 2956 2369 2687 2733 
Q 2419 3097 1959 3097 
z
M 1959 3584 
Q 2709 3584 3137 3096 
Q 3566 2609 3566 1747 
Q 3566 888 3137 398 
Q 2709 -91 1959 -91 
Q 1206 -91 779 398 
Q 353 888 353 1747 
Q 353 2609 779 3096 
Q 1206 3584 1959 3584 
z
" transform="scale(0.015625)"/>
       <path id="DejaVuSans-6e" d="M 3513 2113 
L 3513 0 
L 2938 0 
L 2938 2094 
Q 2938 2591 2744 2837 
Q 2550 3084 2163 3084 
Q 1697 3084 1428 2787 
Q 1159 2491 1159 1978 
L 1159 0 
L 581 0 
L 581 3500 
L 1159 3500 
L 1159 2956 
Q 1366 3272 1645 3428 
Q 1925 3584 2291 3584 
Q 2894 3584 3203 3211 
Q 3513 2838 3513 2113 
z
" transform="scale(0.015625)"/>
       <path id="DejaVuSans-28" d="M 1984 4856 
Q 1566 4138 1362 3434 
Q 1159 2731 1159 2009 
Q 1159 1288 1364 580 
Q 1569 -128 1984 -844 
L 1484 -844 
Q 1016 -109 783 600 
Q 550 1309 550 2009 
Q 550 2706 781 3412 
Q 1013 4119 1484 4856 
L 1984 4856 
z
" transform="scale(0.015625)"/>
       <path id="DejaVuSans-4d" d="M 628 4666 
L 1569 4666 
L 2759 1491 
L 3956 4666 
L 4897 4666 
L 4897 0 
L 4281 0 
L 4281 4097 
L 3078 897 
L 2444 897 
L 1241 4097 
L 1241 0 
L 628 0 
L 628 4666 
z
" transform="scale(0.015625)"/>
       <path id="DejaVuSans-29" d="M 513 4856 
L 1013 4856 
Q 1481 4119 1714 3412 
Q 1947 2706 1947 2009 
Q 1947 1309 1714 600 
Q 1481 -109 1013 -844 
L 513 -844 
Q 928 -128 1133 580 
Q 1338 1288 1338 2009 
Q 1338 2731 1133 3434 
Q 928 4138 513 4856 
z
" transform="scale(0.015625)"/>
      </defs>
      <use xlink:href="#DejaVuSans-54"/>
      <use xlink:href="#DejaVuSans-65" x="44.083984"/>
      <use xlink:href="#DejaVuSans-73" x="105.607422"/>
      <use xlink:href="#DejaVuSans-74" x="157.707031"/>
      <use xlink:href="#DejaVuSans-20" x="196.916016"/>
      <use xlink:href="#DejaVuSans-64" x="228.703125"/>
      <use xlink:href="#DejaVuSans-75" x="292.179688"/>
      <use xlink:href="#DejaVuSans-72" x="355.558594"/>
      <use xlink:href="#DejaVuSans-61" x="396.671875"/>
      <use xlink:href="#DejaVuSans-74" x="457.951172"/>
      <use xlink:href="#DejaVuSans-69" x="497.160156"/>
      <use xlink:href="#DejaVuSans-6f" x="524.943359"/>
      <use xlink:href="#DejaVuSans-6e" x="586.125"/>
      <use xlink:href="#DejaVuSans-20" x="649.503906"/>
      <use xlink:href="#DejaVuSans-28" x="681.291016"/>
      <use xlink:href="#DejaVuSans-4d" x="720.304688"/>
      <use xlink:href="#DejaVuSans-69" x="806.583984"/>
      <use xlink:href="#DejaVuSans-6e" x="834.367188"/>
      <use xlink:href="#DejaVuSans-75" x="897.746094"/>
      <use xlink:href="#DejaVuSans-74" x="961.125"/>
      <use xlink:href="#DejaVuSans-65" x="1000.333984"/>
      <use xlink:href="#DejaVuSans-73" x="1061.857422"/>
      <use xlink:href="#DejaVuSans-29" x="1113.957031"/>
     </g>
    </g>
   </g>
   <g id="matplotlib.axis_2">
    <g id="ytick_1">
     <g id="line2d_9">
      <defs>
       <path id="m2c8687c2ff" d="M 0 0 
L -3.5 0 
" style="stroke: #000000; stroke-width: 0.8"/>
      </defs>
      <g>
       <use xlink:href="#m2c8687c2ff" x="47.45" y="387.16" style="stroke: #000000; stroke-width: 0.8"/>
      </g>
     </g>
     <g id="text_10">
      <!-- 0 -->
      <g transform="translate(34.0875 390.959219) scale(0.1 -0.1)">
       <use xlink:href="#DejaVuSans-30"/>
      </g>
     </g>
    </g>
    <g id="ytick_2">
     <g id="line2d_10">
      <g>
       <use xlink:href="#m2c8687c2ff" x="47.45" y="342.945611" style="stroke: #000000; stroke-width: 0.8"/>
      </g>
     </g>
     <g id="text_11">
      <!-- 10 -->
      <g transform="translate(27.725 346.74483) scale(0.1 -0.1)">
       <use xlink:href="#DejaVuSans-31"/>
       <use xlink:href="#DejaVuSans-30" x="63.623047"/>
      </g>
     </g>
    </g>
    <g id="ytick_3">
     <g id="line2d_11">
      <g>
       <use xlink:href="#m2c8687c2ff" x="47.45" y="298.731222" style="stroke: #000000; stroke-width: 0.8"/>
      </g>
     </g>
     <g id="text_12">
      <!-- 20 -->
      <g transform="translate(27.725 302.530441) scale(0.1 -0.1)">
       <use xlink:href="#DejaVuSans-32"/>
       <use xlink:href="#DejaVuSans-30" x="63.623047"/>
      </g>
     </g>
    </g>
    <g id="ytick_4">
     <g id="line2d_12">
      <g>
       <use xlink:href="#m2c8687c2ff" x="47.45" y="254.516834" style="stroke: #000000; stroke-width: 0.8"/>
      </g>
     </g>
     <g id="text_13">
      <!-- 30 -->
      <g transform="translate(27.725 258.316052) scale(0.1 -0.1)">
       <use xlink:href="#DejaVuSans-33"/>
       <use xlink:href="#DejaVuSans-30" x="63.623047"/>
      </g>
     </g>
    </g>
    <g id="ytick_5">
     <g id="line2d_13">
      <g>
       <use xlink:href="#m2c8687c2ff" x="47.45" y="210.302445" style="stroke: #000000; stroke-width: 0.8"/>
      </g>
     </g>
     <g id="text_14">
      <!-- 40 -->
      <g transform="translate(27.725 214.101664) scale(0.1 -0.1)">
       <defs>
        <path id="DejaVuSans-34" d="M 2419 4116 
L 825 1625 
L 2419 1625 
L 2419 4116 
z
M 2253 4666 
L 3047 4666 
L 3047 1625 
L 3713 1625 
L 3713 1100 
L 3047 1100 
L 3047 0 
L 2419 0 
L 2419 1100 
L 313 1100 
L 313 1709 
L 2253 4666 
z
" transform="scale(0.015625)"/>
       </defs>
       <use xlink:href="#DejaVuSans-34"/>
       <use xlink:href="#DejaVuSans-30" x="63.623047"/>
      </g>
     </g>
    </g>
    <g id="ytick_6">
     <g id="line2d_14">
      <g>
       <use xlink:href="#m2c8687c2ff" x="47.45" y="166.088056" style="stroke: #000000; stroke-width: 0.8"/>
      </g>
     </g>
     <g id="text_15">
      <!-- 50 -->
      <g transform="translate(27.725 169.887275) scale(0.1 -0.1)">
       <use xlink:href="#DejaVuSans-35"/>
       <use xlink:href="#DejaVuSans-30" x="63.623047"/>
      </g>
     </g>
    </g>
    <g id="ytick_7">
     <g id="line2d_15">
      <g>
       <use xlink:href="#m2c8687c2ff" x="47.45" y="121.873667" style="stroke: #000000; stroke-width: 0.8"/>
      </g>
     </g>
     <g id="text_16">
      <!-- 60 -->
      <g transform="translate(27.725 125.672886) scale(0.1 -0.1)">
       <defs>
        <path id="DejaVuSans-36" d="M 2113 2584 
Q 1688 2584 1439 2293 
Q 1191 2003 1191 1497 
Q 1191 994 1439 701 
Q 1688 409 2113 409 
Q 2538 409 2786 701 
Q 3034 994 3034 1497 
Q 3034 2003 2786 2293 
Q 2538 2584 2113 2584 
z
M 3366 4563 
L 3366 3988 
Q 3128 4100 2886 4159 
Q 2644 4219 2406 4219 
Q 1781 4219 1451 3797 
Q 1122 3375 1075 2522 
Q 1259 2794 1537 2939 
Q 1816 3084 2150 3084 
Q 2853 3084 3261 2657 
Q 3669 2231 3669 1497 
Q 3669 778 3244 343 
Q 2819 -91 2113 -91 
Q 1303 -91 875 529 
Q 447 1150 447 2328 
Q 447 3434 972 4092 
Q 1497 4750 2381 4750 
Q 2619 4750 2861 4703 
Q 3103 4656 3366 4563 
z
" transform="scale(0.015625)"/>
       </defs>
       <use xlink:href="#DejaVuSans-36"/>
       <use xlink:href="#DejaVuSans-30" x="63.623047"/>
      </g>
     </g>
    </g>
    <g id="ytick_8">
     <g id="line2d_16">
      <g>
       <use xlink:href="#m2c8687c2ff" x="47.45" y="77.659279" style="stroke: #000000; stroke-width: 0.8"/>
      </g>
     </g>
     <g id="text_17">
      <!-- 70 -->
      <g transform="translate(27.725 81.458497) scale(0.1 -0.1)">
       <defs>
        <path id="DejaVuSans-37" d="M 525 4666 
L 3525 4666 
L 3525 4397 
L 1831 0 
L 1172 0 
L 2766 4134 
L 525 4134 
L 525 4666 
z
" transform="scale(0.015625)"/>
       </defs>
       <use xlink:href="#DejaVuSans-37"/>
       <use xlink:href="#DejaVuSans-30" x="63.623047"/>
      </g>
     </g>
    </g>
    <g id="ytick_9">
     <g id="line2d_17">
      <g>
       <use xlink:href="#m2c8687c2ff" x="47.45" y="33.44489" style="stroke: #000000; stroke-width: 0.8"/>
      </g>
     </g>
     <g id="text_18">
      <!-- 80 -->
      <g transform="translate(27.725 37.244109) scale(0.1 -0.1)">
       <defs>
        <path id="DejaVuSans-38" d="M 2034 2216 
Q 1584 2216 1326 1975 
Q 1069 1734 1069 1313 
Q 1069 891 1326 650 
Q 1584 409 2034 409 
Q 2484 409 2743 651 
Q 3003 894 3003 1313 
Q 3003 1734 2745 1975 
Q 2488 2216 2034 2216 
z
M 1403 2484 
Q 997 2584 770 2862 
Q 544 3141 544 3541 
Q 544 4100 942 4425 
Q 1341 4750 2034 4750 
Q 2731 4750 3128 4425 
Q 3525 4100 3525 3541 
Q 3525 3141 3298 2862 
Q 3072 2584 2669 2484 
Q 3125 2378 3379 2068 
Q 3634 1759 3634 1313 
Q 3634 634 3220 271 
Q 2806 -91 2034 -91 
Q 1263 -91 848 271 
Q 434 634 434 1313 
Q 434 1759 690 2068 
Q 947 2378 1403 2484 
z
M 1172 3481 
Q 1172 3119 1398 2916 
Q 1625 2713 2034 2713 
Q 2441 2713 2670 2916 
Q 2900 3119 2900 3481 
Q 2900 3844 2670 4047 
Q 2441 4250 2034 4250 
Q 1625 4250 1398 4047 
Q 1172 3844 1172 3481 
z
" transform="scale(0.015625)"/>
       </defs>
       <use xlink:href="#DejaVuSans-38"/>
       <use xlink:href="#DejaVuSans-30" x="63.623047"/>
      </g>
     </g>
    </g>
    <g id="text_19">
     <!-- Power (W) -->
     <g transform="translate(21.229375 238.398125) rotate(-90) scale(0.12 -0.12)">
      <defs>
       <path id="DejaVuSans-50" d="M 1259 4147 
L 1259 2394 
L 2053 2394 
Q 2494 2394 2734 2622 
Q 2975 2850 2975 3272 
Q 2975 3691 2734 3919 
Q 2494 4147 2053 4147 
L 1259 4147 
z
M 628 4666 
L 2053 4666 
Q 2838 4666 3239 4311 
Q 3641 3956 3641 3272 
Q 3641 2581 3239 2228 
Q 2838 1875 2053 1875 
L 1259 1875 
L 1259 0 
L 628 0 
L 628 4666 
z
" transform="scale(0.015625)"/>
       <path id="DejaVuSans-77" d="M 269 3500 
L 844 3500 
L 1563 769 
L 2278 3500 
L 2956 3500 
L 3675 769 
L 4391 3500 
L 4966 3500 
L 4050 0 
L 3372 0 
L 2619 2869 
L 1863 0 
L 1184 0 
L 269 3500 
z
" transform="scale(0.015625)"/>
       <path id="DejaVuSans-57" d="M 213 4666 
L 850 4666 
L 1831 722 
L 2809 4666 
L 3519 4666 
L 4500 722 
L 5478 4666 
L 6119 4666 
L 4947 0 
L 4153 0 
L 3169 4050 
L 2175 0 
L 1381 0 
L 213 4666 
z
" transform="scale(0.015625)"/>
      </defs>
      <use xlink:href="#DejaVuSans-50"/>
      <use xlink:href="#DejaVuSans-6f" x="56.677734"/>
      <use xlink:href="#DejaVuSans-77" x="117.859375"/>
      <use xlink:href="#DejaVuSans-65" x="199.646484"/>
      <use xlink:href="#DejaVuSans-72" x="261.169922"/>
      <use xlink:href="#DejaVuSans-20" x="302.283203"/>
      <use xlink:href="#DejaVuSans-28" x="334.070312"/>
      <use xlink:href="#DejaVuSans-57" x="373.083984"/>
      <use xlink:href="#DejaVuSans-29" x="471.960938"/>
     </g>
    </g>
   </g>
   <g id="line2d_18">
    <path d="M 47.45 329.181672 
L 48.177777 355.117832 
L 48.903375 334.774792 
L 49.630063 339.86829 
L 50.358203 326.427116 
L 51.082712 298.881551 
L 51.812304 191.648394 
L 52.548066 216.12548 
L 53.275117 292.125593 
L 54.009427 316.328549 
L 54.728129 299.814475 
L 55.458084 219.848331 
L 56.200743 211.712884 
L 56.910733 230.809078 
L 57.637058 209.944308 
L 58.360842 140.191689 
L 59.085715 136.345037 
L 59.826195 163.908287 
L 60.532919 209.400471 
L 61.264326 204.97019 
L 61.992102 207.362188 
L 62.716975 280.811131 
L 63.445115 227.767128 
L 64.17035 232.966741 
L 64.902846 272.131846 
L 65.652038 90.50798 
L 66.352228 207.127852 
L 67.077464 236.795707 
L 68.028111 232.568811 
L 68.532291 212.075442 
L 69.260794 212.075442 
L 69.984941 73.083089 
L 70.714169 220.290475 
L 71.441946 233.435413 
L 72.170449 232.988848 
L 72.905485 250.793982 
L 73.63181 254.764434 
L 74.367209 246.66878 
L 75.097163 250.126345 
L 75.818769 244.493432 
L 76.557435 152.969647 
L 77.2765 148.711801 
L 78.003551 154.415457 
L 79.461645 245.620899 
L 80.914658 137.653783 
L 81.639893 60.941818 
L 82.365855 215.731972 
L 83.087098 233.771442 
L 83.817779 268.05528 
L 84.539385 292.244972 
L 85.268613 244.895783 
L 85.991671 153.74782 
L 86.719085 227.12602 
L 87.449765 185.445116 
L 88.176816 228.90786 
L 88.899511 225.618309 
L 89.629102 232.957898 
L 90.352523 232.732404 
L 91.082478 236.751492 
L 91.805172 206.301043 
L 92.530408 213.835175 
L 93.266533 233.430992 
L 93.990317 234.792795 
L 94.714464 232.316789 
L 95.438611 233.727228 
L 96.166025 234.567301 
L 96.895979 232.223939 
L 97.624482 234.372758 
L 98.364237 201.62316 
L 99.079309 229.354425 
L 99.805997 71.637279 
L 100.539581 162.807348 
L 101.264817 141.814357 
L 101.990778 230.90635 
L 102.721822 256.559538 
L 103.445969 135.129141 
L 104.177012 198.284974 
L 104.905878 205.810263 
L 105.630388 195.083852 
L 106.362883 205.328326 
L 107.813717 129.239785 
L 108.542946 185.626395 
L 109.272537 163.466143 
L 109.998862 168.37394 
L 110.737165 155.295324 
L 112.181103 87.355494 
L 112.909969 225.149637 
L 113.641375 182.544652 
L 114.36407 201.242917 
L 115.099469 228.138529 
L 115.82652 177.924248 
L 116.548852 236.680749 
L 117.284977 239.439727 
L 118.006583 223.504861 
L 118.737263 190.49882 
L 119.462136 204.753539 
L 120.191728 232.489225 
L 120.92749 214.688512 
L 121.651274 258.978066 
L 122.380139 266.158482 
L 123.108642 248.384298 
L 123.833152 248.459462 
L 125.291609 268.373623 
L 126.016482 246.788159 
L 126.747525 268.161394 
L 127.474213 282.995321 
L 128.201264 176.840995 
L 128.923958 161.821368 
L 129.660084 224.159234 
L 130.389312 157.554679 
L 131.116726 244.85599 
L 131.841962 238.453746 
L 132.572642 261.887372 
L 133.301508 289.348929 
L 134.029284 256.245616 
L 134.753431 271.592431 
L 135.479756 272.264489 
L 136.217696 266.976448 
L 136.946924 285.312155 
L 137.66853 157.638686 
L 138.400663 218.729707 
L 139.134247 223.358954 
L 139.857668 219.065737 
L 140.590163 223.058296 
L 141.313584 211.005454 
L 142.040272 156.502377 
L 142.772767 195.760332 
L 143.504537 127.356252 
L 144.238484 149.32196 
L 144.962268 125.04826 
L 145.697667 125.923705 
L 146.433066 191.471537 
L 147.157939 244.267938 
L 147.882812 248.888342 
L 148.613492 257.037054 
L 149.343447 251.532362 
L 150.072312 279.254784 
L 150.797548 265.061965 
L 151.529318 280.355722 
L 152.262176 245.802178 
L 152.99576 221.22782 
L 153.718818 253.853618 
L 154.449136 279.688085 
L 155.184535 263.408347 
L 155.912311 290.883168 
L 156.63791 251.700377 
L 157.368228 249.454286 
L 158.089108 262.081916 
L 158.816521 283.609901 
L 159.54212 262.798189 
L 160.266267 290.087309 
L 160.992229 282.508963 
L 161.717464 278.467768 
L 162.447419 277.220922 
L 163.171566 248.437355 
L 163.895713 283.331351 
L 164.624215 267.272685 
L 166.076865 296.073938 
L 166.797382 280.338037 
L 167.528425 282.022605 
L 168.251846 267.59545 
L 168.982889 229.571076 
L 169.716111 227.413413 
L 170.438806 248.583263 
L 171.169123 274.435416 
L 171.891092 287.399075 
L 172.619958 261.829894 
L 173.343015 245.669534 
L 174.071155 258.6553 
L 174.798569 224.075227 
L 175.527071 225.733267 
L 176.259204 264.358957 
L 176.988795 224.225556 
L 177.714031 136.902138 
L 178.446889 75.05063 
L 179.169221 164.204523 
L 179.898087 199.894378 
L 180.627315 202.100676 
L 181.362352 206.584015 
L 182.090854 206.690129 
L 182.818268 217.465176 
L 183.548948 224.69865 
L 184.281081 227.661014 
L 185.009946 197.122136 
L 185.732278 216.483616 
L 186.458603 223.739198 
L 187.186743 225.224801 
L 187.91706 190.702206 
L 188.644837 233.214341 
L 189.369347 268.718495 
L 190.104383 281.257696 
L 190.823811 276.071348 
L 191.557758 282.172934 
L 192.282268 272.905598 
L 193.012585 279.918 
L 193.735643 271.265244 
L 194.464146 269.890177 
L 195.190471 279.17962 
L 195.920062 256.280988 
L 196.652195 291.285519 
L 197.382149 279.360899 
L 198.110652 279.214991 
L 198.835887 283.671802 
L 199.565479 280.510473 
L 200.299426 267.232892 
L 201.021032 277.313773 
L 201.75135 280.307087 
L 202.479126 189.419989 
L 203.214163 208.476391 
L 203.945206 202.533977 
L 204.669353 250.833775 
L 205.394226 281.514139 
L 206.123454 284.640097 
L 206.847238 267.825365 
L 207.573563 290.056359 
L 208.303154 283.689487 
L 209.036739 281.11621 
L 209.763063 272.958655 
L 210.49447 288.769721 
L 211.222246 281.284225 
L 211.944941 280.987988 
L 212.675259 259.725289 
L 213.398317 282.964371 
L 214.126093 277.755916 
L 214.852055 275.173796 
L 215.585276 281.859012 
L 216.308334 282.818464 
L 217.036111 281.929755 
L 217.768243 270.571078 
L 218.500376 287.708575 
L 219.220893 284.06531 
L 219.95121 293.421074 
L 220.682254 274.935038 
L 221.404223 283.158915 
L 222.13091 284.047624 
L 222.862317 279.617342 
L 223.583197 281.63794 
L 224.31061 231.547459 
L 225.046735 193.549613 
L 225.766527 217.270633 
L 226.495755 210.930289 
L 227.221717 262.767239 
L 227.948404 275.266646 
L 228.670736 243.954016 
L 229.399965 289.397565 
L 230.129919 280.223079 
L 230.862415 279.590814 
L 231.587288 278.034467 
L 232.317605 277.853188 
L 233.042841 279.696928 
L 233.773521 279.745564 
L 234.494764 221.904301 
L 235.226171 205.284112 
L 235.946688 205.509605 
L 236.682813 280.284979 
L 237.406597 284.95844 
L 238.142359 282.040291 
L 238.873039 285.35637 
L 239.601542 272.976341 
L 240.327504 264.549078 
L 241.057821 195.826654 
L 241.786324 217.867527 
L 242.512286 220.445226 
L 243.242966 221.740707 
L 243.975098 188.606444 
L 244.70832 223.098089 
L 245.433556 223.279368 
L 246.157702 220.087089 
L 246.888746 222.33318 
L 247.623782 192.797968 
L 248.349381 261.08267 
L 249.073891 260.680319 
L 249.797312 287.403496 
L 250.533437 274.143601 
L 251.263391 270.79215 
L 251.990079 276.75225 
L 252.717493 274.806817 
L 253.447084 276.35432 
L 254.171594 255.785787 
L 254.896467 251.081376 
L 255.623517 240.332858 
L 256.34839 235.79204 
L 257.08016 255.317114 
L 257.799225 291.351841 
L 258.526638 259.398102 
L 259.256593 257.88597 
L 259.985095 279.352056 
L 260.721947 266.185011 
L 261.443915 255.639879 
L 262.173144 257.748905 
L 262.90818 280.125808 
L 264.365548 267.913793 
L 265.097681 245.112433 
L 265.826183 244.776404 
L 266.555049 251.527941 
L 267.277744 272.45019 
L 268.012054 258.734886 
L 268.735475 269.063368 
L 269.460711 267.515864 
L 270.188487 246.478658 
L 270.91336 271.331566 
L 271.640411 276.540021 
L 272.36601 255.600086 
L 273.089068 268.006644 
L 273.818659 275.045574 
L 274.544621 271.822345 
L 275.268768 271.154708 
L 275.999811 279.060241 
L 276.733032 278.405868 
L 277.46335 286.505944 
L 278.190038 270.372113 
L 278.919266 281.757319 
L 279.648132 266.083318 
L 280.376634 293.239795 
L 281.099329 256.683339 
L 281.829647 276.407378 
L 282.559238 261.591136 
L 283.285563 262.325095 
L 284.012614 259.614753 
L 284.739664 258.182207 
L 285.471434 224.800343 
L 286.199573 224.800343 
L 286.926261 266.529883 
L 287.65549 251.687113 
L 288.383266 256.04223 
L 289.109954 267.511443 
L 289.832286 268.050858 
L 290.563329 246.951752 
L 291.28675 257.899234 
L 292.018156 264.531393 
L 292.746659 259.658967 
L 293.46645 258.99133 
L 294.194227 259.539588 
L 294.920188 228.611623 
L 295.651232 259.468845 
L 296.376831 268.820188 
L 297.11586 265.022172 
L 297.834562 218.291985 
L 298.562701 247.83604 
L 299.289752 250.599439 
L 300.013173 262.70976 
L 300.748209 262.440052 
L 301.471267 257.877127 
L 302.198318 251.496991 
L 302.928635 255.577979 
L 303.653871 268.678702 
L 304.383826 266.109846 
L 305.122129 257.660477 
L 305.843372 242.242919 
L 306.578045 270.531285 
L 307.299288 252.757101 
L 308.030331 243.25985 
L 308.758108 255.140257 
L 309.494233 259.446738 
L 310.222373 260.777591 
L 310.955957 256.360574 
L 311.683008 269.907862 
L 312.40788 265.769396 
L 313.137472 197.303415 
L 313.863797 216.934603 
L 314.594477 221.851243 
L 315.317535 222.005994 
L 316.039504 206.606122 
L 316.773814 211.376855 
L 317.507036 222.496773 
L 318.232634 223.394325 
L 318.960411 223.725933 
L 319.684921 227.179077 
L 320.421409 225.264594 
L 321.145556 226.63524 
L 321.873695 227.059698 
L 322.608006 225.149637 
L 323.32816 224.932986 
L 324.056662 225.923388 
L 324.78698 228.271172 
L 325.515482 229.77004 
L 326.237451 227.952829 
L 326.963413 175.642786 
L 327.694819 143.36186 
L 328.416425 165.513269 
L 329.144565 232.988848 
L 329.872342 268.833453 
L 330.596489 291.926628 
L 331.324991 283.923824 
L 332.048412 280.572373 
L 332.772196 280.815552 
L 333.50215 277.088279 
L 334.228112 282.442642 
L 334.952985 281.001253 
L 335.681487 279.30342 
L 336.41362 285.077819 
L 337.143211 261.038456 
L 337.869899 259.14608 
L 338.597313 284.839061 
L 339.330897 268.966096 
L 340.062666 259.583803 
L 340.791895 278.949705 
L 341.520761 263.005996 
L 342.251804 296.57356 
L 342.985025 282.707928 
L 343.71135 280.227501 
L 344.436586 272.14511 
L 345.161096 282.601813 
L 346.619553 277.114808 
L 347.340433 285.250255 
L 348.065668 252.93838 
L 348.795986 263.063475 
L 349.51614 266.295547 
L 350.242102 250.453531 
L 350.97133 238.440482 
L 351.698744 267.732514 
L 352.421076 269.996291 
L 353.152482 254.499148 
L 353.880985 252.518343 
L 354.608036 244.51996 
L 355.332182 258.62435 
L 356.786647 278.087524 
L 357.518779 279.033712 
L 358.250548 247.035759 
L 358.973969 225.410502 
L 359.711546 251.037161 
L 360.433515 260.092268 
L 361.158025 251.090219 
L 361.886528 269.399397 
L 362.615393 251.174226 
L 363.335547 276.575392 
L 364.062961 276.066927 
L 364.795456 277.875295 
L 365.523959 271.508423 
L 366.254639 262.493109 
L 367.710556 249.317222 
L 368.439421 254.680427 
L 369.170828 252.368014 
L 369.894975 268.983782 
L 370.62384 263.863755 
L 371.351254 261.865265 
L 372.078667 249.290693 
L 372.802088 242.260605 
L 373.532043 246.925223 
L 374.251834 252.407807 
L 374.978522 267.144463 
L 375.709928 254.578734 
L 376.433349 267.308056 
L 377.160762 259.566117 
L 377.884546 268.899774 
L 378.613775 264.146728 
L 379.337196 256.802718 
L 380.064246 265.910882 
L 380.78803 251.421826 
L 381.514718 286.850816 
L 382.24068 278.489875 
L 382.968093 277.649802 
L 383.693329 232.957898 
L 384.422921 251.107904 
L 385.15106 278.153846 
L 385.877022 258.43865 
L 386.600806 282.46917 
L 387.335479 269.792905 
L 388.059989 271.579166 
L 388.790669 270.615293 
L 389.513364 262.258773 
L 390.241867 267.904951 
L 390.96928 266.640419 
L 391.694516 264.469493 
L 392.425197 261.502707 
L 393.146077 268.17908 
L 393.870223 276.402956 
L 394.602356 263.93892 
L 395.336303 276.181884 
L 396.064443 284.847904 
L 396.786049 277.49063 
L 397.518907 254.13659 
L 398.244869 261.759151 
L 398.970831 261.630929 
L 399.700059 252.239793 
L 400.426384 235.650554 
L 401.148716 274.545952 
L 401.875766 280.576794 
L 402.602817 194.747823 
L 403.324423 180.316246 
L 404.0522 229.420747 
L 404.778524 235.650554 
L 405.512835 236.875293 
L 406.24533 233.143598 
L 406.973833 233.532685 
L 407.705965 236.388934 
L 408.431927 236.707278 
L 409.163333 232.542282 
L 409.891473 236.525999 
L 410.615257 236.075012 
L 411.340129 237.286486 
L 412.075529 232.661661 
L 412.802216 238.409532 
L 413.532534 201.587789 
L 414.261036 235.482539 
L 414.99208 162.480162 
L 415.718042 198.422039 
L 416.452352 250.037916 
L 417.903186 273.365428 
L 418.630237 248.945821 
L 419.357651 232.175303 
L 420.080709 275.814905 
L 420.8103 241.522225 
L 421.536262 247.685711 
L 422.25932 268.775974 
L 422.98637 253.150609 
L 423.719229 253.190402 
L 424.451724 232.666083 
L 425.179138 274.57248 
L 425.905462 257.682584 
L 426.631787 275.368339 
L 427.358112 259.654546 
L 428.090244 264.756886 
L 428.81548 256.895568 
L 429.543983 259.216823 
L 430.278656 288.778564 
L 431.005707 270.734671 
L 431.730216 247.25241 
L 432.453274 245.797756 
L 433.183955 230.552635 
L 433.918265 276.447171 
L 434.640234 280.240765 
L 435.369825 251.992192 
L 436.08998 274.320458 
L 436.81703 253.61486 
L 437.544444 271.676438 
L 438.272583 237.932016 
L 438.995641 262.400259 
L 439.7285 272.879069 
L 440.457002 279.263627 
L 441.181149 247.28336 
L 441.902755 270.380956 
L 442.634161 258.155678 
L 443.362664 272.14511 
L 444.089352 263.107689 
L 444.818943 260.490198 
L 446.275223 285.329841 
L 447.00191 286.961352 
L 447.731865 275.978498 
L 448.45456 252.673094 
L 449.187055 246.182421 
L 449.91338 235.708033 
L 450.642971 259.866775 
L 451.372926 258.018613 
L 452.097799 257.969977 
L 452.823034 249.308379 
L 453.546818 166.826436 
L 454.275321 229.283682 
L 455.004186 227.789236 
L 455.737771 232.613025 
L 456.461917 233.094962 
L 457.184975 196.662306 
L 457.911663 233.39562 
L 458.644158 232.515754 
L 459.37012 235.407375 
L 460.103704 235.442746 
L 460.826036 233.081698 
L 461.554539 228.792902 
L 462.285945 228.532037 
L 463.0159 227.877664 
L 464.476172 231.569566 
L 465.2054 230.473049 
L 465.93354 232.064767 
L 466.663495 231.945388 
L 467.393812 143.264589 
L 468.117596 240.372651 
L 468.856625 260.335447 
L 469.584765 263.271283 
L 470.312541 257.996506 
L 471.035236 285.148562 
L 471.763739 278.954126 
L 472.489337 281.213482 
L 473.220018 260.715691 
L 473.939446 260.543255 
L 474.662504 270.305792 
L 475.393547 290.799161 
L 476.120961 274.926196 
L 476.844019 272.242382 
L 477.571795 280.192129 
L 478.294853 274.736074 
L 479.023356 287.20011 
L 479.748229 280.780181 
L 480.484354 269.036839 
L 481.203782 277.380094 
L 481.936277 273.882736 
L 482.656431 273.882736 
L 483.384934 281.160424 
L 484.112711 281.160424 
L 484.843391 293.792475 
L 485.567175 279.878207 
L 486.292048 258.465179 
L 487.017283 270.6993 
L 487.74143 257.368662 
L 488.465577 285.763142 
L 489.193354 277.101543 
L 489.920767 278.693261 
L 490.650359 239.819971 
L 491.381402 275.18706 
L 492.109542 243.220057 
L 492.844941 247.411581 
L 493.562554 262.64786 
L 494.300857 255.847687 
L 495.022826 149.16721 
L 495.749514 172.950129 
L 496.480558 214.551448 
L 497.202889 263.014839 
L 497.936474 276.7213 
L 498.658806 287.102838 
L 499.388397 265.35378 
L 500.114722 249.15805 
L 500.845039 290.905276 
L 501.569912 272.198168 
L 502.300956 279.590814 
L 503.024014 271.508423 
L 503.748886 267.002977 
L 504.477752 260.821806 
L 505.209884 277.052908 
L 505.938024 258.067249 
L 506.65963 283.662959 
L 508.122806 250.113081 
L 509.585982 275.717633 
L 510.316662 243.701994 
L 511.038994 246.797001 
L 511.770763 232.909262 
L 512.493458 238.113295 
L 513.219783 240.469922 
L 513.951189 272.910019 
L 514.671706 227.758286 
L 515.400935 225.428187 
L 516.125445 249.144785 
L 516.847777 235.911419 
L 517.572286 243.343858 
L 518.300063 265.685388 
L 519.028929 241.159667 
L 519.752713 240.142736 
L 520.478311 257.063582 
L 521.204636 246.929645 
L 521.929509 248.63632 
L 522.665997 253.066602 
L 523.386514 268.360359 
L 524.119735 233.30277 
L 524.84969 175.558778 
L 525.582185 220.042875 
L 526.313955 211.407805 
L 527.046087 214.34364 
L 527.776404 218.084177 
L 528.511441 219.101108 
L 529.236314 232.661661 
L 529.962275 226.843048 
L 530.686785 224.703071 
L 531.410569 230.375777 
L 532.145242 233.683014 
L 532.874108 223.221889 
L 533.605151 218.566114 
L 534.335832 238.515646 
L 535.062882 230.035327 
L 535.791748 240.080836 
L 536.519525 228.134108 
L 537.978345 234.775109 
L 538.706484 228.280015 
L 539.43898 238.400689 
L 540.166756 238.458168 
L 540.899615 234.885645 
L 541.624487 216.434981 
L 542.348271 172.494721 
L 543.077137 227.488578 
L 543.79838 230.070698 
L 544.527608 139.45773 
L 545.251392 152.91659 
L 545.983525 197.484694 
L 546.702953 226.741355 
L 547.430729 231.578409 
L 548.164314 241.849411 
L 548.891001 241.195038 
L 549.62023 264.195363 
L 550.349095 243.772737 
L 551.07179 290.224374 
L 551.800293 283.751388 
L 552.525892 267.453964 
L 553.255483 285.095505 
L 553.98689 253.919939 
L 554.720111 229.969005 
L 555.44208 182.297051 
L 556.906345 200.133135 
L 558.359357 180.351618 
L 559.089312 186.01106 
L 559.817814 181.638257 
L 561.27736 276.456013 
L 562.007678 260.560941 
L 562.734002 264.345692 
L 563.45706 294.499905 
L 564.186652 257.457091 
L 564.916969 231.883488 
L 565.644746 147.053762 
L 566.366715 222.828381 
L 567.096669 267.056034 
L 567.824083 238.559861 
L 568.555852 230.238713 
L 569.290163 245.970192 
L 570.019754 246.965016 
L 570.750072 205.628984 
L 571.476033 177.256611 
L 572.20381 234.638044 
L 572.93195 234.085365 
L 573.660815 152.801632 
L 574.389681 228.60278 
L 575.120361 273.891579 
L 575.841241 150.09129 
L 576.571196 230.769285 
L 577.301513 193.584985 
L 578.033646 176.496123 
L 578.758519 169.563307 
L 579.483391 159.040283 
L 580.214435 215.015699 
L 581.673981 86.953143 
L 582.399943 227.930722 
L 583.136431 243.441129 
L 583.863844 240.690994 
L 584.592347 179.878524 
L 585.318672 193.735313 
L 586.04427 197.206143 
L 586.776403 218.327356 
L 587.498735 189.751597 
L 588.968081 225.246908 
L 589.691502 206.305464 
L 590.412745 226.126775 
L 591.143789 261.277214 
L 591.873743 251.09464 
L 592.607327 247.526539 
L 593.338371 252.058514 
L 594.061792 243.167 
L 594.795739 248.203019 
L 595.528234 254.158697 
L 596.24984 249.471972 
L 596.979069 236.035219 
L 597.710112 259.79161 
L 599.167843 244.564175 
L 599.893079 261.785679 
L 600.620493 250.276674 
L 601.345366 262.471002 
L 602.07169 261.44965 
L 602.795474 253.588332 
L 603.524703 255.790208 
L 604.249213 259.013437 
L 604.974448 245.74912 
L 605.708759 238.780933 
L 606.436898 248.552313 
L 607.173023 247.491167 
L 607.894266 255.958223 
L 608.625673 242.618742 
L 609.357079 249.693044 
L 610.080137 233.090541 
L 610.809003 261.7282 
L 611.532061 240.982809 
L 612.266371 278.856855 
L 612.99197 263.38624 
L 613.719746 261.135728 
L 614.448975 263.218225 
L 615.170581 264.863001 
L 615.896179 268.391309 
L 616.627223 248.216283 
L 617.356814 255.604508 
L 618.086769 254.384191 
L 618.825435 247.46906 
L 619.55176 258.779101 
L 620.280625 265.04428 
L 621.009128 245.837549 
L 621.743438 262.860089 
L 622.474119 258.752572 
L 623.200806 257.801963 
L 623.923864 225.768638 
L 624.648374 262.12613 
L 625.381232 259.406945 
L 626.110098 239.439727 
L 626.847312 247.53096 
L 627.576541 246.456551 
L 628.307584 221.285299 
L 629.039354 244.900204 
L 629.768945 215.196978 
L 630.493455 209.250142 
L 631.218328 262.444474 
L 631.95046 230.247556 
L 632.673881 222.337602 
L 633.406739 205.987121 
L 634.13379 243.741787 
L 634.862293 260.021525 
L 635.590795 284.516296 
L 636.321839 286.682802 
L 637.060868 268.563745 
L 637.778844 236.698435 
L 638.502991 215.6347 
L 639.232582 155.781682 
L 639.958907 221.081913 
L 640.682691 220.763569 
L 641.416275 230.070698 
L 642.143689 227.050855 
L 642.87691 192.775861 
L 643.604687 227.997043 
L 644.330648 231.140686 
L 645.054069 227.842293 
L 645.783661 229.367689 
L 646.517608 229.960162 
L 647.254096 102.927802 
L 647.978969 226.980112 
L 648.702753 214.480705 
L 649.428352 211.133675 
L 650.153587 181.328756 
L 650.878823 219.039208 
L 651.610593 188.13335 
L 652.343088 173.268473 
L 653.064331 212.849194 
L 653.793922 107.221019 
L 654.516617 174.462261 
L 655.970719 280.705016 
L 656.699221 280.96146 
L 657.429176 259.800453 
L 658.153686 274.271823 
L 658.880373 269.598362 
L 659.599801 262.068651 
L 660.331571 264.350114 
L 661.056806 273.736828 
L 661.783857 274.988096 
L 662.508004 252.345907 
L 663.238321 256.683339 
L 663.969728 254.870549 
L 664.695327 216.116637 
L 665.423466 218.035541 
L 666.14725 153.221669 
L 666.879745 219.574202 
L 667.605344 198.086009 
L 668.34038 196.388177 
L 669.061986 240.027778 
L 669.791941 266.49009 
L 670.521895 219.273544 
L 671.246768 237.264379 
L 671.980353 249.056357 
L 672.709218 210.956818 
L 673.436995 228.381708 
L 674.162231 229.854048 
L 674.886377 230.066277 
L 675.613065 193.554034 
L 676.345923 225.89686 
L 677.073337 232.01171 
L 677.801114 230.702964 
L 678.531431 230.565899 
L 679.265378 234.10305 
L 679.990251 229.52244 
L 680.720206 227.9263 
L 681.44653 233.448677 
L 682.178663 231.326387 
L 682.910432 212.893408 
L 683.632401 213.295759 
L 684.356911 232.993269 
L 685.083236 216.969975 
L 685.811738 236.512735 
L 686.539152 224.557164 
L 687.275277 261.467336 
L 688.004143 196.759578 
L 688.735549 211.009875 
L 689.457881 228.487823 
L 690.184932 227.223291 
L 690.91053 213.11448 
L 691.639759 149.821582 
L 692.37044 133.749652 
L 693.095675 162.931149 
L 693.819459 236.40662 
L 694.544332 252.597929 
L 695.278642 244.139717 
L 696.010775 261.485021 
L 696.736736 238.643868 
L 697.463424 250.581753 
L 698.191564 219.101108 
L 698.920066 253.539696 
L 699.643487 256.586067 
L 700.375619 243.799266 
L 701.100855 244.462482 
L 701.833351 257.094533 
L 702.562579 292.373193 
L 703.291808 241.464746 
L 704.017406 257.819649 
L 704.744094 253.919939 
L 705.474775 264.991222 
L 706.200373 241.663711 
L 706.929602 279.39627 
L 707.661734 274.60343 
L 708.384792 273.613028 
L 709.11511 283.517051 
L 709.84216 281.690997 
L 710.567033 268.767131 
L 711.297351 275.814905 
L 712.02549 264.659614 
L 712.754356 256.555117 
L 713.479229 271.37578 
L 714.206642 261.922744 
L 714.930063 281.496454 
L 715.652032 280.373408 
L 716.385253 271.570323 
L 717.111941 278.666733 
L 717.843347 280.209815 
L 718.57548 181.872593 
L 719.301079 192.006531 
L 720.025225 164.085144 
L 720.758084 205.704148 
L 722.215815 249.768208 
L 722.947584 237.313015 
L 723.675724 265.446631 
L 724.408582 260.998663 
L 725.139989 255.056249 
L 725.864499 265.680967 
L 726.59772 248.415248 
L 727.321867 259.941939 
L 728.045288 260.998663 
L 728.774153 263.461405 
L 729.502656 230.954986 
L 730.22644 244.88694 
L 730.956394 266.901284 
L 731.690704 265.088494 
L 732.417755 265.676545 
L 733.145169 282.168512 
L 733.877301 245.855235 
L 734.603263 226.72809 
L 735.328499 266.286704 
L 736.052645 248.936978 
L 736.784415 256.873461 
L 738.236701 240.673309 
L 738.966293 267.113513 
L 739.696247 199.62467 
L 741.149986 261.776836 
L 741.874858 270.6993 
L 742.610258 283.41978 
L 743.334405 276.009448 
L 744.062544 259.234509 
L 744.786691 267.294792 
L 745.516645 254.494726 
L 746.244785 267.016241 
L 746.968206 271.353673 
L 747.698523 255.383436 
L 748.431019 273.060348 
L 749.157706 264.681722 
L 749.889476 250.391631 
L 750.613623 258.226421 
L 751.33777 252.107149 
L 752.065909 263.38624 
L 752.795501 247.889097 
L 753.522914 238.471432 
L 754.245609 262.661124 
L 754.973749 255.834422 
L 755.695718 266.171747 
L 756.426398 260.348712 
L 757.148004 249.631144 
L 757.884129 247.393896 
L 758.607913 277.450837 
L 759.33206 253.504324 
L 760.058385 260.176275 
L 761.510671 251.67827 
L 762.243167 227.736178 
L 762.968402 262.329516 
L 763.696905 258.677408 
L 764.43303 222.342023 
L 765.890761 258.447493 
L 766.615271 224.499685 
L 767.346315 242.265027 
L 768.07155 253.508746 
L 768.802957 256.046652 
L 769.531822 266.171747 
L 770.258873 273.767779 
L 770.987013 268.152551 
L 771.712974 275.757426 
L 772.43821 269.226961 
L 773.165261 226.210782 
L 773.894126 247.433689 
L 774.623355 253.933204 
L 775.346776 250.232459 
L 776.072374 238.71019 
L 776.804144 244.14856 
L 777.525387 246.611301 
L 778.975858 244.559753 
L 779.707265 269.487826 
L 780.429234 257.39519 
L 781.160277 276.699193 
L 781.884061 275.783955 
L 782.607482 272.657997 
L 783.33417 257.386348 
L 784.06122 254.114483 
L 784.790449 275.67784 
L 785.518951 258.99133 
L 786.982853 240.951859 
L 787.711719 241.522225 
L 788.434051 226.135618 
L 789.159286 264.447385 
L 789.889241 283.985724 
L 790.619558 280.833238 
L 791.342253 281.938598 
L 792.073297 259.592646 
L 792.798533 256.882303 
L 793.524131 260.28239 
L 794.260619 250.564067 
L 794.986218 243.542822 
L 795.715084 274.806817 
L 796.449031 255.440914 
L 797.172089 271.89751 
L 797.899866 263.147482 
L 798.63345 265.35378 
L 799.362316 244.30331 
L 800.090818 262.64786 
L 800.822225 256.289831 
L 802.275237 262.395838 
L 803.00374 273.131091 
L 803.724982 259.031123 
L 804.457478 252.284007 
L 805.181988 243.277536 
L 805.911216 255.91843 
L 806.640445 262.347202 
L 807.364229 260.207226 
L 808.09745 267.772307 
L 808.823049 250.789561 
L 809.550825 259.123973 
L 810.288039 249.993702 
L 811.014364 244.873675 
L 811.749037 244.475746 
L 812.483348 253.835932 
L 813.206043 250.948733 
L 814.661959 253.623703 
L 815.386832 252.929537 
L 816.113156 256.793875 
L 816.843111 254.698113 
L 817.572702 268.554902 
L 818.304835 247.83604 
L 819.0337 257.11664 
L 819.761477 257.02379 
L 820.498691 251.815335 
L 821.219934 248.795492 
L 821.9488 253.690025 
L 822.680569 254.238283 
L 823.412339 253.495481 
L 824.139752 249.591351 
L 824.872611 244.590703 
L 825.601113 241.451482 
L 826.333246 249.418915 
L 827.062474 234.837009 
L 827.790977 247.535382 
L 828.515486 245.466148 
L 829.247256 248.189755 
L 829.974307 251.412984 
L 830.698453 249.657672 
L 831.425867 259.384838 
L 832.151829 252.558136 
L 832.877064 255.529343 
L 833.600122 260.605155 
L 834.328262 252.4476 
L 835.061846 253.155031 
L 835.785993 253.46011 
L 836.51014 252.239793 
L 837.239006 258.049563 
L 837.967145 260.459248 
L 838.702907 260.211647 
L 839.433951 268.276351 
L 840.157735 267.056034 
L 841.612562 259.552853 
L 842.335257 261.286057 
L 843.064485 263.859334 
L 844.514594 259.101866 
L 845.237652 260.132061 
L 845.967606 242.211969 
L 846.689938 266.618312 
L 847.422071 269.801748 
L 848.154929 143.69789 
L 848.876898 226.551233 
L 849.608304 199.704256 
L 850.343341 217.275054 
L 851.075836 211.42549 
L 851.798894 212.234614 
L 852.523041 199.505291 
L 853.252995 176.230837 
L 853.252995 176.230837 
" clip-path="url(#p742011b695)" style="fill: none; stroke: #e74c3c; stroke-width: 2; stroke-linecap: square"/>
   </g>
   <g id="patch_3">
    <path d="M 47.45 387.16 
L 47.45 28.32 
" style="fill: none; stroke: #000000; stroke-width: 0.8; stroke-linejoin: miter; stroke-linecap: square"/>
   </g>
   <g id="patch_4">
    <path d="M 853.2 387.16 
L 853.2 28.32 
" style="fill: none; stroke: #000000; stroke-width: 0.8; stroke-linejoin: miter; stroke-linecap: square"/>
   </g>
   <g id="patch_5">
    <path d="M 47.45 387.16 
L 853.2 387.16 
" style="fill: none; stroke: #000000; stroke-width: 0.8; stroke-linejoin: miter; stroke-linecap: square"/>
   </g>
   <g id="patch_6">
    <path d="M 47.45 28.32 
L 853.2 28.32 
" style="fill: none; stroke: #000000; stroke-width: 0.8; stroke-linejoin: miter; stroke-linecap: square"/>
   </g>
   <g id="text_20">
    <!-- CPU package power over time -->
    <g transform="translate(314.81875 22.32) scale(0.16 -0.16)">
     <defs>
      <path id="DejaVuSans-Bold-43" d="M 4288 256 
Q 3956 84 3597 -3 
Q 3238 -91 2847 -91 
Q 1681 -91 1000 561 
Q 319 1213 319 2328 
Q 319 3447 1000 4098 
Q 1681 4750 2847 4750 
Q 3238 4750 3597 4662 
Q 3956 4575 4288 4403 
L 4288 3438 
Q 3953 3666 3628 3772 
Q 3303 3878 2944 3878 
Q 2300 3878 1931 3465 
Q 1563 3053 1563 2328 
Q 1563 1606 1931 1193 
Q 2300 781 2944 781 
Q 3303 781 3628 887 
Q 3953 994 4288 1222 
L 4288 256 
z
" transform="scale(0.015625)"/>
      <path id="DejaVuSans-Bold-50" d="M 588 4666 
L 2584 4666 
Q 3475 4666 3951 4270 
Q 4428 3875 4428 3144 
Q 4428 2409 3951 2014 
Q 3475 1619 2584 1619 
L 1791 1619 
L 1791 0 
L 588 0 
L 588 4666 
z
M 1791 3794 
L 1791 2491 
L 2456 2491 
Q 2806 2491 2997 2661 
Q 3188 2831 3188 3144 
Q 3188 3456 2997 3625 
Q 2806 3794 2456 3794 
L 1791 3794 
z
" transform="scale(0.015625)"/>
      <path id="DejaVuSans-Bold-55" d="M 588 4666 
L 1791 4666 
L 1791 1869 
Q 1791 1291 1980 1042 
Q 2169 794 2597 794 
Q 3028 794 3217 1042 
Q 3406 1291 3406 1869 
L 3406 4666 
L 4609 4666 
L 4609 1869 
Q 4609 878 4112 393 
Q 3616 -91 2597 -91 
Q 1581 -91 1084 393 
Q 588 878 588 1869 
L 588 4666 
z
" transform="scale(0.015625)"/>
      <path id="DejaVuSans-Bold-20" transform="scale(0.015625)"/>
      <path id="DejaVuSans-Bold-70" d="M 1656 506 
L 1656 -1331 
L 538 -1331 
L 538 3500 
L 1656 3500 
L 1656 2988 
Q 1888 3294 2169 3439 
Q 2450 3584 2816 3584 
Q 3463 3584 3878 3070 
Q 4294 2556 4294 1747 
Q 4294 938 3878 423 
Q 3463 -91 2816 -91 
Q 2450 -91 2169 54 
Q 1888 200 1656 506 
z
M 2400 2772 
Q 2041 2772 1848 2508 
Q 1656 2244 1656 1747 
Q 1656 1250 1848 986 
Q 2041 722 2400 722 
Q 2759 722 2948 984 
Q 3138 1247 3138 1747 
Q 3138 2247 2948 2509 
Q 2759 2772 2400 2772 
z
" transform="scale(0.015625)"/>
      <path id="DejaVuSans-Bold-61" d="M 2106 1575 
Q 1756 1575 1579 1456 
Q 1403 1338 1403 1106 
Q 1403 894 1545 773 
Q 1688 653 1941 653 
Q 2256 653 2472 879 
Q 2688 1106 2688 1447 
L 2688 1575 
L 2106 1575 
z
M 3816 1997 
L 3816 0 
L 2688 0 
L 2688 519 
Q 2463 200 2181 54 
Q 1900 -91 1497 -91 
Q 953 -91 614 226 
Q 275 544 275 1050 
Q 275 1666 698 1953 
Q 1122 2241 2028 2241 
L 2688 2241 
L 2688 2328 
Q 2688 2594 2478 2717 
Q 2269 2841 1825 2841 
Q 1466 2841 1156 2769 
Q 847 2697 581 2553 
L 581 3406 
Q 941 3494 1303 3539 
Q 1666 3584 2028 3584 
Q 2975 3584 3395 3211 
Q 3816 2838 3816 1997 
z
" transform="scale(0.015625)"/>
      <path id="DejaVuSans-Bold-63" d="M 3366 3391 
L 3366 2478 
Q 3138 2634 2908 2709 
Q 2678 2784 2431 2784 
Q 1963 2784 1702 2511 
Q 1441 2238 1441 1747 
Q 1441 1256 1702 982 
Q 1963 709 2431 709 
Q 2694 709 2930 787 
Q 3166 866 3366 1019 
L 3366 103 
Q 3103 6 2833 -42 
Q 2563 -91 2291 -91 
Q 1344 -91 809 395 
Q 275 881 275 1747 
Q 275 2613 809 3098 
Q 1344 3584 2291 3584 
Q 2566 3584 2833 3536 
Q 3100 3488 3366 3391 
z
" transform="scale(0.015625)"/>
      <path id="DejaVuSans-Bold-6b" d="M 538 4863 
L 1656 4863 
L 1656 2216 
L 2944 3500 
L 4244 3500 
L 2534 1894 
L 4378 0 
L 3022 0 
L 1656 1459 
L 1656 0 
L 538 0 
L 538 4863 
z
" transform="scale(0.015625)"/>
      <path id="DejaVuSans-Bold-67" d="M 2919 594 
Q 2688 288 2409 144 
Q 2131 0 1766 0 
Q 1125 0 706 504 
Q 288 1009 288 1791 
Q 288 2575 706 3076 
Q 1125 3578 1766 3578 
Q 2131 3578 2409 3434 
Q 2688 3291 2919 2981 
L 2919 3500 
L 4044 3500 
L 4044 353 
Q 4044 -491 3511 -936 
Q 2978 -1381 1966 -1381 
Q 1638 -1381 1331 -1331 
Q 1025 -1281 716 -1178 
L 716 -306 
Q 1009 -475 1290 -558 
Q 1572 -641 1856 -641 
Q 2406 -641 2662 -400 
Q 2919 -159 2919 353 
L 2919 594 
z
M 2181 2772 
Q 1834 2772 1640 2515 
Q 1447 2259 1447 1791 
Q 1447 1309 1634 1061 
Q 1822 813 2181 813 
Q 2531 813 2725 1069 
Q 2919 1325 2919 1791 
Q 2919 2259 2725 2515 
Q 2531 2772 2181 2772 
z
" transform="scale(0.015625)"/>
      <path id="DejaVuSans-Bold-65" d="M 4031 1759 
L 4031 1441 
L 1416 1441 
Q 1456 1047 1700 850 
Q 1944 653 2381 653 
Q 2734 653 3104 758 
Q 3475 863 3866 1075 
L 3866 213 
Q 3469 63 3072 -14 
Q 2675 -91 2278 -91 
Q 1328 -91 801 392 
Q 275 875 275 1747 
Q 275 2603 792 3093 
Q 1309 3584 2216 3584 
Q 3041 3584 3536 3087 
Q 4031 2591 4031 1759 
z
M 2881 2131 
Q 2881 2450 2695 2645 
Q 2509 2841 2209 2841 
Q 1884 2841 1681 2658 
Q 1478 2475 1428 2131 
L 2881 2131 
z
" transform="scale(0.015625)"/>
      <path id="DejaVuSans-Bold-6f" d="M 2203 2784 
Q 1831 2784 1636 2517 
Q 1441 2250 1441 1747 
Q 1441 1244 1636 976 
Q 1831 709 2203 709 
Q 2569 709 2762 976 
Q 2956 1244 2956 1747 
Q 2956 2250 2762 2517 
Q 2569 2784 2203 2784 
z
M 2203 3584 
Q 3106 3584 3614 3096 
Q 4122 2609 4122 1747 
Q 4122 884 3614 396 
Q 3106 -91 2203 -91 
Q 1297 -91 786 396 
Q 275 884 275 1747 
Q 275 2609 786 3096 
Q 1297 3584 2203 3584 
z
" transform="scale(0.015625)"/>
      <path id="DejaVuSans-Bold-77" d="M 225 3500 
L 1313 3500 
L 1900 1088 
L 2491 3500 
L 3425 3500 
L 4013 1113 
L 4603 3500 
L 5691 3500 
L 4769 0 
L 3547 0 
L 2956 2406 
L 2369 0 
L 1147 0 
L 225 3500 
z
" transform="scale(0.015625)"/>
      <path id="DejaVuSans-Bold-72" d="M 3138 2547 
Q 2991 2616 2845 2648 
Q 2700 2681 2553 2681 
Q 2122 2681 1889 2404 
Q 1656 2128 1656 1613 
L 1656 0 
L 538 0 
L 538 3500 
L 1656 3500 
L 1656 2925 
Q 1872 3269 2151 3426 
Q 2431 3584 2822 3584 
Q 2878 3584 2943 3579 
Q 3009 3575 3134 3559 
L 3138 2547 
z
" transform="scale(0.015625)"/>
      <path id="DejaVuSans-Bold-76" d="M 97 3500 
L 1216 3500 
L 2088 1081 
L 2956 3500 
L 4078 3500 
L 2700 0 
L 1472 0 
L 97 3500 
z
" transform="scale(0.015625)"/>
      <path id="DejaVuSans-Bold-74" d="M 1759 4494 
L 1759 3500 
L 2913 3500 
L 2913 2700 
L 1759 2700 
L 1759 1216 
Q 1759 972 1856 886 
Q 1953 800 2241 800 
L 2816 800 
L 2816 0 
L 1856 0 
Q 1194 0 917 276 
Q 641 553 641 1216 
L 641 2700 
L 84 2700 
L 84 3500 
L 641 3500 
L 641 4494 
L 1759 4494 
z
" transform="scale(0.015625)"/>
      <path id="DejaVuSans-Bold-69" d="M 538 3500 
L 1656 3500 
L 1656 0 
L 538 0 
L 538 3500 
z
M 538 4863 
L 1656 4863 
L 1656 3950 
L 538 3950 
L 538 4863 
z
" transform="scale(0.015625)"/>
      <path id="DejaVuSans-Bold-6d" d="M 3781 2919 
Q 3994 3244 4286 3414 
Q 4578 3584 4928 3584 
Q 5531 3584 5847 3212 
Q 6163 2841 6163 2131 
L 6163 0 
L 5038 0 
L 5038 1825 
Q 5041 1866 5042 1909 
Q 5044 1953 5044 2034 
Q 5044 2406 4934 2573 
Q 4825 2741 4581 2741 
Q 4263 2741 4089 2478 
Q 3916 2216 3909 1719 
L 3909 0 
L 2784 0 
L 2784 1825 
Q 2784 2406 2684 2573 
Q 2584 2741 2328 2741 
Q 2006 2741 1831 2477 
Q 1656 2213 1656 1722 
L 1656 0 
L 531 0 
L 531 3500 
L 1656 3500 
L 1656 2988 
Q 1863 3284 2130 3434 
Q 2397 3584 2719 3584 
Q 3081 3584 3359 3409 
Q 3638 3234 3781 2919 
z
" transform="scale(0.015625)"/>
     </defs>
     <use xlink:href="#DejaVuSans-Bold-43"/>
     <use xlink:href="#DejaVuSans-Bold-50" x="73.388672"/>
     <use xlink:href="#DejaVuSans-Bold-55" x="146.679688"/>
     <use xlink:href="#DejaVuSans-Bold-20" x="227.880859"/>
     <use xlink:href="#DejaVuSans-Bold-70" x="262.695312"/>
     <use xlink:href="#DejaVuSans-Bold-61" x="334.277344"/>
     <use xlink:href="#DejaVuSans-Bold-63" x="401.757812"/>
     <use xlink:href="#DejaVuSans-Bold-6b" x="461.035156"/>
     <use xlink:href="#DejaVuSans-Bold-61" x="527.539062"/>
     <use xlink:href="#DejaVuSans-Bold-67" x="595.019531"/>
     <use xlink:href="#DejaVuSans-Bold-65" x="666.601562"/>
     <use xlink:href="#DejaVuSans-Bold-20" x="734.423828"/>
     <use xlink:href="#DejaVuSans-Bold-70" x="769.238281"/>
     <use xlink:href="#DejaVuSans-Bold-6f" x="840.820312"/>
     <use xlink:href="#DejaVuSans-Bold-77" x="909.521484"/>
     <use xlink:href="#DejaVuSans-Bold-65" x="1001.904297"/>
     <use xlink:href="#DejaVuSans-Bold-72" x="1069.726562"/>
     <use xlink:href="#DejaVuSans-Bold-20" x="1119.042969"/>
     <use xlink:href="#DejaVuSans-Bold-6f" x="1153.857422"/>
     <use xlink:href="#DejaVuSans-Bold-76" x="1222.558594"/>
     <use xlink:href="#DejaVuSans-Bold-65" x="1287.744141"/>
     <use xlink:href="#DejaVuSans-Bold-72" x="1355.566406"/>
     <use xlink:href="#DejaVuSans-Bold-20" x="1404.882812"/>
     <use xlink:href="#DejaVuSans-Bold-74" x="1439.697266"/>
     <use xlink:href="#DejaVuSans-Bold-69" x="1487.5"/>
     <use xlink:href="#DejaVuSans-Bold-6d" x="1521.777344"/>
     <use xlink:href="#DejaVuSans-Bold-65" x="1625.976562"/>
    </g>
   </g>
   <g id="legend_1">
    <g id="patch_7">
     <path d="M 695.514063 67.67625 
L 848.2 67.67625 
Q 850.2 67.67625 850.2 65.67625 
L 850.2 37.32 
Q 850.2 35.32 848.2 35.32 
L 695.514063 35.32 
Q 693.514063 35.32 693.514063 37.32 
L 693.514063 65.67625 
Q 693.514063 67.67625 695.514063 67.67625 
z
" style="fill: #4d4d4d; opacity: 0.5; stroke: #4d4d4d; stroke-linejoin: miter"/>
    </g>
    <g id="patch_8">
     <path d="M 693.514063 65.67625 
L 846.2 65.67625 
Q 848.2 65.67625 848.2 63.67625 
L 848.2 35.32 
Q 848.2 33.32 846.2 33.32 
L 693.514063 33.32 
Q 691.514063 33.32 691.514063 35.32 
L 691.514063 63.67625 
Q 691.514063 65.67625 693.514063 65.67625 
z
" style="fill: #ffffff; stroke: #cccccc; stroke-linejoin: miter"/>
    </g>
    <g id="line2d_19">
     <path d="M 695.514063 41.418437 
L 705.514063 41.418437 
L 715.514063 41.418437 
" style="fill: none; stroke: #e74c3c; stroke-width: 2; stroke-linecap: square"/>
    </g>
    <g id="text_21">
     <!-- CPU package power (W) -->
     <g transform="translate(723.514063 44.918437) scale(0.1 -0.1)">
      <defs>
       <path id="DejaVuSans-43" d="M 4122 4306 
L 4122 3641 
Q 3803 3938 3442 4084 
Q 3081 4231 2675 4231 
Q 1875 4231 1450 3742 
Q 1025 3253 1025 2328 
Q 1025 1406 1450 917 
Q 1875 428 2675 428 
Q 3081 428 3442 575 
Q 3803 722 4122 1019 
L 4122 359 
Q 3791 134 3420 21 
Q 3050 -91 2638 -91 
Q 1578 -91 968 557 
Q 359 1206 359 2328 
Q 359 3453 968 4101 
Q 1578 4750 2638 4750 
Q 3056 4750 3426 4639 
Q 3797 4528 4122 4306 
z
" transform="scale(0.015625)"/>
       <path id="DejaVuSans-55" d="M 556 4666 
L 1191 4666 
L 1191 1831 
Q 1191 1081 1462 751 
Q 1734 422 2344 422 
Q 2950 422 3222 751 
Q 3494 1081 3494 1831 
L 3494 4666 
L 4128 4666 
L 4128 1753 
Q 4128 841 3676 375 
Q 3225 -91 2344 -91 
Q 1459 -91 1007 375 
Q 556 841 556 1753 
L 556 4666 
z
" transform="scale(0.015625)"/>
       <path id="DejaVuSans-70" d="M 1159 525 
L 1159 -1331 
L 581 -1331 
L 581 3500 
L 1159 3500 
L 1159 2969 
Q 1341 3281 1617 3432 
Q 1894 3584 2278 3584 
Q 2916 3584 3314 3078 
Q 3713 2572 3713 1747 
Q 3713 922 3314 415 
Q 2916 -91 2278 -91 
Q 1894 -91 1617 61 
Q 1341 213 1159 525 
z
M 3116 1747 
Q 3116 2381 2855 2742 
Q 2594 3103 2138 3103 
Q 1681 3103 1420 2742 
Q 1159 2381 1159 1747 
Q 1159 1113 1420 752 
Q 1681 391 2138 391 
Q 2594 391 2855 752 
Q 3116 1113 3116 1747 
z
" transform="scale(0.015625)"/>
       <path id="DejaVuSans-63" d="M 3122 3366 
L 3122 2828 
Q 2878 2963 2633 3030 
Q 2388 3097 2138 3097 
Q 1578 3097 1268 2742 
Q 959 2388 959 1747 
Q 959 1106 1268 751 
Q 1578 397 2138 397 
Q 2388 397 2633 464 
Q 2878 531 3122 666 
L 3122 134 
Q 2881 22 2623 -34 
Q 2366 -91 2075 -91 
Q 1284 -91 818 406 
Q 353 903 353 1747 
Q 353 2603 823 3093 
Q 1294 3584 2113 3584 
Q 2378 3584 2631 3529 
Q 2884 3475 3122 3366 
z
" transform="scale(0.015625)"/>
       <path id="DejaVuSans-6b" d="M 581 4863 
L 1159 4863 
L 1159 1991 
L 2875 3500 
L 3609 3500 
L 1753 1863 
L 3688 0 
L 2938 0 
L 1159 1709 
L 1159 0 
L 581 0 
L 581 4863 
z
" transform="scale(0.015625)"/>
       <path id="DejaVuSans-67" d="M 2906 1791 
Q 2906 2416 2648 2759 
Q 2391 3103 1925 3103 
Q 1463 3103 1205 2759 
Q 947 2416 947 1791 
Q 947 1169 1205 825 
Q 1463 481 1925 481 
Q 2391 481 2648 825 
Q 2906 1169 2906 1791 
z
M 3481 434 
Q 3481 -459 3084 -895 
Q 2688 -1331 1869 -1331 
Q 1566 -1331 1297 -1286 
Q 1028 -1241 775 -1147 
L 775 -588 
Q 1028 -725 1275 -790 
Q 1522 -856 1778 -856 
Q 2344 -856 2625 -561 
Q 2906 -266 2906 331 
L 2906 616 
Q 2728 306 2450 153 
Q 2172 0 1784 0 
Q 1141 0 747 490 
Q 353 981 353 1791 
Q 353 2603 747 3093 
Q 1141 3584 1784 3584 
Q 2172 3584 2450 3431 
Q 2728 3278 2906 2969 
L 2906 3500 
L 3481 3500 
L 3481 434 
z
" transform="scale(0.015625)"/>
      </defs>
      <use xlink:href="#DejaVuSans-43"/>
      <use xlink:href="#DejaVuSans-50" x="69.824219"/>
      <use xlink:href="#DejaVuSans-55" x="130.126953"/>
      <use xlink:href="#DejaVuSans-20" x="203.320312"/>
      <use xlink:href="#DejaVuSans-70" x="235.107422"/>
      <use xlink:href="#DejaVuSans-61" x="298.583984"/>
      <use xlink:href="#DejaVuSans-63" x="359.863281"/>
      <use xlink:href="#DejaVuSans-6b" x="414.84375"/>
      <use xlink:href="#DejaVuSans-61" x="471.003906"/>
      <use xlink:href="#DejaVuSans-67" x="532.283203"/>
      <use xlink:href="#DejaVuSans-65" x="595.759766"/>
      <use xlink:href="#DejaVuSans-20" x="657.283203"/>
      <use xlink:href="#DejaVuSans-70" x="689.070312"/>
      <use xlink:href="#DejaVuSans-6f" x="752.546875"/>
      <use xlink:href="#DejaVuSans-77" x="813.728516"/>
      <use xlink:href="#DejaVuSans-65" x="895.515625"/>
      <use xlink:href="#DejaVuSans-72" x="957.039062"/>
      <use xlink:href="#DejaVuSans-20" x="998.152344"/>
      <use xlink:href="#DejaVuSans-28" x="1029.939453"/>
      <use xlink:href="#DejaVuSans-57" x="1068.953125"/>
      <use xlink:href="#DejaVuSans-29" x="1167.830078"/>
     </g>
    </g>
    <g id="line2d_20">
     <path d="M 695.514063 56.096563 
L 705.514063 56.096563 
L 715.514063 56.096563 
" style="fill: none; stroke-dasharray: 7.4,3.2; stroke-dashoffset: 0; stroke: #000000; stroke-opacity: 0.9; stroke-width: 2"/>
    </g>
    <g id="text_22">
     <!-- Cooler on (5000 RPM) -->
     <g transform="translate(723.514063 59.596563) scale(0.1 -0.1)">
      <defs>
       <path id="DejaVuSans-6c" d="M 603 4863 
L 1178 4863 
L 1178 0 
L 603 0 
L 603 4863 
z
" transform="scale(0.015625)"/>
       <path id="DejaVuSans-52" d="M 2841 2188 
Q 3044 2119 3236 1894 
Q 3428 1669 3622 1275 
L 4263 0 
L 3584 0 
L 2988 1197 
Q 2756 1666 2539 1819 
Q 2322 1972 1947 1972 
L 1259 1972 
L 1259 0 
L 628 0 
L 628 4666 
L 2053 4666 
Q 2853 4666 3247 4331 
Q 3641 3997 3641 3322 
Q 3641 2881 3436 2590 
Q 3231 2300 2841 2188 
z
M 1259 4147 
L 1259 2491 
L 2053 2491 
Q 2509 2491 2742 2702 
Q 2975 2913 2975 3322 
Q 2975 3731 2742 3939 
Q 2509 4147 2053 4147 
L 1259 4147 
z
" transform="scale(0.015625)"/>
      </defs>
      <use xlink:href="#DejaVuSans-43"/>
      <use xlink:href="#DejaVuSans-6f" x="69.824219"/>
      <use xlink:href="#DejaVuSans-6f" x="131.005859"/>
      <use xlink:href="#DejaVuSans-6c" x="192.1875"/>
      <use xlink:href="#DejaVuSans-65" x="219.970703"/>
      <use xlink:href="#DejaVuSans-72" x="281.494141"/>
      <use xlink:href="#DejaVuSans-20" x="322.607422"/>
      <use xlink:href="#DejaVuSans-6f" x="354.394531"/>
      <use xlink:href="#DejaVuSans-6e" x="415.576172"/>
      <use xlink:href="#DejaVuSans-20" x="478.955078"/>
      <use xlink:href="#DejaVuSans-28" x="510.742188"/>
      <use xlink:href="#DejaVuSans-35" x="549.755859"/>
      <use xlink:href="#DejaVuSans-30" x="613.378906"/>
      <use xlink:href="#DejaVuSans-30" x="677.001953"/>
      <use xlink:href="#DejaVuSans-30" x="740.625"/>
      <use xlink:href="#DejaVuSans-20" x="804.248047"/>
      <use xlink:href="#DejaVuSans-52" x="836.035156"/>
      <use xlink:href="#DejaVuSans-50" x="905.517578"/>
      <use xlink:href="#DejaVuSans-4d" x="965.820312"/>
      <use xlink:href="#DejaVuSans-29" x="1052.099609"/>
     </g>
    </g>
   </g>
   <g id="line2d_21">
    <path d="M 319.685647 387.16 
L 319.685647 28.32 
" clip-path="url(#p742011b695)" style="fill: none; stroke-dasharray: 7.4,3.2; stroke-dashoffset: 0; stroke: #000000; stroke-opacity: 0.9; stroke-width: 2"/>
   </g>
  </g>
 </g>
 <defs>
  <clipPath id="p742011b695">
   <rect x="47.45" y="28.32" width="805.75" height="358.84"/>
  </clipPath>
 </defs>
</svg>
