<?xml version="1.0" encoding="utf-8" standalone="no"?>
<!DOCTYPE svg PUBLIC "-//W3C//DTD SVG 1.1//EN"
  "http://www.w3.org/Graphics/SVG/1.1/DTD/svg11.dtd">
<svg xmlns:xlink="http://www.w3.org/1999/xlink" width="864pt" height="432pt" viewBox="0 0 864 432" xmlns="http://www.w3.org/2000/svg" version="1.1">
 <metadata>
  <rdf:RDF xmlns:dc="http://purl.org/dc/elements/1.1/" xmlns:cc="http://creativecommons.org/ns#" xmlns:rdf="http://www.w3.org/1999/02/22-rdf-syntax-ns#">
   <cc:Work>
    <dc:type rdf:resource="http://purl.org/dc/dcmitype/StillImage"/>
    <dc:date>2026-05-17T12:04:51.959753</dc:date>
    <dc:format>image/svg+xml</dc:format>
    <dc:creator>
     <cc:Agent>
      <dc:title>Matplotlib v3.9.2, https://matplotlib.org/</dc:title>
     </cc:Agent>
    </dc:creator>
   </cc:Work>
  </rdf:RDF>
 </metadata>
 <defs>
  <style type="text/css">*{stroke-linejoin: round; stroke-linecap: butt}</style>
 </defs>
 <g id="figure_1">
  <g id="patch_1">
   <path d="M 0 432 
L 864 432 
L 864 0 
L 0 0 
z
" style="fill: #ffffff"/>
  </g>
  <g id="axes_1">
   <g id="patch_2">
    <path d="M 53.75 387.16 
L 853.2 387.16 
L 853.2 28.32 
L 53.75 28.32 
z
" style="fill: #ffffff"/>
   </g>
   <g id="matplotlib.axis_1">
    <g id="xtick_1">
     <g id="line2d_1">
      <defs>
       <path id="maf76146961" d="M 0 0 
L 0 3.5 
" style="stroke: #000000; stroke-width: 0.8"/>
      </defs>
      <g>
       <use xlink:href="#maf76146961" x="53.75" y="387.16" style="stroke: #000000; stroke-width: 0.8"/>
      </g>
     </g>
     <g id="text_1">
      <!-- 0 -->
      <g transform="translate(50.56875 401.758438) scale(0.1 -0.1)">
       <defs>
        <path id="DejaVuSans-30" d="M 2034 4250 
Q 1547 4250 1301 3770 
Q 1056 3291 1056 2328 
Q 1056 1369 1301 889 
Q 1547 409 2034 409 
Q 2525 409 2770 889 
Q 3016 1369 3016 2328 
Q 3016 3291 2770 3770 
Q 2525 4250 2034 4250 
z
M 2034 4750 
Q 2819 4750 3233 4129 
Q 3647 3509 3647 2328 
Q 3647 1150 3233 529 
Q 2819 -91 2034 -91 
Q 1250 -91 836 529 
Q 422 1150 422 2328 
Q 422 3509 836 4129 
Q 1250 4750 2034 4750 
z
" transform="scale(0.015625)"/>
       </defs>
       <use xlink:href="#DejaVuSans-30"/>
      </g>
     </g>
    </g>
    <g id="xtick_2">
     <g id="line2d_2">
      <g>
       <use xlink:href="#maf76146961" x="161.792836" y="387.16" style="stroke: #000000; stroke-width: 0.8"/>
      </g>
     </g>
     <g id="text_2">
      <!-- 5 -->
      <g transform="translate(158.611586 401.758438) scale(0.1 -0.1)">
       <defs>
        <path id="DejaVuSans-35" d="M 691 4666 
L 3169 4666 
L 3169 4134 
L 1269 4134 
L 1269 2991 
Q 1406 3038 1543 3061 
Q 1681 3084 1819 3084 
Q 2600 3084 3056 2656 
Q 3513 2228 3513 1497 
Q 3513 744 3044 326 
Q 2575 -91 1722 -91 
Q 1428 -91 1123 -41 
Q 819 9 494 109 
L 494 744 
Q 775 591 1075 516 
Q 1375 441 1709 441 
Q 2250 441 2565 725 
Q 2881 1009 2881 1497 
Q 2881 1984 2565 2268 
Q 2250 2553 1709 2553 
Q 1456 2553 1204 2497 
Q 953 2441 691 2322 
L 691 4666 
z
" transform="scale(0.015625)"/>
       </defs>
       <use xlink:href="#DejaVuSans-35"/>
      </g>
     </g>
    </g>
    <g id="xtick_3">
     <g id="line2d_3">
      <g>
       <use xlink:href="#maf76146961" x="269.835672" y="387.16" style="stroke: #000000; stroke-width: 0.8"/>
      </g>
     </g>
     <g id="text_3">
      <!-- 10 -->
      <g transform="translate(263.473172 401.758438) scale(0.1 -0.1)">
       <defs>
        <path id="DejaVuSans-31" d="M 794 531 
L 1825 531 
L 1825 4091 
L 703 3866 
L 703 4441 
L 1819 4666 
L 2450 4666 
L 2450 531 
L 3481 531 
L 3481 0 
L 794 0 
L 794 531 
z
" transform="scale(0.015625)"/>
       </defs>
       <use xlink:href="#DejaVuSans-31"/>
       <use xlink:href="#DejaVuSans-30" x="63.623047"/>
      </g>
     </g>
    </g>
    <g id="xtick_4">
     <g id="line2d_4">
      <g>
       <use xlink:href="#maf76146961" x="377.878508" y="387.16" style="stroke: #000000; stroke-width: 0.8"/>
      </g>
     </g>
     <g id="text_4">
      <!-- 15 -->
      <g transform="translate(371.516008 401.758438) scale(0.1 -0.1)">
       <use xlink:href="#DejaVuSans-31"/>
       <use xlink:href="#DejaVuSans-35" x="63.623047"/>
      </g>
     </g>
    </g>
    <g id="xtick_5">
     <g id="line2d_5">
      <g>
       <use xlink:href="#maf76146961" x="485.921344" y="387.16" style="stroke: #000000; stroke-width: 0.8"/>
      </g>
     </g>
     <g id="text_5">
      <!-- 20 -->
      <g transform="translate(479.558844 401.758438) scale(0.1 -0.1)">
       <defs>
        <path id="DejaVuSans-32" d="M 1228 531 
L 3431 531 
L 3431 0 
L 469 0 
L 469 531 
Q 828 903 1448 1529 
Q 2069 2156 2228 2338 
Q 2531 2678 2651 2914 
Q 2772 3150 2772 3378 
Q 2772 3750 2511 3984 
Q 2250 4219 1831 4219 
Q 1534 4219 1204 4116 
Q 875 4013 500 3803 
L 500 4441 
Q 881 4594 1212 4672 
Q 1544 4750 1819 4750 
Q 2544 4750 2975 4387 
Q 3406 4025 3406 3419 
Q 3406 3131 3298 2873 
Q 3191 2616 2906 2266 
Q 2828 2175 2409 1742 
Q 1991 1309 1228 531 
z
" transform="scale(0.015625)"/>
       </defs>
       <use xlink:href="#DejaVuSans-32"/>
       <use xlink:href="#DejaVuSans-30" x="63.623047"/>
      </g>
     </g>
    </g>
    <g id="xtick_6">
     <g id="line2d_6">
      <g>
       <use xlink:href="#maf76146961" x="593.96418" y="387.16" style="stroke: #000000; stroke-width: 0.8"/>
      </g>
     </g>
     <g id="text_6">
      <!-- 25 -->
      <g transform="translate(587.60168 401.758438) scale(0.1 -0.1)">
       <use xlink:href="#DejaVuSans-32"/>
       <use xlink:href="#DejaVuSans-35" x="63.623047"/>
      </g>
     </g>
    </g>
    <g id="xtick_7">
     <g id="line2d_7">
      <g>
       <use xlink:href="#maf76146961" x="702.007016" y="387.16" style="stroke: #000000; stroke-width: 0.8"/>
      </g>
     </g>
     <g id="text_7">
      <!-- 30 -->
      <g transform="translate(695.644516 401.758438) scale(0.1 -0.1)">
       <defs>
        <path id="DejaVuSans-33" d="M 2597 2516 
Q 3050 2419 3304 2112 
Q 3559 1806 3559 1356 
Q 3559 666 3084 287 
Q 2609 -91 1734 -91 
Q 1441 -91 1130 -33 
Q 819 25 488 141 
L 488 750 
Q 750 597 1062 519 
Q 1375 441 1716 441 
Q 2309 441 2620 675 
Q 2931 909 2931 1356 
Q 2931 1769 2642 2001 
Q 2353 2234 1838 2234 
L 1294 2234 
L 1294 2753 
L 1863 2753 
Q 2328 2753 2575 2939 
Q 2822 3125 2822 3475 
Q 2822 3834 2567 4026 
Q 2313 4219 1838 4219 
Q 1578 4219 1281 4162 
Q 984 4106 628 3988 
L 628 4550 
Q 988 4650 1302 4700 
Q 1616 4750 1894 4750 
Q 2613 4750 3031 4423 
Q 3450 4097 3450 3541 
Q 3450 3153 3228 2886 
Q 3006 2619 2597 2516 
z
" transform="scale(0.015625)"/>
       </defs>
       <use xlink:href="#DejaVuSans-33"/>
       <use xlink:href="#DejaVuSans-30" x="63.623047"/>
      </g>
     </g>
    </g>
    <g id="xtick_8">
     <g id="line2d_8">
      <g>
       <use xlink:href="#maf76146961" x="810.049852" y="387.16" style="stroke: #000000; stroke-width: 0.8"/>
      </g>
     </g>
     <g id="text_8">
      <!-- 35 -->
      <g transform="translate(803.687352 401.758438) scale(0.1 -0.1)">
       <use xlink:href="#DejaVuSans-33"/>
       <use xlink:href="#DejaVuSans-35" x="63.623047"/>
      </g>
     </g>
    </g>
    <g id="text_9">
     <!-- Test duration (Minutes) -->
     <g transform="translate(384.29875 416.95625) scale(0.12 -0.12)">
      <defs>
       <path id="DejaVuSans-54" d="M -19 4666 
L 3928 4666 
L 3928 4134 
L 2272 4134 
L 2272 0 
L 1638 0 
L 1638 4134 
L -19 4134 
L -19 4666 
z
" transform="scale(0.015625)"/>
       <path id="DejaVuSans-65" d="M 3597 1894 
L 3597 1613 
L 953 1613 
Q 991 1019 1311 708 
Q 1631 397 2203 397 
Q 2534 397 2845 478 
Q 3156 559 3463 722 
L 3463 178 
Q 3153 47 2828 -22 
Q 2503 -91 2169 -91 
Q 1331 -91 842 396 
Q 353 884 353 1716 
Q 353 2575 817 3079 
Q 1281 3584 2069 3584 
Q 2775 3584 3186 3129 
Q 3597 2675 3597 1894 
z
M 3022 2063 
Q 3016 2534 2758 2815 
Q 2500 3097 2075 3097 
Q 1594 3097 1305 2825 
Q 1016 2553 972 2059 
L 3022 2063 
z
" transform="scale(0.015625)"/>
       <path id="DejaVuSans-73" d="M 2834 3397 
L 2834 2853 
Q 2591 2978 2328 3040 
Q 2066 3103 1784 3103 
Q 1356 3103 1142 2972 
Q 928 2841 928 2578 
Q 928 2378 1081 2264 
Q 1234 2150 1697 2047 
L 1894 2003 
Q 2506 1872 2764 1633 
Q 3022 1394 3022 966 
Q 3022 478 2636 193 
Q 2250 -91 1575 -91 
Q 1294 -91 989 -36 
Q 684 19 347 128 
L 347 722 
Q 666 556 975 473 
Q 1284 391 1588 391 
Q 1994 391 2212 530 
Q 2431 669 2431 922 
Q 2431 1156 2273 1281 
Q 2116 1406 1581 1522 
L 1381 1569 
Q 847 1681 609 1914 
Q 372 2147 372 2553 
Q 372 3047 722 3315 
Q 1072 3584 1716 3584 
Q 2034 3584 2315 3537 
Q 2597 3491 2834 3397 
z
" transform="scale(0.015625)"/>
       <path id="DejaVuSans-74" d="M 1172 4494 
L 1172 3500 
L 2356 3500 
L 2356 3053 
L 1172 3053 
L 1172 1153 
Q 1172 725 1289 603 
Q 1406 481 1766 481 
L 2356 481 
L 2356 0 
L 1766 0 
Q 1100 0 847 248 
Q 594 497 594 1153 
L 594 3053 
L 172 3053 
L 172 3500 
L 594 3500 
L 594 4494 
L 1172 4494 
z
" transform="scale(0.015625)"/>
       <path id="DejaVuSans-20" transform="scale(0.015625)"/>
       <path id="DejaVuSans-64" d="M 2906 2969 
L 2906 4863 
L 3481 4863 
L 3481 0 
L 2906 0 
L 2906 525 
Q 2725 213 2448 61 
Q 2172 -91 1784 -91 
Q 1150 -91 751 415 
Q 353 922 353 1747 
Q 353 2572 751 3078 
Q 1150 3584 1784 3584 
Q 2172 3584 2448 3432 
Q 2725 3281 2906 2969 
z
M 947 1747 
Q 947 1113 1208 752 
Q 1469 391 1925 391 
Q 2381 391 2643 752 
Q 2906 1113 2906 1747 
Q 2906 2381 2643 2742 
Q 2381 3103 1925 3103 
Q 1469 3103 1208 2742 
Q 947 2381 947 1747 
z
" transform="scale(0.015625)"/>
       <path id="DejaVuSans-75" d="M 544 1381 
L 544 3500 
L 1119 3500 
L 1119 1403 
Q 1119 906 1312 657 
Q 1506 409 1894 409 
Q 2359 409 2629 706 
Q 2900 1003 2900 1516 
L 2900 3500 
L 3475 3500 
L 3475 0 
L 2900 0 
L 2900 538 
Q 2691 219 2414 64 
Q 2138 -91 1772 -91 
Q 1169 -91 856 284 
Q 544 659 544 1381 
z
M 1991 3584 
L 1991 3584 
z
" transform="scale(0.015625)"/>
       <path id="DejaVuSans-72" d="M 2631 2963 
Q 2534 3019 2420 3045 
Q 2306 3072 2169 3072 
Q 1681 3072 1420 2755 
Q 1159 2438 1159 1844 
L 1159 0 
L 581 0 
L 581 3500 
L 1159 3500 
L 1159 2956 
Q 1341 3275 1631 3429 
Q 1922 3584 2338 3584 
Q 2397 3584 2469 3576 
Q 2541 3569 2628 3553 
L 2631 2963 
z
" transform="scale(0.015625)"/>
       <path id="DejaVuSans-61" d="M 2194 1759 
Q 1497 1759 1228 1600 
Q 959 1441 959 1056 
Q 959 750 1161 570 
Q 1363 391 1709 391 
Q 2188 391 2477 730 
Q 2766 1069 2766 1631 
L 2766 1759 
L 2194 1759 
z
M 3341 1997 
L 3341 0 
L 2766 0 
L 2766 531 
Q 2569 213 2275 61 
Q 1981 -91 1556 -91 
Q 1019 -91 701 211 
Q 384 513 384 1019 
Q 384 1609 779 1909 
Q 1175 2209 1959 2209 
L 2766 2209 
L 2766 2266 
Q 2766 2663 2505 2880 
Q 2244 3097 1772 3097 
Q 1472 3097 1187 3025 
Q 903 2953 641 2809 
L 641 3341 
Q 956 3463 1253 3523 
Q 1550 3584 1831 3584 
Q 2591 3584 2966 3190 
Q 3341 2797 3341 1997 
z
" transform="scale(0.015625)"/>
       <path id="DejaVuSans-69" d="M 603 3500 
L 1178 3500 
L 1178 0 
L 603 0 
L 603 3500 
z
M 603 4863 
L 1178 4863 
L 1178 4134 
L 603 4134 
L 603 4863 
z
" transform="scale(0.015625)"/>
       <path id="DejaVuSans-6f" d="M 1959 3097 
Q 1497 3097 1228 2736 
Q 959 2375 959 1747 
Q 959 1119 1226 758 
Q 1494 397 1959 397 
Q 2419 397 2687 759 
Q 2956 1122 2956 1747 
Q 2956 2369 2687 2733 
Q 2419 3097 1959 3097 
z
M 1959 3584 
Q 2709 3584 3137 3096 
Q 3566 2609 3566 1747 
Q 3566 888 3137 398 
Q 2709 -91 1959 -91 
Q 1206 -91 779 398 
Q 353 888 353 1747 
Q 353 2609 779 3096 
Q 1206 3584 1959 3584 
z
" transform="scale(0.015625)"/>
       <path id="DejaVuSans-6e" d="M 3513 2113 
L 3513 0 
L 2938 0 
L 2938 2094 
Q 2938 2591 2744 2837 
Q 2550 3084 2163 3084 
Q 1697 3084 1428 2787 
Q 1159 2491 1159 1978 
L 1159 0 
L 581 0 
L 581 3500 
L 1159 3500 
L 1159 2956 
Q 1366 3272 1645 3428 
Q 1925 3584 2291 3584 
Q 2894 3584 3203 3211 
Q 3513 2838 3513 2113 
z
" transform="scale(0.015625)"/>
       <path id="DejaVuSans-28" d="M 1984 4856 
Q 1566 4138 1362 3434 
Q 1159 2731 1159 2009 
Q 1159 1288 1364 580 
Q 1569 -128 1984 -844 
L 1484 -844 
Q 1016 -109 783 600 
Q 550 1309 550 2009 
Q 550 2706 781 3412 
Q 1013 4119 1484 4856 
L 1984 4856 
z
" transform="scale(0.015625)"/>
       <path id="DejaVuSans-4d" d="M 628 4666 
L 1569 4666 
L 2759 1491 
L 3956 4666 
L 4897 4666 
L 4897 0 
L 4281 0 
L 4281 4097 
L 3078 897 
L 2444 897 
L 1241 4097 
L 1241 0 
L 628 0 
L 628 4666 
z
" transform="scale(0.015625)"/>
       <path id="DejaVuSans-29" d="M 513 4856 
L 1013 4856 
Q 1481 4119 1714 3412 
Q 1947 2706 1947 2009 
Q 1947 1309 1714 600 
Q 1481 -109 1013 -844 
L 513 -844 
Q 928 -128 1133 580 
Q 1338 1288 1338 2009 
Q 1338 2731 1133 3434 
Q 928 4138 513 4856 
z
" transform="scale(0.015625)"/>
      </defs>
      <use xlink:href="#DejaVuSans-54"/>
      <use xlink:href="#DejaVuSans-65" x="44.083984"/>
      <use xlink:href="#DejaVuSans-73" x="105.607422"/>
      <use xlink:href="#DejaVuSans-74" x="157.707031"/>
      <use xlink:href="#DejaVuSans-20" x="196.916016"/>
      <use xlink:href="#DejaVuSans-64" x="228.703125"/>
      <use xlink:href="#DejaVuSans-75" x="292.179688"/>
      <use xlink:href="#DejaVuSans-72" x="355.558594"/>
      <use xlink:href="#DejaVuSans-61" x="396.671875"/>
      <use xlink:href="#DejaVuSans-74" x="457.951172"/>
      <use xlink:href="#DejaVuSans-69" x="497.160156"/>
      <use xlink:href="#DejaVuSans-6f" x="524.943359"/>
      <use xlink:href="#DejaVuSans-6e" x="586.125"/>
      <use xlink:href="#DejaVuSans-20" x="649.503906"/>
      <use xlink:href="#DejaVuSans-28" x="681.291016"/>
      <use xlink:href="#DejaVuSans-4d" x="720.304688"/>
      <use xlink:href="#DejaVuSans-69" x="806.583984"/>
      <use xlink:href="#DejaVuSans-6e" x="834.367188"/>
      <use xlink:href="#DejaVuSans-75" x="897.746094"/>
      <use xlink:href="#DejaVuSans-74" x="961.125"/>
      <use xlink:href="#DejaVuSans-65" x="1000.333984"/>
      <use xlink:href="#DejaVuSans-73" x="1061.857422"/>
      <use xlink:href="#DejaVuSans-29" x="1113.957031"/>
     </g>
    </g>
   </g>
   <g id="matplotlib.axis_2">
    <g id="ytick_1">
     <g id="line2d_9">
      <defs>
       <path id="mc154097741" d="M 0 0 
L -3.5 0 
" style="stroke: #000000; stroke-width: 0.8"/>
      </defs>
      <g>
       <use xlink:href="#mc154097741" x="53.75" y="387.16" style="stroke: #000000; stroke-width: 0.8"/>
      </g>
     </g>
     <g id="text_10">
      <!-- 0 -->
      <g transform="translate(40.3875 390.959219) scale(0.1 -0.1)">
       <use xlink:href="#DejaVuSans-30"/>
      </g>
     </g>
    </g>
    <g id="ytick_2">
     <g id="line2d_10">
      <g>
       <use xlink:href="#mc154097741" x="53.75" y="340.801118" style="stroke: #000000; stroke-width: 0.8"/>
      </g>
     </g>
     <g id="text_11">
      <!-- 20 -->
      <g transform="translate(34.025 344.600337) scale(0.1 -0.1)">
       <use xlink:href="#DejaVuSans-32"/>
       <use xlink:href="#DejaVuSans-30" x="63.623047"/>
      </g>
     </g>
    </g>
    <g id="ytick_3">
     <g id="line2d_11">
      <g>
       <use xlink:href="#mc154097741" x="53.75" y="294.442236" style="stroke: #000000; stroke-width: 0.8"/>
      </g>
     </g>
     <g id="text_12">
      <!-- 40 -->
      <g transform="translate(34.025 298.241454) scale(0.1 -0.1)">
       <defs>
        <path id="DejaVuSans-34" d="M 2419 4116 
L 825 1625 
L 2419 1625 
L 2419 4116 
z
M 2253 4666 
L 3047 4666 
L 3047 1625 
L 3713 1625 
L 3713 1100 
L 3047 1100 
L 3047 0 
L 2419 0 
L 2419 1100 
L 313 1100 
L 313 1709 
L 2253 4666 
z
" transform="scale(0.015625)"/>
       </defs>
       <use xlink:href="#DejaVuSans-34"/>
       <use xlink:href="#DejaVuSans-30" x="63.623047"/>
      </g>
     </g>
    </g>
    <g id="ytick_4">
     <g id="line2d_12">
      <g>
       <use xlink:href="#mc154097741" x="53.75" y="248.083354" style="stroke: #000000; stroke-width: 0.8"/>
      </g>
     </g>
     <g id="text_13">
      <!-- 60 -->
      <g transform="translate(34.025 251.882572) scale(0.1 -0.1)">
       <defs>
        <path id="DejaVuSans-36" d="M 2113 2584 
Q 1688 2584 1439 2293 
Q 1191 2003 1191 1497 
Q 1191 994 1439 701 
Q 1688 409 2113 409 
Q 2538 409 2786 701 
Q 3034 994 3034 1497 
Q 3034 2003 2786 2293 
Q 2538 2584 2113 2584 
z
M 3366 4563 
L 3366 3988 
Q 3128 4100 2886 4159 
Q 2644 4219 2406 4219 
Q 1781 4219 1451 3797 
Q 1122 3375 1075 2522 
Q 1259 2794 1537 2939 
Q 1816 3084 2150 3084 
Q 2853 3084 3261 2657 
Q 3669 2231 3669 1497 
Q 3669 778 3244 343 
Q 2819 -91 2113 -91 
Q 1303 -91 875 529 
Q 447 1150 447 2328 
Q 447 3434 972 4092 
Q 1497 4750 2381 4750 
Q 2619 4750 2861 4703 
Q 3103 4656 3366 4563 
z
" transform="scale(0.015625)"/>
       </defs>
       <use xlink:href="#DejaVuSans-36"/>
       <use xlink:href="#DejaVuSans-30" x="63.623047"/>
      </g>
     </g>
    </g>
    <g id="ytick_5">
     <g id="line2d_13">
      <g>
       <use xlink:href="#mc154097741" x="53.75" y="201.724471" style="stroke: #000000; stroke-width: 0.8"/>
      </g>
     </g>
     <g id="text_14">
      <!-- 80 -->
      <g transform="translate(34.025 205.52369) scale(0.1 -0.1)">
       <defs>
        <path id="DejaVuSans-38" d="M 2034 2216 
Q 1584 2216 1326 1975 
Q 1069 1734 1069 1313 
Q 1069 891 1326 650 
Q 1584 409 2034 409 
Q 2484 409 2743 651 
Q 3003 894 3003 1313 
Q 3003 1734 2745 1975 
Q 2488 2216 2034 2216 
z
M 1403 2484 
Q 997 2584 770 2862 
Q 544 3141 544 3541 
Q 544 4100 942 4425 
Q 1341 4750 2034 4750 
Q 2731 4750 3128 4425 
Q 3525 4100 3525 3541 
Q 3525 3141 3298 2862 
Q 3072 2584 2669 2484 
Q 3125 2378 3379 2068 
Q 3634 1759 3634 1313 
Q 3634 634 3220 271 
Q 2806 -91 2034 -91 
Q 1263 -91 848 271 
Q 434 634 434 1313 
Q 434 1759 690 2068 
Q 947 2378 1403 2484 
z
M 1172 3481 
Q 1172 3119 1398 2916 
Q 1625 2713 2034 2713 
Q 2441 2713 2670 2916 
Q 2900 3119 2900 3481 
Q 2900 3844 2670 4047 
Q 2441 4250 2034 4250 
Q 1625 4250 1398 4047 
Q 1172 3844 1172 3481 
z
" transform="scale(0.015625)"/>
       </defs>
       <use xlink:href="#DejaVuSans-38"/>
       <use xlink:href="#DejaVuSans-30" x="63.623047"/>
      </g>
     </g>
    </g>
    <g id="ytick_6">
     <g id="line2d_14">
      <g>
       <use xlink:href="#mc154097741" x="53.75" y="155.365589" style="stroke: #000000; stroke-width: 0.8"/>
      </g>
     </g>
     <g id="text_15">
      <!-- 100 -->
      <g transform="translate(27.6625 159.164808) scale(0.1 -0.1)">
       <use xlink:href="#DejaVuSans-31"/>
       <use xlink:href="#DejaVuSans-30" x="63.623047"/>
       <use xlink:href="#DejaVuSans-30" x="127.246094"/>
      </g>
     </g>
    </g>
    <g id="ytick_7">
     <g id="line2d_15">
      <g>
       <use xlink:href="#mc154097741" x="53.75" y="109.006707" style="stroke: #000000; stroke-width: 0.8"/>
      </g>
     </g>
     <g id="text_16">
      <!-- 120 -->
      <g transform="translate(27.6625 112.805926) scale(0.1 -0.1)">
       <use xlink:href="#DejaVuSans-31"/>
       <use xlink:href="#DejaVuSans-32" x="63.623047"/>
       <use xlink:href="#DejaVuSans-30" x="127.246094"/>
      </g>
     </g>
    </g>
    <g id="ytick_8">
     <g id="line2d_16">
      <g>
       <use xlink:href="#mc154097741" x="53.75" y="62.647825" style="stroke: #000000; stroke-width: 0.8"/>
      </g>
     </g>
     <g id="text_17">
      <!-- 140 -->
      <g transform="translate(27.6625 66.447044) scale(0.1 -0.1)">
       <use xlink:href="#DejaVuSans-31"/>
       <use xlink:href="#DejaVuSans-34" x="63.623047"/>
       <use xlink:href="#DejaVuSans-30" x="127.246094"/>
      </g>
     </g>
    </g>
    <g id="text_18">
     <!-- Power (W) -->
     <g transform="translate(21.166875 238.398125) rotate(-90) scale(0.12 -0.12)">
      <defs>
       <path id="DejaVuSans-50" d="M 1259 4147 
L 1259 2394 
L 2053 2394 
Q 2494 2394 2734 2622 
Q 2975 2850 2975 3272 
Q 2975 3691 2734 3919 
Q 2494 4147 2053 4147 
L 1259 4147 
z
M 628 4666 
L 2053 4666 
Q 2838 4666 3239 4311 
Q 3641 3956 3641 3272 
Q 3641 2581 3239 2228 
Q 2838 1875 2053 1875 
L 1259 1875 
L 1259 0 
L 628 0 
L 628 4666 
z
" transform="scale(0.015625)"/>
       <path id="DejaVuSans-77" d="M 269 3500 
L 844 3500 
L 1563 769 
L 2278 3500 
L 2956 3500 
L 3675 769 
L 4391 3500 
L 4966 3500 
L 4050 0 
L 3372 0 
L 2619 2869 
L 1863 0 
L 1184 0 
L 269 3500 
z
" transform="scale(0.015625)"/>
       <path id="DejaVuSans-57" d="M 213 4666 
L 850 4666 
L 1831 722 
L 2809 4666 
L 3519 4666 
L 4500 722 
L 5478 4666 
L 6119 4666 
L 4947 0 
L 4153 0 
L 3169 4050 
L 2175 0 
L 1381 0 
L 213 4666 
z
" transform="scale(0.015625)"/>
      </defs>
      <use xlink:href="#DejaVuSans-50"/>
      <use xlink:href="#DejaVuSans-6f" x="56.677734"/>
      <use xlink:href="#DejaVuSans-77" x="117.859375"/>
      <use xlink:href="#DejaVuSans-65" x="199.646484"/>
      <use xlink:href="#DejaVuSans-72" x="261.169922"/>
      <use xlink:href="#DejaVuSans-20" x="302.283203"/>
      <use xlink:href="#DejaVuSans-28" x="334.070312"/>
      <use xlink:href="#DejaVuSans-57" x="373.083984"/>
      <use xlink:href="#DejaVuSans-29" x="471.960938"/>
     </g>
    </g>
   </g>
   <g id="line2d_17">
    <path d="M 53.75 387.16 
L 61.69547 387.16 
L 62.432322 357.330377 
L 63.136762 387.16 
L 63.857407 357.040634 
L 64.575532 357.223752 
L 65.294737 346.816183 
L 66.029428 387.16 
L 66.730626 387.16 
L 67.456314 356.57241 
L 68.1784 387.16 
L 70.339617 387.16 
L 71.066385 351.217959 
L 71.80972 338.37423 
L 72.504436 345.177396 
L 73.224001 344.611818 
L 74.167215 345.701252 
L 74.667453 345.042956 
L 75.39026 369.395276 
L 76.108745 371.075786 
L 76.832271 370.547295 
L 77.554358 342.919719 
L 78.277164 366.400493 
L 79.006453 368.672078 
L 79.727099 356.750891 
L 80.456748 368.479688 
L 81.180996 357.960858 
L 81.896959 369.939993 
L 82.62985 360.009921 
L 83.343293 174.84791 
L 84.064659 331.244234 
L 84.788906 363.234181 
L 85.511353 366.036575 
L 86.231638 360.037736 
L 86.953004 170.478585 
L 87.672569 148.854484 
L 88.392855 140.428757 
L 89.108459 114.127046 
L 89.833426 115.063495 
L 90.54939 318.963766 
L 91.272917 194.587522 
L 91.990321 186.613794 
L 92.712047 188.686036 
L 93.437015 190.201971 
L 94.158381 190.593704 
L 94.875425 189.534403 
L 95.599312 189.399963 
L 96.317077 189.977131 
L 97.041324 187.911843 
L 97.758368 213.736058 
L 98.477933 189.467183 
L 99.208303 188.465831 
L 99.926428 189.235389 
L 102.085124 188.556231 
L 102.809371 188.201586 
L 103.532177 188.857564 
L 104.266148 185.466411 
L 104.97563 189.154261 
L 105.696635 189.149625 
L 106.424484 178.832455 
L 107.144049 145.111005 
L 107.864335 327.12293 
L 108.589662 315.452081 
L 109.308147 187.631371 
L 110.033475 315.39645 
L 110.756642 342.908129 
L 111.475487 349.910638 
L 112.202255 361.887455 
L 112.92074 353.334242 
L 113.641745 348.257944 
L 114.365272 348.487421 
L 115.089159 350.548073 
L 115.809805 351.526245 
L 116.542335 349.307973 
L 117.261541 178.271513 
L 117.974983 154.025818 
L 118.69815 187.865484 
L 119.423838 190.227469 
L 120.140882 190.123161 
L 120.870531 142.227482 
L 121.591897 142.653984 
L 122.308582 135.051127 
L 123.038951 143.680833 
L 123.754915 156.014614 
L 124.479882 145.111005 
L 125.199088 92.611889 
L 125.922975 137.853522 
L 126.652984 125.927699 
L 127.371109 121.996466 
L 128.094275 136.499842 
L 128.817082 124.840583 
L 129.535927 124.010759 
L 130.263055 114.062143 
L 130.982981 133.02988 
L 131.702186 111.943542 
L 132.427513 136.970385 
L 133.148519 180.895426 
L 133.869885 172.16373 
L 134.58693 143.07585 
L 135.317299 169.4471 
L 136.040826 112.21706 
L 136.762552 149.239263 
L 138.207085 117.383757 
L 138.930252 128.442669 
L 139.652338 130.987771 
L 140.370823 132.517614 
L 141.091468 127.492311 
L 141.823639 166.551988 
L 142.547166 178.491718 
L 143.26313 180.278853 
L 143.989538 181.71366 
L 144.717386 181.604717 
L 145.435151 181.722932 
L 146.161919 180.909333 
L 146.879683 316.645822 
L 147.600689 312.944066 
L 148.327457 339.417305 
L 149.053505 336.545372 
L 149.781714 339.023255 
L 150.499839 179.163921 
L 151.229488 158.967674 
L 151.959137 145.171271 
L 152.678342 123.523991 
L 153.397548 128.832083 
L 154.846762 115.443638 
L 155.569929 131.367914 
L 156.289494 113.790944 
L 157.015542 127.754239 
L 157.74267 135.222655 
L 158.470519 122.529593 
L 159.187923 125.285629 
L 159.912531 102.641633 
L 160.64218 109.811034 
L 161.364266 229.530529 
L 162.084192 123.804462 
L 162.808799 122.191173 
L 163.524042 114.231353 
L 164.245769 132.091113 
L 164.965694 109.020615 
L 165.684179 109.29645 
L 166.404464 109.363671 
L 167.12403 108.380862 
L 167.848277 125.732992 
L 168.566762 108.751733 
L 169.285247 125.675043 
L 170.008053 107.194075 
L 170.725818 109.004389 
L 171.449345 109.342809 
L 172.164228 109.041476 
L 172.889556 102.866473 
L 173.60732 120.00767 
L 174.332648 154.679478 
L 175.060136 119.755014 
L 175.77718 114.850244 
L 176.501788 109.064656 
L 177.218112 111.746517 
L 177.941278 123.623663 
L 178.658683 120.645105 
L 179.381129 129.62482 
L 180.102855 141.724488 
L 180.825662 122.01501 
L 181.55207 137.144231 
L 182.275957 165.253939 
L 182.995522 180.072556 
L 183.722651 179.349357 
L 184.439335 177.583084 
L 185.162501 175.024073 
L 185.886028 175.992974 
L 188.05985 177.671165 
L 188.784818 177.142674 
L 189.511226 175.515477 
L 190.234392 176.746306 
L 190.951076 176.815844 
L 191.671722 176.734716 
L 193.118776 137.983326 
L 193.840862 126.618447 
L 194.559707 110.332571 
L 195.288996 109.732224 
L 196.002799 112.606474 
L 196.731008 113.429345 
L 197.449853 116.241011 
L 198.17446 114.022738 
L 198.891865 113.654185 
L 199.614671 127.835367 
L 200.335317 110.439197 
L 201.059204 106.123185 
L 201.785612 108.758687 
L 202.509859 110.244489 
L 203.232666 109.627916 
L 203.952231 109.966336 
L 204.676118 146.766017 
L 205.404327 122.467009 
L 206.844898 175.346268 
L 207.566984 176.533055 
L 208.296273 135.512398 
L 209.021601 139.177068 
L 209.740086 102.442289 
L 210.459291 109.15042 
L 211.182818 138.885007 
L 211.900943 109.933885 
L 212.621588 109.171281 
L 213.345475 109.437845 
L 214.073324 115.037998 
L 214.79397 109.428573 
L 215.519657 110.082233 
L 216.241744 112.757141 
L 216.958788 118.700349 
L 217.683395 109.377578 
L 218.4008 108.422585 
L 219.122886 102.426064 
L 219.843171 105.126469 
L 220.57066 109.066974 
L 221.288064 109.053066 
L 222.010151 105.100971 
L 222.736559 109.590829 
L 223.462967 108.679877 
L 224.17785 109.354399 
L 224.902457 111.373328 
L 225.627785 111.52863 
L 226.344109 109.046112 
L 227.065115 109.440163 
L 227.790802 110.237536 
L 228.506046 174.697243 
L 229.227772 172.893883 
L 229.958142 175.626739 
L 230.672305 143.646064 
L 231.395832 125.920745 
L 232.116117 121.108693 
L 232.837123 80.076447 
L 233.553807 121.208365 
L 234.277334 109.843485 
L 235.001581 109.338173 
L 235.728349 116.913215 
L 236.447555 106.227492 
L 237.172162 110.244489 
L 237.891727 111.023319 
L 238.616695 161.939279 
L 239.332298 174.762146 
L 240.057986 144.014617 
L 240.772869 107.706341 
L 241.503239 109.187507 
L 242.221364 110.098459 
L 242.951373 110.174951 
L 243.676341 108.040124 
L 244.399147 196.228626 
L 245.119433 174.117757 
L 245.84404 174.942945 
L 247.287132 174.789961 
L 248.0121 172.747852 
L 248.738508 174.358823 
L 249.465996 179.006301 
L 250.904046 172.036243 
L 252.358663 119.096718 
L 253.078588 123.222658 
L 253.797433 117.362896 
L 254.515198 116.537708 
L 255.245567 121.002068 
L 255.969815 105.103289 
L 256.69082 119.365599 
L 257.412547 123.306104 
L 258.136434 122.64549 
L 258.855279 119.198707 
L 259.574484 130.234439 
L 260.29585 190.053623 
L 261.015055 127.028723 
L 261.741103 133.196772 
L 262.454546 121.245452 
L 263.176272 128.686053 
L 263.900519 132.441122 
L 264.623325 118.049007 
L 265.354415 142.786107 
L 266.070739 118.68876 
L 267.523555 133.808709 
L 268.247082 123.802144 
L 268.969529 141.260899 
L 269.695937 142.781471 
L 270.418743 123.303786 
L 271.858954 123.044177 
L 272.587523 131.02254 
L 273.305288 128.718504 
L 274.024853 132.821265 
L 274.746939 131.84541 
L 275.466144 124.441897 
L 276.18751 125.54292 
L 276.907436 122.603767 
L 277.62484 125.88134 
L 278.348727 127.64066 
L 279.069013 119.479179 
L 279.787498 126.419103 
L 280.512825 118.27153 
L 281.240314 122.638536 
L 281.964921 118.134771 
L 282.685927 127.754239 
L 283.409454 127.536352 
L 284.13262 124.281959 
L 284.855427 115.367146 
L 285.572471 126.21976 
L 286.297079 128.799632 
L 287.020966 123.973672 
L 287.741611 147.419677 
L 288.462977 133.171274 
L 289.184343 125.278675 
L 289.910391 147.440538 
L 290.632838 127.661521 
L 291.353843 126.81779 
L 292.07737 147.568025 
L 292.799457 125.918427 
L 293.520462 140.187691 
L 294.237147 141.511237 
L 294.962474 134.066001 
L 295.680239 129.066195 
L 297.128733 128.020803 
L 297.842896 136.312089 
L 298.564982 152.727769 
L 299.285268 121.961697 
L 300.010596 125.023701 
L 300.730521 179.89871 
L 301.463772 147.11139 
L 302.176854 141.928467 
L 302.899301 135.347824 
L 303.620667 132.888485 
L 304.338431 144.784174 
L 305.067721 122.902782 
L 305.785125 139.881723 
L 306.506491 135.164706 
L 307.231098 142.102313 
L 307.950664 125.093239 
L 308.674911 152.148283 
L 309.407441 121.806395 
L 310.123045 139.42277 
L 310.851974 134.297795 
L 311.567578 121.648774 
L 312.292905 134.001098 
L 313.014991 135.989895 
L 313.745361 122.116999 
L 314.467807 134.249119 
L 315.195656 128.829765 
L 315.917022 132.021574 
L 316.636227 175.235006 
L 317.360114 166.568213 
L 318.08076 169.95473 
L 318.805727 174.711151 
L 319.523132 172.618047 
L 320.239456 173.454825 
L 320.968025 173.250846 
L 321.695513 173.290251 
L 322.415438 173.779337 
L 323.137525 173.116405 
L 323.85637 173.927686 
L 324.587099 173.723707 
L 325.305584 173.083954 
L 326.028031 173.26939 
L 326.7566 174.75751 
L 327.471123 172.60414 
L 328.193929 173.867419 
L 328.918537 174.616115 
L 330.357667 178.037401 
L 331.077953 173.466415 
L 331.803641 169.688166 
L 332.519605 138.938319 
L 333.242051 123.016361 
L 333.964137 112.583295 
L 334.682622 109.632552 
L 335.405429 109.104061 
L 336.123193 111.758107 
L 336.841318 116.975799 
L 337.565565 109.766993 
L 338.285851 109.069292 
L 339.005056 111.602805 
L 339.727862 111.69784 
L 340.45427 122.235214 
L 341.178157 109.667321 
L 341.899163 109.954746 
L 342.620889 149.241581 
L 343.348738 113.223048 
L 344.074786 128.669827 
L 344.798313 126.465462 
L 345.521479 112.147521 
L 346.246807 110.668673 
L 346.974295 115.241977 
L 347.694941 113.350534 
L 348.414506 117.481111 
L 349.133351 113.890615 
L 349.855438 111.408097 
L 350.580405 109.697455 
L 351.295649 131.168571 
L 352.015214 141.629453 
L 352.739821 135.007086 
L 353.454345 127.355553 
L 354.17463 139.921128 
L 354.898157 111.081267 
L 356.336567 128.122792 
L 357.062255 134.770656 
L 357.785062 136.460437 
L 358.506428 137.070056 
L 359.224912 115.003229 
L 359.945558 106.540415 
L 360.668005 123.862411 
L 361.394413 133.678904 
L 362.12046 133.363664 
L 362.838225 164.630412 
L 363.570035 130.361926 
L 364.286359 123.14153 
L 365.005204 122.288527 
L 365.728011 135.009404 
L 366.451177 119.384143 
L 367.165701 116.66983 
L 367.887427 116.159883 
L 368.614195 126.595267 
L 369.337002 138.912822 
L 370.061969 124.163744 
L 370.783335 135.438224 
L 371.506502 137.181318 
L 372.229668 130.259937 
L 372.955356 131.734149 
L 373.673841 126.069094 
L 374.397008 132.663645 
L 375.118734 134.25839 
L 375.84046 143.342413 
L 376.558225 138.956863 
L 377.282472 129.453292 
L 377.996635 124.446533 
L 378.717641 128.642012 
L 379.443328 134.355744 
L 380.161093 118.123181 
L 380.882819 130.394377 
L 381.600944 131.578847 
L 382.324471 130.208942 
L 383.042235 117.907613 
L 383.763601 129.835753 
L 384.481726 104.570162 
L 385.923017 128.648966 
L 386.644744 150.840962 
L 387.364309 136.597196 
L 388.088196 132.631194 
L 388.810642 133.291808 
L 389.530928 103.00555 
L 390.249053 131.516262 
L 390.977982 126.859513 
L 391.696827 147.118344 
L 392.421794 124.710779 
L 393.138838 126.518775 
L 393.861645 122.752116 
L 394.583371 125.072378 
L 395.302936 123.765057 
L 396.027904 129.654953 
L 396.743147 124.052482 
L 397.461632 127.552578 
L 398.18804 115.661525 
L 398.916249 111.767379 
L 399.638695 112.432629 
L 400.354659 131.852364 
L 401.081788 133.076239 
L 401.802073 127.668475 
L 402.522359 132.427214 
L 403.245886 140.618829 
L 403.966531 122.615357 
L 404.683215 130.072183 
L 405.404581 199.756537 
L 406.125947 201.685066 
L 406.841911 202.839403 
L 408.284643 202.823177 
L 409.013212 201.564533 
L 409.73998 202.456942 
L 411.189195 202.524162 
L 411.90948 202.915895 
L 413.357615 202.915895 
L 414.075739 206.821631 
L 414.794944 202.997023 
L 415.524594 200.317479 
L 416.2456 202.596018 
L 416.970207 187.420438 
L 417.693013 155.889445 
L 418.418341 152.906251 
L 419.138627 132.765634 
L 419.867195 137.707491 
L 420.58604 126.583677 
L 421.306686 133.565325 
L 422.028052 152.27577 
L 422.749778 133.817981 
L 423.467183 142.616897 
L 424.19107 139.318462 
L 424.911355 131.467586 
L 425.62876 138.034321 
L 426.350126 132.077205 
L 427.077254 105.107925 
L 427.804022 131.418909 
L 428.525748 133.291808 
L 429.246394 121.908384 
L 429.96704 127.789008 
L 430.687685 123.58194 
L 431.414093 133.532874 
L 432.133659 132.614968 
L 432.856465 125.443249 
L 433.585394 129.172821 
L 434.30676 150.901229 
L 435.025605 129.617866 
L 435.74301 140.625783 
L 436.467977 132.225553 
L 437.196546 138.398238 
L 437.91287 130.102316 
L 438.636757 128.421807 
L 439.35128 114.569773 
L 440.072646 136.013074 
L 440.794372 144.283499 
L 441.516819 124.444215 
L 442.234223 156.142101 
L 442.961352 132.784178 
L 443.684158 141.186725 
L 444.402643 117.043019 
L 445.118607 131.571893 
L 445.844295 124.240236 
L 446.567101 132.369266 
L 448.011994 117.237727 
L 448.739843 117.41389 
L 449.456887 119.877865 
L 450.177893 117.710587 
L 451.619184 140.011528 
L 452.345952 142.881142 
L 453.066598 134.967681 
L 453.790485 139.480718 
L 454.514732 141.951647 
L 455.233937 338.313964 
L 455.953503 173.392241 
L 456.671627 175.33236 
L 457.394434 171.030256 
L 458.117601 173.090908 
L 458.845449 172.694539 
L 459.563934 173.936958 
L 460.281339 171.985249 
L 461.002344 172.842888 
L 461.729113 171.913392 
L 462.449398 175.15156 
L 463.177247 174.217429 
L 463.893931 176.528419 
L 465.342425 176.609547 
L 466.066672 177.506591 
L 466.789119 171.99452 
L 467.515527 174.219747 
L 468.239054 173.169718 
L 468.9615 174.583664 
L 469.685747 174.759828 
L 470.410354 143.40268 
L 471.128479 130.528818 
L 471.86173 122.712711 
L 472.584176 124.676009 
L 474.023307 113.957836 
L 474.746113 116.329093 
L 475.466039 122.615357 
L 476.191006 124.796542 
L 476.904809 131.641431 
L 477.622214 117.506608 
L 478.347541 115.877094 
L 479.069267 122.504096 
L 479.786672 111.129944 
L 480.508758 108.109663 
L 481.226163 111.820691 
L 481.948969 119.676204 
L 482.668174 119.022544 
L 483.398544 117.100968 
L 484.112347 113.823395 
L 484.839115 116.980435 
L 485.553638 118.371201 
L 486.276445 112.12666 
L 486.998531 113.730677 
L 488.441623 112.469716 
L 489.160828 121.377575 
L 489.880394 115.76815 
L 490.598879 124.421035 
L 491.317363 127.311512 
L 492.03945 133.507376 
L 492.761176 122.112363 
L 493.485063 139.631385 
L 494.21039 126.597585 
L 494.932837 135.60048 
L 495.662486 331.700869 
L 496.374488 163.436671 
L 497.107019 161.23926 
L 497.823343 146.46932 
L 498.544349 128.29432 
L 499.269676 134.902779 
L 499.98636 111.39419 
L 500.714209 127.149256 
L 501.430893 136.877667 
L 502.15478 121.790169 
L 502.875426 113.11874 
L 503.600033 116.454262 
L 504.319238 153.309573 
L 505.044566 127.355553 
L 505.76197 131.453678 
L 506.481175 138.453869 
L 507.204342 121.938517 
L 507.93075 119.933496 
L 508.653197 120.471259 
L 509.369161 136.796539 
L 510.102051 130.371198 
L 510.820896 133.704402 
L 511.542982 137.721399 
L 512.272632 137.751532 
L 512.997599 145.806388 
L 513.714283 133.880565 
L 514.440331 140.950295 
L 515.157375 134.615354 
L 515.878021 134.615354 
L 516.603709 142.691071 
L 517.318592 113.916113 
L 518.042119 141.573822 
L 518.760964 143.530167 
L 519.477648 142.062908 
L 520.196493 137.192908 
L 520.91858 138.908186 
L 521.641746 139.534031 
L 522.359871 136.212417 
L 523.079796 136.057115 
L 523.800442 133.736853 
L 524.519647 107.3007 
L 525.250377 132.937162 
L 525.96526 149.417745 
L 526.692749 176.871475 
L 527.416996 153.573819 
L 528.143764 157.361339 
L 528.869812 152.164509 
L 529.59622 153.476465 
L 530.320827 148.754813 
L 531.050116 148.625008 
L 531.769322 150.727383 
L 532.489607 148.19387 
L 533.208452 157.602405 
L 533.926577 144.531519 
L 534.655506 148.314403 
L 535.378673 147.517031 
L 536.104 146.993175 
L 536.828968 143.62752 
L 537.550334 143.537121 
L 538.2735 144.267273 
L 538.995587 145.196769 
L 539.720194 145.609363 
L 540.443 144.844441 
L 541.165447 142.600671 
L 541.892215 141.047649 
L 542.614301 145.361343 
L 543.34143 166.215886 
L 544.060635 178.586753 
L 544.778759 178.102303 
L 545.501926 176.254902 
L 546.21753 308.356854 
L 546.941057 178.551984 
L 548.385589 140.723136 
L 549.099392 141.258581 
L 550.549327 130.519546 
L 551.270333 127.320784 
L 551.99386 130.150993 
L 552.717027 109.991833 
L 553.434071 113.132648 
L 554.156878 125.624048 
L 554.876803 119.824552 
L 555.60069 174.59989 
L 556.326378 335.152288 
L 557.053866 358.602929 
L 557.77019 335.455939 
L 558.494797 353.807102 
L 559.223006 348.452651 
L 559.946173 348.130457 
L 560.664658 192.962643 
L 561.388905 165.745343 
L 562.111711 161.447875 
L 562.835238 121.410026 
L 563.559846 128.380084 
L 564.284453 127.339327 
L 565.005099 120.276551 
L 565.722503 148.247183 
L 566.44639 218.643145 
L 567.170997 164.291992 
L 567.893084 150.393599 
L 568.609408 123.0859 
L 569.333655 146.573627 
L 570.055381 151.615156 
L 570.781429 130.378152 
L 571.509998 138.989314 
L 572.233885 206.070617 
L 572.958492 207.190184 
L 573.678778 208.527637 
L 574.400864 209.02136 
L 575.12331 143.347049 
L 575.846477 149.656493 
L 576.569644 127.195615 
L 577.294611 207.23886 
L 578.009855 203.567237 
L 578.734102 331.881669 
L 579.458709 358.072119 
L 580.185117 354.831634 
L 580.904322 348.387749 
L 581.623527 343.072703 
L 582.348855 355.380986 
L 583.069861 178.512579 
L 583.796989 147.027944 
L 584.517275 138.555859 
L 585.248004 148.548516 
L 586.692537 175.619785 
L 587.413183 166.401321 
L 588.133108 144.63119 
L 588.859516 166.025814 
L 589.5762 171.551793 
L 590.302248 188.818159 
L 591.751823 140.431075 
L 592.467427 130.494049 
L 593.192754 136.483617 
L 593.917001 145.254717 
L 594.64485 133.989509 
L 595.370178 140.375445 
L 596.087942 138.168762 
L 596.816151 134.94682 
L 597.542919 130.29007 
L 598.258883 134.154083 
L 598.98241 134.524954 
L 599.707737 136.859124 
L 600.425862 146.761381 
L 601.154071 132.92789 
L 601.873636 132.60106 
L 602.595362 128.094977 
L 603.314567 125.992602 
L 604.035213 142.113903 
L 604.753338 127.04263 
L 605.476865 135.744192 
L 606.19571 133.637181 
L 606.915275 138.759838 
L 607.643844 135.470675 
L 608.36629 151.320777 
L 609.09666 149.401519 
L 609.812263 136.979657 
L 610.537951 135.581936 
L 611.263639 135.461403 
L 611.981043 135.665382 
L 612.70421 136.337586 
L 613.421614 127.434363 
L 614.150183 129.469518 
L 616.315722 126.919779 
L 617.031686 127.897952 
L 617.751611 138.623079 
L 618.476939 135.044173 
L 619.200826 146.617668 
L 619.925073 134.040504 
L 621.378609 128.011531 
L 622.101776 133.588504 
L 622.824582 128.957252 
L 623.553151 128.871488 
L 624.278119 133.829571 
L 624.999125 140.127425 
L 626.435374 126.532683 
L 627.162502 139.054217 
L 627.885669 142.157944 
L 628.617119 140.961885 
L 629.340646 185.176668 
L 630.065973 145.393794 
L 630.792021 157.254714 
L 631.515908 150.050543 
L 632.234753 129.177457 
L 632.953958 151.983709 
L 633.680366 327.016304 
L 634.398131 153.444014 
L 635.125259 143.583479 
L 635.846625 186.078349 
L 636.569432 117.770854 
L 637.292238 117.355942 
L 638.017566 126.789974 
L 638.750817 169.523592 
L 639.463179 161.255485 
L 640.181664 201.235385 
L 640.905551 200.586361 
L 641.626197 211.680041 
L 642.344322 199.682363 
L 643.07217 199.712496 
L 643.793896 198.750549 
L 644.521385 204.318251 
L 645.243471 205.212977 
L 645.963757 203.669227 
L 646.681521 203.833801 
L 647.405408 205.041449 
L 648.133617 174.386639 
L 648.864347 149.751529 
L 649.583552 169.321931 
L 650.301676 247.334658 
L 651.021602 203.894067 
L 651.741167 202.000307 
L 652.460732 324.487427 
L 653.18678 200.375428 
L 653.913548 301.456335 
L 654.629152 176.419476 
L 655.353039 167.11293 
L 656.070083 122.921326 
L 656.791089 116.092662 
L 657.512815 117.979469 
L 658.235622 125.911474 
L 658.959869 125.494244 
L 659.678714 124.64124 
L 660.39972 129.756943 
L 661.113523 130.440736 
L 661.839571 121.324262 
L 662.559136 121.579236 
L 663.280502 131.933492 
L 663.998987 130.463916 
L 664.723594 132.415625 
L 665.449282 254.362664 
L 666.169207 332.414796 
L 666.891654 202.929802 
L 667.609779 195.218002 
L 668.336547 148.886936 
L 669.056472 122.56668 
L 669.785761 141.323484 
L 670.501725 125.276357 
L 671.225972 137.243902 
L 671.950219 145.173589 
L 672.669425 144.285816 
L 673.397273 206.003396 
L 674.12044 206.471621 
L 675.562091 203.472201 
L 676.280576 207.271312 
L 677.001582 206.710369 
L 677.72871 206.786861 
L 678.450437 207.561055 
L 679.172523 207.438204 
L 679.89713 208.124315 
L 680.625339 206.870307 
L 682.068791 207.26204 
L 682.789437 206.487847 
L 683.515845 207.266676 
L 684.241893 151.626745 
L 684.958217 150.217435 
L 685.677062 152.648959 
L 686.397707 146.079905 
L 687.120514 135.695516 
L 687.84224 135.007086 
L 688.57261 202.841721 
L 689.295776 205.196752 
L 690.021464 215.759623 
L 690.738148 201.191344 
L 691.459514 319.105161 
L 692.17944 339.667643 
L 692.902967 178.677153 
L 693.627934 175.999928 
L 694.347499 144.911661 
L 695.065624 134.958409 
L 695.784829 138.268434 
L 696.513398 137.389933 
L 697.239806 139.842318 
L 697.960092 150.113128 
L 698.681097 165.833425 
L 699.403544 136.381627 
L 700.12635 129.14037 
L 700.844115 128.333725 
L 701.570523 136.845216 
L 702.290088 132.515296 
L 703.016857 123.769693 
L 703.740383 135.148481 
L 704.46391 123.394186 
L 705.183836 120.811997 
L 705.904842 128.973478 
L 706.629809 132.779542 
L 707.349734 109.412347 
L 708.073261 121.488836 
L 708.799669 110.643176 
L 709.517074 114.743619 
L 710.241681 117.858936 
L 710.963047 115.478407 
L 711.682252 122.267665 
L 712.406859 130.378152 
L 713.129306 122.752116 
L 713.852473 170.218975 
L 714.571678 121.289493 
L 715.293404 120.846766 
L 716.011168 114.852562 
L 716.727492 118.702667 
L 717.454981 125.524377 
L 718.175987 115.144623 
L 718.901674 208.103454 
L 719.628082 202.978479 
L 720.348008 160.110421 
L 721.066493 147.918035 
L 721.793621 149.909149 
L 723.239954 133.734535 
L 723.966002 130.53809 
L 724.688449 126.106181 
L 725.415577 149.019058 
L 726.141265 125.672725 
L 726.86011 130.271526 
L 727.587598 130.494049 
L 728.306083 183.980609 
L 729.023848 129.191364 
L 729.747014 142.966906 
L 730.469821 142.011913 
L 731.187946 121.706723 
L 731.912193 125.568418 
L 732.640762 128.595653 
L 733.362128 119.235795 
L 734.083854 135.41968 
L 734.810262 138.676392 
L 735.530547 131.513944 
L 736.250113 130.691074 
L 736.968597 131.059627 
L 738.41169 135.76969 
L 739.135577 130.487095 
L 739.859464 147.034898 
L 740.583711 138.827058 
L 741.303276 134.562041 
L 742.026083 120.726233 
L 742.745288 118.33875 
L 743.474937 112.740915 
L 744.193422 125.2949 
L 744.915868 128.871488 
L 745.634353 134.93523 
L 746.3586 125.714448 
L 747.081047 126.161812 
L 747.798811 132.311317 
L 748.523419 117.845028 
L 749.250187 132.098066 
L 749.971193 136.611104 
L 750.69724 132.102702 
L 751.415725 150.720429 
L 752.13421 135.199476 
L 752.856657 135.289875 
L 753.580544 159.157746 
L 754.30227 133.34512 
L 755.019314 69.172838 
L 755.74176 125.08165 
L 756.458084 133.556053 
L 757.183052 127.292968 
L 757.899016 143.551028 
L 758.629385 124.863763 
L 759.34751 135.753464 
L 760.065995 127.647614 
L 760.786641 132.696096 
L 761.503325 121.98024 
L 762.227572 169.549089 
L 762.95434 135.637567 
L 763.673905 135.818367 
L 764.396712 142.21821 
L 765.127082 134.85642 
L 765.846647 132.603378 
L 766.573415 161.440921 
L 767.29226 132.485163 
L 768.017588 147.215698 
L 768.737153 126.954548 
L 769.462841 130.487095 
L 770.186007 125.364439 
L 770.907373 126.335657 
L 771.62982 92.741693 
L 772.350105 124.710779 
L 773.069671 144.672913 
L 773.791037 130.964592 
L 775.23773 135.554121 
L 775.955495 140.083384 
L 776.67542 135.28524 
L 777.401468 141.189043 
L 778.117072 139.239652 
L 778.840238 136.325996 
L 779.556202 129.20759 
L 780.28189 92.062536 
L 780.998214 120.958027 
L 781.723542 109.111015 
L 782.441666 117.66191 
L 783.159431 132.343768 
L 783.880437 124.99125 
L 784.601803 122.075276 
L 785.32533 134.534226 
L 786.048136 136.455801 
L 786.775625 151.021762 
L 787.500592 147.030262 
L 788.223759 158.847141 
L 788.940443 125.283311 
L 789.660008 115.877094 
L 790.384255 116.767184 
L 791.108863 118.389745 
L 791.825907 109.72527 
L 792.551234 131.836139 
L 793.2708 130.099999 
L 793.990725 136.780313 
L 794.721455 134.541179 
L 795.44138 133.780894 
L 796.892756 128.266505 
L 797.61016 129.279446 
L 798.332246 129.548328 
L 799.060095 122.538865 
L 799.783262 129.956286 
L 800.506068 147.6422 
L 801.231756 142.259933 
L 801.94916 125.596233 
L 802.673408 124.474348 
L 803.396214 138.493274 
L 804.111818 133.994145 
L 804.838586 132.302045 
L 805.557431 122.40906 
L 806.280958 128.669827 
L 807.004485 129.411569 
L 807.722609 131.548714 
L 808.450098 131.458314 
L 809.170023 133.760032 
L 809.89211 136.462755 
L 810.62356 140.75327 
L 811.344205 127.158527 
L 812.073134 134.601446 
L 812.801703 135.454449 
L 813.518747 142.137082 
L 814.242995 134.066001 
L 814.96328 132.130518 
L 815.682485 132.760998 
L 816.403131 129.615548 
L 817.127378 135.296829 
L 818.577673 133.989509 
L 819.30084 133.945468 
L 820.022926 134.705753 
L 820.754376 134.392831 
L 821.46998 134.314021 
L 822.193147 133.104054 
L 822.919194 136.015392 
L 823.645242 136.080294 
L 824.366968 138.681028 
L 825.094097 138.449233 
L 825.816903 145.231538 
L 826.543311 137.422384 
L 827.266838 139.680062 
L 827.989645 150.502543 
L 828.70849 140.848305 
L 829.434538 135.943536 
L 830.155904 136.539247 
L 830.874389 135.452131 
L 831.596115 131.490765 
L 832.3164 134.184216 
L 833.035966 135.185568 
L 833.75337 134.230575 
L 834.475816 130.983135 
L 835.203665 131.843093 
L 835.92215 131.952036 
L 836.640635 132.818947 
L 837.363801 130.361926 
L 838.086248 131.567257 
L 838.816257 60.941818 
L 839.541585 126.560498 
L 840.978555 129.78244 
L 841.703162 128.516843 
L 842.420206 127.566486 
L 843.143733 129.671179 
L 843.862578 130.443054 
L 844.582503 129.942378 
L 845.299908 105.566878 
L 846.024155 134.37197 
L 846.740839 151.935032 
L 847.467247 202.686418 
L 848.194375 213.845001 
L 848.910699 201.803282 
L 849.636387 330.94522 
L 850.365676 348.438744 
L 851.092444 348.816569 
L 851.809849 351.016298 
L 852.528334 350.930534 
L 853.252581 338.005677 
L 853.252581 338.005677 
" clip-path="url(#pc16c59992b)" style="fill: none; stroke: #e74c3c; stroke-width: 2; stroke-linecap: square"/>
   </g>
   <g id="patch_3">
    <path d="M 53.75 387.16 
L 53.75 28.32 
" style="fill: none; stroke: #000000; stroke-width: 0.8; stroke-linejoin: miter; stroke-linecap: square"/>
   </g>
   <g id="patch_4">
    <path d="M 853.2 387.16 
L 853.2 28.32 
" style="fill: none; stroke: #000000; stroke-width: 0.8; stroke-linejoin: miter; stroke-linecap: square"/>
   </g>
   <g id="patch_5">
    <path d="M 53.75 387.16 
L 853.2 387.16 
" style="fill: none; stroke: #000000; stroke-width: 0.8; stroke-linejoin: miter; stroke-linecap: square"/>
   </g>
   <g id="patch_6">
    <path d="M 53.75 28.32 
L 853.2 28.32 
" style="fill: none; stroke: #000000; stroke-width: 0.8; stroke-linejoin: miter; stroke-linecap: square"/>
   </g>
   <g id="text_19">
    <!-- GPU power over time -->
    <g transform="translate(357.7975 22.32) scale(0.16 -0.16)">
     <defs>
      <path id="DejaVuSans-Bold-47" d="M 4781 347 
Q 4331 128 3847 18 
Q 3363 -91 2847 -91 
Q 1681 -91 1000 561 
Q 319 1213 319 2328 
Q 319 3456 1012 4103 
Q 1706 4750 2913 4750 
Q 3378 4750 3804 4662 
Q 4231 4575 4609 4403 
L 4609 3438 
Q 4219 3659 3833 3768 
Q 3447 3878 3059 3878 
Q 2341 3878 1952 3476 
Q 1563 3075 1563 2328 
Q 1563 1588 1938 1184 
Q 2313 781 3003 781 
Q 3191 781 3352 804 
Q 3513 828 3641 878 
L 3641 1784 
L 2906 1784 
L 2906 2591 
L 4781 2591 
L 4781 347 
z
" transform="scale(0.015625)"/>
      <path id="DejaVuSans-Bold-50" d="M 588 4666 
L 2584 4666 
Q 3475 4666 3951 4270 
Q 4428 3875 4428 3144 
Q 4428 2409 3951 2014 
Q 3475 1619 2584 1619 
L 1791 1619 
L 1791 0 
L 588 0 
L 588 4666 
z
M 1791 3794 
L 1791 2491 
L 2456 2491 
Q 2806 2491 2997 2661 
Q 3188 2831 3188 3144 
Q 3188 3456 2997 3625 
Q 2806 3794 2456 3794 
L 1791 3794 
z
" transform="scale(0.015625)"/>
      <path id="DejaVuSans-Bold-55" d="M 588 4666 
L 1791 4666 
L 1791 1869 
Q 1791 1291 1980 1042 
Q 2169 794 2597 794 
Q 3028 794 3217 1042 
Q 3406 1291 3406 1869 
L 3406 4666 
L 4609 4666 
L 4609 1869 
Q 4609 878 4112 393 
Q 3616 -91 2597 -91 
Q 1581 -91 1084 393 
Q 588 878 588 1869 
L 588 4666 
z
" transform="scale(0.015625)"/>
      <path id="DejaVuSans-Bold-20" transform="scale(0.015625)"/>
      <path id="DejaVuSans-Bold-70" d="M 1656 506 
L 1656 -1331 
L 538 -1331 
L 538 3500 
L 1656 3500 
L 1656 2988 
Q 1888 3294 2169 3439 
Q 2450 3584 2816 3584 
Q 3463 3584 3878 3070 
Q 4294 2556 4294 1747 
Q 4294 938 3878 423 
Q 3463 -91 2816 -91 
Q 2450 -91 2169 54 
Q 1888 200 1656 506 
z
M 2400 2772 
Q 2041 2772 1848 2508 
Q 1656 2244 1656 1747 
Q 1656 1250 1848 986 
Q 2041 722 2400 722 
Q 2759 722 2948 984 
Q 3138 1247 3138 1747 
Q 3138 2247 2948 2509 
Q 2759 2772 2400 2772 
z
" transform="scale(0.015625)"/>
      <path id="DejaVuSans-Bold-6f" d="M 2203 2784 
Q 1831 2784 1636 2517 
Q 1441 2250 1441 1747 
Q 1441 1244 1636 976 
Q 1831 709 2203 709 
Q 2569 709 2762 976 
Q 2956 1244 2956 1747 
Q 2956 2250 2762 2517 
Q 2569 2784 2203 2784 
z
M 2203 3584 
Q 3106 3584 3614 3096 
Q 4122 2609 4122 1747 
Q 4122 884 3614 396 
Q 3106 -91 2203 -91 
Q 1297 -91 786 396 
Q 275 884 275 1747 
Q 275 2609 786 3096 
Q 1297 3584 2203 3584 
z
" transform="scale(0.015625)"/>
      <path id="DejaVuSans-Bold-77" d="M 225 3500 
L 1313 3500 
L 1900 1088 
L 2491 3500 
L 3425 3500 
L 4013 1113 
L 4603 3500 
L 5691 3500 
L 4769 0 
L 3547 0 
L 2956 2406 
L 2369 0 
L 1147 0 
L 225 3500 
z
" transform="scale(0.015625)"/>
      <path id="DejaVuSans-Bold-65" d="M 4031 1759 
L 4031 1441 
L 1416 1441 
Q 1456 1047 1700 850 
Q 1944 653 2381 653 
Q 2734 653 3104 758 
Q 3475 863 3866 1075 
L 3866 213 
Q 3469 63 3072 -14 
Q 2675 -91 2278 -91 
Q 1328 -91 801 392 
Q 275 875 275 1747 
Q 275 2603 792 3093 
Q 1309 3584 2216 3584 
Q 3041 3584 3536 3087 
Q 4031 2591 4031 1759 
z
M 2881 2131 
Q 2881 2450 2695 2645 
Q 2509 2841 2209 2841 
Q 1884 2841 1681 2658 
Q 1478 2475 1428 2131 
L 2881 2131 
z
" transform="scale(0.015625)"/>
      <path id="DejaVuSans-Bold-72" d="M 3138 2547 
Q 2991 2616 2845 2648 
Q 2700 2681 2553 2681 
Q 2122 2681 1889 2404 
Q 1656 2128 1656 1613 
L 1656 0 
L 538 0 
L 538 3500 
L 1656 3500 
L 1656 2925 
Q 1872 3269 2151 3426 
Q 2431 3584 2822 3584 
Q 2878 3584 2943 3579 
Q 3009 3575 3134 3559 
L 3138 2547 
z
" transform="scale(0.015625)"/>
      <path id="DejaVuSans-Bold-76" d="M 97 3500 
L 1216 3500 
L 2088 1081 
L 2956 3500 
L 4078 3500 
L 2700 0 
L 1472 0 
L 97 3500 
z
" transform="scale(0.015625)"/>
      <path id="DejaVuSans-Bold-74" d="M 1759 4494 
L 1759 3500 
L 2913 3500 
L 2913 2700 
L 1759 2700 
L 1759 1216 
Q 1759 972 1856 886 
Q 1953 800 2241 800 
L 2816 800 
L 2816 0 
L 1856 0 
Q 1194 0 917 276 
Q 641 553 641 1216 
L 641 2700 
L 84 2700 
L 84 3500 
L 641 3500 
L 641 4494 
L 1759 4494 
z
" transform="scale(0.015625)"/>
      <path id="DejaVuSans-Bold-69" d="M 538 3500 
L 1656 3500 
L 1656 0 
L 538 0 
L 538 3500 
z
M 538 4863 
L 1656 4863 
L 1656 3950 
L 538 3950 
L 538 4863 
z
" transform="scale(0.015625)"/>
      <path id="DejaVuSans-Bold-6d" d="M 3781 2919 
Q 3994 3244 4286 3414 
Q 4578 3584 4928 3584 
Q 5531 3584 5847 3212 
Q 6163 2841 6163 2131 
L 6163 0 
L 5038 0 
L 5038 1825 
Q 5041 1866 5042 1909 
Q 5044 1953 5044 2034 
Q 5044 2406 4934 2573 
Q 4825 2741 4581 2741 
Q 4263 2741 4089 2478 
Q 3916 2216 3909 1719 
L 3909 0 
L 2784 0 
L 2784 1825 
Q 2784 2406 2684 2573 
Q 2584 2741 2328 2741 
Q 2006 2741 1831 2477 
Q 1656 2213 1656 1722 
L 1656 0 
L 531 0 
L 531 3500 
L 1656 3500 
L 1656 2988 
Q 1863 3284 2130 3434 
Q 2397 3584 2719 3584 
Q 3081 3584 3359 3409 
Q 3638 3234 3781 2919 
z
" transform="scale(0.015625)"/>
     </defs>
     <use xlink:href="#DejaVuSans-Bold-47"/>
     <use xlink:href="#DejaVuSans-Bold-50" x="82.080078"/>
     <use xlink:href="#DejaVuSans-Bold-55" x="155.371094"/>
     <use xlink:href="#DejaVuSans-Bold-20" x="236.572266"/>
     <use xlink:href="#DejaVuSans-Bold-70" x="271.386719"/>
     <use xlink:href="#DejaVuSans-Bold-6f" x="342.96875"/>
     <use xlink:href="#DejaVuSans-Bold-77" x="411.669922"/>
     <use xlink:href="#DejaVuSans-Bold-65" x="504.052734"/>
     <use xlink:href="#DejaVuSans-Bold-72" x="571.875"/>
     <use xlink:href="#DejaVuSans-Bold-20" x="621.191406"/>
     <use xlink:href="#DejaVuSans-Bold-6f" x="656.005859"/>
     <use xlink:href="#DejaVuSans-Bold-76" x="724.707031"/>
     <use xlink:href="#DejaVuSans-Bold-65" x="789.892578"/>
     <use xlink:href="#DejaVuSans-Bold-72" x="857.714844"/>
     <use xlink:href="#DejaVuSans-Bold-20" x="907.03125"/>
     <use xlink:href="#DejaVuSans-Bold-74" x="941.845703"/>
     <use xlink:href="#DejaVuSans-Bold-69" x="989.648438"/>
     <use xlink:href="#DejaVuSans-Bold-6d" x="1023.925781"/>
     <use xlink:href="#DejaVuSans-Bold-65" x="1128.125"/>
    </g>
   </g>
   <g id="legend_1">
    <g id="patch_7">
     <path d="M 707.0875 67.67625 
L 848.2 67.67625 
Q 850.2 67.67625 850.2 65.67625 
L 850.2 37.32 
Q 850.2 35.32 848.2 35.32 
L 707.0875 35.32 
Q 705.0875 35.32 705.0875 37.32 
L 705.0875 65.67625 
Q 705.0875 67.67625 707.0875 67.67625 
z
" style="fill: #4d4d4d; opacity: 0.5; stroke: #4d4d4d; stroke-linejoin: miter"/>
    </g>
    <g id="patch_8">
     <path d="M 705.0875 65.67625 
L 846.2 65.67625 
Q 848.2 65.67625 848.2 63.67625 
L 848.2 35.32 
Q 848.2 33.32 846.2 33.32 
L 705.0875 33.32 
Q 703.0875 33.32 703.0875 35.32 
L 703.0875 63.67625 
Q 703.0875 65.67625 705.0875 65.67625 
z
" style="fill: #ffffff; stroke: #cccccc; stroke-linejoin: miter"/>
    </g>
    <g id="line2d_18">
     <path d="M 707.0875 41.418437 
L 717.0875 41.418437 
L 727.0875 41.418437 
" style="fill: none; stroke: #e74c3c; stroke-width: 2; stroke-linecap: square"/>
    </g>
    <g id="text_20">
     <!-- GPU power (W) -->
     <g transform="translate(735.0875 44.918437) scale(0.1 -0.1)">
      <defs>
       <path id="DejaVuSans-47" d="M 3809 666 
L 3809 1919 
L 2778 1919 
L 2778 2438 
L 4434 2438 
L 4434 434 
Q 4069 175 3628 42 
Q 3188 -91 2688 -91 
Q 1594 -91 976 548 
Q 359 1188 359 2328 
Q 359 3472 976 4111 
Q 1594 4750 2688 4750 
Q 3144 4750 3555 4637 
Q 3966 4525 4313 4306 
L 4313 3634 
Q 3963 3931 3569 4081 
Q 3175 4231 2741 4231 
Q 1884 4231 1454 3753 
Q 1025 3275 1025 2328 
Q 1025 1384 1454 906 
Q 1884 428 2741 428 
Q 3075 428 3337 486 
Q 3600 544 3809 666 
z
" transform="scale(0.015625)"/>
       <path id="DejaVuSans-55" d="M 556 4666 
L 1191 4666 
L 1191 1831 
Q 1191 1081 1462 751 
Q 1734 422 2344 422 
Q 2950 422 3222 751 
Q 3494 1081 3494 1831 
L 3494 4666 
L 4128 4666 
L 4128 1753 
Q 4128 841 3676 375 
Q 3225 -91 2344 -91 
Q 1459 -91 1007 375 
Q 556 841 556 1753 
L 556 4666 
z
" transform="scale(0.015625)"/>
       <path id="DejaVuSans-70" d="M 1159 525 
L 1159 -1331 
L 581 -1331 
L 581 3500 
L 1159 3500 
L 1159 2969 
Q 1341 3281 1617 3432 
Q 1894 3584 2278 3584 
Q 2916 3584 3314 3078 
Q 3713 2572 3713 1747 
Q 3713 922 3314 415 
Q 2916 -91 2278 -91 
Q 1894 -91 1617 61 
Q 1341 213 1159 525 
z
M 3116 1747 
Q 3116 2381 2855 2742 
Q 2594 3103 2138 3103 
Q 1681 3103 1420 2742 
Q 1159 2381 1159 1747 
Q 1159 1113 1420 752 
Q 1681 391 2138 391 
Q 2594 391 2855 752 
Q 3116 1113 3116 1747 
z
" transform="scale(0.015625)"/>
      </defs>
      <use xlink:href="#DejaVuSans-47"/>
      <use xlink:href="#DejaVuSans-50" x="77.490234"/>
      <use xlink:href="#DejaVuSans-55" x="137.792969"/>
      <use xlink:href="#DejaVuSans-20" x="210.986328"/>
      <use xlink:href="#DejaVuSans-70" x="242.773438"/>
      <use xlink:href="#DejaVuSans-6f" x="306.25"/>
      <use xlink:href="#DejaVuSans-77" x="367.431641"/>
      <use xlink:href="#DejaVuSans-65" x="449.21875"/>
      <use xlink:href="#DejaVuSans-72" x="510.742188"/>
      <use xlink:href="#DejaVuSans-20" x="551.855469"/>
      <use xlink:href="#DejaVuSans-28" x="583.642578"/>
      <use xlink:href="#DejaVuSans-57" x="622.65625"/>
      <use xlink:href="#DejaVuSans-29" x="721.533203"/>
     </g>
    </g>
    <g id="line2d_19">
     <path d="M 707.0875 56.096563 
L 717.0875 56.096563 
L 727.0875 56.096563 
" style="fill: none; stroke-dasharray: 7.4,3.2; stroke-dashoffset: 0; stroke: #000000; stroke-opacity: 0.9; stroke-width: 2"/>
    </g>
    <g id="text_21">
     <!-- Cooler on (5000 RPM) -->
     <g transform="translate(735.0875 59.596563) scale(0.1 -0.1)">
      <defs>
       <path id="DejaVuSans-43" d="M 4122 4306 
L 4122 3641 
Q 3803 3938 3442 4084 
Q 3081 4231 2675 4231 
Q 1875 4231 1450 3742 
Q 1025 3253 1025 2328 
Q 1025 1406 1450 917 
Q 1875 428 2675 428 
Q 3081 428 3442 575 
Q 3803 722 4122 1019 
L 4122 359 
Q 3791 134 3420 21 
Q 3050 -91 2638 -91 
Q 1578 -91 968 557 
Q 359 1206 359 2328 
Q 359 3453 968 4101 
Q 1578 4750 2638 4750 
Q 3056 4750 3426 4639 
Q 3797 4528 4122 4306 
z
" transform="scale(0.015625)"/>
       <path id="DejaVuSans-6c" d="M 603 4863 
L 1178 4863 
L 1178 0 
L 603 0 
L 603 4863 
z
" transform="scale(0.015625)"/>
       <path id="DejaVuSans-52" d="M 2841 2188 
Q 3044 2119 3236 1894 
Q 3428 1669 3622 1275 
L 4263 0 
L 3584 0 
L 2988 1197 
Q 2756 1666 2539 1819 
Q 2322 1972 1947 1972 
L 1259 1972 
L 1259 0 
L 628 0 
L 628 4666 
L 2053 4666 
Q 2853 4666 3247 4331 
Q 3641 3997 3641 3322 
Q 3641 2881 3436 2590 
Q 3231 2300 2841 2188 
z
M 1259 4147 
L 1259 2491 
L 2053 2491 
Q 2509 2491 2742 2702 
Q 2975 2913 2975 3322 
Q 2975 3731 2742 3939 
Q 2509 4147 2053 4147 
L 1259 4147 
z
" transform="scale(0.015625)"/>
      </defs>
      <use xlink:href="#DejaVuSans-43"/>
      <use xlink:href="#DejaVuSans-6f" x="69.824219"/>
      <use xlink:href="#DejaVuSans-6f" x="131.005859"/>
      <use xlink:href="#DejaVuSans-6c" x="192.1875"/>
      <use xlink:href="#DejaVuSans-65" x="219.970703"/>
      <use xlink:href="#DejaVuSans-72" x="281.494141"/>
      <use xlink:href="#DejaVuSans-20" x="322.607422"/>
      <use xlink:href="#DejaVuSans-6f" x="354.394531"/>
      <use xlink:href="#DejaVuSans-6e" x="415.576172"/>
      <use xlink:href="#DejaVuSans-20" x="478.955078"/>
      <use xlink:href="#DejaVuSans-28" x="510.742188"/>
      <use xlink:href="#DejaVuSans-35" x="549.755859"/>
      <use xlink:href="#DejaVuSans-30" x="613.378906"/>
      <use xlink:href="#DejaVuSans-30" x="677.001953"/>
      <use xlink:href="#DejaVuSans-30" x="740.625"/>
      <use xlink:href="#DejaVuSans-20" x="804.248047"/>
      <use xlink:href="#DejaVuSans-52" x="836.035156"/>
      <use xlink:href="#DejaVuSans-50" x="905.517578"/>
      <use xlink:href="#DejaVuSans-4d" x="965.820312"/>
      <use xlink:href="#DejaVuSans-29" x="1052.099609"/>
     </g>
    </g>
   </g>
   <g id="line2d_20">
    <path d="M 323.85709 387.16 
L 323.85709 28.32 
" clip-path="url(#pc16c59992b)" style="fill: none; stroke-dasharray: 7.4,3.2; stroke-dashoffset: 0; stroke: #000000; stroke-opacity: 0.9; stroke-width: 2"/>
   </g>
  </g>
 </g>
 <defs>
  <clipPath id="pc16c59992b">
   <rect x="53.75" y="28.32" width="799.45" height="358.84"/>
  </clipPath>
 </defs>
</svg>
