<?xml version="1.0" encoding="utf-8" standalone="no"?>
<!DOCTYPE svg PUBLIC "-//W3C//DTD SVG 1.1//EN"
  "http://www.w3.org/Graphics/SVG/1.1/DTD/svg11.dtd">
<svg xmlns:xlink="http://www.w3.org/1999/xlink" width="864pt" height="432pt" viewBox="0 0 864 432" xmlns="http://www.w3.org/2000/svg" version="1.1">
 <metadata>
  <rdf:RDF xmlns:dc="http://purl.org/dc/elements/1.1/" xmlns:cc="http://creativecommons.org/ns#" xmlns:rdf="http://www.w3.org/1999/02/22-rdf-syntax-ns#">
   <cc:Work>
    <dc:type rdf:resource="http://purl.org/dc/dcmitype/StillImage"/>
    <dc:date>2026-05-16T19:26:47.050320</dc:date>
    <dc:format>image/svg+xml</dc:format>
    <dc:creator>
     <cc:Agent>
      <dc:title>Matplotlib v3.9.2, https://matplotlib.org/</dc:title>
     </cc:Agent>
    </dc:creator>
   </cc:Work>
  </rdf:RDF>
 </metadata>
 <defs>
  <style type="text/css">*{stroke-linejoin: round; stroke-linecap: butt}</style>
 </defs>
 <g id="figure_1">
  <g id="patch_1">
   <path d="M 0 432 
L 864 432 
L 864 0 
L 0 0 
z
" style="fill: #ffffff"/>
  </g>
  <g id="axes_1">
   <g id="patch_2">
    <path d="M 47.45 387.16 
L 853.2 387.16 
L 853.2 28.32 
L 47.45 28.32 
z
" style="fill: #ffffff"/>
   </g>
   <g id="matplotlib.axis_1">
    <g id="xtick_1">
     <g id="line2d_1">
      <defs>
       <path id="m027c76e079" d="M 0 0 
L 0 3.5 
" style="stroke: #000000; stroke-width: 0.8"/>
      </defs>
      <g>
       <use xlink:href="#m027c76e079" x="47.45" y="387.16" style="stroke: #000000; stroke-width: 0.8"/>
      </g>
     </g>
     <g id="text_1">
      <!-- 0 -->
      <g transform="translate(44.26875 401.758438) scale(0.1 -0.1)">
       <defs>
        <path id="DejaVuSans-30" d="M 2034 4250 
Q 1547 4250 1301 3770 
Q 1056 3291 1056 2328 
Q 1056 1369 1301 889 
Q 1547 409 2034 409 
Q 2525 409 2770 889 
Q 3016 1369 3016 2328 
Q 3016 3291 2770 3770 
Q 2525 4250 2034 4250 
z
M 2034 4750 
Q 2819 4750 3233 4129 
Q 3647 3509 3647 2328 
Q 3647 1150 3233 529 
Q 2819 -91 2034 -91 
Q 1250 -91 836 529 
Q 422 1150 422 2328 
Q 422 3509 836 4129 
Q 1250 4750 2034 4750 
z
" transform="scale(0.015625)"/>
       </defs>
       <use xlink:href="#DejaVuSans-30"/>
      </g>
     </g>
    </g>
    <g id="xtick_2">
     <g id="line2d_2">
      <g>
       <use xlink:href="#m027c76e079" x="156.344259" y="387.16" style="stroke: #000000; stroke-width: 0.8"/>
      </g>
     </g>
     <g id="text_2">
      <!-- 5 -->
      <g transform="translate(153.163009 401.758438) scale(0.1 -0.1)">
       <defs>
        <path id="DejaVuSans-35" d="M 691 4666 
L 3169 4666 
L 3169 4134 
L 1269 4134 
L 1269 2991 
Q 1406 3038 1543 3061 
Q 1681 3084 1819 3084 
Q 2600 3084 3056 2656 
Q 3513 2228 3513 1497 
Q 3513 744 3044 326 
Q 2575 -91 1722 -91 
Q 1428 -91 1123 -41 
Q 819 9 494 109 
L 494 744 
Q 775 591 1075 516 
Q 1375 441 1709 441 
Q 2250 441 2565 725 
Q 2881 1009 2881 1497 
Q 2881 1984 2565 2268 
Q 2250 2553 1709 2553 
Q 1456 2553 1204 2497 
Q 953 2441 691 2322 
L 691 4666 
z
" transform="scale(0.015625)"/>
       </defs>
       <use xlink:href="#DejaVuSans-35"/>
      </g>
     </g>
    </g>
    <g id="xtick_3">
     <g id="line2d_3">
      <g>
       <use xlink:href="#m027c76e079" x="265.238517" y="387.16" style="stroke: #000000; stroke-width: 0.8"/>
      </g>
     </g>
     <g id="text_3">
      <!-- 10 -->
      <g transform="translate(258.876017 401.758438) scale(0.1 -0.1)">
       <defs>
        <path id="DejaVuSans-31" d="M 794 531 
L 1825 531 
L 1825 4091 
L 703 3866 
L 703 4441 
L 1819 4666 
L 2450 4666 
L 2450 531 
L 3481 531 
L 3481 0 
L 794 0 
L 794 531 
z
" transform="scale(0.015625)"/>
       </defs>
       <use xlink:href="#DejaVuSans-31"/>
       <use xlink:href="#DejaVuSans-30" x="63.623047"/>
      </g>
     </g>
    </g>
    <g id="xtick_4">
     <g id="line2d_4">
      <g>
       <use xlink:href="#m027c76e079" x="374.132776" y="387.16" style="stroke: #000000; stroke-width: 0.8"/>
      </g>
     </g>
     <g id="text_4">
      <!-- 15 -->
      <g transform="translate(367.770276 401.758438) scale(0.1 -0.1)">
       <use xlink:href="#DejaVuSans-31"/>
       <use xlink:href="#DejaVuSans-35" x="63.623047"/>
      </g>
     </g>
    </g>
    <g id="xtick_5">
     <g id="line2d_5">
      <g>
       <use xlink:href="#m027c76e079" x="483.027035" y="387.16" style="stroke: #000000; stroke-width: 0.8"/>
      </g>
     </g>
     <g id="text_5">
      <!-- 20 -->
      <g transform="translate(476.664535 401.758438) scale(0.1 -0.1)">
       <defs>
        <path id="DejaVuSans-32" d="M 1228 531 
L 3431 531 
L 3431 0 
L 469 0 
L 469 531 
Q 828 903 1448 1529 
Q 2069 2156 2228 2338 
Q 2531 2678 2651 2914 
Q 2772 3150 2772 3378 
Q 2772 3750 2511 3984 
Q 2250 4219 1831 4219 
Q 1534 4219 1204 4116 
Q 875 4013 500 3803 
L 500 4441 
Q 881 4594 1212 4672 
Q 1544 4750 1819 4750 
Q 2544 4750 2975 4387 
Q 3406 4025 3406 3419 
Q 3406 3131 3298 2873 
Q 3191 2616 2906 2266 
Q 2828 2175 2409 1742 
Q 1991 1309 1228 531 
z
" transform="scale(0.015625)"/>
       </defs>
       <use xlink:href="#DejaVuSans-32"/>
       <use xlink:href="#DejaVuSans-30" x="63.623047"/>
      </g>
     </g>
    </g>
    <g id="xtick_6">
     <g id="line2d_6">
      <g>
       <use xlink:href="#m027c76e079" x="591.921294" y="387.16" style="stroke: #000000; stroke-width: 0.8"/>
      </g>
     </g>
     <g id="text_6">
      <!-- 25 -->
      <g transform="translate(585.558794 401.758438) scale(0.1 -0.1)">
       <use xlink:href="#DejaVuSans-32"/>
       <use xlink:href="#DejaVuSans-35" x="63.623047"/>
      </g>
     </g>
    </g>
    <g id="xtick_7">
     <g id="line2d_7">
      <g>
       <use xlink:href="#m027c76e079" x="700.815552" y="387.16" style="stroke: #000000; stroke-width: 0.8"/>
      </g>
     </g>
     <g id="text_7">
      <!-- 30 -->
      <g transform="translate(694.453052 401.758438) scale(0.1 -0.1)">
       <defs>
        <path id="DejaVuSans-33" d="M 2597 2516 
Q 3050 2419 3304 2112 
Q 3559 1806 3559 1356 
Q 3559 666 3084 287 
Q 2609 -91 1734 -91 
Q 1441 -91 1130 -33 
Q 819 25 488 141 
L 488 750 
Q 750 597 1062 519 
Q 1375 441 1716 441 
Q 2309 441 2620 675 
Q 2931 909 2931 1356 
Q 2931 1769 2642 2001 
Q 2353 2234 1838 2234 
L 1294 2234 
L 1294 2753 
L 1863 2753 
Q 2328 2753 2575 2939 
Q 2822 3125 2822 3475 
Q 2822 3834 2567 4026 
Q 2313 4219 1838 4219 
Q 1578 4219 1281 4162 
Q 984 4106 628 3988 
L 628 4550 
Q 988 4650 1302 4700 
Q 1616 4750 1894 4750 
Q 2613 4750 3031 4423 
Q 3450 4097 3450 3541 
Q 3450 3153 3228 2886 
Q 3006 2619 2597 2516 
z
" transform="scale(0.015625)"/>
       </defs>
       <use xlink:href="#DejaVuSans-33"/>
       <use xlink:href="#DejaVuSans-30" x="63.623047"/>
      </g>
     </g>
    </g>
    <g id="xtick_8">
     <g id="line2d_8">
      <g>
       <use xlink:href="#m027c76e079" x="809.709811" y="387.16" style="stroke: #000000; stroke-width: 0.8"/>
      </g>
     </g>
     <g id="text_8">
      <!-- 35 -->
      <g transform="translate(803.347311 401.758438) scale(0.1 -0.1)">
       <use xlink:href="#DejaVuSans-33"/>
       <use xlink:href="#DejaVuSans-35" x="63.623047"/>
      </g>
     </g>
    </g>
    <g id="text_9">
     <!-- Test duration (Minutes) -->
     <g transform="translate(381.14875 416.95625) scale(0.12 -0.12)">
      <defs>
       <path id="DejaVuSans-54" d="M -19 4666 
L 3928 4666 
L 3928 4134 
L 2272 4134 
L 2272 0 
L 1638 0 
L 1638 4134 
L -19 4134 
L -19 4666 
z
" transform="scale(0.015625)"/>
       <path id="DejaVuSans-65" d="M 3597 1894 
L 3597 1613 
L 953 1613 
Q 991 1019 1311 708 
Q 1631 397 2203 397 
Q 2534 397 2845 478 
Q 3156 559 3463 722 
L 3463 178 
Q 3153 47 2828 -22 
Q 2503 -91 2169 -91 
Q 1331 -91 842 396 
Q 353 884 353 1716 
Q 353 2575 817 3079 
Q 1281 3584 2069 3584 
Q 2775 3584 3186 3129 
Q 3597 2675 3597 1894 
z
M 3022 2063 
Q 3016 2534 2758 2815 
Q 2500 3097 2075 3097 
Q 1594 3097 1305 2825 
Q 1016 2553 972 2059 
L 3022 2063 
z
" transform="scale(0.015625)"/>
       <path id="DejaVuSans-73" d="M 2834 3397 
L 2834 2853 
Q 2591 2978 2328 3040 
Q 2066 3103 1784 3103 
Q 1356 3103 1142 2972 
Q 928 2841 928 2578 
Q 928 2378 1081 2264 
Q 1234 2150 1697 2047 
L 1894 2003 
Q 2506 1872 2764 1633 
Q 3022 1394 3022 966 
Q 3022 478 2636 193 
Q 2250 -91 1575 -91 
Q 1294 -91 989 -36 
Q 684 19 347 128 
L 347 722 
Q 666 556 975 473 
Q 1284 391 1588 391 
Q 1994 391 2212 530 
Q 2431 669 2431 922 
Q 2431 1156 2273 1281 
Q 2116 1406 1581 1522 
L 1381 1569 
Q 847 1681 609 1914 
Q 372 2147 372 2553 
Q 372 3047 722 3315 
Q 1072 3584 1716 3584 
Q 2034 3584 2315 3537 
Q 2597 3491 2834 3397 
z
" transform="scale(0.015625)"/>
       <path id="DejaVuSans-74" d="M 1172 4494 
L 1172 3500 
L 2356 3500 
L 2356 3053 
L 1172 3053 
L 1172 1153 
Q 1172 725 1289 603 
Q 1406 481 1766 481 
L 2356 481 
L 2356 0 
L 1766 0 
Q 1100 0 847 248 
Q 594 497 594 1153 
L 594 3053 
L 172 3053 
L 172 3500 
L 594 3500 
L 594 4494 
L 1172 4494 
z
" transform="scale(0.015625)"/>
       <path id="DejaVuSans-20" transform="scale(0.015625)"/>
       <path id="DejaVuSans-64" d="M 2906 2969 
L 2906 4863 
L 3481 4863 
L 3481 0 
L 2906 0 
L 2906 525 
Q 2725 213 2448 61 
Q 2172 -91 1784 -91 
Q 1150 -91 751 415 
Q 353 922 353 1747 
Q 353 2572 751 3078 
Q 1150 3584 1784 3584 
Q 2172 3584 2448 3432 
Q 2725 3281 2906 2969 
z
M 947 1747 
Q 947 1113 1208 752 
Q 1469 391 1925 391 
Q 2381 391 2643 752 
Q 2906 1113 2906 1747 
Q 2906 2381 2643 2742 
Q 2381 3103 1925 3103 
Q 1469 3103 1208 2742 
Q 947 2381 947 1747 
z
" transform="scale(0.015625)"/>
       <path id="DejaVuSans-75" d="M 544 1381 
L 544 3500 
L 1119 3500 
L 1119 1403 
Q 1119 906 1312 657 
Q 1506 409 1894 409 
Q 2359 409 2629 706 
Q 2900 1003 2900 1516 
L 2900 3500 
L 3475 3500 
L 3475 0 
L 2900 0 
L 2900 538 
Q 2691 219 2414 64 
Q 2138 -91 1772 -91 
Q 1169 -91 856 284 
Q 544 659 544 1381 
z
M 1991 3584 
L 1991 3584 
z
" transform="scale(0.015625)"/>
       <path id="DejaVuSans-72" d="M 2631 2963 
Q 2534 3019 2420 3045 
Q 2306 3072 2169 3072 
Q 1681 3072 1420 2755 
Q 1159 2438 1159 1844 
L 1159 0 
L 581 0 
L 581 3500 
L 1159 3500 
L 1159 2956 
Q 1341 3275 1631 3429 
Q 1922 3584 2338 3584 
Q 2397 3584 2469 3576 
Q 2541 3569 2628 3553 
L 2631 2963 
z
" transform="scale(0.015625)"/>
       <path id="DejaVuSans-61" d="M 2194 1759 
Q 1497 1759 1228 1600 
Q 959 1441 959 1056 
Q 959 750 1161 570 
Q 1363 391 1709 391 
Q 2188 391 2477 730 
Q 2766 1069 2766 1631 
L 2766 1759 
L 2194 1759 
z
M 3341 1997 
L 3341 0 
L 2766 0 
L 2766 531 
Q 2569 213 2275 61 
Q 1981 -91 1556 -91 
Q 1019 -91 701 211 
Q 384 513 384 1019 
Q 384 1609 779 1909 
Q 1175 2209 1959 2209 
L 2766 2209 
L 2766 2266 
Q 2766 2663 2505 2880 
Q 2244 3097 1772 3097 
Q 1472 3097 1187 3025 
Q 903 2953 641 2809 
L 641 3341 
Q 956 3463 1253 3523 
Q 1550 3584 1831 3584 
Q 2591 3584 2966 3190 
Q 3341 2797 3341 1997 
z
" transform="scale(0.015625)"/>
       <path id="DejaVuSans-69" d="M 603 3500 
L 1178 3500 
L 1178 0 
L 603 0 
L 603 3500 
z
M 603 4863 
L 1178 4863 
L 1178 4134 
L 603 4134 
L 603 4863 
z
" transform="scale(0.015625)"/>
       <path id="DejaVuSans-6f" d="M 1959 3097 
Q 1497 3097 1228 2736 
Q 959 2375 959 1747 
Q 959 1119 1226 758 
Q 1494 397 1959 397 
Q 2419 397 2687 759 
Q 2956 1122 2956 1747 
Q 2956 2369 2687 2733 
Q 2419 3097 1959 3097 
z
M 1959 3584 
Q 2709 3584 3137 3096 
Q 3566 2609 3566 1747 
Q 3566 888 3137 398 
Q 2709 -91 1959 -91 
Q 1206 -91 779 398 
Q 353 888 353 1747 
Q 353 2609 779 3096 
Q 1206 3584 1959 3584 
z
" transform="scale(0.015625)"/>
       <path id="DejaVuSans-6e" d="M 3513 2113 
L 3513 0 
L 2938 0 
L 2938 2094 
Q 2938 2591 2744 2837 
Q 2550 3084 2163 3084 
Q 1697 3084 1428 2787 
Q 1159 2491 1159 1978 
L 1159 0 
L 581 0 
L 581 3500 
L 1159 3500 
L 1159 2956 
Q 1366 3272 1645 3428 
Q 1925 3584 2291 3584 
Q 2894 3584 3203 3211 
Q 3513 2838 3513 2113 
z
" transform="scale(0.015625)"/>
       <path id="DejaVuSans-28" d="M 1984 4856 
Q 1566 4138 1362 3434 
Q 1159 2731 1159 2009 
Q 1159 1288 1364 580 
Q 1569 -128 1984 -844 
L 1484 -844 
Q 1016 -109 783 600 
Q 550 1309 550 2009 
Q 550 2706 781 3412 
Q 1013 4119 1484 4856 
L 1984 4856 
z
" transform="scale(0.015625)"/>
       <path id="DejaVuSans-4d" d="M 628 4666 
L 1569 4666 
L 2759 1491 
L 3956 4666 
L 4897 4666 
L 4897 0 
L 4281 0 
L 4281 4097 
L 3078 897 
L 2444 897 
L 1241 4097 
L 1241 0 
L 628 0 
L 628 4666 
z
" transform="scale(0.015625)"/>
       <path id="DejaVuSans-29" d="M 513 4856 
L 1013 4856 
Q 1481 4119 1714 3412 
Q 1947 2706 1947 2009 
Q 1947 1309 1714 600 
Q 1481 -109 1013 -844 
L 513 -844 
Q 928 -128 1133 580 
Q 1338 1288 1338 2009 
Q 1338 2731 1133 3434 
Q 928 4138 513 4856 
z
" transform="scale(0.015625)"/>
      </defs>
      <use xlink:href="#DejaVuSans-54"/>
      <use xlink:href="#DejaVuSans-65" x="44.083984"/>
      <use xlink:href="#DejaVuSans-73" x="105.607422"/>
      <use xlink:href="#DejaVuSans-74" x="157.707031"/>
      <use xlink:href="#DejaVuSans-20" x="196.916016"/>
      <use xlink:href="#DejaVuSans-64" x="228.703125"/>
      <use xlink:href="#DejaVuSans-75" x="292.179688"/>
      <use xlink:href="#DejaVuSans-72" x="355.558594"/>
      <use xlink:href="#DejaVuSans-61" x="396.671875"/>
      <use xlink:href="#DejaVuSans-74" x="457.951172"/>
      <use xlink:href="#DejaVuSans-69" x="497.160156"/>
      <use xlink:href="#DejaVuSans-6f" x="524.943359"/>
      <use xlink:href="#DejaVuSans-6e" x="586.125"/>
      <use xlink:href="#DejaVuSans-20" x="649.503906"/>
      <use xlink:href="#DejaVuSans-28" x="681.291016"/>
      <use xlink:href="#DejaVuSans-4d" x="720.304688"/>
      <use xlink:href="#DejaVuSans-69" x="806.583984"/>
      <use xlink:href="#DejaVuSans-6e" x="834.367188"/>
      <use xlink:href="#DejaVuSans-75" x="897.746094"/>
      <use xlink:href="#DejaVuSans-74" x="961.125"/>
      <use xlink:href="#DejaVuSans-65" x="1000.333984"/>
      <use xlink:href="#DejaVuSans-73" x="1061.857422"/>
      <use xlink:href="#DejaVuSans-29" x="1113.957031"/>
     </g>
    </g>
   </g>
   <g id="matplotlib.axis_2">
    <g id="ytick_1">
     <g id="line2d_9">
      <defs>
       <path id="m8b4564c462" d="M 0 0 
L -3.5 0 
" style="stroke: #000000; stroke-width: 0.8"/>
      </defs>
      <g>
       <use xlink:href="#m8b4564c462" x="47.45" y="387.16" style="stroke: #000000; stroke-width: 0.8"/>
      </g>
     </g>
     <g id="text_10">
      <!-- 0 -->
      <g transform="translate(34.0875 390.959219) scale(0.1 -0.1)">
       <use xlink:href="#DejaVuSans-30"/>
      </g>
     </g>
    </g>
    <g id="ytick_2">
     <g id="line2d_10">
      <g>
       <use xlink:href="#m8b4564c462" x="47.45" y="312.680963" style="stroke: #000000; stroke-width: 0.8"/>
      </g>
     </g>
     <g id="text_11">
      <!-- 20 -->
      <g transform="translate(27.725 316.480182) scale(0.1 -0.1)">
       <use xlink:href="#DejaVuSans-32"/>
       <use xlink:href="#DejaVuSans-30" x="63.623047"/>
      </g>
     </g>
    </g>
    <g id="ytick_3">
     <g id="line2d_11">
      <g>
       <use xlink:href="#m8b4564c462" x="47.45" y="238.201926" style="stroke: #000000; stroke-width: 0.8"/>
      </g>
     </g>
     <g id="text_12">
      <!-- 40 -->
      <g transform="translate(27.725 242.001145) scale(0.1 -0.1)">
       <defs>
        <path id="DejaVuSans-34" d="M 2419 4116 
L 825 1625 
L 2419 1625 
L 2419 4116 
z
M 2253 4666 
L 3047 4666 
L 3047 1625 
L 3713 1625 
L 3713 1100 
L 3047 1100 
L 3047 0 
L 2419 0 
L 2419 1100 
L 313 1100 
L 313 1709 
L 2253 4666 
z
" transform="scale(0.015625)"/>
       </defs>
       <use xlink:href="#DejaVuSans-34"/>
       <use xlink:href="#DejaVuSans-30" x="63.623047"/>
      </g>
     </g>
    </g>
    <g id="ytick_4">
     <g id="line2d_12">
      <g>
       <use xlink:href="#m8b4564c462" x="47.45" y="163.722889" style="stroke: #000000; stroke-width: 0.8"/>
      </g>
     </g>
     <g id="text_13">
      <!-- 60 -->
      <g transform="translate(27.725 167.522108) scale(0.1 -0.1)">
       <defs>
        <path id="DejaVuSans-36" d="M 2113 2584 
Q 1688 2584 1439 2293 
Q 1191 2003 1191 1497 
Q 1191 994 1439 701 
Q 1688 409 2113 409 
Q 2538 409 2786 701 
Q 3034 994 3034 1497 
Q 3034 2003 2786 2293 
Q 2538 2584 2113 2584 
z
M 3366 4563 
L 3366 3988 
Q 3128 4100 2886 4159 
Q 2644 4219 2406 4219 
Q 1781 4219 1451 3797 
Q 1122 3375 1075 2522 
Q 1259 2794 1537 2939 
Q 1816 3084 2150 3084 
Q 2853 3084 3261 2657 
Q 3669 2231 3669 1497 
Q 3669 778 3244 343 
Q 2819 -91 2113 -91 
Q 1303 -91 875 529 
Q 447 1150 447 2328 
Q 447 3434 972 4092 
Q 1497 4750 2381 4750 
Q 2619 4750 2861 4703 
Q 3103 4656 3366 4563 
z
" transform="scale(0.015625)"/>
       </defs>
       <use xlink:href="#DejaVuSans-36"/>
       <use xlink:href="#DejaVuSans-30" x="63.623047"/>
      </g>
     </g>
    </g>
    <g id="ytick_5">
     <g id="line2d_13">
      <g>
       <use xlink:href="#m8b4564c462" x="47.45" y="89.243852" style="stroke: #000000; stroke-width: 0.8"/>
      </g>
     </g>
     <g id="text_14">
      <!-- 80 -->
      <g transform="translate(27.725 93.043071) scale(0.1 -0.1)">
       <defs>
        <path id="DejaVuSans-38" d="M 2034 2216 
Q 1584 2216 1326 1975 
Q 1069 1734 1069 1313 
Q 1069 891 1326 650 
Q 1584 409 2034 409 
Q 2484 409 2743 651 
Q 3003 894 3003 1313 
Q 3003 1734 2745 1975 
Q 2488 2216 2034 2216 
z
M 1403 2484 
Q 997 2584 770 2862 
Q 544 3141 544 3541 
Q 544 4100 942 4425 
Q 1341 4750 2034 4750 
Q 2731 4750 3128 4425 
Q 3525 4100 3525 3541 
Q 3525 3141 3298 2862 
Q 3072 2584 2669 2484 
Q 3125 2378 3379 2068 
Q 3634 1759 3634 1313 
Q 3634 634 3220 271 
Q 2806 -91 2034 -91 
Q 1263 -91 848 271 
Q 434 634 434 1313 
Q 434 1759 690 2068 
Q 947 2378 1403 2484 
z
M 1172 3481 
Q 1172 3119 1398 2916 
Q 1625 2713 2034 2713 
Q 2441 2713 2670 2916 
Q 2900 3119 2900 3481 
Q 2900 3844 2670 4047 
Q 2441 4250 2034 4250 
Q 1625 4250 1398 4047 
Q 1172 3844 1172 3481 
z
" transform="scale(0.015625)"/>
       </defs>
       <use xlink:href="#DejaVuSans-38"/>
       <use xlink:href="#DejaVuSans-30" x="63.623047"/>
      </g>
     </g>
    </g>
    <g id="text_15">
     <!-- Temperature (°C) -->
     <g transform="translate(21.229375 259.521875) rotate(-90) scale(0.12 -0.12)">
      <defs>
       <path id="DejaVuSans-6d" d="M 3328 2828 
Q 3544 3216 3844 3400 
Q 4144 3584 4550 3584 
Q 5097 3584 5394 3201 
Q 5691 2819 5691 2113 
L 5691 0 
L 5113 0 
L 5113 2094 
Q 5113 2597 4934 2840 
Q 4756 3084 4391 3084 
Q 3944 3084 3684 2787 
Q 3425 2491 3425 1978 
L 3425 0 
L 2847 0 
L 2847 2094 
Q 2847 2600 2669 2842 
Q 2491 3084 2119 3084 
Q 1678 3084 1418 2786 
Q 1159 2488 1159 1978 
L 1159 0 
L 581 0 
L 581 3500 
L 1159 3500 
L 1159 2956 
Q 1356 3278 1631 3431 
Q 1906 3584 2284 3584 
Q 2666 3584 2933 3390 
Q 3200 3197 3328 2828 
z
" transform="scale(0.015625)"/>
       <path id="DejaVuSans-70" d="M 1159 525 
L 1159 -1331 
L 581 -1331 
L 581 3500 
L 1159 3500 
L 1159 2969 
Q 1341 3281 1617 3432 
Q 1894 3584 2278 3584 
Q 2916 3584 3314 3078 
Q 3713 2572 3713 1747 
Q 3713 922 3314 415 
Q 2916 -91 2278 -91 
Q 1894 -91 1617 61 
Q 1341 213 1159 525 
z
M 3116 1747 
Q 3116 2381 2855 2742 
Q 2594 3103 2138 3103 
Q 1681 3103 1420 2742 
Q 1159 2381 1159 1747 
Q 1159 1113 1420 752 
Q 1681 391 2138 391 
Q 2594 391 2855 752 
Q 3116 1113 3116 1747 
z
" transform="scale(0.015625)"/>
       <path id="DejaVuSans-b0" d="M 1600 4347 
Q 1350 4347 1178 4173 
Q 1006 4000 1006 3750 
Q 1006 3503 1178 3333 
Q 1350 3163 1600 3163 
Q 1850 3163 2022 3333 
Q 2194 3503 2194 3750 
Q 2194 3997 2020 4172 
Q 1847 4347 1600 4347 
z
M 1600 4750 
Q 1800 4750 1984 4673 
Q 2169 4597 2303 4453 
Q 2447 4313 2519 4134 
Q 2591 3956 2591 3750 
Q 2591 3338 2302 3052 
Q 2013 2766 1594 2766 
Q 1172 2766 890 3047 
Q 609 3328 609 3750 
Q 609 4169 896 4459 
Q 1184 4750 1600 4750 
z
" transform="scale(0.015625)"/>
       <path id="DejaVuSans-43" d="M 4122 4306 
L 4122 3641 
Q 3803 3938 3442 4084 
Q 3081 4231 2675 4231 
Q 1875 4231 1450 3742 
Q 1025 3253 1025 2328 
Q 1025 1406 1450 917 
Q 1875 428 2675 428 
Q 3081 428 3442 575 
Q 3803 722 4122 1019 
L 4122 359 
Q 3791 134 3420 21 
Q 3050 -91 2638 -91 
Q 1578 -91 968 557 
Q 359 1206 359 2328 
Q 359 3453 968 4101 
Q 1578 4750 2638 4750 
Q 3056 4750 3426 4639 
Q 3797 4528 4122 4306 
z
" transform="scale(0.015625)"/>
      </defs>
      <use xlink:href="#DejaVuSans-54"/>
      <use xlink:href="#DejaVuSans-65" x="44.083984"/>
      <use xlink:href="#DejaVuSans-6d" x="105.607422"/>
      <use xlink:href="#DejaVuSans-70" x="203.019531"/>
      <use xlink:href="#DejaVuSans-65" x="266.496094"/>
      <use xlink:href="#DejaVuSans-72" x="328.019531"/>
      <use xlink:href="#DejaVuSans-61" x="369.132812"/>
      <use xlink:href="#DejaVuSans-74" x="430.412109"/>
      <use xlink:href="#DejaVuSans-75" x="469.621094"/>
      <use xlink:href="#DejaVuSans-72" x="533"/>
      <use xlink:href="#DejaVuSans-65" x="571.863281"/>
      <use xlink:href="#DejaVuSans-20" x="633.386719"/>
      <use xlink:href="#DejaVuSans-28" x="665.173828"/>
      <use xlink:href="#DejaVuSans-b0" x="704.1875"/>
      <use xlink:href="#DejaVuSans-43" x="754.1875"/>
      <use xlink:href="#DejaVuSans-29" x="824.011719"/>
     </g>
    </g>
   </g>
   <g id="line2d_14">
    <path d="M 47.45 387.16 
L 55.458084 387.16 
L 56.200743 207.665521 
L 56.910733 387.16 
L 57.637058 203.569174 
L 58.360842 203.196779 
L 59.085715 200.962408 
L 59.826195 387.16 
L 60.532919 387.16 
L 61.264326 199.845222 
L 61.992102 387.16 
L 64.17035 387.16 
L 64.902846 197.238456 
L 65.652038 195.748875 
L 66.352228 194.631689 
L 68.028111 193.886899 
L 68.532291 192.769714 
L 69.260794 195.37648 
L 69.984941 195.37648 
L 70.714169 195.748875 
L 71.441946 190.535342 
L 72.170449 193.514504 
L 72.905485 194.259294 
L 73.63181 192.769714 
L 74.367209 193.886899 
L 75.097163 192.397318 
L 75.818769 193.886899 
L 76.557435 191.280133 
L 77.2765 148.454687 
L 78.003551 176.384325 
L 78.733506 185.32181 
L 79.461645 186.811391 
L 80.187607 168.936422 
L 80.914658 144.730735 
L 81.639893 132.441694 
L 82.365855 125.73858 
L 83.087098 120.525048 
L 83.817779 116.801096 
L 84.539385 132.069298 
L 85.268613 125.73858 
L 85.991671 124.99379 
L 86.719085 124.621395 
L 87.449765 124.99379 
L 88.176816 124.99379 
L 88.899511 122.387024 
L 89.629102 122.387024 
L 90.352523 123.131814 
L 91.082478 122.387024 
L 91.805172 120.152653 
L 92.530408 119.780257 
L 93.266533 120.897443 
L 93.990317 118.290677 
L 94.714464 120.525048 
L 95.438611 116.428701 
L 96.166025 118.290677 
L 96.895979 117.918281 
L 97.624482 114.93912 
L 98.364237 115.68391 
L 99.079309 114.19433 
L 99.805997 113.077144 
L 100.539581 112.704749 
L 101.264817 117.545886 
L 101.990778 124.249 
L 102.721822 109.353192 
L 103.445969 109.725587 
L 104.177012 141.006783 
L 104.905878 149.944267 
L 105.630388 154.41301 
L 106.362883 153.295824 
L 107.08703 157.764566 
L 107.813717 157.764566 
L 109.272537 160.743728 
L 109.998862 161.860913 
L 110.737165 162.233308 
L 111.462038 125.366185 
L 112.181103 117.545886 
L 112.909969 117.918281 
L 113.641375 120.525048 
L 114.36407 118.663072 
L 115.099469 113.449539 
L 115.82652 106.001636 
L 116.548852 103.394869 
L 117.284977 110.470378 
L 118.006583 107.118821 
L 118.737263 106.001636 
L 119.462136 107.491216 
L 120.191728 104.13966 
L 120.92749 98.926127 
L 121.651274 95.202175 
L 122.380139 98.181337 
L 123.833152 92.967804 
L 124.56601 104.512055 
L 126.016482 90.361038 
L 126.747525 93.712594 
L 127.474213 105.256845 
L 128.201264 105.256845 
L 128.923958 94.82978 
L 129.660084 101.160498 
L 130.389312 91.105828 
L 131.116726 93.340199 
L 131.841962 91.478223 
L 132.572642 87.381876 
L 133.301508 94.82978 
L 134.029284 93.712594 
L 135.479756 85.5199 
L 136.217696 103.394869 
L 136.946924 98.553732 
L 137.66853 97.808941 
L 138.400663 100.415708 
L 139.134247 100.788103 
L 139.857668 100.415708 
L 140.590163 97.436546 
L 141.313584 129.834927 
L 142.040272 133.558879 
L 142.772767 141.006783 
L 143.504537 142.868759 
L 144.238484 120.152653 
L 144.962268 106.374031 
L 145.697667 101.905289 
L 146.433066 102.277684 
L 147.157939 91.105828 
L 147.882812 88.499062 
L 149.343447 87.009481 
L 150.072312 85.892296 
L 150.797548 84.402715 
L 151.529318 102.277684 
L 152.262176 88.499062 
L 152.99576 87.009481 
L 153.718818 86.637086 
L 154.449136 81.051158 
L 155.184535 78.816787 
L 155.912311 91.478223 
L 156.63791 83.285529 
L 157.368228 81.051158 
L 158.089108 78.444392 
L 158.816521 79.561577 
L 159.54212 79.189182 
L 160.266267 77.327206 
L 160.992229 76.582416 
L 161.717464 83.285529 
L 162.447419 76.210021 
L 163.895713 78.444392 
L 164.624215 74.72044 
L 165.347636 75.46523 
L 166.076865 77.699601 
L 166.797382 74.348045 
L 167.528425 75.46523 
L 168.251846 80.678763 
L 168.982889 79.933973 
L 169.716111 78.071997 
L 170.438806 74.72044 
L 171.169123 73.603254 
L 171.891092 76.210021 
L 172.619958 75.092835 
L 173.343015 76.582416 
L 174.071155 79.561577 
L 174.798569 77.327206 
L 175.527071 79.561577 
L 176.259204 75.092835 
L 176.988795 84.77511 
L 177.714031 85.5199 
L 178.446889 84.03032 
L 179.169221 81.423553 
L 179.898087 84.402715 
L 180.627315 84.03032 
L 181.362352 81.423553 
L 182.090854 83.285529 
L 182.818268 84.77511 
L 183.548948 83.285529 
L 184.281081 83.285529 
L 185.009946 84.03032 
L 185.732278 82.168344 
L 186.458603 85.5199 
L 187.186743 79.933973 
L 187.91706 76.954811 
L 188.644837 72.113674 
L 189.369347 68.389722 
L 190.104383 68.389722 
L 190.823811 67.644932 
L 191.557758 68.762117 
L 192.282268 67.644932 
L 193.012585 68.762117 
L 193.735643 68.017327 
L 194.464146 68.389722 
L 195.190471 68.017327 
L 195.920062 68.017327 
L 196.652195 68.762117 
L 197.382149 69.879303 
L 198.110652 71.368883 
L 198.835887 69.134512 
L 199.565479 69.506907 
L 200.299426 70.624093 
L 201.021032 98.926127 
L 201.75135 81.423553 
L 202.479126 79.933973 
L 203.214163 78.816787 
L 203.945206 72.486069 
L 204.669353 70.624093 
L 205.394226 70.624093 
L 206.123454 70.996488 
L 206.847238 65.782956 
L 207.573563 69.506907 
L 208.303154 67.272536 
L 209.036739 69.506907 
L 209.763063 63.92098 
L 210.49447 65.038165 
L 211.222246 72.113674 
L 211.944941 70.996488 
L 212.675259 69.134512 
L 213.398317 68.017327 
L 214.126093 71.368883 
L 214.852055 66.900141 
L 215.585276 68.389722 
L 216.308334 66.900141 
L 217.036111 64.66577 
L 217.768243 65.41056 
L 219.220893 63.92098 
L 219.95121 63.92098 
L 220.682254 66.900141 
L 221.404223 64.293375 
L 222.13091 67.644932 
L 222.862317 66.527746 
L 223.583197 78.816787 
L 224.31061 78.071997 
L 225.046735 75.46523 
L 225.766527 73.97565 
L 226.495755 67.644932 
L 227.221717 71.741279 
L 227.948404 66.900141 
L 228.670736 64.293375 
L 229.399965 63.548584 
L 230.129919 64.293375 
L 230.862415 66.155351 
L 231.587288 69.134512 
L 232.317605 68.762117 
L 233.042841 65.782956 
L 233.773521 78.071997 
L 234.494764 76.582416 
L 235.226171 75.837626 
L 235.946688 69.879303 
L 236.682813 65.41056 
L 237.406597 65.038165 
L 238.142359 67.644932 
L 238.873039 65.782956 
L 239.601542 75.092835 
L 240.327504 76.954811 
L 241.057821 77.699601 
L 241.786324 75.092835 
L 242.512286 75.092835 
L 243.242966 77.327206 
L 243.975098 74.72044 
L 244.70832 76.954811 
L 245.433556 77.699601 
L 246.157702 74.72044 
L 246.888746 77.327206 
L 247.623782 66.527746 
L 248.349381 66.527746 
L 249.073891 65.782956 
L 249.797312 67.644932 
L 250.533437 65.41056 
L 251.263391 66.900141 
L 251.990079 65.41056 
L 252.717493 68.762117 
L 253.447084 66.527746 
L 254.171594 65.782956 
L 254.896467 65.41056 
L 255.623517 67.644932 
L 256.34839 66.900141 
L 257.799225 64.66577 
L 258.526638 68.389722 
L 259.256593 63.92098 
L 259.985095 69.506907 
L 260.721947 71.741279 
L 261.443915 63.92098 
L 262.173144 65.41056 
L 262.90818 66.155351 
L 263.637409 68.389722 
L 264.365548 62.059004 
L 265.097681 63.176189 
L 265.826183 62.803794 
L 267.277744 64.293375 
L 268.012054 66.527746 
L 268.735475 63.92098 
L 269.460711 64.293375 
L 270.188487 62.059004 
L 270.91336 65.038165 
L 271.640411 65.41056 
L 272.36601 65.038165 
L 273.089068 65.782956 
L 273.818659 60.941818 
L 274.544621 63.92098 
L 275.268768 68.389722 
L 275.999811 65.782956 
L 276.733032 65.038165 
L 277.46335 63.176189 
L 278.919266 63.176189 
L 279.648132 66.900141 
L 280.376634 63.548584 
L 281.099329 62.431399 
L 281.829647 65.782956 
L 282.559238 64.66577 
L 283.285563 68.017327 
L 284.012614 67.272536 
L 284.739664 64.293375 
L 285.471434 70.624093 
L 286.199573 66.527746 
L 286.926261 63.92098 
L 287.65549 65.41056 
L 288.383266 65.41056 
L 289.109954 66.527746 
L 289.832286 65.038165 
L 290.563329 67.644932 
L 291.28675 65.41056 
L 292.018156 64.293375 
L 292.746659 64.66577 
L 293.46645 68.389722 
L 294.194227 69.134512 
L 294.920188 64.66577 
L 295.651232 62.431399 
L 296.376831 63.176189 
L 297.11586 66.527746 
L 297.834562 65.41056 
L 298.562701 65.41056 
L 299.289752 65.782956 
L 300.013173 65.038165 
L 300.748209 66.900141 
L 301.471267 68.017327 
L 302.198318 65.038165 
L 302.928635 64.66577 
L 303.653871 61.314213 
L 304.383826 66.155351 
L 305.122129 65.41056 
L 305.843372 65.038165 
L 306.578045 65.038165 
L 307.299288 63.92098 
L 308.030331 66.155351 
L 308.758108 65.782956 
L 309.494233 64.66577 
L 310.222373 67.272536 
L 310.955957 63.548584 
L 311.683008 83.285529 
L 312.40788 69.134512 
L 313.137472 71.741279 
L 315.317535 69.506907 
L 316.039504 72.486069 
L 316.773814 68.389722 
L 317.507036 71.741279 
L 318.232634 72.113674 
L 318.960411 72.113674 
L 319.684921 71.741279 
L 320.421409 70.251698 
L 321.145556 70.251698 
L 321.873695 71.741279 
L 322.608006 74.72044 
L 323.32816 80.678763 
L 324.056662 85.147505 
L 324.78698 85.892296 
L 325.515482 90.733433 
L 326.237451 91.850619 
L 326.963413 100.415708 
L 327.694819 101.160498 
L 329.144565 93.712594 
L 329.872342 91.105828 
L 330.596489 94.457385 
L 331.324991 100.788103 
L 332.048412 97.808941 
L 332.772196 103.022474 
L 333.50215 101.532893 
L 334.228112 104.512055 
L 334.952985 104.88445 
L 335.681487 108.980797 
L 336.41362 116.056306 
L 337.143211 111.587563 
L 337.869899 114.19433 
L 338.597313 119.780257 
L 339.330897 117.918281 
L 340.791895 122.387024 
L 341.520761 119.035467 
L 342.251804 120.897443 
L 342.985025 120.897443 
L 343.71135 120.152653 
L 344.436586 121.269838 
L 345.161096 122.014628 
L 345.888872 125.73858 
L 346.619553 122.759419 
L 347.340433 130.207323 
L 348.065668 129.462532 
L 348.795986 132.814089 
L 349.51614 134.30367 
L 350.242102 140.634388 
L 350.97133 129.834927 
L 351.698744 136.165645 
L 352.421076 133.186484 
L 353.152482 133.558879 
L 353.880985 138.400017 
L 354.608036 134.30367 
L 355.332182 133.931274 
L 356.058507 135.420855 
L 356.786647 140.261993 
L 357.518779 137.282831 
L 358.250548 140.634388 
L 358.973969 137.282831 
L 359.711546 138.400017 
L 360.433515 136.165645 
L 361.158025 138.400017 
L 361.886528 138.027621 
L 362.615393 143.613549 
L 363.335547 136.910436 
L 364.062961 138.772412 
L 364.795456 142.496364 
L 365.523959 140.634388 
L 366.254639 143.613549 
L 366.98169 141.751573 
L 367.710556 145.10313 
L 368.439421 139.889597 
L 369.170828 141.006783 
L 369.894975 142.868759 
L 371.351254 143.613549 
L 372.078667 145.84792 
L 372.802088 145.84792 
L 373.532043 144.35834 
L 374.251834 142.123968 
L 374.978522 145.84792 
L 375.709928 146.220315 
L 376.433349 143.985944 
L 377.884546 144.730735 
L 378.613775 143.241154 
L 379.337196 148.454687 
L 380.064246 147.337501 
L 380.78803 142.868759 
L 381.514718 142.123968 
L 382.24068 145.475525 
L 382.968093 147.337501 
L 383.693329 143.241154 
L 384.422921 142.496364 
L 385.15106 143.241154 
L 385.877022 140.634388 
L 386.600806 145.84792 
L 387.335479 142.868759 
L 388.059989 146.220315 
L 388.790669 148.082291 
L 389.513364 145.10313 
L 390.241867 147.337501 
L 390.96928 144.730735 
L 391.694516 145.84792 
L 392.425197 149.199477 
L 393.146077 145.84792 
L 393.870223 147.709896 
L 394.602356 144.35834 
L 395.336303 141.751573 
L 396.064443 149.199477 
L 396.786049 146.965106 
L 397.518907 148.454687 
L 398.244869 146.592711 
L 398.970831 149.571872 
L 399.700059 151.061453 
L 400.426384 149.199477 
L 401.148716 149.571872 
L 401.875766 162.978099 
L 402.602817 162.605704 
L 403.324423 165.95726 
L 404.0522 167.819236 
L 404.778524 166.702051 
L 405.512835 167.074446 
L 406.24533 165.584865 
L 406.973833 167.446841 
L 407.705965 170.053607 
L 408.431927 168.191631 
L 409.163333 168.564027 
L 409.891473 168.191631 
L 410.615257 169.681212 
L 411.340129 170.798398 
L 412.075529 169.308817 
L 413.532534 171.543188 
L 414.261036 164.095284 
L 414.99208 159.626542 
L 415.718042 155.90259 
L 416.452352 158.881752 
L 417.176862 155.530195 
L 417.903186 157.019776 
L 418.630237 156.647381 
L 419.357651 148.082291 
L 420.080709 153.295824 
L 420.8103 153.668219 
L 421.536262 152.551034 
L 422.25932 154.040614 
L 422.98637 152.923429 
L 423.719229 153.668219 
L 424.451724 152.923429 
L 425.179138 153.295824 
L 425.905462 148.827082 
L 426.631787 152.923429 
L 427.358112 150.316663 
L 428.090244 151.061453 
L 428.81548 150.689058 
L 429.543983 151.061453 
L 430.278656 150.316663 
L 431.005707 154.785405 
L 431.730216 152.923429 
L 432.453274 149.944267 
L 433.183955 152.551034 
L 433.918265 149.571872 
L 434.640234 150.316663 
L 435.369825 148.454687 
L 436.08998 146.220315 
L 436.81703 151.433848 
L 437.544444 149.944267 
L 438.272583 149.571872 
L 438.995641 145.10313 
L 439.7285 152.178638 
L 440.457002 153.668219 
L 441.181149 145.475525 
L 441.902755 152.923429 
L 442.634161 151.061453 
L 443.362664 153.668219 
L 444.089352 149.571872 
L 444.818943 151.433848 
L 445.552528 148.082291 
L 446.275223 150.316663 
L 447.00191 153.295824 
L 447.731865 150.689058 
L 448.45456 156.274985 
L 449.187055 150.316663 
L 449.91338 151.806243 
L 450.642971 154.785405 
L 451.372926 154.41301 
L 452.097799 166.702051 
L 452.823034 157.019776 
L 453.546818 158.881752 
L 454.275321 157.019776 
L 455.004186 157.392171 
L 455.737771 158.881752 
L 456.461917 159.626542 
L 457.184975 158.136961 
L 457.911663 159.998937 
L 458.644158 159.998937 
L 459.37012 161.116123 
L 460.103704 161.488518 
L 460.826036 162.605704 
L 461.554539 160.371333 
L 462.285945 159.626542 
L 463.0159 161.860913 
L 463.74404 159.626542 
L 464.476172 159.626542 
L 465.2054 159.998937 
L 466.663495 162.233308 
L 467.393812 154.785405 
L 468.117596 158.136961 
L 468.856625 152.178638 
L 469.584765 149.944267 
L 470.312541 149.944267 
L 471.035236 145.475525 
L 471.763739 151.061453 
L 472.489337 150.316663 
L 473.220018 150.689058 
L 473.939446 147.337501 
L 474.662504 149.571872 
L 475.393547 149.571872 
L 476.120961 148.454687 
L 476.844019 146.220315 
L 477.571795 148.454687 
L 478.294853 143.241154 
L 479.023356 152.551034 
L 479.748229 149.571872 
L 480.484354 149.571872 
L 481.203782 143.241154 
L 481.936277 145.84792 
L 482.656431 146.965106 
L 483.384934 145.10313 
L 484.112711 148.454687 
L 484.843391 147.337501 
L 485.567175 145.475525 
L 486.292048 150.689058 
L 487.017283 148.082291 
L 487.74143 148.454687 
L 488.465577 151.061453 
L 489.193354 152.178638 
L 489.920767 151.061453 
L 490.650359 152.178638 
L 491.381402 151.806243 
L 492.109542 153.668219 
L 492.844941 175.26714 
L 493.562554 171.915583 
L 494.300857 158.509357 
L 495.022826 154.785405 
L 495.749514 146.965106 
L 496.480558 151.061453 
L 497.202889 146.965106 
L 497.936474 146.965106 
L 498.658806 152.178638 
L 499.388397 146.965106 
L 500.114722 149.199477 
L 500.845039 148.454687 
L 501.569912 149.944267 
L 502.300956 148.827082 
L 503.024014 151.061453 
L 503.748886 152.178638 
L 504.477752 148.454687 
L 505.209884 150.316663 
L 505.938024 150.689058 
L 506.65963 151.806243 
L 507.398296 149.944267 
L 508.122806 156.274985 
L 508.850582 154.41301 
L 509.585982 151.806243 
L 510.316662 152.551034 
L 511.038994 151.806243 
L 511.770763 152.551034 
L 512.493458 153.668219 
L 513.219783 153.668219 
L 513.951189 154.785405 
L 514.671706 161.116123 
L 515.400935 156.647381 
L 516.125445 154.785405 
L 516.847777 154.785405 
L 517.572286 155.1578 
L 518.300063 151.433848 
L 519.028929 154.040614 
L 519.752713 154.040614 
L 520.478311 152.178638 
L 521.204636 151.061453 
L 522.665997 151.061453 
L 523.386514 158.136961 
L 524.119735 159.254147 
L 524.84969 153.668219 
L 525.582185 159.254147 
L 526.313955 159.626542 
L 527.046087 155.90259 
L 527.776404 156.647381 
L 528.511441 156.647381 
L 529.236314 157.764566 
L 529.962275 161.116123 
L 530.686785 157.019776 
L 531.410569 156.647381 
L 532.145242 153.295824 
L 532.874108 157.019776 
L 533.605151 156.274985 
L 534.335832 154.040614 
L 535.062882 155.90259 
L 535.791748 154.040614 
L 536.519525 156.274985 
L 537.249842 156.274985 
L 537.978345 157.019776 
L 538.706484 154.785405 
L 540.166756 154.785405 
L 540.899615 159.254147 
L 541.624487 157.392171 
L 542.348271 158.881752 
L 543.077137 160.743728 
L 543.79838 167.446841 
L 544.527608 163.350494 
L 545.251392 164.095284 
L 545.983525 154.040614 
L 546.702953 152.178638 
L 547.430729 152.178638 
L 548.164314 154.040614 
L 548.891001 148.454687 
L 549.62023 148.827082 
L 550.349095 143.613549 
L 551.07179 144.730735 
L 551.800293 149.944267 
L 552.525892 150.316663 
L 553.255483 152.551034 
L 553.98689 200.962408 
L 554.720111 209.527497 
L 555.44208 208.037916 
L 556.172397 214.368634 
L 556.906345 213.623844 
L 557.63521 216.603005 
L 558.359357 169.681212 
L 559.089312 167.819236 
L 559.817814 158.509357 
L 560.547043 159.998937 
L 561.27736 155.530195 
L 562.007678 156.647381 
L 562.734002 152.923429 
L 563.45706 157.392171 
L 564.186652 173.032769 
L 565.644746 157.019776 
L 566.366715 155.530195 
L 567.096669 156.647381 
L 567.824083 160.371333 
L 568.555852 154.785405 
L 569.290163 153.668219 
L 570.019754 167.819236 
L 570.750072 170.426002 
L 571.476033 169.308817 
L 572.20381 173.777559 
L 572.93195 162.605704 
L 573.660815 156.274985 
L 574.389681 182.715044 
L 575.120361 169.308817 
L 575.841241 168.564027 
L 576.571196 203.196779 
L 577.301513 212.134263 
L 578.033646 214.368634 
L 578.758519 214.368634 
L 579.483391 215.858215 
L 580.214435 219.209772 
L 580.941122 176.756721 
L 582.399943 162.605704 
L 583.136431 162.233308 
L 583.863844 166.702051 
L 584.592347 169.681212 
L 585.318672 165.584865 
L 586.04427 160.743728 
L 586.776403 169.308817 
L 587.498735 160.743728 
L 588.230504 164.840075 
L 589.691502 154.41301 
L 590.412745 153.295824 
L 591.143789 154.040614 
L 591.873743 152.923429 
L 592.607327 154.785405 
L 593.338371 152.923429 
L 594.061792 152.923429 
L 594.795739 156.647381 
L 595.528234 159.626542 
L 596.24984 154.785405 
L 596.979069 153.295824 
L 597.710112 149.571872 
L 598.433896 151.806243 
L 599.167843 151.433848 
L 599.893079 154.785405 
L 600.620493 147.337501 
L 601.345366 155.90259 
L 602.07169 148.454687 
L 602.795474 151.061453 
L 603.524703 148.454687 
L 604.249213 149.571872 
L 604.974448 151.433848 
L 605.708759 150.316663 
L 606.436898 151.806243 
L 607.173023 151.061453 
L 607.894266 149.199477 
L 608.625673 151.433848 
L 609.357079 159.254147 
L 610.080137 152.551034 
L 610.809003 153.295824 
L 611.532061 151.806243 
L 612.266371 148.082291 
L 612.99197 148.082291 
L 613.719746 147.709896 
L 614.448975 149.571872 
L 615.170581 149.571872 
L 615.896179 150.689058 
L 616.627223 148.454687 
L 617.356814 149.571872 
L 618.086769 151.061453 
L 618.825435 146.220315 
L 619.55176 148.082291 
L 620.280625 150.316663 
L 621.009128 150.689058 
L 621.743438 153.668219 
L 622.474119 148.827082 
L 623.200806 152.178638 
L 623.923864 149.199477 
L 624.648374 149.571872 
L 625.381232 148.827082 
L 626.110098 153.295824 
L 626.847312 151.806243 
L 627.576541 159.998937 
L 628.307584 151.433848 
L 629.039354 157.764566 
L 629.768945 158.136961 
L 630.493455 144.730735 
L 631.218328 151.433848 
L 631.95046 156.274985 
L 632.673881 154.785405 
L 633.406739 153.668219 
L 634.13379 145.84792 
L 634.862293 144.730735 
L 635.590795 145.10313 
L 636.321839 152.178638 
L 637.060868 156.647381 
L 637.778844 159.254147 
L 638.502991 166.329655 
L 639.232582 165.95726 
L 639.958907 166.329655 
L 640.682691 166.329655 
L 641.416275 167.446841 
L 642.143689 167.819236 
L 642.87691 170.426002 
L 643.604687 168.191631 
L 645.054069 170.426002 
L 645.783661 170.053607 
L 646.517608 165.95726 
L 647.254096 159.626542 
L 647.978969 159.626542 
L 648.702753 167.446841 
L 649.428352 167.446841 
L 650.153587 193.142109 
L 650.878823 203.196779 
L 651.610593 171.915583 
L 652.343088 199.845222 
L 653.064331 169.308817 
L 653.793922 165.95726 
L 654.516617 158.509357 
L 655.243305 152.551034 
L 655.970719 152.923429 
L 656.699221 158.881752 
L 657.429176 150.689058 
L 658.153686 152.923429 
L 658.880373 150.689058 
L 659.599801 151.061453 
L 660.331571 148.454687 
L 661.056806 149.571872 
L 661.783857 151.061453 
L 662.508004 151.433848 
L 663.238321 151.061453 
L 663.969728 158.881752 
L 664.695327 188.300971 
L 665.423466 168.191631 
L 666.14725 165.95726 
L 666.879745 158.881752 
L 667.605344 157.019776 
L 669.061986 148.454687 
L 669.791941 153.295824 
L 670.521895 154.41301 
L 671.246768 152.923429 
L 671.980353 167.074446 
L 672.709218 168.191631 
L 673.436995 168.564027 
L 674.162231 170.798398 
L 674.886377 168.936422 
L 675.613065 170.798398 
L 676.345923 171.543188 
L 677.073337 170.798398 
L 677.801114 170.426002 
L 678.531431 173.405164 
L 679.265378 173.405164 
L 679.990251 173.032769 
L 680.720206 174.149954 
L 681.44653 171.915583 
L 682.178663 162.978099 
L 682.910432 158.509357 
L 683.632401 159.998937 
L 684.356911 158.881752 
L 685.083236 154.41301 
L 685.811738 157.019776 
L 686.539152 153.668219 
L 687.275277 171.170793 
L 688.004143 170.053607 
L 688.735549 169.308817 
L 689.457881 193.142109 
L 690.184932 203.569174 
L 690.91053 184.204624 
L 691.639759 169.308817 
L 692.37044 164.840075 
L 693.095675 158.881752 
L 693.819459 155.530195 
L 694.544332 155.90259 
L 695.278642 154.040614 
L 696.010775 156.647381 
L 696.736736 153.668219 
L 697.463424 156.274985 
L 698.191564 152.178638 
L 698.920066 152.551034 
L 699.643487 152.551034 
L 700.375619 152.923429 
L 701.100855 150.689058 
L 701.833351 151.433848 
L 702.562579 152.923429 
L 703.291808 154.785405 
L 704.017406 146.592711 
L 704.744094 150.689058 
L 705.474775 148.827082 
L 706.200373 149.944267 
L 706.929602 148.827082 
L 707.661734 145.10313 
L 708.384792 145.10313 
L 709.11511 146.965106 
L 709.84216 145.10313 
L 710.567033 152.178638 
L 711.297351 151.433848 
L 712.02549 151.433848 
L 712.754356 149.944267 
L 713.479229 149.199477 
L 714.206642 149.199477 
L 714.930063 146.965106 
L 715.652032 149.571872 
L 716.385253 148.082291 
L 717.111941 147.337501 
L 717.843347 167.074446 
L 718.57548 164.840075 
L 719.301079 161.488518 
L 720.025225 154.040614 
L 720.758084 153.668219 
L 721.489853 153.668219 
L 722.215815 152.178638 
L 722.947584 148.827082 
L 723.675724 147.709896 
L 724.408582 152.178638 
L 725.139989 151.061453 
L 725.864499 148.454687 
L 726.59772 152.923429 
L 728.045288 149.944267 
L 728.774153 154.41301 
L 729.502656 150.316663 
L 730.22644 149.199477 
L 730.956394 148.827082 
L 731.690704 148.082291 
L 732.417755 148.827082 
L 733.145169 152.178638 
L 733.877301 150.689058 
L 734.603263 154.41301 
L 735.328499 154.040614 
L 736.052645 154.785405 
L 736.784415 146.965106 
L 738.236701 150.689058 
L 738.966293 150.316663 
L 739.696247 151.433848 
L 740.421483 149.571872 
L 741.149986 149.571872 
L 741.874858 145.475525 
L 742.610258 153.295824 
L 743.334405 151.061453 
L 744.062544 149.944267 
L 744.786691 147.709896 
L 746.244785 148.454687 
L 746.968206 150.689058 
L 747.698523 145.10313 
L 748.431019 148.454687 
L 749.157706 150.689058 
L 749.889476 150.316663 
L 750.613623 154.040614 
L 751.33777 149.571872 
L 752.065909 150.689058 
L 752.795501 154.785405 
L 753.522914 153.295824 
L 754.245609 149.944267 
L 754.973749 147.337501 
L 755.695718 147.337501 
L 756.426398 147.709896 
L 757.148004 146.965106 
L 758.607913 152.551034 
L 759.33206 150.316663 
L 760.058385 151.061453 
L 760.780717 148.827082 
L 761.510671 154.41301 
L 762.243167 152.923429 
L 762.968402 151.806243 
L 763.696905 159.254147 
L 764.43303 147.709896 
L 765.158266 149.571872 
L 765.890761 152.923429 
L 766.615271 151.061453 
L 767.346315 152.923429 
L 768.07155 149.571872 
L 768.802957 148.827082 
L 769.531822 148.827082 
L 770.258873 149.199477 
L 770.987013 149.944267 
L 771.712974 148.454687 
L 772.43821 152.923429 
L 773.165261 148.454687 
L 773.894126 149.944267 
L 774.623355 151.061453 
L 775.346776 151.433848 
L 776.072374 152.923429 
L 776.804144 151.433848 
L 777.525387 152.178638 
L 778.254252 150.316663 
L 778.975858 149.571872 
L 779.707265 150.316663 
L 780.429234 146.965106 
L 781.160277 146.220315 
L 781.884061 149.199477 
L 782.607482 150.316663 
L 783.33417 149.944267 
L 784.06122 144.35834 
L 784.790449 146.592711 
L 785.518951 152.178638 
L 786.252173 151.061453 
L 786.982853 151.433848 
L 787.711719 149.944267 
L 788.434051 147.337501 
L 789.159286 147.709896 
L 789.889241 145.84792 
L 790.619558 146.592711 
L 791.342253 148.454687 
L 792.073297 147.709896 
L 792.798533 149.571872 
L 793.524131 149.944267 
L 794.260619 151.806243 
L 794.986218 151.433848 
L 796.449031 149.199477 
L 797.172089 149.199477 
L 797.899866 155.530195 
L 798.63345 152.178638 
L 799.362316 153.668219 
L 800.090818 152.178638 
L 800.822225 148.827082 
L 802.275237 148.082291 
L 803.00374 150.316663 
L 803.724982 151.806243 
L 804.457478 152.923429 
L 805.181988 147.709896 
L 805.911216 150.689058 
L 806.640445 150.689058 
L 808.09745 149.199477 
L 808.823049 149.571872 
L 809.550825 152.551034 
L 810.288039 153.295824 
L 811.014364 152.551034 
L 811.749037 152.923429 
L 812.483348 150.689058 
L 813.206043 151.061453 
L 814.661959 150.316663 
L 815.386832 151.061453 
L 816.113156 149.944267 
L 816.843111 152.923429 
L 817.572702 151.433848 
L 818.304835 150.316663 
L 819.0337 150.316663 
L 819.761477 151.061453 
L 820.498691 152.178638 
L 821.219934 149.571872 
L 821.9488 150.689058 
L 822.680569 151.061453 
L 823.412339 152.178638 
L 824.139752 154.785405 
L 824.872611 154.41301 
L 825.601113 155.1578 
L 826.333246 151.433848 
L 827.062474 152.178638 
L 827.790977 152.178638 
L 828.515486 153.668219 
L 829.247256 152.551034 
L 829.974307 151.061453 
L 831.425867 151.061453 
L 832.151829 150.316663 
L 832.877064 152.551034 
L 833.600122 149.944267 
L 834.328262 150.316663 
L 836.51014 149.199477 
L 837.239006 149.199477 
L 837.967145 151.433848 
L 838.702907 152.178638 
L 839.433951 149.199477 
L 840.157735 148.827082 
L 840.882244 149.199477 
L 841.612562 148.082291 
L 842.335257 148.082291 
L 843.064485 148.454687 
L 843.788995 149.571872 
L 844.514594 149.944267 
L 845.237652 153.295824 
L 845.967606 148.454687 
L 846.689938 188.300971 
L 847.422071 172.287978 
L 848.154929 166.329655 
L 848.876898 165.21247 
L 849.608304 199.100432 
L 850.343341 206.920731 
L 851.075836 210.272287 
L 851.798894 212.879054 
L 852.523041 214.741029 
L 853.252995 213.996239 
L 853.252995 213.996239 
" clip-path="url(#pff98cf712d)" style="fill: none; stroke: #e74c3c; stroke-width: 2; stroke-linecap: square"/>
   </g>
   <g id="patch_3">
    <path d="M 47.45 387.16 
L 47.45 28.32 
" style="fill: none; stroke: #000000; stroke-width: 0.8; stroke-linejoin: miter; stroke-linecap: square"/>
   </g>
   <g id="patch_4">
    <path d="M 853.2 387.16 
L 853.2 28.32 
" style="fill: none; stroke: #000000; stroke-width: 0.8; stroke-linejoin: miter; stroke-linecap: square"/>
   </g>
   <g id="patch_5">
    <path d="M 47.45 387.16 
L 853.2 387.16 
" style="fill: none; stroke: #000000; stroke-width: 0.8; stroke-linejoin: miter; stroke-linecap: square"/>
   </g>
   <g id="patch_6">
    <path d="M 47.45 28.32 
L 853.2 28.32 
" style="fill: none; stroke: #000000; stroke-width: 0.8; stroke-linejoin: miter; stroke-linecap: square"/>
   </g>
   <g id="text_16">
    <!-- GPU temperature over time -->
    <g transform="translate(325.66 22.32) scale(0.16 -0.16)">
     <defs>
      <path id="DejaVuSans-Bold-47" d="M 4781 347 
Q 4331 128 3847 18 
Q 3363 -91 2847 -91 
Q 1681 -91 1000 561 
Q 319 1213 319 2328 
Q 319 3456 1012 4103 
Q 1706 4750 2913 4750 
Q 3378 4750 3804 4662 
Q 4231 4575 4609 4403 
L 4609 3438 
Q 4219 3659 3833 3768 
Q 3447 3878 3059 3878 
Q 2341 3878 1952 3476 
Q 1563 3075 1563 2328 
Q 1563 1588 1938 1184 
Q 2313 781 3003 781 
Q 3191 781 3352 804 
Q 3513 828 3641 878 
L 3641 1784 
L 2906 1784 
L 2906 2591 
L 4781 2591 
L 4781 347 
z
" transform="scale(0.015625)"/>
      <path id="DejaVuSans-Bold-50" d="M 588 4666 
L 2584 4666 
Q 3475 4666 3951 4270 
Q 4428 3875 4428 3144 
Q 4428 2409 3951 2014 
Q 3475 1619 2584 1619 
L 1791 1619 
L 1791 0 
L 588 0 
L 588 4666 
z
M 1791 3794 
L 1791 2491 
L 2456 2491 
Q 2806 2491 2997 2661 
Q 3188 2831 3188 3144 
Q 3188 3456 2997 3625 
Q 2806 3794 2456 3794 
L 1791 3794 
z
" transform="scale(0.015625)"/>
      <path id="DejaVuSans-Bold-55" d="M 588 4666 
L 1791 4666 
L 1791 1869 
Q 1791 1291 1980 1042 
Q 2169 794 2597 794 
Q 3028 794 3217 1042 
Q 3406 1291 3406 1869 
L 3406 4666 
L 4609 4666 
L 4609 1869 
Q 4609 878 4112 393 
Q 3616 -91 2597 -91 
Q 1581 -91 1084 393 
Q 588 878 588 1869 
L 588 4666 
z
" transform="scale(0.015625)"/>
      <path id="DejaVuSans-Bold-20" transform="scale(0.015625)"/>
      <path id="DejaVuSans-Bold-74" d="M 1759 4494 
L 1759 3500 
L 2913 3500 
L 2913 2700 
L 1759 2700 
L 1759 1216 
Q 1759 972 1856 886 
Q 1953 800 2241 800 
L 2816 800 
L 2816 0 
L 1856 0 
Q 1194 0 917 276 
Q 641 553 641 1216 
L 641 2700 
L 84 2700 
L 84 3500 
L 641 3500 
L 641 4494 
L 1759 4494 
z
" transform="scale(0.015625)"/>
      <path id="DejaVuSans-Bold-65" d="M 4031 1759 
L 4031 1441 
L 1416 1441 
Q 1456 1047 1700 850 
Q 1944 653 2381 653 
Q 2734 653 3104 758 
Q 3475 863 3866 1075 
L 3866 213 
Q 3469 63 3072 -14 
Q 2675 -91 2278 -91 
Q 1328 -91 801 392 
Q 275 875 275 1747 
Q 275 2603 792 3093 
Q 1309 3584 2216 3584 
Q 3041 3584 3536 3087 
Q 4031 2591 4031 1759 
z
M 2881 2131 
Q 2881 2450 2695 2645 
Q 2509 2841 2209 2841 
Q 1884 2841 1681 2658 
Q 1478 2475 1428 2131 
L 2881 2131 
z
" transform="scale(0.015625)"/>
      <path id="DejaVuSans-Bold-6d" d="M 3781 2919 
Q 3994 3244 4286 3414 
Q 4578 3584 4928 3584 
Q 5531 3584 5847 3212 
Q 6163 2841 6163 2131 
L 6163 0 
L 5038 0 
L 5038 1825 
Q 5041 1866 5042 1909 
Q 5044 1953 5044 2034 
Q 5044 2406 4934 2573 
Q 4825 2741 4581 2741 
Q 4263 2741 4089 2478 
Q 3916 2216 3909 1719 
L 3909 0 
L 2784 0 
L 2784 1825 
Q 2784 2406 2684 2573 
Q 2584 2741 2328 2741 
Q 2006 2741 1831 2477 
Q 1656 2213 1656 1722 
L 1656 0 
L 531 0 
L 531 3500 
L 1656 3500 
L 1656 2988 
Q 1863 3284 2130 3434 
Q 2397 3584 2719 3584 
Q 3081 3584 3359 3409 
Q 3638 3234 3781 2919 
z
" transform="scale(0.015625)"/>
      <path id="DejaVuSans-Bold-70" d="M 1656 506 
L 1656 -1331 
L 538 -1331 
L 538 3500 
L 1656 3500 
L 1656 2988 
Q 1888 3294 2169 3439 
Q 2450 3584 2816 3584 
Q 3463 3584 3878 3070 
Q 4294 2556 4294 1747 
Q 4294 938 3878 423 
Q 3463 -91 2816 -91 
Q 2450 -91 2169 54 
Q 1888 200 1656 506 
z
M 2400 2772 
Q 2041 2772 1848 2508 
Q 1656 2244 1656 1747 
Q 1656 1250 1848 986 
Q 2041 722 2400 722 
Q 2759 722 2948 984 
Q 3138 1247 3138 1747 
Q 3138 2247 2948 2509 
Q 2759 2772 2400 2772 
z
" transform="scale(0.015625)"/>
      <path id="DejaVuSans-Bold-72" d="M 3138 2547 
Q 2991 2616 2845 2648 
Q 2700 2681 2553 2681 
Q 2122 2681 1889 2404 
Q 1656 2128 1656 1613 
L 1656 0 
L 538 0 
L 538 3500 
L 1656 3500 
L 1656 2925 
Q 1872 3269 2151 3426 
Q 2431 3584 2822 3584 
Q 2878 3584 2943 3579 
Q 3009 3575 3134 3559 
L 3138 2547 
z
" transform="scale(0.015625)"/>
      <path id="DejaVuSans-Bold-61" d="M 2106 1575 
Q 1756 1575 1579 1456 
Q 1403 1338 1403 1106 
Q 1403 894 1545 773 
Q 1688 653 1941 653 
Q 2256 653 2472 879 
Q 2688 1106 2688 1447 
L 2688 1575 
L 2106 1575 
z
M 3816 1997 
L 3816 0 
L 2688 0 
L 2688 519 
Q 2463 200 2181 54 
Q 1900 -91 1497 -91 
Q 953 -91 614 226 
Q 275 544 275 1050 
Q 275 1666 698 1953 
Q 1122 2241 2028 2241 
L 2688 2241 
L 2688 2328 
Q 2688 2594 2478 2717 
Q 2269 2841 1825 2841 
Q 1466 2841 1156 2769 
Q 847 2697 581 2553 
L 581 3406 
Q 941 3494 1303 3539 
Q 1666 3584 2028 3584 
Q 2975 3584 3395 3211 
Q 3816 2838 3816 1997 
z
" transform="scale(0.015625)"/>
      <path id="DejaVuSans-Bold-75" d="M 500 1363 
L 500 3500 
L 1625 3500 
L 1625 3150 
Q 1625 2866 1622 2436 
Q 1619 2006 1619 1863 
Q 1619 1441 1641 1255 
Q 1663 1069 1716 984 
Q 1784 875 1895 815 
Q 2006 756 2150 756 
Q 2500 756 2700 1025 
Q 2900 1294 2900 1772 
L 2900 3500 
L 4019 3500 
L 4019 0 
L 2900 0 
L 2900 506 
Q 2647 200 2364 54 
Q 2081 -91 1741 -91 
Q 1134 -91 817 281 
Q 500 653 500 1363 
z
" transform="scale(0.015625)"/>
      <path id="DejaVuSans-Bold-6f" d="M 2203 2784 
Q 1831 2784 1636 2517 
Q 1441 2250 1441 1747 
Q 1441 1244 1636 976 
Q 1831 709 2203 709 
Q 2569 709 2762 976 
Q 2956 1244 2956 1747 
Q 2956 2250 2762 2517 
Q 2569 2784 2203 2784 
z
M 2203 3584 
Q 3106 3584 3614 3096 
Q 4122 2609 4122 1747 
Q 4122 884 3614 396 
Q 3106 -91 2203 -91 
Q 1297 -91 786 396 
Q 275 884 275 1747 
Q 275 2609 786 3096 
Q 1297 3584 2203 3584 
z
" transform="scale(0.015625)"/>
      <path id="DejaVuSans-Bold-76" d="M 97 3500 
L 1216 3500 
L 2088 1081 
L 2956 3500 
L 4078 3500 
L 2700 0 
L 1472 0 
L 97 3500 
z
" transform="scale(0.015625)"/>
      <path id="DejaVuSans-Bold-69" d="M 538 3500 
L 1656 3500 
L 1656 0 
L 538 0 
L 538 3500 
z
M 538 4863 
L 1656 4863 
L 1656 3950 
L 538 3950 
L 538 4863 
z
" transform="scale(0.015625)"/>
     </defs>
     <use xlink:href="#DejaVuSans-Bold-47"/>
     <use xlink:href="#DejaVuSans-Bold-50" x="82.080078"/>
     <use xlink:href="#DejaVuSans-Bold-55" x="155.371094"/>
     <use xlink:href="#DejaVuSans-Bold-20" x="236.572266"/>
     <use xlink:href="#DejaVuSans-Bold-74" x="271.386719"/>
     <use xlink:href="#DejaVuSans-Bold-65" x="319.189453"/>
     <use xlink:href="#DejaVuSans-Bold-6d" x="387.011719"/>
     <use xlink:href="#DejaVuSans-Bold-70" x="491.210938"/>
     <use xlink:href="#DejaVuSans-Bold-65" x="562.792969"/>
     <use xlink:href="#DejaVuSans-Bold-72" x="630.615234"/>
     <use xlink:href="#DejaVuSans-Bold-61" x="679.931641"/>
     <use xlink:href="#DejaVuSans-Bold-74" x="747.412109"/>
     <use xlink:href="#DejaVuSans-Bold-75" x="795.214844"/>
     <use xlink:href="#DejaVuSans-Bold-72" x="866.40625"/>
     <use xlink:href="#DejaVuSans-Bold-65" x="915.722656"/>
     <use xlink:href="#DejaVuSans-Bold-20" x="983.544922"/>
     <use xlink:href="#DejaVuSans-Bold-6f" x="1018.359375"/>
     <use xlink:href="#DejaVuSans-Bold-76" x="1087.060547"/>
     <use xlink:href="#DejaVuSans-Bold-65" x="1152.246094"/>
     <use xlink:href="#DejaVuSans-Bold-72" x="1220.068359"/>
     <use xlink:href="#DejaVuSans-Bold-20" x="1269.384766"/>
     <use xlink:href="#DejaVuSans-Bold-74" x="1304.199219"/>
     <use xlink:href="#DejaVuSans-Bold-69" x="1352.001953"/>
     <use xlink:href="#DejaVuSans-Bold-6d" x="1386.279297"/>
     <use xlink:href="#DejaVuSans-Bold-65" x="1490.478516"/>
    </g>
   </g>
   <g id="legend_1">
    <g id="patch_7">
     <path d="M 706.109375 67.67625 
L 848.2 67.67625 
Q 850.2 67.67625 850.2 65.67625 
L 850.2 37.32 
Q 850.2 35.32 848.2 35.32 
L 706.109375 35.32 
Q 704.109375 35.32 704.109375 37.32 
L 704.109375 65.67625 
Q 704.109375 67.67625 706.109375 67.67625 
z
" style="fill: #4d4d4d; opacity: 0.5; stroke: #4d4d4d; stroke-linejoin: miter"/>
    </g>
    <g id="patch_8">
     <path d="M 704.109375 65.67625 
L 846.2 65.67625 
Q 848.2 65.67625 848.2 63.67625 
L 848.2 35.32 
Q 848.2 33.32 846.2 33.32 
L 704.109375 33.32 
Q 702.109375 33.32 702.109375 35.32 
L 702.109375 63.67625 
Q 702.109375 65.67625 704.109375 65.67625 
z
" style="fill: #ffffff; stroke: #cccccc; stroke-linejoin: miter"/>
    </g>
    <g id="line2d_15">
     <path d="M 706.109375 41.418437 
L 716.109375 41.418437 
L 726.109375 41.418437 
" style="fill: none; stroke: #e74c3c; stroke-width: 2; stroke-linecap: square"/>
    </g>
    <g id="text_17">
     <!-- GPU temperature (°C) -->
     <g transform="translate(734.109375 44.918437) scale(0.1 -0.1)">
      <defs>
       <path id="DejaVuSans-47" d="M 3809 666 
L 3809 1919 
L 2778 1919 
L 2778 2438 
L 4434 2438 
L 4434 434 
Q 4069 175 3628 42 
Q 3188 -91 2688 -91 
Q 1594 -91 976 548 
Q 359 1188 359 2328 
Q 359 3472 976 4111 
Q 1594 4750 2688 4750 
Q 3144 4750 3555 4637 
Q 3966 4525 4313 4306 
L 4313 3634 
Q 3963 3931 3569 4081 
Q 3175 4231 2741 4231 
Q 1884 4231 1454 3753 
Q 1025 3275 1025 2328 
Q 1025 1384 1454 906 
Q 1884 428 2741 428 
Q 3075 428 3337 486 
Q 3600 544 3809 666 
z
" transform="scale(0.015625)"/>
       <path id="DejaVuSans-50" d="M 1259 4147 
L 1259 2394 
L 2053 2394 
Q 2494 2394 2734 2622 
Q 2975 2850 2975 3272 
Q 2975 3691 2734 3919 
Q 2494 4147 2053 4147 
L 1259 4147 
z
M 628 4666 
L 2053 4666 
Q 2838 4666 3239 4311 
Q 3641 3956 3641 3272 
Q 3641 2581 3239 2228 
Q 2838 1875 2053 1875 
L 1259 1875 
L 1259 0 
L 628 0 
L 628 4666 
z
" transform="scale(0.015625)"/>
       <path id="DejaVuSans-55" d="M 556 4666 
L 1191 4666 
L 1191 1831 
Q 1191 1081 1462 751 
Q 1734 422 2344 422 
Q 2950 422 3222 751 
Q 3494 1081 3494 1831 
L 3494 4666 
L 4128 4666 
L 4128 1753 
Q 4128 841 3676 375 
Q 3225 -91 2344 -91 
Q 1459 -91 1007 375 
Q 556 841 556 1753 
L 556 4666 
z
" transform="scale(0.015625)"/>
      </defs>
      <use xlink:href="#DejaVuSans-47"/>
      <use xlink:href="#DejaVuSans-50" x="77.490234"/>
      <use xlink:href="#DejaVuSans-55" x="137.792969"/>
      <use xlink:href="#DejaVuSans-20" x="210.986328"/>
      <use xlink:href="#DejaVuSans-74" x="242.773438"/>
      <use xlink:href="#DejaVuSans-65" x="281.982422"/>
      <use xlink:href="#DejaVuSans-6d" x="343.505859"/>
      <use xlink:href="#DejaVuSans-70" x="440.917969"/>
      <use xlink:href="#DejaVuSans-65" x="504.394531"/>
      <use xlink:href="#DejaVuSans-72" x="565.917969"/>
      <use xlink:href="#DejaVuSans-61" x="607.03125"/>
      <use xlink:href="#DejaVuSans-74" x="668.310547"/>
      <use xlink:href="#DejaVuSans-75" x="707.519531"/>
      <use xlink:href="#DejaVuSans-72" x="770.898438"/>
      <use xlink:href="#DejaVuSans-65" x="809.761719"/>
      <use xlink:href="#DejaVuSans-20" x="871.285156"/>
      <use xlink:href="#DejaVuSans-28" x="903.072266"/>
      <use xlink:href="#DejaVuSans-b0" x="942.085938"/>
      <use xlink:href="#DejaVuSans-43" x="992.085938"/>
      <use xlink:href="#DejaVuSans-29" x="1061.910156"/>
     </g>
    </g>
    <g id="line2d_16">
     <path d="M 706.109375 56.096563 
L 716.109375 56.096563 
L 726.109375 56.096563 
" style="fill: none; stroke-dasharray: 7.4,3.2; stroke-dashoffset: 0; stroke: #000000; stroke-opacity: 0.9; stroke-width: 2"/>
    </g>
    <g id="text_18">
     <!-- Cooler on (5000 RPM) -->
     <g transform="translate(734.109375 59.596563) scale(0.1 -0.1)">
      <defs>
       <path id="DejaVuSans-6c" d="M 603 4863 
L 1178 4863 
L 1178 0 
L 603 0 
L 603 4863 
z
" transform="scale(0.015625)"/>
       <path id="DejaVuSans-52" d="M 2841 2188 
Q 3044 2119 3236 1894 
Q 3428 1669 3622 1275 
L 4263 0 
L 3584 0 
L 2988 1197 
Q 2756 1666 2539 1819 
Q 2322 1972 1947 1972 
L 1259 1972 
L 1259 0 
L 628 0 
L 628 4666 
L 2053 4666 
Q 2853 4666 3247 4331 
Q 3641 3997 3641 3322 
Q 3641 2881 3436 2590 
Q 3231 2300 2841 2188 
z
M 1259 4147 
L 1259 2491 
L 2053 2491 
Q 2509 2491 2742 2702 
Q 2975 2913 2975 3322 
Q 2975 3731 2742 3939 
Q 2509 4147 2053 4147 
L 1259 4147 
z
" transform="scale(0.015625)"/>
      </defs>
      <use xlink:href="#DejaVuSans-43"/>
      <use xlink:href="#DejaVuSans-6f" x="69.824219"/>
      <use xlink:href="#DejaVuSans-6f" x="131.005859"/>
      <use xlink:href="#DejaVuSans-6c" x="192.1875"/>
      <use xlink:href="#DejaVuSans-65" x="219.970703"/>
      <use xlink:href="#DejaVuSans-72" x="281.494141"/>
      <use xlink:href="#DejaVuSans-20" x="322.607422"/>
      <use xlink:href="#DejaVuSans-6f" x="354.394531"/>
      <use xlink:href="#DejaVuSans-6e" x="415.576172"/>
      <use xlink:href="#DejaVuSans-20" x="478.955078"/>
      <use xlink:href="#DejaVuSans-28" x="510.742188"/>
      <use xlink:href="#DejaVuSans-35" x="549.755859"/>
      <use xlink:href="#DejaVuSans-30" x="613.378906"/>
      <use xlink:href="#DejaVuSans-30" x="677.001953"/>
      <use xlink:href="#DejaVuSans-30" x="740.625"/>
      <use xlink:href="#DejaVuSans-20" x="804.248047"/>
      <use xlink:href="#DejaVuSans-52" x="836.035156"/>
      <use xlink:href="#DejaVuSans-50" x="905.517578"/>
      <use xlink:href="#DejaVuSans-4d" x="965.820312"/>
      <use xlink:href="#DejaVuSans-29" x="1052.099609"/>
     </g>
    </g>
   </g>
   <g id="line2d_17">
    <path d="M 319.685647 387.16 
L 319.685647 28.32 
" clip-path="url(#pff98cf712d)" style="fill: none; stroke-dasharray: 7.4,3.2; stroke-dashoffset: 0; stroke: #000000; stroke-opacity: 0.9; stroke-width: 2"/>
   </g>
  </g>
 </g>
 <defs>
  <clipPath id="pff98cf712d">
   <rect x="47.45" y="28.32" width="805.75" height="358.84"/>
  </clipPath>
 </defs>
</svg>
