<?xml version="1.0" encoding="utf-8" standalone="no"?>
<!DOCTYPE svg PUBLIC "-//W3C//DTD SVG 1.1//EN"
  "http://www.w3.org/Graphics/SVG/1.1/DTD/svg11.dtd">
<svg xmlns:xlink="http://www.w3.org/1999/xlink" width="864pt" height="432pt" viewBox="0 0 864 432" xmlns="http://www.w3.org/2000/svg" version="1.1">
 <metadata>
  <rdf:RDF xmlns:dc="http://purl.org/dc/elements/1.1/" xmlns:cc="http://creativecommons.org/ns#" xmlns:rdf="http://www.w3.org/1999/02/22-rdf-syntax-ns#">
   <cc:Work>
    <dc:type rdf:resource="http://purl.org/dc/dcmitype/StillImage"/>
    <dc:date>2026-05-22T07:51:47.052002</dc:date>
    <dc:format>image/svg+xml</dc:format>
    <dc:creator>
     <cc:Agent>
      <dc:title>Matplotlib v3.9.2, https://matplotlib.org/</dc:title>
     </cc:Agent>
    </dc:creator>
   </cc:Work>
  </rdf:RDF>
 </metadata>
 <defs>
  <style type="text/css">*{stroke-linejoin: round; stroke-linecap: butt}</style>
 </defs>
 <g id="figure_1">
  <g id="patch_1">
   <path d="M 0 432 
L 864 432 
L 864 0 
L 0 0 
z
" style="fill: #ffffff"/>
  </g>
  <g id="axes_1">
   <g id="patch_2">
    <path d="M 47.45 387.16 
L 853.2 387.16 
L 853.2 28.32 
L 47.45 28.32 
z
" style="fill: #ffffff"/>
   </g>
   <g id="matplotlib.axis_1">
    <g id="xtick_1">
     <g id="line2d_1">
      <defs>
       <path id="mad0453f26a" d="M 0 0 
L 0 3.5 
" style="stroke: #000000; stroke-width: 0.8"/>
      </defs>
      <g>
       <use xlink:href="#mad0453f26a" x="47.45" y="387.16" style="stroke: #000000; stroke-width: 0.8"/>
      </g>
     </g>
     <g id="text_1">
      <!-- 0 -->
      <g transform="translate(44.26875 401.758438) scale(0.1 -0.1)">
       <defs>
        <path id="DejaVuSans-30" d="M 2034 4250 
Q 1547 4250 1301 3770 
Q 1056 3291 1056 2328 
Q 1056 1369 1301 889 
Q 1547 409 2034 409 
Q 2525 409 2770 889 
Q 3016 1369 3016 2328 
Q 3016 3291 2770 3770 
Q 2525 4250 2034 4250 
z
M 2034 4750 
Q 2819 4750 3233 4129 
Q 3647 3509 3647 2328 
Q 3647 1150 3233 529 
Q 2819 -91 2034 -91 
Q 1250 -91 836 529 
Q 422 1150 422 2328 
Q 422 3509 836 4129 
Q 1250 4750 2034 4750 
z
" transform="scale(0.015625)"/>
       </defs>
       <use xlink:href="#DejaVuSans-30"/>
      </g>
     </g>
    </g>
    <g id="xtick_2">
     <g id="line2d_2">
      <g>
       <use xlink:href="#mad0453f26a" x="145.454833" y="387.16" style="stroke: #000000; stroke-width: 0.8"/>
      </g>
     </g>
     <g id="text_2">
      <!-- 5 -->
      <g transform="translate(142.273583 401.758438) scale(0.1 -0.1)">
       <defs>
        <path id="DejaVuSans-35" d="M 691 4666 
L 3169 4666 
L 3169 4134 
L 1269 4134 
L 1269 2991 
Q 1406 3038 1543 3061 
Q 1681 3084 1819 3084 
Q 2600 3084 3056 2656 
Q 3513 2228 3513 1497 
Q 3513 744 3044 326 
Q 2575 -91 1722 -91 
Q 1428 -91 1123 -41 
Q 819 9 494 109 
L 494 744 
Q 775 591 1075 516 
Q 1375 441 1709 441 
Q 2250 441 2565 725 
Q 2881 1009 2881 1497 
Q 2881 1984 2565 2268 
Q 2250 2553 1709 2553 
Q 1456 2553 1204 2497 
Q 953 2441 691 2322 
L 691 4666 
z
" transform="scale(0.015625)"/>
       </defs>
       <use xlink:href="#DejaVuSans-35"/>
      </g>
     </g>
    </g>
    <g id="xtick_3">
     <g id="line2d_3">
      <g>
       <use xlink:href="#mad0453f26a" x="243.459666" y="387.16" style="stroke: #000000; stroke-width: 0.8"/>
      </g>
     </g>
     <g id="text_3">
      <!-- 10 -->
      <g transform="translate(237.097166 401.758438) scale(0.1 -0.1)">
       <defs>
        <path id="DejaVuSans-31" d="M 794 531 
L 1825 531 
L 1825 4091 
L 703 3866 
L 703 4441 
L 1819 4666 
L 2450 4666 
L 2450 531 
L 3481 531 
L 3481 0 
L 794 0 
L 794 531 
z
" transform="scale(0.015625)"/>
       </defs>
       <use xlink:href="#DejaVuSans-31"/>
       <use xlink:href="#DejaVuSans-30" x="63.623047"/>
      </g>
     </g>
    </g>
    <g id="xtick_4">
     <g id="line2d_4">
      <g>
       <use xlink:href="#mad0453f26a" x="341.464499" y="387.16" style="stroke: #000000; stroke-width: 0.8"/>
      </g>
     </g>
     <g id="text_4">
      <!-- 15 -->
      <g transform="translate(335.101999 401.758438) scale(0.1 -0.1)">
       <use xlink:href="#DejaVuSans-31"/>
       <use xlink:href="#DejaVuSans-35" x="63.623047"/>
      </g>
     </g>
    </g>
    <g id="xtick_5">
     <g id="line2d_5">
      <g>
       <use xlink:href="#mad0453f26a" x="439.469331" y="387.16" style="stroke: #000000; stroke-width: 0.8"/>
      </g>
     </g>
     <g id="text_5">
      <!-- 20 -->
      <g transform="translate(433.106831 401.758438) scale(0.1 -0.1)">
       <defs>
        <path id="DejaVuSans-32" d="M 1228 531 
L 3431 531 
L 3431 0 
L 469 0 
L 469 531 
Q 828 903 1448 1529 
Q 2069 2156 2228 2338 
Q 2531 2678 2651 2914 
Q 2772 3150 2772 3378 
Q 2772 3750 2511 3984 
Q 2250 4219 1831 4219 
Q 1534 4219 1204 4116 
Q 875 4013 500 3803 
L 500 4441 
Q 881 4594 1212 4672 
Q 1544 4750 1819 4750 
Q 2544 4750 2975 4387 
Q 3406 4025 3406 3419 
Q 3406 3131 3298 2873 
Q 3191 2616 2906 2266 
Q 2828 2175 2409 1742 
Q 1991 1309 1228 531 
z
" transform="scale(0.015625)"/>
       </defs>
       <use xlink:href="#DejaVuSans-32"/>
       <use xlink:href="#DejaVuSans-30" x="63.623047"/>
      </g>
     </g>
    </g>
    <g id="xtick_6">
     <g id="line2d_6">
      <g>
       <use xlink:href="#mad0453f26a" x="537.474164" y="387.16" style="stroke: #000000; stroke-width: 0.8"/>
      </g>
     </g>
     <g id="text_6">
      <!-- 25 -->
      <g transform="translate(531.111664 401.758438) scale(0.1 -0.1)">
       <use xlink:href="#DejaVuSans-32"/>
       <use xlink:href="#DejaVuSans-35" x="63.623047"/>
      </g>
     </g>
    </g>
    <g id="xtick_7">
     <g id="line2d_7">
      <g>
       <use xlink:href="#mad0453f26a" x="635.478997" y="387.16" style="stroke: #000000; stroke-width: 0.8"/>
      </g>
     </g>
     <g id="text_7">
      <!-- 30 -->
      <g transform="translate(629.116497 401.758438) scale(0.1 -0.1)">
       <defs>
        <path id="DejaVuSans-33" d="M 2597 2516 
Q 3050 2419 3304 2112 
Q 3559 1806 3559 1356 
Q 3559 666 3084 287 
Q 2609 -91 1734 -91 
Q 1441 -91 1130 -33 
Q 819 25 488 141 
L 488 750 
Q 750 597 1062 519 
Q 1375 441 1716 441 
Q 2309 441 2620 675 
Q 2931 909 2931 1356 
Q 2931 1769 2642 2001 
Q 2353 2234 1838 2234 
L 1294 2234 
L 1294 2753 
L 1863 2753 
Q 2328 2753 2575 2939 
Q 2822 3125 2822 3475 
Q 2822 3834 2567 4026 
Q 2313 4219 1838 4219 
Q 1578 4219 1281 4162 
Q 984 4106 628 3988 
L 628 4550 
Q 988 4650 1302 4700 
Q 1616 4750 1894 4750 
Q 2613 4750 3031 4423 
Q 3450 4097 3450 3541 
Q 3450 3153 3228 2886 
Q 3006 2619 2597 2516 
z
" transform="scale(0.015625)"/>
       </defs>
       <use xlink:href="#DejaVuSans-33"/>
       <use xlink:href="#DejaVuSans-30" x="63.623047"/>
      </g>
     </g>
    </g>
    <g id="xtick_8">
     <g id="line2d_8">
      <g>
       <use xlink:href="#mad0453f26a" x="733.48383" y="387.16" style="stroke: #000000; stroke-width: 0.8"/>
      </g>
     </g>
     <g id="text_8">
      <!-- 35 -->
      <g transform="translate(727.12133 401.758438) scale(0.1 -0.1)">
       <use xlink:href="#DejaVuSans-33"/>
       <use xlink:href="#DejaVuSans-35" x="63.623047"/>
      </g>
     </g>
    </g>
    <g id="xtick_9">
     <g id="line2d_9">
      <g>
       <use xlink:href="#mad0453f26a" x="831.488663" y="387.16" style="stroke: #000000; stroke-width: 0.8"/>
      </g>
     </g>
     <g id="text_9">
      <!-- 40 -->
      <g transform="translate(825.126163 401.758438) scale(0.1 -0.1)">
       <defs>
        <path id="DejaVuSans-34" d="M 2419 4116 
L 825 1625 
L 2419 1625 
L 2419 4116 
z
M 2253 4666 
L 3047 4666 
L 3047 1625 
L 3713 1625 
L 3713 1100 
L 3047 1100 
L 3047 0 
L 2419 0 
L 2419 1100 
L 313 1100 
L 313 1709 
L 2253 4666 
z
" transform="scale(0.015625)"/>
       </defs>
       <use xlink:href="#DejaVuSans-34"/>
       <use xlink:href="#DejaVuSans-30" x="63.623047"/>
      </g>
     </g>
    </g>
    <g id="text_10">
     <!-- Test duration (Minutes) -->
     <g transform="translate(381.14875 416.95625) scale(0.12 -0.12)">
      <defs>
       <path id="DejaVuSans-54" d="M -19 4666 
L 3928 4666 
L 3928 4134 
L 2272 4134 
L 2272 0 
L 1638 0 
L 1638 4134 
L -19 4134 
L -19 4666 
z
" transform="scale(0.015625)"/>
       <path id="DejaVuSans-65" d="M 3597 1894 
L 3597 1613 
L 953 1613 
Q 991 1019 1311 708 
Q 1631 397 2203 397 
Q 2534 397 2845 478 
Q 3156 559 3463 722 
L 3463 178 
Q 3153 47 2828 -22 
Q 2503 -91 2169 -91 
Q 1331 -91 842 396 
Q 353 884 353 1716 
Q 353 2575 817 3079 
Q 1281 3584 2069 3584 
Q 2775 3584 3186 3129 
Q 3597 2675 3597 1894 
z
M 3022 2063 
Q 3016 2534 2758 2815 
Q 2500 3097 2075 3097 
Q 1594 3097 1305 2825 
Q 1016 2553 972 2059 
L 3022 2063 
z
" transform="scale(0.015625)"/>
       <path id="DejaVuSans-73" d="M 2834 3397 
L 2834 2853 
Q 2591 2978 2328 3040 
Q 2066 3103 1784 3103 
Q 1356 3103 1142 2972 
Q 928 2841 928 2578 
Q 928 2378 1081 2264 
Q 1234 2150 1697 2047 
L 1894 2003 
Q 2506 1872 2764 1633 
Q 3022 1394 3022 966 
Q 3022 478 2636 193 
Q 2250 -91 1575 -91 
Q 1294 -91 989 -36 
Q 684 19 347 128 
L 347 722 
Q 666 556 975 473 
Q 1284 391 1588 391 
Q 1994 391 2212 530 
Q 2431 669 2431 922 
Q 2431 1156 2273 1281 
Q 2116 1406 1581 1522 
L 1381 1569 
Q 847 1681 609 1914 
Q 372 2147 372 2553 
Q 372 3047 722 3315 
Q 1072 3584 1716 3584 
Q 2034 3584 2315 3537 
Q 2597 3491 2834 3397 
z
" transform="scale(0.015625)"/>
       <path id="DejaVuSans-74" d="M 1172 4494 
L 1172 3500 
L 2356 3500 
L 2356 3053 
L 1172 3053 
L 1172 1153 
Q 1172 725 1289 603 
Q 1406 481 1766 481 
L 2356 481 
L 2356 0 
L 1766 0 
Q 1100 0 847 248 
Q 594 497 594 1153 
L 594 3053 
L 172 3053 
L 172 3500 
L 594 3500 
L 594 4494 
L 1172 4494 
z
" transform="scale(0.015625)"/>
       <path id="DejaVuSans-20" transform="scale(0.015625)"/>
       <path id="DejaVuSans-64" d="M 2906 2969 
L 2906 4863 
L 3481 4863 
L 3481 0 
L 2906 0 
L 2906 525 
Q 2725 213 2448 61 
Q 2172 -91 1784 -91 
Q 1150 -91 751 415 
Q 353 922 353 1747 
Q 353 2572 751 3078 
Q 1150 3584 1784 3584 
Q 2172 3584 2448 3432 
Q 2725 3281 2906 2969 
z
M 947 1747 
Q 947 1113 1208 752 
Q 1469 391 1925 391 
Q 2381 391 2643 752 
Q 2906 1113 2906 1747 
Q 2906 2381 2643 2742 
Q 2381 3103 1925 3103 
Q 1469 3103 1208 2742 
Q 947 2381 947 1747 
z
" transform="scale(0.015625)"/>
       <path id="DejaVuSans-75" d="M 544 1381 
L 544 3500 
L 1119 3500 
L 1119 1403 
Q 1119 906 1312 657 
Q 1506 409 1894 409 
Q 2359 409 2629 706 
Q 2900 1003 2900 1516 
L 2900 3500 
L 3475 3500 
L 3475 0 
L 2900 0 
L 2900 538 
Q 2691 219 2414 64 
Q 2138 -91 1772 -91 
Q 1169 -91 856 284 
Q 544 659 544 1381 
z
M 1991 3584 
L 1991 3584 
z
" transform="scale(0.015625)"/>
       <path id="DejaVuSans-72" d="M 2631 2963 
Q 2534 3019 2420 3045 
Q 2306 3072 2169 3072 
Q 1681 3072 1420 2755 
Q 1159 2438 1159 1844 
L 1159 0 
L 581 0 
L 581 3500 
L 1159 3500 
L 1159 2956 
Q 1341 3275 1631 3429 
Q 1922 3584 2338 3584 
Q 2397 3584 2469 3576 
Q 2541 3569 2628 3553 
L 2631 2963 
z
" transform="scale(0.015625)"/>
       <path id="DejaVuSans-61" d="M 2194 1759 
Q 1497 1759 1228 1600 
Q 959 1441 959 1056 
Q 959 750 1161 570 
Q 1363 391 1709 391 
Q 2188 391 2477 730 
Q 2766 1069 2766 1631 
L 2766 1759 
L 2194 1759 
z
M 3341 1997 
L 3341 0 
L 2766 0 
L 2766 531 
Q 2569 213 2275 61 
Q 1981 -91 1556 -91 
Q 1019 -91 701 211 
Q 384 513 384 1019 
Q 384 1609 779 1909 
Q 1175 2209 1959 2209 
L 2766 2209 
L 2766 2266 
Q 2766 2663 2505 2880 
Q 2244 3097 1772 3097 
Q 1472 3097 1187 3025 
Q 903 2953 641 2809 
L 641 3341 
Q 956 3463 1253 3523 
Q 1550 3584 1831 3584 
Q 2591 3584 2966 3190 
Q 3341 2797 3341 1997 
z
" transform="scale(0.015625)"/>
       <path id="DejaVuSans-69" d="M 603 3500 
L 1178 3500 
L 1178 0 
L 603 0 
L 603 3500 
z
M 603 4863 
L 1178 4863 
L 1178 4134 
L 603 4134 
L 603 4863 
z
" transform="scale(0.015625)"/>
       <path id="DejaVuSans-6f" d="M 1959 3097 
Q 1497 3097 1228 2736 
Q 959 2375 959 1747 
Q 959 1119 1226 758 
Q 1494 397 1959 397 
Q 2419 397 2687 759 
Q 2956 1122 2956 1747 
Q 2956 2369 2687 2733 
Q 2419 3097 1959 3097 
z
M 1959 3584 
Q 2709 3584 3137 3096 
Q 3566 2609 3566 1747 
Q 3566 888 3137 398 
Q 2709 -91 1959 -91 
Q 1206 -91 779 398 
Q 353 888 353 1747 
Q 353 2609 779 3096 
Q 1206 3584 1959 3584 
z
" transform="scale(0.015625)"/>
       <path id="DejaVuSans-6e" d="M 3513 2113 
L 3513 0 
L 2938 0 
L 2938 2094 
Q 2938 2591 2744 2837 
Q 2550 3084 2163 3084 
Q 1697 3084 1428 2787 
Q 1159 2491 1159 1978 
L 1159 0 
L 581 0 
L 581 3500 
L 1159 3500 
L 1159 2956 
Q 1366 3272 1645 3428 
Q 1925 3584 2291 3584 
Q 2894 3584 3203 3211 
Q 3513 2838 3513 2113 
z
" transform="scale(0.015625)"/>
       <path id="DejaVuSans-28" d="M 1984 4856 
Q 1566 4138 1362 3434 
Q 1159 2731 1159 2009 
Q 1159 1288 1364 580 
Q 1569 -128 1984 -844 
L 1484 -844 
Q 1016 -109 783 600 
Q 550 1309 550 2009 
Q 550 2706 781 3412 
Q 1013 4119 1484 4856 
L 1984 4856 
z
" transform="scale(0.015625)"/>
       <path id="DejaVuSans-4d" d="M 628 4666 
L 1569 4666 
L 2759 1491 
L 3956 4666 
L 4897 4666 
L 4897 0 
L 4281 0 
L 4281 4097 
L 3078 897 
L 2444 897 
L 1241 4097 
L 1241 0 
L 628 0 
L 628 4666 
z
" transform="scale(0.015625)"/>
       <path id="DejaVuSans-29" d="M 513 4856 
L 1013 4856 
Q 1481 4119 1714 3412 
Q 1947 2706 1947 2009 
Q 1947 1309 1714 600 
Q 1481 -109 1013 -844 
L 513 -844 
Q 928 -128 1133 580 
Q 1338 1288 1338 2009 
Q 1338 2731 1133 3434 
Q 928 4138 513 4856 
z
" transform="scale(0.015625)"/>
      </defs>
      <use xlink:href="#DejaVuSans-54"/>
      <use xlink:href="#DejaVuSans-65" x="44.083984"/>
      <use xlink:href="#DejaVuSans-73" x="105.607422"/>
      <use xlink:href="#DejaVuSans-74" x="157.707031"/>
      <use xlink:href="#DejaVuSans-20" x="196.916016"/>
      <use xlink:href="#DejaVuSans-64" x="228.703125"/>
      <use xlink:href="#DejaVuSans-75" x="292.179688"/>
      <use xlink:href="#DejaVuSans-72" x="355.558594"/>
      <use xlink:href="#DejaVuSans-61" x="396.671875"/>
      <use xlink:href="#DejaVuSans-74" x="457.951172"/>
      <use xlink:href="#DejaVuSans-69" x="497.160156"/>
      <use xlink:href="#DejaVuSans-6f" x="524.943359"/>
      <use xlink:href="#DejaVuSans-6e" x="586.125"/>
      <use xlink:href="#DejaVuSans-20" x="649.503906"/>
      <use xlink:href="#DejaVuSans-28" x="681.291016"/>
      <use xlink:href="#DejaVuSans-4d" x="720.304688"/>
      <use xlink:href="#DejaVuSans-69" x="806.583984"/>
      <use xlink:href="#DejaVuSans-6e" x="834.367188"/>
      <use xlink:href="#DejaVuSans-75" x="897.746094"/>
      <use xlink:href="#DejaVuSans-74" x="961.125"/>
      <use xlink:href="#DejaVuSans-65" x="1000.333984"/>
      <use xlink:href="#DejaVuSans-73" x="1061.857422"/>
      <use xlink:href="#DejaVuSans-29" x="1113.957031"/>
     </g>
    </g>
   </g>
   <g id="matplotlib.axis_2">
    <g id="ytick_1">
     <g id="line2d_10">
      <defs>
       <path id="m115d59d7ec" d="M 0 0 
L -3.5 0 
" style="stroke: #000000; stroke-width: 0.8"/>
      </defs>
      <g>
       <use xlink:href="#m115d59d7ec" x="47.45" y="387.16" style="stroke: #000000; stroke-width: 0.8"/>
      </g>
     </g>
     <g id="text_11">
      <!-- 0 -->
      <g transform="translate(34.0875 390.959219) scale(0.1 -0.1)">
       <use xlink:href="#DejaVuSans-30"/>
      </g>
     </g>
    </g>
    <g id="ytick_2">
     <g id="line2d_11">
      <g>
       <use xlink:href="#m115d59d7ec" x="47.45" y="342.945611" style="stroke: #000000; stroke-width: 0.8"/>
      </g>
     </g>
     <g id="text_12">
      <!-- 10 -->
      <g transform="translate(27.725 346.74483) scale(0.1 -0.1)">
       <use xlink:href="#DejaVuSans-31"/>
       <use xlink:href="#DejaVuSans-30" x="63.623047"/>
      </g>
     </g>
    </g>
    <g id="ytick_3">
     <g id="line2d_12">
      <g>
       <use xlink:href="#m115d59d7ec" x="47.45" y="298.731222" style="stroke: #000000; stroke-width: 0.8"/>
      </g>
     </g>
     <g id="text_13">
      <!-- 20 -->
      <g transform="translate(27.725 302.530441) scale(0.1 -0.1)">
       <use xlink:href="#DejaVuSans-32"/>
       <use xlink:href="#DejaVuSans-30" x="63.623047"/>
      </g>
     </g>
    </g>
    <g id="ytick_4">
     <g id="line2d_13">
      <g>
       <use xlink:href="#m115d59d7ec" x="47.45" y="254.516834" style="stroke: #000000; stroke-width: 0.8"/>
      </g>
     </g>
     <g id="text_14">
      <!-- 30 -->
      <g transform="translate(27.725 258.316052) scale(0.1 -0.1)">
       <use xlink:href="#DejaVuSans-33"/>
       <use xlink:href="#DejaVuSans-30" x="63.623047"/>
      </g>
     </g>
    </g>
    <g id="ytick_5">
     <g id="line2d_14">
      <g>
       <use xlink:href="#m115d59d7ec" x="47.45" y="210.302445" style="stroke: #000000; stroke-width: 0.8"/>
      </g>
     </g>
     <g id="text_15">
      <!-- 40 -->
      <g transform="translate(27.725 214.101664) scale(0.1 -0.1)">
       <use xlink:href="#DejaVuSans-34"/>
       <use xlink:href="#DejaVuSans-30" x="63.623047"/>
      </g>
     </g>
    </g>
    <g id="ytick_6">
     <g id="line2d_15">
      <g>
       <use xlink:href="#m115d59d7ec" x="47.45" y="166.088056" style="stroke: #000000; stroke-width: 0.8"/>
      </g>
     </g>
     <g id="text_16">
      <!-- 50 -->
      <g transform="translate(27.725 169.887275) scale(0.1 -0.1)">
       <use xlink:href="#DejaVuSans-35"/>
       <use xlink:href="#DejaVuSans-30" x="63.623047"/>
      </g>
     </g>
    </g>
    <g id="ytick_7">
     <g id="line2d_16">
      <g>
       <use xlink:href="#m115d59d7ec" x="47.45" y="121.873667" style="stroke: #000000; stroke-width: 0.8"/>
      </g>
     </g>
     <g id="text_17">
      <!-- 60 -->
      <g transform="translate(27.725 125.672886) scale(0.1 -0.1)">
       <defs>
        <path id="DejaVuSans-36" d="M 2113 2584 
Q 1688 2584 1439 2293 
Q 1191 2003 1191 1497 
Q 1191 994 1439 701 
Q 1688 409 2113 409 
Q 2538 409 2786 701 
Q 3034 994 3034 1497 
Q 3034 2003 2786 2293 
Q 2538 2584 2113 2584 
z
M 3366 4563 
L 3366 3988 
Q 3128 4100 2886 4159 
Q 2644 4219 2406 4219 
Q 1781 4219 1451 3797 
Q 1122 3375 1075 2522 
Q 1259 2794 1537 2939 
Q 1816 3084 2150 3084 
Q 2853 3084 3261 2657 
Q 3669 2231 3669 1497 
Q 3669 778 3244 343 
Q 2819 -91 2113 -91 
Q 1303 -91 875 529 
Q 447 1150 447 2328 
Q 447 3434 972 4092 
Q 1497 4750 2381 4750 
Q 2619 4750 2861 4703 
Q 3103 4656 3366 4563 
z
" transform="scale(0.015625)"/>
       </defs>
       <use xlink:href="#DejaVuSans-36"/>
       <use xlink:href="#DejaVuSans-30" x="63.623047"/>
      </g>
     </g>
    </g>
    <g id="ytick_8">
     <g id="line2d_17">
      <g>
       <use xlink:href="#m115d59d7ec" x="47.45" y="77.659279" style="stroke: #000000; stroke-width: 0.8"/>
      </g>
     </g>
     <g id="text_18">
      <!-- 70 -->
      <g transform="translate(27.725 81.458497) scale(0.1 -0.1)">
       <defs>
        <path id="DejaVuSans-37" d="M 525 4666 
L 3525 4666 
L 3525 4397 
L 1831 0 
L 1172 0 
L 2766 4134 
L 525 4134 
L 525 4666 
z
" transform="scale(0.015625)"/>
       </defs>
       <use xlink:href="#DejaVuSans-37"/>
       <use xlink:href="#DejaVuSans-30" x="63.623047"/>
      </g>
     </g>
    </g>
    <g id="ytick_9">
     <g id="line2d_18">
      <g>
       <use xlink:href="#m115d59d7ec" x="47.45" y="33.44489" style="stroke: #000000; stroke-width: 0.8"/>
      </g>
     </g>
     <g id="text_19">
      <!-- 80 -->
      <g transform="translate(27.725 37.244109) scale(0.1 -0.1)">
       <defs>
        <path id="DejaVuSans-38" d="M 2034 2216 
Q 1584 2216 1326 1975 
Q 1069 1734 1069 1313 
Q 1069 891 1326 650 
Q 1584 409 2034 409 
Q 2484 409 2743 651 
Q 3003 894 3003 1313 
Q 3003 1734 2745 1975 
Q 2488 2216 2034 2216 
z
M 1403 2484 
Q 997 2584 770 2862 
Q 544 3141 544 3541 
Q 544 4100 942 4425 
Q 1341 4750 2034 4750 
Q 2731 4750 3128 4425 
Q 3525 4100 3525 3541 
Q 3525 3141 3298 2862 
Q 3072 2584 2669 2484 
Q 3125 2378 3379 2068 
Q 3634 1759 3634 1313 
Q 3634 634 3220 271 
Q 2806 -91 2034 -91 
Q 1263 -91 848 271 
Q 434 634 434 1313 
Q 434 1759 690 2068 
Q 947 2378 1403 2484 
z
M 1172 3481 
Q 1172 3119 1398 2916 
Q 1625 2713 2034 2713 
Q 2441 2713 2670 2916 
Q 2900 3119 2900 3481 
Q 2900 3844 2670 4047 
Q 2441 4250 2034 4250 
Q 1625 4250 1398 4047 
Q 1172 3844 1172 3481 
z
" transform="scale(0.015625)"/>
       </defs>
       <use xlink:href="#DejaVuSans-38"/>
       <use xlink:href="#DejaVuSans-30" x="63.623047"/>
      </g>
     </g>
    </g>
    <g id="text_20">
     <!-- Power (W) -->
     <g transform="translate(21.229375 238.398125) rotate(-90) scale(0.12 -0.12)">
      <defs>
       <path id="DejaVuSans-50" d="M 1259 4147 
L 1259 2394 
L 2053 2394 
Q 2494 2394 2734 2622 
Q 2975 2850 2975 3272 
Q 2975 3691 2734 3919 
Q 2494 4147 2053 4147 
L 1259 4147 
z
M 628 4666 
L 2053 4666 
Q 2838 4666 3239 4311 
Q 3641 3956 3641 3272 
Q 3641 2581 3239 2228 
Q 2838 1875 2053 1875 
L 1259 1875 
L 1259 0 
L 628 0 
L 628 4666 
z
" transform="scale(0.015625)"/>
       <path id="DejaVuSans-77" d="M 269 3500 
L 844 3500 
L 1563 769 
L 2278 3500 
L 2956 3500 
L 3675 769 
L 4391 3500 
L 4966 3500 
L 4050 0 
L 3372 0 
L 2619 2869 
L 1863 0 
L 1184 0 
L 269 3500 
z
" transform="scale(0.015625)"/>
       <path id="DejaVuSans-57" d="M 213 4666 
L 850 4666 
L 1831 722 
L 2809 4666 
L 3519 4666 
L 4500 722 
L 5478 4666 
L 6119 4666 
L 4947 0 
L 4153 0 
L 3169 4050 
L 2175 0 
L 1381 0 
L 213 4666 
z
" transform="scale(0.015625)"/>
      </defs>
      <use xlink:href="#DejaVuSans-50"/>
      <use xlink:href="#DejaVuSans-6f" x="56.677734"/>
      <use xlink:href="#DejaVuSans-77" x="117.859375"/>
      <use xlink:href="#DejaVuSans-65" x="199.646484"/>
      <use xlink:href="#DejaVuSans-72" x="261.169922"/>
      <use xlink:href="#DejaVuSans-20" x="302.283203"/>
      <use xlink:href="#DejaVuSans-28" x="334.070312"/>
      <use xlink:href="#DejaVuSans-57" x="373.083984"/>
      <use xlink:href="#DejaVuSans-29" x="471.960938"/>
     </g>
    </g>
   </g>
   <g id="line2d_19">
    <path d="M 204.257733 345.178438 
L 204.906525 339.726804 
L 205.572304 319.432399 
L 206.214562 278.790533 
L 206.875768 291.519856 
L 207.553635 180.784919 
L 208.182826 275.067682 
L 208.86298 263.204961 
L 209.490864 244.055709 
L 210.276863 247.25241 
L 210.804129 188.641816 
L 211.463375 188.641816 
L 212.120987 133.506473 
L 212.776966 228.26233 
L 213.427065 233.404463 
L 214.085657 230.694121 
L 214.74327 244.325417 
L 215.405129 232.741247 
L 216.056861 251.236126 
L 216.71676 242.494941 
L 217.373066 243.693151 
L 218.024798 138.219727 
L 218.671957 159.447055 
L 219.328916 204.965768 
L 219.984241 264.403171 
L 220.64218 259.477688 
L 221.293913 150.007283 
L 221.953485 147.893835 
L 222.605217 112.279145 
L 223.256949 248.72917 
L 223.908682 211.841106 
L 224.560414 206.336414 
L 225.215086 237.918752 
L 225.867798 238.077924 
L 226.524104 233.422149 
L 227.175183 177.314089 
L 227.828222 230.154705 
L 228.48322 219.052472 
L 229.795505 150.321205 
L 230.451484 236.141334 
L 231.106483 236.030798 
L 231.761482 234.96081 
L 232.423995 238.621761 
L 233.07736 235.610761 
L 233.733993 210.978925 
L 234.392585 233.811235 
L 235.043011 232.427325 
L 235.69997 204.236231 
L 236.351375 208.821263 
L 237.004087 188.898259 
L 237.655166 140.84164 
L 238.966797 204.753539 
L 239.62539 169.868386 
L 240.277122 165.862563 
L 241.5832 277.39778 
L 242.238852 280.245187 
L 242.896138 261.759151 
L 243.55277 291.599442 
L 244.205156 268.484159 
L 244.859501 282.548756 
L 245.511234 281.328439 
L 246.168519 269.492247 
L 246.824498 145.095064 
L 247.477864 202.330591 
L 248.138416 97.812197 
L 248.791782 102.569665 
L 249.444494 155.445653 
L 250.747958 203.519958 
L 251.410798 217.173361 
L 252.062203 218.287564 
L 252.721122 122.315811 
L 253.376448 163.88618 
L 254.027853 235.734561 
L 254.684813 274.311616 
L 255.338505 294.247883 
L 255.993177 279.696928 
L 256.648503 283.486101 
L 257.307749 279.789778 
L 257.959154 277.972567 
L 258.616113 291.652499 
L 259.267192 279.436063 
L 260.579477 282.579706 
L 261.230555 284.021095 
L 261.884248 282.9909 
L 262.543167 283.1147 
L 263.199472 279.321106 
L 263.849898 283.393251 
L 264.513717 282.292313 
L 265.172963 284.516296 
L 265.823062 279.710192 
L 266.480021 283.48168 
L 267.13502 277.976988 
L 267.797532 254.998771 
L 268.453838 261.32585 
L 269.103284 293.933961 
L 269.761876 279.714614 
L 271.068607 269.620469 
L 271.721973 260.397347 
L 272.378278 268.444366 
L 273.69089 252.456443 
L 274.345889 250.289938 
L 275.002194 243.62683 
L 275.651966 241.928997 
L 276.307292 233.103805 
L 276.962291 229.332318 
L 277.61533 234.753002 
L 278.277189 251.956821 
L 278.924348 217.35464 
L 279.585227 217.761412 
L 280.240879 217.726041 
L 280.899145 220.688405 
L 281.560024 220.821048 
L 282.21437 222.461402 
L 282.865776 226.383218 
L 284.174793 207.888339 
L 284.829792 212.4999 
L 285.481198 220.741462 
L 286.140117 225.786324 
L 286.797403 228.103158 
L 287.450115 219.560938 
L 288.107074 228.129686 
L 288.756846 215.54185 
L 289.413152 222.779745 
L 290.070437 233.674171 
L 290.726417 224.6677 
L 291.386642 226.741355 
L 292.043275 223.235154 
L 292.69566 224.451049 
L 293.355886 217.527076 
L 294.009578 213.229437 
L 294.666537 174.356147 
L 295.32415 174.466683 
L 295.985356 261.772415 
L 296.638721 265.29188 
L 297.289473 247.044602 
L 297.943819 291.037919 
L 298.600778 281.456661 
L 299.259044 283.733702 
L 299.918616 282.995321 
L 300.572309 286.634166 
L 301.224041 288.212619 
L 301.875446 288.796249 
L 302.531425 217.44749 
L 303.183157 216.89481 
L 303.840117 197.3211 
L 304.500996 210.302445 
L 305.155015 207.494831 
L 305.820141 198.342453 
L 306.469259 195.092695 
L 307.127852 168.506583 
L 307.781871 220.087089 
L 308.433276 202.949592 
L 309.082722 275.567304 
L 309.740334 289.149964 
L 310.40252 279.290156 
L 311.052292 284.569354 
L 311.705984 274.329301 
L 312.35837 287.474239 
L 313.673595 273.153199 
L 314.3299 282.111034 
L 314.984899 286.293715 
L 315.643492 182.783409 
L 316.29065 190.061098 
L 316.946629 211.222104 
L 317.597708 245.665113 
L 318.254341 249.007721 
L 318.91228 244.39616 
L 319.561072 241.756561 
L 320.218031 246.173579 
L 320.87499 195.128067 
L 321.532276 257.063582 
L 322.184334 192.037481 
L 322.837047 169.987765 
L 323.490412 242.923821 
L 324.147045 227.050855 
L 324.79845 231.839274 
L 325.457369 231.436923 
L 326.106815 229.716983 
L 326.759853 170.394538 
L 327.416159 228.677945 
L 328.070178 236.110384 
L 328.728117 234.739738 
L 329.382136 120.458807 
L 330.685927 230.512842 
L 331.346806 179.785674 
L 331.999845 201.583367 
L 332.652884 246.173579 
L 333.309516 240.469922 
L 333.966802 246.514029 
L 334.618534 247.743189 
L 335.270593 243.927488 
L 335.922325 241.500118 
L 336.577324 216.74006 
L 337.23657 226.356689 
L 337.889936 255.516079 
L 338.546568 255.701779 
L 339.203527 271.053015 
L 339.855259 257.846177 
L 340.514178 278.414711 
L 341.171464 283.959195 
L 341.82973 286.183179 
L 342.487996 280.921667 
L 343.145608 279.754407 
L 343.801587 282.137562 
L 344.455606 293.018723 
L 345.76005 276.557706 
L 346.412436 298.045899 
L 347.067108 282.327684 
L 347.722434 287.089574 
L 348.376779 280.735966 
L 349.033738 210.399717 
L 349.67959 259.566117 
L 350.337203 279.913579 
L 350.991875 271.685281 
L 351.651774 278.896648 
L 352.304486 263.563098 
L 352.962426 284.299646 
L 353.617424 268.802503 
L 354.274384 277.517159 
L 354.925136 269.815012 
L 355.578501 273.701457 
L 356.232847 258.230842 
L 356.886539 286.435201 
L 357.535004 274.864295 
L 358.192617 289.941402 
L 358.845656 284.538404 
L 359.504575 284.171424 
L 360.163494 279.232677 
L 360.815879 283.906138 
L 361.467612 277.543687 
L 362.125877 276.279156 
L 362.776629 286.80218 
L 363.432282 279.077927 
L 364.093488 282.411692 
L 364.749467 282.50012 
L 365.403812 247.62381 
L 366.063385 290.485239 
L 366.71577 283.415358 
L 367.373709 278.180375 
L 368.031975 279.785357 
L 368.688281 277.344723 
L 369.344587 283.769073 
L 370.006446 282.89805 
L 370.658505 279.166355 
L 371.312524 282.186198 
L 371.970136 281.54509 
L 372.629055 281.841326 
L 373.283728 281.651204 
L 373.936113 282.623921 
L 374.595686 279.88705 
L 375.245784 268.846717 
L 375.899477 293.509503 
L 376.553169 280.886295 
L 377.203921 279.816307 
L 377.860227 291.71882 
L 378.512285 283.861924 
L 379.169244 279.833993 
L 379.82751 279.595235 
L 380.485776 291.241305 
L 381.138162 280.758073 
L 381.794794 284.206796 
L 382.445219 283.136808 
L 383.103158 277.225344 
L 383.757831 274.576902 
L 384.414463 276.708035 
L 385.072402 256.714289 
L 385.728708 291.201512 
L 386.384687 277.764759 
L 387.034459 280.877452 
L 387.690438 271.610116 
L 388.343804 280.691752 
L 388.996189 278.671154 
L 389.651515 283.742545 
L 390.308147 285.192777 
L 390.960206 278.118474 
L 391.616512 281.646783 
L 392.270204 281.655626 
L 392.931083 284.494189 
L 393.582489 282.296734 
L 394.233567 278.927598 
L 394.88922 273.692614 
L 395.541278 297.64797 
L 396.195951 284.940755 
L 396.854217 283.857502 
L 397.509869 286.713752 
L 398.823787 276.531178 
L 399.475846 292.165386 
L 400.132478 289.866238 
L 400.781597 279.860521 
L 401.434962 278.317439 
L 402.088001 286.563423 
L 402.74104 281.492032 
L 403.400939 287.332753 
L 404.056918 274.302773 
L 404.707671 274.223187 
L 405.367243 297.245619 
L 406.022569 282.31442 
L 406.685408 283.587794 
L 407.337467 283.508208 
L 407.989199 288.225884 
L 408.648772 282.115455 
L 409.302137 287.69089 
L 409.957136 280.912824 
L 410.610502 284.856747 
L 411.267461 277.238608 
L 411.92736 283.110279 
L 412.580072 283.265029 
L 413.231151 282.986479 
L 413.883536 279.918 
L 414.546049 265.871089 
L 415.196801 286.037271 
L 415.8567 284.671047 
L 416.506799 280.638695 
L 417.165718 287.673204 
L 417.813203 277.835502 
L 418.474083 277.862031 
L 419.127448 286.567844 
L 419.784081 278.308596 
L 420.433526 286.943666 
L 421.096692 280.50163 
L 421.747117 275.629204 
L 422.40277 281.748476 
L 423.054502 282.455906 
L 423.708847 282.181777 
L 424.364827 276.747828 
L 425.019172 306.791506 
L 425.675478 287.208953 
L 426.328517 280.674066 
L 427.634268 286.828709 
L 428.28796 283.273872 
L 428.941326 284.662204 
L 429.595671 287.65994 
L 430.249363 279.617342 
L 430.903382 280.360144 
L 431.557728 281.580461 
L 432.21338 280.62543 
L 432.866746 285.776407 
L 433.521745 284.578197 
L 434.174784 278.556197 
L 434.836316 297.316362 
L 435.486088 279.776514 
L 436.140434 285.29447 
L 436.797066 166.658422 
L 437.453372 213.521252 
L 438.106411 239.793442 
L 439.415429 247.672446 
L 440.066507 230.778128 
L 440.717913 291.276677 
L 441.373239 277.472944 
L 442.023337 294.495484 
L 442.67899 286.130122 
L 443.331048 279.679242 
L 443.988988 281.102946 
L 444.646273 292.788809 
L 445.299312 293.690782 
L 445.957251 288.98195 
L 446.610617 293.023145 
L 447.260716 134.585304 
L 447.916368 215.073177 
L 448.574634 204.368874 
L 449.223752 116.629841 
L 450.536037 158.60256 
L 451.189403 97.007495 
L 451.849629 70.302004 
L 452.501687 186.32056 
L 453.154726 221.249928 
L 453.807112 171.782869 
L 454.462764 148.521679 
L 455.120376 207.088059 
L 455.769495 219.667052 
L 456.425147 225.388394 
L 457.733185 231.096472 
L 458.387858 211.960484 
L 459.044817 178.410606 
L 459.703082 198.20981 
L 460.355795 265.734024 
L 461.012754 239.315927 
L 461.668733 238.378582 
L 462.322425 247.522117 
L 462.975464 261.365642 
L 463.636343 240.297486 
L 464.288729 257.072425 
L 464.937194 247.433689 
L 465.596113 262.12613 
L 466.251765 259.773925 
L 466.908071 268.846717 
L 467.565357 261.05172 
L 468.217089 249.334907 
L 468.872088 209.771872 
L 469.52578 202.909799 
L 470.178819 254.676005 
L 470.837738 217.328111 
L 471.495024 247.911204 
L 472.146756 272.277754 
L 472.806329 282.986479 
L 473.448914 283.720437 
L 474.104566 227.435521 
L 474.762832 194.239357 
L 475.415544 194.044814 
L 476.070543 179.980217 
L 476.727829 212.473371 
L 478.034886 263.554255 
L 478.699033 253.853618 
L 479.353051 201.99014 
L 480.010991 240.810373 
L 480.664029 255.648722 
L 481.325235 171.831505 
L 481.975661 200.787508 
L 482.630333 223.022925 
L 483.285005 139.249922 
L 483.940984 215.440157 
L 484.60317 185.140036 
L 485.258169 221.426785 
L 485.908595 231.36618 
L 486.559673 252.712887 
L 487.214672 145.532787 
L 489.177056 218.221242 
L 489.838589 220.58229 
L 490.495548 220.299318 
L 491.148913 224.371463 
L 491.810446 230.645485 
L 492.463811 222.828381 
L 493.126324 196.896642 
L 493.776423 228.315387 
L 494.432075 223.664033 
L 495.085767 220.88737 
L 495.74044 224.689807 
L 496.398379 225.503352 
L 497.049457 223.288211 
L 497.701516 225.936653 
L 499.018048 226.887262 
L 499.67272 226.095825 
L 500.326412 227.974936 
L 500.982391 227.784814 
L 501.63935 229.058189 
L 502.953595 207.561153 
L 503.608921 226.891684 
L 504.263593 230.119334 
L 504.920226 239.758071 
L 505.577511 242.671799 
L 506.23153 242.777913 
L 506.888163 242.220812 
L 507.545122 241.013759 
L 508.198161 242.698328 
L 508.851853 242.698328 
L 509.505872 234.894488 
L 510.161524 237.494294 
L 510.81489 238.971055 
L 511.472175 241.203881 
L 512.129134 242.698328 
L 512.780867 225.507773 
L 513.442399 241.314417 
L 514.100338 242.035112 
L 514.757624 238.83399 
L 515.41295 236.43757 
L 516.065989 239.063905 
L 516.719354 239.063905 
L 517.37664 241.080081 
L 518.036212 239.002005 
L 518.689251 239.002005 
L 519.996309 242.543577 
L 520.648041 242.384405 
L 521.3001 241.623918 
L 521.954119 244.029181 
L 522.615978 213.065844 
L 523.26477 225.096579 
L 523.922383 230.29177 
L 524.574441 231.945388 
L 525.22552 215.873458 
L 525.882479 226.05161 
L 526.539438 241.265781 
L 527.193131 242.309241 
L 527.845516 210.65616 
L 528.496921 239.192127 
L 529.157474 239.47952 
L 531.116264 219.728953 
L 531.76963 226.277104 
L 532.422668 210.16538 
L 533.078647 236.229762 
L 533.73528 240.465501 
L 534.387339 240.412444 
L 535.047238 230.207763 
L 536.352009 241.177353 
L 537.008315 237.812638 
L 537.659067 233.576899 
L 538.317986 240.717523 
L 538.972331 241.274624 
L 539.627657 240.810373 
L 540.280369 180.594797 
L 540.936675 229.628554 
L 541.594287 163.050528 
L 542.24896 184.29112 
L 542.901018 236.114805 
L 543.554384 239.678485 
L 544.21265 235.203989 
L 544.869282 225.777481 
L 545.521014 228.394973 
L 546.176993 221.139392 
L 546.833626 230.331563 
L 547.484378 227.877664 
L 548.14101 232.07361 
L 548.791109 215.533007 
L 549.450681 220.36564 
L 550.10372 226.776726 
L 550.768193 237.578301 
L 551.420905 239.267291 
L 552.077538 180.833555 
L 552.729596 230.977093 
L 553.383615 222.713424 
L 554.036654 238.007181 
L 554.694267 209.533115 
L 556.013412 280.059486 
L 556.664491 284.184689 
L 557.319816 283.685066 
L 557.975468 282.035869 
L 558.630794 285.44922 
L 559.2871 278.441239 
L 559.946346 282.119877 
L 561.24981 285.365213 
L 561.906769 271.083965 
L 562.561115 296.701782 
L 563.2135 279.833993 
L 563.875033 283.583373 
L 564.531992 285.44922 
L 565.190911 281.30191 
L 565.841336 283.742545 
L 566.498949 279.091191 
L 567.155908 277.623273 
L 567.812214 282.977636 
L 568.472766 273.820836 
L 569.132992 282.862678 
L 569.785378 286.134543 
L 570.44299 282.818464 
L 571.096356 284.998233 
L 571.752661 261.865265 
L 572.40766 297.121819 
L 573.059392 282.394006 
L 573.718311 283.340194 
L 574.371024 290.578089 
L 575.028963 282.301156 
L 575.680368 286.983459 
L 576.332754 282.491277 
L 576.985466 281.005674 
L 577.644712 280.37783 
L 578.302978 289.04385 
L 578.956016 283.331351 
L 579.613302 283.304822 
L 580.269281 285.002655 
L 580.921993 278.516404 
L 581.574379 281.049888 
L 582.224804 298.20065 
L 582.880457 274.647645 
L 583.536109 284.626832 
L 584.191435 282.871521 
L 584.850027 277.782445 
L 585.505026 286.368879 
L 586.160025 283.158915 
L 586.813717 281.960705 
L 587.468716 276.579814 
L 588.121755 279.232677 
L 588.785901 283.561266 
L 589.433713 278.662311 
L 590.095572 289.357772 
L 590.754165 274.678595 
L 591.40557 285.913471 
L 592.064816 292.130014 
L 592.718182 285.48017 
L 593.374814 281.571618 
L 594.029813 280.537001 
L 594.687426 284.569354 
L 595.336217 277.499473 
L 595.98893 281.098524 
L 596.645562 282.982057 
L 597.303828 281.677733 
L 597.950333 282.168512 
L 598.612519 282.420534 
L 599.265558 286.665116 
L 599.919904 280.298244 
L 600.572942 278.87454 
L 601.228268 283.919402 
L 601.885554 291.157298 
L 602.542513 273.166463 
L 603.198492 306.291883 
L 603.859044 280.890717 
L 604.51045 279.988743 
L 605.170022 280.983567 
L 605.828288 284.808111 
L 606.486554 286.780073 
L 607.14188 281.200217 
L 607.794265 283.203129 
L 608.453184 278.993919 
L 609.10655 286.103593 
L 609.764489 277.225344 
L 610.410668 285.400584 
L 611.06828 281.624675 
L 611.723279 227.859979 
L 612.378278 143.547561 
L 613.03687 221.647857 
L 613.688276 227.687543 
L 614.345562 92.7806 
L 615.005461 204.952504 
L 615.655233 240.717523 
L 616.307945 257.863863 
L 616.962944 219.123215 
L 617.614676 248.963506 
L 618.272942 243.640094 
L 618.931208 241.955526 
L 619.59176 245.788913 
L 620.240226 265.349359 
L 620.895878 289.901609 
L 621.55545 271.915196 
L 622.207183 265.893196 
L 622.863488 256.842511 
L 623.515874 233.227605 
L 624.822605 262.961782 
L 625.480871 273.842943 
L 626.139136 250.404896 
L 626.792502 231.653573 
L 627.442927 225.003729 
L 628.100213 253.06218 
L 628.752925 211.659827 
L 629.418705 190.40597 
L 630.060963 270.199677 
L 630.722496 259.044387 
L 632.033147 242.189862 
L 633.345105 288.796249 
L 634.007618 189.30061 
L 634.659677 182.38548 
L 635.312062 186.722911 
L 635.972615 202.290798 
L 636.62304 209.754186 
L 637.278366 227.607957 
L 637.941205 169.921444 
L 638.592937 234.421394 
L 639.245649 235.743404 
L 639.901302 238.15751 
L 640.557607 206.50885 
L 641.207706 181.700157 
L 641.869565 244.55091 
L 642.518357 226.51144 
L 643.17695 223.248418 
L 643.833256 247.889097 
L 644.488255 176.407694 
L 645.144887 209.97968 
L 645.802826 212.694443 
L 646.459132 143.733261 
L 647.120011 179.011922 
L 647.770763 200.212721 
L 648.431969 227.130441 
L 649.081414 225.459137 
L 649.73086 154.251864 
L 650.391086 186.71849 
L 651.696837 282.875943 
L 652.352816 281.368232 
L 653.010102 272.436925 
L 653.66216 272.874648 
L 654.311932 281.456661 
L 654.970198 263.090004 
L 655.628464 280.267294 
L 656.278889 282.071241 
L 656.930295 270.91595 
L 657.594114 273.139934 
L 658.240619 284.485346 
L 659.552577 263.063475 
L 660.211497 274.833345 
L 660.868782 259.08418 
L 661.520188 287.584775 
L 662.180087 280.492787 
L 662.837373 281.540668 
L 663.495965 288.840464 
L 664.158478 280.214236 
L 664.806943 287.288539 
L 665.463249 287.628989 
L 666.117595 278.613676 
L 666.770307 294.959735 
L 667.423019 282.318841 
L 668.080631 282.296734 
L 668.740531 280.068329 
L 669.398143 268.718495 
L 670.047588 291.108662 
L 670.701934 280.40878 
L 671.353993 285.26352 
L 672.014872 285.015919 
L 672.667911 275.173796 
L 673.325197 283.835395 
L 673.983136 276.517914 
L 674.640095 280.837659 
L 675.28856 283.154493 
L 675.947153 282.433799 
L 676.598558 281.107367 
L 677.252577 280.116965 
L 677.904962 285.935578 
L 678.560941 279.467013 
L 679.217574 271.318301 
L 679.875513 294.995107 
L 680.528552 280.121386 
L 681.182897 281.996076 
L 681.832016 274.691859 
L 682.490282 285.997478 
L 683.143647 285.639342 
L 683.80028 283.428622 
L 684.452012 279.471435 
L 685.109951 281.102946 
L 685.76691 281.965126 
L 686.419949 284.118367 
L 687.077235 282.115455 
L 687.731907 281.695418 
L 688.383639 277.119229 
L 689.039945 267.630821 
L 689.69233 280.713859 
L 690.346023 284.538404 
L 691.006249 283.079329 
L 691.658307 277.946038 
L 692.3169 280.320351 
L 692.974186 280.682909 
L 693.630818 282.150827 
L 694.281243 280.360144 
L 694.933629 277.910667 
L 695.585688 282.035869 
L 696.23938 279.206148 
L 696.897972 282.25252 
L 697.549705 281.319596 
L 698.20797 282.615078 
L 698.860029 264.182099 
L 699.511761 307.145221 
L 700.1697 280.196551 
L 700.823066 283.839816 
L 701.481332 279.714614 
L 702.134044 286.368879 
L 702.785449 279.803043 
L 703.447635 285.475749 
L 704.103941 280.590059 
L 704.755347 282.106612 
L 705.409039 279.94895 
L 706.067631 277.004272 
L 706.723284 284.830219 
L 707.374362 281.876697 
L 708.026748 277.185551 
L 708.683707 274.979253 
L 709.339686 303.475426 
L 709.997625 288.575177 
L 710.653931 288.018076 
L 711.31187 281.469925 
L 711.973729 280.50163 
L 712.626768 276.544442 
L 713.27948 281.284225 
L 713.936113 274.466366 
L 714.586211 282.385163 
L 715.24121 285.984214 
L 715.892616 165.663598 
L 717.196407 238.184038 
L 717.852059 231.927702 
L 718.503464 193.341805 
L 719.16075 164.845632 
L 719.814442 155.595982 
L 720.466501 95.570527 
L 721.11856 194.102293 
L 721.770946 211.765941 
L 722.426925 165.937727 
L 723.087804 225.176165 
L 723.74411 258.56245 
L 724.398128 175.107791 
L 725.056394 233.616692 
L 725.70878 185.436273 
L 726.360512 239.678485 
L 727.015511 253.835932 
L 727.667896 240.766159 
L 728.319302 250.002545 
L 728.976914 248.101326 
L 729.624726 219.835067 
L 730.282339 241.959947 
L 730.936684 177.681069 
L 731.587436 176.354637 
L 732.244722 164.04093 
L 732.900701 195.265131 
L 733.553087 139.983881 
L 734.211352 225.162901 
L 734.859491 245.085905 
L 735.521677 214.029718 
L 736.181576 203.630494 
L 736.835268 267.038349 
L 737.489287 283.570109 
L 738.145266 235.57539 
L 738.800919 157.152328 
L 739.456898 199.284219 
L 740.114183 212.371678 
L 740.769182 197.798616 
L 741.426142 205.783734 
L 742.083101 209.020228 
L 742.738426 162.608384 
L 743.397345 182.301472 
L 744.053978 168.148447 
L 744.706037 218.110706 
L 745.365282 205.743941 
L 746.019301 251.908185 
L 746.672994 170.213259 
L 747.325706 238.780933 
L 747.979398 229.867312 
L 748.63407 216.160851 
L 749.286782 148.384615 
L 749.936555 157.192121 
L 750.591553 195.93719 
L 751.248839 266.786327 
L 751.897305 251.669427 
L 752.554264 277.694016 
L 753.205669 283.379987 
L 753.862955 265.181344 
L 754.513054 263.793012 
L 755.165439 188.518016 
L 755.822398 213.981082 
L 756.475764 234.699945 
L 757.128803 241.000495 
L 757.782495 209.024649 
L 758.439454 231.88791 
L 759.091513 232.422904 
L 759.751739 239.811128 
L 760.408698 233.820078 
L 761.06729 195.888554 
L 761.718042 81.594359 
L 763.03098 226.316897 
L 763.691206 235.425061 
L 764.351105 239.722699 
L 764.998917 265.092915 
L 765.662083 241.10661 
L 766.314142 184.582935 
L 766.971755 236.035219 
L 767.621853 217.986906 
L 768.279139 272.843698 
L 768.931198 280.731545 
L 769.585543 235.641711 
L 770.241849 273.6484 
L 770.893908 279.537756 
L 771.552827 247.287781 
L 772.203579 256.692182 
L 772.862825 225.105422 
L 774.176743 144.414163 
L 774.835009 178.05247 
L 775.486741 224.066384 
L 776.13684 225.888017 
L 776.793146 182.544652 
L 777.450105 78.928232 
L 778.10151 110.276233 
L 778.756509 135.447485 
L 779.414121 211.659827 
L 780.0701 165.163975 
L 780.731633 215.979572 
L 781.381078 155.516396 
L 782.036731 201.86634 
L 782.689443 226.701562 
L 783.342155 230.946143 
L 783.993561 225.123108 
L 784.646926 233.965986 
L 785.303232 138.546913 
L 785.953657 196.58272 
L 786.61127 220.825469 
L 787.263982 106.902675 
L 787.917021 150.52017 
L 788.575287 218.857929 
L 789.226692 223.752462 
L 789.884631 222.691317 
L 790.541917 188.540123 
L 791.197896 201.472831 
L 791.853548 229.548968 
L 792.509527 264.204206 
L 793.165506 257.072425 
L 793.824099 281.483189 
L 794.478771 281.30191 
L 795.127563 279.564285 
L 795.783542 280.417623 
L 796.438868 279.7942 
L 797.094193 283.830973 
L 797.753439 282.933421 
L 798.408765 279.14867 
L 799.06507 285.873678 
L 799.721376 171.893405 
L 800.376375 187.14737 
L 801.037908 256.917675 
L 801.697154 289.455044 
L 802.352806 280.59448 
L 803.006498 281.350546 
L 803.662151 280.094858 
L 804.317803 284.843483 
L 804.970188 284.701997 
L 805.627801 270.694879 
L 806.276593 260.211647 
L 806.932898 295.145436 
L 807.585611 280.965881 
L 808.24355 282.760985 
L 809.548321 279.497963 
L 810.2043 280.399937 
L 810.859299 280.130229 
L 811.517238 279.480278 
L 812.179751 283.313665 
L 812.833769 278.127317 
L 813.491055 281.863433 
L 814.140827 278.609254 
L 814.80334 276.725721 
L 815.455072 282.659292 
L 816.110724 275.014624 
L 816.773237 282.526649 
L 817.425949 281.20906 
L 818.076375 283.349037 
L 818.733007 282.256941 
L 819.386699 286.682802 
L 820.036798 271.924039 
L 820.69539 290.82569 
L 821.353656 282.579706 
L 822.005715 281.408025 
L 822.660061 284.091838 
L 823.320287 278.671154 
L 823.974632 282.995321 
L 824.627998 279.157513 
L 825.283323 284.392496 
L 825.937669 271.641066 
L 826.589401 300.707606 
L 827.245707 282.292313 
L 827.899072 280.846502 
L 828.557992 285.922314 
L 829.212337 279.70135 
L 829.862436 281.57604 
L 830.518088 279.21057 
L 831.168514 281.876697 
L 831.824493 281.456661 
L 832.476551 285.776407 
L 833.133184 284.06531 
L 833.796677 284.308489 
L 834.448735 281.045467 
L 835.110595 286.333508 
L 835.757753 274.965988 
L 836.417652 301.357557 
L 837.072978 281.642361 
L 837.72471 277.579059 
L 839.040262 280.833238 
L 839.697221 280.943774 
L 840.36104 279.621764 
L 841.010486 282.526649 
L 841.667771 282.243677 
L 842.318523 279.573128 
L 842.970909 284.09626 
L 843.628848 283.901716 
L 844.279927 279.546599 
L 844.933292 279.546599 
L 845.588945 279.918 
L 846.238717 279.055819 
L 846.894696 300.13724 
L 847.553942 182.29263 
L 848.203387 151.572472 
L 848.859039 154.273971 
L 849.512732 248.883921 
L 850.164137 282.380741 
L 850.821423 280.461837 
L 851.472501 282.212727 
L 852.791973 282.827307 
L 852.791973 282.827307 
" clip-path="url(#p36c6cc6865)" style="fill: none; stroke: #e74c3c; stroke-width: 2; stroke-linecap: square"/>
   </g>
   <g id="line2d_20">
    <path d="M 47.45 329.181672 
L 48.104999 355.117832 
L 48.758038 334.774792 
L 49.412057 339.86829 
L 50.067382 326.427116 
L 50.719441 298.881551 
L 51.376074 191.648394 
L 52.03826 216.12548 
L 52.692605 292.125593 
L 53.353484 316.328549 
L 54.000316 299.814475 
L 54.657275 219.848331 
L 55.325668 211.712884 
L 55.96466 230.809078 
L 56.618352 209.944308 
L 57.269758 140.191689 
L 57.922143 136.345037 
L 58.588576 163.908287 
L 59.224627 209.400471 
L 59.882893 204.97019 
L 60.537892 207.362188 
L 61.190278 280.811131 
L 61.845603 227.767128 
L 62.498315 232.966741 
L 63.157561 272.131846 
L 63.831834 90.50798 
L 64.462006 207.127852 
L 65.114718 236.795707 
L 65.9703 232.568811 
L 66.424062 212.075442 
L 67.079715 212.075442 
L 67.731447 73.083089 
L 68.387752 220.290475 
L 69.042751 233.435413 
L 69.698404 232.988848 
L 70.359936 250.793982 
L 71.013629 254.764434 
L 71.675488 246.66878 
L 72.332447 250.126345 
L 72.981892 244.493432 
L 73.646692 152.969647 
L 74.29385 148.711801 
L 74.948196 154.415457 
L 76.260481 245.620899 
L 77.568192 137.653783 
L 78.220904 60.941818 
L 78.87427 215.731972 
L 79.523388 233.771442 
L 80.181001 268.05528 
L 80.830446 292.244972 
L 81.486752 244.895783 
L 82.137504 153.74782 
L 82.792176 227.12602 
L 83.449789 185.445116 
L 84.104134 228.90786 
L 84.75456 225.618309 
L 85.411192 232.957898 
L 86.062271 232.732404 
L 86.71923 236.751492 
L 87.369655 206.301043 
L 88.022367 213.835175 
L 88.68488 233.430992 
L 89.336286 234.792795 
L 89.988018 232.316789 
L 90.63975 233.727228 
L 91.294422 234.567301 
L 91.951381 232.223939 
L 92.607033 234.372758 
L 93.272813 201.62316 
L 93.916378 229.354425 
L 94.570397 71.637279 
L 95.230623 162.807348 
L 95.883335 141.814357 
L 96.536701 230.90635 
L 97.19464 256.559538 
L 97.846372 135.129141 
L 98.504311 198.284974 
L 99.16029 205.810263 
L 99.812349 195.083852 
L 100.471595 205.328326 
L 101.777346 129.239785 
L 102.433651 185.626395 
L 103.090284 163.466143 
L 103.743976 168.37394 
L 104.408449 155.295324 
L 105.707993 87.355494 
L 106.363972 225.149637 
L 107.022238 182.544652 
L 107.672663 201.242917 
L 108.334522 228.138529 
L 108.988868 177.924248 
L 109.638967 236.680749 
L 110.301479 239.439727 
L 110.950925 223.504861 
L 111.608537 190.49882 
L 112.260923 204.753539 
L 112.917555 232.489225 
L 113.579741 214.688512 
L 114.231146 258.978066 
L 114.887125 266.158482 
L 115.542778 248.384298 
L 116.194837 248.459462 
L 117.507448 268.373623 
L 118.159834 246.788159 
L 118.817773 268.161394 
L 119.471792 282.995321 
L 120.126137 176.840995 
L 120.776563 161.821368 
L 121.439075 224.159234 
L 122.095381 157.554679 
L 122.750053 244.85599 
L 123.402765 238.453746 
L 124.060378 261.887372 
L 124.716357 289.348929 
L 125.371356 256.245616 
L 126.023088 271.592431 
L 126.67678 272.264489 
L 127.340926 266.976448 
L 127.997232 285.312155 
L 128.646677 157.638686 
L 129.305596 218.729707 
L 129.965822 223.358954 
L 130.616901 219.065737 
L 131.276147 223.058296 
L 131.927226 211.005454 
L 132.581245 156.502377 
L 133.240491 195.760332 
L 133.899083 127.356252 
L 134.559636 149.32196 
L 135.211041 125.04826 
L 135.8729 125.923705 
L 136.53476 191.471537 
L 137.187145 244.267938 
L 137.839531 248.888342 
L 138.497143 257.037054 
L 139.154102 251.532362 
L 139.810081 279.254784 
L 140.462793 265.061965 
L 141.121386 280.355722 
L 141.780958 245.802178 
L 142.441184 221.22782 
L 143.091936 253.853618 
L 143.749222 279.688085 
L 144.411081 263.408347 
L 145.06608 290.883168 
L 145.719119 251.700377 
L 146.376405 249.454286 
L 147.025197 262.081916 
L 147.679869 283.609901 
L 148.332908 262.798189 
L 148.98464 290.087309 
L 149.638006 282.508963 
L 150.290718 278.467768 
L 150.947677 277.220922 
L 151.599409 248.437355 
L 152.251141 283.331351 
L 152.906794 267.272685 
L 154.214178 296.073938 
L 154.862643 280.338037 
L 155.520583 282.022605 
L 156.171661 267.59545 
L 156.8296 229.571076 
L 157.4895 227.413413 
L 158.139925 248.583263 
L 158.797211 274.435416 
L 159.446983 287.399075 
L 160.102962 261.829894 
L 160.753714 245.669534 
L 161.40904 258.6553 
L 162.063712 224.075227 
L 162.719364 225.733267 
L 163.378283 264.358957 
L 164.034916 224.225556 
L 164.687628 136.902138 
L 165.3472 75.05063 
L 165.997299 164.204523 
L 166.653278 199.894378 
L 167.309584 202.100676 
L 167.971116 206.584015 
L 168.626769 206.690129 
L 169.281441 217.465176 
L 169.939054 224.69865 
L 170.597973 227.661014 
L 171.253952 197.122136 
L 171.90405 216.483616 
L 172.557743 223.739198 
L 173.213068 225.224801 
L 173.870354 190.702206 
L 175.177412 268.718495 
L 175.838944 281.257696 
L 176.48643 276.071348 
L 177.146982 282.172934 
L 177.799041 272.905598 
L 178.456327 279.918 
L 179.107079 271.265244 
L 179.762731 269.890177 
L 180.416424 279.17962 
L 181.073056 256.280988 
L 181.731975 291.285519 
L 182.388934 279.360899 
L 183.044586 279.214991 
L 183.697299 283.671802 
L 184.353931 280.510473 
L 185.014484 267.232892 
L 185.663929 277.313773 
L 186.321215 280.307087 
L 186.976214 189.419989 
L 187.637746 208.476391 
L 188.295685 202.533977 
L 188.947418 250.833775 
L 189.599803 281.514139 
L 190.256109 284.640097 
L 190.907514 267.825365 
L 191.561206 290.056359 
L 192.217839 283.689487 
L 192.878065 281.11621 
L 193.531757 272.958655 
L 194.190023 288.769721 
L 194.845022 281.284225 
L 195.495447 280.987988 
L 196.152733 259.725289 
L 196.803485 282.964371 
L 197.458484 277.755916 
L 198.111849 275.173796 
L 198.771749 281.859012 
L 199.422501 282.818464 
L 200.0775 281.929755 
L 200.736419 270.571078 
L 201.395338 287.708575 
L 202.043803 284.06531 
L 202.701089 293.421074 
L 203.359028 274.935038 
L 204.0088 283.158915 
L 204.662819 284.047624 
L 205.321085 279.617342 
L 205.969877 281.63794 
L 206.624549 231.547459 
L 207.287062 193.549613 
L 207.934874 217.270633 
L 208.59118 210.930289 
L 209.244545 262.767239 
L 209.898564 275.266646 
L 210.548663 243.954016 
L 211.204968 289.397565 
L 211.861928 280.223079 
L 212.521173 279.590814 
L 213.173559 278.034467 
L 213.830845 277.853188 
L 214.483557 279.696928 
L 215.141169 279.745564 
L 215.790288 221.904301 
L 216.448554 205.284112 
L 217.097019 205.509605 
L 217.759532 280.284979 
L 218.410937 284.95844 
L 219.073123 282.040291 
L 219.730736 285.35637 
L 220.386388 272.976341 
L 221.039753 264.549078 
L 221.697039 195.826654 
L 222.352692 217.867527 
L 223.006057 220.445226 
L 223.663669 221.740707 
L 224.322589 188.606444 
L 224.982488 223.098089 
L 225.6352 223.279368 
L 226.286932 220.087089 
L 226.944871 222.33318 
L 227.606404 192.797968 
L 228.259443 261.08267 
L 228.911502 260.680319 
L 229.56258 287.403496 
L 230.225093 274.143601 
L 230.882052 270.79215 
L 231.536071 276.75225 
L 232.190743 274.806817 
L 232.847376 276.35432 
L 233.499435 255.785787 
L 234.15182 251.081376 
L 234.806166 240.332858 
L 235.458551 235.79204 
L 236.117144 255.317114 
L 236.764302 291.351841 
L 237.418974 259.398102 
L 238.075934 257.88597 
L 238.731586 279.352056 
L 239.394752 266.185011 
L 240.044524 255.639879 
L 240.70083 257.748905 
L 241.362362 280.125808 
L 242.673994 267.913793 
L 243.332913 245.112433 
L 243.988565 244.776404 
L 244.644544 251.527941 
L 245.29497 272.45019 
L 245.955849 258.734886 
L 246.606928 269.063368 
L 247.25964 267.515864 
L 247.914639 246.478658 
L 248.567024 271.331566 
L 249.22137 276.540021 
L 249.874409 255.600086 
L 250.525161 268.006644 
L 251.181793 275.045574 
L 251.835159 271.822345 
L 252.486891 271.154708 
L 253.14483 279.060241 
L 253.804729 278.405868 
L 254.462015 286.505944 
L 255.116034 270.372113 
L 255.77234 281.757319 
L 256.428319 266.083318 
L 257.083971 293.239795 
L 257.734396 256.683339 
L 258.391682 276.407378 
L 259.048314 261.591136 
L 259.702007 262.325095 
L 260.356352 259.614753 
L 261.010698 258.182207 
L 261.66929 224.800343 
L 262.324616 224.800343 
L 262.978635 266.529883 
L 263.634941 251.687113 
L 264.28994 256.04223 
L 264.943958 267.511443 
L 265.594057 268.050858 
L 266.251996 246.951752 
L 266.903075 257.899234 
L 267.561341 264.531393 
L 268.216993 259.658967 
L 268.864805 258.99133 
L 269.519804 259.539588 
L 270.17317 228.611623 
L 270.831109 259.468845 
L 271.484148 268.820188 
L 272.149274 265.022172 
L 272.796106 218.291985 
L 273.451431 247.83604 
L 274.105777 250.599439 
L 274.756856 262.70976 
L 275.418388 262.440052 
L 276.06914 257.877127 
L 276.723486 251.496991 
L 277.380772 255.577979 
L 278.033484 268.678702 
L 278.690443 266.109846 
L 279.354916 257.660477 
L 280.004034 242.242919 
L 280.66524 270.531285 
L 281.314359 252.757101 
L 281.972298 243.25985 
L 282.627297 255.140257 
L 283.28981 259.446738 
L 283.945135 260.777591 
L 284.605361 256.360574 
L 285.259707 269.907862 
L 285.912092 265.769396 
L 286.568725 197.303415 
L 287.222417 216.934603 
L 287.880029 221.851243 
L 288.530782 222.005994 
L 289.180554 206.606122 
L 289.841433 211.376855 
L 290.501332 222.496773 
L 291.154371 223.394325 
L 291.80937 223.725933 
L 292.461429 227.179077 
L 293.124268 225.264594 
L 293.776 226.63524 
L 294.431326 227.059698 
L 295.092205 225.149637 
L 295.740344 224.932986 
L 296.395996 225.923388 
L 297.053282 228.271172 
L 297.708934 229.77004 
L 298.358706 227.952829 
L 299.012072 175.642786 
L 299.670338 143.36186 
L 300.319783 165.513269 
L 300.975109 232.988848 
L 301.630108 268.833453 
L 302.28184 291.926628 
L 302.937492 283.923824 
L 303.588571 280.572373 
L 304.239976 280.815552 
L 304.896935 277.088279 
L 305.550301 282.442642 
L 306.858339 279.30342 
L 307.517258 285.077819 
L 308.17389 261.038456 
L 308.827909 259.14608 
L 309.482581 284.839061 
L 310.142807 268.966096 
L 310.8014 259.583803 
L 311.457705 278.949705 
L 312.113684 263.005996 
L 312.771624 296.57356 
L 313.431523 282.707928 
L 314.085215 280.227501 
L 314.737927 272.14511 
L 315.389986 282.601813 
L 316.702597 277.114808 
L 317.351389 285.250255 
L 318.004102 252.93838 
L 318.661387 263.063475 
L 319.309526 266.295547 
L 319.962892 250.453531 
L 320.619197 238.440482 
L 321.27387 267.732514 
L 321.923968 269.996291 
L 322.582234 254.499148 
L 323.237886 252.518343 
L 323.892232 244.51996 
L 324.543964 258.62435 
L 325.852982 278.087524 
L 326.511901 279.033712 
L 327.170494 247.035759 
L 327.821572 225.410502 
L 328.485392 251.037161 
L 329.135164 260.092268 
L 329.787223 251.090219 
L 330.442875 269.399397 
L 331.098854 251.174226 
L 331.746993 276.575392 
L 332.401665 276.066927 
L 333.060911 277.875295 
L 333.716563 271.508423 
L 334.374176 262.493109 
L 335.6845 249.317222 
L 336.340479 254.680427 
L 336.998745 252.368014 
L 337.650477 268.983782 
L 338.306456 263.863755 
L 338.961128 261.865265 
L 339.615801 249.290693 
L 340.266879 242.260605 
L 340.923839 246.925223 
L 341.57165 252.407807 
L 342.225669 267.144463 
L 342.883935 254.578734 
L 343.535014 267.308056 
L 344.189686 259.566117 
L 344.841092 268.899774 
L 345.497397 264.146728 
L 346.148476 256.802718 
L 346.802822 265.910882 
L 347.454227 251.421826 
L 348.108246 286.850816 
L 348.761612 278.489875 
L 349.416284 277.649802 
L 350.068996 232.957898 
L 350.725629 251.107904 
L 351.380954 278.153846 
L 352.03432 258.43865 
L 352.685725 282.46917 
L 353.346931 269.792905 
L 353.99899 271.579166 
L 354.656602 270.615293 
L 355.307028 262.258773 
L 355.96268 267.904951 
L 356.617352 266.640419 
L 357.270065 264.469493 
L 357.927677 261.502707 
L 358.576469 268.17908 
L 359.228201 276.402956 
L 359.88712 263.93892 
L 360.547673 276.181884 
L 361.202999 284.847904 
L 361.852444 277.49063 
L 362.512016 254.13659 
L 363.165382 261.759151 
L 363.818748 261.630929 
L 364.475053 252.239793 
L 365.128745 235.650554 
L 365.778844 274.545952 
L 366.43319 280.576794 
L 367.087535 194.747823 
L 367.736981 180.316246 
L 368.39198 229.420747 
L 369.045672 235.650554 
L 369.706551 236.875293 
L 370.365797 233.143598 
L 371.021449 233.532685 
L 371.680369 236.388934 
L 372.333734 236.707278 
L 372.992 232.542282 
L 373.647326 236.525999 
L 374.298731 236.075012 
L 374.951116 237.286486 
L 375.612976 232.661661 
L 376.266995 238.409532 
L 376.92428 201.587789 
L 377.579933 235.482539 
L 378.237872 162.480162 
L 378.891237 198.422039 
L 379.552117 250.037916 
L 380.857868 273.365428 
L 381.512213 248.945821 
L 382.166886 232.175303 
L 382.817638 275.814905 
L 383.47427 241.522225 
L 384.127636 247.685711 
L 384.778388 268.775974 
L 385.432733 253.150609 
L 386.092306 253.190402 
L 386.751552 232.666083 
L 387.406224 274.57248 
L 388.059916 257.682584 
L 388.713608 275.368339 
L 389.367301 259.654546 
L 390.02622 264.756886 
L 390.678932 256.895568 
L 391.334584 259.216823 
L 391.99579 288.778564 
L 392.650136 270.734671 
L 393.302195 247.25241 
L 393.952947 245.797756 
L 394.610559 230.552635 
L 395.271439 276.447171 
L 395.921211 280.240765 
L 396.577843 251.992192 
L 397.225982 274.320458 
L 397.880327 253.61486 
L 398.534999 271.676438 
L 399.190325 237.932016 
L 399.841077 262.400259 
L 400.50065 272.879069 
L 401.156302 279.263627 
L 401.808034 247.28336 
L 402.45748 270.380956 
L 403.115745 258.155678 
L 403.771398 272.14511 
L 404.425417 263.107689 
L 405.082049 260.490198 
L 406.3927 285.329841 
L 407.046719 286.961352 
L 407.703678 275.978498 
L 408.354104 252.673094 
L 409.013349 246.182421 
L 409.667042 235.708033 
L 410.323674 259.866775 
L 410.980633 258.018613 
L 411.633019 257.969977 
L 412.285731 249.308379 
L 412.937136 166.826436 
L 413.592789 229.283682 
L 414.248768 227.789236 
L 414.908994 232.613025 
L 415.560726 233.094962 
L 416.211478 196.662306 
L 416.865497 233.39562 
L 417.524743 232.515754 
L 418.178108 235.407375 
L 418.838334 235.442746 
L 419.488433 233.081698 
L 420.144085 228.792902 
L 420.802351 228.532037 
L 421.45931 227.877664 
L 422.773555 231.569566 
L 423.42986 230.473049 
L 424.085186 232.064767 
L 424.742145 231.945388 
L 425.399431 143.264589 
L 426.050836 240.372651 
L 426.715962 260.335447 
L 427.371288 263.271283 
L 428.026287 257.996506 
L 428.676712 285.148562 
L 429.332365 278.954126 
L 429.985404 281.213482 
L 430.643016 260.715691 
L 431.290501 260.543255 
L 431.941253 270.305792 
L 432.599193 290.799161 
L 433.253865 274.926196 
L 433.904617 272.242382 
L 434.559616 280.192129 
L 435.210368 274.736074 
L 435.86602 287.20011 
L 436.518406 280.780181 
L 437.180919 269.036839 
L 437.828404 277.380094 
L 438.48765 273.882736 
L 439.135788 273.882736 
L 439.791441 281.160424 
L 440.44644 281.160424 
L 441.104052 293.792475 
L 441.755457 279.878207 
L 442.407843 258.465179 
L 443.060555 270.6993 
L 443.712287 257.368662 
L 444.364019 285.763142 
L 445.019018 277.101543 
L 445.673691 278.693261 
L 446.330323 239.819971 
L 446.988262 275.18706 
L 447.643588 243.220057 
L 448.305447 247.411581 
L 448.951299 262.64786 
L 449.615772 255.847687 
L 450.265544 149.16721 
L 450.919563 172.950129 
L 451.577502 214.551448 
L 452.2276 263.014839 
L 452.887826 276.7213 
L 453.537925 287.102838 
L 454.194557 265.35378 
L 454.84825 249.15805 
L 455.505535 290.905276 
L 456.157921 272.198168 
L 456.81586 279.590814 
L 457.466612 271.508423 
L 458.118998 267.002977 
L 458.774977 260.821806 
L 459.433896 277.052908 
L 460.089221 258.067249 
L 460.738667 283.662959 
L 462.055525 250.113081 
L 463.372383 275.717633 
L 464.029996 243.701994 
L 464.680095 246.797001 
L 465.338687 232.909262 
L 465.989112 238.113295 
L 466.642805 240.469922 
L 467.30107 272.910019 
L 467.949536 227.758286 
L 468.605841 225.428187 
L 469.2579 249.144785 
L 469.907999 235.911419 
L 470.560058 243.343858 
L 471.215057 265.685388 
L 471.871036 241.159667 
L 472.522441 240.142736 
L 473.17548 257.063582 
L 473.829172 246.929645 
L 474.481558 248.63632 
L 475.144397 253.066602 
L 475.792863 268.360359 
L 476.452762 233.30277 
L 477.109721 175.558778 
L 477.768967 220.042875 
L 478.427559 211.407805 
L 479.086478 214.34364 
L 479.743764 218.084177 
L 480.405297 219.101108 
L 481.057682 232.661661 
L 481.711048 226.843048 
L 482.363107 224.703071 
L 483.014512 230.375777 
L 483.675718 233.683014 
L 484.331697 223.221889 
L 484.989636 218.566114 
L 485.647248 238.515646 
L 486.301594 230.035327 
L 486.957573 240.080836 
L 487.612572 228.134108 
L 488.92551 234.775109 
L 489.580836 228.280015 
L 490.240082 238.400689 
L 490.895081 238.458168 
L 491.554653 234.885645 
L 492.207039 216.434981 
L 492.858444 172.494721 
L 493.514423 227.488578 
L 494.163542 230.070698 
L 494.819847 139.45773 
L 495.471253 152.91659 
L 496.130172 197.484694 
L 496.777657 226.741355 
L 497.432656 231.578409 
L 498.092882 241.849411 
L 498.746901 241.195038 
L 499.403207 264.195363 
L 500.059186 243.772737 
L 500.709611 290.224374 
L 501.365264 283.751388 
L 502.018302 267.453964 
L 502.674935 285.095505 
L 503.333201 253.919939 
L 503.9931 229.969005 
L 504.642872 182.297051 
L 505.96071 200.133135 
L 507.268421 180.351618 
L 507.92538 186.01106 
L 508.581033 181.638257 
L 509.894624 276.456013 
L 510.55191 260.560941 
L 511.205602 264.345692 
L 511.856354 294.499905 
L 512.512987 257.457091 
L 513.170272 231.883488 
L 513.825271 147.053762 
L 514.475043 222.828381 
L 515.132002 267.056034 
L 515.786675 238.559861 
L 516.445267 230.238713 
L 517.106146 245.970192 
L 517.762779 246.965016 
L 518.420065 205.628984 
L 519.07343 177.256611 
L 519.728429 234.638044 
L 520.383755 234.085365 
L 521.039734 152.801632 
L 521.695713 228.60278 
L 522.353325 273.891579 
L 523.002117 150.09129 
L 523.659076 230.769285 
L 524.316362 193.584985 
L 524.975281 176.496123 
L 525.627667 169.563307 
L 526.280052 159.040283 
L 526.937991 215.015699 
L 528.251583 86.953143 
L 528.904948 227.930722 
L 529.567788 243.441129 
L 530.22246 240.690994 
L 530.878112 179.878524 
L 531.531804 193.735313 
L 532.184843 197.206143 
L 532.843763 218.327356 
L 533.493861 189.751597 
L 534.816273 225.246908 
L 535.467352 206.305464 
L 536.116471 226.126775 
L 536.77441 261.277214 
L 537.431369 251.09464 
L 538.091595 247.526539 
L 538.749534 252.058514 
L 539.400613 243.167 
L 540.061165 248.203019 
L 540.720411 254.158697 
L 541.369856 249.471972 
L 542.026162 236.035219 
L 542.684101 259.79161 
L 543.996059 244.564175 
L 544.648771 261.785679 
L 545.303444 250.276674 
L 545.955829 262.471002 
L 546.609521 261.44965 
L 547.260927 253.588332 
L 547.917232 255.790208 
L 548.569291 259.013437 
L 549.222003 245.74912 
L 549.882883 238.780933 
L 550.538208 248.552313 
L 551.200721 247.491167 
L 551.84984 255.958223 
L 552.508106 242.618742 
L 553.166371 249.693044 
L 553.817123 233.090541 
L 554.473102 261.7282 
L 555.123855 240.982809 
L 555.784734 278.856855 
L 556.437773 263.38624 
L 557.092772 261.135728 
L 557.749077 263.218225 
L 558.398523 264.863001 
L 559.051562 268.391309 
L 559.709501 248.216283 
L 560.366133 255.604508 
L 561.023092 254.384191 
L 561.687892 247.46906 
L 562.341584 258.779101 
L 562.997563 265.04428 
L 563.653215 245.837549 
L 564.314094 262.860089 
L 564.971707 258.752572 
L 565.625726 257.801963 
L 566.276478 225.768638 
L 566.928537 262.12613 
L 567.588109 259.406945 
L 568.244088 239.439727 
L 568.907581 247.53096 
L 569.563887 246.456551 
L 570.221826 221.285299 
L 570.880418 244.900204 
L 571.537051 215.196978 
L 572.189109 209.250142 
L 572.841495 262.444474 
L 573.500414 230.247556 
L 574.151493 222.337602 
L 574.811065 205.987121 
L 575.465411 243.741787 
L 576.121063 260.021525 
L 576.776716 284.516296 
L 577.434655 286.682802 
L 578.099781 268.563745 
L 578.745959 236.698435 
L 579.397692 215.6347 
L 580.054324 155.781682 
L 580.708016 221.081913 
L 581.359422 220.763569 
L 582.019647 230.070698 
L 582.67432 227.050855 
L 583.334219 192.775861 
L 583.989218 227.997043 
L 584.642584 231.140686 
L 585.293662 227.842293 
L 585.950295 229.367689 
L 586.610847 229.960162 
L 587.273687 102.927802 
L 587.926072 226.980112 
L 588.577478 214.480705 
L 589.230516 211.133675 
L 589.883229 181.328756 
L 590.535941 219.039208 
L 591.194533 188.13335 
L 591.853779 173.268473 
L 592.502898 212.849194 
L 593.15953 107.221019 
L 593.809956 174.462261 
L 595.118647 280.705016 
L 595.774299 280.96146 
L 596.431258 259.800453 
L 597.083317 274.271823 
L 597.737336 269.598362 
L 598.384821 262.068651 
L 599.043414 264.350114 
L 599.696126 273.736828 
L 600.350471 274.988096 
L 601.002204 252.345907 
L 601.659489 256.683339 
L 602.317755 254.870549 
L 602.970794 216.116637 
L 603.62612 218.035541 
L 604.277525 153.221669 
L 604.936771 219.574202 
L 605.58981 198.086009 
L 606.251342 196.388177 
L 606.900788 240.027778 
L 607.557747 266.49009 
L 608.214706 219.273544 
L 608.867091 237.264379 
L 609.527317 249.056357 
L 610.183296 210.956818 
L 610.838295 228.381708 
L 611.491007 229.854048 
L 612.14274 230.066277 
L 612.796759 193.554034 
L 613.456331 225.89686 
L 614.111003 232.01171 
L 614.766002 230.702964 
L 615.423288 230.565899 
L 616.083841 234.10305 
L 616.736226 229.52244 
L 617.393185 227.9263 
L 618.046877 233.448677 
L 618.705797 231.326387 
L 619.364389 212.893408 
L 620.014161 213.295759 
L 620.66622 232.993269 
L 621.319912 216.969975 
L 621.975564 236.512735 
L 622.630237 224.557164 
L 623.292749 261.467336 
L 623.948728 196.759578 
L 624.606994 211.009875 
L 625.257093 228.487823 
L 625.911439 227.223291 
L 626.564477 213.11448 
L 627.220783 149.821582 
L 627.878396 133.749652 
L 628.531108 162.931149 
L 629.182513 236.40662 
L 629.834899 252.597929 
L 630.495778 244.139717 
L 631.154697 261.485021 
L 631.808063 238.643868 
L 632.462082 250.581753 
L 633.117407 219.101108 
L 633.77306 253.539696 
L 634.424138 256.586067 
L 635.083057 243.799266 
L 635.73577 244.462482 
L 636.395016 257.094533 
L 637.051321 292.373193 
L 637.707627 241.464746 
L 638.360666 257.819649 
L 639.014685 253.919939 
L 639.672297 264.991222 
L 640.325336 241.663711 
L 640.981642 279.39627 
L 641.640561 274.60343 
L 642.291313 273.613028 
L 642.948599 283.517051 
L 643.602944 281.690997 
L 644.25533 268.767131 
L 644.912616 275.814905 
L 645.567941 264.659614 
L 646.22392 256.555117 
L 646.876306 271.37578 
L 647.530978 261.922744 
L 648.182057 281.496454 
L 648.831829 280.373408 
L 649.491728 271.570323 
L 650.145747 278.666733 
L 650.804013 280.209815 
L 651.462932 181.872593 
L 652.115971 192.006531 
L 652.767703 164.085144 
L 653.427275 205.704148 
L 654.739233 249.768208 
L 655.397826 237.313015 
L 656.053152 265.446631 
L 656.712724 260.998663 
L 657.37099 255.056249 
L 658.023049 265.680967 
L 658.682948 248.415248 
L 659.33468 259.941939 
L 659.985759 260.998663 
L 660.641738 263.461405 
L 661.29739 230.954986 
L 661.948796 244.88694 
L 662.605755 266.901284 
L 663.266634 265.088494 
L 663.92098 265.676545 
L 664.575652 282.168512 
L 665.234571 245.855235 
L 665.887937 226.72809 
L 666.540649 266.286704 
L 667.192381 248.936978 
L 667.850973 256.873461 
L 669.158031 240.673309 
L 669.814664 267.113513 
L 670.471623 199.62467 
L 671.779987 261.776836 
L 672.432373 270.6993 
L 673.094232 283.41978 
L 673.745964 276.009448 
L 674.40129 259.234509 
L 675.053022 267.294792 
L 675.709981 254.494726 
L 676.365307 267.016241 
L 677.016385 271.353673 
L 677.673671 255.383436 
L 678.332917 273.060348 
L 678.986936 264.681722 
L 679.645528 250.391631 
L 680.29726 258.226421 
L 680.948993 252.107149 
L 681.604318 263.38624 
L 682.260951 247.889097 
L 682.915623 238.471432 
L 683.566048 262.661124 
L 684.221374 255.834422 
L 684.871146 266.171747 
L 685.528758 260.348712 
L 686.178204 249.631144 
L 686.840716 247.393896 
L 687.492122 277.450837 
L 688.143854 253.504324 
L 688.797546 260.176275 
L 690.104604 251.67827 
L 690.76385 227.736178 
L 691.416562 262.329516 
L 692.072214 258.677408 
L 692.734727 222.342023 
L 694.046685 258.447493 
L 694.698744 224.499685 
L 695.356683 242.265027 
L 696.009395 253.508746 
L 696.667661 256.046652 
L 697.32364 266.171747 
L 697.977986 273.767779 
L 698.633311 268.152551 
L 699.286677 275.757426 
L 699.939389 269.226961 
L 700.593735 226.210782 
L 701.249714 247.433689 
L 701.906019 253.933204 
L 702.557098 250.232459 
L 703.210137 238.71019 
L 703.868729 244.14856 
L 704.517848 246.611301 
L 705.823273 244.559753 
L 706.481538 269.487826 
L 707.13131 257.39519 
L 707.789249 276.699193 
L 708.440655 275.783955 
L 709.091734 272.657997 
L 709.745753 257.386348 
L 710.400098 254.114483 
L 711.056404 275.67784 
L 711.712056 258.99133 
L 713.029568 240.951859 
L 713.685547 241.522225 
L 714.335646 226.135618 
L 714.988358 264.447385 
L 715.645317 283.985724 
L 716.302603 280.833238 
L 716.953028 281.938598 
L 717.610967 259.592646 
L 718.263679 256.882303 
L 718.916718 260.28239 
L 719.579558 250.564067 
L 720.232596 243.542822 
L 720.888575 274.806817 
L 721.549128 255.440914 
L 722.19988 271.89751 
L 722.854879 263.147482 
L 723.515105 265.35378 
L 724.171084 244.30331 
L 724.826736 262.64786 
L 725.485002 256.289831 
L 726.792713 262.395838 
L 727.448366 273.131091 
L 728.097484 259.031123 
L 728.75673 252.284007 
L 729.408789 243.277536 
L 730.065095 255.91843 
L 730.7214 262.347202 
L 731.372806 260.207226 
L 732.032705 267.772307 
L 732.685744 250.789561 
L 733.340743 259.123973 
L 734.004236 249.993702 
L 734.657928 244.873675 
L 735.319134 244.475746 
L 735.980013 253.835932 
L 736.630438 250.948733 
L 737.940763 253.623703 
L 738.593148 252.929537 
L 739.246841 256.793875 
L 739.9038 254.698113 
L 740.560432 268.554902 
L 741.219351 247.83604 
L 741.87533 257.11664 
L 742.530329 257.02379 
L 743.193822 251.815335 
L 743.842941 248.795492 
L 744.49892 253.690025 
L 745.157512 254.238283 
L 745.816105 253.495481 
L 746.470777 249.591351 
L 747.130349 244.590703 
L 747.786002 241.451482 
L 748.444921 249.418915 
L 749.101227 234.837009 
L 749.756879 247.535382 
L 750.408938 245.466148 
L 751.06753 248.189755 
L 751.721876 251.412984 
L 752.373608 249.657672 
L 753.02828 259.384838 
L 753.681646 252.558136 
L 754.334358 255.529343 
L 754.98511 260.605155 
L 755.640436 252.4476 
L 756.300662 253.155031 
L 756.952394 253.46011 
L 757.604126 252.239793 
L 758.260105 258.049563 
L 758.915431 260.459248 
L 759.577617 260.211647 
L 760.235556 268.276351 
L 760.886961 267.056034 
L 762.196306 259.552853 
L 762.846731 261.286057 
L 763.503037 263.859334 
L 764.808135 259.101866 
L 765.458887 260.132061 
L 766.115846 242.211969 
L 766.765944 266.618312 
L 767.424864 269.801748 
L 768.084436 143.69789 
L 768.734208 226.551233 
L 769.392474 199.704256 
L 770.054007 217.275054 
L 770.713252 211.42549 
L 771.364004 212.234614 
L 772.015737 199.505291 
L 772.672696 176.230837 
L 773.325081 217.734884 
L 773.975833 186.316139 
L 774.630506 209.378364 
L 775.289425 211.093882 
L 775.943117 103.869568 
L 776.594849 98.506363 
L 777.244294 229.487068 
L 777.902234 219.985396 
L 778.561806 115.413945 
L 779.211578 94.858676 
L 779.865924 205.766049 
L 780.519943 164.62456 
L 781.175595 176.76141 
L 781.837454 156.555434 
L 782.49474 180.776076 
L 783.149086 215.316357 
L 783.799184 202.878849 
L 784.455817 203.577436 
L 785.109836 199.558348 
L 785.759934 205.655513 
L 786.420814 236.28282 
L 787.079079 191.829673 
L 787.731465 205.120519 
L 789.044403 216.518988 
L 789.698095 180.57269 
L 790.352114 220.94927 
L 791.0094 199.567191 
L 791.661785 245.616477 
L 792.319398 206.000385 
L 792.970803 211.398962 
L 793.620249 191.643973 
L 794.277861 236.176705 
L 794.932207 144.308048 
L 795.582632 181.40392 
L 796.233711 206.915623 
L 796.885116 152.642461 
L 797.538482 224.773814 
L 798.191847 199.859006 
L 798.84456 142.734016 
L 799.502499 220.157832 
L 800.154558 189.557054 
L 800.803676 219.910232 
L 801.461942 215.908829 
L 802.770633 124.92446 
L 803.418772 220.502704 
L 804.074424 241.982054 
L 804.726483 198.399931 
L 805.387689 186.546054 
L 806.039094 171.928777 
L 807.344192 274.519423 
L 807.997884 284.197953 
L 808.657457 290.056359 
L 809.309516 268.652174 
L 809.968762 268.528373 
L 810.62082 263.275704 
L 811.277779 258.911744 
L 811.938985 256.267723 
L 812.588431 248.521363 
L 813.242776 278.84359 
L 813.896795 266.609469 
L 814.550161 266.322075 
L 815.209407 288.61497 
L 815.864406 202.984964 
L 816.520058 192.024217 
L 817.17571 237.025621 
L 818.481788 179.661873 
L 819.13352 179.980217 
L 819.788519 262.639017 
L 820.439598 266.494512 
L 821.092637 257.072425 
L 821.749269 161.587031 
L 822.399041 227.83345 
L 823.058287 234.34623 
L 823.716879 208.427755 
L 824.370898 164.129359 
L 825.022957 157.094849 
L 825.681223 243.648937 
L 826.340469 273.555549 
L 827.000041 271.977096 
L 827.652754 231.755266 
L 828.309059 238.011602 
L 828.964385 263.669212 
L 829.618077 245.59437 
L 830.28157 219.742217 
L 830.931342 204.895025 
L 831.581767 220.118039 
L 832.243627 230.366935 
L 832.897972 147.703713 
L 833.548071 244.639339 
L 834.20013 207.941397 
L 834.859049 240.474344 
L 835.512088 247.278938 
L 836.17264 257.222754 
L 836.828293 269.713319 
L 837.479045 254.614105 
L 838.139271 292.757859 
L 838.794596 279.749985 
L 839.451555 269.027996 
L 840.102307 299.500553 
L 840.759267 279.157513 
L 841.416552 281.872276 
L 842.065344 281.200217 
L 842.721323 283.008586 
L 843.377629 281.186953 
L 844.028054 271.937303 
L 844.684033 277.300508 
L 845.341319 258.213157 
L 845.994358 244.710082 
L 846.651644 225.95876 
L 847.953148 274.205501 
L 848.609127 263.704584 
L 849.264453 244.316574 
L 849.923698 238.604075 
L 850.577717 251.408562 
L 851.23337 244.374053 
L 851.894576 239.643113 
L 852.548921 271.548216 
L 853.2 288.703399 
L 853.2 288.703399 
" clip-path="url(#p36c6cc6865)" style="fill: none; stroke: #3498db; stroke-width: 2; stroke-linecap: square"/>
   </g>
   <g id="patch_3">
    <path d="M 47.45 387.16 
L 47.45 28.32 
" style="fill: none; stroke: #000000; stroke-width: 0.8; stroke-linejoin: miter; stroke-linecap: square"/>
   </g>
   <g id="patch_4">
    <path d="M 853.2 387.16 
L 853.2 28.32 
" style="fill: none; stroke: #000000; stroke-width: 0.8; stroke-linejoin: miter; stroke-linecap: square"/>
   </g>
   <g id="patch_5">
    <path d="M 47.45 387.16 
L 853.2 387.16 
" style="fill: none; stroke: #000000; stroke-width: 0.8; stroke-linejoin: miter; stroke-linecap: square"/>
   </g>
   <g id="patch_6">
    <path d="M 47.45 28.32 
L 853.2 28.32 
" style="fill: none; stroke: #000000; stroke-width: 0.8; stroke-linejoin: miter; stroke-linecap: square"/>
   </g>
   <g id="text_21">
    <!-- CPU package power over time -->
    <g transform="translate(314.81875 22.32) scale(0.16 -0.16)">
     <defs>
      <path id="DejaVuSans-Bold-43" d="M 4288 256 
Q 3956 84 3597 -3 
Q 3238 -91 2847 -91 
Q 1681 -91 1000 561 
Q 319 1213 319 2328 
Q 319 3447 1000 4098 
Q 1681 4750 2847 4750 
Q 3238 4750 3597 4662 
Q 3956 4575 4288 4403 
L 4288 3438 
Q 3953 3666 3628 3772 
Q 3303 3878 2944 3878 
Q 2300 3878 1931 3465 
Q 1563 3053 1563 2328 
Q 1563 1606 1931 1193 
Q 2300 781 2944 781 
Q 3303 781 3628 887 
Q 3953 994 4288 1222 
L 4288 256 
z
" transform="scale(0.015625)"/>
      <path id="DejaVuSans-Bold-50" d="M 588 4666 
L 2584 4666 
Q 3475 4666 3951 4270 
Q 4428 3875 4428 3144 
Q 4428 2409 3951 2014 
Q 3475 1619 2584 1619 
L 1791 1619 
L 1791 0 
L 588 0 
L 588 4666 
z
M 1791 3794 
L 1791 2491 
L 2456 2491 
Q 2806 2491 2997 2661 
Q 3188 2831 3188 3144 
Q 3188 3456 2997 3625 
Q 2806 3794 2456 3794 
L 1791 3794 
z
" transform="scale(0.015625)"/>
      <path id="DejaVuSans-Bold-55" d="M 588 4666 
L 1791 4666 
L 1791 1869 
Q 1791 1291 1980 1042 
Q 2169 794 2597 794 
Q 3028 794 3217 1042 
Q 3406 1291 3406 1869 
L 3406 4666 
L 4609 4666 
L 4609 1869 
Q 4609 878 4112 393 
Q 3616 -91 2597 -91 
Q 1581 -91 1084 393 
Q 588 878 588 1869 
L 588 4666 
z
" transform="scale(0.015625)"/>
      <path id="DejaVuSans-Bold-20" transform="scale(0.015625)"/>
      <path id="DejaVuSans-Bold-70" d="M 1656 506 
L 1656 -1331 
L 538 -1331 
L 538 3500 
L 1656 3500 
L 1656 2988 
Q 1888 3294 2169 3439 
Q 2450 3584 2816 3584 
Q 3463 3584 3878 3070 
Q 4294 2556 4294 1747 
Q 4294 938 3878 423 
Q 3463 -91 2816 -91 
Q 2450 -91 2169 54 
Q 1888 200 1656 506 
z
M 2400 2772 
Q 2041 2772 1848 2508 
Q 1656 2244 1656 1747 
Q 1656 1250 1848 986 
Q 2041 722 2400 722 
Q 2759 722 2948 984 
Q 3138 1247 3138 1747 
Q 3138 2247 2948 2509 
Q 2759 2772 2400 2772 
z
" transform="scale(0.015625)"/>
      <path id="DejaVuSans-Bold-61" d="M 2106 1575 
Q 1756 1575 1579 1456 
Q 1403 1338 1403 1106 
Q 1403 894 1545 773 
Q 1688 653 1941 653 
Q 2256 653 2472 879 
Q 2688 1106 2688 1447 
L 2688 1575 
L 2106 1575 
z
M 3816 1997 
L 3816 0 
L 2688 0 
L 2688 519 
Q 2463 200 2181 54 
Q 1900 -91 1497 -91 
Q 953 -91 614 226 
Q 275 544 275 1050 
Q 275 1666 698 1953 
Q 1122 2241 2028 2241 
L 2688 2241 
L 2688 2328 
Q 2688 2594 2478 2717 
Q 2269 2841 1825 2841 
Q 1466 2841 1156 2769 
Q 847 2697 581 2553 
L 581 3406 
Q 941 3494 1303 3539 
Q 1666 3584 2028 3584 
Q 2975 3584 3395 3211 
Q 3816 2838 3816 1997 
z
" transform="scale(0.015625)"/>
      <path id="DejaVuSans-Bold-63" d="M 3366 3391 
L 3366 2478 
Q 3138 2634 2908 2709 
Q 2678 2784 2431 2784 
Q 1963 2784 1702 2511 
Q 1441 2238 1441 1747 
Q 1441 1256 1702 982 
Q 1963 709 2431 709 
Q 2694 709 2930 787 
Q 3166 866 3366 1019 
L 3366 103 
Q 3103 6 2833 -42 
Q 2563 -91 2291 -91 
Q 1344 -91 809 395 
Q 275 881 275 1747 
Q 275 2613 809 3098 
Q 1344 3584 2291 3584 
Q 2566 3584 2833 3536 
Q 3100 3488 3366 3391 
z
" transform="scale(0.015625)"/>
      <path id="DejaVuSans-Bold-6b" d="M 538 4863 
L 1656 4863 
L 1656 2216 
L 2944 3500 
L 4244 3500 
L 2534 1894 
L 4378 0 
L 3022 0 
L 1656 1459 
L 1656 0 
L 538 0 
L 538 4863 
z
" transform="scale(0.015625)"/>
      <path id="DejaVuSans-Bold-67" d="M 2919 594 
Q 2688 288 2409 144 
Q 2131 0 1766 0 
Q 1125 0 706 504 
Q 288 1009 288 1791 
Q 288 2575 706 3076 
Q 1125 3578 1766 3578 
Q 2131 3578 2409 3434 
Q 2688 3291 2919 2981 
L 2919 3500 
L 4044 3500 
L 4044 353 
Q 4044 -491 3511 -936 
Q 2978 -1381 1966 -1381 
Q 1638 -1381 1331 -1331 
Q 1025 -1281 716 -1178 
L 716 -306 
Q 1009 -475 1290 -558 
Q 1572 -641 1856 -641 
Q 2406 -641 2662 -400 
Q 2919 -159 2919 353 
L 2919 594 
z
M 2181 2772 
Q 1834 2772 1640 2515 
Q 1447 2259 1447 1791 
Q 1447 1309 1634 1061 
Q 1822 813 2181 813 
Q 2531 813 2725 1069 
Q 2919 1325 2919 1791 
Q 2919 2259 2725 2515 
Q 2531 2772 2181 2772 
z
" transform="scale(0.015625)"/>
      <path id="DejaVuSans-Bold-65" d="M 4031 1759 
L 4031 1441 
L 1416 1441 
Q 1456 1047 1700 850 
Q 1944 653 2381 653 
Q 2734 653 3104 758 
Q 3475 863 3866 1075 
L 3866 213 
Q 3469 63 3072 -14 
Q 2675 -91 2278 -91 
Q 1328 -91 801 392 
Q 275 875 275 1747 
Q 275 2603 792 3093 
Q 1309 3584 2216 3584 
Q 3041 3584 3536 3087 
Q 4031 2591 4031 1759 
z
M 2881 2131 
Q 2881 2450 2695 2645 
Q 2509 2841 2209 2841 
Q 1884 2841 1681 2658 
Q 1478 2475 1428 2131 
L 2881 2131 
z
" transform="scale(0.015625)"/>
      <path id="DejaVuSans-Bold-6f" d="M 2203 2784 
Q 1831 2784 1636 2517 
Q 1441 2250 1441 1747 
Q 1441 1244 1636 976 
Q 1831 709 2203 709 
Q 2569 709 2762 976 
Q 2956 1244 2956 1747 
Q 2956 2250 2762 2517 
Q 2569 2784 2203 2784 
z
M 2203 3584 
Q 3106 3584 3614 3096 
Q 4122 2609 4122 1747 
Q 4122 884 3614 396 
Q 3106 -91 2203 -91 
Q 1297 -91 786 396 
Q 275 884 275 1747 
Q 275 2609 786 3096 
Q 1297 3584 2203 3584 
z
" transform="scale(0.015625)"/>
      <path id="DejaVuSans-Bold-77" d="M 225 3500 
L 1313 3500 
L 1900 1088 
L 2491 3500 
L 3425 3500 
L 4013 1113 
L 4603 3500 
L 5691 3500 
L 4769 0 
L 3547 0 
L 2956 2406 
L 2369 0 
L 1147 0 
L 225 3500 
z
" transform="scale(0.015625)"/>
      <path id="DejaVuSans-Bold-72" d="M 3138 2547 
Q 2991 2616 2845 2648 
Q 2700 2681 2553 2681 
Q 2122 2681 1889 2404 
Q 1656 2128 1656 1613 
L 1656 0 
L 538 0 
L 538 3500 
L 1656 3500 
L 1656 2925 
Q 1872 3269 2151 3426 
Q 2431 3584 2822 3584 
Q 2878 3584 2943 3579 
Q 3009 3575 3134 3559 
L 3138 2547 
z
" transform="scale(0.015625)"/>
      <path id="DejaVuSans-Bold-76" d="M 97 3500 
L 1216 3500 
L 2088 1081 
L 2956 3500 
L 4078 3500 
L 2700 0 
L 1472 0 
L 97 3500 
z
" transform="scale(0.015625)"/>
      <path id="DejaVuSans-Bold-74" d="M 1759 4494 
L 1759 3500 
L 2913 3500 
L 2913 2700 
L 1759 2700 
L 1759 1216 
Q 1759 972 1856 886 
Q 1953 800 2241 800 
L 2816 800 
L 2816 0 
L 1856 0 
Q 1194 0 917 276 
Q 641 553 641 1216 
L 641 2700 
L 84 2700 
L 84 3500 
L 641 3500 
L 641 4494 
L 1759 4494 
z
" transform="scale(0.015625)"/>
      <path id="DejaVuSans-Bold-69" d="M 538 3500 
L 1656 3500 
L 1656 0 
L 538 0 
L 538 3500 
z
M 538 4863 
L 1656 4863 
L 1656 3950 
L 538 3950 
L 538 4863 
z
" transform="scale(0.015625)"/>
      <path id="DejaVuSans-Bold-6d" d="M 3781 2919 
Q 3994 3244 4286 3414 
Q 4578 3584 4928 3584 
Q 5531 3584 5847 3212 
Q 6163 2841 6163 2131 
L 6163 0 
L 5038 0 
L 5038 1825 
Q 5041 1866 5042 1909 
Q 5044 1953 5044 2034 
Q 5044 2406 4934 2573 
Q 4825 2741 4581 2741 
Q 4263 2741 4089 2478 
Q 3916 2216 3909 1719 
L 3909 0 
L 2784 0 
L 2784 1825 
Q 2784 2406 2684 2573 
Q 2584 2741 2328 2741 
Q 2006 2741 1831 2477 
Q 1656 2213 1656 1722 
L 1656 0 
L 531 0 
L 531 3500 
L 1656 3500 
L 1656 2988 
Q 1863 3284 2130 3434 
Q 2397 3584 2719 3584 
Q 3081 3584 3359 3409 
Q 3638 3234 3781 2919 
z
" transform="scale(0.015625)"/>
     </defs>
     <use xlink:href="#DejaVuSans-Bold-43"/>
     <use xlink:href="#DejaVuSans-Bold-50" x="73.388672"/>
     <use xlink:href="#DejaVuSans-Bold-55" x="146.679688"/>
     <use xlink:href="#DejaVuSans-Bold-20" x="227.880859"/>
     <use xlink:href="#DejaVuSans-Bold-70" x="262.695312"/>
     <use xlink:href="#DejaVuSans-Bold-61" x="334.277344"/>
     <use xlink:href="#DejaVuSans-Bold-63" x="401.757812"/>
     <use xlink:href="#DejaVuSans-Bold-6b" x="461.035156"/>
     <use xlink:href="#DejaVuSans-Bold-61" x="527.539062"/>
     <use xlink:href="#DejaVuSans-Bold-67" x="595.019531"/>
     <use xlink:href="#DejaVuSans-Bold-65" x="666.601562"/>
     <use xlink:href="#DejaVuSans-Bold-20" x="734.423828"/>
     <use xlink:href="#DejaVuSans-Bold-70" x="769.238281"/>
     <use xlink:href="#DejaVuSans-Bold-6f" x="840.820312"/>
     <use xlink:href="#DejaVuSans-Bold-77" x="909.521484"/>
     <use xlink:href="#DejaVuSans-Bold-65" x="1001.904297"/>
     <use xlink:href="#DejaVuSans-Bold-72" x="1069.726562"/>
     <use xlink:href="#DejaVuSans-Bold-20" x="1119.042969"/>
     <use xlink:href="#DejaVuSans-Bold-6f" x="1153.857422"/>
     <use xlink:href="#DejaVuSans-Bold-76" x="1222.558594"/>
     <use xlink:href="#DejaVuSans-Bold-65" x="1287.744141"/>
     <use xlink:href="#DejaVuSans-Bold-72" x="1355.566406"/>
     <use xlink:href="#DejaVuSans-Bold-20" x="1404.882812"/>
     <use xlink:href="#DejaVuSans-Bold-74" x="1439.697266"/>
     <use xlink:href="#DejaVuSans-Bold-69" x="1487.5"/>
     <use xlink:href="#DejaVuSans-Bold-6d" x="1521.777344"/>
     <use xlink:href="#DejaVuSans-Bold-65" x="1625.976562"/>
    </g>
   </g>
   <g id="legend_1">
    <g id="patch_7">
     <path d="M 643.11875 82.354375 
L 848.2 82.354375 
Q 850.2 82.354375 850.2 80.354375 
L 850.2 37.32 
Q 850.2 35.32 848.2 35.32 
L 643.11875 35.32 
Q 641.11875 35.32 641.11875 37.32 
L 641.11875 80.354375 
Q 641.11875 82.354375 643.11875 82.354375 
z
" style="fill: #4d4d4d; opacity: 0.5; stroke: #4d4d4d; stroke-linejoin: miter"/>
    </g>
    <g id="patch_8">
     <path d="M 641.11875 80.354375 
L 846.2 80.354375 
Q 848.2 80.354375 848.2 78.354375 
L 848.2 35.32 
Q 848.2 33.32 846.2 33.32 
L 641.11875 33.32 
Q 639.11875 33.32 639.11875 35.32 
L 639.11875 78.354375 
Q 639.11875 80.354375 641.11875 80.354375 
z
" style="fill: #ffffff; stroke: #cccccc; stroke-linejoin: miter"/>
    </g>
    <g id="line2d_21">
     <path d="M 643.11875 41.418437 
L 653.11875 41.418437 
L 663.11875 41.418437 
" style="fill: none; stroke: #e74c3c; stroke-width: 2; stroke-linecap: square"/>
    </g>
    <g id="text_22">
     <!-- CPU package power (W) - Summer -->
     <g transform="translate(671.11875 44.918437) scale(0.1 -0.1)">
      <defs>
       <path id="DejaVuSans-43" d="M 4122 4306 
L 4122 3641 
Q 3803 3938 3442 4084 
Q 3081 4231 2675 4231 
Q 1875 4231 1450 3742 
Q 1025 3253 1025 2328 
Q 1025 1406 1450 917 
Q 1875 428 2675 428 
Q 3081 428 3442 575 
Q 3803 722 4122 1019 
L 4122 359 
Q 3791 134 3420 21 
Q 3050 -91 2638 -91 
Q 1578 -91 968 557 
Q 359 1206 359 2328 
Q 359 3453 968 4101 
Q 1578 4750 2638 4750 
Q 3056 4750 3426 4639 
Q 3797 4528 4122 4306 
z
" transform="scale(0.015625)"/>
       <path id="DejaVuSans-55" d="M 556 4666 
L 1191 4666 
L 1191 1831 
Q 1191 1081 1462 751 
Q 1734 422 2344 422 
Q 2950 422 3222 751 
Q 3494 1081 3494 1831 
L 3494 4666 
L 4128 4666 
L 4128 1753 
Q 4128 841 3676 375 
Q 3225 -91 2344 -91 
Q 1459 -91 1007 375 
Q 556 841 556 1753 
L 556 4666 
z
" transform="scale(0.015625)"/>
       <path id="DejaVuSans-70" d="M 1159 525 
L 1159 -1331 
L 581 -1331 
L 581 3500 
L 1159 3500 
L 1159 2969 
Q 1341 3281 1617 3432 
Q 1894 3584 2278 3584 
Q 2916 3584 3314 3078 
Q 3713 2572 3713 1747 
Q 3713 922 3314 415 
Q 2916 -91 2278 -91 
Q 1894 -91 1617 61 
Q 1341 213 1159 525 
z
M 3116 1747 
Q 3116 2381 2855 2742 
Q 2594 3103 2138 3103 
Q 1681 3103 1420 2742 
Q 1159 2381 1159 1747 
Q 1159 1113 1420 752 
Q 1681 391 2138 391 
Q 2594 391 2855 752 
Q 3116 1113 3116 1747 
z
" transform="scale(0.015625)"/>
       <path id="DejaVuSans-63" d="M 3122 3366 
L 3122 2828 
Q 2878 2963 2633 3030 
Q 2388 3097 2138 3097 
Q 1578 3097 1268 2742 
Q 959 2388 959 1747 
Q 959 1106 1268 751 
Q 1578 397 2138 397 
Q 2388 397 2633 464 
Q 2878 531 3122 666 
L 3122 134 
Q 2881 22 2623 -34 
Q 2366 -91 2075 -91 
Q 1284 -91 818 406 
Q 353 903 353 1747 
Q 353 2603 823 3093 
Q 1294 3584 2113 3584 
Q 2378 3584 2631 3529 
Q 2884 3475 3122 3366 
z
" transform="scale(0.015625)"/>
       <path id="DejaVuSans-6b" d="M 581 4863 
L 1159 4863 
L 1159 1991 
L 2875 3500 
L 3609 3500 
L 1753 1863 
L 3688 0 
L 2938 0 
L 1159 1709 
L 1159 0 
L 581 0 
L 581 4863 
z
" transform="scale(0.015625)"/>
       <path id="DejaVuSans-67" d="M 2906 1791 
Q 2906 2416 2648 2759 
Q 2391 3103 1925 3103 
Q 1463 3103 1205 2759 
Q 947 2416 947 1791 
Q 947 1169 1205 825 
Q 1463 481 1925 481 
Q 2391 481 2648 825 
Q 2906 1169 2906 1791 
z
M 3481 434 
Q 3481 -459 3084 -895 
Q 2688 -1331 1869 -1331 
Q 1566 -1331 1297 -1286 
Q 1028 -1241 775 -1147 
L 775 -588 
Q 1028 -725 1275 -790 
Q 1522 -856 1778 -856 
Q 2344 -856 2625 -561 
Q 2906 -266 2906 331 
L 2906 616 
Q 2728 306 2450 153 
Q 2172 0 1784 0 
Q 1141 0 747 490 
Q 353 981 353 1791 
Q 353 2603 747 3093 
Q 1141 3584 1784 3584 
Q 2172 3584 2450 3431 
Q 2728 3278 2906 2969 
L 2906 3500 
L 3481 3500 
L 3481 434 
z
" transform="scale(0.015625)"/>
       <path id="DejaVuSans-2d" d="M 313 2009 
L 1997 2009 
L 1997 1497 
L 313 1497 
L 313 2009 
z
" transform="scale(0.015625)"/>
       <path id="DejaVuSans-53" d="M 3425 4513 
L 3425 3897 
Q 3066 4069 2747 4153 
Q 2428 4238 2131 4238 
Q 1616 4238 1336 4038 
Q 1056 3838 1056 3469 
Q 1056 3159 1242 3001 
Q 1428 2844 1947 2747 
L 2328 2669 
Q 3034 2534 3370 2195 
Q 3706 1856 3706 1288 
Q 3706 609 3251 259 
Q 2797 -91 1919 -91 
Q 1588 -91 1214 -16 
Q 841 59 441 206 
L 441 856 
Q 825 641 1194 531 
Q 1563 422 1919 422 
Q 2459 422 2753 634 
Q 3047 847 3047 1241 
Q 3047 1584 2836 1778 
Q 2625 1972 2144 2069 
L 1759 2144 
Q 1053 2284 737 2584 
Q 422 2884 422 3419 
Q 422 4038 858 4394 
Q 1294 4750 2059 4750 
Q 2388 4750 2728 4690 
Q 3069 4631 3425 4513 
z
" transform="scale(0.015625)"/>
       <path id="DejaVuSans-6d" d="M 3328 2828 
Q 3544 3216 3844 3400 
Q 4144 3584 4550 3584 
Q 5097 3584 5394 3201 
Q 5691 2819 5691 2113 
L 5691 0 
L 5113 0 
L 5113 2094 
Q 5113 2597 4934 2840 
Q 4756 3084 4391 3084 
Q 3944 3084 3684 2787 
Q 3425 2491 3425 1978 
L 3425 0 
L 2847 0 
L 2847 2094 
Q 2847 2600 2669 2842 
Q 2491 3084 2119 3084 
Q 1678 3084 1418 2786 
Q 1159 2488 1159 1978 
L 1159 0 
L 581 0 
L 581 3500 
L 1159 3500 
L 1159 2956 
Q 1356 3278 1631 3431 
Q 1906 3584 2284 3584 
Q 2666 3584 2933 3390 
Q 3200 3197 3328 2828 
z
" transform="scale(0.015625)"/>
      </defs>
      <use xlink:href="#DejaVuSans-43"/>
      <use xlink:href="#DejaVuSans-50" x="69.824219"/>
      <use xlink:href="#DejaVuSans-55" x="130.126953"/>
      <use xlink:href="#DejaVuSans-20" x="203.320312"/>
      <use xlink:href="#DejaVuSans-70" x="235.107422"/>
      <use xlink:href="#DejaVuSans-61" x="298.583984"/>
      <use xlink:href="#DejaVuSans-63" x="359.863281"/>
      <use xlink:href="#DejaVuSans-6b" x="414.84375"/>
      <use xlink:href="#DejaVuSans-61" x="471.003906"/>
      <use xlink:href="#DejaVuSans-67" x="532.283203"/>
      <use xlink:href="#DejaVuSans-65" x="595.759766"/>
      <use xlink:href="#DejaVuSans-20" x="657.283203"/>
      <use xlink:href="#DejaVuSans-70" x="689.070312"/>
      <use xlink:href="#DejaVuSans-6f" x="752.546875"/>
      <use xlink:href="#DejaVuSans-77" x="813.728516"/>
      <use xlink:href="#DejaVuSans-65" x="895.515625"/>
      <use xlink:href="#DejaVuSans-72" x="957.039062"/>
      <use xlink:href="#DejaVuSans-20" x="998.152344"/>
      <use xlink:href="#DejaVuSans-28" x="1029.939453"/>
      <use xlink:href="#DejaVuSans-57" x="1068.953125"/>
      <use xlink:href="#DejaVuSans-29" x="1167.830078"/>
      <use xlink:href="#DejaVuSans-20" x="1206.84375"/>
      <use xlink:href="#DejaVuSans-2d" x="1238.630859"/>
      <use xlink:href="#DejaVuSans-20" x="1274.714844"/>
      <use xlink:href="#DejaVuSans-53" x="1306.501953"/>
      <use xlink:href="#DejaVuSans-75" x="1369.978516"/>
      <use xlink:href="#DejaVuSans-6d" x="1433.357422"/>
      <use xlink:href="#DejaVuSans-6d" x="1530.769531"/>
      <use xlink:href="#DejaVuSans-65" x="1628.181641"/>
      <use xlink:href="#DejaVuSans-72" x="1689.705078"/>
     </g>
    </g>
    <g id="line2d_22">
     <path d="M 643.11875 56.096563 
L 653.11875 56.096563 
L 663.11875 56.096563 
" style="fill: none; stroke: #3498db; stroke-width: 2; stroke-linecap: square"/>
    </g>
    <g id="text_23">
     <!-- CPU package power (W) - Spring -->
     <g transform="translate(671.11875 59.596563) scale(0.1 -0.1)">
      <use xlink:href="#DejaVuSans-43"/>
      <use xlink:href="#DejaVuSans-50" x="69.824219"/>
      <use xlink:href="#DejaVuSans-55" x="130.126953"/>
      <use xlink:href="#DejaVuSans-20" x="203.320312"/>
      <use xlink:href="#DejaVuSans-70" x="235.107422"/>
      <use xlink:href="#DejaVuSans-61" x="298.583984"/>
      <use xlink:href="#DejaVuSans-63" x="359.863281"/>
      <use xlink:href="#DejaVuSans-6b" x="414.84375"/>
      <use xlink:href="#DejaVuSans-61" x="471.003906"/>
      <use xlink:href="#DejaVuSans-67" x="532.283203"/>
      <use xlink:href="#DejaVuSans-65" x="595.759766"/>
      <use xlink:href="#DejaVuSans-20" x="657.283203"/>
      <use xlink:href="#DejaVuSans-70" x="689.070312"/>
      <use xlink:href="#DejaVuSans-6f" x="752.546875"/>
      <use xlink:href="#DejaVuSans-77" x="813.728516"/>
      <use xlink:href="#DejaVuSans-65" x="895.515625"/>
      <use xlink:href="#DejaVuSans-72" x="957.039062"/>
      <use xlink:href="#DejaVuSans-20" x="998.152344"/>
      <use xlink:href="#DejaVuSans-28" x="1029.939453"/>
      <use xlink:href="#DejaVuSans-57" x="1068.953125"/>
      <use xlink:href="#DejaVuSans-29" x="1167.830078"/>
      <use xlink:href="#DejaVuSans-20" x="1206.84375"/>
      <use xlink:href="#DejaVuSans-2d" x="1238.630859"/>
      <use xlink:href="#DejaVuSans-20" x="1274.714844"/>
      <use xlink:href="#DejaVuSans-53" x="1306.501953"/>
      <use xlink:href="#DejaVuSans-70" x="1369.978516"/>
      <use xlink:href="#DejaVuSans-72" x="1433.455078"/>
      <use xlink:href="#DejaVuSans-69" x="1474.568359"/>
      <use xlink:href="#DejaVuSans-6e" x="1502.351562"/>
      <use xlink:href="#DejaVuSans-67" x="1565.730469"/>
     </g>
    </g>
    <g id="line2d_23">
     <path d="M 643.11875 70.774687 
L 653.11875 70.774687 
L 663.11875 70.774687 
" style="fill: none; stroke-dasharray: 7.4,3.2; stroke-dashoffset: 0; stroke: #000000; stroke-opacity: 0.9; stroke-width: 2"/>
    </g>
    <g id="text_24">
     <!-- Cooler on (5000 RPM) -->
     <g transform="translate(671.11875 74.274687) scale(0.1 -0.1)">
      <defs>
       <path id="DejaVuSans-6c" d="M 603 4863 
L 1178 4863 
L 1178 0 
L 603 0 
L 603 4863 
z
" transform="scale(0.015625)"/>
       <path id="DejaVuSans-52" d="M 2841 2188 
Q 3044 2119 3236 1894 
Q 3428 1669 3622 1275 
L 4263 0 
L 3584 0 
L 2988 1197 
Q 2756 1666 2539 1819 
Q 2322 1972 1947 1972 
L 1259 1972 
L 1259 0 
L 628 0 
L 628 4666 
L 2053 4666 
Q 2853 4666 3247 4331 
Q 3641 3997 3641 3322 
Q 3641 2881 3436 2590 
Q 3231 2300 2841 2188 
z
M 1259 4147 
L 1259 2491 
L 2053 2491 
Q 2509 2491 2742 2702 
Q 2975 2913 2975 3322 
Q 2975 3731 2742 3939 
Q 2509 4147 2053 4147 
L 1259 4147 
z
" transform="scale(0.015625)"/>
      </defs>
      <use xlink:href="#DejaVuSans-43"/>
      <use xlink:href="#DejaVuSans-6f" x="69.824219"/>
      <use xlink:href="#DejaVuSans-6f" x="131.005859"/>
      <use xlink:href="#DejaVuSans-6c" x="192.1875"/>
      <use xlink:href="#DejaVuSans-65" x="219.970703"/>
      <use xlink:href="#DejaVuSans-72" x="281.494141"/>
      <use xlink:href="#DejaVuSans-20" x="322.607422"/>
      <use xlink:href="#DejaVuSans-6f" x="354.394531"/>
      <use xlink:href="#DejaVuSans-6e" x="415.576172"/>
      <use xlink:href="#DejaVuSans-20" x="478.955078"/>
      <use xlink:href="#DejaVuSans-28" x="510.742188"/>
      <use xlink:href="#DejaVuSans-35" x="549.755859"/>
      <use xlink:href="#DejaVuSans-30" x="613.378906"/>
      <use xlink:href="#DejaVuSans-30" x="677.001953"/>
      <use xlink:href="#DejaVuSans-30" x="740.625"/>
      <use xlink:href="#DejaVuSans-20" x="804.248047"/>
      <use xlink:href="#DejaVuSans-52" x="836.035156"/>
      <use xlink:href="#DejaVuSans-50" x="905.517578"/>
      <use xlink:href="#DejaVuSans-4d" x="965.820312"/>
      <use xlink:href="#DejaVuSans-29" x="1052.099609"/>
     </g>
    </g>
   </g>
   <g id="line2d_24">
    <path d="M 292.462082 387.16 
L 292.462082 28.32 
" clip-path="url(#p36c6cc6865)" style="fill: none; stroke-dasharray: 7.4,3.2; stroke-dashoffset: 0; stroke: #000000; stroke-opacity: 0.9; stroke-width: 2"/>
   </g>
  </g>
 </g>
 <defs>
  <clipPath id="p36c6cc6865">
   <rect x="47.45" y="28.32" width="805.75" height="358.84"/>
  </clipPath>
 </defs>
</svg>
