<?xml version="1.0" encoding="utf-8" standalone="no"?>
<!DOCTYPE svg PUBLIC "-//W3C//DTD SVG 1.1//EN"
  "http://www.w3.org/Graphics/SVG/1.1/DTD/svg11.dtd">
<svg xmlns:xlink="http://www.w3.org/1999/xlink" width="864pt" height="432pt" viewBox="0 0 864 432" xmlns="http://www.w3.org/2000/svg" version="1.1">
 <metadata>
  <rdf:RDF xmlns:dc="http://purl.org/dc/elements/1.1/" xmlns:cc="http://creativecommons.org/ns#" xmlns:rdf="http://www.w3.org/1999/02/22-rdf-syntax-ns#">
   <cc:Work>
    <dc:type rdf:resource="http://purl.org/dc/dcmitype/StillImage"/>
    <dc:date>2026-05-23T09:12:48.156358</dc:date>
    <dc:format>image/svg+xml</dc:format>
    <dc:creator>
     <cc:Agent>
      <dc:title>Matplotlib v3.9.2, https://matplotlib.org/</dc:title>
     </cc:Agent>
    </dc:creator>
   </cc:Work>
  </rdf:RDF>
 </metadata>
 <defs>
  <style type="text/css">*{stroke-linejoin: round; stroke-linecap: butt}</style>
 </defs>
 <g id="figure_1">
  <g id="patch_1">
   <path d="M 0 432 
L 864 432 
L 864 0 
L 0 0 
z
" style="fill: #ffffff"/>
  </g>
  <g id="axes_1">
   <g id="patch_2">
    <path d="M 53.75 387.16 
L 853.2 387.16 
L 853.2 28.32 
L 53.75 28.32 
z
" style="fill: #ffffff"/>
   </g>
   <g id="matplotlib.axis_1">
    <g id="xtick_1">
     <g id="line2d_1">
      <defs>
       <path id="m1a75a514a2" d="M 0 0 
L 0 3.5 
" style="stroke: #000000; stroke-width: 0.8"/>
      </defs>
      <g>
       <use xlink:href="#m1a75a514a2" x="53.75" y="387.16" style="stroke: #000000; stroke-width: 0.8"/>
      </g>
     </g>
     <g id="text_1">
      <!-- 0 -->
      <g transform="translate(50.56875 401.758438) scale(0.1 -0.1)">
       <defs>
        <path id="DejaVuSans-30" d="M 2034 4250 
Q 1547 4250 1301 3770 
Q 1056 3291 1056 2328 
Q 1056 1369 1301 889 
Q 1547 409 2034 409 
Q 2525 409 2770 889 
Q 3016 1369 3016 2328 
Q 3016 3291 2770 3770 
Q 2525 4250 2034 4250 
z
M 2034 4750 
Q 2819 4750 3233 4129 
Q 3647 3509 3647 2328 
Q 3647 1150 3233 529 
Q 2819 -91 2034 -91 
Q 1250 -91 836 529 
Q 422 1150 422 2328 
Q 422 3509 836 4129 
Q 1250 4750 2034 4750 
z
" transform="scale(0.015625)"/>
       </defs>
       <use xlink:href="#DejaVuSans-30"/>
      </g>
     </g>
    </g>
    <g id="xtick_2">
     <g id="line2d_2">
      <g>
       <use xlink:href="#m1a75a514a2" x="150.988552" y="387.16" style="stroke: #000000; stroke-width: 0.8"/>
      </g>
     </g>
     <g id="text_2">
      <!-- 5 -->
      <g transform="translate(147.807302 401.758438) scale(0.1 -0.1)">
       <defs>
        <path id="DejaVuSans-35" d="M 691 4666 
L 3169 4666 
L 3169 4134 
L 1269 4134 
L 1269 2991 
Q 1406 3038 1543 3061 
Q 1681 3084 1819 3084 
Q 2600 3084 3056 2656 
Q 3513 2228 3513 1497 
Q 3513 744 3044 326 
Q 2575 -91 1722 -91 
Q 1428 -91 1123 -41 
Q 819 9 494 109 
L 494 744 
Q 775 591 1075 516 
Q 1375 441 1709 441 
Q 2250 441 2565 725 
Q 2881 1009 2881 1497 
Q 2881 1984 2565 2268 
Q 2250 2553 1709 2553 
Q 1456 2553 1204 2497 
Q 953 2441 691 2322 
L 691 4666 
z
" transform="scale(0.015625)"/>
       </defs>
       <use xlink:href="#DejaVuSans-35"/>
      </g>
     </g>
    </g>
    <g id="xtick_3">
     <g id="line2d_3">
      <g>
       <use xlink:href="#m1a75a514a2" x="248.227105" y="387.16" style="stroke: #000000; stroke-width: 0.8"/>
      </g>
     </g>
     <g id="text_3">
      <!-- 10 -->
      <g transform="translate(241.864605 401.758438) scale(0.1 -0.1)">
       <defs>
        <path id="DejaVuSans-31" d="M 794 531 
L 1825 531 
L 1825 4091 
L 703 3866 
L 703 4441 
L 1819 4666 
L 2450 4666 
L 2450 531 
L 3481 531 
L 3481 0 
L 794 0 
L 794 531 
z
" transform="scale(0.015625)"/>
       </defs>
       <use xlink:href="#DejaVuSans-31"/>
       <use xlink:href="#DejaVuSans-30" x="63.623047"/>
      </g>
     </g>
    </g>
    <g id="xtick_4">
     <g id="line2d_4">
      <g>
       <use xlink:href="#m1a75a514a2" x="345.465657" y="387.16" style="stroke: #000000; stroke-width: 0.8"/>
      </g>
     </g>
     <g id="text_4">
      <!-- 15 -->
      <g transform="translate(339.103157 401.758438) scale(0.1 -0.1)">
       <use xlink:href="#DejaVuSans-31"/>
       <use xlink:href="#DejaVuSans-35" x="63.623047"/>
      </g>
     </g>
    </g>
    <g id="xtick_5">
     <g id="line2d_5">
      <g>
       <use xlink:href="#m1a75a514a2" x="442.70421" y="387.16" style="stroke: #000000; stroke-width: 0.8"/>
      </g>
     </g>
     <g id="text_5">
      <!-- 20 -->
      <g transform="translate(436.34171 401.758438) scale(0.1 -0.1)">
       <defs>
        <path id="DejaVuSans-32" d="M 1228 531 
L 3431 531 
L 3431 0 
L 469 0 
L 469 531 
Q 828 903 1448 1529 
Q 2069 2156 2228 2338 
Q 2531 2678 2651 2914 
Q 2772 3150 2772 3378 
Q 2772 3750 2511 3984 
Q 2250 4219 1831 4219 
Q 1534 4219 1204 4116 
Q 875 4013 500 3803 
L 500 4441 
Q 881 4594 1212 4672 
Q 1544 4750 1819 4750 
Q 2544 4750 2975 4387 
Q 3406 4025 3406 3419 
Q 3406 3131 3298 2873 
Q 3191 2616 2906 2266 
Q 2828 2175 2409 1742 
Q 1991 1309 1228 531 
z
" transform="scale(0.015625)"/>
       </defs>
       <use xlink:href="#DejaVuSans-32"/>
       <use xlink:href="#DejaVuSans-30" x="63.623047"/>
      </g>
     </g>
    </g>
    <g id="xtick_6">
     <g id="line2d_6">
      <g>
       <use xlink:href="#m1a75a514a2" x="539.942762" y="387.16" style="stroke: #000000; stroke-width: 0.8"/>
      </g>
     </g>
     <g id="text_6">
      <!-- 25 -->
      <g transform="translate(533.580262 401.758438) scale(0.1 -0.1)">
       <use xlink:href="#DejaVuSans-32"/>
       <use xlink:href="#DejaVuSans-35" x="63.623047"/>
      </g>
     </g>
    </g>
    <g id="xtick_7">
     <g id="line2d_7">
      <g>
       <use xlink:href="#m1a75a514a2" x="637.181315" y="387.16" style="stroke: #000000; stroke-width: 0.8"/>
      </g>
     </g>
     <g id="text_7">
      <!-- 30 -->
      <g transform="translate(630.818815 401.758438) scale(0.1 -0.1)">
       <defs>
        <path id="DejaVuSans-33" d="M 2597 2516 
Q 3050 2419 3304 2112 
Q 3559 1806 3559 1356 
Q 3559 666 3084 287 
Q 2609 -91 1734 -91 
Q 1441 -91 1130 -33 
Q 819 25 488 141 
L 488 750 
Q 750 597 1062 519 
Q 1375 441 1716 441 
Q 2309 441 2620 675 
Q 2931 909 2931 1356 
Q 2931 1769 2642 2001 
Q 2353 2234 1838 2234 
L 1294 2234 
L 1294 2753 
L 1863 2753 
Q 2328 2753 2575 2939 
Q 2822 3125 2822 3475 
Q 2822 3834 2567 4026 
Q 2313 4219 1838 4219 
Q 1578 4219 1281 4162 
Q 984 4106 628 3988 
L 628 4550 
Q 988 4650 1302 4700 
Q 1616 4750 1894 4750 
Q 2613 4750 3031 4423 
Q 3450 4097 3450 3541 
Q 3450 3153 3228 2886 
Q 3006 2619 2597 2516 
z
" transform="scale(0.015625)"/>
       </defs>
       <use xlink:href="#DejaVuSans-33"/>
       <use xlink:href="#DejaVuSans-30" x="63.623047"/>
      </g>
     </g>
    </g>
    <g id="xtick_8">
     <g id="line2d_8">
      <g>
       <use xlink:href="#m1a75a514a2" x="734.419867" y="387.16" style="stroke: #000000; stroke-width: 0.8"/>
      </g>
     </g>
     <g id="text_8">
      <!-- 35 -->
      <g transform="translate(728.057367 401.758438) scale(0.1 -0.1)">
       <use xlink:href="#DejaVuSans-33"/>
       <use xlink:href="#DejaVuSans-35" x="63.623047"/>
      </g>
     </g>
    </g>
    <g id="xtick_9">
     <g id="line2d_9">
      <g>
       <use xlink:href="#m1a75a514a2" x="831.658419" y="387.16" style="stroke: #000000; stroke-width: 0.8"/>
      </g>
     </g>
     <g id="text_9">
      <!-- 40 -->
      <g transform="translate(825.295919 401.758438) scale(0.1 -0.1)">
       <defs>
        <path id="DejaVuSans-34" d="M 2419 4116 
L 825 1625 
L 2419 1625 
L 2419 4116 
z
M 2253 4666 
L 3047 4666 
L 3047 1625 
L 3713 1625 
L 3713 1100 
L 3047 1100 
L 3047 0 
L 2419 0 
L 2419 1100 
L 313 1100 
L 313 1709 
L 2253 4666 
z
" transform="scale(0.015625)"/>
       </defs>
       <use xlink:href="#DejaVuSans-34"/>
       <use xlink:href="#DejaVuSans-30" x="63.623047"/>
      </g>
     </g>
    </g>
    <g id="text_10">
     <!-- Test duration (Minutes) -->
     <g transform="translate(384.29875 416.95625) scale(0.12 -0.12)">
      <defs>
       <path id="DejaVuSans-54" d="M -19 4666 
L 3928 4666 
L 3928 4134 
L 2272 4134 
L 2272 0 
L 1638 0 
L 1638 4134 
L -19 4134 
L -19 4666 
z
" transform="scale(0.015625)"/>
       <path id="DejaVuSans-65" d="M 3597 1894 
L 3597 1613 
L 953 1613 
Q 991 1019 1311 708 
Q 1631 397 2203 397 
Q 2534 397 2845 478 
Q 3156 559 3463 722 
L 3463 178 
Q 3153 47 2828 -22 
Q 2503 -91 2169 -91 
Q 1331 -91 842 396 
Q 353 884 353 1716 
Q 353 2575 817 3079 
Q 1281 3584 2069 3584 
Q 2775 3584 3186 3129 
Q 3597 2675 3597 1894 
z
M 3022 2063 
Q 3016 2534 2758 2815 
Q 2500 3097 2075 3097 
Q 1594 3097 1305 2825 
Q 1016 2553 972 2059 
L 3022 2063 
z
" transform="scale(0.015625)"/>
       <path id="DejaVuSans-73" d="M 2834 3397 
L 2834 2853 
Q 2591 2978 2328 3040 
Q 2066 3103 1784 3103 
Q 1356 3103 1142 2972 
Q 928 2841 928 2578 
Q 928 2378 1081 2264 
Q 1234 2150 1697 2047 
L 1894 2003 
Q 2506 1872 2764 1633 
Q 3022 1394 3022 966 
Q 3022 478 2636 193 
Q 2250 -91 1575 -91 
Q 1294 -91 989 -36 
Q 684 19 347 128 
L 347 722 
Q 666 556 975 473 
Q 1284 391 1588 391 
Q 1994 391 2212 530 
Q 2431 669 2431 922 
Q 2431 1156 2273 1281 
Q 2116 1406 1581 1522 
L 1381 1569 
Q 847 1681 609 1914 
Q 372 2147 372 2553 
Q 372 3047 722 3315 
Q 1072 3584 1716 3584 
Q 2034 3584 2315 3537 
Q 2597 3491 2834 3397 
z
" transform="scale(0.015625)"/>
       <path id="DejaVuSans-74" d="M 1172 4494 
L 1172 3500 
L 2356 3500 
L 2356 3053 
L 1172 3053 
L 1172 1153 
Q 1172 725 1289 603 
Q 1406 481 1766 481 
L 2356 481 
L 2356 0 
L 1766 0 
Q 1100 0 847 248 
Q 594 497 594 1153 
L 594 3053 
L 172 3053 
L 172 3500 
L 594 3500 
L 594 4494 
L 1172 4494 
z
" transform="scale(0.015625)"/>
       <path id="DejaVuSans-20" transform="scale(0.015625)"/>
       <path id="DejaVuSans-64" d="M 2906 2969 
L 2906 4863 
L 3481 4863 
L 3481 0 
L 2906 0 
L 2906 525 
Q 2725 213 2448 61 
Q 2172 -91 1784 -91 
Q 1150 -91 751 415 
Q 353 922 353 1747 
Q 353 2572 751 3078 
Q 1150 3584 1784 3584 
Q 2172 3584 2448 3432 
Q 2725 3281 2906 2969 
z
M 947 1747 
Q 947 1113 1208 752 
Q 1469 391 1925 391 
Q 2381 391 2643 752 
Q 2906 1113 2906 1747 
Q 2906 2381 2643 2742 
Q 2381 3103 1925 3103 
Q 1469 3103 1208 2742 
Q 947 2381 947 1747 
z
" transform="scale(0.015625)"/>
       <path id="DejaVuSans-75" d="M 544 1381 
L 544 3500 
L 1119 3500 
L 1119 1403 
Q 1119 906 1312 657 
Q 1506 409 1894 409 
Q 2359 409 2629 706 
Q 2900 1003 2900 1516 
L 2900 3500 
L 3475 3500 
L 3475 0 
L 2900 0 
L 2900 538 
Q 2691 219 2414 64 
Q 2138 -91 1772 -91 
Q 1169 -91 856 284 
Q 544 659 544 1381 
z
M 1991 3584 
L 1991 3584 
z
" transform="scale(0.015625)"/>
       <path id="DejaVuSans-72" d="M 2631 2963 
Q 2534 3019 2420 3045 
Q 2306 3072 2169 3072 
Q 1681 3072 1420 2755 
Q 1159 2438 1159 1844 
L 1159 0 
L 581 0 
L 581 3500 
L 1159 3500 
L 1159 2956 
Q 1341 3275 1631 3429 
Q 1922 3584 2338 3584 
Q 2397 3584 2469 3576 
Q 2541 3569 2628 3553 
L 2631 2963 
z
" transform="scale(0.015625)"/>
       <path id="DejaVuSans-61" d="M 2194 1759 
Q 1497 1759 1228 1600 
Q 959 1441 959 1056 
Q 959 750 1161 570 
Q 1363 391 1709 391 
Q 2188 391 2477 730 
Q 2766 1069 2766 1631 
L 2766 1759 
L 2194 1759 
z
M 3341 1997 
L 3341 0 
L 2766 0 
L 2766 531 
Q 2569 213 2275 61 
Q 1981 -91 1556 -91 
Q 1019 -91 701 211 
Q 384 513 384 1019 
Q 384 1609 779 1909 
Q 1175 2209 1959 2209 
L 2766 2209 
L 2766 2266 
Q 2766 2663 2505 2880 
Q 2244 3097 1772 3097 
Q 1472 3097 1187 3025 
Q 903 2953 641 2809 
L 641 3341 
Q 956 3463 1253 3523 
Q 1550 3584 1831 3584 
Q 2591 3584 2966 3190 
Q 3341 2797 3341 1997 
z
" transform="scale(0.015625)"/>
       <path id="DejaVuSans-69" d="M 603 3500 
L 1178 3500 
L 1178 0 
L 603 0 
L 603 3500 
z
M 603 4863 
L 1178 4863 
L 1178 4134 
L 603 4134 
L 603 4863 
z
" transform="scale(0.015625)"/>
       <path id="DejaVuSans-6f" d="M 1959 3097 
Q 1497 3097 1228 2736 
Q 959 2375 959 1747 
Q 959 1119 1226 758 
Q 1494 397 1959 397 
Q 2419 397 2687 759 
Q 2956 1122 2956 1747 
Q 2956 2369 2687 2733 
Q 2419 3097 1959 3097 
z
M 1959 3584 
Q 2709 3584 3137 3096 
Q 3566 2609 3566 1747 
Q 3566 888 3137 398 
Q 2709 -91 1959 -91 
Q 1206 -91 779 398 
Q 353 888 353 1747 
Q 353 2609 779 3096 
Q 1206 3584 1959 3584 
z
" transform="scale(0.015625)"/>
       <path id="DejaVuSans-6e" d="M 3513 2113 
L 3513 0 
L 2938 0 
L 2938 2094 
Q 2938 2591 2744 2837 
Q 2550 3084 2163 3084 
Q 1697 3084 1428 2787 
Q 1159 2491 1159 1978 
L 1159 0 
L 581 0 
L 581 3500 
L 1159 3500 
L 1159 2956 
Q 1366 3272 1645 3428 
Q 1925 3584 2291 3584 
Q 2894 3584 3203 3211 
Q 3513 2838 3513 2113 
z
" transform="scale(0.015625)"/>
       <path id="DejaVuSans-28" d="M 1984 4856 
Q 1566 4138 1362 3434 
Q 1159 2731 1159 2009 
Q 1159 1288 1364 580 
Q 1569 -128 1984 -844 
L 1484 -844 
Q 1016 -109 783 600 
Q 550 1309 550 2009 
Q 550 2706 781 3412 
Q 1013 4119 1484 4856 
L 1984 4856 
z
" transform="scale(0.015625)"/>
       <path id="DejaVuSans-4d" d="M 628 4666 
L 1569 4666 
L 2759 1491 
L 3956 4666 
L 4897 4666 
L 4897 0 
L 4281 0 
L 4281 4097 
L 3078 897 
L 2444 897 
L 1241 4097 
L 1241 0 
L 628 0 
L 628 4666 
z
" transform="scale(0.015625)"/>
       <path id="DejaVuSans-29" d="M 513 4856 
L 1013 4856 
Q 1481 4119 1714 3412 
Q 1947 2706 1947 2009 
Q 1947 1309 1714 600 
Q 1481 -109 1013 -844 
L 513 -844 
Q 928 -128 1133 580 
Q 1338 1288 1338 2009 
Q 1338 2731 1133 3434 
Q 928 4138 513 4856 
z
" transform="scale(0.015625)"/>
      </defs>
      <use xlink:href="#DejaVuSans-54"/>
      <use xlink:href="#DejaVuSans-65" x="44.083984"/>
      <use xlink:href="#DejaVuSans-73" x="105.607422"/>
      <use xlink:href="#DejaVuSans-74" x="157.707031"/>
      <use xlink:href="#DejaVuSans-20" x="196.916016"/>
      <use xlink:href="#DejaVuSans-64" x="228.703125"/>
      <use xlink:href="#DejaVuSans-75" x="292.179688"/>
      <use xlink:href="#DejaVuSans-72" x="355.558594"/>
      <use xlink:href="#DejaVuSans-61" x="396.671875"/>
      <use xlink:href="#DejaVuSans-74" x="457.951172"/>
      <use xlink:href="#DejaVuSans-69" x="497.160156"/>
      <use xlink:href="#DejaVuSans-6f" x="524.943359"/>
      <use xlink:href="#DejaVuSans-6e" x="586.125"/>
      <use xlink:href="#DejaVuSans-20" x="649.503906"/>
      <use xlink:href="#DejaVuSans-28" x="681.291016"/>
      <use xlink:href="#DejaVuSans-4d" x="720.304688"/>
      <use xlink:href="#DejaVuSans-69" x="806.583984"/>
      <use xlink:href="#DejaVuSans-6e" x="834.367188"/>
      <use xlink:href="#DejaVuSans-75" x="897.746094"/>
      <use xlink:href="#DejaVuSans-74" x="961.125"/>
      <use xlink:href="#DejaVuSans-65" x="1000.333984"/>
      <use xlink:href="#DejaVuSans-73" x="1061.857422"/>
      <use xlink:href="#DejaVuSans-29" x="1113.957031"/>
     </g>
    </g>
   </g>
   <g id="matplotlib.axis_2">
    <g id="ytick_1">
     <g id="line2d_10">
      <defs>
       <path id="m0a648c7508" d="M 0 0 
L -3.5 0 
" style="stroke: #000000; stroke-width: 0.8"/>
      </defs>
      <g>
       <use xlink:href="#m0a648c7508" x="53.75" y="387.16" style="stroke: #000000; stroke-width: 0.8"/>
      </g>
     </g>
     <g id="text_11">
      <!-- 0 -->
      <g transform="translate(40.3875 390.959219) scale(0.1 -0.1)">
       <use xlink:href="#DejaVuSans-30"/>
      </g>
     </g>
    </g>
    <g id="ytick_2">
     <g id="line2d_11">
      <g>
       <use xlink:href="#m0a648c7508" x="53.75" y="319.898519" style="stroke: #000000; stroke-width: 0.8"/>
      </g>
     </g>
     <g id="text_12">
      <!-- 20 -->
      <g transform="translate(34.025 323.697738) scale(0.1 -0.1)">
       <use xlink:href="#DejaVuSans-32"/>
       <use xlink:href="#DejaVuSans-30" x="63.623047"/>
      </g>
     </g>
    </g>
    <g id="ytick_3">
     <g id="line2d_12">
      <g>
       <use xlink:href="#m0a648c7508" x="53.75" y="252.637038" style="stroke: #000000; stroke-width: 0.8"/>
      </g>
     </g>
     <g id="text_13">
      <!-- 40 -->
      <g transform="translate(34.025 256.436257) scale(0.1 -0.1)">
       <use xlink:href="#DejaVuSans-34"/>
       <use xlink:href="#DejaVuSans-30" x="63.623047"/>
      </g>
     </g>
    </g>
    <g id="ytick_4">
     <g id="line2d_13">
      <g>
       <use xlink:href="#m0a648c7508" x="53.75" y="185.375558" style="stroke: #000000; stroke-width: 0.8"/>
      </g>
     </g>
     <g id="text_14">
      <!-- 60 -->
      <g transform="translate(34.025 189.174776) scale(0.1 -0.1)">
       <defs>
        <path id="DejaVuSans-36" d="M 2113 2584 
Q 1688 2584 1439 2293 
Q 1191 2003 1191 1497 
Q 1191 994 1439 701 
Q 1688 409 2113 409 
Q 2538 409 2786 701 
Q 3034 994 3034 1497 
Q 3034 2003 2786 2293 
Q 2538 2584 2113 2584 
z
M 3366 4563 
L 3366 3988 
Q 3128 4100 2886 4159 
Q 2644 4219 2406 4219 
Q 1781 4219 1451 3797 
Q 1122 3375 1075 2522 
Q 1259 2794 1537 2939 
Q 1816 3084 2150 3084 
Q 2853 3084 3261 2657 
Q 3669 2231 3669 1497 
Q 3669 778 3244 343 
Q 2819 -91 2113 -91 
Q 1303 -91 875 529 
Q 447 1150 447 2328 
Q 447 3434 972 4092 
Q 1497 4750 2381 4750 
Q 2619 4750 2861 4703 
Q 3103 4656 3366 4563 
z
" transform="scale(0.015625)"/>
       </defs>
       <use xlink:href="#DejaVuSans-36"/>
       <use xlink:href="#DejaVuSans-30" x="63.623047"/>
      </g>
     </g>
    </g>
    <g id="ytick_5">
     <g id="line2d_14">
      <g>
       <use xlink:href="#m0a648c7508" x="53.75" y="118.114077" style="stroke: #000000; stroke-width: 0.8"/>
      </g>
     </g>
     <g id="text_15">
      <!-- 80 -->
      <g transform="translate(34.025 121.913296) scale(0.1 -0.1)">
       <defs>
        <path id="DejaVuSans-38" d="M 2034 2216 
Q 1584 2216 1326 1975 
Q 1069 1734 1069 1313 
Q 1069 891 1326 650 
Q 1584 409 2034 409 
Q 2484 409 2743 651 
Q 3003 894 3003 1313 
Q 3003 1734 2745 1975 
Q 2488 2216 2034 2216 
z
M 1403 2484 
Q 997 2584 770 2862 
Q 544 3141 544 3541 
Q 544 4100 942 4425 
Q 1341 4750 2034 4750 
Q 2731 4750 3128 4425 
Q 3525 4100 3525 3541 
Q 3525 3141 3298 2862 
Q 3072 2584 2669 2484 
Q 3125 2378 3379 2068 
Q 3634 1759 3634 1313 
Q 3634 634 3220 271 
Q 2806 -91 2034 -91 
Q 1263 -91 848 271 
Q 434 634 434 1313 
Q 434 1759 690 2068 
Q 947 2378 1403 2484 
z
M 1172 3481 
Q 1172 3119 1398 2916 
Q 1625 2713 2034 2713 
Q 2441 2713 2670 2916 
Q 2900 3119 2900 3481 
Q 2900 3844 2670 4047 
Q 2441 4250 2034 4250 
Q 1625 4250 1398 4047 
Q 1172 3844 1172 3481 
z
" transform="scale(0.015625)"/>
       </defs>
       <use xlink:href="#DejaVuSans-38"/>
       <use xlink:href="#DejaVuSans-30" x="63.623047"/>
      </g>
     </g>
    </g>
    <g id="ytick_6">
     <g id="line2d_15">
      <g>
       <use xlink:href="#m0a648c7508" x="53.75" y="50.852596" style="stroke: #000000; stroke-width: 0.8"/>
      </g>
     </g>
     <g id="text_16">
      <!-- 100 -->
      <g transform="translate(27.6625 54.651815) scale(0.1 -0.1)">
       <use xlink:href="#DejaVuSans-31"/>
       <use xlink:href="#DejaVuSans-30" x="63.623047"/>
       <use xlink:href="#DejaVuSans-30" x="127.246094"/>
      </g>
     </g>
    </g>
    <g id="text_17">
     <!-- Temperature (°C) -->
     <g transform="translate(21.166875 259.521875) rotate(-90) scale(0.12 -0.12)">
      <defs>
       <path id="DejaVuSans-6d" d="M 3328 2828 
Q 3544 3216 3844 3400 
Q 4144 3584 4550 3584 
Q 5097 3584 5394 3201 
Q 5691 2819 5691 2113 
L 5691 0 
L 5113 0 
L 5113 2094 
Q 5113 2597 4934 2840 
Q 4756 3084 4391 3084 
Q 3944 3084 3684 2787 
Q 3425 2491 3425 1978 
L 3425 0 
L 2847 0 
L 2847 2094 
Q 2847 2600 2669 2842 
Q 2491 3084 2119 3084 
Q 1678 3084 1418 2786 
Q 1159 2488 1159 1978 
L 1159 0 
L 581 0 
L 581 3500 
L 1159 3500 
L 1159 2956 
Q 1356 3278 1631 3431 
Q 1906 3584 2284 3584 
Q 2666 3584 2933 3390 
Q 3200 3197 3328 2828 
z
" transform="scale(0.015625)"/>
       <path id="DejaVuSans-70" d="M 1159 525 
L 1159 -1331 
L 581 -1331 
L 581 3500 
L 1159 3500 
L 1159 2969 
Q 1341 3281 1617 3432 
Q 1894 3584 2278 3584 
Q 2916 3584 3314 3078 
Q 3713 2572 3713 1747 
Q 3713 922 3314 415 
Q 2916 -91 2278 -91 
Q 1894 -91 1617 61 
Q 1341 213 1159 525 
z
M 3116 1747 
Q 3116 2381 2855 2742 
Q 2594 3103 2138 3103 
Q 1681 3103 1420 2742 
Q 1159 2381 1159 1747 
Q 1159 1113 1420 752 
Q 1681 391 2138 391 
Q 2594 391 2855 752 
Q 3116 1113 3116 1747 
z
" transform="scale(0.015625)"/>
       <path id="DejaVuSans-b0" d="M 1600 4347 
Q 1350 4347 1178 4173 
Q 1006 4000 1006 3750 
Q 1006 3503 1178 3333 
Q 1350 3163 1600 3163 
Q 1850 3163 2022 3333 
Q 2194 3503 2194 3750 
Q 2194 3997 2020 4172 
Q 1847 4347 1600 4347 
z
M 1600 4750 
Q 1800 4750 1984 4673 
Q 2169 4597 2303 4453 
Q 2447 4313 2519 4134 
Q 2591 3956 2591 3750 
Q 2591 3338 2302 3052 
Q 2013 2766 1594 2766 
Q 1172 2766 890 3047 
Q 609 3328 609 3750 
Q 609 4169 896 4459 
Q 1184 4750 1600 4750 
z
" transform="scale(0.015625)"/>
       <path id="DejaVuSans-43" d="M 4122 4306 
L 4122 3641 
Q 3803 3938 3442 4084 
Q 3081 4231 2675 4231 
Q 1875 4231 1450 3742 
Q 1025 3253 1025 2328 
Q 1025 1406 1450 917 
Q 1875 428 2675 428 
Q 3081 428 3442 575 
Q 3803 722 4122 1019 
L 4122 359 
Q 3791 134 3420 21 
Q 3050 -91 2638 -91 
Q 1578 -91 968 557 
Q 359 1206 359 2328 
Q 359 3453 968 4101 
Q 1578 4750 2638 4750 
Q 3056 4750 3426 4639 
Q 3797 4528 4122 4306 
z
" transform="scale(0.015625)"/>
      </defs>
      <use xlink:href="#DejaVuSans-54"/>
      <use xlink:href="#DejaVuSans-65" x="44.083984"/>
      <use xlink:href="#DejaVuSans-6d" x="105.607422"/>
      <use xlink:href="#DejaVuSans-70" x="203.019531"/>
      <use xlink:href="#DejaVuSans-65" x="266.496094"/>
      <use xlink:href="#DejaVuSans-72" x="328.019531"/>
      <use xlink:href="#DejaVuSans-61" x="369.132812"/>
      <use xlink:href="#DejaVuSans-74" x="430.412109"/>
      <use xlink:href="#DejaVuSans-75" x="469.621094"/>
      <use xlink:href="#DejaVuSans-72" x="533"/>
      <use xlink:href="#DejaVuSans-65" x="571.863281"/>
      <use xlink:href="#DejaVuSans-20" x="633.386719"/>
      <use xlink:href="#DejaVuSans-28" x="665.173828"/>
      <use xlink:href="#DejaVuSans-b0" x="704.1875"/>
      <use xlink:href="#DejaVuSans-43" x="754.1875"/>
      <use xlink:href="#DejaVuSans-29" x="824.011719"/>
     </g>
    </g>
   </g>
   <g id="line2d_16">
    <path d="M 209.331684 195.46478 
L 209.975403 175.286336 
L 210.635977 198.827854 
L 211.273214 155.107891 
L 211.92925 192.101706 
L 212.601816 148.381743 
L 213.226088 148.381743 
L 213.900923 155.107891 
L 214.523898 141.655595 
L 215.303752 148.381743 
L 215.826895 121.477151 
L 216.480986 138.292521 
L 217.133457 151.744817 
L 217.784307 155.107891 
L 218.429323 134.929447 
L 220.391921 155.107891 
L 221.038557 111.387929 
L 221.693297 138.292521 
L 222.344471 138.292521 
L 222.991107 104.661781 
L 223.633206 155.107891 
L 224.285028 134.929447 
L 224.93523 138.292521 
L 225.588025 108.024855 
L 226.889077 148.381743 
L 227.535713 141.655595 
L 228.18235 97.935633 
L 228.828986 121.477151 
L 229.475622 121.477151 
L 230.125176 128.203299 
L 230.772785 108.024855 
L 231.423959 121.477151 
L 232.069947 111.387929 
L 232.71788 87.84641 
L 233.367758 97.935633 
L 234.017959 118.114077 
L 234.669782 118.114077 
L 235.320632 124.840225 
L 235.970509 108.024855 
L 236.620387 108.024855 
L 237.27772 114.751003 
L 237.925977 91.209485 
L 238.577475 121.477151 
L 239.230918 114.751003 
L 239.876258 101.298707 
L 240.52808 108.024855 
L 241.174393 87.84641 
L 241.822001 94.572559 
L 242.46799 91.209485 
L 243.121108 114.751003 
L 243.769365 94.572559 
L 244.422809 87.84641 
L 245.069445 128.203299 
L 245.71673 121.477151 
L 246.365311 131.566373 
L 247.015837 134.929447 
L 247.667983 108.024855 
L 248.319481 118.114077 
L 248.966766 124.840225 
L 249.615995 121.477151 
L 250.262632 81.120262 
L 250.914778 71.03104 
L 251.565628 91.209485 
L 252.213885 87.84641 
L 252.869273 81.120262 
L 253.51753 104.661781 
L 254.165139 91.209485 
L 254.811451 104.661781 
L 255.458412 94.572559 
L 256.762381 94.572559 
L 257.416148 97.935633 
L 258.06635 118.114077 
L 258.712662 121.477151 
L 259.364485 118.114077 
L 260.662619 124.840225 
L 261.312821 111.387929 
L 261.966912 124.840225 
L 262.613225 114.751003 
L 263.265047 111.387929 
L 263.911035 118.114077 
L 264.55832 111.387929 
L 266.507629 111.387929 
L 267.161396 104.661781 
L 267.81257 111.387929 
L 268.45791 121.477151 
L 269.116539 108.024855 
L 269.77063 101.298707 
L 270.415646 104.661781 
L 271.067468 97.935633 
L 271.717346 108.024855 
L 272.374679 111.387929 
L 273.025853 97.935633 
L 274.323663 97.935633 
L 274.969652 87.84641 
L 275.620177 104.661781 
L 276.268434 97.935633 
L 276.919609 101.298707 
L 277.565597 97.935633 
L 278.221957 97.935633 
L 278.871835 87.84641 
L 279.523009 81.120262 
L 280.1677 71.03104 
L 280.817902 91.209485 
L 281.46778 101.298707 
L 282.115713 64.304892 
L 282.772397 64.304892 
L 283.414496 74.394114 
L 284.720734 74.394114 
L 285.373853 81.120262 
L 286.029564 67.667966 
L 287.325106 67.667966 
L 287.976929 77.757188 
L 288.623889 67.667966 
L 289.273767 67.667966 
L 289.920079 60.941818 
L 290.573846 64.304892 
L 291.225993 64.304892 
L 291.873601 67.667966 
L 292.525424 67.667966 
L 293.170116 77.757188 
L 293.82129 67.667966 
L 295.124286 67.667966 
L 295.77935 81.120262 
L 296.430848 64.304892 
L 297.078133 71.03104 
L 297.733197 67.667966 
L 298.381778 60.941818 
L 299.0336 94.572559 
L 299.686071 108.024855 
L 300.342107 97.935633 
L 300.990364 114.751003 
L 302.285257 108.024855 
L 302.93708 118.114077 
L 303.590199 108.024855 
L 304.244614 121.477151 
L 304.893195 124.840225 
L 305.539832 118.114077 
L 306.186144 91.209485 
L 307.48363 104.661781 
L 308.135453 108.024855 
L 308.791165 104.661781 
L 309.44007 104.661781 
L 310.099996 111.387929 
L 310.744039 104.661781 
L 312.046387 138.292521 
L 312.6927 148.381743 
L 313.337067 134.929447 
L 313.989538 151.744817 
L 315.291238 151.744817 
L 315.939819 148.381743 
L 316.587104 155.107891 
L 317.239899 155.107891 
L 317.892045 145.018669 
L 318.543219 151.744817 
L 319.193097 104.661781 
L 319.84654 118.114077 
L 320.488639 124.840225 
L 321.139489 138.292521 
L 321.785477 128.203299 
L 322.436975 138.292521 
L 323.08977 131.566373 
L 323.733489 121.477151 
L 325.037134 158.470965 
L 325.68928 121.477151 
L 326.98385 128.203299 
L 327.632107 128.203299 
L 328.283605 134.929447 
L 328.929917 148.381743 
L 329.583684 128.203299 
L 330.228052 145.018669 
L 330.875985 151.744817 
L 331.527159 145.018669 
L 332.176064 155.107891 
L 332.828859 128.203299 
L 333.477764 148.381743 
L 334.771361 128.203299 
L 335.427073 138.292521 
L 336.075006 155.107891 
L 336.722939 138.292521 
L 337.374437 148.381743 
L 338.026584 138.292521 
L 338.67322 134.929447 
L 339.320181 141.655595 
L 339.966817 138.292521 
L 340.616695 111.387929 
L 341.270786 171.923261 
L 341.919043 155.107891 
L 342.570541 161.834039 
L 343.222364 161.834039 
L 343.869 168.560187 
L 344.522767 165.197113 
L 345.174914 171.923261 
L 345.828033 161.834039 
L 347.133623 161.834039 
L 347.784473 158.470965 
L 348.433378 165.197113 
L 349.080987 161.834039 
L 349.727623 168.560187 
L 350.374908 168.560187 
L 351.024461 165.197113 
L 351.674663 158.470965 
L 352.975715 165.197113 
L 353.616517 165.197113 
L 354.268988 161.834039 
L 354.918541 165.197113 
L 355.573281 151.744817 
L 356.220889 165.197113 
L 356.873684 165.197113 
L 357.523562 158.470965 
L 358.175384 161.834039 
L 358.821048 158.470965 
L 359.469305 161.834039 
L 362.710915 161.834039 
L 363.364682 165.197113 
L 364.018449 158.470965 
L 364.665734 155.107891 
L 365.31237 148.381743 
L 365.965489 161.834039 
L 366.611153 165.197113 
L 367.261679 165.197113 
L 367.917715 158.470965 
L 368.568565 161.834039 
L 369.87221 161.834039 
L 370.519494 155.107891 
L 371.172289 158.470965 
L 372.476582 158.470965 
L 373.127757 165.197113 
L 373.784441 161.834039 
L 375.080307 161.834039 
L 375.732777 165.197113 
L 376.386545 165.197113 
L 377.036098 161.834039 
L 377.683383 155.107891 
L 378.337798 158.470965 
L 378.982814 165.197113 
L 380.279976 158.470965 
L 381.576814 158.470965 
L 382.875597 165.197113 
L 383.528716 155.107891 
L 384.181835 158.470965 
L 384.82912 165.197113 
L 385.480618 155.107891 
L 386.125958 161.834039 
L 386.778753 161.834039 
L 387.428306 158.470965 
L 388.079805 161.834039 
L 389.383774 155.107891 
L 390.034624 161.834039 
L 391.330165 155.107891 
L 392.625707 168.560187 
L 393.275909 161.834039 
L 393.927407 161.834039 
L 394.574368 158.470965 
L 395.225542 161.834039 
L 395.874123 158.470965 
L 396.529835 148.381743 
L 397.176147 155.107891 
L 397.822135 165.197113 
L 398.472661 158.470965 
L 399.119622 148.381743 
L 399.769175 151.744817 
L 400.422294 161.834039 
L 401.07282 161.834039 
L 401.728856 151.744817 
L 402.376465 155.107891 
L 403.674924 148.381743 
L 404.318967 158.470965 
L 404.967224 155.107891 
L 405.615157 158.470965 
L 406.26309 151.744817 
L 406.917829 165.197113 
L 407.568679 168.560187 
L 408.214343 158.470965 
L 408.868759 161.834039 
L 409.518961 161.834039 
L 410.176617 158.470965 
L 410.823578 161.834039 
L 411.470214 158.470965 
L 412.12463 158.470965 
L 412.772887 161.834039 
L 413.422764 161.834039 
L 414.071021 158.470965 
L 414.722844 161.834039 
L 415.377583 168.560187 
L 416.025192 148.381743 
L 416.67118 158.470965 
L 417.318465 161.834039 
L 417.975798 161.834039 
L 418.621462 155.107891 
L 419.276201 158.470965 
L 419.921217 141.655595 
L 421.217407 168.560187 
L 421.873119 165.197113 
L 422.521376 165.197113 
L 423.172874 161.834039 
L 423.817242 161.834039 
L 424.475222 158.470965 
L 425.120562 151.744817 
L 425.771088 165.197113 
L 426.417725 161.834039 
L 427.066954 168.560187 
L 427.717804 161.834039 
L 428.367033 161.834039 
L 429.018208 148.381743 
L 429.66614 148.381743 
L 430.313749 161.834039 
L 430.961682 158.470965 
L 432.25852 165.197113 
L 432.90775 161.834039 
L 433.556331 168.560187 
L 434.205236 168.560187 
L 434.854465 161.834039 
L 436.153248 161.834039 
L 436.803126 168.560187 
L 437.451059 148.381743 
L 438.107419 165.197113 
L 438.752111 148.381743 
L 439.40134 124.840225 
L 440.052838 151.744817 
L 440.704013 151.744817 
L 441.351946 134.929447 
L 441.99923 134.929447 
L 442.650728 165.197113 
L 443.296717 161.834039 
L 443.943029 161.834039 
L 444.593231 165.197113 
L 445.238246 158.470965 
L 446.535733 165.197113 
L 447.188528 141.655595 
L 447.840674 171.923261 
L 448.488607 151.744817 
L 449.141402 151.744817 
L 449.789659 124.840225 
L 450.434675 145.018669 
L 451.085201 128.203299 
L 451.738319 124.840225 
L 452.382363 128.203299 
L 453.033213 124.840225 
L 454.332644 124.840225 
L 454.987708 121.477151 
L 455.634668 165.197113 
L 456.282601 168.560187 
L 456.929886 118.114077 
L 457.580412 138.292521 
L 458.232882 128.203299 
L 458.876926 128.203299 
L 459.527452 145.018669 
L 460.17344 155.107891 
L 460.825262 148.381743 
L 461.474816 145.018669 
L 462.126638 148.381743 
L 462.779757 141.655595 
L 463.427366 168.560187 
L 464.079188 158.470965 
L 464.730038 161.834039 
L 465.378619 151.744817 
L 466.026552 151.744817 
L 466.682264 161.834039 
L 467.329549 151.744817 
L 467.972944 161.834039 
L 468.626711 155.107891 
L 469.277237 165.197113 
L 470.580558 158.470965 
L 471.227194 161.834039 
L 471.877072 131.566373 
L 472.525653 161.834039 
L 473.173586 145.018669 
L 473.827353 155.107891 
L 474.4795 161.834039 
L 475.780552 168.560187 
L 476.418112 168.560187 
L 477.068638 134.929447 
L 477.721757 151.744817 
L 478.369366 155.107891 
L 479.019244 161.834039 
L 479.67139 138.292521 
L 480.318675 165.197113 
L 480.968228 168.560187 
L 481.627182 158.470965 
L 482.276087 158.470965 
L 482.928882 151.744817 
L 483.576815 168.560187 
L 484.232851 128.203299 
L 484.878191 151.744817 
L 485.527744 145.018669 
L 486.177298 134.929447 
L 486.828148 151.744817 
L 487.485156 145.018669 
L 488.135034 158.470965 
L 488.780374 168.560187 
L 489.426362 128.203299 
L 490.076239 134.929447 
L 490.722876 148.381743 
L 491.37405 148.381743 
L 492.023279 145.018669 
L 492.67964 151.744817 
L 493.331462 151.744817 
L 493.979719 145.018669 
L 494.636079 151.744817 
L 495.284336 128.203299 
L 495.941669 138.292521 
L 496.586685 155.107891 
L 497.237211 138.292521 
L 497.885792 151.744817 
L 498.535345 141.655595 
L 499.18814 148.381743 
L 499.834128 131.566373 
L 500.481089 155.107891 
L 501.138421 148.381743 
L 501.787327 138.292521 
L 503.085461 151.744817 
L 503.736311 138.292521 
L 504.388134 141.655595 
L 505.039632 121.477151 
L 505.692103 145.018669 
L 506.342304 155.107891 
L 506.991858 145.018669 
L 507.643356 138.292521 
L 508.295503 145.018669 
L 508.944408 155.107891 
L 509.595906 134.929447 
L 510.247729 148.381743 
L 510.895662 138.292521 
L 511.544243 138.292521 
L 512.193148 155.107891 
L 513.491931 148.381743 
L 514.144078 155.107891 
L 514.7959 131.566373 
L 515.442536 158.470965 
L 516.098897 161.834039 
L 516.751691 155.107891 
L 517.403838 141.655595 
L 518.701973 141.655595 
L 519.35023 151.744817 
L 520.002376 148.381743 
L 520.656792 151.744817 
L 521.304725 151.744817 
L 521.951685 145.018669 
L 522.601563 161.834039 
L 523.248199 148.381743 
L 523.89516 145.018669 
L 524.544065 128.203299 
L 525.200749 158.470965 
L 525.844469 141.655595 
L 526.496939 151.744817 
L 527.1439 158.470965 
L 527.789888 155.107891 
L 528.44171 148.381743 
L 529.093533 155.107891 
L 529.742114 148.381743 
L 531.035711 148.381743 
L 531.691099 151.744817 
L 532.338707 141.655595 
L 532.985344 124.840225 
L 533.634573 155.107891 
L 534.28283 138.292521 
L 535.581613 151.744817 
L 536.233111 141.655595 
L 536.880072 134.929447 
L 537.534811 141.655595 
L 538.1808 138.292521 
L 539.480555 138.292521 
L 540.126219 158.470965 
L 541.429215 145.018669 
L 542.079417 134.929447 
L 542.727026 128.203299 
L 543.3782 141.655595 
L 544.030671 134.929447 
L 544.680224 148.381743 
L 545.327185 158.470965 
L 545.975442 141.655595 
L 546.628561 151.744817 
L 547.926696 138.292521 
L 548.577546 158.470965 
L 549.229044 134.929447 
L 549.874708 145.018669 
L 550.526206 151.744817 
L 551.171222 134.929447 
L 551.825637 155.107891 
L 552.47357 145.018669 
L 553.132848 145.018669 
L 553.780456 141.655595 
L 554.431955 148.381743 
L 555.078915 141.655595 
L 555.72782 155.107891 
L 556.375753 128.203299 
L 557.028224 165.197113 
L 557.685557 161.834039 
L 558.337055 175.286336 
L 558.983043 161.834039 
L 560.283771 168.560187 
L 563.532511 168.560187 
L 564.184333 161.834039 
L 564.833563 168.560187 
L 565.480847 161.834039 
L 566.137207 168.560187 
L 566.78903 168.560187 
L 567.442797 165.197113 
L 568.088137 168.560187 
L 568.740608 158.470965 
L 569.39243 151.744817 
L 570.043604 168.560187 
L 570.698992 161.834039 
L 572.00134 161.834039 
L 572.653811 168.560187 
L 573.302068 168.560187 
L 574.60312 155.107891 
L 575.249756 165.197113 
L 575.903524 161.834039 
L 577.203927 168.560187 
L 577.850239 168.560187 
L 579.145133 161.834039 
L 579.799224 165.197113 
L 580.452343 161.834039 
L 581.100276 165.197113 
L 581.752422 161.834039 
L 582.403273 165.197113 
L 583.050881 171.923261 
L 583.698166 155.107891 
L 584.994032 168.560187 
L 585.644558 168.560187 
L 586.294759 161.834039 
L 586.948202 168.560187 
L 587.59808 161.834039 
L 588.247958 161.834039 
L 588.896539 165.197113 
L 590.194349 158.470965 
L 590.853303 161.834039 
L 591.49605 151.744817 
L 592.152734 161.834039 
L 592.806177 168.560187 
L 593.452489 165.197113 
L 594.106581 168.560187 
L 594.754838 165.197113 
L 595.406336 151.744817 
L 596.056214 161.834039 
L 596.708684 155.107891 
L 598.000012 168.560187 
L 598.651511 161.834039 
L 599.304629 168.560187 
L 599.94608 165.197113 
L 600.603088 165.197113 
L 601.251021 151.744817 
L 601.900251 158.470965 
L 602.548183 168.560187 
L 603.198385 148.381743 
L 603.850532 158.470965 
L 604.502354 161.834039 
L 606.454904 141.655595 
L 607.762439 161.834039 
L 608.415558 155.107891 
L 609.713044 148.381743 
L 611.015068 161.834039 
L 611.667863 158.470965 
L 612.308989 161.834039 
L 612.96146 114.751003 
L 613.611338 128.203299 
L 614.261215 151.744817 
L 614.914658 148.381743 
L 615.560971 118.114077 
L 616.213117 155.107891 
L 616.867857 158.470965 
L 617.512548 155.107891 
L 618.160157 158.470965 
L 618.810035 151.744817 
L 619.456671 158.470965 
L 620.10979 158.470965 
L 621.418297 165.197113 
L 622.061692 161.834039 
L 622.712218 165.197113 
L 623.366633 165.197113 
L 624.01327 161.834039 
L 625.961606 161.834039 
L 626.608243 158.470965 
L 627.261362 161.834039 
L 627.91448 151.744817 
L 628.562737 155.107891 
L 629.208077 161.834039 
L 629.860224 155.107891 
L 630.507833 151.744817 
L 631.168407 134.929447 
L 631.805643 158.470965 
L 632.462003 165.197113 
L 633.109936 158.470965 
L 633.762407 161.834039 
L 634.410016 161.834039 
L 635.064107 141.655595 
L 635.72144 131.566373 
L 636.3684 141.655595 
L 637.015685 134.929447 
L 637.671073 151.744817 
L 638.316413 118.114077 
L 638.966614 141.655595 
L 639.624271 141.655595 
L 640.270907 145.018669 
L 640.918516 145.018669 
L 641.569042 151.744817 
L 642.220216 148.381743 
L 642.865232 165.197113 
L 643.521916 158.470965 
L 644.165636 148.381743 
L 644.819079 158.470965 
L 645.470253 104.661781 
L 646.120131 145.018669 
L 646.771629 118.114077 
L 647.424424 134.929447 
L 648.075598 128.203299 
L 649.376974 148.381743 
L 650.03301 148.381743 
L 650.677377 108.024855 
L 651.321745 155.107891 
L 651.976809 168.560187 
L 652.627659 168.560187 
L 653.27235 175.286336 
L 654.575347 168.560187 
L 655.222307 171.923261 
L 655.866999 168.560187 
L 656.520118 175.286336 
L 657.173237 161.834039 
L 657.818577 161.834039 
L 658.464889 171.923261 
L 659.123518 168.560187 
L 659.764968 161.834039 
L 660.419384 158.470965 
L 661.066668 158.470965 
L 661.720436 168.560187 
L 662.372582 168.560187 
L 663.018894 158.470965 
L 663.673634 168.560187 
L 664.325781 175.286336 
L 664.979224 161.834039 
L 665.636556 161.834039 
L 666.279951 171.923261 
L 666.931125 161.834039 
L 667.580355 158.470965 
L 668.875572 165.197113 
L 669.528043 158.470965 
L 670.182783 155.107891 
L 670.835253 158.470965 
L 671.479621 165.197113 
L 672.12885 168.560187 
L 672.775811 165.197113 
L 673.431523 158.470965 
L 674.079456 168.560187 
L 674.731602 158.470965 
L 675.384397 161.834039 
L 676.036219 158.470965 
L 677.333058 165.197113 
L 677.97937 155.107891 
L 679.27556 161.834039 
L 679.92641 161.834039 
L 680.577908 158.470965 
L 681.230703 165.197113 
L 681.878636 161.834039 
L 682.527865 168.560187 
L 683.825027 161.834039 
L 684.473284 165.197113 
L 685.124783 161.834039 
L 686.424214 161.834039 
L 687.076036 155.107891 
L 687.723969 155.107891 
L 688.376116 168.560187 
L 689.025669 158.470965 
L 690.32348 165.197113 
L 690.970765 165.197113 
L 691.619346 161.834039 
L 692.274409 168.560187 
L 692.92137 161.834039 
L 694.22696 161.834039 
L 694.878458 158.470965 
L 695.523798 161.834039 
L 696.171082 161.834039 
L 696.818043 158.470965 
L 698.120067 165.197113 
L 698.766703 155.107891 
L 699.419822 161.834039 
L 700.066783 165.197113 
L 700.713419 165.197113 
L 701.366214 158.470965 
L 702.014471 158.470965 
L 703.315199 165.197113 
L 703.961511 161.834039 
L 704.61852 165.197113 
L 705.269694 161.834039 
L 705.916006 155.107891 
L 706.564587 161.834039 
L 709.161829 161.834039 
L 709.813651 155.107891 
L 711.117296 161.834039 
L 711.76847 155.107891 
L 712.421265 151.744817 
L 713.077949 158.470965 
L 713.725882 158.470965 
L 714.373491 165.197113 
L 715.670005 158.470965 
L 716.319883 124.840225 
L 716.966195 138.292521 
L 717.614452 138.292521 
L 718.259792 151.744817 
L 718.910318 145.018669 
L 719.55663 121.477151 
L 720.208777 131.566373 
L 720.857358 118.114077 
L 721.504318 151.744817 
L 722.151279 138.292521 
L 722.798563 158.470965 
L 723.449413 161.834039 
L 724.105125 161.834039 
L 724.7563 155.107891 
L 725.405205 158.470965 
L 726.058324 148.381743 
L 726.705608 161.834039 
L 727.352245 158.470965 
L 728.002122 158.470965 
L 728.649407 161.834039 
L 729.94819 161.834039 
L 730.590937 155.107891 
L 731.243408 131.566373 
L 731.892637 141.655595 
L 732.538301 148.381743 
L 733.190448 134.929447 
L 733.841298 155.107891 
L 734.488582 141.655595 
L 735.141701 141.655595 
L 735.784772 155.107891 
L 736.441781 161.834039 
L 737.09652 158.470965 
L 737.745101 168.560187 
L 738.394007 128.203299 
L 739.044857 148.381743 
L 739.695383 141.655595 
L 740.346233 151.744817 
L 740.998379 138.292521 
L 741.648257 141.655595 
L 742.300079 151.744817 
L 742.951902 134.929447 
L 743.602103 151.744817 
L 746.208421 165.197113 
L 746.857326 151.744817 
L 747.505907 155.107891 
L 748.153516 165.197113 
L 748.802097 161.834039 
L 749.451651 148.381743 
L 750.099259 145.018669 
L 750.743951 155.107891 
L 752.68937 165.197113 
L 753.341193 161.834039 
L 753.987505 161.834039 
L 754.639652 168.560187 
L 755.284667 124.840225 
L 755.931952 155.107891 
L 757.232031 148.381743 
L 757.879964 148.381743 
L 758.528545 138.292521 
L 759.180368 145.018669 
L 759.827328 138.292521 
L 760.482392 148.381743 
L 761.134214 141.655595 
L 761.787658 121.477151 
L 762.433322 161.834039 
L 763.085468 158.470965 
L 763.735994 165.197113 
L 764.391058 158.470965 
L 765.045797 168.560187 
L 765.688544 128.203299 
L 766.346525 158.470965 
L 766.993485 161.834039 
L 767.645956 158.470965 
L 768.290972 168.560187 
L 768.943118 161.834039 
L 770.239308 168.560187 
L 771.537443 168.560187 
L 772.19121 134.929447 
L 772.836874 161.834039 
L 773.490966 155.107891 
L 774.140843 134.929447 
L 774.79461 148.381743 
L 775.447729 148.381743 
L 776.094366 134.929447 
L 776.739381 138.292521 
L 777.390556 134.929447 
L 778.042378 128.203299 
L 778.68869 128.203299 
L 779.338568 155.107891 
L 779.991039 155.107891 
L 780.641889 158.470965 
L 781.298249 118.114077 
L 781.942616 145.018669 
L 782.593142 141.655595 
L 783.240751 134.929447 
L 783.88836 134.929447 
L 784.534672 141.655595 
L 785.182929 158.470965 
L 785.834103 148.381743 
L 786.479443 118.114077 
L 787.131914 108.024855 
L 787.779523 158.470965 
L 788.427455 161.834039 
L 789.726887 155.107891 
L 790.379681 141.655595 
L 791.031828 155.107891 
L 791.682678 165.197113 
L 792.333204 158.470965 
L 793.634904 165.197113 
L 794.937901 165.197113 
L 795.58162 161.834039 
L 796.23247 161.834039 
L 796.882672 168.560187 
L 797.532874 168.560187 
L 798.186965 161.834039 
L 798.837167 161.834039 
L 799.488341 124.840225 
L 800.139515 134.929447 
L 800.789393 165.197113 
L 801.445753 165.197113 
L 802.099844 161.834039 
L 802.75037 165.197113 
L 803.398951 161.834039 
L 804.049477 168.560187 
L 805.347288 161.834039 
L 805.999758 161.834039 
L 806.643478 165.197113 
L 807.294652 165.197113 
L 807.942261 161.834039 
L 809.249147 168.560187 
L 809.889625 158.470965 
L 810.540475 168.560187 
L 811.190352 161.834039 
L 811.843147 165.197113 
L 813.149385 158.470965 
L 813.801532 161.834039 
L 815.103556 161.834039 
L 815.750192 158.470965 
L 816.400718 158.470965 
L 817.705659 165.197113 
L 818.350999 165.197113 
L 819.002498 161.834039 
L 820.949538 161.834039 
L 821.602657 165.197113 
L 822.249617 165.197113 
L 822.898846 158.470965 
L 823.55391 161.834039 
L 825.501598 161.834039 
L 826.150828 155.107891 
L 826.797464 161.834039 
L 827.448638 148.381743 
L 828.096895 161.834039 
L 831.991623 161.834039 
L 832.638584 158.470965 
L 833.290082 161.834039 
L 833.948387 158.470965 
L 834.595348 161.834039 
L 835.252032 158.470965 
L 835.894131 158.470965 
L 837.199072 165.197113 
L 837.845708 165.197113 
L 838.500772 161.834039 
L 840.461426 161.834039 
L 841.105793 158.470965 
L 841.75794 161.834039 
L 844.997928 161.834039 
L 845.648454 165.197113 
L 846.293146 165.197113 
L 846.943996 124.840225 
L 847.598087 124.840225 
L 848.242454 155.107891 
L 848.89298 161.834039 
L 849.541562 161.834039 
L 850.187874 165.197113 
L 850.84002 161.834039 
L 852.136534 161.834039 
L 852.795163 158.470965 
L 852.795163 158.470965 
" clip-path="url(#pd662a147de)" style="fill: none; stroke: #e74c3c; stroke-width: 2; stroke-linecap: square"/>
   </g>
   <g id="line2d_17">
    <path d="M 53.75 198.827854 
L 54.399878 198.827854 
L 55.696716 185.375558 
L 56.346918 195.46478 
L 56.993878 145.018669 
L 57.645376 192.101706 
L 58.302385 195.46478 
L 58.951614 188.738632 
L 59.607326 192.101706 
L 60.249101 182.012484 
L 60.900923 158.470965 
L 61.56409 161.834039 
L 62.198085 131.566373 
L 62.846667 124.840225 
L 63.492979 138.292521 
L 64.140263 175.286336 
L 64.801486 168.560187 
L 65.432564 128.203299 
L 66.085683 175.286336 
L 66.73556 165.197113 
L 67.382845 165.197113 
L 68.033047 155.107891 
L 68.680656 192.101706 
L 69.334747 151.744817 
L 70.003748 131.566373 
L 70.628992 138.292521 
L 71.276601 128.203299 
L 72.125493 134.929447 
L 72.575708 128.203299 
L 73.226234 128.203299 
L 73.87287 158.470965 
L 74.524044 141.655595 
L 75.173922 138.292521 
L 75.824448 141.655595 
L 76.480808 148.381743 
L 77.129389 138.292521 
L 77.786074 148.381743 
L 78.437896 141.655595 
L 79.082264 121.477151 
L 79.741865 131.566373 
L 80.383964 131.566373 
L 81.033193 128.203299 
L 81.685015 128.203299 
L 82.335217 104.661781 
L 82.983474 121.477151 
L 83.632704 108.024855 
L 84.280312 148.381743 
L 84.928569 161.834039 
L 85.572613 158.470965 
L 86.225083 151.744817 
L 86.869451 121.477151 
L 88.166289 134.929447 
L 88.815843 134.929447 
L 89.468313 138.292521 
L 90.117543 131.566373 
L 91.414381 111.387929 
L 92.060369 128.203299 
L 92.712191 114.751003 
L 93.357531 128.203299 
L 94.00514 121.477151 
L 94.662473 128.203299 
L 95.308785 118.114077 
L 95.955421 111.387929 
L 97.251611 124.840225 
L 97.903434 111.387929 
L 99.214533 124.840225 
L 99.853067 91.209485 
L 100.501972 118.114077 
L 101.157036 108.024855 
L 101.804644 128.203299 
L 102.452901 141.655595 
L 103.105696 91.209485 
L 103.752333 114.751003 
L 104.405127 87.84641 
L 105.055977 104.661781 
L 105.702938 104.661781 
L 106.357029 97.935633 
L 107.003666 94.572559 
L 107.652571 121.477151 
L 108.303745 111.387929 
L 108.955243 111.387929 
L 109.603825 97.935633 
L 110.263102 94.572559 
L 110.910387 121.477151 
L 111.552485 124.840225 
L 112.203335 108.024855 
L 112.856454 121.477151 
L 113.501794 121.477151 
L 114.158478 128.203299 
L 114.807708 128.203299 
L 115.452723 134.929447 
L 116.110056 104.661781 
L 116.754424 128.203299 
L 117.406894 128.203299 
L 118.054179 141.655595 
L 118.705677 145.018669 
L 119.362686 131.566373 
L 120.008998 131.566373 
L 120.659848 141.655595 
L 121.310374 134.929447 
L 121.957334 134.929447 
L 122.61175 111.387929 
L 123.259683 138.292521 
L 123.906967 141.655595 
L 124.559762 134.929447 
L 125.208667 67.667966 
L 125.857897 124.840225 
L 126.503237 128.203299 
L 127.160569 104.661781 
L 127.811743 124.840225 
L 128.461297 134.929447 
L 129.108906 131.566373 
L 129.761376 124.840225 
L 130.412226 131.566373 
L 131.062104 118.114077 
L 131.708741 128.203299 
L 132.357322 131.566373 
L 133.016275 94.572559 
L 133.667449 108.024855 
L 134.311817 108.024855 
L 134.965584 104.661781 
L 135.620647 97.935633 
L 136.266636 108.024855 
L 136.920727 87.84641 
L 137.566715 104.661781 
L 138.21562 91.209485 
L 138.869712 81.120262 
L 139.523155 87.84641 
L 140.178543 67.667966 
L 140.824855 121.477151 
L 141.481539 121.477151 
L 142.138224 128.203299 
L 142.785508 128.203299 
L 143.432793 121.477151 
L 144.085263 131.566373 
L 144.737086 124.840225 
L 145.387936 128.203299 
L 146.035545 128.203299 
L 146.688988 111.387929 
L 147.343403 128.203299 
L 148.644131 128.203299 
L 149.296277 131.566373 
L 149.952962 128.203299 
L 150.602839 114.751003 
L 151.250772 124.840225 
L 151.902919 121.477151 
L 152.546638 128.203299 
L 153.196192 121.477151 
L 154.490761 128.203299 
L 155.139018 124.840225 
L 155.786627 124.840225 
L 156.438449 118.114077 
L 157.085086 128.203299 
L 157.731722 118.114077 
L 159.028236 124.840225 
L 160.9756 124.840225 
L 161.621588 101.298707 
L 162.274383 121.477151 
L 162.929123 118.114077 
L 163.574462 121.477151 
L 164.871301 114.751003 
L 165.522151 121.477151 
L 166.167815 108.024855 
L 166.818016 118.114077 
L 167.46757 104.661781 
L 168.118096 121.477151 
L 168.771863 101.298707 
L 169.423361 71.03104 
L 170.07097 67.667966 
L 170.725386 87.84641 
L 171.370401 91.209485 
L 172.021251 81.120262 
L 172.672425 94.572559 
L 173.328786 74.394114 
L 173.979312 81.120262 
L 174.628865 81.120262 
L 175.281336 94.572559 
L 175.935103 67.667966 
L 176.585953 77.757188 
L 177.230969 77.757188 
L 177.87955 87.84641 
L 178.529752 104.661781 
L 179.181898 111.387929 
L 179.831776 111.387929 
L 180.478736 118.114077 
L 181.135097 118.114077 
L 181.777519 114.751003 
L 182.432907 118.114077 
L 183.079868 114.751003 
L 183.732014 118.114077 
L 185.028204 118.114077 
L 185.676785 108.024855 
L 186.328284 118.114077 
L 186.982051 118.114077 
L 187.633873 111.387929 
L 188.284399 118.114077 
L 188.932008 111.387929 
L 189.583506 114.751003 
L 190.238894 101.298707 
L 190.883262 118.114077 
L 191.535408 77.757188 
L 192.185286 81.120262 
L 192.841646 71.03104 
L 193.494441 111.387929 
L 194.141077 114.751003 
L 195.439536 114.751003 
L 196.085848 118.114077 
L 196.734429 114.751003 
L 197.385928 114.751003 
L 198.040991 118.114077 
L 198.689573 108.024855 
L 199.342692 108.024855 
L 199.992569 111.387929 
L 200.637909 101.298707 
L 201.290056 111.387929 
L 203.233854 111.387929 
L 203.888594 114.751003 
L 204.534258 111.387929 
L 205.184135 111.387929 
L 205.837903 97.935633 
L 206.49167 111.387929 
L 207.135065 108.024855 
L 209.084698 108.024855 
L 209.733603 111.387929 
L 210.386722 111.387929 
L 211.030441 67.667966 
L 211.679995 91.209485 
L 212.337328 74.394114 
L 212.980074 101.298707 
L 213.631249 108.024855 
L 214.279506 108.024855 
L 214.928411 97.935633 
L 215.573427 111.387929 
L 216.224601 108.024855 
L 216.876423 108.024855 
L 217.530514 111.387929 
L 218.177799 111.387929 
L 219.477554 104.661781 
L 220.130025 67.667966 
L 220.774068 74.394114 
L 221.427187 101.298707 
L 222.070582 111.387929 
L 222.727915 101.298707 
L 223.374227 108.024855 
L 224.031236 108.024855 
L 224.683707 111.387929 
L 225.334232 74.394114 
L 225.982489 74.394114 
L 226.634636 77.757188 
L 227.285162 67.667966 
L 227.933419 71.03104 
L 228.58589 77.757188 
L 229.239657 74.394114 
L 229.894396 74.394114 
L 230.542005 77.757188 
L 231.188642 71.03104 
L 231.841436 77.757188 
L 232.497797 97.935633 
L 233.145729 101.298707 
L 233.79269 97.935633 
L 234.438678 111.387929 
L 235.096011 91.209485 
L 235.747833 108.024855 
L 236.396738 97.935633 
L 237.046292 97.935633 
L 237.69779 91.209485 
L 238.344751 97.935633 
L 238.992035 101.298707 
L 239.641265 97.935633 
L 240.288549 104.661781 
L 240.941992 108.024855 
L 241.584091 104.661781 
L 242.233645 94.572559 
L 242.885467 97.935633 
L 243.535993 97.935633 
L 244.193974 101.298707 
L 244.838665 97.935633 
L 245.48984 101.298707 
L 246.1462 101.298707 
L 247.447576 94.572559 
L 248.101343 94.572559 
L 248.751869 101.298707 
L 249.402719 97.935633 
L 250.048059 108.024855 
L 250.703771 97.935633 
L 251.349759 101.298707 
L 251.997368 94.572559 
L 252.647245 108.024855 
L 253.29453 101.298707 
L 253.943759 104.661781 
L 254.591692 97.935633 
L 255.237356 108.024855 
L 255.888855 108.024855 
L 256.537112 101.298707 
L 257.183748 108.024855 
L 257.836543 104.661781 
L 258.491282 108.024855 
L 259.143429 101.298707 
L 259.792334 108.024855 
L 260.443508 97.935633 
L 261.094358 97.935633 
L 261.744884 101.298707 
L 262.390224 101.298707 
L 263.042371 77.757188 
L 263.693869 104.661781 
L 264.34245 87.84641 
L 264.99168 87.84641 
L 265.640909 101.298707 
L 266.294352 87.84641 
L 266.944554 101.298707 
L 267.593459 91.209485 
L 268.244633 97.935633 
L 268.894511 97.935633 
L 269.543416 91.209485 
L 270.188432 101.298707 
L 270.841227 91.209485 
L 271.487215 101.298707 
L 272.140334 101.298707 
L 272.79086 94.572559 
L 273.433607 101.298707 
L 274.083484 101.298707 
L 274.731741 87.84641 
L 275.384536 101.298707 
L 276.032469 97.935633 
L 276.692395 91.209485 
L 277.334169 81.120262 
L 277.984371 101.298707 
L 278.6336 91.209485 
L 279.279588 97.935633 
L 279.935949 91.209485 
L 280.581613 101.298707 
L 281.230842 94.572559 
L 281.882988 101.298707 
L 282.530597 101.298707 
L 283.18242 97.935633 
L 283.841697 97.935633 
L 284.48574 91.209485 
L 285.141776 101.298707 
L 286.438615 87.84641 
L 287.088492 87.84641 
L 287.745825 94.572559 
L 288.396027 94.572559 
L 289.05109 101.298707 
L 289.70032 94.572559 
L 290.347604 74.394114 
L 290.999103 81.120262 
L 291.647684 81.120262 
L 292.300155 74.394114 
L 293.59051 74.394114 
L 294.246222 77.757188 
L 295.548895 71.03104 
L 296.198772 74.394114 
L 296.845733 74.394114 
L 297.50339 71.03104 
L 298.150026 64.304892 
L 298.800228 71.03104 
L 299.45594 74.394114 
L 300.099011 91.209485 
L 300.749537 81.120262 
L 301.401683 104.661781 
L 302.052209 91.209485 
L 302.696901 81.120262 
L 303.345158 87.84641 
L 303.998277 104.661781 
L 304.642644 131.566373 
L 305.292846 141.655595 
L 305.942723 145.018669 
L 307.239886 138.292521 
L 307.885874 145.018669 
L 308.532186 155.107891 
L 309.184009 148.381743 
L 311.130076 158.470965 
L 311.783843 145.018669 
L 312.435342 158.470965 
L 313.084247 158.470965 
L 313.7338 155.107891 
L 314.388864 165.197113 
L 315.042307 158.470965 
L 315.693481 165.197113 
L 316.344331 168.560187 
L 316.997126 168.560187 
L 317.651866 165.197113 
L 318.300447 168.560187 
L 320.897365 168.560187 
L 321.541084 155.107891 
L 322.188693 148.381743 
L 322.840839 148.381743 
L 323.48391 158.470965 
L 324.132167 148.381743 
L 324.783341 161.834039 
L 325.432895 165.197113 
L 326.077911 161.834039 
L 326.731029 168.560187 
L 327.381555 158.470965 
L 328.030785 175.286336 
L 328.677421 171.923261 
L 329.326002 185.375558 
L 329.976204 182.012484 
L 330.629971 171.923261 
L 331.283414 148.381743 
L 331.929403 175.286336 
L 332.588032 175.286336 
L 333.232723 178.64941 
L 333.879684 175.286336 
L 334.53021 185.375558 
L 335.18106 175.286336 
L 335.824131 185.375558 
L 336.473684 185.375558 
L 337.127776 178.64941 
L 338.430772 185.375558 
L 339.080002 182.012484 
L 339.730852 182.012484 
L 340.381702 188.738632 
L 341.034821 182.012484 
L 341.681457 185.375558 
L 342.981861 185.375558 
L 343.631414 182.012484 
L 344.277402 182.012484 
L 344.929225 185.375558 
L 345.571971 182.012484 
L 346.220877 185.375558 
L 346.873996 182.012484 
L 347.519984 192.101706 
L 348.169537 171.923261 
L 348.81585 185.375558 
L 349.467024 192.101706 
L 350.113012 182.012484 
L 350.762241 182.012484 
L 351.408553 192.101706 
L 352.057459 192.101706 
L 352.705716 185.375558 
L 353.355269 188.738632 
L 354.002878 178.64941 
L 354.654376 192.101706 
L 355.304578 192.101706 
L 355.952835 195.46478 
L 356.599147 192.101706 
L 357.902144 192.101706 
L 358.554615 188.738632 
L 359.85048 195.46478 
L 360.500034 192.101706 
L 361.800113 192.101706 
L 362.443833 195.46478 
L 363.090469 182.012484 
L 363.744236 192.101706 
L 364.399624 192.101706 
L 365.049826 188.738632 
L 365.694193 182.012484 
L 366.348609 192.101706 
L 366.996866 192.101706 
L 367.645123 182.012484 
L 368.296297 175.286336 
L 368.944878 195.46478 
L 369.589894 182.012484 
L 370.239123 141.655595 
L 370.888353 178.64941 
L 371.53272 158.470965 
L 372.182598 161.834039 
L 372.831179 185.375558 
L 373.486891 182.012484 
L 374.140982 161.834039 
L 374.791508 161.834039 
L 375.445275 185.375558 
L 376.093532 175.286336 
L 376.746651 158.470965 
L 377.396853 182.012484 
L 378.043165 168.560187 
L 378.69045 182.012484 
L 379.347134 182.012484 
L 379.99604 175.286336 
L 380.648186 192.101706 
L 381.298712 151.744817 
L 382.599764 198.827854 
L 383.255476 195.46478 
L 383.902436 195.46478 
L 384.551018 198.827854 
L 385.200247 171.923261 
L 385.8498 185.375558 
L 386.495464 192.101706 
L 387.146963 188.738632 
L 388.440884 195.46478 
L 389.090113 192.101706 
L 389.744529 192.101706 
L 390.39862 188.738632 
L 391.696755 195.46478 
L 392.345336 192.101706 
L 392.993917 195.46478 
L 394.295293 195.46478 
L 394.945819 192.101706 
L 395.601855 195.46478 
L 396.251084 185.375558 
L 396.898045 195.46478 
L 398.196179 195.46478 
L 398.851891 192.101706 
L 399.496583 198.827854 
L 400.791152 192.101706 
L 401.440382 185.375558 
L 402.089935 192.101706 
L 402.740137 195.46478 
L 403.385801 188.738632 
L 404.040216 188.738632 
L 404.690742 195.46478 
L 405.337379 198.827854 
L 406.634865 192.101706 
L 407.285391 192.101706 
L 408.585795 198.827854 
L 409.886198 198.827854 
L 410.535104 192.101706 
L 411.186926 192.101706 
L 411.832266 188.738632 
L 412.486357 192.101706 
L 413.134938 188.738632 
L 413.786437 192.101706 
L 414.438259 188.738632 
L 415.085544 168.560187 
L 415.733152 182.012484 
L 416.379465 178.64941 
L 417.029991 171.923261 
L 417.680841 168.560187 
L 418.335904 175.286336 
L 419.628205 168.560187 
L 420.27711 171.923261 
L 420.931201 171.923261 
L 421.579458 185.375558 
L 422.879538 171.923261 
L 423.530064 161.834039 
L 424.183183 161.834039 
L 424.835005 182.012484 
L 425.485207 185.375558 
L 426.138974 171.923261 
L 426.790148 178.64941 
L 427.44035 171.923261 
L 428.092172 192.101706 
L 428.744319 195.46478 
L 429.390631 195.46478 
L 430.050557 198.827854 
L 431.350636 192.101706 
L 431.995976 185.375558 
L 432.646502 192.101706 
L 433.294435 188.738632 
L 433.946906 182.012484 
L 434.589328 192.101706 
L 435.234992 195.46478 
L 435.887787 185.375558 
L 436.537341 198.827854 
L 437.832882 198.827854 
L 438.478546 202.190928 
L 439.129072 198.827854 
L 439.776357 198.827854 
L 440.433689 192.101706 
L 441.730204 192.101706 
L 442.373274 185.375558 
L 443.0238 195.46478 
L 443.673678 192.101706 
L 444.326149 195.46478 
L 444.972461 195.46478 
L 445.619746 198.827854 
L 446.267354 192.101706 
L 446.913991 195.46478 
L 447.560627 195.46478 
L 448.210505 192.101706 
L 449.511557 192.101706 
L 450.164351 185.375558 
L 450.814553 195.46478 
L 452.11204 161.834039 
L 452.771317 161.834039 
L 453.416009 155.107891 
L 454.064914 185.375558 
L 454.717709 195.46478 
L 455.362724 192.101706 
L 456.017788 198.827854 
L 456.662804 185.375558 
L 457.962883 198.827854 
L 458.61503 202.190928 
L 459.262315 192.101706 
L 459.915109 195.46478 
L 460.560773 195.46478 
L 461.208058 185.375558 
L 461.858908 192.101706 
L 463.162877 198.827854 
L 463.807244 198.827854 
L 464.466846 192.101706 
L 465.113806 195.46478 
L 465.763684 192.101706 
L 466.420368 195.46478 
L 467.072839 192.101706 
L 467.717855 178.64941 
L 468.371298 192.101706 
L 470.318338 192.101706 
L 470.961733 185.375558 
L 472.259868 178.64941 
L 473.551844 192.101706 
L 474.201722 192.101706 
L 474.852572 188.738632 
L 475.498884 192.101706 
L 478.100339 192.101706 
L 478.743734 182.012484 
L 479.398474 182.012484 
L 480.050296 192.101706 
L 480.704388 182.012484 
L 481.357831 185.375558 
L 482.011598 185.375558 
L 482.663745 178.64941 
L 483.320105 185.375558 
L 483.967389 185.375558 
L 484.615646 192.101706 
L 485.262607 182.012484 
L 485.908919 192.101706 
L 486.564955 182.012484 
L 487.215805 161.834039 
L 487.8686 185.375558 
L 488.521071 192.101706 
L 489.1703 192.101706 
L 489.82115 188.738632 
L 490.471028 192.101706 
L 491.123174 188.738632 
L 491.7737 192.101706 
L 492.423902 192.101706 
L 493.077994 185.375558 
L 493.727871 188.738632 
L 494.382287 151.744817 
L 495.029571 161.834039 
L 495.675883 168.560187 
L 496.326734 171.923261 
L 496.970777 138.292521 
L 497.621951 185.375558 
L 498.268263 171.923261 
L 498.922031 192.101706 
L 499.564453 185.375558 
L 500.214331 182.012484 
L 500.869395 192.101706 
L 501.5183 192.101706 
L 502.820324 198.827854 
L 503.465664 198.827854 
L 504.11619 182.012484 
L 504.764123 198.827854 
L 505.415621 192.101706 
L 506.06874 165.197113 
L 506.72348 151.744817 
L 507.368171 161.834039 
L 508.020318 182.012484 
L 508.675706 165.197113 
L 509.326556 171.923261 
L 509.973192 175.286336 
L 510.625014 182.012484 
L 511.27554 198.827854 
L 512.578861 198.827854 
L 513.231008 192.101706 
L 513.879589 202.190928 
L 514.525253 202.190928 
L 515.176751 171.923261 
L 515.828898 161.834039 
L 516.478775 192.101706 
L 517.123467 195.46478 
L 517.775289 192.101706 
L 518.424843 185.375558 
L 519.078286 195.46478 
L 519.733998 192.101706 
L 520.385496 155.107891 
L 521.037643 171.923261 
L 521.6859 182.012484 
L 522.335777 178.64941 
L 522.985979 178.64941 
L 523.636829 185.375558 
L 524.287679 205.554002 
L 524.94015 171.923261 
L 525.583869 188.738632 
L 526.235692 161.834039 
L 526.887838 161.834039 
L 527.541605 155.107891 
L 528.18889 188.738632 
L 528.836175 185.375558 
L 529.488969 138.292521 
L 530.137875 178.64941 
L 530.79229 195.46478 
L 531.440547 195.46478 
L 532.098204 185.375558 
L 532.747757 185.375558 
L 533.398283 192.101706 
L 534.046865 188.738632 
L 534.694797 192.101706 
L 535.348565 192.101706 
L 535.99358 188.738632 
L 536.647023 171.923261 
L 537.305653 185.375558 
L 537.951641 185.375558 
L 538.595684 192.101706 
L 539.900301 198.827854 
L 540.555365 182.012484 
L 541.20816 175.286336 
L 541.854148 192.101706 
L 543.163627 185.375558 
L 543.807995 195.46478 
L 544.459169 192.101706 
L 545.111964 198.827854 
L 545.758276 192.101706 
L 547.061272 192.101706 
L 547.710826 198.827854 
L 549.006692 192.101706 
L 549.653004 198.827854 
L 550.304178 192.101706 
L 550.951139 195.46478 
L 551.598747 192.101706 
L 552.904661 192.101706 
L 553.561994 178.64941 
L 554.206037 178.64941 
L 554.859156 192.101706 
L 555.512275 195.46478 
L 556.808789 182.012484 
L 557.454453 192.101706 
L 558.110165 185.375558 
L 558.758098 188.738632 
L 560.05915 188.738632 
L 560.703517 192.101706 
L 561.35145 178.64941 
L 562.004245 192.101706 
L 562.655743 188.738632 
L 563.307566 175.286336 
L 563.967167 192.101706 
L 564.615748 192.101706 
L 565.266598 195.46478 
L 565.917124 175.286336 
L 566.572836 188.738632 
L 567.225307 192.101706 
L 567.874212 188.738632 
L 568.519876 195.46478 
L 569.166837 182.012484 
L 569.821252 192.101706 
L 571.130407 192.101706 
L 571.781581 178.64941 
L 572.434376 185.375558 
L 573.087819 171.923261 
L 573.739318 192.101706 
L 574.386278 192.101706 
L 575.033563 175.286336 
L 575.68733 182.012484 
L 576.333318 192.101706 
L 576.987733 175.286336 
L 577.636963 192.101706 
L 578.938015 192.101706 
L 580.250735 171.923261 
L 580.891861 182.012484 
L 581.538498 168.560187 
L 582.189996 182.012484 
L 583.484889 175.286336 
L 584.139953 168.560187 
L 584.789507 182.012484 
L 585.444246 161.834039 
L 586.094124 182.012484 
L 586.742381 175.286336 
L 587.388369 178.64941 
L 588.039867 178.64941 
L 588.695255 182.012484 
L 589.352912 192.101706 
L 590.000196 182.012484 
L 590.646509 161.834039 
L 591.294442 182.012484 
L 591.94205 161.834039 
L 592.589659 155.107891 
L 593.243102 175.286336 
L 593.897194 161.834039 
L 594.541237 168.560187 
L 595.192735 182.012484 
L 595.838075 202.190928 
L 596.48698 198.827854 
L 597.136534 198.827854 
L 597.78706 192.101706 
L 598.438882 195.46478 
L 599.085843 192.101706 
L 599.734748 198.827854 
L 601.030614 198.827854 
L 601.678223 192.101706 
L 603.626235 192.101706 
L 604.279354 178.64941 
L 604.927287 148.381743 
L 605.577488 171.923261 
L 606.223801 168.560187 
L 606.877892 151.744817 
L 607.525825 185.375558 
L 608.182185 195.46478 
L 608.826553 182.012484 
L 609.478375 195.46478 
L 610.130197 192.101706 
L 610.777482 158.470965 
L 611.432546 178.64941 
L 612.083396 185.375558 
L 613.380882 171.923261 
L 614.027519 178.64941 
L 614.676424 161.834039 
L 615.330839 185.375558 
L 615.980393 188.738632 
L 616.630271 178.64941 
L 617.282417 161.834039 
L 617.937805 171.923261 
L 618.58509 188.738632 
L 619.236912 175.286336 
L 619.885493 168.560187 
L 620.53926 151.744817 
L 621.192703 198.827854 
L 621.837395 192.101706 
L 622.484356 161.834039 
L 623.132937 192.101706 
L 623.783463 185.375558 
L 624.433016 188.738632 
L 625.090349 138.292521 
L 625.741199 185.375558 
L 626.394318 182.012484 
L 627.039333 151.744817 
L 627.688563 182.012484 
L 628.336496 148.381743 
L 628.98767 161.834039 
L 629.640141 188.738632 
L 630.287749 192.101706 
L 630.934062 188.738632 
L 631.581346 192.101706 
L 632.237058 192.101706 
L 632.890825 185.375558 
L 633.539082 195.46478 
L 634.187988 182.012484 
L 634.83819 195.46478 
L 635.488715 185.375558 
L 636.134704 195.46478 
L 636.788471 192.101706 
L 637.43608 195.46478 
L 638.090171 192.101706 
L 639.392519 192.101706 
L 640.040452 195.46478 
L 641.341828 188.738632 
L 641.989761 195.46478 
L 642.640935 188.738632 
L 643.294702 198.827854 
L 643.940366 198.827854 
L 644.592513 195.46478 
L 645.241742 198.827854 
L 645.889027 192.101706 
L 646.541173 192.101706 
L 647.191375 188.738632 
L 647.842225 195.46478 
L 649.785052 195.46478 
L 650.429743 192.101706 
L 651.084483 195.46478 
L 651.733388 195.46478 
L 652.386507 131.566373 
L 653.040274 168.560187 
L 653.688207 158.470965 
L 654.334843 185.375558 
L 655.642702 178.64941 
L 656.290959 182.012484 
L 656.944402 195.46478 
L 657.594604 192.101706 
L 658.249019 182.012484 
L 658.902138 192.101706 
L 659.549099 188.738632 
L 660.203838 192.101706 
L 660.850475 192.101706 
L 662.147313 178.64941 
L 662.797839 192.101706 
L 663.444151 195.46478 
L 664.095973 195.46478 
L 664.751685 192.101706 
L 665.400915 195.46478 
L 666.050468 175.286336 
L 666.704236 192.101706 
L 667.352493 192.101706 
L 668.000101 188.738632 
L 668.646738 182.012484 
L 669.300181 192.101706 
L 669.945521 192.101706 
L 670.597019 185.375558 
L 671.248517 192.101706 
L 671.90034 182.012484 
L 672.547948 192.101706 
L 673.198474 195.46478 
L 673.845759 192.101706 
L 675.799281 192.101706 
L 676.445918 185.375558 
L 677.09774 195.46478 
L 677.747942 192.101706 
L 678.39393 192.101706 
L 679.046077 198.827854 
L 680.349073 192.101706 
L 681.002516 195.46478 
L 681.649153 185.375558 
L 682.295789 182.012484 
L 682.945991 192.101706 
L 683.597489 192.101706 
L 684.247043 195.46478 
L 684.892383 192.101706 
L 685.542584 182.012484 
L 686.187276 192.101706 
L 686.839747 192.101706 
L 687.484114 185.375558 
L 688.141447 195.46478 
L 688.787759 192.101706 
L 689.434395 195.46478 
L 690.082977 185.375558 
L 690.727992 192.101706 
L 691.379815 185.375558 
L 692.033906 188.738632 
L 692.681515 182.012484 
L 693.332041 182.012484 
L 693.989373 192.101706 
L 694.636982 192.101706 
L 695.291073 185.375558 
L 695.938034 192.101706 
L 696.590829 192.101706 
L 697.238438 188.738632 
L 697.891556 192.101706 
L 698.542407 192.101706 
L 699.191636 185.375558 
L 699.841838 192.101706 
L 700.490095 192.101706 
L 701.137703 171.923261 
L 701.786933 192.101706 
L 702.437783 188.738632 
L 703.088957 188.738632 
L 704.382878 182.012484 
L 706.331215 192.101706 
L 706.975582 182.012484 
L 707.628701 192.101706 
L 708.273393 195.46478 
L 709.5725 188.738632 
L 710.218488 192.101706 
L 710.867393 192.101706 
L 711.516622 195.46478 
L 712.167797 188.738632 
L 712.818323 188.738632 
L 713.473062 178.64941 
L 714.125533 192.101706 
L 714.776383 182.012484 
L 715.421399 185.375558 
L 716.069007 198.827854 
L 716.72083 192.101706 
L 717.372976 195.46478 
L 718.018316 192.101706 
L 719.966653 192.101706 
L 720.624309 195.46478 
L 721.272242 175.286336 
L 721.923092 192.101706 
L 722.57848 185.375558 
L 723.224144 192.101706 
L 723.874022 188.738632 
L 724.529086 198.827854 
L 725.179936 185.375558 
L 725.830461 185.375558 
L 726.48358 192.101706 
L 728.431593 192.101706 
L 729.075636 188.738632 
L 729.729727 182.012484 
L 730.376688 192.101706 
L 731.027862 192.101706 
L 731.679036 171.923261 
L 732.325349 192.101706 
L 732.980088 192.101706 
L 733.628021 188.738632 
L 734.277899 182.012484 
L 736.896533 195.46478 
L 737.541873 192.101706 
L 738.193695 185.375558 
L 738.841952 185.375558 
L 739.489237 182.012484 
L 740.137818 198.827854 
L 740.78964 182.012484 
L 741.441139 192.101706 
L 742.745756 192.101706 
L 743.395634 188.738632 
L 744.053939 192.101706 
L 744.697982 192.101706 
L 745.348832 188.738632 
L 746.002275 192.101706 
L 746.655718 188.738632 
L 747.305272 182.012484 
L 747.959687 188.738632 
L 748.610213 192.101706 
L 749.26398 188.738632 
L 749.915154 195.46478 
L 750.56568 195.46478 
L 751.866084 188.738632 
L 752.515313 192.101706 
L 753.16195 192.101706 
L 753.811503 188.738632 
L 754.45976 188.738632 
L 755.107369 192.101706 
L 755.753033 192.101706 
L 756.403235 185.375558 
L 757.058298 192.101706 
L 759.002421 192.101706 
L 759.652623 195.46478 
L 760.962426 188.738632 
L 761.608739 192.101706 
L 763.553185 192.101706 
L 764.20436 188.738632 
L 764.85132 188.738632 
L 765.499253 192.101706 
L 766.144917 192.101706 
L 766.796739 182.012484 
L 767.441755 168.560187 
L 768.095522 178.64941 
L 768.749938 171.923261 
L 769.394629 171.923261 
L 770.047748 165.197113 
L 770.704109 168.560187 
L 771.3582 168.560187 
L 772.003864 171.923261 
L 772.6505 171.923261 
L 773.302323 185.375558 
L 773.949607 158.470965 
L 774.595271 192.101706 
L 775.244825 168.560187 
L 775.898592 151.744817 
L 776.547173 192.101706 
L 777.19381 195.46478 
L 777.838177 195.46478 
L 778.490972 175.286336 
L 779.145387 182.012484 
L 779.790079 182.012484 
L 780.439308 175.286336 
L 781.088214 198.827854 
L 781.73874 195.46478 
L 782.395424 158.470965 
L 783.04757 161.834039 
L 783.6968 182.012484 
L 784.341816 192.101706 
L 784.993314 185.375558 
L 785.642219 188.738632 
L 786.287235 182.012484 
L 786.942947 195.46478 
L 787.596066 185.375558 
L 788.24335 161.834039 
L 789.546023 188.738632 
L 790.194604 185.375558 
L 790.843509 192.101706 
L 791.495656 188.738632 
L 792.142941 192.101706 
L 792.795411 185.375558 
L 794.086091 185.375558 
L 794.738562 171.923261 
L 795.387791 175.286336 
L 796.033131 145.018669 
L 796.679119 171.923261 
L 797.325431 168.560187 
L 797.973688 158.470965 
L 798.621945 185.375558 
L 799.269554 165.197113 
L 800.569309 178.64941 
L 801.213353 171.923261 
L 801.866472 161.834039 
L 802.515377 171.923261 
L 803.16493 192.101706 
L 803.808001 171.923261 
L 804.458527 178.64941 
L 805.105488 161.834039 
L 805.761524 178.64941 
L 806.407836 202.190928 
L 807.055121 208.917076 
L 807.70273 198.827854 
L 808.351311 208.917076 
L 809.005726 202.190928 
L 810.306778 195.46478 
L 810.953739 198.827854 
L 811.605561 198.827854 
L 812.261597 195.46478 
L 812.905965 202.190928 
L 813.555194 195.46478 
L 814.852356 202.190928 
L 815.506448 158.470965 
L 816.156325 182.012484 
L 816.806851 171.923261 
L 817.457377 155.107891 
L 818.104338 161.834039 
L 818.753243 171.923261 
L 819.399879 198.827854 
L 820.049757 198.827854 
L 820.695745 185.375558 
L 821.343678 138.292521 
L 821.995176 178.64941 
L 822.639868 161.834039 
L 823.293959 168.560187 
L 823.947402 148.381743 
L 824.596307 192.101706 
L 825.243268 198.827854 
L 826.550478 192.101706 
L 827.204894 175.286336 
L 827.852502 192.101706 
L 828.503677 195.46478 
L 829.153878 185.375558 
L 829.80246 182.012484 
L 830.460765 192.101706 
L 831.105456 178.64941 
L 831.750796 158.470965 
L 832.40748 192.101706 
L 833.05671 175.286336 
L 834.348686 188.738632 
L 835.002453 175.286336 
L 835.650386 185.375558 
L 836.305774 198.827854 
L 836.9563 198.827854 
L 837.601964 202.190928 
L 839.559052 192.101706 
L 840.204716 198.827854 
L 840.856538 198.827854 
L 841.508685 195.46478 
L 842.152404 198.827854 
L 842.803254 198.827854 
L 843.454428 178.64941 
L 844.099768 192.101706 
L 847.345591 192.101706 
L 848.645022 185.375558 
L 849.295224 178.64941 
L 849.949315 182.012484 
L 850.59822 195.46478 
L 851.248746 188.738632 
L 851.904782 198.827854 
L 852.554012 182.012484 
L 853.2 202.190928 
L 853.2 202.190928 
" clip-path="url(#pd662a147de)" style="fill: none; stroke: #3498db; stroke-width: 2; stroke-linecap: square"/>
   </g>
   <g id="patch_3">
    <path d="M 53.75 387.16 
L 53.75 28.32 
" style="fill: none; stroke: #000000; stroke-width: 0.8; stroke-linejoin: miter; stroke-linecap: square"/>
   </g>
   <g id="patch_4">
    <path d="M 853.2 387.16 
L 853.2 28.32 
" style="fill: none; stroke: #000000; stroke-width: 0.8; stroke-linejoin: miter; stroke-linecap: square"/>
   </g>
   <g id="patch_5">
    <path d="M 53.75 387.16 
L 853.2 387.16 
" style="fill: none; stroke: #000000; stroke-width: 0.8; stroke-linejoin: miter; stroke-linecap: square"/>
   </g>
   <g id="patch_6">
    <path d="M 53.75 28.32 
L 853.2 28.32 
" style="fill: none; stroke: #000000; stroke-width: 0.8; stroke-linejoin: miter; stroke-linecap: square"/>
   </g>
   <g id="text_18">
    <!-- CPU package temperature over time -->
    <g transform="translate(288.98125 22.32) scale(0.16 -0.16)">
     <defs>
      <path id="DejaVuSans-Bold-43" d="M 4288 256 
Q 3956 84 3597 -3 
Q 3238 -91 2847 -91 
Q 1681 -91 1000 561 
Q 319 1213 319 2328 
Q 319 3447 1000 4098 
Q 1681 4750 2847 4750 
Q 3238 4750 3597 4662 
Q 3956 4575 4288 4403 
L 4288 3438 
Q 3953 3666 3628 3772 
Q 3303 3878 2944 3878 
Q 2300 3878 1931 3465 
Q 1563 3053 1563 2328 
Q 1563 1606 1931 1193 
Q 2300 781 2944 781 
Q 3303 781 3628 887 
Q 3953 994 4288 1222 
L 4288 256 
z
" transform="scale(0.015625)"/>
      <path id="DejaVuSans-Bold-50" d="M 588 4666 
L 2584 4666 
Q 3475 4666 3951 4270 
Q 4428 3875 4428 3144 
Q 4428 2409 3951 2014 
Q 3475 1619 2584 1619 
L 1791 1619 
L 1791 0 
L 588 0 
L 588 4666 
z
M 1791 3794 
L 1791 2491 
L 2456 2491 
Q 2806 2491 2997 2661 
Q 3188 2831 3188 3144 
Q 3188 3456 2997 3625 
Q 2806 3794 2456 3794 
L 1791 3794 
z
" transform="scale(0.015625)"/>
      <path id="DejaVuSans-Bold-55" d="M 588 4666 
L 1791 4666 
L 1791 1869 
Q 1791 1291 1980 1042 
Q 2169 794 2597 794 
Q 3028 794 3217 1042 
Q 3406 1291 3406 1869 
L 3406 4666 
L 4609 4666 
L 4609 1869 
Q 4609 878 4112 393 
Q 3616 -91 2597 -91 
Q 1581 -91 1084 393 
Q 588 878 588 1869 
L 588 4666 
z
" transform="scale(0.015625)"/>
      <path id="DejaVuSans-Bold-20" transform="scale(0.015625)"/>
      <path id="DejaVuSans-Bold-70" d="M 1656 506 
L 1656 -1331 
L 538 -1331 
L 538 3500 
L 1656 3500 
L 1656 2988 
Q 1888 3294 2169 3439 
Q 2450 3584 2816 3584 
Q 3463 3584 3878 3070 
Q 4294 2556 4294 1747 
Q 4294 938 3878 423 
Q 3463 -91 2816 -91 
Q 2450 -91 2169 54 
Q 1888 200 1656 506 
z
M 2400 2772 
Q 2041 2772 1848 2508 
Q 1656 2244 1656 1747 
Q 1656 1250 1848 986 
Q 2041 722 2400 722 
Q 2759 722 2948 984 
Q 3138 1247 3138 1747 
Q 3138 2247 2948 2509 
Q 2759 2772 2400 2772 
z
" transform="scale(0.015625)"/>
      <path id="DejaVuSans-Bold-61" d="M 2106 1575 
Q 1756 1575 1579 1456 
Q 1403 1338 1403 1106 
Q 1403 894 1545 773 
Q 1688 653 1941 653 
Q 2256 653 2472 879 
Q 2688 1106 2688 1447 
L 2688 1575 
L 2106 1575 
z
M 3816 1997 
L 3816 0 
L 2688 0 
L 2688 519 
Q 2463 200 2181 54 
Q 1900 -91 1497 -91 
Q 953 -91 614 226 
Q 275 544 275 1050 
Q 275 1666 698 1953 
Q 1122 2241 2028 2241 
L 2688 2241 
L 2688 2328 
Q 2688 2594 2478 2717 
Q 2269 2841 1825 2841 
Q 1466 2841 1156 2769 
Q 847 2697 581 2553 
L 581 3406 
Q 941 3494 1303 3539 
Q 1666 3584 2028 3584 
Q 2975 3584 3395 3211 
Q 3816 2838 3816 1997 
z
" transform="scale(0.015625)"/>
      <path id="DejaVuSans-Bold-63" d="M 3366 3391 
L 3366 2478 
Q 3138 2634 2908 2709 
Q 2678 2784 2431 2784 
Q 1963 2784 1702 2511 
Q 1441 2238 1441 1747 
Q 1441 1256 1702 982 
Q 1963 709 2431 709 
Q 2694 709 2930 787 
Q 3166 866 3366 1019 
L 3366 103 
Q 3103 6 2833 -42 
Q 2563 -91 2291 -91 
Q 1344 -91 809 395 
Q 275 881 275 1747 
Q 275 2613 809 3098 
Q 1344 3584 2291 3584 
Q 2566 3584 2833 3536 
Q 3100 3488 3366 3391 
z
" transform="scale(0.015625)"/>
      <path id="DejaVuSans-Bold-6b" d="M 538 4863 
L 1656 4863 
L 1656 2216 
L 2944 3500 
L 4244 3500 
L 2534 1894 
L 4378 0 
L 3022 0 
L 1656 1459 
L 1656 0 
L 538 0 
L 538 4863 
z
" transform="scale(0.015625)"/>
      <path id="DejaVuSans-Bold-67" d="M 2919 594 
Q 2688 288 2409 144 
Q 2131 0 1766 0 
Q 1125 0 706 504 
Q 288 1009 288 1791 
Q 288 2575 706 3076 
Q 1125 3578 1766 3578 
Q 2131 3578 2409 3434 
Q 2688 3291 2919 2981 
L 2919 3500 
L 4044 3500 
L 4044 353 
Q 4044 -491 3511 -936 
Q 2978 -1381 1966 -1381 
Q 1638 -1381 1331 -1331 
Q 1025 -1281 716 -1178 
L 716 -306 
Q 1009 -475 1290 -558 
Q 1572 -641 1856 -641 
Q 2406 -641 2662 -400 
Q 2919 -159 2919 353 
L 2919 594 
z
M 2181 2772 
Q 1834 2772 1640 2515 
Q 1447 2259 1447 1791 
Q 1447 1309 1634 1061 
Q 1822 813 2181 813 
Q 2531 813 2725 1069 
Q 2919 1325 2919 1791 
Q 2919 2259 2725 2515 
Q 2531 2772 2181 2772 
z
" transform="scale(0.015625)"/>
      <path id="DejaVuSans-Bold-65" d="M 4031 1759 
L 4031 1441 
L 1416 1441 
Q 1456 1047 1700 850 
Q 1944 653 2381 653 
Q 2734 653 3104 758 
Q 3475 863 3866 1075 
L 3866 213 
Q 3469 63 3072 -14 
Q 2675 -91 2278 -91 
Q 1328 -91 801 392 
Q 275 875 275 1747 
Q 275 2603 792 3093 
Q 1309 3584 2216 3584 
Q 3041 3584 3536 3087 
Q 4031 2591 4031 1759 
z
M 2881 2131 
Q 2881 2450 2695 2645 
Q 2509 2841 2209 2841 
Q 1884 2841 1681 2658 
Q 1478 2475 1428 2131 
L 2881 2131 
z
" transform="scale(0.015625)"/>
      <path id="DejaVuSans-Bold-74" d="M 1759 4494 
L 1759 3500 
L 2913 3500 
L 2913 2700 
L 1759 2700 
L 1759 1216 
Q 1759 972 1856 886 
Q 1953 800 2241 800 
L 2816 800 
L 2816 0 
L 1856 0 
Q 1194 0 917 276 
Q 641 553 641 1216 
L 641 2700 
L 84 2700 
L 84 3500 
L 641 3500 
L 641 4494 
L 1759 4494 
z
" transform="scale(0.015625)"/>
      <path id="DejaVuSans-Bold-6d" d="M 3781 2919 
Q 3994 3244 4286 3414 
Q 4578 3584 4928 3584 
Q 5531 3584 5847 3212 
Q 6163 2841 6163 2131 
L 6163 0 
L 5038 0 
L 5038 1825 
Q 5041 1866 5042 1909 
Q 5044 1953 5044 2034 
Q 5044 2406 4934 2573 
Q 4825 2741 4581 2741 
Q 4263 2741 4089 2478 
Q 3916 2216 3909 1719 
L 3909 0 
L 2784 0 
L 2784 1825 
Q 2784 2406 2684 2573 
Q 2584 2741 2328 2741 
Q 2006 2741 1831 2477 
Q 1656 2213 1656 1722 
L 1656 0 
L 531 0 
L 531 3500 
L 1656 3500 
L 1656 2988 
Q 1863 3284 2130 3434 
Q 2397 3584 2719 3584 
Q 3081 3584 3359 3409 
Q 3638 3234 3781 2919 
z
" transform="scale(0.015625)"/>
      <path id="DejaVuSans-Bold-72" d="M 3138 2547 
Q 2991 2616 2845 2648 
Q 2700 2681 2553 2681 
Q 2122 2681 1889 2404 
Q 1656 2128 1656 1613 
L 1656 0 
L 538 0 
L 538 3500 
L 1656 3500 
L 1656 2925 
Q 1872 3269 2151 3426 
Q 2431 3584 2822 3584 
Q 2878 3584 2943 3579 
Q 3009 3575 3134 3559 
L 3138 2547 
z
" transform="scale(0.015625)"/>
      <path id="DejaVuSans-Bold-75" d="M 500 1363 
L 500 3500 
L 1625 3500 
L 1625 3150 
Q 1625 2866 1622 2436 
Q 1619 2006 1619 1863 
Q 1619 1441 1641 1255 
Q 1663 1069 1716 984 
Q 1784 875 1895 815 
Q 2006 756 2150 756 
Q 2500 756 2700 1025 
Q 2900 1294 2900 1772 
L 2900 3500 
L 4019 3500 
L 4019 0 
L 2900 0 
L 2900 506 
Q 2647 200 2364 54 
Q 2081 -91 1741 -91 
Q 1134 -91 817 281 
Q 500 653 500 1363 
z
" transform="scale(0.015625)"/>
      <path id="DejaVuSans-Bold-6f" d="M 2203 2784 
Q 1831 2784 1636 2517 
Q 1441 2250 1441 1747 
Q 1441 1244 1636 976 
Q 1831 709 2203 709 
Q 2569 709 2762 976 
Q 2956 1244 2956 1747 
Q 2956 2250 2762 2517 
Q 2569 2784 2203 2784 
z
M 2203 3584 
Q 3106 3584 3614 3096 
Q 4122 2609 4122 1747 
Q 4122 884 3614 396 
Q 3106 -91 2203 -91 
Q 1297 -91 786 396 
Q 275 884 275 1747 
Q 275 2609 786 3096 
Q 1297 3584 2203 3584 
z
" transform="scale(0.015625)"/>
      <path id="DejaVuSans-Bold-76" d="M 97 3500 
L 1216 3500 
L 2088 1081 
L 2956 3500 
L 4078 3500 
L 2700 0 
L 1472 0 
L 97 3500 
z
" transform="scale(0.015625)"/>
      <path id="DejaVuSans-Bold-69" d="M 538 3500 
L 1656 3500 
L 1656 0 
L 538 0 
L 538 3500 
z
M 538 4863 
L 1656 4863 
L 1656 3950 
L 538 3950 
L 538 4863 
z
" transform="scale(0.015625)"/>
     </defs>
     <use xlink:href="#DejaVuSans-Bold-43"/>
     <use xlink:href="#DejaVuSans-Bold-50" x="73.388672"/>
     <use xlink:href="#DejaVuSans-Bold-55" x="146.679688"/>
     <use xlink:href="#DejaVuSans-Bold-20" x="227.880859"/>
     <use xlink:href="#DejaVuSans-Bold-70" x="262.695312"/>
     <use xlink:href="#DejaVuSans-Bold-61" x="334.277344"/>
     <use xlink:href="#DejaVuSans-Bold-63" x="401.757812"/>
     <use xlink:href="#DejaVuSans-Bold-6b" x="461.035156"/>
     <use xlink:href="#DejaVuSans-Bold-61" x="527.539062"/>
     <use xlink:href="#DejaVuSans-Bold-67" x="595.019531"/>
     <use xlink:href="#DejaVuSans-Bold-65" x="666.601562"/>
     <use xlink:href="#DejaVuSans-Bold-20" x="734.423828"/>
     <use xlink:href="#DejaVuSans-Bold-74" x="769.238281"/>
     <use xlink:href="#DejaVuSans-Bold-65" x="817.041016"/>
     <use xlink:href="#DejaVuSans-Bold-6d" x="884.863281"/>
     <use xlink:href="#DejaVuSans-Bold-70" x="989.0625"/>
     <use xlink:href="#DejaVuSans-Bold-65" x="1060.644531"/>
     <use xlink:href="#DejaVuSans-Bold-72" x="1128.466797"/>
     <use xlink:href="#DejaVuSans-Bold-61" x="1177.783203"/>
     <use xlink:href="#DejaVuSans-Bold-74" x="1245.263672"/>
     <use xlink:href="#DejaVuSans-Bold-75" x="1293.066406"/>
     <use xlink:href="#DejaVuSans-Bold-72" x="1364.257812"/>
     <use xlink:href="#DejaVuSans-Bold-65" x="1413.574219"/>
     <use xlink:href="#DejaVuSans-Bold-20" x="1481.396484"/>
     <use xlink:href="#DejaVuSans-Bold-6f" x="1516.210938"/>
     <use xlink:href="#DejaVuSans-Bold-76" x="1584.912109"/>
     <use xlink:href="#DejaVuSans-Bold-65" x="1650.097656"/>
     <use xlink:href="#DejaVuSans-Bold-72" x="1717.919922"/>
     <use xlink:href="#DejaVuSans-Bold-20" x="1767.236328"/>
     <use xlink:href="#DejaVuSans-Bold-74" x="1802.050781"/>
     <use xlink:href="#DejaVuSans-Bold-69" x="1849.853516"/>
     <use xlink:href="#DejaVuSans-Bold-6d" x="1884.130859"/>
     <use xlink:href="#DejaVuSans-Bold-65" x="1988.330078"/>
    </g>
   </g>
   <g id="legend_1">
    <g id="patch_7">
     <path d="M 675.110938 82.354375 
L 848.2 82.354375 
Q 850.2 82.354375 850.2 80.354375 
L 850.2 37.32 
Q 850.2 35.32 848.2 35.32 
L 675.110938 35.32 
Q 673.110938 35.32 673.110938 37.32 
L 673.110938 80.354375 
Q 673.110938 82.354375 675.110938 82.354375 
z
" style="fill: #4d4d4d; opacity: 0.5; stroke: #4d4d4d; stroke-linejoin: miter"/>
    </g>
    <g id="patch_8">
     <path d="M 673.110938 80.354375 
L 846.2 80.354375 
Q 848.2 80.354375 848.2 78.354375 
L 848.2 35.32 
Q 848.2 33.32 846.2 33.32 
L 673.110938 33.32 
Q 671.110938 33.32 671.110938 35.32 
L 671.110938 78.354375 
Q 671.110938 80.354375 673.110938 80.354375 
z
" style="fill: #ffffff; stroke: #cccccc; stroke-linejoin: miter"/>
    </g>
    <g id="line2d_18">
     <path d="M 675.110938 41.418437 
L 685.110938 41.418437 
L 695.110938 41.418437 
" style="fill: none; stroke: #e74c3c; stroke-width: 2; stroke-linecap: square"/>
    </g>
    <g id="text_19">
     <!-- CPU package (°C) - Summer -->
     <g transform="translate(703.110938 44.918437) scale(0.1 -0.1)">
      <defs>
       <path id="DejaVuSans-50" d="M 1259 4147 
L 1259 2394 
L 2053 2394 
Q 2494 2394 2734 2622 
Q 2975 2850 2975 3272 
Q 2975 3691 2734 3919 
Q 2494 4147 2053 4147 
L 1259 4147 
z
M 628 4666 
L 2053 4666 
Q 2838 4666 3239 4311 
Q 3641 3956 3641 3272 
Q 3641 2581 3239 2228 
Q 2838 1875 2053 1875 
L 1259 1875 
L 1259 0 
L 628 0 
L 628 4666 
z
" transform="scale(0.015625)"/>
       <path id="DejaVuSans-55" d="M 556 4666 
L 1191 4666 
L 1191 1831 
Q 1191 1081 1462 751 
Q 1734 422 2344 422 
Q 2950 422 3222 751 
Q 3494 1081 3494 1831 
L 3494 4666 
L 4128 4666 
L 4128 1753 
Q 4128 841 3676 375 
Q 3225 -91 2344 -91 
Q 1459 -91 1007 375 
Q 556 841 556 1753 
L 556 4666 
z
" transform="scale(0.015625)"/>
       <path id="DejaVuSans-63" d="M 3122 3366 
L 3122 2828 
Q 2878 2963 2633 3030 
Q 2388 3097 2138 3097 
Q 1578 3097 1268 2742 
Q 959 2388 959 1747 
Q 959 1106 1268 751 
Q 1578 397 2138 397 
Q 2388 397 2633 464 
Q 2878 531 3122 666 
L 3122 134 
Q 2881 22 2623 -34 
Q 2366 -91 2075 -91 
Q 1284 -91 818 406 
Q 353 903 353 1747 
Q 353 2603 823 3093 
Q 1294 3584 2113 3584 
Q 2378 3584 2631 3529 
Q 2884 3475 3122 3366 
z
" transform="scale(0.015625)"/>
       <path id="DejaVuSans-6b" d="M 581 4863 
L 1159 4863 
L 1159 1991 
L 2875 3500 
L 3609 3500 
L 1753 1863 
L 3688 0 
L 2938 0 
L 1159 1709 
L 1159 0 
L 581 0 
L 581 4863 
z
" transform="scale(0.015625)"/>
       <path id="DejaVuSans-67" d="M 2906 1791 
Q 2906 2416 2648 2759 
Q 2391 3103 1925 3103 
Q 1463 3103 1205 2759 
Q 947 2416 947 1791 
Q 947 1169 1205 825 
Q 1463 481 1925 481 
Q 2391 481 2648 825 
Q 2906 1169 2906 1791 
z
M 3481 434 
Q 3481 -459 3084 -895 
Q 2688 -1331 1869 -1331 
Q 1566 -1331 1297 -1286 
Q 1028 -1241 775 -1147 
L 775 -588 
Q 1028 -725 1275 -790 
Q 1522 -856 1778 -856 
Q 2344 -856 2625 -561 
Q 2906 -266 2906 331 
L 2906 616 
Q 2728 306 2450 153 
Q 2172 0 1784 0 
Q 1141 0 747 490 
Q 353 981 353 1791 
Q 353 2603 747 3093 
Q 1141 3584 1784 3584 
Q 2172 3584 2450 3431 
Q 2728 3278 2906 2969 
L 2906 3500 
L 3481 3500 
L 3481 434 
z
" transform="scale(0.015625)"/>
       <path id="DejaVuSans-2d" d="M 313 2009 
L 1997 2009 
L 1997 1497 
L 313 1497 
L 313 2009 
z
" transform="scale(0.015625)"/>
       <path id="DejaVuSans-53" d="M 3425 4513 
L 3425 3897 
Q 3066 4069 2747 4153 
Q 2428 4238 2131 4238 
Q 1616 4238 1336 4038 
Q 1056 3838 1056 3469 
Q 1056 3159 1242 3001 
Q 1428 2844 1947 2747 
L 2328 2669 
Q 3034 2534 3370 2195 
Q 3706 1856 3706 1288 
Q 3706 609 3251 259 
Q 2797 -91 1919 -91 
Q 1588 -91 1214 -16 
Q 841 59 441 206 
L 441 856 
Q 825 641 1194 531 
Q 1563 422 1919 422 
Q 2459 422 2753 634 
Q 3047 847 3047 1241 
Q 3047 1584 2836 1778 
Q 2625 1972 2144 2069 
L 1759 2144 
Q 1053 2284 737 2584 
Q 422 2884 422 3419 
Q 422 4038 858 4394 
Q 1294 4750 2059 4750 
Q 2388 4750 2728 4690 
Q 3069 4631 3425 4513 
z
" transform="scale(0.015625)"/>
      </defs>
      <use xlink:href="#DejaVuSans-43"/>
      <use xlink:href="#DejaVuSans-50" x="69.824219"/>
      <use xlink:href="#DejaVuSans-55" x="130.126953"/>
      <use xlink:href="#DejaVuSans-20" x="203.320312"/>
      <use xlink:href="#DejaVuSans-70" x="235.107422"/>
      <use xlink:href="#DejaVuSans-61" x="298.583984"/>
      <use xlink:href="#DejaVuSans-63" x="359.863281"/>
      <use xlink:href="#DejaVuSans-6b" x="414.84375"/>
      <use xlink:href="#DejaVuSans-61" x="471.003906"/>
      <use xlink:href="#DejaVuSans-67" x="532.283203"/>
      <use xlink:href="#DejaVuSans-65" x="595.759766"/>
      <use xlink:href="#DejaVuSans-20" x="657.283203"/>
      <use xlink:href="#DejaVuSans-28" x="689.070312"/>
      <use xlink:href="#DejaVuSans-b0" x="728.083984"/>
      <use xlink:href="#DejaVuSans-43" x="778.083984"/>
      <use xlink:href="#DejaVuSans-29" x="847.908203"/>
      <use xlink:href="#DejaVuSans-20" x="886.921875"/>
      <use xlink:href="#DejaVuSans-2d" x="918.708984"/>
      <use xlink:href="#DejaVuSans-20" x="954.792969"/>
      <use xlink:href="#DejaVuSans-53" x="986.580078"/>
      <use xlink:href="#DejaVuSans-75" x="1050.056641"/>
      <use xlink:href="#DejaVuSans-6d" x="1113.435547"/>
      <use xlink:href="#DejaVuSans-6d" x="1210.847656"/>
      <use xlink:href="#DejaVuSans-65" x="1308.259766"/>
      <use xlink:href="#DejaVuSans-72" x="1369.783203"/>
     </g>
    </g>
    <g id="line2d_19">
     <path d="M 675.110938 56.096563 
L 685.110938 56.096563 
L 695.110938 56.096563 
" style="fill: none; stroke: #3498db; stroke-width: 2; stroke-linecap: square"/>
    </g>
    <g id="text_20">
     <!-- CPU package (°C) - Spring -->
     <g transform="translate(703.110938 59.596563) scale(0.1 -0.1)">
      <use xlink:href="#DejaVuSans-43"/>
      <use xlink:href="#DejaVuSans-50" x="69.824219"/>
      <use xlink:href="#DejaVuSans-55" x="130.126953"/>
      <use xlink:href="#DejaVuSans-20" x="203.320312"/>
      <use xlink:href="#DejaVuSans-70" x="235.107422"/>
      <use xlink:href="#DejaVuSans-61" x="298.583984"/>
      <use xlink:href="#DejaVuSans-63" x="359.863281"/>
      <use xlink:href="#DejaVuSans-6b" x="414.84375"/>
      <use xlink:href="#DejaVuSans-61" x="471.003906"/>
      <use xlink:href="#DejaVuSans-67" x="532.283203"/>
      <use xlink:href="#DejaVuSans-65" x="595.759766"/>
      <use xlink:href="#DejaVuSans-20" x="657.283203"/>
      <use xlink:href="#DejaVuSans-28" x="689.070312"/>
      <use xlink:href="#DejaVuSans-b0" x="728.083984"/>
      <use xlink:href="#DejaVuSans-43" x="778.083984"/>
      <use xlink:href="#DejaVuSans-29" x="847.908203"/>
      <use xlink:href="#DejaVuSans-20" x="886.921875"/>
      <use xlink:href="#DejaVuSans-2d" x="918.708984"/>
      <use xlink:href="#DejaVuSans-20" x="954.792969"/>
      <use xlink:href="#DejaVuSans-53" x="986.580078"/>
      <use xlink:href="#DejaVuSans-70" x="1050.056641"/>
      <use xlink:href="#DejaVuSans-72" x="1113.533203"/>
      <use xlink:href="#DejaVuSans-69" x="1154.646484"/>
      <use xlink:href="#DejaVuSans-6e" x="1182.429688"/>
      <use xlink:href="#DejaVuSans-67" x="1245.808594"/>
     </g>
    </g>
    <g id="line2d_20">
     <path d="M 675.110938 70.774687 
L 685.110938 70.774687 
L 695.110938 70.774687 
" style="fill: none; stroke-dasharray: 7.4,3.2; stroke-dashoffset: 0; stroke: #000000; stroke-opacity: 0.9; stroke-width: 2"/>
    </g>
    <g id="text_21">
     <!-- Cooler on (5000 RPM) -->
     <g transform="translate(703.110938 74.274687) scale(0.1 -0.1)">
      <defs>
       <path id="DejaVuSans-6c" d="M 603 4863 
L 1178 4863 
L 1178 0 
L 603 0 
L 603 4863 
z
" transform="scale(0.015625)"/>
       <path id="DejaVuSans-52" d="M 2841 2188 
Q 3044 2119 3236 1894 
Q 3428 1669 3622 1275 
L 4263 0 
L 3584 0 
L 2988 1197 
Q 2756 1666 2539 1819 
Q 2322 1972 1947 1972 
L 1259 1972 
L 1259 0 
L 628 0 
L 628 4666 
L 2053 4666 
Q 2853 4666 3247 4331 
Q 3641 3997 3641 3322 
Q 3641 2881 3436 2590 
Q 3231 2300 2841 2188 
z
M 1259 4147 
L 1259 2491 
L 2053 2491 
Q 2509 2491 2742 2702 
Q 2975 2913 2975 3322 
Q 2975 3731 2742 3939 
Q 2509 4147 2053 4147 
L 1259 4147 
z
" transform="scale(0.015625)"/>
      </defs>
      <use xlink:href="#DejaVuSans-43"/>
      <use xlink:href="#DejaVuSans-6f" x="69.824219"/>
      <use xlink:href="#DejaVuSans-6f" x="131.005859"/>
      <use xlink:href="#DejaVuSans-6c" x="192.1875"/>
      <use xlink:href="#DejaVuSans-65" x="219.970703"/>
      <use xlink:href="#DejaVuSans-72" x="281.494141"/>
      <use xlink:href="#DejaVuSans-20" x="322.607422"/>
      <use xlink:href="#DejaVuSans-6f" x="354.394531"/>
      <use xlink:href="#DejaVuSans-6e" x="415.576172"/>
      <use xlink:href="#DejaVuSans-20" x="478.955078"/>
      <use xlink:href="#DejaVuSans-28" x="510.742188"/>
      <use xlink:href="#DejaVuSans-35" x="549.755859"/>
      <use xlink:href="#DejaVuSans-30" x="613.378906"/>
      <use xlink:href="#DejaVuSans-30" x="677.001953"/>
      <use xlink:href="#DejaVuSans-30" x="740.625"/>
      <use xlink:href="#DejaVuSans-20" x="804.248047"/>
      <use xlink:href="#DejaVuSans-52" x="836.035156"/>
      <use xlink:href="#DejaVuSans-50" x="905.517578"/>
      <use xlink:href="#DejaVuSans-4d" x="965.820312"/>
      <use xlink:href="#DejaVuSans-29" x="1052.099609"/>
     </g>
    </g>
   </g>
   <g id="line2d_21">
    <path d="M 296.846381 387.16 
L 296.846381 28.32 
" clip-path="url(#pd662a147de)" style="fill: none; stroke-dasharray: 7.4,3.2; stroke-dashoffset: 0; stroke: #000000; stroke-opacity: 0.9; stroke-width: 2"/>
   </g>
  </g>
 </g>
 <defs>
  <clipPath id="pd662a147de">
   <rect x="53.75" y="28.32" width="799.45" height="358.84"/>
  </clipPath>
 </defs>
</svg>
