<?xml version="1.0" encoding="utf-8" standalone="no"?>
<!DOCTYPE svg PUBLIC "-//W3C//DTD SVG 1.1//EN"
  "http://www.w3.org/Graphics/SVG/1.1/DTD/svg11.dtd">
<svg xmlns:xlink="http://www.w3.org/1999/xlink" width="864pt" height="432pt" viewBox="0 0 864 432" xmlns="http://www.w3.org/2000/svg" version="1.1">
 <metadata>
  <rdf:RDF xmlns:dc="http://purl.org/dc/elements/1.1/" xmlns:cc="http://creativecommons.org/ns#" xmlns:rdf="http://www.w3.org/1999/02/22-rdf-syntax-ns#">
   <cc:Work>
    <dc:type rdf:resource="http://purl.org/dc/dcmitype/StillImage"/>
    <dc:date>2026-05-23T09:12:50.840733</dc:date>
    <dc:format>image/svg+xml</dc:format>
    <dc:creator>
     <cc:Agent>
      <dc:title>Matplotlib v3.9.2, https://matplotlib.org/</dc:title>
     </cc:Agent>
    </dc:creator>
   </cc:Work>
  </rdf:RDF>
 </metadata>
 <defs>
  <style type="text/css">*{stroke-linejoin: round; stroke-linecap: butt}</style>
 </defs>
 <g id="figure_1">
  <g id="patch_1">
   <path d="M 0 432 
L 864 432 
L 864 0 
L 0 0 
z
" style="fill: #ffffff"/>
  </g>
  <g id="axes_1">
   <g id="patch_2">
    <path d="M 53.75 387.16 
L 853.2 387.16 
L 853.2 28.32 
L 53.75 28.32 
z
" style="fill: #ffffff"/>
   </g>
   <g id="matplotlib.axis_1">
    <g id="xtick_1">
     <g id="line2d_1">
      <defs>
       <path id="ma47659933a" d="M 0 0 
L 0 3.5 
" style="stroke: #000000; stroke-width: 0.8"/>
      </defs>
      <g>
       <use xlink:href="#ma47659933a" x="53.75" y="387.16" style="stroke: #000000; stroke-width: 0.8"/>
      </g>
     </g>
     <g id="text_1">
      <!-- 0 -->
      <g transform="translate(50.56875 401.758438) scale(0.1 -0.1)">
       <defs>
        <path id="DejaVuSans-30" d="M 2034 4250 
Q 1547 4250 1301 3770 
Q 1056 3291 1056 2328 
Q 1056 1369 1301 889 
Q 1547 409 2034 409 
Q 2525 409 2770 889 
Q 3016 1369 3016 2328 
Q 3016 3291 2770 3770 
Q 2525 4250 2034 4250 
z
M 2034 4750 
Q 2819 4750 3233 4129 
Q 3647 3509 3647 2328 
Q 3647 1150 3233 529 
Q 2819 -91 2034 -91 
Q 1250 -91 836 529 
Q 422 1150 422 2328 
Q 422 3509 836 4129 
Q 1250 4750 2034 4750 
z
" transform="scale(0.015625)"/>
       </defs>
       <use xlink:href="#DejaVuSans-30"/>
      </g>
     </g>
    </g>
    <g id="xtick_2">
     <g id="line2d_2">
      <g>
       <use xlink:href="#ma47659933a" x="150.988552" y="387.16" style="stroke: #000000; stroke-width: 0.8"/>
      </g>
     </g>
     <g id="text_2">
      <!-- 5 -->
      <g transform="translate(147.807302 401.758438) scale(0.1 -0.1)">
       <defs>
        <path id="DejaVuSans-35" d="M 691 4666 
L 3169 4666 
L 3169 4134 
L 1269 4134 
L 1269 2991 
Q 1406 3038 1543 3061 
Q 1681 3084 1819 3084 
Q 2600 3084 3056 2656 
Q 3513 2228 3513 1497 
Q 3513 744 3044 326 
Q 2575 -91 1722 -91 
Q 1428 -91 1123 -41 
Q 819 9 494 109 
L 494 744 
Q 775 591 1075 516 
Q 1375 441 1709 441 
Q 2250 441 2565 725 
Q 2881 1009 2881 1497 
Q 2881 1984 2565 2268 
Q 2250 2553 1709 2553 
Q 1456 2553 1204 2497 
Q 953 2441 691 2322 
L 691 4666 
z
" transform="scale(0.015625)"/>
       </defs>
       <use xlink:href="#DejaVuSans-35"/>
      </g>
     </g>
    </g>
    <g id="xtick_3">
     <g id="line2d_3">
      <g>
       <use xlink:href="#ma47659933a" x="248.227105" y="387.16" style="stroke: #000000; stroke-width: 0.8"/>
      </g>
     </g>
     <g id="text_3">
      <!-- 10 -->
      <g transform="translate(241.864605 401.758438) scale(0.1 -0.1)">
       <defs>
        <path id="DejaVuSans-31" d="M 794 531 
L 1825 531 
L 1825 4091 
L 703 3866 
L 703 4441 
L 1819 4666 
L 2450 4666 
L 2450 531 
L 3481 531 
L 3481 0 
L 794 0 
L 794 531 
z
" transform="scale(0.015625)"/>
       </defs>
       <use xlink:href="#DejaVuSans-31"/>
       <use xlink:href="#DejaVuSans-30" x="63.623047"/>
      </g>
     </g>
    </g>
    <g id="xtick_4">
     <g id="line2d_4">
      <g>
       <use xlink:href="#ma47659933a" x="345.465657" y="387.16" style="stroke: #000000; stroke-width: 0.8"/>
      </g>
     </g>
     <g id="text_4">
      <!-- 15 -->
      <g transform="translate(339.103157 401.758438) scale(0.1 -0.1)">
       <use xlink:href="#DejaVuSans-31"/>
       <use xlink:href="#DejaVuSans-35" x="63.623047"/>
      </g>
     </g>
    </g>
    <g id="xtick_5">
     <g id="line2d_5">
      <g>
       <use xlink:href="#ma47659933a" x="442.70421" y="387.16" style="stroke: #000000; stroke-width: 0.8"/>
      </g>
     </g>
     <g id="text_5">
      <!-- 20 -->
      <g transform="translate(436.34171 401.758438) scale(0.1 -0.1)">
       <defs>
        <path id="DejaVuSans-32" d="M 1228 531 
L 3431 531 
L 3431 0 
L 469 0 
L 469 531 
Q 828 903 1448 1529 
Q 2069 2156 2228 2338 
Q 2531 2678 2651 2914 
Q 2772 3150 2772 3378 
Q 2772 3750 2511 3984 
Q 2250 4219 1831 4219 
Q 1534 4219 1204 4116 
Q 875 4013 500 3803 
L 500 4441 
Q 881 4594 1212 4672 
Q 1544 4750 1819 4750 
Q 2544 4750 2975 4387 
Q 3406 4025 3406 3419 
Q 3406 3131 3298 2873 
Q 3191 2616 2906 2266 
Q 2828 2175 2409 1742 
Q 1991 1309 1228 531 
z
" transform="scale(0.015625)"/>
       </defs>
       <use xlink:href="#DejaVuSans-32"/>
       <use xlink:href="#DejaVuSans-30" x="63.623047"/>
      </g>
     </g>
    </g>
    <g id="xtick_6">
     <g id="line2d_6">
      <g>
       <use xlink:href="#ma47659933a" x="539.942762" y="387.16" style="stroke: #000000; stroke-width: 0.8"/>
      </g>
     </g>
     <g id="text_6">
      <!-- 25 -->
      <g transform="translate(533.580262 401.758438) scale(0.1 -0.1)">
       <use xlink:href="#DejaVuSans-32"/>
       <use xlink:href="#DejaVuSans-35" x="63.623047"/>
      </g>
     </g>
    </g>
    <g id="xtick_7">
     <g id="line2d_7">
      <g>
       <use xlink:href="#ma47659933a" x="637.181315" y="387.16" style="stroke: #000000; stroke-width: 0.8"/>
      </g>
     </g>
     <g id="text_7">
      <!-- 30 -->
      <g transform="translate(630.818815 401.758438) scale(0.1 -0.1)">
       <defs>
        <path id="DejaVuSans-33" d="M 2597 2516 
Q 3050 2419 3304 2112 
Q 3559 1806 3559 1356 
Q 3559 666 3084 287 
Q 2609 -91 1734 -91 
Q 1441 -91 1130 -33 
Q 819 25 488 141 
L 488 750 
Q 750 597 1062 519 
Q 1375 441 1716 441 
Q 2309 441 2620 675 
Q 2931 909 2931 1356 
Q 2931 1769 2642 2001 
Q 2353 2234 1838 2234 
L 1294 2234 
L 1294 2753 
L 1863 2753 
Q 2328 2753 2575 2939 
Q 2822 3125 2822 3475 
Q 2822 3834 2567 4026 
Q 2313 4219 1838 4219 
Q 1578 4219 1281 4162 
Q 984 4106 628 3988 
L 628 4550 
Q 988 4650 1302 4700 
Q 1616 4750 1894 4750 
Q 2613 4750 3031 4423 
Q 3450 4097 3450 3541 
Q 3450 3153 3228 2886 
Q 3006 2619 2597 2516 
z
" transform="scale(0.015625)"/>
       </defs>
       <use xlink:href="#DejaVuSans-33"/>
       <use xlink:href="#DejaVuSans-30" x="63.623047"/>
      </g>
     </g>
    </g>
    <g id="xtick_8">
     <g id="line2d_8">
      <g>
       <use xlink:href="#ma47659933a" x="734.419867" y="387.16" style="stroke: #000000; stroke-width: 0.8"/>
      </g>
     </g>
     <g id="text_8">
      <!-- 35 -->
      <g transform="translate(728.057367 401.758438) scale(0.1 -0.1)">
       <use xlink:href="#DejaVuSans-33"/>
       <use xlink:href="#DejaVuSans-35" x="63.623047"/>
      </g>
     </g>
    </g>
    <g id="xtick_9">
     <g id="line2d_9">
      <g>
       <use xlink:href="#ma47659933a" x="831.658419" y="387.16" style="stroke: #000000; stroke-width: 0.8"/>
      </g>
     </g>
     <g id="text_9">
      <!-- 40 -->
      <g transform="translate(825.295919 401.758438) scale(0.1 -0.1)">
       <defs>
        <path id="DejaVuSans-34" d="M 2419 4116 
L 825 1625 
L 2419 1625 
L 2419 4116 
z
M 2253 4666 
L 3047 4666 
L 3047 1625 
L 3713 1625 
L 3713 1100 
L 3047 1100 
L 3047 0 
L 2419 0 
L 2419 1100 
L 313 1100 
L 313 1709 
L 2253 4666 
z
" transform="scale(0.015625)"/>
       </defs>
       <use xlink:href="#DejaVuSans-34"/>
       <use xlink:href="#DejaVuSans-30" x="63.623047"/>
      </g>
     </g>
    </g>
    <g id="text_10">
     <!-- Test duration (Minutes) -->
     <g transform="translate(384.29875 416.95625) scale(0.12 -0.12)">
      <defs>
       <path id="DejaVuSans-54" d="M -19 4666 
L 3928 4666 
L 3928 4134 
L 2272 4134 
L 2272 0 
L 1638 0 
L 1638 4134 
L -19 4134 
L -19 4666 
z
" transform="scale(0.015625)"/>
       <path id="DejaVuSans-65" d="M 3597 1894 
L 3597 1613 
L 953 1613 
Q 991 1019 1311 708 
Q 1631 397 2203 397 
Q 2534 397 2845 478 
Q 3156 559 3463 722 
L 3463 178 
Q 3153 47 2828 -22 
Q 2503 -91 2169 -91 
Q 1331 -91 842 396 
Q 353 884 353 1716 
Q 353 2575 817 3079 
Q 1281 3584 2069 3584 
Q 2775 3584 3186 3129 
Q 3597 2675 3597 1894 
z
M 3022 2063 
Q 3016 2534 2758 2815 
Q 2500 3097 2075 3097 
Q 1594 3097 1305 2825 
Q 1016 2553 972 2059 
L 3022 2063 
z
" transform="scale(0.015625)"/>
       <path id="DejaVuSans-73" d="M 2834 3397 
L 2834 2853 
Q 2591 2978 2328 3040 
Q 2066 3103 1784 3103 
Q 1356 3103 1142 2972 
Q 928 2841 928 2578 
Q 928 2378 1081 2264 
Q 1234 2150 1697 2047 
L 1894 2003 
Q 2506 1872 2764 1633 
Q 3022 1394 3022 966 
Q 3022 478 2636 193 
Q 2250 -91 1575 -91 
Q 1294 -91 989 -36 
Q 684 19 347 128 
L 347 722 
Q 666 556 975 473 
Q 1284 391 1588 391 
Q 1994 391 2212 530 
Q 2431 669 2431 922 
Q 2431 1156 2273 1281 
Q 2116 1406 1581 1522 
L 1381 1569 
Q 847 1681 609 1914 
Q 372 2147 372 2553 
Q 372 3047 722 3315 
Q 1072 3584 1716 3584 
Q 2034 3584 2315 3537 
Q 2597 3491 2834 3397 
z
" transform="scale(0.015625)"/>
       <path id="DejaVuSans-74" d="M 1172 4494 
L 1172 3500 
L 2356 3500 
L 2356 3053 
L 1172 3053 
L 1172 1153 
Q 1172 725 1289 603 
Q 1406 481 1766 481 
L 2356 481 
L 2356 0 
L 1766 0 
Q 1100 0 847 248 
Q 594 497 594 1153 
L 594 3053 
L 172 3053 
L 172 3500 
L 594 3500 
L 594 4494 
L 1172 4494 
z
" transform="scale(0.015625)"/>
       <path id="DejaVuSans-20" transform="scale(0.015625)"/>
       <path id="DejaVuSans-64" d="M 2906 2969 
L 2906 4863 
L 3481 4863 
L 3481 0 
L 2906 0 
L 2906 525 
Q 2725 213 2448 61 
Q 2172 -91 1784 -91 
Q 1150 -91 751 415 
Q 353 922 353 1747 
Q 353 2572 751 3078 
Q 1150 3584 1784 3584 
Q 2172 3584 2448 3432 
Q 2725 3281 2906 2969 
z
M 947 1747 
Q 947 1113 1208 752 
Q 1469 391 1925 391 
Q 2381 391 2643 752 
Q 2906 1113 2906 1747 
Q 2906 2381 2643 2742 
Q 2381 3103 1925 3103 
Q 1469 3103 1208 2742 
Q 947 2381 947 1747 
z
" transform="scale(0.015625)"/>
       <path id="DejaVuSans-75" d="M 544 1381 
L 544 3500 
L 1119 3500 
L 1119 1403 
Q 1119 906 1312 657 
Q 1506 409 1894 409 
Q 2359 409 2629 706 
Q 2900 1003 2900 1516 
L 2900 3500 
L 3475 3500 
L 3475 0 
L 2900 0 
L 2900 538 
Q 2691 219 2414 64 
Q 2138 -91 1772 -91 
Q 1169 -91 856 284 
Q 544 659 544 1381 
z
M 1991 3584 
L 1991 3584 
z
" transform="scale(0.015625)"/>
       <path id="DejaVuSans-72" d="M 2631 2963 
Q 2534 3019 2420 3045 
Q 2306 3072 2169 3072 
Q 1681 3072 1420 2755 
Q 1159 2438 1159 1844 
L 1159 0 
L 581 0 
L 581 3500 
L 1159 3500 
L 1159 2956 
Q 1341 3275 1631 3429 
Q 1922 3584 2338 3584 
Q 2397 3584 2469 3576 
Q 2541 3569 2628 3553 
L 2631 2963 
z
" transform="scale(0.015625)"/>
       <path id="DejaVuSans-61" d="M 2194 1759 
Q 1497 1759 1228 1600 
Q 959 1441 959 1056 
Q 959 750 1161 570 
Q 1363 391 1709 391 
Q 2188 391 2477 730 
Q 2766 1069 2766 1631 
L 2766 1759 
L 2194 1759 
z
M 3341 1997 
L 3341 0 
L 2766 0 
L 2766 531 
Q 2569 213 2275 61 
Q 1981 -91 1556 -91 
Q 1019 -91 701 211 
Q 384 513 384 1019 
Q 384 1609 779 1909 
Q 1175 2209 1959 2209 
L 2766 2209 
L 2766 2266 
Q 2766 2663 2505 2880 
Q 2244 3097 1772 3097 
Q 1472 3097 1187 3025 
Q 903 2953 641 2809 
L 641 3341 
Q 956 3463 1253 3523 
Q 1550 3584 1831 3584 
Q 2591 3584 2966 3190 
Q 3341 2797 3341 1997 
z
" transform="scale(0.015625)"/>
       <path id="DejaVuSans-69" d="M 603 3500 
L 1178 3500 
L 1178 0 
L 603 0 
L 603 3500 
z
M 603 4863 
L 1178 4863 
L 1178 4134 
L 603 4134 
L 603 4863 
z
" transform="scale(0.015625)"/>
       <path id="DejaVuSans-6f" d="M 1959 3097 
Q 1497 3097 1228 2736 
Q 959 2375 959 1747 
Q 959 1119 1226 758 
Q 1494 397 1959 397 
Q 2419 397 2687 759 
Q 2956 1122 2956 1747 
Q 2956 2369 2687 2733 
Q 2419 3097 1959 3097 
z
M 1959 3584 
Q 2709 3584 3137 3096 
Q 3566 2609 3566 1747 
Q 3566 888 3137 398 
Q 2709 -91 1959 -91 
Q 1206 -91 779 398 
Q 353 888 353 1747 
Q 353 2609 779 3096 
Q 1206 3584 1959 3584 
z
" transform="scale(0.015625)"/>
       <path id="DejaVuSans-6e" d="M 3513 2113 
L 3513 0 
L 2938 0 
L 2938 2094 
Q 2938 2591 2744 2837 
Q 2550 3084 2163 3084 
Q 1697 3084 1428 2787 
Q 1159 2491 1159 1978 
L 1159 0 
L 581 0 
L 581 3500 
L 1159 3500 
L 1159 2956 
Q 1366 3272 1645 3428 
Q 1925 3584 2291 3584 
Q 2894 3584 3203 3211 
Q 3513 2838 3513 2113 
z
" transform="scale(0.015625)"/>
       <path id="DejaVuSans-28" d="M 1984 4856 
Q 1566 4138 1362 3434 
Q 1159 2731 1159 2009 
Q 1159 1288 1364 580 
Q 1569 -128 1984 -844 
L 1484 -844 
Q 1016 -109 783 600 
Q 550 1309 550 2009 
Q 550 2706 781 3412 
Q 1013 4119 1484 4856 
L 1984 4856 
z
" transform="scale(0.015625)"/>
       <path id="DejaVuSans-4d" d="M 628 4666 
L 1569 4666 
L 2759 1491 
L 3956 4666 
L 4897 4666 
L 4897 0 
L 4281 0 
L 4281 4097 
L 3078 897 
L 2444 897 
L 1241 4097 
L 1241 0 
L 628 0 
L 628 4666 
z
" transform="scale(0.015625)"/>
       <path id="DejaVuSans-29" d="M 513 4856 
L 1013 4856 
Q 1481 4119 1714 3412 
Q 1947 2706 1947 2009 
Q 1947 1309 1714 600 
Q 1481 -109 1013 -844 
L 513 -844 
Q 928 -128 1133 580 
Q 1338 1288 1338 2009 
Q 1338 2731 1133 3434 
Q 928 4138 513 4856 
z
" transform="scale(0.015625)"/>
      </defs>
      <use xlink:href="#DejaVuSans-54"/>
      <use xlink:href="#DejaVuSans-65" x="44.083984"/>
      <use xlink:href="#DejaVuSans-73" x="105.607422"/>
      <use xlink:href="#DejaVuSans-74" x="157.707031"/>
      <use xlink:href="#DejaVuSans-20" x="196.916016"/>
      <use xlink:href="#DejaVuSans-64" x="228.703125"/>
      <use xlink:href="#DejaVuSans-75" x="292.179688"/>
      <use xlink:href="#DejaVuSans-72" x="355.558594"/>
      <use xlink:href="#DejaVuSans-61" x="396.671875"/>
      <use xlink:href="#DejaVuSans-74" x="457.951172"/>
      <use xlink:href="#DejaVuSans-69" x="497.160156"/>
      <use xlink:href="#DejaVuSans-6f" x="524.943359"/>
      <use xlink:href="#DejaVuSans-6e" x="586.125"/>
      <use xlink:href="#DejaVuSans-20" x="649.503906"/>
      <use xlink:href="#DejaVuSans-28" x="681.291016"/>
      <use xlink:href="#DejaVuSans-4d" x="720.304688"/>
      <use xlink:href="#DejaVuSans-69" x="806.583984"/>
      <use xlink:href="#DejaVuSans-6e" x="834.367188"/>
      <use xlink:href="#DejaVuSans-75" x="897.746094"/>
      <use xlink:href="#DejaVuSans-74" x="961.125"/>
      <use xlink:href="#DejaVuSans-65" x="1000.333984"/>
      <use xlink:href="#DejaVuSans-73" x="1061.857422"/>
      <use xlink:href="#DejaVuSans-29" x="1113.957031"/>
     </g>
    </g>
   </g>
   <g id="matplotlib.axis_2">
    <g id="ytick_1">
     <g id="line2d_10">
      <defs>
       <path id="mbff864e34f" d="M 0 0 
L -3.5 0 
" style="stroke: #000000; stroke-width: 0.8"/>
      </defs>
      <g>
       <use xlink:href="#mbff864e34f" x="53.75" y="387.16" style="stroke: #000000; stroke-width: 0.8"/>
      </g>
     </g>
     <g id="text_11">
      <!-- 0 -->
      <g transform="translate(40.3875 390.959219) scale(0.1 -0.1)">
       <use xlink:href="#DejaVuSans-30"/>
      </g>
     </g>
    </g>
    <g id="ytick_2">
     <g id="line2d_11">
      <g>
       <use xlink:href="#mbff864e34f" x="53.75" y="340.801118" style="stroke: #000000; stroke-width: 0.8"/>
      </g>
     </g>
     <g id="text_12">
      <!-- 20 -->
      <g transform="translate(34.025 344.600337) scale(0.1 -0.1)">
       <use xlink:href="#DejaVuSans-32"/>
       <use xlink:href="#DejaVuSans-30" x="63.623047"/>
      </g>
     </g>
    </g>
    <g id="ytick_3">
     <g id="line2d_12">
      <g>
       <use xlink:href="#mbff864e34f" x="53.75" y="294.442236" style="stroke: #000000; stroke-width: 0.8"/>
      </g>
     </g>
     <g id="text_13">
      <!-- 40 -->
      <g transform="translate(34.025 298.241454) scale(0.1 -0.1)">
       <use xlink:href="#DejaVuSans-34"/>
       <use xlink:href="#DejaVuSans-30" x="63.623047"/>
      </g>
     </g>
    </g>
    <g id="ytick_4">
     <g id="line2d_13">
      <g>
       <use xlink:href="#mbff864e34f" x="53.75" y="248.083354" style="stroke: #000000; stroke-width: 0.8"/>
      </g>
     </g>
     <g id="text_14">
      <!-- 60 -->
      <g transform="translate(34.025 251.882572) scale(0.1 -0.1)">
       <defs>
        <path id="DejaVuSans-36" d="M 2113 2584 
Q 1688 2584 1439 2293 
Q 1191 2003 1191 1497 
Q 1191 994 1439 701 
Q 1688 409 2113 409 
Q 2538 409 2786 701 
Q 3034 994 3034 1497 
Q 3034 2003 2786 2293 
Q 2538 2584 2113 2584 
z
M 3366 4563 
L 3366 3988 
Q 3128 4100 2886 4159 
Q 2644 4219 2406 4219 
Q 1781 4219 1451 3797 
Q 1122 3375 1075 2522 
Q 1259 2794 1537 2939 
Q 1816 3084 2150 3084 
Q 2853 3084 3261 2657 
Q 3669 2231 3669 1497 
Q 3669 778 3244 343 
Q 2819 -91 2113 -91 
Q 1303 -91 875 529 
Q 447 1150 447 2328 
Q 447 3434 972 4092 
Q 1497 4750 2381 4750 
Q 2619 4750 2861 4703 
Q 3103 4656 3366 4563 
z
" transform="scale(0.015625)"/>
       </defs>
       <use xlink:href="#DejaVuSans-36"/>
       <use xlink:href="#DejaVuSans-30" x="63.623047"/>
      </g>
     </g>
    </g>
    <g id="ytick_5">
     <g id="line2d_14">
      <g>
       <use xlink:href="#mbff864e34f" x="53.75" y="201.724471" style="stroke: #000000; stroke-width: 0.8"/>
      </g>
     </g>
     <g id="text_15">
      <!-- 80 -->
      <g transform="translate(34.025 205.52369) scale(0.1 -0.1)">
       <defs>
        <path id="DejaVuSans-38" d="M 2034 2216 
Q 1584 2216 1326 1975 
Q 1069 1734 1069 1313 
Q 1069 891 1326 650 
Q 1584 409 2034 409 
Q 2484 409 2743 651 
Q 3003 894 3003 1313 
Q 3003 1734 2745 1975 
Q 2488 2216 2034 2216 
z
M 1403 2484 
Q 997 2584 770 2862 
Q 544 3141 544 3541 
Q 544 4100 942 4425 
Q 1341 4750 2034 4750 
Q 2731 4750 3128 4425 
Q 3525 4100 3525 3541 
Q 3525 3141 3298 2862 
Q 3072 2584 2669 2484 
Q 3125 2378 3379 2068 
Q 3634 1759 3634 1313 
Q 3634 634 3220 271 
Q 2806 -91 2034 -91 
Q 1263 -91 848 271 
Q 434 634 434 1313 
Q 434 1759 690 2068 
Q 947 2378 1403 2484 
z
M 1172 3481 
Q 1172 3119 1398 2916 
Q 1625 2713 2034 2713 
Q 2441 2713 2670 2916 
Q 2900 3119 2900 3481 
Q 2900 3844 2670 4047 
Q 2441 4250 2034 4250 
Q 1625 4250 1398 4047 
Q 1172 3844 1172 3481 
z
" transform="scale(0.015625)"/>
       </defs>
       <use xlink:href="#DejaVuSans-38"/>
       <use xlink:href="#DejaVuSans-30" x="63.623047"/>
      </g>
     </g>
    </g>
    <g id="ytick_6">
     <g id="line2d_15">
      <g>
       <use xlink:href="#mbff864e34f" x="53.75" y="155.365589" style="stroke: #000000; stroke-width: 0.8"/>
      </g>
     </g>
     <g id="text_16">
      <!-- 100 -->
      <g transform="translate(27.6625 159.164808) scale(0.1 -0.1)">
       <use xlink:href="#DejaVuSans-31"/>
       <use xlink:href="#DejaVuSans-30" x="63.623047"/>
       <use xlink:href="#DejaVuSans-30" x="127.246094"/>
      </g>
     </g>
    </g>
    <g id="ytick_7">
     <g id="line2d_16">
      <g>
       <use xlink:href="#mbff864e34f" x="53.75" y="109.006707" style="stroke: #000000; stroke-width: 0.8"/>
      </g>
     </g>
     <g id="text_17">
      <!-- 120 -->
      <g transform="translate(27.6625 112.805926) scale(0.1 -0.1)">
       <use xlink:href="#DejaVuSans-31"/>
       <use xlink:href="#DejaVuSans-32" x="63.623047"/>
       <use xlink:href="#DejaVuSans-30" x="127.246094"/>
      </g>
     </g>
    </g>
    <g id="ytick_8">
     <g id="line2d_17">
      <g>
       <use xlink:href="#mbff864e34f" x="53.75" y="62.647825" style="stroke: #000000; stroke-width: 0.8"/>
      </g>
     </g>
     <g id="text_18">
      <!-- 140 -->
      <g transform="translate(27.6625 66.447044) scale(0.1 -0.1)">
       <use xlink:href="#DejaVuSans-31"/>
       <use xlink:href="#DejaVuSans-34" x="63.623047"/>
       <use xlink:href="#DejaVuSans-30" x="127.246094"/>
      </g>
     </g>
    </g>
    <g id="text_19">
     <!-- Power (W) -->
     <g transform="translate(21.166875 238.398125) rotate(-90) scale(0.12 -0.12)">
      <defs>
       <path id="DejaVuSans-50" d="M 1259 4147 
L 1259 2394 
L 2053 2394 
Q 2494 2394 2734 2622 
Q 2975 2850 2975 3272 
Q 2975 3691 2734 3919 
Q 2494 4147 2053 4147 
L 1259 4147 
z
M 628 4666 
L 2053 4666 
Q 2838 4666 3239 4311 
Q 3641 3956 3641 3272 
Q 3641 2581 3239 2228 
Q 2838 1875 2053 1875 
L 1259 1875 
L 1259 0 
L 628 0 
L 628 4666 
z
" transform="scale(0.015625)"/>
       <path id="DejaVuSans-77" d="M 269 3500 
L 844 3500 
L 1563 769 
L 2278 3500 
L 2956 3500 
L 3675 769 
L 4391 3500 
L 4966 3500 
L 4050 0 
L 3372 0 
L 2619 2869 
L 1863 0 
L 1184 0 
L 269 3500 
z
" transform="scale(0.015625)"/>
       <path id="DejaVuSans-57" d="M 213 4666 
L 850 4666 
L 1831 722 
L 2809 4666 
L 3519 4666 
L 4500 722 
L 5478 4666 
L 6119 4666 
L 4947 0 
L 4153 0 
L 3169 4050 
L 2175 0 
L 1381 0 
L 213 4666 
z
" transform="scale(0.015625)"/>
      </defs>
      <use xlink:href="#DejaVuSans-50"/>
      <use xlink:href="#DejaVuSans-6f" x="56.677734"/>
      <use xlink:href="#DejaVuSans-77" x="117.859375"/>
      <use xlink:href="#DejaVuSans-65" x="199.646484"/>
      <use xlink:href="#DejaVuSans-72" x="261.169922"/>
      <use xlink:href="#DejaVuSans-20" x="302.283203"/>
      <use xlink:href="#DejaVuSans-28" x="334.070312"/>
      <use xlink:href="#DejaVuSans-57" x="373.083984"/>
      <use xlink:href="#DejaVuSans-29" x="471.960938"/>
     </g>
    </g>
   </g>
   <g id="line2d_18">
    <path d="M 209.331684 387.16 
L 211.273214 387.16 
L 211.92925 347.771176 
L 212.601816 347.993698 
L 213.226088 341.533588 
L 213.900923 347.722499 
L 214.523898 347.059567 
L 215.303752 347.205597 
L 215.826895 381.893631 
L 216.480986 345.300247 
L 217.133457 346.723465 
L 217.784307 366.884943 
L 218.429323 345.325745 
L 219.082766 367.183958 
L 219.735237 361.984809 
L 220.391921 360.088731 
L 221.038557 361.039088 
L 221.693297 367.267404 
L 222.344471 358.30855 
L 222.991107 166.246019 
L 223.633206 149.234627 
L 224.285028 330.708789 
L 224.93523 363.952744 
L 225.588025 364.733891 
L 226.234661 167.949708 
L 226.889077 178.528805 
L 227.535713 136.889257 
L 228.18235 240.28579 
L 228.828986 189.564537 
L 229.475622 189.624803 
L 230.125176 189.214527 
L 230.772785 187.466797 
L 231.423959 189.615531 
L 232.069947 187.728725 
L 232.71788 190.596022 
L 233.367758 184.119686 
L 234.017959 185.417735 
L 234.669782 192.077188 
L 235.320632 185.612442 
L 235.970509 187.972109 
L 236.620387 170.7776 
L 237.27772 187.45289 
L 237.925977 182.854088 
L 238.577475 181.094769 
L 239.230918 185.582309 
L 239.876258 316.203095 
L 240.52808 331.844582 
L 241.174393 330.588256 
L 241.822001 356.836655 
L 242.46799 348.35298 
L 243.121108 349.052999 
L 243.769365 166.461588 
L 244.422809 172.045515 
L 245.71673 123.878637 
L 246.365311 110.397474 
L 247.015837 116.716189 
L 247.667983 109.864347 
L 248.319481 125.619413 
L 248.966766 112.599521 
L 249.615995 109.537516 
L 250.262632 310.500952 
L 250.914778 335.750318 
L 251.565628 312.016888 
L 252.213885 318.509449 
L 252.869273 340.068648 
L 253.51753 336.450337 
L 254.165139 312.417892 
L 254.811451 309.645631 
L 255.458412 311.404951 
L 256.116069 312.053975 
L 256.762381 183.220324 
L 257.416148 185.274022 
L 258.06635 149.582319 
L 258.712662 125.561464 
L 259.364485 109.187507 
L 260.013066 109.428573 
L 260.662619 109.521291 
L 261.312821 110.439197 
L 261.966912 109.516655 
L 262.613225 110.181905 
L 263.265047 109.421619 
L 263.911035 109.361353 
L 264.55832 109.734542 
L 265.213059 109.444799 
L 265.859047 109.773947 
L 266.507629 109.187507 
L 267.81257 109.831895 
L 269.77063 109.785536 
L 270.415646 110.624632 
L 271.067468 113.682 
L 271.717346 126.931369 
L 272.374679 120.499074 
L 273.025853 125.955514 
L 273.67022 122.142496 
L 274.323663 120.89776 
L 274.969652 122.703439 
L 275.620177 128.143654 
L 276.268434 129.87284 
L 276.919609 132.244097 
L 277.565597 142.848691 
L 278.221957 130.36888 
L 278.871835 140.136697 
L 279.523009 139.911856 
L 280.1677 142.904322 
L 280.817902 141.499648 
L 281.46778 142.424507 
L 282.115713 155.625199 
L 282.772397 151.014808 
L 283.414496 149.338935 
L 284.070208 154.589078 
L 284.720734 148.140558 
L 285.373853 159.004762 
L 286.029564 160.699179 
L 286.678794 157.690487 
L 287.325106 158.086856 
L 287.976929 169.906053 
L 288.623889 164.920155 
L 289.273767 166.925177 
L 289.920079 166.990079 
L 290.573846 167.544068 
L 291.225993 169.76234 
L 291.873601 167.300684 
L 292.525424 307.028672 
L 293.170116 328.766352 
L 293.82129 303.924945 
L 294.473436 304.6296 
L 295.124286 305.100143 
L 295.77935 304.891528 
L 296.430848 302.415963 
L 297.078133 303.301418 
L 297.733197 304.64119 
L 298.381778 178.33178 
L 299.0336 166.656295 
L 299.686071 130.246029 
L 300.342107 134.928276 
L 300.990364 125.981012 
L 301.636028 114.722757 
L 302.285257 120.295095 
L 302.93708 118.820883 
L 303.590199 116.50062 
L 304.244614 112.277326 
L 304.893195 109.043794 
L 305.539832 109.06002 
L 306.186144 321.036008 
L 306.836994 355.153828 
L 307.48363 342.330961 
L 308.135453 353.375965 
L 308.791165 355.587283 
L 309.44007 356.213128 
L 310.099996 138.539633 
L 310.744039 159.957437 
L 311.397482 152.486703 
L 312.046387 149.519734 
L 312.6927 123.361735 
L 313.337067 110.149454 
L 313.989538 111.326969 
L 314.646546 118.116228 
L 315.291238 133.641817 
L 315.939819 108.524575 
L 316.587104 120.83054 
L 317.239899 121.514334 
L 317.892045 120.487484 
L 318.543219 112.28428 
L 319.193097 198.669421 
L 319.84654 192.923238 
L 320.488639 194.39745 
L 321.139489 193.933861 
L 321.785477 196.281939 
L 322.436975 194.348773 
L 323.08977 192.911648 
L 323.733489 194.833224 
L 324.385311 142.800014 
L 325.037134 130.758295 
L 325.68928 191.228821 
L 326.336241 189.525132 
L 326.98385 130.897371 
L 327.632107 325.421559 
L 328.283605 356.166769 
L 328.929917 362.109978 
L 329.583684 356.732348 
L 330.228052 197.691249 
L 330.875985 325.185128 
L 331.527159 350.353366 
L 332.176064 352.154408 
L 332.828859 236.410187 
L 333.477764 167.945072 
L 334.124401 141.221494 
L 334.771361 198.12934 
L 336.075006 201.805599 
L 336.722939 198.796908 
L 337.374437 198.922077 
L 338.026584 198.829359 
L 338.67322 198.961482 
L 339.320181 199.515471 
L 339.966817 197.874366 
L 340.616695 198.903533 
L 341.270786 109.755403 
L 341.919043 150.537312 
L 342.570541 113.338945 
L 343.222364 126.331021 
L 343.869 110.782252 
L 344.522767 109.472614 
L 345.174914 110.22131 
L 345.828033 112.5323 
L 346.481152 111.938906 
L 347.133623 110.636222 
L 347.784473 110.851791 
L 348.433378 109.817988 
L 349.080987 109.81567 
L 349.727623 110.62695 
L 350.374908 109.681229 
L 351.024461 109.426255 
L 351.674663 109.940839 
L 352.323892 138.521089 
L 353.616517 123.73956 
L 354.268988 112.279644 
L 354.918541 129.736081 
L 355.573281 126.771431 
L 356.220889 111.897183 
L 356.873684 123.498494 
L 357.523562 123.201797 
L 358.175384 118.547365 
L 358.821048 120.466623 
L 359.469305 112.550844 
L 360.118535 117.35826 
L 360.767116 120.98816 
L 362.062982 114.409835 
L 362.710915 109.901434 
L 363.364682 110.161043 
L 364.018449 120.749412 
L 364.665734 120.167608 
L 365.31237 125.610141 
L 365.965489 111.839235 
L 367.261679 115.133033 
L 367.917715 117.680454 
L 368.568565 123.125305 
L 369.217794 119.903362 
L 369.87221 107.54872 
L 370.519494 113.624052 
L 371.172289 112.186926 
L 371.825408 113.325037 
L 372.476582 109.338173 
L 373.127757 110.429925 
L 373.784441 110.97696 
L 374.431401 109.977926 
L 375.080307 109.665003 
L 375.732777 111.739563 
L 376.386545 111.083585 
L 377.036098 111.048816 
L 377.683383 110.20972 
L 378.337798 114.096912 
L 378.982814 109.423937 
L 379.631395 109.553742 
L 380.92564 110.921329 
L 381.576814 110.371976 
L 382.223775 109.370624 
L 382.875597 109.412347 
L 383.528716 110.0521 
L 384.181835 109.748449 
L 384.82912 115.392643 
L 386.125958 121.50738 
L 386.778753 119.873229 
L 387.428306 121.903748 
L 388.079805 120.747094 
L 388.732599 120.895443 
L 389.383774 122.562044 
L 390.034624 121.523605 
L 390.679315 118.788431 
L 391.330165 113.633324 
L 391.978422 114.778388 
L 392.625707 110.636222 
L 393.275909 119.112943 
L 393.927407 112.787274 
L 394.574368 110.522643 
L 395.225542 113.255499 
L 395.874123 112.314413 
L 396.529835 110.527279 
L 397.176147 112.326003 
L 397.822135 110.738211 
L 398.472661 111.758107 
L 399.119622 109.614009 
L 399.769175 110.902785 
L 400.422294 110.837883 
L 401.07282 110.225946 
L 401.728856 109.947792 
L 402.376465 110.026603 
L 403.023425 118.888103 
L 403.674924 119.092082 
L 404.318967 118.315571 
L 404.967224 122.427604 
L 405.615157 113.679683 
L 406.26309 114.59527 
L 406.917829 121.627913 
L 407.568679 134.244483 
L 408.214343 116.074119 
L 408.868759 119.150031 
L 409.518961 116.623472 
L 410.176617 116.380087 
L 410.823578 115.27211 
L 411.470214 118.902011 
L 412.12463 113.619416 
L 412.772887 117.877479 
L 413.422764 115.26052 
L 414.071021 109.760039 
L 414.722844 120.74014 
L 415.377583 113.916113 
L 416.025192 112.822043 
L 416.67118 112.404813 
L 417.318465 117.541377 
L 417.975798 116.092662 
L 418.621462 109.850439 
L 419.276201 114.015784 
L 419.921217 111.628302 
L 420.574984 109.970972 
L 421.217407 110.622314 
L 421.873119 111.517041 
L 422.521376 109.641824 
L 423.172874 109.627916 
L 423.817242 117.240045 
L 424.475222 116.192334 
L 425.120562 121.206047 
L 425.771088 113.443252 
L 426.417725 110.770663 
L 427.066954 116.639697 
L 427.717804 109.458706 
L 428.367033 109.952428 
L 429.018208 109.569968 
L 429.66614 109.794808 
L 430.313749 109.349763 
L 430.961682 109.391486 
L 431.610263 110.798478 
L 432.25852 110.659401 
L 432.90775 113.723723 
L 433.556331 113.151191 
L 434.205236 110.033556 
L 434.854465 110.960734 
L 435.504991 110.144818 
L 436.153248 110.290848 
L 436.803126 116.11816 
L 437.451059 110.826293 
L 438.107419 111.162395 
L 438.752111 109.423937 
L 439.40134 209.471041 
L 440.052838 191.351672 
L 440.704013 245.262416 
L 441.351946 195.625961 
L 441.99923 196.856789 
L 442.650728 132.355358 
L 443.296717 106.572866 
L 443.943029 109.579239 
L 444.593231 109.926931 
L 445.238246 109.892162 
L 445.888772 110.492509 
L 446.535733 107.625212 
L 447.188528 110.021967 
L 447.840674 118.239079 
L 448.488607 110.571319 
L 449.141402 109.632552 
L 449.789659 195.313038 
L 450.434675 191.124513 
L 451.085201 329.475643 
L 451.738319 349.618577 
L 452.382363 351.658368 
L 453.033213 355.837621 
L 453.684387 354.13625 
L 454.332644 272.994299 
L 454.987708 156.167598 
L 455.634668 136.747862 
L 456.282601 166.116214 
L 456.929886 212.952593 
L 457.580412 196.015375 
L 458.232882 199.39262 
L 458.876926 198.822405 
L 459.527452 198.532662 
L 460.17344 199.188641 
L 460.825262 194.935213 
L 461.474816 152.498292 
L 462.126638 143.066578 
L 462.779757 129.481107 
L 463.427366 153.949325 
L 464.079188 138.138629 
L 464.730038 140.535383 
L 465.378619 132.125882 
L 466.026552 137.68663 
L 466.682264 131.201022 
L 467.329549 131.430498 
L 467.972944 135.964397 
L 468.626711 131.782826 
L 469.277237 124.432625 
L 469.928411 132.218599 
L 470.580558 131.71097 
L 471.227194 140.354583 
L 471.877072 153.566865 
L 472.525653 142.25298 
L 473.173586 142.25298 
L 473.827353 119.632163 
L 474.4795 119.632163 
L 475.126136 117.16587 
L 475.780552 112.833633 
L 476.418112 107.680843 
L 477.068638 330.794553 
L 477.721757 358.521801 
L 479.019244 158.432229 
L 479.67139 140.037025 
L 480.318675 140.892346 
L 480.968228 131.226519 
L 481.627182 143.268239 
L 482.928882 153.566865 
L 483.576815 135.377957 
L 484.232851 195.47993 
L 484.878191 195.187869 
L 485.527744 197.297198 
L 486.828148 147.041852 
L 487.485156 163.816814 
L 488.135034 151.316141 
L 488.780374 131.075853 
L 489.426362 205.259336 
L 490.076239 198.045894 
L 490.722876 198.430673 
L 491.37405 199.992967 
L 492.023279 189.274794 
L 492.67964 190.860267 
L 493.331462 191.284451 
L 493.979719 193.161986 
L 494.636079 190.466217 
L 495.284336 192.169906 
L 495.941669 190.130115 
L 496.586685 189.986402 
L 497.237211 196.103457 
L 497.885792 197.598531 
L 498.535345 269.278635 
L 499.18814 196.903148 
L 499.834128 197.181301 
L 500.481089 196.993548 
L 501.138421 196.564728 
L 501.787327 197.758469 
L 502.43688 184.395521 
L 503.085461 197.341239 
L 503.736311 197.56608 
L 504.388134 197.183619 
L 505.039632 197.329649 
L 505.692103 198.064438 
L 506.342304 197.906818 
L 506.991858 195.537879 
L 507.643356 198.150202 
L 508.295503 197.902182 
L 508.944408 197.461772 
L 509.595906 197.677341 
L 510.247729 197.447865 
L 510.895662 198.096889 
L 511.544243 198.027351 
L 512.193148 196.230944 
L 512.843674 198.361135 
L 513.491931 197.466408 
L 514.144078 197.950858 
L 514.7959 197.929997 
L 515.442536 199.833029 
L 516.098897 198.043576 
L 516.751691 197.264747 
L 517.403838 199.735675 
L 518.05404 198.314776 
L 519.35023 198.370406 
L 520.002376 198.56975 
L 520.656792 197.16044 
L 521.304725 184.777982 
L 521.951685 198.481668 
L 522.601563 199.102877 
L 523.248199 198.416765 
L 523.89516 198.391268 
L 524.544065 196.808112 
L 525.200749 198.599883 
L 525.844469 198.567432 
L 526.496939 201.499631 
L 527.1439 196.79884 
L 527.789888 198.838631 
L 528.44171 201.543672 
L 529.093533 199.476066 
L 529.742114 198.866446 
L 530.389398 197.399188 
L 531.035711 199.149236 
L 531.691099 203.18014 
L 532.338707 198.616108 
L 532.985344 199.385666 
L 533.634573 199.378712 
L 534.28283 198.101525 
L 534.930763 200.3847 
L 535.581613 199.248907 
L 536.233111 200.540002 
L 536.880072 204.607994 
L 537.534811 199.295266 
L 538.1808 199.487655 
L 539.480555 202.273824 
L 540.126219 200.590997 
L 540.779986 200.641992 
L 541.429215 200.574771 
L 542.079417 155.442081 
L 542.727026 199.923429 
L 543.3782 200.106546 
L 544.030671 200.141316 
L 544.680224 196.780297 
L 545.327185 198.166427 
L 545.975442 207.625957 
L 546.628561 200.037008 
L 547.280059 200.006875 
L 547.926696 201.492677 
L 548.577546 199.443614 
L 549.874708 201.316513 
L 550.526206 201.798646 
L 551.171222 202.000307 
L 551.825637 200.377746 
L 552.47357 200.567817 
L 553.132848 200.252577 
L 553.780456 177.402284 
L 554.431955 200.13668 
L 555.078915 198.514119 
L 555.72782 155.001672 
L 556.375753 138.834012 
L 557.028224 134.828605 
L 557.685557 120.105024 
L 558.337055 117.597008 
L 558.983043 111.364056 
L 559.633245 112.054804 
L 560.283771 110.661719 
L 560.933973 111.931953 
L 561.585147 109.9617 
L 562.239238 109.31963 
L 562.887495 109.669639 
L 563.532511 113.36676 
L 564.184333 110.126274 
L 564.833563 117.179778 
L 565.480847 112.722372 
L 566.137207 110.629268 
L 566.78903 109.440163 
L 567.442797 106.716578 
L 568.088137 111.901819 
L 568.740608 116.030078 
L 569.39243 109.690501 
L 570.043604 119.333148 
L 570.698992 111.373328 
L 571.354056 111.30379 
L 572.00134 115.302243 
L 572.653811 111.707112 
L 573.302068 127.821459 
L 573.953242 111.157759 
L 574.60312 109.783218 
L 575.249756 110.981596 
L 575.903524 111.795194 
L 576.551132 112.824361 
L 577.203927 110.640858 
L 577.850239 113.199868 
L 578.497524 108.665969 
L 579.145133 110.946826 
L 579.799224 111.700158 
L 580.452343 110.314028 
L 581.100276 117.063881 
L 581.752422 110.191177 
L 582.403273 118.820883 
L 583.050881 113.088607 
L 583.698166 114.987003 
L 584.343506 111.301472 
L 584.994032 116.994343 
L 585.644558 109.899116 
L 586.294759 111.459092 
L 586.948202 112.469716 
L 587.59808 110.112367 
L 588.247958 112.562433 
L 588.896539 113.123376 
L 589.546417 106.589091 
L 590.194349 111.380282 
L 590.853303 114.762162 
L 591.49605 115.019454 
L 592.152734 118.811611 
L 592.806177 118.514914 
L 593.452489 110.712714 
L 594.106581 109.734542 
L 594.754838 110.712714 
L 595.406336 110.501781 
L 596.056214 109.970972 
L 596.708684 110.972324 
L 597.352403 110.302438 
L 598.000012 110.436879 
L 598.651511 112.383952 
L 599.304629 109.523609 
L 599.94608 105.905298 
L 600.603088 110.803114 
L 601.251021 109.674275 
L 601.900251 109.474932 
L 602.548183 111.829963 
L 603.198385 109.966336 
L 603.850532 105.353627 
L 604.502354 109.614009 
L 605.153204 109.199097 
L 605.808592 110.872652 
L 606.454904 109.03684 
L 607.10932 110.274623 
L 607.762439 110.355751 
L 608.415558 109.509701 
L 609.065759 109.660367 
L 609.713044 112.133614 
L 610.366811 109.817988 
L 611.015068 110.054418 
L 611.667863 115.670796 
L 612.308989 107.435141 
L 612.96146 187.976745 
L 613.611338 191.597374 
L 614.261215 307.325369 
L 614.914658 332.027699 
L 615.560971 169.991817 
L 616.213117 162.885 
L 616.867857 131.140755 
L 617.512548 137.825706 
L 618.160157 119.632163 
L 618.810035 130.39206 
L 619.456671 132.886167 
L 620.10979 139.033355 
L 620.762909 133.094782 
L 621.418297 129.641046 
L 622.061692 115.649935 
L 622.712218 120.76332 
L 623.366633 123.422002 
L 624.01327 140.565516 
L 624.664444 140.424122 
L 625.311729 147.354774 
L 625.961606 73.769321 
L 626.608243 141.297987 
L 627.261362 140.635055 
L 627.91448 142.415236 
L 628.562737 152.94102 
L 629.208077 139.835364 
L 629.860224 143.993756 
L 630.507833 179.817582 
L 631.168407 122.348793 
L 631.805643 118.839426 
L 632.462003 114.400563 
L 633.109936 123.489222 
L 633.762407 110.012695 
L 634.410016 132.75868 
L 635.064107 342.836273 
L 635.72144 349.069224 
L 636.3684 160.057108 
L 637.015685 138.968453 
L 637.671073 141.214541 
L 638.316413 201.986399 
L 638.966614 197.382962 
L 639.624271 198.694919 
L 640.270907 199.234999 
L 640.918516 198.247555 
L 641.569042 201.182073 
L 642.865232 135.224973 
L 643.521916 147.47299 
L 644.165636 214.385082 
L 644.819079 130.204306 
L 645.470253 192.684489 
L 646.120131 197.320378 
L 646.771629 326.230521 
L 647.424424 353.074632 
L 648.075598 353.846507 
L 648.73131 347.182418 
L 649.376974 343.610466 
L 650.03301 350.028853 
L 650.677377 158.57826 
L 651.321745 151.392633 
L 652.627659 124.870717 
L 653.27235 116.813543 
L 653.9232 122.851787 
L 654.575347 121.704405 
L 655.222307 127.184025 
L 655.866999 126.634672 
L 656.520118 123.014043 
L 657.173237 123.338556 
L 657.818577 129.416205 
L 658.464889 119.961311 
L 659.123518 79.805247 
L 659.764968 128.245643 
L 660.419384 124.370041 
L 661.066668 129.483425 
L 661.720436 120.160654 
L 663.018894 112.022352 
L 663.673634 114.131682 
L 664.325781 118.514914 
L 665.636556 109.31963 
L 666.279951 109.326583 
L 666.931125 111.660753 
L 667.580355 109.845803 
L 668.227964 109.817988 
L 668.875572 109.945475 
L 669.528043 109.917659 
L 670.182783 140.083384 
L 670.835253 110.140182 
L 672.12885 108.846769 
L 672.775811 109.676593 
L 673.431523 116.00458 
L 674.079456 116.227103 
L 674.731602 120.485166 
L 675.384397 117.402301 
L 676.036219 117.738403 
L 676.679615 113.257817 
L 677.333058 112.852176 
L 677.97937 113.730677 
L 678.628275 110.149454 
L 679.27556 108.897764 
L 679.92641 109.474932 
L 680.577908 111.116036 
L 681.230703 111.452138 
L 681.878636 117.397665 
L 682.527865 98.677948 
L 683.171909 112.852176 
L 683.825027 110.895832 
L 684.473284 112.662105 
L 685.124783 109.639506 
L 685.771419 110.550458 
L 686.424214 110.376612 
L 687.076036 109.588511 
L 687.723969 109.203732 
L 688.376116 110.242171 
L 689.025669 112.474352 
L 689.672306 113.343581 
L 690.32348 113.343581 
L 690.970765 109.922295 
L 691.619346 116.781092 
L 692.92137 110.283894 
L 693.574813 109.727588 
L 694.22696 110.881924 
L 695.523798 108.248739 
L 696.818043 112.738597 
L 697.466624 109.885208 
L 698.120067 110.188859 
L 698.766703 109.885208 
L 699.419822 103.149262 
L 700.066783 110.098459 
L 700.713419 109.748449 
L 701.366214 109.906069 
L 702.014471 109.29645 
L 702.66759 109.801762 
L 703.315199 110.847155 
L 703.961511 110.066008 
L 704.61852 111.526312 
L 705.269694 110.195813 
L 706.564587 110.682581 
L 707.21803 109.507383 
L 707.868556 110.659401 
L 708.514544 109.797126 
L 709.161829 108.422585 
L 709.813651 109.732224 
L 710.464501 110.71735 
L 711.117296 110.001105 
L 711.76847 109.502747 
L 712.421265 109.410029 
L 713.077949 110.374294 
L 713.725882 111.61903 
L 714.373491 112.346865 
L 715.024989 124.010759 
L 715.670005 110.937555 
L 716.319883 191.3424 
L 716.966195 192.5825 
L 717.614452 194.300096 
L 718.259792 323.017851 
L 718.910318 349.199029 
L 719.55663 355.809806 
L 720.208777 356.199221 
L 720.857358 189.712885 
L 721.504318 154.883457 
L 722.151279 170.135529 
L 722.798563 163.557204 
L 723.449413 170.573621 
L 724.105125 126.685667 
L 724.7563 146.112356 
L 725.405205 130.644715 
L 726.058324 154.313243 
L 726.705608 141.599319 
L 727.352245 134.580585 
L 728.002122 130.793064 
L 728.649407 123.978308 
L 729.295719 147.908763 
L 729.94819 134.346472 
L 730.590937 130.018871 
L 731.243408 148.298178 
L 731.892637 156.144419 
L 732.538301 168.355348 
L 733.190448 158.791511 
L 733.841298 183.809081 
L 734.488582 161.851197 
L 735.141701 126.043596 
L 735.784772 139.367139 
L 736.441781 139.404226 
L 737.09652 129.539056 
L 737.745101 108.009991 
L 738.394007 329.913734 
L 739.044857 356.896922 
L 739.695383 358.385042 
L 740.346233 343.415759 
L 740.998379 354.581296 
L 741.648257 336.255629 
L 742.300079 337.122541 
L 742.951902 148.896207 
L 743.602103 325.878194 
L 744.255871 159.271325 
L 744.907369 147.880948 
L 745.554329 166.076809 
L 746.208421 150.140943 
L 746.857326 166.099988 
L 747.505907 156.83053 
L 748.153516 153.068507 
L 748.802097 145.732214 
L 749.451651 162.008817 
L 750.099259 169.321931 
L 750.743951 169.034506 
L 751.393829 133.651089 
L 752.045975 133.878247 
L 752.68937 119.91727 
L 753.341193 110.033556 
L 753.987505 138.453869 
L 754.639652 120.547751 
L 755.284667 189.689706 
L 755.931952 193.317288 
L 756.583774 193.407688 
L 757.232031 193.138806 
L 757.879964 194.017307 
L 758.528545 310.392009 
L 759.180368 352.075598 
L 759.827328 355.656822 
L 760.482392 347.305269 
L 761.134214 363.129873 
L 761.787658 209.950855 
L 762.433322 178.5798 
L 763.085468 198.878036 
L 763.735994 146.529586 
L 764.391058 128.14829 
L 765.045797 123.011725 
L 765.688544 165.587723 
L 766.346525 145.301076 
L 766.993485 150.433004 
L 768.290972 114.961506 
L 768.943118 116.368498 
L 769.590079 128.764863 
L 770.239308 119.942767 
L 770.890483 120.08648 
L 771.537443 129.103283 
L 772.19121 163.53866 
L 772.836874 139.000904 
L 773.490966 154.978493 
L 774.140843 195.357079 
L 774.79461 192.862971 
L 775.447729 178.656292 
L 776.094366 195.23191 
L 776.739381 190.255284 
L 777.390556 178.800004 
L 778.042378 180.617272 
L 778.68869 179.228824 
L 779.338568 149.18595 
L 779.991039 172.550827 
L 780.641889 141.747668 
L 781.298249 193.857369 
L 781.942616 196.949507 
L 782.593142 195.711724 
L 783.88836 198.154838 
L 784.534672 198.110797 
L 785.182929 173.42701 
L 785.834103 159.586566 
L 786.479443 204.466599 
L 787.131914 196.594861 
L 787.779523 179.407306 
L 788.427455 148.594875 
L 789.080574 141.399976 
L 789.726887 143.404998 
L 790.379681 173.327338 
L 791.031828 146.659391 
L 791.682678 135.855454 
L 792.333204 134.573631 
L 792.984054 125.264767 
L 793.634904 119.627527 
L 794.288347 120.566294 
L 794.937901 115.480725 
L 795.58162 115.476089 
L 796.23247 115.877094 
L 796.882672 116.083391 
L 797.532874 111.273657 
L 798.186965 112.93794 
L 798.837167 110.237536 
L 799.488341 193.071586 
L 800.789393 120.858355 
L 801.445753 112.200834 
L 802.099844 112.175337 
L 802.75037 109.913023 
L 803.398951 109.896798 
L 804.049477 112.235603 
L 804.700003 110.870334 
L 805.347288 121.801759 
L 805.999758 123.459089 
L 806.643478 108.951077 
L 807.294652 122.772977 
L 807.942261 109.572286 
L 808.595055 109.88289 
L 809.249147 109.069292 
L 809.889625 110.068326 
L 810.540475 113.009797 
L 811.190352 113.719088 
L 811.843147 110.735893 
L 812.50048 112.627336 
L 813.149385 117.376803 
L 813.801532 117.949336 
L 814.446223 104.841362 
L 815.103556 111.120672 
L 815.750192 119.029497 
L 816.400718 116.901625 
L 817.058051 117.787079 
L 817.705659 108.927897 
L 818.350999 115.691658 
L 819.002498 112.970392 
L 819.651079 123.106761 
L 820.296095 114.196584 
L 820.949538 115.573443 
L 821.602657 114.942962 
L 822.249617 114.975413 
L 822.898846 113.63796 
L 823.55391 109.739178 
L 824.20314 109.335855 
L 824.851397 109.467978 
L 825.501598 111.758107 
L 826.150828 111.857778 
L 826.797464 110.55973 
L 827.448638 109.8713 
L 828.096895 110.195813 
L 829.399892 110.100777 
L 830.044908 109.62328 
L 830.695434 109.931567 
L 831.340773 110.587545 
L 831.991623 113.489611 
L 832.638584 114.314799 
L 833.290082 111.806784 
L 833.948387 116.74864 
L 834.595348 109.576921 
L 835.252032 109.609373 
L 835.894131 113.939292 
L 836.54887 111.530948 
L 837.199072 110.833247 
L 837.845708 115.995309 
L 838.500772 109.648778 
L 839.150974 118.498688 
L 839.802796 112.919397 
L 840.461426 109.12724 
L 841.105793 111.544856 
L 841.75794 110.279258 
L 842.403604 112.186926 
L 843.050888 111.927317 
L 843.703683 111.482271 
L 844.997928 111.544856 
L 845.648454 112.198516 
L 846.293146 114.421425 
L 846.943996 185.417735 
L 847.598087 196.119683 
L 848.242454 175.123745 
L 848.89298 128.493663 
L 849.541562 124.455805 
L 850.187874 114.215128 
L 850.84002 110.033556 
L 852.136534 109.715998 
L 852.795163 111.839235 
L 852.795163 111.839235 
" clip-path="url(#pb70e6c727d)" style="fill: none; stroke: #e74c3c; stroke-width: 2; stroke-linecap: square"/>
   </g>
   <g id="line2d_19">
    <path d="M 53.75 387.16 
L 60.900923 387.16 
L 61.56409 357.330377 
L 62.198085 387.16 
L 62.846667 357.040634 
L 63.492979 357.223752 
L 64.140263 346.816183 
L 64.801486 387.16 
L 65.432564 387.16 
L 66.085683 356.57241 
L 66.73556 387.16 
L 68.680656 387.16 
L 69.334747 351.217959 
L 70.003748 338.37423 
L 70.628992 345.177396 
L 71.276601 344.611818 
L 72.125493 345.701252 
L 72.575708 345.042956 
L 73.226234 369.395276 
L 73.87287 371.075786 
L 74.524044 370.547295 
L 75.173922 342.919719 
L 75.824448 366.400493 
L 76.480808 368.672078 
L 77.129389 356.750891 
L 77.786074 368.479688 
L 78.437896 357.960858 
L 79.082264 369.939993 
L 79.741865 360.009921 
L 80.383964 174.84791 
L 81.033193 331.244234 
L 81.685015 363.234181 
L 82.335217 366.036575 
L 82.983474 360.037736 
L 83.632704 170.478585 
L 84.280312 148.854484 
L 84.928569 140.428757 
L 85.572613 114.127046 
L 86.225083 115.063495 
L 86.869451 318.963766 
L 87.520625 194.587522 
L 88.166289 186.613794 
L 88.815843 188.686036 
L 89.468313 190.201971 
L 90.117543 190.593704 
L 90.762883 189.534403 
L 91.414381 189.399963 
L 92.060369 189.977131 
L 92.712191 187.911843 
L 93.357531 213.736058 
L 94.00514 189.467183 
L 94.662473 188.465831 
L 95.308785 189.235389 
L 97.251611 188.556231 
L 97.903434 188.201586 
L 98.55396 188.857564 
L 99.214533 185.466411 
L 99.853067 189.154261 
L 100.501972 189.149625 
L 101.157036 178.832455 
L 101.804644 145.111005 
L 102.452901 327.12293 
L 103.105696 315.452081 
L 103.752333 187.631371 
L 104.405127 315.39645 
L 105.055977 342.908129 
L 105.702938 349.910638 
L 106.357029 361.887455 
L 107.003666 353.334242 
L 107.652571 348.257944 
L 108.303745 348.487421 
L 108.955243 350.548073 
L 109.603825 351.526245 
L 110.263102 349.307973 
L 110.910387 178.271513 
L 111.552485 154.025818 
L 112.203335 187.865484 
L 112.856454 190.227469 
L 113.501794 190.123161 
L 114.158478 142.227482 
L 114.807708 142.653984 
L 115.452723 135.051127 
L 116.110056 143.680833 
L 116.754424 156.014614 
L 117.406894 145.111005 
L 118.054179 92.611889 
L 118.705677 137.853522 
L 119.362686 125.927699 
L 120.008998 121.996466 
L 120.659848 136.499842 
L 121.310374 124.840583 
L 121.957334 124.010759 
L 122.61175 114.062143 
L 123.259683 133.02988 
L 123.906967 111.943542 
L 124.559762 136.970385 
L 125.208667 180.895426 
L 125.857897 172.16373 
L 126.503237 143.07585 
L 127.160569 169.4471 
L 127.811743 112.21706 
L 128.461297 149.239263 
L 129.761376 117.383757 
L 130.412226 128.442669 
L 131.062104 130.987771 
L 131.708741 132.517614 
L 132.357322 127.492311 
L 133.016275 166.551988 
L 133.667449 178.491718 
L 134.311817 180.278853 
L 134.965584 181.71366 
L 135.620647 181.604717 
L 136.266636 181.722932 
L 136.920727 180.909333 
L 137.566715 316.645822 
L 138.21562 312.944066 
L 138.869712 339.417305 
L 139.523155 336.545372 
L 140.178543 339.023255 
L 140.824855 179.163921 
L 141.481539 158.967674 
L 142.138224 145.171271 
L 142.785508 123.523991 
L 143.432793 128.832083 
L 144.737086 115.443638 
L 145.387936 131.367914 
L 146.035545 113.790944 
L 146.688988 127.754239 
L 147.343403 135.222655 
L 147.998467 122.529593 
L 148.644131 125.285629 
L 149.296277 102.641633 
L 149.952962 109.811034 
L 150.602839 229.530529 
L 151.250772 123.804462 
L 151.902919 122.191173 
L 152.546638 114.231353 
L 153.196192 132.091113 
L 153.844125 109.020615 
L 154.490761 109.29645 
L 155.139018 109.363671 
L 155.786627 108.380862 
L 156.438449 125.732992 
L 157.085086 108.751733 
L 157.731722 125.675043 
L 158.382248 107.194075 
L 159.028236 109.004389 
L 159.67941 109.342809 
L 160.322805 109.041476 
L 160.9756 102.866473 
L 161.621588 120.00767 
L 162.274383 154.679478 
L 162.929123 119.755014 
L 164.226609 109.064656 
L 164.871301 111.746517 
L 165.522151 123.623663 
L 166.167815 120.645105 
L 166.818016 129.62482 
L 167.46757 141.724488 
L 168.118096 122.01501 
L 168.771863 137.144231 
L 169.423361 165.253939 
L 170.07097 180.072556 
L 170.725386 179.349357 
L 171.370401 177.583084 
L 172.021251 175.024073 
L 172.672425 175.992974 
L 174.628865 177.671165 
L 175.281336 177.142674 
L 175.935103 175.515477 
L 176.585953 176.746306 
L 177.230969 176.815844 
L 177.87955 176.734716 
L 179.181898 137.983326 
L 179.831776 126.618447 
L 180.478736 110.332571 
L 181.135097 109.732224 
L 181.777519 112.606474 
L 182.432907 113.429345 
L 183.079868 116.241011 
L 183.732014 114.022738 
L 184.377678 113.654185 
L 185.028204 127.835367 
L 185.676785 110.439197 
L 186.328284 106.123185 
L 186.982051 108.758687 
L 187.633873 110.244489 
L 188.284399 109.627916 
L 188.932008 109.966336 
L 189.583506 146.766017 
L 190.238894 122.467009 
L 191.535408 175.346268 
L 192.185286 176.533055 
L 192.841646 135.512398 
L 193.494441 139.177068 
L 194.141077 102.442289 
L 194.788362 109.15042 
L 195.439536 138.885007 
L 196.085848 109.933885 
L 196.734429 109.171281 
L 197.385928 109.437845 
L 198.040991 115.037998 
L 198.689573 109.428573 
L 199.342692 110.082233 
L 199.992569 112.757141 
L 200.637909 118.700349 
L 201.290056 109.377578 
L 201.93572 108.422585 
L 202.585597 102.426064 
L 203.233854 105.126469 
L 203.888594 109.066974 
L 204.534258 109.053066 
L 205.184135 105.100971 
L 205.837903 109.590829 
L 206.49167 108.679877 
L 207.135065 109.354399 
L 207.787212 111.373328 
L 208.440006 111.52863 
L 209.084698 109.046112 
L 209.733603 109.440163 
L 210.386722 110.237536 
L 211.030441 174.697243 
L 211.679995 172.893883 
L 212.337328 175.626739 
L 212.980074 143.646064 
L 213.631249 125.920745 
L 214.279506 121.108693 
L 214.928411 80.076447 
L 215.573427 121.208365 
L 216.224601 109.843485 
L 216.876423 109.338173 
L 217.530514 116.913215 
L 218.177799 106.227492 
L 218.829946 110.244489 
L 219.477554 111.023319 
L 220.130025 161.939279 
L 220.774068 174.762146 
L 221.427187 144.014617 
L 222.070582 107.706341 
L 222.727915 109.187507 
L 223.374227 110.098459 
L 224.031236 110.174951 
L 224.683707 108.040124 
L 225.334232 196.228626 
L 225.982489 174.117757 
L 226.634636 174.942945 
L 227.933419 174.789961 
L 228.58589 172.747852 
L 229.239657 174.358823 
L 229.894396 179.006301 
L 231.188642 172.036243 
L 232.497797 119.096718 
L 233.145729 123.222658 
L 233.79269 117.362896 
L 234.438678 116.537708 
L 235.096011 121.002068 
L 235.747833 105.103289 
L 236.396738 119.365599 
L 237.046292 123.306104 
L 237.69779 122.64549 
L 238.344751 119.198707 
L 238.992035 130.234439 
L 239.641265 190.053623 
L 240.288549 127.028723 
L 240.941992 133.196772 
L 241.584091 121.245452 
L 242.233645 128.686053 
L 242.885467 132.441122 
L 243.535993 118.049007 
L 244.193974 142.786107 
L 244.838665 118.68876 
L 246.1462 133.808709 
L 246.797374 123.802144 
L 247.447576 141.260899 
L 248.101343 142.781471 
L 248.751869 123.303786 
L 250.048059 123.044177 
L 250.703771 131.02254 
L 251.349759 128.718504 
L 251.997368 132.821265 
L 252.647245 131.84541 
L 253.29453 124.441897 
L 253.943759 125.54292 
L 254.591692 122.603767 
L 255.237356 125.88134 
L 255.888855 127.64066 
L 256.537112 119.479179 
L 257.183748 126.419103 
L 257.836543 118.27153 
L 258.491282 122.638536 
L 259.143429 118.134771 
L 259.792334 127.754239 
L 260.443508 127.536352 
L 261.094358 124.281959 
L 261.744884 115.367146 
L 262.390224 126.21976 
L 263.042371 128.799632 
L 263.693869 123.973672 
L 264.34245 147.419677 
L 264.99168 133.171274 
L 265.640909 125.278675 
L 266.294352 147.440538 
L 266.944554 127.661521 
L 267.593459 126.81779 
L 268.244633 147.568025 
L 268.894511 125.918427 
L 269.543416 140.187691 
L 270.188432 141.511237 
L 270.841227 134.066001 
L 271.487215 129.066195 
L 272.79086 128.020803 
L 273.433607 136.312089 
L 274.083484 152.727769 
L 274.731741 121.961697 
L 275.384536 125.023701 
L 276.032469 179.89871 
L 276.692395 147.11139 
L 277.334169 141.928467 
L 277.984371 135.347824 
L 278.6336 132.888485 
L 279.279588 144.784174 
L 279.935949 122.902782 
L 280.581613 139.881723 
L 281.230842 135.164706 
L 281.882988 142.102313 
L 282.530597 125.093239 
L 283.18242 152.148283 
L 283.841697 121.806395 
L 284.48574 139.42277 
L 285.141776 134.297795 
L 285.78582 121.648774 
L 286.438615 134.001098 
L 287.088492 135.989895 
L 287.745825 122.116999 
L 288.396027 134.249119 
L 289.05109 128.829765 
L 289.70032 132.021574 
L 290.347604 175.235006 
L 290.999103 166.568213 
L 291.647684 169.95473 
L 292.300155 174.711151 
L 292.945819 172.618047 
L 293.59051 173.454825 
L 294.246222 173.250846 
L 294.900962 173.290251 
L 295.548895 173.779337 
L 296.198772 173.116405 
L 296.845733 173.927686 
L 297.50339 173.723707 
L 298.150026 173.083954 
L 298.800228 173.26939 
L 299.45594 174.75751 
L 300.099011 172.60414 
L 300.749537 173.867419 
L 301.401683 174.616115 
L 302.696901 178.037401 
L 303.345158 173.466415 
L 303.998277 169.688166 
L 304.642644 138.938319 
L 305.292846 123.016361 
L 305.942723 112.583295 
L 306.58936 109.632552 
L 307.239886 109.104061 
L 307.885874 111.758107 
L 308.532186 116.975799 
L 309.184009 109.766993 
L 309.832266 109.069292 
L 310.47955 111.602805 
L 311.130076 111.69784 
L 311.783843 122.235214 
L 312.435342 109.667321 
L 313.084247 109.954746 
L 313.7338 149.241581 
L 314.388864 113.223048 
L 315.042307 128.669827 
L 315.693481 126.465462 
L 316.344331 112.147521 
L 316.997126 110.668673 
L 317.651866 115.241977 
L 318.300447 113.350534 
L 318.948056 117.481111 
L 319.595016 113.890615 
L 320.244894 111.408097 
L 320.897365 109.697455 
L 321.541084 131.168571 
L 322.188693 141.629453 
L 323.48391 127.355553 
L 324.132167 139.921128 
L 324.783341 111.081267 
L 326.077911 128.122792 
L 326.731029 134.770656 
L 327.381555 136.460437 
L 328.030785 137.070056 
L 328.677421 115.003229 
L 329.326002 106.540415 
L 329.976204 123.862411 
L 330.629971 133.678904 
L 331.283414 133.363664 
L 331.929403 164.630412 
L 332.588032 130.361926 
L 333.232723 123.14153 
L 333.879684 122.288527 
L 334.53021 135.009404 
L 335.18106 119.384143 
L 335.824131 116.66983 
L 336.473684 116.159883 
L 337.127776 126.595267 
L 337.778301 138.912822 
L 338.430772 124.163744 
L 339.080002 135.438224 
L 339.730852 137.181318 
L 340.381702 130.259937 
L 341.034821 131.734149 
L 341.681457 126.069094 
L 342.332307 132.663645 
L 342.981861 134.25839 
L 343.631414 143.342413 
L 344.277402 138.956863 
L 344.929225 129.453292 
L 345.571971 124.446533 
L 346.220877 128.642012 
L 346.873996 134.355744 
L 347.519984 118.123181 
L 348.169537 130.394377 
L 348.81585 131.578847 
L 349.467024 130.208942 
L 350.113012 117.907613 
L 350.762241 129.835753 
L 351.408553 104.570162 
L 352.705716 128.648966 
L 353.355269 150.840962 
L 354.002878 136.597196 
L 354.654376 132.631194 
L 355.304578 133.291808 
L 355.952835 103.00555 
L 356.599147 131.516262 
L 357.255183 126.859513 
L 357.902144 147.118344 
L 358.554615 124.710779 
L 359.199955 126.518775 
L 359.85048 122.752116 
L 360.500034 125.072378 
L 361.147643 123.765057 
L 361.800113 129.654953 
L 362.443833 124.052482 
L 363.090469 127.552578 
L 363.744236 115.661525 
L 364.399624 111.767379 
L 365.049826 112.432629 
L 365.694193 131.852364 
L 366.348609 133.076239 
L 366.996866 127.668475 
L 367.645123 132.427214 
L 368.296297 140.618829 
L 368.944878 122.615357 
L 369.589894 130.072183 
L 370.239123 199.756537 
L 370.888353 201.685066 
L 371.53272 202.839403 
L 372.831179 202.823177 
L 373.486891 201.564533 
L 374.140982 202.456942 
L 375.445275 202.524162 
L 376.093532 202.915895 
L 377.396853 202.915895 
L 378.043165 206.821631 
L 378.69045 202.997023 
L 379.347134 200.317479 
L 379.99604 202.596018 
L 380.648186 187.420438 
L 381.298712 155.889445 
L 381.951507 152.906251 
L 382.599764 132.765634 
L 383.255476 137.707491 
L 383.902436 126.583677 
L 384.551018 133.565325 
L 385.200247 152.27577 
L 385.8498 133.817981 
L 386.495464 142.616897 
L 387.146963 139.318462 
L 387.79522 131.467586 
L 388.440884 138.034321 
L 389.090113 132.077205 
L 389.744529 105.107925 
L 390.39862 131.418909 
L 391.048173 133.291808 
L 391.696755 121.908384 
L 392.345336 127.789008 
L 392.993917 123.58194 
L 393.647684 133.532874 
L 394.295293 132.614968 
L 394.945819 125.443249 
L 395.601855 129.172821 
L 396.251084 150.901229 
L 396.898045 129.617866 
L 397.543709 140.625783 
L 398.196179 132.225553 
L 398.851891 138.398238 
L 399.496583 130.102316 
L 400.148081 128.421807 
L 400.791152 114.569773 
L 401.440382 136.013074 
L 402.089935 144.283499 
L 402.740137 124.444215 
L 403.385801 156.142101 
L 404.040216 132.784178 
L 404.690742 141.186725 
L 405.337379 117.043019 
L 405.981746 131.571893 
L 406.634865 124.240236 
L 407.285391 132.369266 
L 408.585795 117.237727 
L 409.240858 117.41389 
L 409.886198 119.877865 
L 410.535104 117.710587 
L 411.832266 140.011528 
L 412.486357 142.881142 
L 413.134938 134.967681 
L 413.786437 139.480718 
L 414.438259 141.951647 
L 415.085544 338.313964 
L 415.733152 173.392241 
L 416.379465 175.33236 
L 417.029991 171.030256 
L 417.680841 173.090908 
L 418.335904 172.694539 
L 418.982541 173.936958 
L 419.628205 171.985249 
L 420.27711 172.842888 
L 420.931201 171.913392 
L 421.579458 175.15156 
L 422.234522 174.217429 
L 422.879538 176.528419 
L 424.183183 176.609547 
L 424.835005 177.506591 
L 425.485207 171.99452 
L 426.138974 174.219747 
L 426.790148 173.169718 
L 427.44035 174.583664 
L 428.092172 174.759828 
L 428.744319 143.40268 
L 429.390631 130.528818 
L 430.050557 122.712711 
L 430.700759 124.676009 
L 431.995976 113.957836 
L 432.646502 116.329093 
L 433.294435 122.615357 
L 433.946906 124.796542 
L 434.589328 131.641431 
L 435.234992 117.506608 
L 435.887787 115.877094 
L 436.537341 122.504096 
L 437.183005 111.129944 
L 437.832882 108.109663 
L 438.478546 111.820691 
L 439.129072 119.676204 
L 439.776357 119.022544 
L 440.433689 117.100968 
L 441.076112 113.823395 
L 441.730204 116.980435 
L 442.373274 118.371201 
L 443.0238 112.12666 
L 443.673678 113.730677 
L 444.972461 112.469716 
L 445.619746 121.377575 
L 446.267354 115.76815 
L 446.913991 124.421035 
L 447.560627 127.311512 
L 448.210505 133.507376 
L 448.860058 122.112363 
L 449.511557 139.631385 
L 450.164351 126.597585 
L 450.814553 135.60048 
L 451.471238 331.700869 
L 452.11204 163.436671 
L 452.771317 161.23926 
L 453.416009 146.46932 
L 454.064914 128.29432 
L 454.717709 134.902779 
L 455.362724 111.39419 
L 456.017788 127.149256 
L 456.662804 136.877667 
L 457.314302 121.790169 
L 457.962883 113.11874 
L 458.61503 116.454262 
L 459.262315 153.309573 
L 459.915109 127.355553 
L 460.560773 131.453678 
L 461.208058 138.453869 
L 461.858908 121.938517 
L 462.512675 119.933496 
L 463.162877 120.471259 
L 463.807244 136.796539 
L 464.466846 130.371198 
L 465.113806 133.704402 
L 465.763684 137.721399 
L 466.420368 137.751532 
L 467.072839 145.806388 
L 467.717855 133.880565 
L 468.371298 140.950295 
L 469.016638 134.615354 
L 469.665219 134.615354 
L 470.318338 142.691071 
L 470.961733 113.916113 
L 471.612907 141.573822 
L 472.259868 143.530167 
L 472.904883 142.062908 
L 473.551844 137.192908 
L 474.201722 138.908186 
L 474.852572 139.534031 
L 475.498884 136.212417 
L 476.146817 136.057115 
L 476.795398 133.736853 
L 477.442683 107.3007 
L 478.100339 132.937162 
L 478.743734 149.417745 
L 479.398474 176.871475 
L 480.050296 153.573819 
L 480.704388 157.361339 
L 481.357831 152.164509 
L 482.011598 153.476465 
L 482.663745 148.754813 
L 483.320105 148.625008 
L 483.967389 150.727383 
L 484.615646 148.19387 
L 485.262607 157.602405 
L 485.908919 144.531519 
L 486.564955 148.314403 
L 487.215805 147.517031 
L 487.8686 146.993175 
L 488.521071 143.62752 
L 489.1703 143.537121 
L 489.82115 144.267273 
L 490.471028 145.196769 
L 491.123174 145.609363 
L 491.7737 144.844441 
L 492.423902 142.600671 
L 493.077994 141.047649 
L 493.727871 145.361343 
L 494.382287 166.215886 
L 495.029571 178.586753 
L 495.675883 178.102303 
L 496.326734 176.254902 
L 496.970777 308.356854 
L 497.621951 178.551984 
L 498.922031 140.723136 
L 499.564453 141.258581 
L 500.869395 130.519546 
L 501.5183 127.320784 
L 502.169474 130.150993 
L 502.820324 109.991833 
L 503.465664 113.132648 
L 504.11619 125.624048 
L 504.764123 119.824552 
L 505.415621 174.59989 
L 506.06874 335.152288 
L 506.72348 358.602929 
L 507.368171 335.455939 
L 508.020318 353.807102 
L 508.675706 348.452651 
L 509.326556 348.130457 
L 509.973192 192.962643 
L 510.625014 165.745343 
L 511.27554 161.447875 
L 511.926715 121.410026 
L 512.578861 128.380084 
L 513.231008 127.339327 
L 513.879589 120.276551 
L 514.525253 148.247183 
L 515.176751 218.643145 
L 515.828898 164.291992 
L 516.478775 150.393599 
L 517.123467 123.0859 
L 517.775289 146.573627 
L 518.424843 151.615156 
L 519.078286 130.378152 
L 519.733998 138.989314 
L 520.385496 206.070617 
L 521.037643 207.190184 
L 521.6859 208.527637 
L 522.335777 209.02136 
L 522.985979 143.347049 
L 523.636829 149.656493 
L 524.287679 127.195615 
L 524.94015 207.23886 
L 525.583869 203.567237 
L 526.235692 331.881669 
L 526.887838 358.072119 
L 527.541605 354.831634 
L 528.18889 348.387749 
L 528.836175 343.072703 
L 529.488969 355.380986 
L 530.137875 178.512579 
L 530.79229 147.027944 
L 531.440547 138.555859 
L 532.098204 148.548516 
L 533.398283 175.619785 
L 534.046865 166.401321 
L 534.694797 144.63119 
L 535.348565 166.025814 
L 535.99358 171.551793 
L 536.647023 188.818159 
L 537.951641 140.431075 
L 538.595684 130.494049 
L 539.248479 136.483617 
L 539.900301 145.254717 
L 540.555365 133.989509 
L 541.20816 140.375445 
L 541.854148 138.168762 
L 542.509536 134.94682 
L 543.163627 130.29007 
L 543.807995 134.154083 
L 544.459169 134.524954 
L 545.111964 136.859124 
L 545.758276 146.761381 
L 546.413664 132.92789 
L 547.061272 132.60106 
L 547.710826 128.094977 
L 548.358111 125.992602 
L 549.006692 142.113903 
L 549.653004 127.04263 
L 550.304178 135.744192 
L 550.951139 133.637181 
L 551.598747 138.759838 
L 552.254459 135.470675 
L 552.904661 151.320777 
L 553.561994 149.401519 
L 554.206037 136.979657 
L 554.859156 135.581936 
L 555.512275 135.461403 
L 556.157939 135.665382 
L 556.808789 136.337586 
L 557.454453 127.434363 
L 558.110165 129.469518 
L 560.05915 126.919779 
L 560.703517 127.897952 
L 561.35145 138.623079 
L 562.004245 135.044173 
L 562.655743 146.617668 
L 563.307566 134.040504 
L 564.615748 128.011531 
L 565.266598 133.588504 
L 565.917124 128.957252 
L 566.572836 128.871488 
L 567.225307 133.829571 
L 567.874212 140.127425 
L 569.166837 126.532683 
L 569.821252 139.054217 
L 570.472102 142.157944 
L 571.130407 140.961885 
L 571.781581 185.176668 
L 572.434376 145.393794 
L 573.087819 157.254714 
L 573.739318 150.050543 
L 574.386278 129.177457 
L 575.033563 151.983709 
L 575.68733 327.016304 
L 576.333318 153.444014 
L 576.987733 143.583479 
L 577.636963 186.078349 
L 578.287489 117.770854 
L 578.938015 117.355942 
L 579.590809 126.789974 
L 580.250735 169.523592 
L 580.891861 161.255485 
L 581.538498 201.235385 
L 582.189996 200.586361 
L 582.838577 211.680041 
L 583.484889 199.682363 
L 584.139953 199.712496 
L 584.789507 198.750549 
L 585.444246 204.318251 
L 586.094124 205.212977 
L 586.742381 203.669227 
L 587.388369 203.833801 
L 588.039867 205.041449 
L 588.695255 174.386639 
L 589.352912 149.751529 
L 590.000196 169.321931 
L 590.646509 247.334658 
L 591.294442 203.894067 
L 591.94205 202.000307 
L 592.589659 324.487427 
L 593.243102 200.375428 
L 593.897194 301.456335 
L 594.541237 176.419476 
L 595.192735 167.11293 
L 595.838075 122.921326 
L 596.48698 116.092662 
L 597.136534 117.979469 
L 597.78706 125.911474 
L 598.438882 125.494244 
L 599.085843 124.64124 
L 599.734748 129.756943 
L 600.377171 130.440736 
L 601.030614 121.324262 
L 601.678223 121.579236 
L 602.327452 131.933492 
L 602.974088 130.463916 
L 603.626235 132.415625 
L 604.279354 254.362664 
L 604.927287 332.414796 
L 605.577488 202.929802 
L 606.223801 195.218002 
L 606.877892 148.886936 
L 607.525825 122.56668 
L 608.182185 141.323484 
L 608.826553 125.276357 
L 609.478375 137.243902 
L 610.130197 145.173589 
L 610.777482 144.285816 
L 611.432546 206.003396 
L 612.083396 206.471621 
L 613.380882 203.472201 
L 614.027519 207.271312 
L 614.676424 206.710369 
L 615.330839 206.786861 
L 615.980393 207.561055 
L 616.630271 207.438204 
L 617.282417 208.124315 
L 617.937805 206.870307 
L 619.236912 207.26204 
L 619.885493 206.487847 
L 620.53926 207.266676 
L 621.192703 151.626745 
L 621.837395 150.217435 
L 622.484356 152.648959 
L 623.132937 146.079905 
L 623.783463 135.695516 
L 624.433016 135.007086 
L 625.090349 202.841721 
L 625.741199 205.196752 
L 626.394318 215.759623 
L 627.039333 201.191344 
L 627.688563 319.105161 
L 628.336496 339.667643 
L 628.98767 178.677153 
L 629.640141 175.999928 
L 630.287749 144.911661 
L 630.934062 134.958409 
L 631.581346 138.268434 
L 632.237058 137.389933 
L 632.890825 139.842318 
L 633.539082 150.113128 
L 634.187988 165.833425 
L 634.83819 136.381627 
L 635.488715 129.14037 
L 636.134704 128.333725 
L 636.788471 136.845216 
L 637.43608 132.515296 
L 638.090171 123.769693 
L 638.741345 135.148481 
L 639.392519 123.394186 
L 640.040452 120.811997 
L 640.689357 128.973478 
L 641.341828 132.779542 
L 641.989761 109.412347 
L 642.640935 121.488836 
L 643.294702 110.643176 
L 643.940366 114.743619 
L 644.592513 117.858936 
L 645.241742 115.478407 
L 645.889027 122.267665 
L 646.541173 130.378152 
L 647.191375 122.752116 
L 647.842225 170.218975 
L 648.48951 121.289493 
L 649.139063 120.846766 
L 649.785052 114.852562 
L 650.429743 118.702667 
L 651.084483 125.524377 
L 651.733388 115.144623 
L 652.386507 208.103454 
L 653.040274 202.978479 
L 653.688207 160.110421 
L 654.334843 147.918035 
L 654.989259 149.909149 
L 656.290959 133.734535 
L 656.944402 130.53809 
L 657.594604 126.106181 
L 658.249019 149.019058 
L 658.902138 125.672725 
L 659.549099 130.271526 
L 660.203838 130.494049 
L 660.850475 183.980609 
L 661.496463 129.191364 
L 662.147313 142.966906 
L 662.797839 142.011913 
L 663.444151 121.706723 
L 664.095973 125.568418 
L 664.751685 128.595653 
L 665.400915 119.235795 
L 666.050468 135.41968 
L 666.704236 138.676392 
L 667.352493 131.513944 
L 668.000101 130.691074 
L 668.646738 131.059627 
L 669.945521 135.76969 
L 670.597019 130.487095 
L 671.248517 147.034898 
L 671.90034 138.827058 
L 672.547948 134.562041 
L 673.198474 120.726233 
L 673.845759 118.33875 
L 674.502443 112.740915 
L 675.14908 125.2949 
L 675.799281 128.871488 
L 676.445918 134.93523 
L 677.09774 125.714448 
L 677.747942 126.161812 
L 678.39393 132.311317 
L 679.046077 117.845028 
L 679.700168 132.098066 
L 680.349073 136.611104 
L 681.002516 132.102702 
L 681.649153 150.720429 
L 682.295789 135.199476 
L 682.945991 135.289875 
L 683.597489 159.157746 
L 684.247043 133.34512 
L 684.892383 69.172838 
L 685.542584 125.08165 
L 686.187276 133.556053 
L 686.839747 127.292968 
L 687.484114 143.551028 
L 688.141447 124.863763 
L 688.787759 135.753464 
L 689.434395 127.647614 
L 690.082977 132.696096 
L 690.727992 121.98024 
L 691.379815 169.549089 
L 692.033906 135.637567 
L 692.681515 135.818367 
L 693.332041 142.21821 
L 693.989373 134.85642 
L 694.636982 132.603378 
L 695.291073 161.440921 
L 695.938034 132.485163 
L 696.590829 147.215698 
L 697.238438 126.954548 
L 697.891556 130.487095 
L 698.542407 125.364439 
L 699.191636 126.335657 
L 699.841838 92.741693 
L 700.490095 124.710779 
L 701.137703 144.672913 
L 701.786933 130.964592 
L 703.088957 135.554121 
L 703.734945 140.083384 
L 704.382878 135.28524 
L 705.036321 141.189043 
L 705.680365 139.239652 
L 706.331215 136.325996 
L 706.975582 129.20759 
L 707.628701 92.062536 
L 708.273393 120.958027 
L 708.926187 109.111015 
L 709.5725 117.66191 
L 710.218488 132.343768 
L 710.867393 124.99125 
L 711.516622 122.075276 
L 712.167797 134.534226 
L 712.818323 136.455801 
L 713.473062 151.021762 
L 714.125533 147.030262 
L 714.776383 158.847141 
L 715.421399 125.283311 
L 716.069007 115.877094 
L 716.72083 116.767184 
L 717.372976 118.389745 
L 718.018316 109.72527 
L 718.671111 131.836139 
L 719.31872 130.099999 
L 719.966653 136.780313 
L 720.624309 134.541179 
L 721.272242 133.780894 
L 722.57848 128.266505 
L 723.224144 129.279446 
L 723.874022 129.548328 
L 724.529086 122.538865 
L 725.179936 129.956286 
L 725.830461 147.6422 
L 726.48358 142.259933 
L 727.129244 125.596233 
L 727.781067 124.474348 
L 728.431593 138.493274 
L 729.075636 133.994145 
L 729.729727 132.302045 
L 730.376688 122.40906 
L 731.027862 128.669827 
L 731.679036 129.411569 
L 732.325349 131.548714 
L 732.980088 131.458314 
L 734.277899 136.462755 
L 734.936204 140.75327 
L 735.584785 127.158527 
L 736.240821 134.601446 
L 736.896533 135.454449 
L 737.541873 142.137082 
L 738.193695 134.066001 
L 738.841952 132.130518 
L 739.489237 132.760998 
L 740.137818 129.615548 
L 740.78964 135.296829 
L 742.094906 133.989509 
L 742.745756 133.945468 
L 743.395634 134.705753 
L 744.053939 134.392831 
L 744.697982 134.314021 
L 745.348832 133.104054 
L 746.002275 136.015392 
L 746.655718 136.080294 
L 747.305272 138.681028 
L 747.959687 138.449233 
L 748.610213 145.231538 
L 749.26398 137.422384 
L 749.915154 139.680062 
L 750.56568 150.502543 
L 751.212641 140.848305 
L 751.866084 135.943536 
L 752.515313 136.539247 
L 753.16195 135.452131 
L 753.811503 131.490765 
L 754.45976 134.184216 
L 755.107369 135.185568 
L 755.753033 134.230575 
L 756.403235 130.983135 
L 757.058298 131.843093 
L 757.704935 131.952036 
L 758.351571 132.818947 
L 759.002421 130.361926 
L 759.652623 131.567257 
L 760.309632 60.941818 
L 760.962426 126.560498 
L 762.255699 129.78244 
L 762.907846 128.516843 
L 763.553185 127.566486 
L 764.20436 129.671179 
L 764.85132 130.443054 
L 765.499253 129.942378 
L 766.144917 105.566878 
L 766.796739 134.37197 
L 767.441755 151.935032 
L 768.095522 202.686418 
L 768.749938 213.845001 
L 769.394629 201.803282 
L 770.047748 330.94522 
L 770.704109 348.438744 
L 771.3582 348.816569 
L 772.003864 351.016298 
L 772.6505 350.930534 
L 773.302323 338.005677 
L 773.949607 329.211397 
L 774.595271 332.553873 
L 775.244825 324.626504 
L 775.898592 340.942512 
L 776.547173 178.56821 
L 777.19381 141.437063 
L 777.838177 147.208744 
L 778.490972 182.399771 
L 779.145387 192.904694 
L 779.790079 163.019441 
L 780.439308 186.331005 
L 781.088214 160.553148 
L 781.73874 184.244855 
L 782.395424 172.838252 
L 783.04757 156.093424 
L 783.6968 157.706713 
L 784.341816 174.305511 
L 784.993314 154.025818 
L 785.642219 162.407504 
L 786.287235 151.626745 
L 786.942947 152.451934 
L 787.596066 160.754809 
L 788.24335 159.271325 
L 788.898414 185.649529 
L 789.546023 191.935793 
L 790.194604 154.436094 
L 790.843509 170.302421 
L 791.495656 144.886164 
L 792.142941 184.789572 
L 792.795411 161.981002 
L 793.441723 157.053053 
L 794.086091 196.467374 
L 794.738562 187.663823 
L 795.387791 169.352064 
L 796.033131 210.534977 
L 796.679119 199.788988 
L 797.325431 201.399959 
L 797.973688 333.047595 
L 798.621945 334.329418 
L 799.269554 327.454396 
L 799.922349 344.732351 
L 800.569309 347.581104 
L 801.213353 348.077144 
L 801.866472 356.495917 
L 802.515377 324.902339 
L 803.16493 204.350702 
L 803.808001 204.559317 
L 804.458527 325.525866 
L 805.105488 150.759834 
L 805.761524 160.441887 
L 806.407836 149.621724 
L 807.70273 114.041282 
L 808.351311 115.0125 
L 809.005726 123.111397 
L 809.652687 128.023121 
L 810.306778 125.114101 
L 810.953739 124.90085 
L 811.605561 136.288909 
L 812.261597 129.796348 
L 812.905965 115.594304 
L 813.555194 124.56243 
L 814.204099 125.039927 
L 814.852356 115.36251 
L 815.506448 206.490165 
L 816.156325 209.867409 
L 816.806851 202.524162 
L 817.457377 202.405947 
L 818.104338 142.663256 
L 818.753243 153.205265 
L 819.399879 129.135734 
L 820.049757 127.295286 
L 820.695745 127.728742 
L 821.343678 205.855048 
L 821.995176 208.831288 
L 822.639868 200.706894 
L 823.293959 330.887271 
L 823.947402 144.48516 
L 824.596307 179.773541 
L 825.243268 141.089372 
L 825.896387 120.137475 
L 826.550478 123.38955 
L 827.204894 127.666157 
L 827.852502 131.099032 
L 828.503677 126.395924 
L 829.153878 131.557985 
L 829.80246 141.562232 
L 830.460765 158.042815 
L 831.105456 145.226902 
L 831.750796 136.536929 
L 832.40748 138.481684 
L 833.05671 141.179771 
L 833.701725 194.582886 
L 834.348686 133.349756 
L 835.002453 143.238106 
L 835.650386 138.551223 
L 836.305774 122.754434 
L 836.9563 124.699189 
L 837.601964 112.286598 
L 838.257028 114.991639 
L 839.559052 111.294518 
L 840.204716 110.128592 
L 840.856538 109.73686 
L 841.508685 109.750767 
L 842.152404 109.639506 
L 842.803254 109.811034 
L 843.454428 110.747483 
L 844.099768 121.757718 
L 845.402765 153.193676 
L 846.050697 137.287943 
L 846.702844 133.630227 
L 847.345591 133.662679 
L 847.994172 135.218019 
L 848.645022 138.676392 
L 849.295224 139.302237 
L 849.949315 141.578458 
L 850.59822 146.223618 
L 851.248746 136.418714 
L 851.904782 115.784376 
L 852.554012 108.761005 
L 853.2 338.772917 
L 853.2 338.772917 
" clip-path="url(#pb70e6c727d)" style="fill: none; stroke: #3498db; stroke-width: 2; stroke-linecap: square"/>
   </g>
   <g id="patch_3">
    <path d="M 53.75 387.16 
L 53.75 28.32 
" style="fill: none; stroke: #000000; stroke-width: 0.8; stroke-linejoin: miter; stroke-linecap: square"/>
   </g>
   <g id="patch_4">
    <path d="M 853.2 387.16 
L 853.2 28.32 
" style="fill: none; stroke: #000000; stroke-width: 0.8; stroke-linejoin: miter; stroke-linecap: square"/>
   </g>
   <g id="patch_5">
    <path d="M 53.75 387.16 
L 853.2 387.16 
" style="fill: none; stroke: #000000; stroke-width: 0.8; stroke-linejoin: miter; stroke-linecap: square"/>
   </g>
   <g id="patch_6">
    <path d="M 53.75 28.32 
L 853.2 28.32 
" style="fill: none; stroke: #000000; stroke-width: 0.8; stroke-linejoin: miter; stroke-linecap: square"/>
   </g>
   <g id="text_20">
    <!-- GPU power over time -->
    <g transform="translate(357.7975 22.32) scale(0.16 -0.16)">
     <defs>
      <path id="DejaVuSans-Bold-47" d="M 4781 347 
Q 4331 128 3847 18 
Q 3363 -91 2847 -91 
Q 1681 -91 1000 561 
Q 319 1213 319 2328 
Q 319 3456 1012 4103 
Q 1706 4750 2913 4750 
Q 3378 4750 3804 4662 
Q 4231 4575 4609 4403 
L 4609 3438 
Q 4219 3659 3833 3768 
Q 3447 3878 3059 3878 
Q 2341 3878 1952 3476 
Q 1563 3075 1563 2328 
Q 1563 1588 1938 1184 
Q 2313 781 3003 781 
Q 3191 781 3352 804 
Q 3513 828 3641 878 
L 3641 1784 
L 2906 1784 
L 2906 2591 
L 4781 2591 
L 4781 347 
z
" transform="scale(0.015625)"/>
      <path id="DejaVuSans-Bold-50" d="M 588 4666 
L 2584 4666 
Q 3475 4666 3951 4270 
Q 4428 3875 4428 3144 
Q 4428 2409 3951 2014 
Q 3475 1619 2584 1619 
L 1791 1619 
L 1791 0 
L 588 0 
L 588 4666 
z
M 1791 3794 
L 1791 2491 
L 2456 2491 
Q 2806 2491 2997 2661 
Q 3188 2831 3188 3144 
Q 3188 3456 2997 3625 
Q 2806 3794 2456 3794 
L 1791 3794 
z
" transform="scale(0.015625)"/>
      <path id="DejaVuSans-Bold-55" d="M 588 4666 
L 1791 4666 
L 1791 1869 
Q 1791 1291 1980 1042 
Q 2169 794 2597 794 
Q 3028 794 3217 1042 
Q 3406 1291 3406 1869 
L 3406 4666 
L 4609 4666 
L 4609 1869 
Q 4609 878 4112 393 
Q 3616 -91 2597 -91 
Q 1581 -91 1084 393 
Q 588 878 588 1869 
L 588 4666 
z
" transform="scale(0.015625)"/>
      <path id="DejaVuSans-Bold-20" transform="scale(0.015625)"/>
      <path id="DejaVuSans-Bold-70" d="M 1656 506 
L 1656 -1331 
L 538 -1331 
L 538 3500 
L 1656 3500 
L 1656 2988 
Q 1888 3294 2169 3439 
Q 2450 3584 2816 3584 
Q 3463 3584 3878 3070 
Q 4294 2556 4294 1747 
Q 4294 938 3878 423 
Q 3463 -91 2816 -91 
Q 2450 -91 2169 54 
Q 1888 200 1656 506 
z
M 2400 2772 
Q 2041 2772 1848 2508 
Q 1656 2244 1656 1747 
Q 1656 1250 1848 986 
Q 2041 722 2400 722 
Q 2759 722 2948 984 
Q 3138 1247 3138 1747 
Q 3138 2247 2948 2509 
Q 2759 2772 2400 2772 
z
" transform="scale(0.015625)"/>
      <path id="DejaVuSans-Bold-6f" d="M 2203 2784 
Q 1831 2784 1636 2517 
Q 1441 2250 1441 1747 
Q 1441 1244 1636 976 
Q 1831 709 2203 709 
Q 2569 709 2762 976 
Q 2956 1244 2956 1747 
Q 2956 2250 2762 2517 
Q 2569 2784 2203 2784 
z
M 2203 3584 
Q 3106 3584 3614 3096 
Q 4122 2609 4122 1747 
Q 4122 884 3614 396 
Q 3106 -91 2203 -91 
Q 1297 -91 786 396 
Q 275 884 275 1747 
Q 275 2609 786 3096 
Q 1297 3584 2203 3584 
z
" transform="scale(0.015625)"/>
      <path id="DejaVuSans-Bold-77" d="M 225 3500 
L 1313 3500 
L 1900 1088 
L 2491 3500 
L 3425 3500 
L 4013 1113 
L 4603 3500 
L 5691 3500 
L 4769 0 
L 3547 0 
L 2956 2406 
L 2369 0 
L 1147 0 
L 225 3500 
z
" transform="scale(0.015625)"/>
      <path id="DejaVuSans-Bold-65" d="M 4031 1759 
L 4031 1441 
L 1416 1441 
Q 1456 1047 1700 850 
Q 1944 653 2381 653 
Q 2734 653 3104 758 
Q 3475 863 3866 1075 
L 3866 213 
Q 3469 63 3072 -14 
Q 2675 -91 2278 -91 
Q 1328 -91 801 392 
Q 275 875 275 1747 
Q 275 2603 792 3093 
Q 1309 3584 2216 3584 
Q 3041 3584 3536 3087 
Q 4031 2591 4031 1759 
z
M 2881 2131 
Q 2881 2450 2695 2645 
Q 2509 2841 2209 2841 
Q 1884 2841 1681 2658 
Q 1478 2475 1428 2131 
L 2881 2131 
z
" transform="scale(0.015625)"/>
      <path id="DejaVuSans-Bold-72" d="M 3138 2547 
Q 2991 2616 2845 2648 
Q 2700 2681 2553 2681 
Q 2122 2681 1889 2404 
Q 1656 2128 1656 1613 
L 1656 0 
L 538 0 
L 538 3500 
L 1656 3500 
L 1656 2925 
Q 1872 3269 2151 3426 
Q 2431 3584 2822 3584 
Q 2878 3584 2943 3579 
Q 3009 3575 3134 3559 
L 3138 2547 
z
" transform="scale(0.015625)"/>
      <path id="DejaVuSans-Bold-76" d="M 97 3500 
L 1216 3500 
L 2088 1081 
L 2956 3500 
L 4078 3500 
L 2700 0 
L 1472 0 
L 97 3500 
z
" transform="scale(0.015625)"/>
      <path id="DejaVuSans-Bold-74" d="M 1759 4494 
L 1759 3500 
L 2913 3500 
L 2913 2700 
L 1759 2700 
L 1759 1216 
Q 1759 972 1856 886 
Q 1953 800 2241 800 
L 2816 800 
L 2816 0 
L 1856 0 
Q 1194 0 917 276 
Q 641 553 641 1216 
L 641 2700 
L 84 2700 
L 84 3500 
L 641 3500 
L 641 4494 
L 1759 4494 
z
" transform="scale(0.015625)"/>
      <path id="DejaVuSans-Bold-69" d="M 538 3500 
L 1656 3500 
L 1656 0 
L 538 0 
L 538 3500 
z
M 538 4863 
L 1656 4863 
L 1656 3950 
L 538 3950 
L 538 4863 
z
" transform="scale(0.015625)"/>
      <path id="DejaVuSans-Bold-6d" d="M 3781 2919 
Q 3994 3244 4286 3414 
Q 4578 3584 4928 3584 
Q 5531 3584 5847 3212 
Q 6163 2841 6163 2131 
L 6163 0 
L 5038 0 
L 5038 1825 
Q 5041 1866 5042 1909 
Q 5044 1953 5044 2034 
Q 5044 2406 4934 2573 
Q 4825 2741 4581 2741 
Q 4263 2741 4089 2478 
Q 3916 2216 3909 1719 
L 3909 0 
L 2784 0 
L 2784 1825 
Q 2784 2406 2684 2573 
Q 2584 2741 2328 2741 
Q 2006 2741 1831 2477 
Q 1656 2213 1656 1722 
L 1656 0 
L 531 0 
L 531 3500 
L 1656 3500 
L 1656 2988 
Q 1863 3284 2130 3434 
Q 2397 3584 2719 3584 
Q 3081 3584 3359 3409 
Q 3638 3234 3781 2919 
z
" transform="scale(0.015625)"/>
     </defs>
     <use xlink:href="#DejaVuSans-Bold-47"/>
     <use xlink:href="#DejaVuSans-Bold-50" x="82.080078"/>
     <use xlink:href="#DejaVuSans-Bold-55" x="155.371094"/>
     <use xlink:href="#DejaVuSans-Bold-20" x="236.572266"/>
     <use xlink:href="#DejaVuSans-Bold-70" x="271.386719"/>
     <use xlink:href="#DejaVuSans-Bold-6f" x="342.96875"/>
     <use xlink:href="#DejaVuSans-Bold-77" x="411.669922"/>
     <use xlink:href="#DejaVuSans-Bold-65" x="504.052734"/>
     <use xlink:href="#DejaVuSans-Bold-72" x="571.875"/>
     <use xlink:href="#DejaVuSans-Bold-20" x="621.191406"/>
     <use xlink:href="#DejaVuSans-Bold-6f" x="656.005859"/>
     <use xlink:href="#DejaVuSans-Bold-76" x="724.707031"/>
     <use xlink:href="#DejaVuSans-Bold-65" x="789.892578"/>
     <use xlink:href="#DejaVuSans-Bold-72" x="857.714844"/>
     <use xlink:href="#DejaVuSans-Bold-20" x="907.03125"/>
     <use xlink:href="#DejaVuSans-Bold-74" x="941.845703"/>
     <use xlink:href="#DejaVuSans-Bold-69" x="989.648438"/>
     <use xlink:href="#DejaVuSans-Bold-6d" x="1023.925781"/>
     <use xlink:href="#DejaVuSans-Bold-65" x="1128.125"/>
    </g>
   </g>
   <g id="legend_1">
    <g id="patch_7">
     <path d="M 687.751563 82.354375 
L 848.2 82.354375 
Q 850.2 82.354375 850.2 80.354375 
L 850.2 37.32 
Q 850.2 35.32 848.2 35.32 
L 687.751563 35.32 
Q 685.751563 35.32 685.751563 37.32 
L 685.751563 80.354375 
Q 685.751563 82.354375 687.751563 82.354375 
z
" style="fill: #4d4d4d; opacity: 0.5; stroke: #4d4d4d; stroke-linejoin: miter"/>
    </g>
    <g id="patch_8">
     <path d="M 685.751563 80.354375 
L 846.2 80.354375 
Q 848.2 80.354375 848.2 78.354375 
L 848.2 35.32 
Q 848.2 33.32 846.2 33.32 
L 685.751563 33.32 
Q 683.751563 33.32 683.751563 35.32 
L 683.751563 78.354375 
Q 683.751563 80.354375 685.751563 80.354375 
z
" style="fill: #ffffff; stroke: #cccccc; stroke-linejoin: miter"/>
    </g>
    <g id="line2d_20">
     <path d="M 687.751563 41.418437 
L 697.751563 41.418437 
L 707.751563 41.418437 
" style="fill: none; stroke: #e74c3c; stroke-width: 2; stroke-linecap: square"/>
    </g>
    <g id="text_21">
     <!-- GPU power (W) - Summer -->
     <g transform="translate(715.751563 44.918437) scale(0.1 -0.1)">
      <defs>
       <path id="DejaVuSans-47" d="M 3809 666 
L 3809 1919 
L 2778 1919 
L 2778 2438 
L 4434 2438 
L 4434 434 
Q 4069 175 3628 42 
Q 3188 -91 2688 -91 
Q 1594 -91 976 548 
Q 359 1188 359 2328 
Q 359 3472 976 4111 
Q 1594 4750 2688 4750 
Q 3144 4750 3555 4637 
Q 3966 4525 4313 4306 
L 4313 3634 
Q 3963 3931 3569 4081 
Q 3175 4231 2741 4231 
Q 1884 4231 1454 3753 
Q 1025 3275 1025 2328 
Q 1025 1384 1454 906 
Q 1884 428 2741 428 
Q 3075 428 3337 486 
Q 3600 544 3809 666 
z
" transform="scale(0.015625)"/>
       <path id="DejaVuSans-55" d="M 556 4666 
L 1191 4666 
L 1191 1831 
Q 1191 1081 1462 751 
Q 1734 422 2344 422 
Q 2950 422 3222 751 
Q 3494 1081 3494 1831 
L 3494 4666 
L 4128 4666 
L 4128 1753 
Q 4128 841 3676 375 
Q 3225 -91 2344 -91 
Q 1459 -91 1007 375 
Q 556 841 556 1753 
L 556 4666 
z
" transform="scale(0.015625)"/>
       <path id="DejaVuSans-70" d="M 1159 525 
L 1159 -1331 
L 581 -1331 
L 581 3500 
L 1159 3500 
L 1159 2969 
Q 1341 3281 1617 3432 
Q 1894 3584 2278 3584 
Q 2916 3584 3314 3078 
Q 3713 2572 3713 1747 
Q 3713 922 3314 415 
Q 2916 -91 2278 -91 
Q 1894 -91 1617 61 
Q 1341 213 1159 525 
z
M 3116 1747 
Q 3116 2381 2855 2742 
Q 2594 3103 2138 3103 
Q 1681 3103 1420 2742 
Q 1159 2381 1159 1747 
Q 1159 1113 1420 752 
Q 1681 391 2138 391 
Q 2594 391 2855 752 
Q 3116 1113 3116 1747 
z
" transform="scale(0.015625)"/>
       <path id="DejaVuSans-2d" d="M 313 2009 
L 1997 2009 
L 1997 1497 
L 313 1497 
L 313 2009 
z
" transform="scale(0.015625)"/>
       <path id="DejaVuSans-53" d="M 3425 4513 
L 3425 3897 
Q 3066 4069 2747 4153 
Q 2428 4238 2131 4238 
Q 1616 4238 1336 4038 
Q 1056 3838 1056 3469 
Q 1056 3159 1242 3001 
Q 1428 2844 1947 2747 
L 2328 2669 
Q 3034 2534 3370 2195 
Q 3706 1856 3706 1288 
Q 3706 609 3251 259 
Q 2797 -91 1919 -91 
Q 1588 -91 1214 -16 
Q 841 59 441 206 
L 441 856 
Q 825 641 1194 531 
Q 1563 422 1919 422 
Q 2459 422 2753 634 
Q 3047 847 3047 1241 
Q 3047 1584 2836 1778 
Q 2625 1972 2144 2069 
L 1759 2144 
Q 1053 2284 737 2584 
Q 422 2884 422 3419 
Q 422 4038 858 4394 
Q 1294 4750 2059 4750 
Q 2388 4750 2728 4690 
Q 3069 4631 3425 4513 
z
" transform="scale(0.015625)"/>
       <path id="DejaVuSans-6d" d="M 3328 2828 
Q 3544 3216 3844 3400 
Q 4144 3584 4550 3584 
Q 5097 3584 5394 3201 
Q 5691 2819 5691 2113 
L 5691 0 
L 5113 0 
L 5113 2094 
Q 5113 2597 4934 2840 
Q 4756 3084 4391 3084 
Q 3944 3084 3684 2787 
Q 3425 2491 3425 1978 
L 3425 0 
L 2847 0 
L 2847 2094 
Q 2847 2600 2669 2842 
Q 2491 3084 2119 3084 
Q 1678 3084 1418 2786 
Q 1159 2488 1159 1978 
L 1159 0 
L 581 0 
L 581 3500 
L 1159 3500 
L 1159 2956 
Q 1356 3278 1631 3431 
Q 1906 3584 2284 3584 
Q 2666 3584 2933 3390 
Q 3200 3197 3328 2828 
z
" transform="scale(0.015625)"/>
      </defs>
      <use xlink:href="#DejaVuSans-47"/>
      <use xlink:href="#DejaVuSans-50" x="77.490234"/>
      <use xlink:href="#DejaVuSans-55" x="137.792969"/>
      <use xlink:href="#DejaVuSans-20" x="210.986328"/>
      <use xlink:href="#DejaVuSans-70" x="242.773438"/>
      <use xlink:href="#DejaVuSans-6f" x="306.25"/>
      <use xlink:href="#DejaVuSans-77" x="367.431641"/>
      <use xlink:href="#DejaVuSans-65" x="449.21875"/>
      <use xlink:href="#DejaVuSans-72" x="510.742188"/>
      <use xlink:href="#DejaVuSans-20" x="551.855469"/>
      <use xlink:href="#DejaVuSans-28" x="583.642578"/>
      <use xlink:href="#DejaVuSans-57" x="622.65625"/>
      <use xlink:href="#DejaVuSans-29" x="721.533203"/>
      <use xlink:href="#DejaVuSans-20" x="760.546875"/>
      <use xlink:href="#DejaVuSans-2d" x="792.333984"/>
      <use xlink:href="#DejaVuSans-20" x="828.417969"/>
      <use xlink:href="#DejaVuSans-53" x="860.205078"/>
      <use xlink:href="#DejaVuSans-75" x="923.681641"/>
      <use xlink:href="#DejaVuSans-6d" x="987.060547"/>
      <use xlink:href="#DejaVuSans-6d" x="1084.472656"/>
      <use xlink:href="#DejaVuSans-65" x="1181.884766"/>
      <use xlink:href="#DejaVuSans-72" x="1243.408203"/>
     </g>
    </g>
    <g id="line2d_21">
     <path d="M 687.751563 56.096563 
L 697.751563 56.096563 
L 707.751563 56.096563 
" style="fill: none; stroke: #3498db; stroke-width: 2; stroke-linecap: square"/>
    </g>
    <g id="text_22">
     <!-- GPU power (W) - Spring -->
     <g transform="translate(715.751563 59.596563) scale(0.1 -0.1)">
      <defs>
       <path id="DejaVuSans-67" d="M 2906 1791 
Q 2906 2416 2648 2759 
Q 2391 3103 1925 3103 
Q 1463 3103 1205 2759 
Q 947 2416 947 1791 
Q 947 1169 1205 825 
Q 1463 481 1925 481 
Q 2391 481 2648 825 
Q 2906 1169 2906 1791 
z
M 3481 434 
Q 3481 -459 3084 -895 
Q 2688 -1331 1869 -1331 
Q 1566 -1331 1297 -1286 
Q 1028 -1241 775 -1147 
L 775 -588 
Q 1028 -725 1275 -790 
Q 1522 -856 1778 -856 
Q 2344 -856 2625 -561 
Q 2906 -266 2906 331 
L 2906 616 
Q 2728 306 2450 153 
Q 2172 0 1784 0 
Q 1141 0 747 490 
Q 353 981 353 1791 
Q 353 2603 747 3093 
Q 1141 3584 1784 3584 
Q 2172 3584 2450 3431 
Q 2728 3278 2906 2969 
L 2906 3500 
L 3481 3500 
L 3481 434 
z
" transform="scale(0.015625)"/>
      </defs>
      <use xlink:href="#DejaVuSans-47"/>
      <use xlink:href="#DejaVuSans-50" x="77.490234"/>
      <use xlink:href="#DejaVuSans-55" x="137.792969"/>
      <use xlink:href="#DejaVuSans-20" x="210.986328"/>
      <use xlink:href="#DejaVuSans-70" x="242.773438"/>
      <use xlink:href="#DejaVuSans-6f" x="306.25"/>
      <use xlink:href="#DejaVuSans-77" x="367.431641"/>
      <use xlink:href="#DejaVuSans-65" x="449.21875"/>
      <use xlink:href="#DejaVuSans-72" x="510.742188"/>
      <use xlink:href="#DejaVuSans-20" x="551.855469"/>
      <use xlink:href="#DejaVuSans-28" x="583.642578"/>
      <use xlink:href="#DejaVuSans-57" x="622.65625"/>
      <use xlink:href="#DejaVuSans-29" x="721.533203"/>
      <use xlink:href="#DejaVuSans-20" x="760.546875"/>
      <use xlink:href="#DejaVuSans-2d" x="792.333984"/>
      <use xlink:href="#DejaVuSans-20" x="828.417969"/>
      <use xlink:href="#DejaVuSans-53" x="860.205078"/>
      <use xlink:href="#DejaVuSans-70" x="923.681641"/>
      <use xlink:href="#DejaVuSans-72" x="987.158203"/>
      <use xlink:href="#DejaVuSans-69" x="1028.271484"/>
      <use xlink:href="#DejaVuSans-6e" x="1056.054688"/>
      <use xlink:href="#DejaVuSans-67" x="1119.433594"/>
     </g>
    </g>
    <g id="line2d_22">
     <path d="M 687.751563 70.774687 
L 697.751563 70.774687 
L 707.751563 70.774687 
" style="fill: none; stroke-dasharray: 7.4,3.2; stroke-dashoffset: 0; stroke: #000000; stroke-opacity: 0.9; stroke-width: 2"/>
    </g>
    <g id="text_23">
     <!-- Cooler on (5000 RPM) -->
     <g transform="translate(715.751563 74.274687) scale(0.1 -0.1)">
      <defs>
       <path id="DejaVuSans-43" d="M 4122 4306 
L 4122 3641 
Q 3803 3938 3442 4084 
Q 3081 4231 2675 4231 
Q 1875 4231 1450 3742 
Q 1025 3253 1025 2328 
Q 1025 1406 1450 917 
Q 1875 428 2675 428 
Q 3081 428 3442 575 
Q 3803 722 4122 1019 
L 4122 359 
Q 3791 134 3420 21 
Q 3050 -91 2638 -91 
Q 1578 -91 968 557 
Q 359 1206 359 2328 
Q 359 3453 968 4101 
Q 1578 4750 2638 4750 
Q 3056 4750 3426 4639 
Q 3797 4528 4122 4306 
z
" transform="scale(0.015625)"/>
       <path id="DejaVuSans-6c" d="M 603 4863 
L 1178 4863 
L 1178 0 
L 603 0 
L 603 4863 
z
" transform="scale(0.015625)"/>
       <path id="DejaVuSans-52" d="M 2841 2188 
Q 3044 2119 3236 1894 
Q 3428 1669 3622 1275 
L 4263 0 
L 3584 0 
L 2988 1197 
Q 2756 1666 2539 1819 
Q 2322 1972 1947 1972 
L 1259 1972 
L 1259 0 
L 628 0 
L 628 4666 
L 2053 4666 
Q 2853 4666 3247 4331 
Q 3641 3997 3641 3322 
Q 3641 2881 3436 2590 
Q 3231 2300 2841 2188 
z
M 1259 4147 
L 1259 2491 
L 2053 2491 
Q 2509 2491 2742 2702 
Q 2975 2913 2975 3322 
Q 2975 3731 2742 3939 
Q 2509 4147 2053 4147 
L 1259 4147 
z
" transform="scale(0.015625)"/>
      </defs>
      <use xlink:href="#DejaVuSans-43"/>
      <use xlink:href="#DejaVuSans-6f" x="69.824219"/>
      <use xlink:href="#DejaVuSans-6f" x="131.005859"/>
      <use xlink:href="#DejaVuSans-6c" x="192.1875"/>
      <use xlink:href="#DejaVuSans-65" x="219.970703"/>
      <use xlink:href="#DejaVuSans-72" x="281.494141"/>
      <use xlink:href="#DejaVuSans-20" x="322.607422"/>
      <use xlink:href="#DejaVuSans-6f" x="354.394531"/>
      <use xlink:href="#DejaVuSans-6e" x="415.576172"/>
      <use xlink:href="#DejaVuSans-20" x="478.955078"/>
      <use xlink:href="#DejaVuSans-28" x="510.742188"/>
      <use xlink:href="#DejaVuSans-35" x="549.755859"/>
      <use xlink:href="#DejaVuSans-30" x="613.378906"/>
      <use xlink:href="#DejaVuSans-30" x="677.001953"/>
      <use xlink:href="#DejaVuSans-30" x="740.625"/>
      <use xlink:href="#DejaVuSans-20" x="804.248047"/>
      <use xlink:href="#DejaVuSans-52" x="836.035156"/>
      <use xlink:href="#DejaVuSans-50" x="905.517578"/>
      <use xlink:href="#DejaVuSans-4d" x="965.820312"/>
      <use xlink:href="#DejaVuSans-29" x="1052.099609"/>
     </g>
    </g>
   </g>
   <g id="line2d_23">
    <path d="M 296.846381 387.16 
L 296.846381 28.32 
" clip-path="url(#pb70e6c727d)" style="fill: none; stroke-dasharray: 7.4,3.2; stroke-dashoffset: 0; stroke: #000000; stroke-opacity: 0.9; stroke-width: 2"/>
   </g>
  </g>
 </g>
 <defs>
  <clipPath id="pb70e6c727d">
   <rect x="53.75" y="28.32" width="799.45" height="358.84"/>
  </clipPath>
 </defs>
</svg>
