<?xml version="1.0" encoding="utf-8" standalone="no"?>
<!DOCTYPE svg PUBLIC "-//W3C//DTD SVG 1.1//EN"
  "http://www.w3.org/Graphics/SVG/1.1/DTD/svg11.dtd">
<svg xmlns:xlink="http://www.w3.org/1999/xlink" width="864pt" height="432pt" viewBox="0 0 864 432" xmlns="http://www.w3.org/2000/svg" version="1.1">
 <metadata>
  <rdf:RDF xmlns:dc="http://purl.org/dc/elements/1.1/" xmlns:cc="http://creativecommons.org/ns#" xmlns:rdf="http://www.w3.org/1999/02/22-rdf-syntax-ns#">
   <cc:Work>
    <dc:type rdf:resource="http://purl.org/dc/dcmitype/StillImage"/>
    <dc:date>2026-05-23T09:12:51.731389</dc:date>
    <dc:format>image/svg+xml</dc:format>
    <dc:creator>
     <cc:Agent>
      <dc:title>Matplotlib v3.9.2, https://matplotlib.org/</dc:title>
     </cc:Agent>
    </dc:creator>
   </cc:Work>
  </rdf:RDF>
 </metadata>
 <defs>
  <style type="text/css">*{stroke-linejoin: round; stroke-linecap: butt}</style>
 </defs>
 <g id="figure_1">
  <g id="patch_1">
   <path d="M 0 432 
L 864 432 
L 864 0 
L 0 0 
z
" style="fill: #ffffff"/>
  </g>
  <g id="axes_1">
   <g id="patch_2">
    <path d="M 60.05 387.16 
L 853.2 387.16 
L 853.2 28.32 
L 60.05 28.32 
z
" style="fill: #ffffff"/>
   </g>
   <g id="matplotlib.axis_1">
    <g id="xtick_1">
     <g id="line2d_1">
      <defs>
       <path id="m47817a702a" d="M 0 0 
L 0 3.5 
" style="stroke: #000000; stroke-width: 0.8"/>
      </defs>
      <g>
       <use xlink:href="#m47817a702a" x="60.05" y="387.16" style="stroke: #000000; stroke-width: 0.8"/>
      </g>
     </g>
     <g id="text_1">
      <!-- 0 -->
      <g transform="translate(56.86875 401.758438) scale(0.1 -0.1)">
       <defs>
        <path id="DejaVuSans-30" d="M 2034 4250 
Q 1547 4250 1301 3770 
Q 1056 3291 1056 2328 
Q 1056 1369 1301 889 
Q 1547 409 2034 409 
Q 2525 409 2770 889 
Q 3016 1369 3016 2328 
Q 3016 3291 2770 3770 
Q 2525 4250 2034 4250 
z
M 2034 4750 
Q 2819 4750 3233 4129 
Q 3647 3509 3647 2328 
Q 3647 1150 3233 529 
Q 2819 -91 2034 -91 
Q 1250 -91 836 529 
Q 422 1150 422 2328 
Q 422 3509 836 4129 
Q 1250 4750 2034 4750 
z
" transform="scale(0.015625)"/>
       </defs>
       <use xlink:href="#DejaVuSans-30"/>
      </g>
     </g>
    </g>
    <g id="xtick_2">
     <g id="line2d_2">
      <g>
       <use xlink:href="#m47817a702a" x="156.522272" y="387.16" style="stroke: #000000; stroke-width: 0.8"/>
      </g>
     </g>
     <g id="text_2">
      <!-- 5 -->
      <g transform="translate(153.341022 401.758438) scale(0.1 -0.1)">
       <defs>
        <path id="DejaVuSans-35" d="M 691 4666 
L 3169 4666 
L 3169 4134 
L 1269 4134 
L 1269 2991 
Q 1406 3038 1543 3061 
Q 1681 3084 1819 3084 
Q 2600 3084 3056 2656 
Q 3513 2228 3513 1497 
Q 3513 744 3044 326 
Q 2575 -91 1722 -91 
Q 1428 -91 1123 -41 
Q 819 9 494 109 
L 494 744 
Q 775 591 1075 516 
Q 1375 441 1709 441 
Q 2250 441 2565 725 
Q 2881 1009 2881 1497 
Q 2881 1984 2565 2268 
Q 2250 2553 1709 2553 
Q 1456 2553 1204 2497 
Q 953 2441 691 2322 
L 691 4666 
z
" transform="scale(0.015625)"/>
       </defs>
       <use xlink:href="#DejaVuSans-35"/>
      </g>
     </g>
    </g>
    <g id="xtick_3">
     <g id="line2d_3">
      <g>
       <use xlink:href="#m47817a702a" x="252.994544" y="387.16" style="stroke: #000000; stroke-width: 0.8"/>
      </g>
     </g>
     <g id="text_3">
      <!-- 10 -->
      <g transform="translate(246.632044 401.758438) scale(0.1 -0.1)">
       <defs>
        <path id="DejaVuSans-31" d="M 794 531 
L 1825 531 
L 1825 4091 
L 703 3866 
L 703 4441 
L 1819 4666 
L 2450 4666 
L 2450 531 
L 3481 531 
L 3481 0 
L 794 0 
L 794 531 
z
" transform="scale(0.015625)"/>
       </defs>
       <use xlink:href="#DejaVuSans-31"/>
       <use xlink:href="#DejaVuSans-30" x="63.623047"/>
      </g>
     </g>
    </g>
    <g id="xtick_4">
     <g id="line2d_4">
      <g>
       <use xlink:href="#m47817a702a" x="349.466816" y="387.16" style="stroke: #000000; stroke-width: 0.8"/>
      </g>
     </g>
     <g id="text_4">
      <!-- 15 -->
      <g transform="translate(343.104316 401.758438) scale(0.1 -0.1)">
       <use xlink:href="#DejaVuSans-31"/>
       <use xlink:href="#DejaVuSans-35" x="63.623047"/>
      </g>
     </g>
    </g>
    <g id="xtick_5">
     <g id="line2d_5">
      <g>
       <use xlink:href="#m47817a702a" x="445.939088" y="387.16" style="stroke: #000000; stroke-width: 0.8"/>
      </g>
     </g>
     <g id="text_5">
      <!-- 20 -->
      <g transform="translate(439.576588 401.758438) scale(0.1 -0.1)">
       <defs>
        <path id="DejaVuSans-32" d="M 1228 531 
L 3431 531 
L 3431 0 
L 469 0 
L 469 531 
Q 828 903 1448 1529 
Q 2069 2156 2228 2338 
Q 2531 2678 2651 2914 
Q 2772 3150 2772 3378 
Q 2772 3750 2511 3984 
Q 2250 4219 1831 4219 
Q 1534 4219 1204 4116 
Q 875 4013 500 3803 
L 500 4441 
Q 881 4594 1212 4672 
Q 1544 4750 1819 4750 
Q 2544 4750 2975 4387 
Q 3406 4025 3406 3419 
Q 3406 3131 3298 2873 
Q 3191 2616 2906 2266 
Q 2828 2175 2409 1742 
Q 1991 1309 1228 531 
z
" transform="scale(0.015625)"/>
       </defs>
       <use xlink:href="#DejaVuSans-32"/>
       <use xlink:href="#DejaVuSans-30" x="63.623047"/>
      </g>
     </g>
    </g>
    <g id="xtick_6">
     <g id="line2d_6">
      <g>
       <use xlink:href="#m47817a702a" x="542.41136" y="387.16" style="stroke: #000000; stroke-width: 0.8"/>
      </g>
     </g>
     <g id="text_6">
      <!-- 25 -->
      <g transform="translate(536.04886 401.758438) scale(0.1 -0.1)">
       <use xlink:href="#DejaVuSans-32"/>
       <use xlink:href="#DejaVuSans-35" x="63.623047"/>
      </g>
     </g>
    </g>
    <g id="xtick_7">
     <g id="line2d_7">
      <g>
       <use xlink:href="#m47817a702a" x="638.883632" y="387.16" style="stroke: #000000; stroke-width: 0.8"/>
      </g>
     </g>
     <g id="text_7">
      <!-- 30 -->
      <g transform="translate(632.521132 401.758438) scale(0.1 -0.1)">
       <defs>
        <path id="DejaVuSans-33" d="M 2597 2516 
Q 3050 2419 3304 2112 
Q 3559 1806 3559 1356 
Q 3559 666 3084 287 
Q 2609 -91 1734 -91 
Q 1441 -91 1130 -33 
Q 819 25 488 141 
L 488 750 
Q 750 597 1062 519 
Q 1375 441 1716 441 
Q 2309 441 2620 675 
Q 2931 909 2931 1356 
Q 2931 1769 2642 2001 
Q 2353 2234 1838 2234 
L 1294 2234 
L 1294 2753 
L 1863 2753 
Q 2328 2753 2575 2939 
Q 2822 3125 2822 3475 
Q 2822 3834 2567 4026 
Q 2313 4219 1838 4219 
Q 1578 4219 1281 4162 
Q 984 4106 628 3988 
L 628 4550 
Q 988 4650 1302 4700 
Q 1616 4750 1894 4750 
Q 2613 4750 3031 4423 
Q 3450 4097 3450 3541 
Q 3450 3153 3228 2886 
Q 3006 2619 2597 2516 
z
" transform="scale(0.015625)"/>
       </defs>
       <use xlink:href="#DejaVuSans-33"/>
       <use xlink:href="#DejaVuSans-30" x="63.623047"/>
      </g>
     </g>
    </g>
    <g id="xtick_8">
     <g id="line2d_8">
      <g>
       <use xlink:href="#m47817a702a" x="735.355904" y="387.16" style="stroke: #000000; stroke-width: 0.8"/>
      </g>
     </g>
     <g id="text_8">
      <!-- 35 -->
      <g transform="translate(728.993404 401.758438) scale(0.1 -0.1)">
       <use xlink:href="#DejaVuSans-33"/>
       <use xlink:href="#DejaVuSans-35" x="63.623047"/>
      </g>
     </g>
    </g>
    <g id="xtick_9">
     <g id="line2d_9">
      <g>
       <use xlink:href="#m47817a702a" x="831.828176" y="387.16" style="stroke: #000000; stroke-width: 0.8"/>
      </g>
     </g>
     <g id="text_9">
      <!-- 40 -->
      <g transform="translate(825.465676 401.758438) scale(0.1 -0.1)">
       <defs>
        <path id="DejaVuSans-34" d="M 2419 4116 
L 825 1625 
L 2419 1625 
L 2419 4116 
z
M 2253 4666 
L 3047 4666 
L 3047 1625 
L 3713 1625 
L 3713 1100 
L 3047 1100 
L 3047 0 
L 2419 0 
L 2419 1100 
L 313 1100 
L 313 1709 
L 2253 4666 
z
" transform="scale(0.015625)"/>
       </defs>
       <use xlink:href="#DejaVuSans-34"/>
       <use xlink:href="#DejaVuSans-30" x="63.623047"/>
      </g>
     </g>
    </g>
    <g id="text_10">
     <!-- Test duration (Minutes) -->
     <g transform="translate(387.44875 416.95625) scale(0.12 -0.12)">
      <defs>
       <path id="DejaVuSans-54" d="M -19 4666 
L 3928 4666 
L 3928 4134 
L 2272 4134 
L 2272 0 
L 1638 0 
L 1638 4134 
L -19 4134 
L -19 4666 
z
" transform="scale(0.015625)"/>
       <path id="DejaVuSans-65" d="M 3597 1894 
L 3597 1613 
L 953 1613 
Q 991 1019 1311 708 
Q 1631 397 2203 397 
Q 2534 397 2845 478 
Q 3156 559 3463 722 
L 3463 178 
Q 3153 47 2828 -22 
Q 2503 -91 2169 -91 
Q 1331 -91 842 396 
Q 353 884 353 1716 
Q 353 2575 817 3079 
Q 1281 3584 2069 3584 
Q 2775 3584 3186 3129 
Q 3597 2675 3597 1894 
z
M 3022 2063 
Q 3016 2534 2758 2815 
Q 2500 3097 2075 3097 
Q 1594 3097 1305 2825 
Q 1016 2553 972 2059 
L 3022 2063 
z
" transform="scale(0.015625)"/>
       <path id="DejaVuSans-73" d="M 2834 3397 
L 2834 2853 
Q 2591 2978 2328 3040 
Q 2066 3103 1784 3103 
Q 1356 3103 1142 2972 
Q 928 2841 928 2578 
Q 928 2378 1081 2264 
Q 1234 2150 1697 2047 
L 1894 2003 
Q 2506 1872 2764 1633 
Q 3022 1394 3022 966 
Q 3022 478 2636 193 
Q 2250 -91 1575 -91 
Q 1294 -91 989 -36 
Q 684 19 347 128 
L 347 722 
Q 666 556 975 473 
Q 1284 391 1588 391 
Q 1994 391 2212 530 
Q 2431 669 2431 922 
Q 2431 1156 2273 1281 
Q 2116 1406 1581 1522 
L 1381 1569 
Q 847 1681 609 1914 
Q 372 2147 372 2553 
Q 372 3047 722 3315 
Q 1072 3584 1716 3584 
Q 2034 3584 2315 3537 
Q 2597 3491 2834 3397 
z
" transform="scale(0.015625)"/>
       <path id="DejaVuSans-74" d="M 1172 4494 
L 1172 3500 
L 2356 3500 
L 2356 3053 
L 1172 3053 
L 1172 1153 
Q 1172 725 1289 603 
Q 1406 481 1766 481 
L 2356 481 
L 2356 0 
L 1766 0 
Q 1100 0 847 248 
Q 594 497 594 1153 
L 594 3053 
L 172 3053 
L 172 3500 
L 594 3500 
L 594 4494 
L 1172 4494 
z
" transform="scale(0.015625)"/>
       <path id="DejaVuSans-20" transform="scale(0.015625)"/>
       <path id="DejaVuSans-64" d="M 2906 2969 
L 2906 4863 
L 3481 4863 
L 3481 0 
L 2906 0 
L 2906 525 
Q 2725 213 2448 61 
Q 2172 -91 1784 -91 
Q 1150 -91 751 415 
Q 353 922 353 1747 
Q 353 2572 751 3078 
Q 1150 3584 1784 3584 
Q 2172 3584 2448 3432 
Q 2725 3281 2906 2969 
z
M 947 1747 
Q 947 1113 1208 752 
Q 1469 391 1925 391 
Q 2381 391 2643 752 
Q 2906 1113 2906 1747 
Q 2906 2381 2643 2742 
Q 2381 3103 1925 3103 
Q 1469 3103 1208 2742 
Q 947 2381 947 1747 
z
" transform="scale(0.015625)"/>
       <path id="DejaVuSans-75" d="M 544 1381 
L 544 3500 
L 1119 3500 
L 1119 1403 
Q 1119 906 1312 657 
Q 1506 409 1894 409 
Q 2359 409 2629 706 
Q 2900 1003 2900 1516 
L 2900 3500 
L 3475 3500 
L 3475 0 
L 2900 0 
L 2900 538 
Q 2691 219 2414 64 
Q 2138 -91 1772 -91 
Q 1169 -91 856 284 
Q 544 659 544 1381 
z
M 1991 3584 
L 1991 3584 
z
" transform="scale(0.015625)"/>
       <path id="DejaVuSans-72" d="M 2631 2963 
Q 2534 3019 2420 3045 
Q 2306 3072 2169 3072 
Q 1681 3072 1420 2755 
Q 1159 2438 1159 1844 
L 1159 0 
L 581 0 
L 581 3500 
L 1159 3500 
L 1159 2956 
Q 1341 3275 1631 3429 
Q 1922 3584 2338 3584 
Q 2397 3584 2469 3576 
Q 2541 3569 2628 3553 
L 2631 2963 
z
" transform="scale(0.015625)"/>
       <path id="DejaVuSans-61" d="M 2194 1759 
Q 1497 1759 1228 1600 
Q 959 1441 959 1056 
Q 959 750 1161 570 
Q 1363 391 1709 391 
Q 2188 391 2477 730 
Q 2766 1069 2766 1631 
L 2766 1759 
L 2194 1759 
z
M 3341 1997 
L 3341 0 
L 2766 0 
L 2766 531 
Q 2569 213 2275 61 
Q 1981 -91 1556 -91 
Q 1019 -91 701 211 
Q 384 513 384 1019 
Q 384 1609 779 1909 
Q 1175 2209 1959 2209 
L 2766 2209 
L 2766 2266 
Q 2766 2663 2505 2880 
Q 2244 3097 1772 3097 
Q 1472 3097 1187 3025 
Q 903 2953 641 2809 
L 641 3341 
Q 956 3463 1253 3523 
Q 1550 3584 1831 3584 
Q 2591 3584 2966 3190 
Q 3341 2797 3341 1997 
z
" transform="scale(0.015625)"/>
       <path id="DejaVuSans-69" d="M 603 3500 
L 1178 3500 
L 1178 0 
L 603 0 
L 603 3500 
z
M 603 4863 
L 1178 4863 
L 1178 4134 
L 603 4134 
L 603 4863 
z
" transform="scale(0.015625)"/>
       <path id="DejaVuSans-6f" d="M 1959 3097 
Q 1497 3097 1228 2736 
Q 959 2375 959 1747 
Q 959 1119 1226 758 
Q 1494 397 1959 397 
Q 2419 397 2687 759 
Q 2956 1122 2956 1747 
Q 2956 2369 2687 2733 
Q 2419 3097 1959 3097 
z
M 1959 3584 
Q 2709 3584 3137 3096 
Q 3566 2609 3566 1747 
Q 3566 888 3137 398 
Q 2709 -91 1959 -91 
Q 1206 -91 779 398 
Q 353 888 353 1747 
Q 353 2609 779 3096 
Q 1206 3584 1959 3584 
z
" transform="scale(0.015625)"/>
       <path id="DejaVuSans-6e" d="M 3513 2113 
L 3513 0 
L 2938 0 
L 2938 2094 
Q 2938 2591 2744 2837 
Q 2550 3084 2163 3084 
Q 1697 3084 1428 2787 
Q 1159 2491 1159 1978 
L 1159 0 
L 581 0 
L 581 3500 
L 1159 3500 
L 1159 2956 
Q 1366 3272 1645 3428 
Q 1925 3584 2291 3584 
Q 2894 3584 3203 3211 
Q 3513 2838 3513 2113 
z
" transform="scale(0.015625)"/>
       <path id="DejaVuSans-28" d="M 1984 4856 
Q 1566 4138 1362 3434 
Q 1159 2731 1159 2009 
Q 1159 1288 1364 580 
Q 1569 -128 1984 -844 
L 1484 -844 
Q 1016 -109 783 600 
Q 550 1309 550 2009 
Q 550 2706 781 3412 
Q 1013 4119 1484 4856 
L 1984 4856 
z
" transform="scale(0.015625)"/>
       <path id="DejaVuSans-4d" d="M 628 4666 
L 1569 4666 
L 2759 1491 
L 3956 4666 
L 4897 4666 
L 4897 0 
L 4281 0 
L 4281 4097 
L 3078 897 
L 2444 897 
L 1241 4097 
L 1241 0 
L 628 0 
L 628 4666 
z
" transform="scale(0.015625)"/>
       <path id="DejaVuSans-29" d="M 513 4856 
L 1013 4856 
Q 1481 4119 1714 3412 
Q 1947 2706 1947 2009 
Q 1947 1309 1714 600 
Q 1481 -109 1013 -844 
L 513 -844 
Q 928 -128 1133 580 
Q 1338 1288 1338 2009 
Q 1338 2731 1133 3434 
Q 928 4138 513 4856 
z
" transform="scale(0.015625)"/>
      </defs>
      <use xlink:href="#DejaVuSans-54"/>
      <use xlink:href="#DejaVuSans-65" x="44.083984"/>
      <use xlink:href="#DejaVuSans-73" x="105.607422"/>
      <use xlink:href="#DejaVuSans-74" x="157.707031"/>
      <use xlink:href="#DejaVuSans-20" x="196.916016"/>
      <use xlink:href="#DejaVuSans-64" x="228.703125"/>
      <use xlink:href="#DejaVuSans-75" x="292.179688"/>
      <use xlink:href="#DejaVuSans-72" x="355.558594"/>
      <use xlink:href="#DejaVuSans-61" x="396.671875"/>
      <use xlink:href="#DejaVuSans-74" x="457.951172"/>
      <use xlink:href="#DejaVuSans-69" x="497.160156"/>
      <use xlink:href="#DejaVuSans-6f" x="524.943359"/>
      <use xlink:href="#DejaVuSans-6e" x="586.125"/>
      <use xlink:href="#DejaVuSans-20" x="649.503906"/>
      <use xlink:href="#DejaVuSans-28" x="681.291016"/>
      <use xlink:href="#DejaVuSans-4d" x="720.304688"/>
      <use xlink:href="#DejaVuSans-69" x="806.583984"/>
      <use xlink:href="#DejaVuSans-6e" x="834.367188"/>
      <use xlink:href="#DejaVuSans-75" x="897.746094"/>
      <use xlink:href="#DejaVuSans-74" x="961.125"/>
      <use xlink:href="#DejaVuSans-65" x="1000.333984"/>
      <use xlink:href="#DejaVuSans-73" x="1061.857422"/>
      <use xlink:href="#DejaVuSans-29" x="1113.957031"/>
     </g>
    </g>
   </g>
   <g id="matplotlib.axis_2">
    <g id="ytick_1">
     <g id="line2d_10">
      <defs>
       <path id="mc5dd0b6076" d="M 0 0 
L -3.5 0 
" style="stroke: #000000; stroke-width: 0.8"/>
      </defs>
      <g>
       <use xlink:href="#mc5dd0b6076" x="60.05" y="387.16" style="stroke: #000000; stroke-width: 0.8"/>
      </g>
     </g>
     <g id="text_11">
      <!-- 0 -->
      <g transform="translate(46.6875 390.959219) scale(0.1 -0.1)">
       <use xlink:href="#DejaVuSans-30"/>
      </g>
     </g>
    </g>
    <g id="ytick_2">
     <g id="line2d_11">
      <g>
       <use xlink:href="#mc5dd0b6076" x="60.05" y="321.257337" style="stroke: #000000; stroke-width: 0.8"/>
      </g>
     </g>
     <g id="text_12">
      <!-- 500 -->
      <g transform="translate(33.9625 325.056556) scale(0.1 -0.1)">
       <use xlink:href="#DejaVuSans-35"/>
       <use xlink:href="#DejaVuSans-30" x="63.623047"/>
       <use xlink:href="#DejaVuSans-30" x="127.246094"/>
      </g>
     </g>
    </g>
    <g id="ytick_3">
     <g id="line2d_12">
      <g>
       <use xlink:href="#mc5dd0b6076" x="60.05" y="255.354674" style="stroke: #000000; stroke-width: 0.8"/>
      </g>
     </g>
     <g id="text_13">
      <!-- 1000 -->
      <g transform="translate(27.6 259.153893) scale(0.1 -0.1)">
       <use xlink:href="#DejaVuSans-31"/>
       <use xlink:href="#DejaVuSans-30" x="63.623047"/>
       <use xlink:href="#DejaVuSans-30" x="127.246094"/>
       <use xlink:href="#DejaVuSans-30" x="190.869141"/>
      </g>
     </g>
    </g>
    <g id="ytick_4">
     <g id="line2d_13">
      <g>
       <use xlink:href="#mc5dd0b6076" x="60.05" y="189.452011" style="stroke: #000000; stroke-width: 0.8"/>
      </g>
     </g>
     <g id="text_14">
      <!-- 1500 -->
      <g transform="translate(27.6 193.25123) scale(0.1 -0.1)">
       <use xlink:href="#DejaVuSans-31"/>
       <use xlink:href="#DejaVuSans-35" x="63.623047"/>
       <use xlink:href="#DejaVuSans-30" x="127.246094"/>
       <use xlink:href="#DejaVuSans-30" x="190.869141"/>
      </g>
     </g>
    </g>
    <g id="ytick_5">
     <g id="line2d_14">
      <g>
       <use xlink:href="#mc5dd0b6076" x="60.05" y="123.549348" style="stroke: #000000; stroke-width: 0.8"/>
      </g>
     </g>
     <g id="text_15">
      <!-- 2000 -->
      <g transform="translate(27.6 127.348567) scale(0.1 -0.1)">
       <use xlink:href="#DejaVuSans-32"/>
       <use xlink:href="#DejaVuSans-30" x="63.623047"/>
       <use xlink:href="#DejaVuSans-30" x="127.246094"/>
       <use xlink:href="#DejaVuSans-30" x="190.869141"/>
      </g>
     </g>
    </g>
    <g id="ytick_6">
     <g id="line2d_15">
      <g>
       <use xlink:href="#mc5dd0b6076" x="60.05" y="57.646685" style="stroke: #000000; stroke-width: 0.8"/>
      </g>
     </g>
     <g id="text_16">
      <!-- 2500 -->
      <g transform="translate(27.6 61.445904) scale(0.1 -0.1)">
       <use xlink:href="#DejaVuSans-32"/>
       <use xlink:href="#DejaVuSans-35" x="63.623047"/>
       <use xlink:href="#DejaVuSans-30" x="127.246094"/>
       <use xlink:href="#DejaVuSans-30" x="190.869141"/>
      </g>
     </g>
    </g>
    <g id="text_17">
     <!-- Clock (MHz) -->
     <g transform="translate(21.104375 243.468125) rotate(-90) scale(0.12 -0.12)">
      <defs>
       <path id="DejaVuSans-43" d="M 4122 4306 
L 4122 3641 
Q 3803 3938 3442 4084 
Q 3081 4231 2675 4231 
Q 1875 4231 1450 3742 
Q 1025 3253 1025 2328 
Q 1025 1406 1450 917 
Q 1875 428 2675 428 
Q 3081 428 3442 575 
Q 3803 722 4122 1019 
L 4122 359 
Q 3791 134 3420 21 
Q 3050 -91 2638 -91 
Q 1578 -91 968 557 
Q 359 1206 359 2328 
Q 359 3453 968 4101 
Q 1578 4750 2638 4750 
Q 3056 4750 3426 4639 
Q 3797 4528 4122 4306 
z
" transform="scale(0.015625)"/>
       <path id="DejaVuSans-6c" d="M 603 4863 
L 1178 4863 
L 1178 0 
L 603 0 
L 603 4863 
z
" transform="scale(0.015625)"/>
       <path id="DejaVuSans-63" d="M 3122 3366 
L 3122 2828 
Q 2878 2963 2633 3030 
Q 2388 3097 2138 3097 
Q 1578 3097 1268 2742 
Q 959 2388 959 1747 
Q 959 1106 1268 751 
Q 1578 397 2138 397 
Q 2388 397 2633 464 
Q 2878 531 3122 666 
L 3122 134 
Q 2881 22 2623 -34 
Q 2366 -91 2075 -91 
Q 1284 -91 818 406 
Q 353 903 353 1747 
Q 353 2603 823 3093 
Q 1294 3584 2113 3584 
Q 2378 3584 2631 3529 
Q 2884 3475 3122 3366 
z
" transform="scale(0.015625)"/>
       <path id="DejaVuSans-6b" d="M 581 4863 
L 1159 4863 
L 1159 1991 
L 2875 3500 
L 3609 3500 
L 1753 1863 
L 3688 0 
L 2938 0 
L 1159 1709 
L 1159 0 
L 581 0 
L 581 4863 
z
" transform="scale(0.015625)"/>
       <path id="DejaVuSans-48" d="M 628 4666 
L 1259 4666 
L 1259 2753 
L 3553 2753 
L 3553 4666 
L 4184 4666 
L 4184 0 
L 3553 0 
L 3553 2222 
L 1259 2222 
L 1259 0 
L 628 0 
L 628 4666 
z
" transform="scale(0.015625)"/>
       <path id="DejaVuSans-7a" d="M 353 3500 
L 3084 3500 
L 3084 2975 
L 922 459 
L 3084 459 
L 3084 0 
L 275 0 
L 275 525 
L 2438 3041 
L 353 3041 
L 353 3500 
z
" transform="scale(0.015625)"/>
      </defs>
      <use xlink:href="#DejaVuSans-43"/>
      <use xlink:href="#DejaVuSans-6c" x="69.824219"/>
      <use xlink:href="#DejaVuSans-6f" x="97.607422"/>
      <use xlink:href="#DejaVuSans-63" x="158.789062"/>
      <use xlink:href="#DejaVuSans-6b" x="213.769531"/>
      <use xlink:href="#DejaVuSans-20" x="271.679688"/>
      <use xlink:href="#DejaVuSans-28" x="303.466797"/>
      <use xlink:href="#DejaVuSans-4d" x="342.480469"/>
      <use xlink:href="#DejaVuSans-48" x="428.759766"/>
      <use xlink:href="#DejaVuSans-7a" x="503.955078"/>
      <use xlink:href="#DejaVuSans-29" x="556.445312"/>
     </g>
    </g>
   </g>
   <g id="line2d_16">
    <path d="M 214.405635 387.16 
L 216.331865 387.16 
L 216.982731 100.483416 
L 220.330641 100.483416 
L 220.849661 355.526722 
L 221.498598 100.483416 
L 222.145927 100.483416 
L 222.791648 262.603967 
L 223.431581 100.483416 
L 224.079875 250.741488 
L 224.727204 306.099725 
L 225.378713 185.497851 
L 226.020254 225.039449 
L 226.669834 246.787328 
L 227.315876 278.420606 
L 227.957417 106.414656 
L 228.594455 96.529256 
L 229.241141 62.918898 
L 229.886219 280.397686 
L 230.53387 312.030964 
L 231.17541 78.735537 
L 231.824669 102.460496 
L 232.466209 78.735537 
L 233.10775 62.918898 
L 233.74929 64.895978 
L 244.709505 64.895978 
L 245.356191 96.529256 
L 245.99741 88.620937 
L 246.639915 181.543691 
L 247.280813 187.474931 
L 247.928785 185.497851 
L 248.571933 90.598017 
L 249.220227 92.575096 
L 249.861768 90.598017 
L 250.503952 66.873058 
L 251.147422 64.895978 
L 255.01403 64.895978 
L 255.661038 130.139614 
L 256.306759 64.895978 
L 256.949907 114.322975 
L 257.60013 149.910413 
L 258.243279 124.208375 
L 258.885784 64.895978 
L 260.821339 64.895978 
L 261.462558 100.483416 
L 262.111174 92.575096 
L 263.397471 66.873058 
L 264.044156 70.827218 
L 265.977139 70.827218 
L 267.267295 66.873058 
L 267.913981 70.827218 
L 268.554878 72.804298 
L 269.197062 68.850138 
L 269.846642 72.804298 
L 270.48754 72.804298 
L 271.13101 74.781377 
L 271.779625 72.804298 
L 272.425667 72.804298 
L 273.065922 70.827218 
L 273.719361 72.804298 
L 274.368297 68.850138 
L 275.00823 74.781377 
L 275.654916 74.781377 
L 276.299672 82.689697 
L 276.951825 76.758457 
L 277.597868 88.620937 
L 278.237157 82.689697 
L 278.885451 82.689697 
L 279.526348 86.643857 
L 280.171748 88.620937 
L 280.814896 94.552176 
L 281.460939 88.620937 
L 282.101836 92.575096 
L 282.753024 100.483416 
L 283.397781 88.620937 
L 284.683434 96.529256 
L 285.328512 104.437576 
L 285.973269 96.529256 
L 286.616096 100.483416 
L 287.904643 96.529256 
L 288.555188 104.437576 
L 289.200588 100.483416 
L 289.84856 106.414656 
L 290.499104 108.391736 
L 291.143218 104.437576 
L 291.784437 102.460496 
L 292.431122 112.345895 
L 293.072985 108.391736 
L 293.717741 112.345895 
L 294.35896 108.391736 
L 295.007575 110.368815 
L 295.654583 110.368815 
L 296.297088 108.391736 
L 296.943774 64.895978 
L 297.583385 108.391736 
L 298.229428 64.895978 
L 302.110507 64.895978 
L 302.753977 104.437576 
L 303.400663 102.460496 
L 304.047992 82.689697 
L 304.698858 86.643857 
L 305.342007 66.873058 
L 305.982583 74.781377 
L 306.626696 78.735537 
L 307.273382 66.873058 
L 307.921354 72.804298 
L 308.570612 68.850138 
L 309.214082 86.643857 
L 309.855623 84.666777 
L 310.496842 64.895978 
L 311.142563 167.704132 
L 311.784103 124.208375 
L 312.430789 213.17697 
L 313.081334 236.901928 
L 313.725126 252.718567 
L 314.379851 72.804298 
L 315.018819 74.781377 
L 315.667112 62.918898 
L 316.310904 90.598017 
L 316.952123 64.895978 
L 317.591413 70.827218 
L 318.238742 64.895978 
L 319.530184 64.895978 
L 320.173654 78.735537 
L 320.815838 64.895978 
L 325.973245 64.895978 
L 326.619609 62.918898 
L 327.905906 62.918898 
L 328.552592 84.666777 
L 329.199278 68.850138 
L 329.846285 64.895978 
L 330.488148 64.895978 
L 331.130653 62.918898 
L 331.773801 175.612452 
L 332.420166 227.016529 
L 333.061385 187.474931 
L 333.71 177.589532 
L 334.349289 62.918898 
L 334.992116 155.841653 
L 335.638159 195.383251 
L 336.281951 209.22281 
L 336.929601 90.598017 
L 337.573393 92.575096 
L 338.214933 86.643857 
L 338.856796 62.918898 
L 344.011309 62.918898 
L 344.656065 70.827218 
L 345.305002 82.689697 
L 345.948151 64.895978 
L 347.882741 64.895978 
L 348.531357 70.827218 
L 349.178364 68.850138 
L 349.826336 64.895978 
L 351.767358 64.895978 
L 352.41115 66.873058 
L 353.053655 66.873058 
L 353.695196 64.895978 
L 355.626892 64.895978 
L 356.271005 72.804298 
L 356.917691 72.804298 
L 357.553443 64.895978 
L 369.157128 64.895978 
L 369.8051 66.873058 
L 370.445676 64.895978 
L 371.741942 64.895978 
L 372.387663 66.873058 
L 373.031776 64.895978 
L 373.681035 68.850138 
L 374.323218 64.895978 
L 374.970869 64.895978 
L 376.264884 68.850138 
L 376.910926 64.895978 
L 377.562436 66.873058 
L 378.204298 64.895978 
L 379.495419 64.895978 
L 380.144034 68.850138 
L 380.788469 64.895978 
L 382.079911 68.850138 
L 382.719843 66.873058 
L 384.006784 66.873058 
L 384.647359 64.895978 
L 385.293402 66.873058 
L 387.229922 66.873058 
L 387.877894 68.850138 
L 388.520078 64.895978 
L 395.613041 64.895978 
L 396.255225 66.873058 
L 396.900303 64.895978 
L 400.769806 64.895978 
L 401.410703 66.873058 
L 402.056102 64.895978 
L 402.697965 64.895978 
L 403.342399 66.873058 
L 403.990372 64.895978 
L 404.635771 66.873058 
L 405.286637 64.895978 
L 416.243636 64.895978 
L 416.888393 66.873058 
L 417.531541 64.895978 
L 422.046122 64.895978 
L 422.695702 66.873058 
L 423.335635 64.895978 
L 423.98425 68.850138 
L 424.62161 68.850138 
L 425.272155 64.895978 
L 425.915303 66.873058 
L 426.561667 66.873058 
L 427.200957 64.895978 
L 427.853753 64.895978 
L 428.494007 66.873058 
L 429.139407 64.895978 
L 430.42506 64.895978 
L 431.070781 68.850138 
L 431.714895 80.712617 
L 432.360937 74.781377 
L 433.003764 76.758457 
L 433.64627 68.850138 
L 434.289096 72.804298 
L 434.932566 66.873058 
L 435.575715 64.895978 
L 436.863298 64.895978 
L 437.50709 70.827218 
L 438.151203 64.895978 
L 442.018133 64.895978 
L 442.662246 62.918898 
L 445.239664 62.918898 
L 445.886028 90.598017 
L 446.526926 68.850138 
L 447.168145 64.895978 
L 448.453155 64.895978 
L 449.098555 66.873058 
L 449.740417 66.873058 
L 450.388068 68.850138 
L 451.035075 64.895978 
L 451.677902 66.873058 
L 452.968701 62.918898 
L 454.254033 62.918898 
L 454.902005 179.566612 
L 455.540973 215.15405 
L 456.186694 238.879008 
L 456.832737 193.406171 
L 457.475885 88.620937 
L 458.125787 80.712617 
L 458.767649 66.873058 
L 459.410476 64.895978 
L 463.917339 64.895978 
L 464.561774 86.643857 
L 465.20846 70.827218 
L 465.856432 64.895978 
L 476.816968 64.895978 
L 477.463975 72.804298 
L 478.105516 66.873058 
L 478.754774 64.895978 
L 479.387311 80.712617 
L 480.032711 145.956253 
L 480.680683 84.666777 
L 481.323188 80.712617 
L 481.967944 86.643857 
L 482.614952 70.827218 
L 483.257135 64.895978 
L 488.425155 64.895978 
L 489.06959 104.437576 
L 489.715311 78.735537 
L 490.367142 76.758457 
L 491.011898 64.895978 
L 491.652153 70.827218 
L 492.29305 64.895978 
L 543.886099 64.895978 
L 544.531177 76.758457 
L 545.173683 64.895978 
L 558.072025 64.895978 
L 558.714852 86.643857 
L 559.362181 68.850138 
L 560.014334 64.895978 
L 561.946674 64.895978 
L 562.592073 68.850138 
L 563.237151 64.895978 
L 563.883194 68.850138 
L 565.175279 64.895978 
L 565.815212 68.850138 
L 566.461897 64.895978 
L 568.399382 64.895978 
L 569.694683 68.850138 
L 570.334938 64.895978 
L 571.628952 68.850138 
L 572.925218 64.895978 
L 574.864632 64.895978 
L 575.507781 68.850138 
L 576.153823 68.850138 
L 577.44012 64.895978 
L 579.378891 64.895978 
L 580.020111 66.873058 
L 581.3048 66.873058 
L 581.953736 64.895978 
L 587.107607 64.895978 
L 587.753006 68.850138 
L 588.398084 64.895978 
L 589.046378 64.895978 
L 589.691134 68.850138 
L 590.335891 64.895978 
L 595.499408 64.895978 
L 596.148345 70.827218 
L 596.791493 64.895978 
L 599.368589 64.895978 
L 600.011095 66.873058 
L 600.657459 64.895978 
L 601.305431 68.850138 
L 601.941826 68.850138 
L 602.593657 64.895978 
L 603.236484 68.850138 
L 603.880598 70.827218 
L 604.523424 64.895978 
L 605.168502 68.850138 
L 605.81551 70.827218 
L 606.462196 76.758457 
L 607.107917 72.804298 
L 607.75814 64.895978 
L 608.399359 72.804298 
L 609.696589 68.850138 
L 610.344561 70.827218 
L 610.989639 66.873058 
L 611.631823 70.827218 
L 612.280438 68.850138 
L 612.923587 64.895978 
L 613.571237 68.850138 
L 614.207311 70.827218 
L 614.85464 62.918898 
L 616.144153 62.918898 
L 616.792446 102.460496 
L 617.433665 84.666777 
L 618.080673 82.689697 
L 618.730253 62.918898 
L 619.369864 64.895978 
L 627.107583 64.895978 
L 627.75234 66.873058 
L 628.39388 64.895978 
L 631.620235 64.895978 
L 632.26274 84.666777 
L 632.918108 64.895978 
L 633.550323 64.895978 
L 634.201511 68.850138 
L 634.844338 68.850138 
L 635.491667 76.758457 
L 636.134172 62.918898 
L 637.435262 143.979174 
L 638.077124 84.666777 
L 638.719308 72.804298 
L 639.369531 72.804298 
L 640.009785 64.895978 
L 643.236782 64.895978 
L 643.882825 78.735537 
L 644.522758 68.850138 
L 645.174267 64.895978 
L 647.752006 64.895978 
L 648.398371 62.918898 
L 649.046021 187.474931 
L 649.692064 197.360331 
L 650.342608 153.864573 
L 650.983184 153.864573 
L 651.634051 177.589532 
L 652.27334 90.598017 
L 652.91263 80.712617 
L 654.208252 64.895978 
L 662.580759 64.895978 
L 663.229375 66.873058 
L 663.876382 64.895978 
L 667.114635 64.895978 
L 667.752959 66.873058 
L 668.399002 72.804298 
L 669.043115 70.827218 
L 669.685621 72.804298 
L 670.975455 68.850138 
L 671.625035 72.804298 
L 672.272364 66.873058 
L 673.555767 66.873058 
L 674.197629 68.850138 
L 674.848173 64.895978 
L 677.432344 64.895978 
L 678.070669 66.873058 
L 678.718963 64.895978 
L 680.003973 68.850138 
L 680.646157 66.873058 
L 681.291878 66.873058 
L 681.938242 64.895978 
L 686.449286 64.895978 
L 687.738477 68.850138 
L 689.02799 68.850138 
L 689.674997 64.895978 
L 690.319432 66.873058 
L 690.960972 70.827218 
L 691.607015 66.873058 
L 692.249199 64.895978 
L 694.184432 64.895978 
L 694.832726 66.873058 
L 695.479734 64.895978 
L 696.126098 68.850138 
L 696.766352 64.895978 
L 697.408536 66.873058 
L 698.050398 66.873058 
L 698.693868 68.850138 
L 699.342162 66.873058 
L 699.983702 66.873058 
L 700.631674 72.804298 
L 701.273537 72.804298 
L 701.915077 64.895978 
L 702.562728 68.850138 
L 703.205876 68.850138 
L 703.853848 66.873058 
L 705.789404 66.873058 
L 706.435446 64.895978 
L 707.076665 70.827218 
L 708.368429 66.873058 
L 709.013829 66.873058 
L 709.654726 64.895978 
L 710.29691 68.850138 
L 710.943596 64.895978 
L 711.589317 72.804298 
L 712.236967 72.804298 
L 712.88301 74.781377 
L 713.53066 66.873058 
L 714.18217 68.850138 
L 714.824997 64.895978 
L 716.753799 64.895978 
L 717.398555 62.918898 
L 718.682923 62.918898 
L 720.609796 248.764408 
L 721.256803 221.085289 
L 721.900273 92.575096 
L 723.183997 62.918898 
L 723.826181 70.827218 
L 724.471902 68.850138 
L 725.122447 64.895978 
L 725.76849 82.689697 
L 726.412281 64.895978 
L 727.060253 70.827218 
L 727.702437 66.873058 
L 728.343978 64.895978 
L 729.630918 64.895978 
L 730.272137 66.873058 
L 730.919466 64.895978 
L 732.204476 64.895978 
L 733.489166 88.620937 
L 734.136173 68.850138 
L 735.424078 68.850138 
L 736.07205 64.895978 
L 737.361884 98.506336 
L 738.011464 66.873058 
L 738.654934 72.804298 
L 739.298726 62.918898 
L 739.944447 230.970689 
L 740.589846 248.764408 
L 741.235567 100.483416 
L 741.882575 191.429091 
L 742.527331 62.918898 
L 743.174017 62.918898 
L 743.820703 100.483416 
L 744.465781 62.918898 
L 745.114396 92.575096 
L 745.76076 64.895978 
L 746.402622 72.804298 
L 747.051559 62.918898 
L 747.695351 72.804298 
L 748.338821 62.918898 
L 749.624796 66.873058 
L 750.269231 86.643857 
L 750.911736 84.666777 
L 751.551347 70.827218 
L 752.196104 64.895978 
L 755.416348 64.895978 
L 756.056281 62.918898 
L 759.274596 62.918898 
L 759.921282 211.19989 
L 760.563144 254.695647 
L 761.213045 221.085289 
L 761.859731 205.26865 
L 762.508025 78.735537 
L 763.148601 84.666777 
L 763.795608 68.850138 
L 764.441008 68.850138 
L 765.090909 62.918898 
L 765.740489 62.918898 
L 766.378171 64.895978 
L 767.030967 64.895978 
L 767.672829 66.873058 
L 768.320158 70.827218 
L 768.960091 64.895978 
L 772.829593 64.895978 
L 773.470169 66.873058 
L 774.119106 88.620937 
L 774.763862 62.918898 
L 776.70199 62.918898 
L 777.341923 86.643857 
L 777.987966 82.689697 
L 778.634652 68.850138 
L 779.275871 92.575096 
L 779.920627 64.895978 
L 780.567956 86.643857 
L 781.213677 70.827218 
L 781.864865 64.895978 
L 785.075784 64.895978 
L 785.718932 96.529256 
L 786.364975 76.758457 
L 787.005229 62.918898 
L 787.652558 62.918898 
L 788.295063 84.666777 
L 788.93789 72.804298 
L 790.227081 72.804298 
L 790.874732 66.873058 
L 791.521739 78.735537 
L 792.16746 64.895978 
L 799.911611 64.895978 
L 800.557654 84.666777 
L 801.20241 72.804298 
L 801.853598 66.873058 
L 802.502535 66.873058 
L 803.147934 68.850138 
L 803.791404 66.873058 
L 804.436804 66.873058 
L 805.082203 68.850138 
L 805.724387 64.895978 
L 807.656405 64.895978 
L 808.29891 70.827218 
L 808.946561 64.895978 
L 809.595498 64.895978 
L 810.230928 70.827218 
L 810.87665 64.895978 
L 811.521406 64.895978 
L 812.169056 68.850138 
L 812.821209 64.895978 
L 814.112008 64.895978 
L 814.751619 68.850138 
L 815.403772 64.895978 
L 817.342864 64.895978 
L 817.98537 66.873058 
L 818.625624 64.895978 
L 823.137632 64.895978 
L 823.787534 68.850138 
L 824.431647 66.873058 
L 825.074795 66.873058 
L 825.719873 64.895978 
L 826.363987 66.873058 
L 827.005527 66.873058 
L 827.65157 64.895978 
L 829.587447 64.895978 
L 830.227379 66.873058 
L 830.872779 64.895978 
L 838.616608 64.895978 
L 839.261686 70.827218 
L 839.908372 64.895978 
L 840.561811 64.895978 
L 841.2011 70.827218 
L 841.848108 64.895978 
L 847.642232 64.895978 
L 848.281522 108.391736 
L 848.926921 82.689697 
L 849.570392 64.895978 
L 850.858618 64.895978 
L 851.499515 68.850138 
L 852.144915 64.895978 
L 852.798354 66.873058 
L 852.798354 66.873058 
" clip-path="url(#pbfea3f4240)" style="fill: none; stroke: #e74c3c; stroke-width: 2; stroke-linecap: square"/>
   </g>
   <g id="line2d_17">
    <path d="M 60.05 387.16 
L 67.144571 387.16 
L 67.802512 100.483416 
L 68.431511 387.16 
L 69.074981 100.483416 
L 70.358384 100.483416 
L 71.014395 387.16 
L 71.6405 387.16 
L 72.288472 100.483416 
L 72.933229 387.16 
L 74.862996 387.16 
L 75.511933 100.483416 
L 78.727353 100.483416 
L 79.372753 284.351846 
L 80.014294 278.420606 
L 80.660336 284.351846 
L 81.305093 100.483416 
L 81.950492 250.741488 
L 82.60168 317.962204 
L 83.24515 191.429091 
L 83.896659 290.283085 
L 84.543345 223.062369 
L 85.182635 272.489366 
L 85.837038 252.718567 
L 86.474077 104.437576 
L 87.11819 62.918898 
L 87.764876 270.512287 
L 88.409954 310.053884 
L 89.053102 100.483416 
L 89.697215 84.666777 
L 90.339721 86.643857 
L 90.982869 70.827218 
L 91.621837 64.895978 
L 92.269166 64.895978 
L 92.908456 62.918898 
L 98.705153 62.918898 
L 99.345407 64.895978 
L 106.433547 64.895978 
L 107.083448 106.414656 
L 107.725954 78.735537 
L 108.369102 64.895978 
L 110.305944 64.895978 
L 110.951665 183.520771 
L 111.593527 227.016529 
L 112.242464 100.483416 
L 112.884004 240.856088 
L 113.527796 171.658292 
L 114.173839 189.452011 
L 114.820203 175.612452 
L 115.463673 173.635372 
L 116.117755 153.864573 
L 116.759939 88.620937 
L 117.396977 90.598017 
L 118.042698 64.895978 
L 119.330925 64.895978 
L 119.982434 98.506336 
L 120.626547 68.850138 
L 121.26648 64.895978 
L 121.918633 64.895978 
L 122.557922 74.781377 
L 123.205251 72.804298 
L 123.847435 64.895978 
L 127.07797 64.895978 
L 127.719832 66.873058 
L 128.36909 64.895978 
L 129.011917 64.895978 
L 129.654101 68.850138 
L 130.301752 64.895978 
L 130.945543 64.895978 
L 131.589656 118.277135 
L 132.229911 66.873058 
L 132.882063 96.529256 
L 133.528106 76.758457 
L 134.172541 64.895978 
L 143.206204 64.895978 
L 143.849996 80.712617 
L 144.498933 155.841653 
L 145.147226 143.979174 
L 145.79745 92.575096 
L 146.438669 92.575096 
L 147.090178 88.620937 
L 147.741687 72.804298 
L 148.383871 74.781377 
L 149.026055 68.850138 
L 149.673384 64.895978 
L 150.32007 64.895978 
L 150.965791 70.827218 
L 151.608296 64.895978 
L 152.25659 64.895978 
L 152.905848 68.850138 
L 153.55575 74.781377 
L 154.196326 64.895978 
L 154.843333 64.895978 
L 155.494842 70.827218 
L 156.139599 64.895978 
L 156.782426 64.895978 
L 157.429433 66.873058 
L 158.068079 66.873058 
L 158.712514 72.804298 
L 159.355341 70.827218 
L 159.996882 72.804298 
L 160.64003 72.804298 
L 161.282535 64.895978 
L 161.929221 82.689697 
L 162.570762 70.827218 
L 163.212302 64.895978 
L 163.857702 64.895978 
L 164.498599 78.735537 
L 165.144642 70.827218 
L 165.782967 84.666777 
L 166.430617 72.804298 
L 167.071515 80.712617 
L 167.719165 72.804298 
L 168.368745 68.850138 
L 169.009 66.873058 
L 169.656007 70.827218 
L 170.295618 64.895978 
L 170.941339 80.712617 
L 171.581915 64.895978 
L 172.226993 76.758457 
L 173.516827 72.804298 
L 174.165443 66.873058 
L 174.811807 68.850138 
L 176.103571 64.895978 
L 183.201357 64.895978 
L 183.846435 80.712617 
L 184.493443 86.643857 
L 185.138199 74.781377 
L 185.780061 76.758457 
L 186.431249 66.873058 
L 187.068609 70.827218 
L 187.718832 66.873058 
L 189.007702 66.873058 
L 189.648278 72.804298 
L 190.293677 66.873058 
L 190.937147 70.827218 
L 191.583511 70.827218 
L 192.232127 72.804298 
L 192.878812 68.850138 
L 193.524212 74.781377 
L 194.166717 74.781377 
L 194.813081 72.804298 
L 196.102594 64.895978 
L 197.394358 64.895978 
L 198.045546 94.552176 
L 198.693196 78.735537 
L 199.334737 70.827218 
L 199.976921 76.758457 
L 200.622963 70.827218 
L 201.264182 74.781377 
L 201.907652 72.804298 
L 202.554017 64.895978 
L 203.203918 64.895978 
L 203.847388 74.781377 
L 204.49536 78.735537 
L 205.140117 66.873058 
L 205.780371 64.895978 
L 207.067954 64.895978 
L 207.712711 66.873058 
L 208.355859 72.804298 
L 209.005439 80.712617 
L 209.646015 80.712617 
L 210.290771 82.689697 
L 210.939386 74.781377 
L 211.588002 70.827218 
L 212.226327 78.735537 
L 212.873334 74.781377 
L 213.520984 78.735537 
L 214.160596 76.758457 
L 214.804387 72.804298 
L 215.452359 76.758457 
L 216.091006 64.895978 
L 217.387593 64.895978 
L 218.025275 84.666777 
L 218.671317 70.827218 
L 219.314466 64.895978 
L 219.958258 76.758457 
L 220.59819 68.850138 
L 221.244233 72.804298 
L 221.890919 70.827218 
L 222.539856 66.873058 
L 223.182039 82.689697 
L 223.829047 74.781377 
L 224.471552 68.850138 
L 225.118881 64.895978 
L 225.757849 64.895978 
L 226.405821 102.460496 
L 227.044146 88.620937 
L 227.696299 80.712617 
L 228.337518 74.781377 
L 228.989349 82.689697 
L 229.636678 80.712617 
L 230.282077 64.895978 
L 236.090351 64.895978 
L 236.738001 100.483416 
L 237.389189 74.781377 
L 238.032016 64.895978 
L 238.673878 82.689697 
L 239.314776 68.850138 
L 239.966928 66.873058 
L 240.613614 78.735537 
L 241.257406 74.781377 
L 241.901841 66.873058 
L 243.832251 66.873058 
L 244.476364 74.781377 
L 245.118548 74.781377 
L 245.766841 84.666777 
L 246.40388 80.712617 
L 247.048315 68.850138 
L 247.695001 88.620937 
L 248.3404 82.689697 
L 248.993196 84.666777 
L 249.632807 66.873058 
L 250.27885 68.850138 
L 250.930037 84.666777 
L 251.57608 76.758457 
L 252.869773 98.506336 
L 253.515173 80.712617 
L 254.160894 84.666777 
L 254.801148 94.552176 
L 255.451693 92.575096 
L 256.09259 78.735537 
L 256.735096 80.712617 
L 257.379852 78.735537 
L 258.022036 82.689697 
L 258.666149 82.689697 
L 259.308976 84.666777 
L 259.949552 82.689697 
L 260.595916 66.873058 
L 261.239064 84.666777 
L 261.880605 82.689697 
L 262.528255 74.781377 
L 263.177835 72.804298 
L 263.824843 72.804298 
L 264.468634 86.643857 
L 265.114677 74.781377 
L 265.760398 88.620937 
L 266.405798 74.781377 
L 267.046052 74.781377 
L 267.693059 78.735537 
L 268.339424 68.850138 
L 268.982894 74.781377 
L 269.627007 74.781377 
L 270.27112 78.735537 
L 270.919414 64.895978 
L 271.564492 86.643857 
L 272.208283 80.712617 
L 272.854326 80.712617 
L 273.499082 84.666777 
L 274.142874 84.666777 
L 274.782807 82.689697 
L 275.430457 84.666777 
L 276.071355 78.735537 
L 276.719327 84.666777 
L 277.364726 82.689697 
L 278.002408 88.620937 
L 278.647164 88.620937 
L 279.290313 80.712617 
L 279.937963 80.712617 
L 280.58079 94.552176 
L 281.235515 92.575096 
L 281.872232 88.620937 
L 282.51731 92.575096 
L 283.802321 80.712617 
L 284.453509 78.735537 
L 285.094085 88.620937 
L 286.385205 76.758457 
L 287.027711 78.735537 
L 287.674396 94.552176 
L 288.328478 88.620937 
L 288.967446 98.506336 
L 289.618313 86.643857 
L 290.257281 94.552176 
L 290.904931 80.712617 
L 291.549688 80.712617 
L 292.20184 82.689697 
L 292.846918 80.712617 
L 293.49682 88.620937 
L 294.140933 66.873058 
L 294.783116 64.895978 
L 306.395484 64.895978 
L 307.035095 72.804298 
L 307.678244 104.437576 
L 308.326216 104.437576 
L 308.965505 84.666777 
L 309.610583 72.804298 
L 310.255339 74.781377 
L 310.89688 64.895978 
L 312.824396 64.895978 
L 313.471082 74.781377 
L 314.11423 66.873058 
L 314.756414 64.895978 
L 316.050429 64.895978 
L 316.696793 68.850138 
L 317.985019 64.895978 
L 320.574978 64.895978 
L 321.222629 66.873058 
L 321.872209 64.895978 
L 324.444803 64.895978 
L 325.092132 66.873058 
L 325.730778 64.895978 
L 345.070896 64.895978 
L 345.712437 62.918898 
L 356.64982 62.918898 
L 357.294255 64.895978 
L 357.93676 64.895978 
L 358.583124 62.918898 
L 359.228202 62.918898 
L 359.871351 74.781377 
L 360.51257 62.918898 
L 367.601352 62.918898 
L 368.251575 64.895978 
L 368.896653 62.918898 
L 384.372092 62.918898 
L 385.017491 74.781377 
L 385.665142 76.758457 
L 386.30829 62.918898 
L 400.493895 62.918898 
L 401.134471 68.850138 
L 401.7818 62.918898 
L 430.795514 62.918898 
L 431.4422 82.689697 
L 432.089207 64.895978 
L 432.730426 62.918898 
L 452.69279 62.918898 
L 453.340441 64.895978 
L 453.985519 62.918898 
L 454.637028 62.918898 
L 455.27278 88.620937 
L 455.926862 78.735537 
L 456.566473 66.873058 
L 457.210265 68.850138 
L 457.857916 62.918898 
L 499.139044 62.918898 
L 499.778012 70.827218 
L 500.424055 86.643857 
L 501.065274 62.918898 
L 508.156307 62.918898 
L 508.804279 60.941818 
L 509.453859 134.093774 
L 510.09347 60.941818 
L 510.740478 167.704132 
L 511.390701 60.941818 
L 512.036422 147.933333 
L 512.677963 64.895978 
L 513.324648 74.781377 
L 513.970048 80.712617 
L 514.616091 62.918898 
L 517.840515 62.918898 
L 518.487523 82.689697 
L 519.132279 76.758457 
L 519.77189 62.918898 
L 524.943126 62.918898 
L 525.588204 80.712617 
L 526.233925 70.827218 
L 526.879646 62.918898 
L 528.812307 62.918898 
L 529.459314 213.17697 
L 530.10793 223.062369 
L 530.750113 149.910413 
L 531.392297 167.704132 
L 532.039948 197.360331 
L 532.683739 84.666777 
L 533.332998 66.873058 
L 533.976146 62.918898 
L 539.141593 62.918898 
L 539.795032 64.895978 
L 540.435929 62.918898 
L 547.539826 62.918898 
L 548.181045 64.895978 
L 548.831268 62.918898 
L 579.164401 62.918898 
L 579.808515 64.895978 
L 580.453914 62.918898 
L 590.12944 62.918898 
L 590.779663 82.689697 
L 591.432137 62.918898 
L 594.000872 62.918898 
L 594.643378 76.758457 
L 595.291671 62.918898 
L 595.940608 60.941818 
L 596.579576 82.689697 
L 597.22594 64.895978 
L 597.866195 66.873058 
L 598.509986 62.918898 
L 608.170076 62.918898 
L 608.819013 66.873058 
L 610.113028 62.918898 
L 623.021018 62.918898 
L 623.660629 64.895978 
L 624.302491 62.918898 
L 630.108514 62.918898 
L 630.754557 86.643857 
L 631.401886 84.666777 
L 632.044391 64.895978 
L 632.68561 62.918898 
L 646.236427 62.918898 
L 646.88054 64.895978 
L 647.522724 62.918898 
L 654.617616 62.918898 
L 655.260443 88.620937 
L 655.901984 80.712617 
L 656.551242 62.918898 
L 667.525285 62.918898 
L 668.1739 70.827218 
L 668.817049 62.918898 
L 672.036007 62.918898 
L 672.682371 68.850138 
L 673.329057 66.873058 
L 673.971562 62.918898 
L 688.150735 62.918898 
L 688.790025 64.895978 
L 689.442177 62.918898 
L 694.591867 62.918898 
L 695.24402 68.850138 
L 695.886525 62.918898 
L 696.535462 64.895978 
L 697.177324 64.895978 
L 697.824974 62.918898 
L 701.693513 62.918898 
L 702.336018 64.895978 
L 702.980131 62.918898 
L 724.893165 62.918898 
L 725.543066 66.873058 
L 726.188787 62.918898 
L 770.703023 62.918898 
L 771.354211 147.933333 
L 772.003148 177.589532 
L 772.643723 195.383251 
L 773.285264 157.818733 
L 773.93195 104.437576 
L 774.574134 60.941818 
L 775.214709 82.689697 
L 775.859144 60.941818 
L 776.50776 60.941818 
L 777.15123 82.689697 
L 777.79277 64.895978 
L 778.43206 62.918898 
L 779.07971 72.804298 
L 779.728969 74.781377 
L 780.36858 62.918898 
L 781.012693 62.918898 
L 781.656485 64.895978 
L 782.301884 62.918898 
L 789.405138 62.918898 
L 790.047643 64.895978 
L 790.691113 62.918898 
L 791.334905 66.873058 
L 791.981912 62.918898 
L 793.271425 62.918898 
L 793.912644 64.895978 
L 794.551933 62.918898 
L 799.694549 62.918898 
L 800.342199 136.070854 
L 800.984061 169.681212 
L 801.623029 165.727052 
L 802.271001 234.924848 
L 802.914793 60.941818 
L 803.559228 62.918898 
L 804.197231 62.918898 
L 804.842631 60.941818 
L 805.484493 62.918898 
L 806.135359 66.873058 
L 806.776578 62.918898 
L 817.739044 62.918898 
L 819.024698 88.620937 
L 819.666238 62.918898 
L 822.880694 62.918898 
L 823.529631 118.277135 
L 824.177925 82.689697 
L 824.821716 82.689697 
L 825.463579 74.781377 
L 826.111551 62.918898 
L 827.409746 62.918898 
L 828.052251 64.895978 
L 828.698294 62.918898 
L 829.986842 62.918898 
L 830.639959 66.873058 
L 831.27957 62.918898 
L 831.919825 62.918898 
L 832.571334 92.575096 
L 833.215447 62.918898 
L 833.85538 66.873058 
L 834.497242 62.918898 
L 835.788684 62.918898 
L 836.438907 76.758457 
L 837.084307 62.918898 
L 840.307124 62.918898 
L 840.95381 66.873058 
L 841.600817 62.918898 
L 842.239464 64.895978 
L 842.885185 62.918898 
L 843.531227 64.895978 
L 844.171482 62.918898 
L 849.974932 62.918898 
L 850.618724 72.804298 
L 851.264123 64.895978 
L 851.914989 72.804298 
L 852.559103 72.804298 
L 853.2 62.918898 
L 853.2 62.918898 
" clip-path="url(#pbfea3f4240)" style="fill: none; stroke: #3498db; stroke-width: 2; stroke-linecap: square"/>
   </g>
   <g id="patch_3">
    <path d="M 60.05 387.16 
L 60.05 28.32 
" style="fill: none; stroke: #000000; stroke-width: 0.8; stroke-linejoin: miter; stroke-linecap: square"/>
   </g>
   <g id="patch_4">
    <path d="M 853.2 387.16 
L 853.2 28.32 
" style="fill: none; stroke: #000000; stroke-width: 0.8; stroke-linejoin: miter; stroke-linecap: square"/>
   </g>
   <g id="patch_5">
    <path d="M 60.05 387.16 
L 853.2 387.16 
" style="fill: none; stroke: #000000; stroke-width: 0.8; stroke-linejoin: miter; stroke-linecap: square"/>
   </g>
   <g id="patch_6">
    <path d="M 60.05 28.32 
L 853.2 28.32 
" style="fill: none; stroke: #000000; stroke-width: 0.8; stroke-linejoin: miter; stroke-linecap: square"/>
   </g>
   <g id="text_18">
    <!-- GPU clock over time -->
    <g transform="translate(365.88875 22.32) scale(0.16 -0.16)">
     <defs>
      <path id="DejaVuSans-Bold-47" d="M 4781 347 
Q 4331 128 3847 18 
Q 3363 -91 2847 -91 
Q 1681 -91 1000 561 
Q 319 1213 319 2328 
Q 319 3456 1012 4103 
Q 1706 4750 2913 4750 
Q 3378 4750 3804 4662 
Q 4231 4575 4609 4403 
L 4609 3438 
Q 4219 3659 3833 3768 
Q 3447 3878 3059 3878 
Q 2341 3878 1952 3476 
Q 1563 3075 1563 2328 
Q 1563 1588 1938 1184 
Q 2313 781 3003 781 
Q 3191 781 3352 804 
Q 3513 828 3641 878 
L 3641 1784 
L 2906 1784 
L 2906 2591 
L 4781 2591 
L 4781 347 
z
" transform="scale(0.015625)"/>
      <path id="DejaVuSans-Bold-50" d="M 588 4666 
L 2584 4666 
Q 3475 4666 3951 4270 
Q 4428 3875 4428 3144 
Q 4428 2409 3951 2014 
Q 3475 1619 2584 1619 
L 1791 1619 
L 1791 0 
L 588 0 
L 588 4666 
z
M 1791 3794 
L 1791 2491 
L 2456 2491 
Q 2806 2491 2997 2661 
Q 3188 2831 3188 3144 
Q 3188 3456 2997 3625 
Q 2806 3794 2456 3794 
L 1791 3794 
z
" transform="scale(0.015625)"/>
      <path id="DejaVuSans-Bold-55" d="M 588 4666 
L 1791 4666 
L 1791 1869 
Q 1791 1291 1980 1042 
Q 2169 794 2597 794 
Q 3028 794 3217 1042 
Q 3406 1291 3406 1869 
L 3406 4666 
L 4609 4666 
L 4609 1869 
Q 4609 878 4112 393 
Q 3616 -91 2597 -91 
Q 1581 -91 1084 393 
Q 588 878 588 1869 
L 588 4666 
z
" transform="scale(0.015625)"/>
      <path id="DejaVuSans-Bold-20" transform="scale(0.015625)"/>
      <path id="DejaVuSans-Bold-63" d="M 3366 3391 
L 3366 2478 
Q 3138 2634 2908 2709 
Q 2678 2784 2431 2784 
Q 1963 2784 1702 2511 
Q 1441 2238 1441 1747 
Q 1441 1256 1702 982 
Q 1963 709 2431 709 
Q 2694 709 2930 787 
Q 3166 866 3366 1019 
L 3366 103 
Q 3103 6 2833 -42 
Q 2563 -91 2291 -91 
Q 1344 -91 809 395 
Q 275 881 275 1747 
Q 275 2613 809 3098 
Q 1344 3584 2291 3584 
Q 2566 3584 2833 3536 
Q 3100 3488 3366 3391 
z
" transform="scale(0.015625)"/>
      <path id="DejaVuSans-Bold-6c" d="M 538 4863 
L 1656 4863 
L 1656 0 
L 538 0 
L 538 4863 
z
" transform="scale(0.015625)"/>
      <path id="DejaVuSans-Bold-6f" d="M 2203 2784 
Q 1831 2784 1636 2517 
Q 1441 2250 1441 1747 
Q 1441 1244 1636 976 
Q 1831 709 2203 709 
Q 2569 709 2762 976 
Q 2956 1244 2956 1747 
Q 2956 2250 2762 2517 
Q 2569 2784 2203 2784 
z
M 2203 3584 
Q 3106 3584 3614 3096 
Q 4122 2609 4122 1747 
Q 4122 884 3614 396 
Q 3106 -91 2203 -91 
Q 1297 -91 786 396 
Q 275 884 275 1747 
Q 275 2609 786 3096 
Q 1297 3584 2203 3584 
z
" transform="scale(0.015625)"/>
      <path id="DejaVuSans-Bold-6b" d="M 538 4863 
L 1656 4863 
L 1656 2216 
L 2944 3500 
L 4244 3500 
L 2534 1894 
L 4378 0 
L 3022 0 
L 1656 1459 
L 1656 0 
L 538 0 
L 538 4863 
z
" transform="scale(0.015625)"/>
      <path id="DejaVuSans-Bold-76" d="M 97 3500 
L 1216 3500 
L 2088 1081 
L 2956 3500 
L 4078 3500 
L 2700 0 
L 1472 0 
L 97 3500 
z
" transform="scale(0.015625)"/>
      <path id="DejaVuSans-Bold-65" d="M 4031 1759 
L 4031 1441 
L 1416 1441 
Q 1456 1047 1700 850 
Q 1944 653 2381 653 
Q 2734 653 3104 758 
Q 3475 863 3866 1075 
L 3866 213 
Q 3469 63 3072 -14 
Q 2675 -91 2278 -91 
Q 1328 -91 801 392 
Q 275 875 275 1747 
Q 275 2603 792 3093 
Q 1309 3584 2216 3584 
Q 3041 3584 3536 3087 
Q 4031 2591 4031 1759 
z
M 2881 2131 
Q 2881 2450 2695 2645 
Q 2509 2841 2209 2841 
Q 1884 2841 1681 2658 
Q 1478 2475 1428 2131 
L 2881 2131 
z
" transform="scale(0.015625)"/>
      <path id="DejaVuSans-Bold-72" d="M 3138 2547 
Q 2991 2616 2845 2648 
Q 2700 2681 2553 2681 
Q 2122 2681 1889 2404 
Q 1656 2128 1656 1613 
L 1656 0 
L 538 0 
L 538 3500 
L 1656 3500 
L 1656 2925 
Q 1872 3269 2151 3426 
Q 2431 3584 2822 3584 
Q 2878 3584 2943 3579 
Q 3009 3575 3134 3559 
L 3138 2547 
z
" transform="scale(0.015625)"/>
      <path id="DejaVuSans-Bold-74" d="M 1759 4494 
L 1759 3500 
L 2913 3500 
L 2913 2700 
L 1759 2700 
L 1759 1216 
Q 1759 972 1856 886 
Q 1953 800 2241 800 
L 2816 800 
L 2816 0 
L 1856 0 
Q 1194 0 917 276 
Q 641 553 641 1216 
L 641 2700 
L 84 2700 
L 84 3500 
L 641 3500 
L 641 4494 
L 1759 4494 
z
" transform="scale(0.015625)"/>
      <path id="DejaVuSans-Bold-69" d="M 538 3500 
L 1656 3500 
L 1656 0 
L 538 0 
L 538 3500 
z
M 538 4863 
L 1656 4863 
L 1656 3950 
L 538 3950 
L 538 4863 
z
" transform="scale(0.015625)"/>
      <path id="DejaVuSans-Bold-6d" d="M 3781 2919 
Q 3994 3244 4286 3414 
Q 4578 3584 4928 3584 
Q 5531 3584 5847 3212 
Q 6163 2841 6163 2131 
L 6163 0 
L 5038 0 
L 5038 1825 
Q 5041 1866 5042 1909 
Q 5044 1953 5044 2034 
Q 5044 2406 4934 2573 
Q 4825 2741 4581 2741 
Q 4263 2741 4089 2478 
Q 3916 2216 3909 1719 
L 3909 0 
L 2784 0 
L 2784 1825 
Q 2784 2406 2684 2573 
Q 2584 2741 2328 2741 
Q 2006 2741 1831 2477 
Q 1656 2213 1656 1722 
L 1656 0 
L 531 0 
L 531 3500 
L 1656 3500 
L 1656 2988 
Q 1863 3284 2130 3434 
Q 2397 3584 2719 3584 
Q 3081 3584 3359 3409 
Q 3638 3234 3781 2919 
z
" transform="scale(0.015625)"/>
     </defs>
     <use xlink:href="#DejaVuSans-Bold-47"/>
     <use xlink:href="#DejaVuSans-Bold-50" x="82.080078"/>
     <use xlink:href="#DejaVuSans-Bold-55" x="155.371094"/>
     <use xlink:href="#DejaVuSans-Bold-20" x="236.572266"/>
     <use xlink:href="#DejaVuSans-Bold-63" x="271.386719"/>
     <use xlink:href="#DejaVuSans-Bold-6c" x="330.664062"/>
     <use xlink:href="#DejaVuSans-Bold-6f" x="364.941406"/>
     <use xlink:href="#DejaVuSans-Bold-63" x="433.642578"/>
     <use xlink:href="#DejaVuSans-Bold-6b" x="492.919922"/>
     <use xlink:href="#DejaVuSans-Bold-20" x="559.423828"/>
     <use xlink:href="#DejaVuSans-Bold-6f" x="594.238281"/>
     <use xlink:href="#DejaVuSans-Bold-76" x="662.939453"/>
     <use xlink:href="#DejaVuSans-Bold-65" x="728.125"/>
     <use xlink:href="#DejaVuSans-Bold-72" x="795.947266"/>
     <use xlink:href="#DejaVuSans-Bold-20" x="845.263672"/>
     <use xlink:href="#DejaVuSans-Bold-74" x="880.078125"/>
     <use xlink:href="#DejaVuSans-Bold-69" x="927.880859"/>
     <use xlink:href="#DejaVuSans-Bold-6d" x="962.158203"/>
     <use xlink:href="#DejaVuSans-Bold-65" x="1066.357422"/>
    </g>
   </g>
   <g id="legend_1">
    <g id="patch_7">
     <path d="M 681.467188 82.354375 
L 848.2 82.354375 
Q 850.2 82.354375 850.2 80.354375 
L 850.2 37.32 
Q 850.2 35.32 848.2 35.32 
L 681.467188 35.32 
Q 679.467188 35.32 679.467188 37.32 
L 679.467188 80.354375 
Q 679.467188 82.354375 681.467188 82.354375 
z
" style="fill: #4d4d4d; opacity: 0.5; stroke: #4d4d4d; stroke-linejoin: miter"/>
    </g>
    <g id="patch_8">
     <path d="M 679.467188 80.354375 
L 846.2 80.354375 
Q 848.2 80.354375 848.2 78.354375 
L 848.2 35.32 
Q 848.2 33.32 846.2 33.32 
L 679.467188 33.32 
Q 677.467188 33.32 677.467188 35.32 
L 677.467188 78.354375 
Q 677.467188 80.354375 679.467188 80.354375 
z
" style="fill: #ffffff; stroke: #cccccc; stroke-linejoin: miter"/>
    </g>
    <g id="line2d_18">
     <path d="M 681.467188 41.418437 
L 691.467188 41.418437 
L 701.467188 41.418437 
" style="fill: none; stroke: #e74c3c; stroke-width: 2; stroke-linecap: square"/>
    </g>
    <g id="text_19">
     <!-- GPU clock (MHz) - Summer -->
     <g transform="translate(709.467188 44.918437) scale(0.1 -0.1)">
      <defs>
       <path id="DejaVuSans-47" d="M 3809 666 
L 3809 1919 
L 2778 1919 
L 2778 2438 
L 4434 2438 
L 4434 434 
Q 4069 175 3628 42 
Q 3188 -91 2688 -91 
Q 1594 -91 976 548 
Q 359 1188 359 2328 
Q 359 3472 976 4111 
Q 1594 4750 2688 4750 
Q 3144 4750 3555 4637 
Q 3966 4525 4313 4306 
L 4313 3634 
Q 3963 3931 3569 4081 
Q 3175 4231 2741 4231 
Q 1884 4231 1454 3753 
Q 1025 3275 1025 2328 
Q 1025 1384 1454 906 
Q 1884 428 2741 428 
Q 3075 428 3337 486 
Q 3600 544 3809 666 
z
" transform="scale(0.015625)"/>
       <path id="DejaVuSans-50" d="M 1259 4147 
L 1259 2394 
L 2053 2394 
Q 2494 2394 2734 2622 
Q 2975 2850 2975 3272 
Q 2975 3691 2734 3919 
Q 2494 4147 2053 4147 
L 1259 4147 
z
M 628 4666 
L 2053 4666 
Q 2838 4666 3239 4311 
Q 3641 3956 3641 3272 
Q 3641 2581 3239 2228 
Q 2838 1875 2053 1875 
L 1259 1875 
L 1259 0 
L 628 0 
L 628 4666 
z
" transform="scale(0.015625)"/>
       <path id="DejaVuSans-55" d="M 556 4666 
L 1191 4666 
L 1191 1831 
Q 1191 1081 1462 751 
Q 1734 422 2344 422 
Q 2950 422 3222 751 
Q 3494 1081 3494 1831 
L 3494 4666 
L 4128 4666 
L 4128 1753 
Q 4128 841 3676 375 
Q 3225 -91 2344 -91 
Q 1459 -91 1007 375 
Q 556 841 556 1753 
L 556 4666 
z
" transform="scale(0.015625)"/>
       <path id="DejaVuSans-2d" d="M 313 2009 
L 1997 2009 
L 1997 1497 
L 313 1497 
L 313 2009 
z
" transform="scale(0.015625)"/>
       <path id="DejaVuSans-53" d="M 3425 4513 
L 3425 3897 
Q 3066 4069 2747 4153 
Q 2428 4238 2131 4238 
Q 1616 4238 1336 4038 
Q 1056 3838 1056 3469 
Q 1056 3159 1242 3001 
Q 1428 2844 1947 2747 
L 2328 2669 
Q 3034 2534 3370 2195 
Q 3706 1856 3706 1288 
Q 3706 609 3251 259 
Q 2797 -91 1919 -91 
Q 1588 -91 1214 -16 
Q 841 59 441 206 
L 441 856 
Q 825 641 1194 531 
Q 1563 422 1919 422 
Q 2459 422 2753 634 
Q 3047 847 3047 1241 
Q 3047 1584 2836 1778 
Q 2625 1972 2144 2069 
L 1759 2144 
Q 1053 2284 737 2584 
Q 422 2884 422 3419 
Q 422 4038 858 4394 
Q 1294 4750 2059 4750 
Q 2388 4750 2728 4690 
Q 3069 4631 3425 4513 
z
" transform="scale(0.015625)"/>
       <path id="DejaVuSans-6d" d="M 3328 2828 
Q 3544 3216 3844 3400 
Q 4144 3584 4550 3584 
Q 5097 3584 5394 3201 
Q 5691 2819 5691 2113 
L 5691 0 
L 5113 0 
L 5113 2094 
Q 5113 2597 4934 2840 
Q 4756 3084 4391 3084 
Q 3944 3084 3684 2787 
Q 3425 2491 3425 1978 
L 3425 0 
L 2847 0 
L 2847 2094 
Q 2847 2600 2669 2842 
Q 2491 3084 2119 3084 
Q 1678 3084 1418 2786 
Q 1159 2488 1159 1978 
L 1159 0 
L 581 0 
L 581 3500 
L 1159 3500 
L 1159 2956 
Q 1356 3278 1631 3431 
Q 1906 3584 2284 3584 
Q 2666 3584 2933 3390 
Q 3200 3197 3328 2828 
z
" transform="scale(0.015625)"/>
      </defs>
      <use xlink:href="#DejaVuSans-47"/>
      <use xlink:href="#DejaVuSans-50" x="77.490234"/>
      <use xlink:href="#DejaVuSans-55" x="137.792969"/>
      <use xlink:href="#DejaVuSans-20" x="210.986328"/>
      <use xlink:href="#DejaVuSans-63" x="242.773438"/>
      <use xlink:href="#DejaVuSans-6c" x="297.753906"/>
      <use xlink:href="#DejaVuSans-6f" x="325.537109"/>
      <use xlink:href="#DejaVuSans-63" x="386.71875"/>
      <use xlink:href="#DejaVuSans-6b" x="441.699219"/>
      <use xlink:href="#DejaVuSans-20" x="499.609375"/>
      <use xlink:href="#DejaVuSans-28" x="531.396484"/>
      <use xlink:href="#DejaVuSans-4d" x="570.410156"/>
      <use xlink:href="#DejaVuSans-48" x="656.689453"/>
      <use xlink:href="#DejaVuSans-7a" x="731.884766"/>
      <use xlink:href="#DejaVuSans-29" x="784.375"/>
      <use xlink:href="#DejaVuSans-20" x="823.388672"/>
      <use xlink:href="#DejaVuSans-2d" x="855.175781"/>
      <use xlink:href="#DejaVuSans-20" x="891.259766"/>
      <use xlink:href="#DejaVuSans-53" x="923.046875"/>
      <use xlink:href="#DejaVuSans-75" x="986.523438"/>
      <use xlink:href="#DejaVuSans-6d" x="1049.902344"/>
      <use xlink:href="#DejaVuSans-6d" x="1147.314453"/>
      <use xlink:href="#DejaVuSans-65" x="1244.726562"/>
      <use xlink:href="#DejaVuSans-72" x="1306.25"/>
     </g>
    </g>
    <g id="line2d_19">
     <path d="M 681.467188 56.096563 
L 691.467188 56.096563 
L 701.467188 56.096563 
" style="fill: none; stroke: #3498db; stroke-width: 2; stroke-linecap: square"/>
    </g>
    <g id="text_20">
     <!-- GPU clock (MHz) - Spring -->
     <g transform="translate(709.467188 59.596563) scale(0.1 -0.1)">
      <defs>
       <path id="DejaVuSans-70" d="M 1159 525 
L 1159 -1331 
L 581 -1331 
L 581 3500 
L 1159 3500 
L 1159 2969 
Q 1341 3281 1617 3432 
Q 1894 3584 2278 3584 
Q 2916 3584 3314 3078 
Q 3713 2572 3713 1747 
Q 3713 922 3314 415 
Q 2916 -91 2278 -91 
Q 1894 -91 1617 61 
Q 1341 213 1159 525 
z
M 3116 1747 
Q 3116 2381 2855 2742 
Q 2594 3103 2138 3103 
Q 1681 3103 1420 2742 
Q 1159 2381 1159 1747 
Q 1159 1113 1420 752 
Q 1681 391 2138 391 
Q 2594 391 2855 752 
Q 3116 1113 3116 1747 
z
" transform="scale(0.015625)"/>
       <path id="DejaVuSans-67" d="M 2906 1791 
Q 2906 2416 2648 2759 
Q 2391 3103 1925 3103 
Q 1463 3103 1205 2759 
Q 947 2416 947 1791 
Q 947 1169 1205 825 
Q 1463 481 1925 481 
Q 2391 481 2648 825 
Q 2906 1169 2906 1791 
z
M 3481 434 
Q 3481 -459 3084 -895 
Q 2688 -1331 1869 -1331 
Q 1566 -1331 1297 -1286 
Q 1028 -1241 775 -1147 
L 775 -588 
Q 1028 -725 1275 -790 
Q 1522 -856 1778 -856 
Q 2344 -856 2625 -561 
Q 2906 -266 2906 331 
L 2906 616 
Q 2728 306 2450 153 
Q 2172 0 1784 0 
Q 1141 0 747 490 
Q 353 981 353 1791 
Q 353 2603 747 3093 
Q 1141 3584 1784 3584 
Q 2172 3584 2450 3431 
Q 2728 3278 2906 2969 
L 2906 3500 
L 3481 3500 
L 3481 434 
z
" transform="scale(0.015625)"/>
      </defs>
      <use xlink:href="#DejaVuSans-47"/>
      <use xlink:href="#DejaVuSans-50" x="77.490234"/>
      <use xlink:href="#DejaVuSans-55" x="137.792969"/>
      <use xlink:href="#DejaVuSans-20" x="210.986328"/>
      <use xlink:href="#DejaVuSans-63" x="242.773438"/>
      <use xlink:href="#DejaVuSans-6c" x="297.753906"/>
      <use xlink:href="#DejaVuSans-6f" x="325.537109"/>
      <use xlink:href="#DejaVuSans-63" x="386.71875"/>
      <use xlink:href="#DejaVuSans-6b" x="441.699219"/>
      <use xlink:href="#DejaVuSans-20" x="499.609375"/>
      <use xlink:href="#DejaVuSans-28" x="531.396484"/>
      <use xlink:href="#DejaVuSans-4d" x="570.410156"/>
      <use xlink:href="#DejaVuSans-48" x="656.689453"/>
      <use xlink:href="#DejaVuSans-7a" x="731.884766"/>
      <use xlink:href="#DejaVuSans-29" x="784.375"/>
      <use xlink:href="#DejaVuSans-20" x="823.388672"/>
      <use xlink:href="#DejaVuSans-2d" x="855.175781"/>
      <use xlink:href="#DejaVuSans-20" x="891.259766"/>
      <use xlink:href="#DejaVuSans-53" x="923.046875"/>
      <use xlink:href="#DejaVuSans-70" x="986.523438"/>
      <use xlink:href="#DejaVuSans-72" x="1050"/>
      <use xlink:href="#DejaVuSans-69" x="1091.113281"/>
      <use xlink:href="#DejaVuSans-6e" x="1118.896484"/>
      <use xlink:href="#DejaVuSans-67" x="1182.275391"/>
     </g>
    </g>
    <g id="line2d_20">
     <path d="M 681.467188 70.774687 
L 691.467188 70.774687 
L 701.467188 70.774687 
" style="fill: none; stroke-dasharray: 7.4,3.2; stroke-dashoffset: 0; stroke: #000000; stroke-opacity: 0.9; stroke-width: 2"/>
    </g>
    <g id="text_21">
     <!-- Cooler on (5000 RPM) -->
     <g transform="translate(709.467188 74.274687) scale(0.1 -0.1)">
      <defs>
       <path id="DejaVuSans-52" d="M 2841 2188 
Q 3044 2119 3236 1894 
Q 3428 1669 3622 1275 
L 4263 0 
L 3584 0 
L 2988 1197 
Q 2756 1666 2539 1819 
Q 2322 1972 1947 1972 
L 1259 1972 
L 1259 0 
L 628 0 
L 628 4666 
L 2053 4666 
Q 2853 4666 3247 4331 
Q 3641 3997 3641 3322 
Q 3641 2881 3436 2590 
Q 3231 2300 2841 2188 
z
M 1259 4147 
L 1259 2491 
L 2053 2491 
Q 2509 2491 2742 2702 
Q 2975 2913 2975 3322 
Q 2975 3731 2742 3939 
Q 2509 4147 2053 4147 
L 1259 4147 
z
" transform="scale(0.015625)"/>
      </defs>
      <use xlink:href="#DejaVuSans-43"/>
      <use xlink:href="#DejaVuSans-6f" x="69.824219"/>
      <use xlink:href="#DejaVuSans-6f" x="131.005859"/>
      <use xlink:href="#DejaVuSans-6c" x="192.1875"/>
      <use xlink:href="#DejaVuSans-65" x="219.970703"/>
      <use xlink:href="#DejaVuSans-72" x="281.494141"/>
      <use xlink:href="#DejaVuSans-20" x="322.607422"/>
      <use xlink:href="#DejaVuSans-6f" x="354.394531"/>
      <use xlink:href="#DejaVuSans-6e" x="415.576172"/>
      <use xlink:href="#DejaVuSans-20" x="478.955078"/>
      <use xlink:href="#DejaVuSans-28" x="510.742188"/>
      <use xlink:href="#DejaVuSans-35" x="549.755859"/>
      <use xlink:href="#DejaVuSans-30" x="613.378906"/>
      <use xlink:href="#DejaVuSans-30" x="677.001953"/>
      <use xlink:href="#DejaVuSans-30" x="740.625"/>
      <use xlink:href="#DejaVuSans-20" x="804.248047"/>
      <use xlink:href="#DejaVuSans-52" x="836.035156"/>
      <use xlink:href="#DejaVuSans-50" x="905.517578"/>
      <use xlink:href="#DejaVuSans-4d" x="965.820312"/>
      <use xlink:href="#DejaVuSans-29" x="1052.099609"/>
     </g>
    </g>
   </g>
   <g id="line2d_21">
    <path d="M 301.23068 387.16 
L 301.23068 28.32 
" clip-path="url(#pbfea3f4240)" style="fill: none; stroke-dasharray: 7.4,3.2; stroke-dashoffset: 0; stroke: #000000; stroke-opacity: 0.9; stroke-width: 2"/>
   </g>
  </g>
 </g>
 <defs>
  <clipPath id="pbfea3f4240">
   <rect x="60.05" y="28.32" width="793.15" height="358.84"/>
  </clipPath>
 </defs>
</svg>
