<?xml version="1.0" encoding="utf-8" standalone="no"?>
<!DOCTYPE svg PUBLIC "-//W3C//DTD SVG 1.1//EN"
  "http://www.w3.org/Graphics/SVG/1.1/DTD/svg11.dtd">
<svg xmlns:xlink="http://www.w3.org/1999/xlink" width="864pt" height="432pt" viewBox="0 0 864 432" xmlns="http://www.w3.org/2000/svg" version="1.1">
 <metadata>
  <rdf:RDF xmlns:dc="http://purl.org/dc/elements/1.1/" xmlns:cc="http://creativecommons.org/ns#" xmlns:rdf="http://www.w3.org/1999/02/22-rdf-syntax-ns#">
   <cc:Work>
    <dc:type rdf:resource="http://purl.org/dc/dcmitype/StillImage"/>
    <dc:date>2026-05-23T09:12:49.112504</dc:date>
    <dc:format>image/svg+xml</dc:format>
    <dc:creator>
     <cc:Agent>
      <dc:title>Matplotlib v3.9.2, https://matplotlib.org/</dc:title>
     </cc:Agent>
    </dc:creator>
   </cc:Work>
  </rdf:RDF>
 </metadata>
 <defs>
  <style type="text/css">*{stroke-linejoin: round; stroke-linecap: butt}</style>
 </defs>
 <g id="figure_1">
  <g id="patch_1">
   <path d="M 0 432 
L 864 432 
L 864 0 
L 0 0 
z
" style="fill: #ffffff"/>
  </g>
  <g id="axes_1">
   <g id="patch_2">
    <path d="M 47.45 387.16 
L 853.2 387.16 
L 853.2 28.32 
L 47.45 28.32 
z
" style="fill: #ffffff"/>
   </g>
   <g id="matplotlib.axis_1">
    <g id="xtick_1">
     <g id="line2d_1">
      <defs>
       <path id="m503d281245" d="M 0 0 
L 0 3.5 
" style="stroke: #000000; stroke-width: 0.8"/>
      </defs>
      <g>
       <use xlink:href="#m503d281245" x="47.45" y="387.16" style="stroke: #000000; stroke-width: 0.8"/>
      </g>
     </g>
     <g id="text_1">
      <!-- 0 -->
      <g transform="translate(44.26875 401.758438) scale(0.1 -0.1)">
       <defs>
        <path id="DejaVuSans-30" d="M 2034 4250 
Q 1547 4250 1301 3770 
Q 1056 3291 1056 2328 
Q 1056 1369 1301 889 
Q 1547 409 2034 409 
Q 2525 409 2770 889 
Q 3016 1369 3016 2328 
Q 3016 3291 2770 3770 
Q 2525 4250 2034 4250 
z
M 2034 4750 
Q 2819 4750 3233 4129 
Q 3647 3509 3647 2328 
Q 3647 1150 3233 529 
Q 2819 -91 2034 -91 
Q 1250 -91 836 529 
Q 422 1150 422 2328 
Q 422 3509 836 4129 
Q 1250 4750 2034 4750 
z
" transform="scale(0.015625)"/>
       </defs>
       <use xlink:href="#DejaVuSans-30"/>
      </g>
     </g>
    </g>
    <g id="xtick_2">
     <g id="line2d_2">
      <g>
       <use xlink:href="#m503d281245" x="145.454833" y="387.16" style="stroke: #000000; stroke-width: 0.8"/>
      </g>
     </g>
     <g id="text_2">
      <!-- 5 -->
      <g transform="translate(142.273583 401.758438) scale(0.1 -0.1)">
       <defs>
        <path id="DejaVuSans-35" d="M 691 4666 
L 3169 4666 
L 3169 4134 
L 1269 4134 
L 1269 2991 
Q 1406 3038 1543 3061 
Q 1681 3084 1819 3084 
Q 2600 3084 3056 2656 
Q 3513 2228 3513 1497 
Q 3513 744 3044 326 
Q 2575 -91 1722 -91 
Q 1428 -91 1123 -41 
Q 819 9 494 109 
L 494 744 
Q 775 591 1075 516 
Q 1375 441 1709 441 
Q 2250 441 2565 725 
Q 2881 1009 2881 1497 
Q 2881 1984 2565 2268 
Q 2250 2553 1709 2553 
Q 1456 2553 1204 2497 
Q 953 2441 691 2322 
L 691 4666 
z
" transform="scale(0.015625)"/>
       </defs>
       <use xlink:href="#DejaVuSans-35"/>
      </g>
     </g>
    </g>
    <g id="xtick_3">
     <g id="line2d_3">
      <g>
       <use xlink:href="#m503d281245" x="243.459666" y="387.16" style="stroke: #000000; stroke-width: 0.8"/>
      </g>
     </g>
     <g id="text_3">
      <!-- 10 -->
      <g transform="translate(237.097166 401.758438) scale(0.1 -0.1)">
       <defs>
        <path id="DejaVuSans-31" d="M 794 531 
L 1825 531 
L 1825 4091 
L 703 3866 
L 703 4441 
L 1819 4666 
L 2450 4666 
L 2450 531 
L 3481 531 
L 3481 0 
L 794 0 
L 794 531 
z
" transform="scale(0.015625)"/>
       </defs>
       <use xlink:href="#DejaVuSans-31"/>
       <use xlink:href="#DejaVuSans-30" x="63.623047"/>
      </g>
     </g>
    </g>
    <g id="xtick_4">
     <g id="line2d_4">
      <g>
       <use xlink:href="#m503d281245" x="341.464499" y="387.16" style="stroke: #000000; stroke-width: 0.8"/>
      </g>
     </g>
     <g id="text_4">
      <!-- 15 -->
      <g transform="translate(335.101999 401.758438) scale(0.1 -0.1)">
       <use xlink:href="#DejaVuSans-31"/>
       <use xlink:href="#DejaVuSans-35" x="63.623047"/>
      </g>
     </g>
    </g>
    <g id="xtick_5">
     <g id="line2d_5">
      <g>
       <use xlink:href="#m503d281245" x="439.469331" y="387.16" style="stroke: #000000; stroke-width: 0.8"/>
      </g>
     </g>
     <g id="text_5">
      <!-- 20 -->
      <g transform="translate(433.106831 401.758438) scale(0.1 -0.1)">
       <defs>
        <path id="DejaVuSans-32" d="M 1228 531 
L 3431 531 
L 3431 0 
L 469 0 
L 469 531 
Q 828 903 1448 1529 
Q 2069 2156 2228 2338 
Q 2531 2678 2651 2914 
Q 2772 3150 2772 3378 
Q 2772 3750 2511 3984 
Q 2250 4219 1831 4219 
Q 1534 4219 1204 4116 
Q 875 4013 500 3803 
L 500 4441 
Q 881 4594 1212 4672 
Q 1544 4750 1819 4750 
Q 2544 4750 2975 4387 
Q 3406 4025 3406 3419 
Q 3406 3131 3298 2873 
Q 3191 2616 2906 2266 
Q 2828 2175 2409 1742 
Q 1991 1309 1228 531 
z
" transform="scale(0.015625)"/>
       </defs>
       <use xlink:href="#DejaVuSans-32"/>
       <use xlink:href="#DejaVuSans-30" x="63.623047"/>
      </g>
     </g>
    </g>
    <g id="xtick_6">
     <g id="line2d_6">
      <g>
       <use xlink:href="#m503d281245" x="537.474164" y="387.16" style="stroke: #000000; stroke-width: 0.8"/>
      </g>
     </g>
     <g id="text_6">
      <!-- 25 -->
      <g transform="translate(531.111664 401.758438) scale(0.1 -0.1)">
       <use xlink:href="#DejaVuSans-32"/>
       <use xlink:href="#DejaVuSans-35" x="63.623047"/>
      </g>
     </g>
    </g>
    <g id="xtick_7">
     <g id="line2d_7">
      <g>
       <use xlink:href="#m503d281245" x="635.478997" y="387.16" style="stroke: #000000; stroke-width: 0.8"/>
      </g>
     </g>
     <g id="text_7">
      <!-- 30 -->
      <g transform="translate(629.116497 401.758438) scale(0.1 -0.1)">
       <defs>
        <path id="DejaVuSans-33" d="M 2597 2516 
Q 3050 2419 3304 2112 
Q 3559 1806 3559 1356 
Q 3559 666 3084 287 
Q 2609 -91 1734 -91 
Q 1441 -91 1130 -33 
Q 819 25 488 141 
L 488 750 
Q 750 597 1062 519 
Q 1375 441 1716 441 
Q 2309 441 2620 675 
Q 2931 909 2931 1356 
Q 2931 1769 2642 2001 
Q 2353 2234 1838 2234 
L 1294 2234 
L 1294 2753 
L 1863 2753 
Q 2328 2753 2575 2939 
Q 2822 3125 2822 3475 
Q 2822 3834 2567 4026 
Q 2313 4219 1838 4219 
Q 1578 4219 1281 4162 
Q 984 4106 628 3988 
L 628 4550 
Q 988 4650 1302 4700 
Q 1616 4750 1894 4750 
Q 2613 4750 3031 4423 
Q 3450 4097 3450 3541 
Q 3450 3153 3228 2886 
Q 3006 2619 2597 2516 
z
" transform="scale(0.015625)"/>
       </defs>
       <use xlink:href="#DejaVuSans-33"/>
       <use xlink:href="#DejaVuSans-30" x="63.623047"/>
      </g>
     </g>
    </g>
    <g id="xtick_8">
     <g id="line2d_8">
      <g>
       <use xlink:href="#m503d281245" x="733.48383" y="387.16" style="stroke: #000000; stroke-width: 0.8"/>
      </g>
     </g>
     <g id="text_8">
      <!-- 35 -->
      <g transform="translate(727.12133 401.758438) scale(0.1 -0.1)">
       <use xlink:href="#DejaVuSans-33"/>
       <use xlink:href="#DejaVuSans-35" x="63.623047"/>
      </g>
     </g>
    </g>
    <g id="xtick_9">
     <g id="line2d_9">
      <g>
       <use xlink:href="#m503d281245" x="831.488663" y="387.16" style="stroke: #000000; stroke-width: 0.8"/>
      </g>
     </g>
     <g id="text_9">
      <!-- 40 -->
      <g transform="translate(825.126163 401.758438) scale(0.1 -0.1)">
       <defs>
        <path id="DejaVuSans-34" d="M 2419 4116 
L 825 1625 
L 2419 1625 
L 2419 4116 
z
M 2253 4666 
L 3047 4666 
L 3047 1625 
L 3713 1625 
L 3713 1100 
L 3047 1100 
L 3047 0 
L 2419 0 
L 2419 1100 
L 313 1100 
L 313 1709 
L 2253 4666 
z
" transform="scale(0.015625)"/>
       </defs>
       <use xlink:href="#DejaVuSans-34"/>
       <use xlink:href="#DejaVuSans-30" x="63.623047"/>
      </g>
     </g>
    </g>
    <g id="text_10">
     <!-- Test duration (Minutes) -->
     <g transform="translate(381.14875 416.95625) scale(0.12 -0.12)">
      <defs>
       <path id="DejaVuSans-54" d="M -19 4666 
L 3928 4666 
L 3928 4134 
L 2272 4134 
L 2272 0 
L 1638 0 
L 1638 4134 
L -19 4134 
L -19 4666 
z
" transform="scale(0.015625)"/>
       <path id="DejaVuSans-65" d="M 3597 1894 
L 3597 1613 
L 953 1613 
Q 991 1019 1311 708 
Q 1631 397 2203 397 
Q 2534 397 2845 478 
Q 3156 559 3463 722 
L 3463 178 
Q 3153 47 2828 -22 
Q 2503 -91 2169 -91 
Q 1331 -91 842 396 
Q 353 884 353 1716 
Q 353 2575 817 3079 
Q 1281 3584 2069 3584 
Q 2775 3584 3186 3129 
Q 3597 2675 3597 1894 
z
M 3022 2063 
Q 3016 2534 2758 2815 
Q 2500 3097 2075 3097 
Q 1594 3097 1305 2825 
Q 1016 2553 972 2059 
L 3022 2063 
z
" transform="scale(0.015625)"/>
       <path id="DejaVuSans-73" d="M 2834 3397 
L 2834 2853 
Q 2591 2978 2328 3040 
Q 2066 3103 1784 3103 
Q 1356 3103 1142 2972 
Q 928 2841 928 2578 
Q 928 2378 1081 2264 
Q 1234 2150 1697 2047 
L 1894 2003 
Q 2506 1872 2764 1633 
Q 3022 1394 3022 966 
Q 3022 478 2636 193 
Q 2250 -91 1575 -91 
Q 1294 -91 989 -36 
Q 684 19 347 128 
L 347 722 
Q 666 556 975 473 
Q 1284 391 1588 391 
Q 1994 391 2212 530 
Q 2431 669 2431 922 
Q 2431 1156 2273 1281 
Q 2116 1406 1581 1522 
L 1381 1569 
Q 847 1681 609 1914 
Q 372 2147 372 2553 
Q 372 3047 722 3315 
Q 1072 3584 1716 3584 
Q 2034 3584 2315 3537 
Q 2597 3491 2834 3397 
z
" transform="scale(0.015625)"/>
       <path id="DejaVuSans-74" d="M 1172 4494 
L 1172 3500 
L 2356 3500 
L 2356 3053 
L 1172 3053 
L 1172 1153 
Q 1172 725 1289 603 
Q 1406 481 1766 481 
L 2356 481 
L 2356 0 
L 1766 0 
Q 1100 0 847 248 
Q 594 497 594 1153 
L 594 3053 
L 172 3053 
L 172 3500 
L 594 3500 
L 594 4494 
L 1172 4494 
z
" transform="scale(0.015625)"/>
       <path id="DejaVuSans-20" transform="scale(0.015625)"/>
       <path id="DejaVuSans-64" d="M 2906 2969 
L 2906 4863 
L 3481 4863 
L 3481 0 
L 2906 0 
L 2906 525 
Q 2725 213 2448 61 
Q 2172 -91 1784 -91 
Q 1150 -91 751 415 
Q 353 922 353 1747 
Q 353 2572 751 3078 
Q 1150 3584 1784 3584 
Q 2172 3584 2448 3432 
Q 2725 3281 2906 2969 
z
M 947 1747 
Q 947 1113 1208 752 
Q 1469 391 1925 391 
Q 2381 391 2643 752 
Q 2906 1113 2906 1747 
Q 2906 2381 2643 2742 
Q 2381 3103 1925 3103 
Q 1469 3103 1208 2742 
Q 947 2381 947 1747 
z
" transform="scale(0.015625)"/>
       <path id="DejaVuSans-75" d="M 544 1381 
L 544 3500 
L 1119 3500 
L 1119 1403 
Q 1119 906 1312 657 
Q 1506 409 1894 409 
Q 2359 409 2629 706 
Q 2900 1003 2900 1516 
L 2900 3500 
L 3475 3500 
L 3475 0 
L 2900 0 
L 2900 538 
Q 2691 219 2414 64 
Q 2138 -91 1772 -91 
Q 1169 -91 856 284 
Q 544 659 544 1381 
z
M 1991 3584 
L 1991 3584 
z
" transform="scale(0.015625)"/>
       <path id="DejaVuSans-72" d="M 2631 2963 
Q 2534 3019 2420 3045 
Q 2306 3072 2169 3072 
Q 1681 3072 1420 2755 
Q 1159 2438 1159 1844 
L 1159 0 
L 581 0 
L 581 3500 
L 1159 3500 
L 1159 2956 
Q 1341 3275 1631 3429 
Q 1922 3584 2338 3584 
Q 2397 3584 2469 3576 
Q 2541 3569 2628 3553 
L 2631 2963 
z
" transform="scale(0.015625)"/>
       <path id="DejaVuSans-61" d="M 2194 1759 
Q 1497 1759 1228 1600 
Q 959 1441 959 1056 
Q 959 750 1161 570 
Q 1363 391 1709 391 
Q 2188 391 2477 730 
Q 2766 1069 2766 1631 
L 2766 1759 
L 2194 1759 
z
M 3341 1997 
L 3341 0 
L 2766 0 
L 2766 531 
Q 2569 213 2275 61 
Q 1981 -91 1556 -91 
Q 1019 -91 701 211 
Q 384 513 384 1019 
Q 384 1609 779 1909 
Q 1175 2209 1959 2209 
L 2766 2209 
L 2766 2266 
Q 2766 2663 2505 2880 
Q 2244 3097 1772 3097 
Q 1472 3097 1187 3025 
Q 903 2953 641 2809 
L 641 3341 
Q 956 3463 1253 3523 
Q 1550 3584 1831 3584 
Q 2591 3584 2966 3190 
Q 3341 2797 3341 1997 
z
" transform="scale(0.015625)"/>
       <path id="DejaVuSans-69" d="M 603 3500 
L 1178 3500 
L 1178 0 
L 603 0 
L 603 3500 
z
M 603 4863 
L 1178 4863 
L 1178 4134 
L 603 4134 
L 603 4863 
z
" transform="scale(0.015625)"/>
       <path id="DejaVuSans-6f" d="M 1959 3097 
Q 1497 3097 1228 2736 
Q 959 2375 959 1747 
Q 959 1119 1226 758 
Q 1494 397 1959 397 
Q 2419 397 2687 759 
Q 2956 1122 2956 1747 
Q 2956 2369 2687 2733 
Q 2419 3097 1959 3097 
z
M 1959 3584 
Q 2709 3584 3137 3096 
Q 3566 2609 3566 1747 
Q 3566 888 3137 398 
Q 2709 -91 1959 -91 
Q 1206 -91 779 398 
Q 353 888 353 1747 
Q 353 2609 779 3096 
Q 1206 3584 1959 3584 
z
" transform="scale(0.015625)"/>
       <path id="DejaVuSans-6e" d="M 3513 2113 
L 3513 0 
L 2938 0 
L 2938 2094 
Q 2938 2591 2744 2837 
Q 2550 3084 2163 3084 
Q 1697 3084 1428 2787 
Q 1159 2491 1159 1978 
L 1159 0 
L 581 0 
L 581 3500 
L 1159 3500 
L 1159 2956 
Q 1366 3272 1645 3428 
Q 1925 3584 2291 3584 
Q 2894 3584 3203 3211 
Q 3513 2838 3513 2113 
z
" transform="scale(0.015625)"/>
       <path id="DejaVuSans-28" d="M 1984 4856 
Q 1566 4138 1362 3434 
Q 1159 2731 1159 2009 
Q 1159 1288 1364 580 
Q 1569 -128 1984 -844 
L 1484 -844 
Q 1016 -109 783 600 
Q 550 1309 550 2009 
Q 550 2706 781 3412 
Q 1013 4119 1484 4856 
L 1984 4856 
z
" transform="scale(0.015625)"/>
       <path id="DejaVuSans-4d" d="M 628 4666 
L 1569 4666 
L 2759 1491 
L 3956 4666 
L 4897 4666 
L 4897 0 
L 4281 0 
L 4281 4097 
L 3078 897 
L 2444 897 
L 1241 4097 
L 1241 0 
L 628 0 
L 628 4666 
z
" transform="scale(0.015625)"/>
       <path id="DejaVuSans-29" d="M 513 4856 
L 1013 4856 
Q 1481 4119 1714 3412 
Q 1947 2706 1947 2009 
Q 1947 1309 1714 600 
Q 1481 -109 1013 -844 
L 513 -844 
Q 928 -128 1133 580 
Q 1338 1288 1338 2009 
Q 1338 2731 1133 3434 
Q 928 4138 513 4856 
z
" transform="scale(0.015625)"/>
      </defs>
      <use xlink:href="#DejaVuSans-54"/>
      <use xlink:href="#DejaVuSans-65" x="44.083984"/>
      <use xlink:href="#DejaVuSans-73" x="105.607422"/>
      <use xlink:href="#DejaVuSans-74" x="157.707031"/>
      <use xlink:href="#DejaVuSans-20" x="196.916016"/>
      <use xlink:href="#DejaVuSans-64" x="228.703125"/>
      <use xlink:href="#DejaVuSans-75" x="292.179688"/>
      <use xlink:href="#DejaVuSans-72" x="355.558594"/>
      <use xlink:href="#DejaVuSans-61" x="396.671875"/>
      <use xlink:href="#DejaVuSans-74" x="457.951172"/>
      <use xlink:href="#DejaVuSans-69" x="497.160156"/>
      <use xlink:href="#DejaVuSans-6f" x="524.943359"/>
      <use xlink:href="#DejaVuSans-6e" x="586.125"/>
      <use xlink:href="#DejaVuSans-20" x="649.503906"/>
      <use xlink:href="#DejaVuSans-28" x="681.291016"/>
      <use xlink:href="#DejaVuSans-4d" x="720.304688"/>
      <use xlink:href="#DejaVuSans-69" x="806.583984"/>
      <use xlink:href="#DejaVuSans-6e" x="834.367188"/>
      <use xlink:href="#DejaVuSans-75" x="897.746094"/>
      <use xlink:href="#DejaVuSans-74" x="961.125"/>
      <use xlink:href="#DejaVuSans-65" x="1000.333984"/>
      <use xlink:href="#DejaVuSans-73" x="1061.857422"/>
      <use xlink:href="#DejaVuSans-29" x="1113.957031"/>
     </g>
    </g>
   </g>
   <g id="matplotlib.axis_2">
    <g id="ytick_1">
     <g id="line2d_10">
      <defs>
       <path id="me1f32336be" d="M 0 0 
L -3.5 0 
" style="stroke: #000000; stroke-width: 0.8"/>
      </defs>
      <g>
       <use xlink:href="#me1f32336be" x="47.45" y="387.16" style="stroke: #000000; stroke-width: 0.8"/>
      </g>
     </g>
     <g id="text_11">
      <!-- 0 -->
      <g transform="translate(34.0875 390.959219) scale(0.1 -0.1)">
       <use xlink:href="#DejaVuSans-30"/>
      </g>
     </g>
    </g>
    <g id="ytick_2">
     <g id="line2d_11">
      <g>
       <use xlink:href="#me1f32336be" x="47.45" y="312.680963" style="stroke: #000000; stroke-width: 0.8"/>
      </g>
     </g>
     <g id="text_12">
      <!-- 20 -->
      <g transform="translate(27.725 316.480182) scale(0.1 -0.1)">
       <use xlink:href="#DejaVuSans-32"/>
       <use xlink:href="#DejaVuSans-30" x="63.623047"/>
      </g>
     </g>
    </g>
    <g id="ytick_3">
     <g id="line2d_12">
      <g>
       <use xlink:href="#me1f32336be" x="47.45" y="238.201926" style="stroke: #000000; stroke-width: 0.8"/>
      </g>
     </g>
     <g id="text_13">
      <!-- 40 -->
      <g transform="translate(27.725 242.001145) scale(0.1 -0.1)">
       <use xlink:href="#DejaVuSans-34"/>
       <use xlink:href="#DejaVuSans-30" x="63.623047"/>
      </g>
     </g>
    </g>
    <g id="ytick_4">
     <g id="line2d_13">
      <g>
       <use xlink:href="#me1f32336be" x="47.45" y="163.722889" style="stroke: #000000; stroke-width: 0.8"/>
      </g>
     </g>
     <g id="text_14">
      <!-- 60 -->
      <g transform="translate(27.725 167.522108) scale(0.1 -0.1)">
       <defs>
        <path id="DejaVuSans-36" d="M 2113 2584 
Q 1688 2584 1439 2293 
Q 1191 2003 1191 1497 
Q 1191 994 1439 701 
Q 1688 409 2113 409 
Q 2538 409 2786 701 
Q 3034 994 3034 1497 
Q 3034 2003 2786 2293 
Q 2538 2584 2113 2584 
z
M 3366 4563 
L 3366 3988 
Q 3128 4100 2886 4159 
Q 2644 4219 2406 4219 
Q 1781 4219 1451 3797 
Q 1122 3375 1075 2522 
Q 1259 2794 1537 2939 
Q 1816 3084 2150 3084 
Q 2853 3084 3261 2657 
Q 3669 2231 3669 1497 
Q 3669 778 3244 343 
Q 2819 -91 2113 -91 
Q 1303 -91 875 529 
Q 447 1150 447 2328 
Q 447 3434 972 4092 
Q 1497 4750 2381 4750 
Q 2619 4750 2861 4703 
Q 3103 4656 3366 4563 
z
" transform="scale(0.015625)"/>
       </defs>
       <use xlink:href="#DejaVuSans-36"/>
       <use xlink:href="#DejaVuSans-30" x="63.623047"/>
      </g>
     </g>
    </g>
    <g id="ytick_5">
     <g id="line2d_14">
      <g>
       <use xlink:href="#me1f32336be" x="47.45" y="89.243852" style="stroke: #000000; stroke-width: 0.8"/>
      </g>
     </g>
     <g id="text_15">
      <!-- 80 -->
      <g transform="translate(27.725 93.043071) scale(0.1 -0.1)">
       <defs>
        <path id="DejaVuSans-38" d="M 2034 2216 
Q 1584 2216 1326 1975 
Q 1069 1734 1069 1313 
Q 1069 891 1326 650 
Q 1584 409 2034 409 
Q 2484 409 2743 651 
Q 3003 894 3003 1313 
Q 3003 1734 2745 1975 
Q 2488 2216 2034 2216 
z
M 1403 2484 
Q 997 2584 770 2862 
Q 544 3141 544 3541 
Q 544 4100 942 4425 
Q 1341 4750 2034 4750 
Q 2731 4750 3128 4425 
Q 3525 4100 3525 3541 
Q 3525 3141 3298 2862 
Q 3072 2584 2669 2484 
Q 3125 2378 3379 2068 
Q 3634 1759 3634 1313 
Q 3634 634 3220 271 
Q 2806 -91 2034 -91 
Q 1263 -91 848 271 
Q 434 634 434 1313 
Q 434 1759 690 2068 
Q 947 2378 1403 2484 
z
M 1172 3481 
Q 1172 3119 1398 2916 
Q 1625 2713 2034 2713 
Q 2441 2713 2670 2916 
Q 2900 3119 2900 3481 
Q 2900 3844 2670 4047 
Q 2441 4250 2034 4250 
Q 1625 4250 1398 4047 
Q 1172 3844 1172 3481 
z
" transform="scale(0.015625)"/>
       </defs>
       <use xlink:href="#DejaVuSans-38"/>
       <use xlink:href="#DejaVuSans-30" x="63.623047"/>
      </g>
     </g>
    </g>
    <g id="text_16">
     <!-- Temperature (°C) -->
     <g transform="translate(21.229375 259.521875) rotate(-90) scale(0.12 -0.12)">
      <defs>
       <path id="DejaVuSans-6d" d="M 3328 2828 
Q 3544 3216 3844 3400 
Q 4144 3584 4550 3584 
Q 5097 3584 5394 3201 
Q 5691 2819 5691 2113 
L 5691 0 
L 5113 0 
L 5113 2094 
Q 5113 2597 4934 2840 
Q 4756 3084 4391 3084 
Q 3944 3084 3684 2787 
Q 3425 2491 3425 1978 
L 3425 0 
L 2847 0 
L 2847 2094 
Q 2847 2600 2669 2842 
Q 2491 3084 2119 3084 
Q 1678 3084 1418 2786 
Q 1159 2488 1159 1978 
L 1159 0 
L 581 0 
L 581 3500 
L 1159 3500 
L 1159 2956 
Q 1356 3278 1631 3431 
Q 1906 3584 2284 3584 
Q 2666 3584 2933 3390 
Q 3200 3197 3328 2828 
z
" transform="scale(0.015625)"/>
       <path id="DejaVuSans-70" d="M 1159 525 
L 1159 -1331 
L 581 -1331 
L 581 3500 
L 1159 3500 
L 1159 2969 
Q 1341 3281 1617 3432 
Q 1894 3584 2278 3584 
Q 2916 3584 3314 3078 
Q 3713 2572 3713 1747 
Q 3713 922 3314 415 
Q 2916 -91 2278 -91 
Q 1894 -91 1617 61 
Q 1341 213 1159 525 
z
M 3116 1747 
Q 3116 2381 2855 2742 
Q 2594 3103 2138 3103 
Q 1681 3103 1420 2742 
Q 1159 2381 1159 1747 
Q 1159 1113 1420 752 
Q 1681 391 2138 391 
Q 2594 391 2855 752 
Q 3116 1113 3116 1747 
z
" transform="scale(0.015625)"/>
       <path id="DejaVuSans-b0" d="M 1600 4347 
Q 1350 4347 1178 4173 
Q 1006 4000 1006 3750 
Q 1006 3503 1178 3333 
Q 1350 3163 1600 3163 
Q 1850 3163 2022 3333 
Q 2194 3503 2194 3750 
Q 2194 3997 2020 4172 
Q 1847 4347 1600 4347 
z
M 1600 4750 
Q 1800 4750 1984 4673 
Q 2169 4597 2303 4453 
Q 2447 4313 2519 4134 
Q 2591 3956 2591 3750 
Q 2591 3338 2302 3052 
Q 2013 2766 1594 2766 
Q 1172 2766 890 3047 
Q 609 3328 609 3750 
Q 609 4169 896 4459 
Q 1184 4750 1600 4750 
z
" transform="scale(0.015625)"/>
       <path id="DejaVuSans-43" d="M 4122 4306 
L 4122 3641 
Q 3803 3938 3442 4084 
Q 3081 4231 2675 4231 
Q 1875 4231 1450 3742 
Q 1025 3253 1025 2328 
Q 1025 1406 1450 917 
Q 1875 428 2675 428 
Q 3081 428 3442 575 
Q 3803 722 4122 1019 
L 4122 359 
Q 3791 134 3420 21 
Q 3050 -91 2638 -91 
Q 1578 -91 968 557 
Q 359 1206 359 2328 
Q 359 3453 968 4101 
Q 1578 4750 2638 4750 
Q 3056 4750 3426 4639 
Q 3797 4528 4122 4306 
z
" transform="scale(0.015625)"/>
      </defs>
      <use xlink:href="#DejaVuSans-54"/>
      <use xlink:href="#DejaVuSans-65" x="44.083984"/>
      <use xlink:href="#DejaVuSans-6d" x="105.607422"/>
      <use xlink:href="#DejaVuSans-70" x="203.019531"/>
      <use xlink:href="#DejaVuSans-65" x="266.496094"/>
      <use xlink:href="#DejaVuSans-72" x="328.019531"/>
      <use xlink:href="#DejaVuSans-61" x="369.132812"/>
      <use xlink:href="#DejaVuSans-74" x="430.412109"/>
      <use xlink:href="#DejaVuSans-75" x="469.621094"/>
      <use xlink:href="#DejaVuSans-72" x="533"/>
      <use xlink:href="#DejaVuSans-65" x="571.863281"/>
      <use xlink:href="#DejaVuSans-20" x="633.386719"/>
      <use xlink:href="#DejaVuSans-28" x="665.173828"/>
      <use xlink:href="#DejaVuSans-b0" x="704.1875"/>
      <use xlink:href="#DejaVuSans-43" x="754.1875"/>
      <use xlink:href="#DejaVuSans-29" x="824.011719"/>
     </g>
    </g>
   </g>
   <g id="line2d_15">
    <path d="M 204.257733 387.16 
L 206.214562 387.16 
L 206.875768 209.155102 
L 208.182826 206.17594 
L 209.490864 202.824384 
L 210.276863 201.334803 
L 210.804129 204.686359 
L 211.463375 197.238456 
L 212.120987 196.866061 
L 212.776966 199.472827 
L 213.427065 194.259294 
L 214.085657 196.866061 
L 214.74327 196.493665 
L 216.056861 194.259294 
L 216.71676 194.631689 
L 217.373066 192.397318 
L 218.024798 151.061453 
L 218.671957 138.400017 
L 219.328916 174.52235 
L 219.984241 182.715044 
L 220.64218 182.715044 
L 221.293913 140.634388 
L 221.953485 134.30367 
L 222.605217 122.387024 
L 223.256949 141.751573 
L 223.908682 129.090137 
L 224.560414 127.600556 
L 225.215086 125.73858 
L 225.867798 134.676065 
L 226.524104 123.131814 
L 227.175183 118.290677 
L 227.828222 119.407862 
L 228.48322 114.566725 
L 229.138546 114.566725 
L 229.795505 111.959958 
L 230.451484 111.959958 
L 231.106483 111.215168 
L 231.761482 110.842773 
L 232.423995 108.608402 
L 233.07736 109.353192 
L 233.733993 108.980797 
L 234.392585 106.001636 
L 235.043011 137.655226 
L 235.69997 142.868759 
L 236.351375 145.10313 
L 237.004087 149.944267 
L 237.655166 149.944267 
L 238.313432 151.433848 
L 238.966797 111.215168 
L 239.62539 108.980797 
L 240.277122 102.277684 
L 240.929508 89.616247 
L 241.5832 89.988643 
L 242.238852 88.499062 
L 242.896138 88.499062 
L 243.55277 89.243852 
L 244.205156 85.147505 
L 244.859501 84.77511 
L 245.511234 126.855766 
L 246.168519 133.558879 
L 246.824498 131.696903 
L 247.477864 135.420855 
L 248.138416 137.655226 
L 248.791782 138.027621 
L 249.444494 133.186484 
L 250.747958 134.676065 
L 251.410798 135.04846 
L 252.062203 102.650079 
L 252.721122 98.181337 
L 253.376448 89.616247 
L 254.027853 84.402715 
L 254.684813 82.168344 
L 255.338505 78.816787 
L 256.648503 75.837626 
L 257.307749 78.444392 
L 257.959154 73.230859 
L 258.616113 72.858464 
L 259.267192 72.113674 
L 259.919577 70.624093 
L 260.579477 71.368883 
L 261.230555 71.741279 
L 261.884248 69.879303 
L 262.543167 68.389722 
L 263.849898 66.900141 
L 264.513717 66.900141 
L 265.172963 65.782956 
L 265.823062 65.41056 
L 266.480021 66.900141 
L 267.13502 66.527746 
L 267.797532 64.66577 
L 268.453838 66.527746 
L 269.103284 64.66577 
L 269.761876 64.66577 
L 270.412955 64.293375 
L 271.721973 65.782956 
L 272.378278 62.431399 
L 273.029357 65.038165 
L 273.69089 63.92098 
L 275.002194 65.41056 
L 275.651966 66.900141 
L 276.307292 66.155351 
L 276.962291 66.527746 
L 277.61533 65.038165 
L 278.277189 65.41056 
L 278.924348 64.66577 
L 279.585227 64.66577 
L 280.240879 63.92098 
L 280.899145 65.782956 
L 281.560024 65.782956 
L 282.21437 62.803794 
L 282.865776 64.293375 
L 283.522735 65.41056 
L 284.829792 65.41056 
L 285.481198 65.782956 
L 286.140117 63.92098 
L 287.450115 63.92098 
L 288.107074 92.967804 
L 288.756846 100.788103 
L 289.413152 98.553732 
L 290.070437 100.415708 
L 290.726417 101.905289 
L 291.386642 103.022474 
L 292.043275 104.512055 
L 292.69566 105.256845 
L 293.355886 107.491216 
L 294.009578 74.348045 
L 294.666537 66.900141 
L 295.32415 61.686609 
L 295.985356 63.176189 
L 296.638721 67.644932 
L 297.289473 62.059004 
L 297.943819 63.176189 
L 298.600778 69.134512 
L 299.259044 63.92098 
L 299.918616 64.293375 
L 300.572309 69.506907 
L 301.224041 73.603254 
L 301.875446 127.228161 
L 302.531425 139.144807 
L 303.183157 141.751573 
L 303.840117 147.709896 
L 304.500996 151.806243 
L 305.155015 155.1578 
L 305.820141 126.483371 
L 306.469259 113.077144 
L 307.127852 146.965106 
L 307.781871 107.118821 
L 308.433276 102.277684 
L 309.082722 99.298522 
L 310.40252 100.043313 
L 311.052292 106.001636 
L 311.705984 97.064151 
L 312.35837 103.022474 
L 313.016309 104.512055 
L 313.673595 103.767264 
L 314.3299 102.277684 
L 314.984899 119.780257 
L 315.643492 120.897443 
L 316.29065 120.152653 
L 316.946629 123.131814 
L 317.597708 121.269838 
L 318.254341 122.387024 
L 318.91228 126.483371 
L 319.561072 124.249 
L 320.218031 120.897443 
L 320.87499 111.959958 
L 321.532276 123.131814 
L 322.184334 123.504209 
L 323.490412 165.95726 
L 324.147045 171.915583 
L 325.457369 177.501511 
L 326.106815 140.634388 
L 326.759853 172.660374 
L 327.416159 180.480672 
L 328.070178 183.087439 
L 328.728117 143.613549 
L 329.382136 135.420855 
L 330.033868 130.207323 
L 330.685927 139.889597 
L 331.346806 138.027621 
L 331.999845 140.634388 
L 332.652884 138.772412 
L 333.309516 138.027621 
L 333.966802 139.517202 
L 334.618534 140.261993 
L 335.270593 139.889597 
L 335.922325 137.655226 
L 336.577324 126.483371 
L 337.23657 122.387024 
L 337.889936 122.759419 
L 338.546568 126.483371 
L 339.203527 120.152653 
L 339.855259 115.311515 
L 340.514178 118.663072 
L 341.171464 116.428701 
L 341.82973 117.173491 
L 342.487996 119.407862 
L 343.145608 115.68391 
L 343.801587 114.93912 
L 344.455606 114.566725 
L 345.108318 113.821934 
L 346.412436 113.821934 
L 347.067108 113.449539 
L 347.722434 118.663072 
L 348.376779 120.897443 
L 349.033738 114.93912 
L 349.67959 118.663072 
L 350.337203 114.93912 
L 350.991875 116.801096 
L 351.651774 116.801096 
L 352.304486 111.215168 
L 352.962426 119.035467 
L 354.274384 116.801096 
L 354.925136 115.311515 
L 355.578501 112.704749 
L 356.232847 113.821934 
L 356.886539 114.566725 
L 357.535004 114.93912 
L 358.192617 113.449539 
L 358.845656 114.19433 
L 359.504575 113.821934 
L 360.163494 114.566725 
L 360.815879 114.19433 
L 361.467612 117.918281 
L 362.125877 112.704749 
L 362.776629 113.821934 
L 363.432282 114.19433 
L 364.093488 113.821934 
L 364.749467 116.056306 
L 365.403812 115.311515 
L 366.063385 112.704749 
L 366.71577 113.077144 
L 367.373709 113.821934 
L 368.031975 112.704749 
L 368.688281 113.077144 
L 369.344587 110.842773 
L 370.006446 112.332354 
L 370.658505 112.704749 
L 371.970136 114.19433 
L 372.629055 112.704749 
L 373.283728 111.587563 
L 373.936113 113.449539 
L 374.595686 113.821934 
L 375.245784 112.704749 
L 375.899477 112.332354 
L 376.553169 114.19433 
L 377.860227 111.215168 
L 378.512285 111.587563 
L 379.169244 112.704749 
L 379.82751 111.959958 
L 380.485776 112.332354 
L 381.794794 114.566725 
L 382.445219 118.290677 
L 383.103158 117.173491 
L 383.757831 114.566725 
L 384.414463 116.801096 
L 385.072402 115.68391 
L 385.728708 117.173491 
L 386.384687 116.428701 
L 387.034459 117.173491 
L 387.690438 114.93912 
L 388.343804 111.959958 
L 388.996189 113.077144 
L 389.651515 110.842773 
L 390.308147 113.449539 
L 390.960206 113.449539 
L 391.616512 113.821934 
L 392.270204 111.587563 
L 392.931083 114.566725 
L 393.582489 114.19433 
L 394.233567 112.704749 
L 394.88922 111.959958 
L 395.541278 114.566725 
L 396.195951 113.077144 
L 396.854217 111.959958 
L 397.509869 111.959958 
L 398.171075 110.470378 
L 398.823787 113.449539 
L 399.475846 114.566725 
L 400.132478 113.821934 
L 400.781597 115.311515 
L 401.434962 115.68391 
L 402.088001 111.959958 
L 402.74104 113.821934 
L 403.400939 116.056306 
L 404.056918 115.311515 
L 404.707671 116.801096 
L 405.367243 117.545886 
L 406.022569 112.704749 
L 406.685408 115.68391 
L 407.337467 115.311515 
L 407.989199 116.056306 
L 408.648772 114.19433 
L 409.302137 118.290677 
L 409.957136 113.449539 
L 410.610502 116.056306 
L 411.267461 114.566725 
L 411.92736 113.821934 
L 412.580072 113.449539 
L 413.231151 114.19433 
L 413.883536 115.311515 
L 414.546049 114.93912 
L 415.196801 113.449539 
L 415.8567 113.077144 
L 416.506799 110.842773 
L 417.165718 111.587563 
L 417.813203 113.821934 
L 418.474083 113.821934 
L 419.127448 112.704749 
L 419.784081 112.704749 
L 420.433526 114.566725 
L 421.096692 114.566725 
L 421.747117 115.311515 
L 422.40277 113.821934 
L 423.054502 110.470378 
L 423.708847 114.93912 
L 424.364827 121.269838 
L 425.019172 110.842773 
L 425.675478 111.587563 
L 426.328517 110.842773 
L 426.981229 111.587563 
L 427.634268 112.704749 
L 428.28796 114.566725 
L 428.941326 113.821934 
L 429.595671 115.68391 
L 430.249363 113.821934 
L 430.903382 112.704749 
L 431.557728 114.93912 
L 432.21338 113.821934 
L 432.866746 113.077144 
L 433.521745 113.077144 
L 434.174784 114.93912 
L 434.836316 113.449539 
L 435.486088 113.077144 
L 436.140434 131.324508 
L 436.797066 130.207323 
L 437.453372 131.696903 
L 438.106411 132.814089 
L 438.758796 135.04846 
L 440.066507 116.801096 
L 440.717913 117.918281 
L 441.373239 120.897443 
L 442.023337 119.780257 
L 442.67899 116.056306 
L 443.331048 115.311515 
L 443.988988 115.311515 
L 444.646273 114.93912 
L 445.299312 113.821934 
L 445.957251 141.379178 
L 446.610617 133.558879 
L 447.260716 132.069298 
L 447.916368 165.584865 
L 448.574634 174.149954 
L 449.879731 180.480672 
L 450.536037 181.970253 
L 451.189403 143.613549 
L 451.849629 136.910436 
L 452.501687 128.717742 
L 453.154726 153.295824 
L 453.807112 137.282831 
L 454.462764 140.261993 
L 455.120376 138.772412 
L 455.769495 140.261993 
L 456.425147 138.027621 
L 457.076226 139.144807 
L 457.733185 139.517202 
L 458.387858 128.717742 
L 459.044817 130.207323 
L 459.703082 122.387024 
L 460.355795 125.366185 
L 461.012754 125.366185 
L 461.668733 125.73858 
L 462.322425 122.387024 
L 462.975464 124.249 
L 463.636343 122.014628 
L 464.288729 118.663072 
L 464.937194 120.525048 
L 465.596113 119.035467 
L 466.251765 120.525048 
L 466.908071 121.642233 
L 467.565357 119.780257 
L 468.217089 128.345347 
L 468.872088 126.110976 
L 469.52578 123.131814 
L 470.178819 123.131814 
L 471.495024 114.19433 
L 472.146756 114.19433 
L 472.806329 118.290677 
L 473.448914 112.704749 
L 474.104566 168.564027 
L 474.762832 176.01193 
L 475.415544 128.717742 
L 476.070543 131.324508 
L 476.727829 130.207323 
L 477.380214 124.99379 
L 478.034886 124.621395 
L 478.699033 132.441694 
L 479.353051 129.090137 
L 480.010991 123.504209 
L 480.664029 119.407862 
L 481.325235 137.282831 
L 481.975661 137.282831 
L 482.630333 136.165645 
L 483.285005 132.814089 
L 483.940984 124.99379 
L 484.60317 128.717742 
L 485.258169 126.110976 
L 485.908595 122.759419 
L 486.559673 135.420855 
L 487.214672 132.441694 
L 487.866405 133.558879 
L 488.52271 133.558879 
L 489.177056 134.676065 
L 489.838589 134.30367 
L 490.495548 133.186484 
L 491.148913 136.165645 
L 491.810446 135.420855 
L 492.463811 135.79325 
L 493.126324 135.420855 
L 493.776423 135.420855 
L 494.432075 139.144807 
L 495.085767 136.165645 
L 495.74044 138.027621 
L 496.398379 139.144807 
L 497.049457 138.027621 
L 497.701516 140.634388 
L 498.364029 139.517202 
L 499.018048 137.282831 
L 499.67272 138.027621 
L 500.326412 138.400017 
L 500.982391 141.006783 
L 501.63935 139.144807 
L 502.295983 138.027621 
L 502.953595 140.634388 
L 503.608921 138.772412 
L 504.263593 138.400017 
L 504.920226 139.144807 
L 505.577511 140.634388 
L 506.23153 139.144807 
L 506.888163 139.517202 
L 507.545122 142.496364 
L 508.198161 140.634388 
L 508.851853 142.496364 
L 509.505872 142.868759 
L 510.161524 142.496364 
L 510.81489 139.889597 
L 511.472175 139.889597 
L 512.780867 141.379178 
L 513.442399 140.261993 
L 514.100338 143.241154 
L 514.757624 140.634388 
L 515.41295 141.006783 
L 516.065989 142.868759 
L 516.719354 142.868759 
L 517.37664 141.006783 
L 518.036212 143.985944 
L 518.689251 142.496364 
L 519.34131 141.379178 
L 519.996309 143.613549 
L 520.648041 143.613549 
L 521.3001 143.241154 
L 521.954119 140.261993 
L 522.615978 140.261993 
L 523.922383 143.241154 
L 524.574441 142.868759 
L 525.22552 143.241154 
L 525.882479 140.634388 
L 526.539438 141.751573 
L 527.193131 142.496364 
L 527.845516 142.123968 
L 528.496921 142.123968 
L 529.157474 142.868759 
L 529.810186 143.241154 
L 530.461918 141.751573 
L 531.116264 143.241154 
L 531.76963 144.35834 
L 532.422668 143.613549 
L 533.078647 141.006783 
L 533.73528 142.496364 
L 534.387339 143.613549 
L 535.047238 142.868759 
L 535.698317 144.35834 
L 536.352009 142.123968 
L 537.008315 143.613549 
L 537.659067 141.379178 
L 538.317986 143.985944 
L 538.972331 144.730735 
L 539.627657 136.165645 
L 540.280369 141.751573 
L 540.936675 139.144807 
L 541.594287 138.772412 
L 542.24896 141.379178 
L 542.901018 140.261993 
L 544.21265 142.496364 
L 544.869282 142.496364 
L 545.521014 142.868759 
L 546.176993 141.751573 
L 546.833626 142.496364 
L 547.484378 141.379178 
L 548.14101 140.634388 
L 548.791109 143.241154 
L 550.10372 143.241154 
L 550.768193 140.261993 
L 551.420905 140.634388 
L 552.077538 142.123968 
L 552.729596 140.634388 
L 553.383615 143.613549 
L 554.036654 131.696903 
L 554.694267 128.345347 
L 555.356779 122.014628 
L 556.013412 122.387024 
L 556.664491 118.290677 
L 557.319816 120.525048 
L 557.975468 118.663072 
L 558.630794 120.525048 
L 559.2871 118.663072 
L 559.946346 118.290677 
L 560.599711 119.035467 
L 561.24981 120.525048 
L 561.906769 119.407862 
L 562.561115 122.759419 
L 563.2135 118.290677 
L 563.875033 117.173491 
L 564.531992 118.663072 
L 565.190911 119.035467 
L 565.841336 117.173491 
L 567.155908 116.428701 
L 567.812214 119.035467 
L 568.472766 115.311515 
L 569.132992 115.311515 
L 569.785378 117.918281 
L 570.44299 116.801096 
L 571.096356 118.663072 
L 571.752661 115.311515 
L 572.40766 116.056306 
L 573.059392 118.290677 
L 573.718311 117.545886 
L 574.371024 114.19433 
L 575.028963 116.056306 
L 575.680368 115.311515 
L 576.332754 116.056306 
L 576.985466 114.19433 
L 577.644712 115.311515 
L 578.302978 114.566725 
L 578.956016 120.525048 
L 579.613302 117.918281 
L 580.269281 118.290677 
L 580.921993 117.173491 
L 582.224804 117.173491 
L 582.880457 116.056306 
L 584.191435 114.566725 
L 584.850027 115.68391 
L 585.505026 113.821934 
L 586.160025 114.566725 
L 586.813717 116.801096 
L 587.468716 113.077144 
L 588.121755 116.801096 
L 588.785901 114.93912 
L 589.433713 116.056306 
L 590.095572 117.545886 
L 590.754165 117.173491 
L 591.40557 112.704749 
L 592.064816 117.545886 
L 592.718182 116.056306 
L 593.374814 116.428701 
L 594.029813 115.68391 
L 594.687426 115.311515 
L 595.336217 116.428701 
L 595.98893 116.428701 
L 596.645562 113.821934 
L 597.303828 115.311515 
L 597.950333 113.821934 
L 598.612519 114.93912 
L 599.265558 113.821934 
L 599.919904 112.332354 
L 600.572942 116.428701 
L 601.228268 114.93912 
L 601.885554 115.68391 
L 602.542513 112.332354 
L 603.198492 113.449539 
L 603.859044 117.918281 
L 604.51045 114.566725 
L 605.170022 114.566725 
L 605.828288 113.449539 
L 606.486554 111.959958 
L 607.14188 113.449539 
L 607.794265 116.056306 
L 608.453184 113.449539 
L 609.10655 117.173491 
L 609.764489 114.566725 
L 610.410668 115.311515 
L 611.06828 132.069298 
L 611.723279 133.186484 
L 612.378278 159.998937 
L 613.03687 168.564027 
L 613.688276 134.676065 
L 614.345562 126.483371 
L 615.005461 120.897443 
L 615.655233 123.504209 
L 616.307945 120.525048 
L 616.962944 126.483371 
L 617.614676 117.918281 
L 618.272942 121.642233 
L 618.931208 123.131814 
L 619.59176 116.801096 
L 620.240226 127.228161 
L 620.895878 115.68391 
L 622.207183 127.600556 
L 622.863488 120.897443 
L 623.515874 118.290677 
L 624.170873 117.545886 
L 624.822605 124.249 
L 625.480871 124.99379 
L 626.139136 121.642233 
L 626.792502 122.387024 
L 627.442927 121.642233 
L 628.100213 123.504209 
L 628.752925 120.525048 
L 630.060963 117.545886 
L 630.722496 116.801096 
L 631.375535 115.311515 
L 632.033147 114.566725 
L 632.685859 149.199477 
L 633.345105 168.564027 
L 634.007618 174.52235 
L 634.659677 130.207323 
L 635.312062 129.090137 
L 635.972615 123.131814 
L 636.62304 135.79325 
L 637.278366 133.558879 
L 637.941205 134.676065 
L 638.592937 137.655226 
L 639.245649 135.420855 
L 639.901302 138.400017 
L 640.557607 129.090137 
L 641.207706 122.387024 
L 641.869565 123.504209 
L 642.518357 128.345347 
L 643.17695 121.642233 
L 643.833256 133.186484 
L 644.488255 134.676065 
L 645.144887 166.329655 
L 645.802826 176.384325 
L 646.459132 178.991092 
L 647.120011 180.108277 
L 647.770763 181.970253 
L 648.431969 184.949415 
L 649.081414 145.10313 
L 649.73086 135.420855 
L 650.391086 128.345347 
L 651.696837 123.504209 
L 652.352816 122.387024 
L 653.010102 125.73858 
L 653.66216 126.110976 
L 654.311932 124.99379 
L 654.970198 122.387024 
L 655.628464 120.525048 
L 656.278889 126.855766 
L 656.930295 120.525048 
L 657.594114 120.525048 
L 658.240619 121.642233 
L 658.900192 123.131814 
L 659.552577 119.780257 
L 660.211497 119.780257 
L 660.868782 119.035467 
L 661.520188 119.407862 
L 662.180087 121.642233 
L 662.837373 119.035467 
L 663.495965 118.290677 
L 664.158478 116.801096 
L 664.806943 116.428701 
L 665.463249 115.311515 
L 666.117595 115.311515 
L 666.770307 114.566725 
L 667.423019 115.311515 
L 668.080631 113.821934 
L 668.740531 114.566725 
L 669.398143 114.93912 
L 670.047588 114.566725 
L 671.353993 114.566725 
L 672.014872 118.290677 
L 672.667911 117.918281 
L 673.325197 119.035467 
L 673.983136 117.545886 
L 674.640095 115.68391 
L 675.28856 116.428701 
L 675.947153 116.801096 
L 676.598558 114.19433 
L 677.252577 115.68391 
L 677.904962 116.056306 
L 678.560941 114.93912 
L 679.217574 114.566725 
L 679.875513 116.056306 
L 680.528552 117.918281 
L 681.182897 115.68391 
L 681.832016 116.801096 
L 682.490282 114.19433 
L 683.143647 115.311515 
L 683.80028 116.056306 
L 684.452012 113.077144 
L 685.109951 113.821934 
L 685.76691 115.68391 
L 686.419949 114.93912 
L 687.077235 114.566725 
L 687.731907 117.545886 
L 689.039945 112.704749 
L 689.69233 119.035467 
L 690.346023 120.152653 
L 691.006249 113.449539 
L 691.658307 116.801096 
L 692.3169 113.449539 
L 692.974186 116.056306 
L 693.630818 115.311515 
L 694.281243 114.93912 
L 694.933629 115.311515 
L 695.585688 113.821934 
L 696.23938 113.821934 
L 696.897972 117.173491 
L 697.549705 113.077144 
L 698.20797 117.918281 
L 698.860029 112.704749 
L 699.511761 114.19433 
L 700.1697 112.332354 
L 700.823066 114.19433 
L 701.481332 113.077144 
L 702.134044 114.566725 
L 702.785449 114.19433 
L 703.447635 115.68391 
L 704.103941 118.290677 
L 704.755347 112.704749 
L 705.409039 113.821934 
L 706.067631 116.428701 
L 706.723284 115.68391 
L 707.374362 116.428701 
L 708.026748 114.566725 
L 708.683707 116.056306 
L 709.339686 112.704749 
L 709.997625 112.332354 
L 710.653931 112.332354 
L 711.31187 111.959958 
L 711.973729 112.704749 
L 712.626768 113.077144 
L 713.27948 113.077144 
L 713.936113 111.215168 
L 714.586211 141.751573 
L 715.24121 132.069298 
L 715.892616 133.186484 
L 716.545981 155.90259 
L 717.196407 169.308817 
L 717.852059 175.639535 
L 718.503464 179.735882 
L 719.16075 181.597858 
L 719.814442 140.261993 
L 720.466501 130.952113 
L 721.11856 136.165645 
L 721.770946 132.441694 
L 722.426925 132.069298 
L 723.087804 122.014628 
L 723.74411 130.952113 
L 724.398128 130.207323 
L 725.70878 120.525048 
L 726.360512 119.780257 
L 727.015511 125.73858 
L 727.667896 122.759419 
L 728.976914 119.780257 
L 729.624726 119.035467 
L 730.282339 123.504209 
L 730.936684 123.876604 
L 731.587436 126.483371 
L 732.244722 123.876604 
L 732.900701 126.110976 
L 733.553087 120.152653 
L 734.211352 118.290677 
L 734.859491 119.780257 
L 735.521677 121.642233 
L 736.181576 114.93912 
L 736.835268 111.587563 
L 737.489287 164.095284 
L 738.145266 173.777559 
L 738.800919 178.246301 
L 739.456898 177.873906 
L 740.114183 182.342648 
L 740.769182 180.108277 
L 741.426142 181.597858 
L 742.083101 139.889597 
L 742.738426 168.564027 
L 743.397345 137.655226 
L 744.053978 128.345347 
L 744.706037 131.324508 
L 745.365282 128.345347 
L 746.019301 130.579718 
L 746.672994 131.324508 
L 747.325706 127.228161 
L 747.979398 124.621395 
L 748.63407 131.324508 
L 749.286782 131.324508 
L 749.936555 129.834927 
L 750.591553 119.407862 
L 751.248839 121.269838 
L 751.897305 117.173491 
L 752.554264 115.68391 
L 753.205669 120.897443 
L 753.862955 117.545886 
L 754.513054 131.696903 
L 755.165439 135.04846 
L 755.822398 133.558879 
L 756.475764 135.420855 
L 757.128803 133.931274 
L 757.782495 167.074446 
L 758.439454 177.873906 
L 759.091513 182.715044 
L 759.751739 183.459834 
L 760.408698 186.0666 
L 761.06729 143.613549 
L 761.718042 138.400017 
L 762.375328 131.324508 
L 763.03098 128.345347 
L 763.691206 126.483371 
L 764.351105 122.014628 
L 764.998917 127.600556 
L 765.662083 131.324508 
L 766.314142 119.780257 
L 766.971755 127.228161 
L 767.621853 119.780257 
L 768.279139 122.014628 
L 768.931198 119.035467 
L 769.585543 119.780257 
L 770.241849 118.663072 
L 770.893908 116.801096 
L 771.552827 124.249 
L 772.203579 120.525048 
L 772.862825 132.441694 
L 773.517824 133.186484 
L 774.176743 132.814089 
L 774.835009 133.186484 
L 775.486741 133.931274 
L 776.13684 128.717742 
L 776.793146 130.952113 
L 777.450105 127.600556 
L 778.10151 130.952113 
L 778.756509 124.99379 
L 779.414121 129.090137 
L 780.0701 122.759419 
L 780.731633 134.676065 
L 781.381078 133.558879 
L 782.036731 132.069298 
L 782.689443 136.910436 
L 783.342155 133.931274 
L 783.993561 137.282831 
L 784.646926 128.345347 
L 785.303232 126.110976 
L 785.953657 134.676065 
L 786.61127 133.186484 
L 787.263982 130.579718 
L 787.917021 122.014628 
L 788.575287 119.035467 
L 789.226692 118.290677 
L 789.884631 125.73858 
L 790.541917 121.642233 
L 791.197896 121.642233 
L 791.853548 117.173491 
L 792.509527 115.311515 
L 793.165506 117.173491 
L 794.478771 111.959958 
L 795.127563 113.821934 
L 795.783542 113.077144 
L 796.438868 113.077144 
L 797.094193 113.449539 
L 797.753439 111.587563 
L 798.408765 115.311515 
L 799.06507 129.090137 
L 799.721376 123.876604 
L 800.376375 114.93912 
L 801.037908 111.215168 
L 801.697154 110.470378 
L 802.352806 110.470378 
L 803.006498 112.332354 
L 803.662151 114.566725 
L 804.317803 112.704749 
L 804.970188 115.311515 
L 805.627801 112.332354 
L 806.276593 112.704749 
L 806.932898 113.821934 
L 807.585611 111.215168 
L 808.24355 112.704749 
L 808.902796 111.959958 
L 809.548321 110.842773 
L 810.2043 115.311515 
L 810.859299 111.215168 
L 811.517238 112.332354 
L 812.179751 118.290677 
L 812.833769 114.19433 
L 813.491055 112.704749 
L 814.140827 109.353192 
L 814.80334 112.704749 
L 815.455072 114.566725 
L 816.110724 112.332354 
L 816.773237 111.587563 
L 817.425949 113.449539 
L 818.076375 111.959958 
L 818.733007 114.566725 
L 819.386699 112.704749 
L 820.69539 114.19433 
L 821.353656 113.449539 
L 822.005715 113.821934 
L 822.660061 112.704749 
L 823.320287 110.842773 
L 823.974632 110.470378 
L 824.627998 112.332354 
L 825.283323 108.608402 
L 825.937669 110.842773 
L 826.589401 111.215168 
L 827.245707 109.725587 
L 827.899072 112.704749 
L 829.212337 112.704749 
L 829.862436 111.587563 
L 830.518088 112.704749 
L 831.168514 110.470378 
L 831.824493 111.587563 
L 832.476551 111.587563 
L 833.133184 110.097983 
L 833.796677 111.215168 
L 834.448735 113.821934 
L 835.110595 112.332354 
L 836.417652 111.587563 
L 837.072978 110.470378 
L 837.72471 110.097983 
L 838.384936 111.215168 
L 839.040262 109.353192 
L 839.697221 112.332354 
L 840.36104 111.959958 
L 841.010486 108.980797 
L 841.667771 111.587563 
L 842.318523 110.097983 
L 842.970909 111.215168 
L 843.628848 108.608402 
L 844.279927 108.980797 
L 844.933292 111.959958 
L 845.588945 110.097983 
L 846.238717 112.332354 
L 846.894696 131.324508 
L 847.553942 132.069298 
L 848.203387 129.462532 
L 848.859039 117.918281 
L 849.512732 118.290677 
L 850.164137 113.449539 
L 850.821423 113.821934 
L 851.472501 111.587563 
L 852.128154 115.311515 
L 852.791973 113.077144 
L 852.791973 113.077144 
" clip-path="url(#p9bff121425)" style="fill: none; stroke: #e74c3c; stroke-width: 2; stroke-linecap: square"/>
   </g>
   <g id="line2d_16">
    <path d="M 47.45 387.16 
L 54.657275 387.16 
L 55.325668 207.665521 
L 55.96466 387.16 
L 56.618352 203.569174 
L 57.269758 203.196779 
L 57.922143 200.962408 
L 58.588576 387.16 
L 59.224627 387.16 
L 59.882893 199.845222 
L 60.537892 387.16 
L 62.498315 387.16 
L 63.157561 197.238456 
L 63.831834 195.748875 
L 64.462006 194.631689 
L 65.9703 193.886899 
L 66.424062 192.769714 
L 67.079715 195.37648 
L 67.731447 195.37648 
L 68.387752 195.748875 
L 69.042751 190.535342 
L 69.698404 193.514504 
L 70.359936 194.259294 
L 71.013629 192.769714 
L 71.675488 193.886899 
L 72.332447 192.397318 
L 72.981892 193.886899 
L 73.646692 191.280133 
L 74.29385 148.454687 
L 74.948196 176.384325 
L 75.605155 185.32181 
L 76.260481 186.811391 
L 76.913846 168.936422 
L 77.568192 144.730735 
L 78.220904 132.441694 
L 78.87427 125.73858 
L 79.523388 120.525048 
L 80.181001 116.801096 
L 80.830446 132.069298 
L 81.486752 125.73858 
L 82.137504 124.99379 
L 82.792176 124.621395 
L 83.449789 124.99379 
L 84.104134 124.99379 
L 84.75456 122.387024 
L 85.411192 122.387024 
L 86.062271 123.131814 
L 86.71923 122.387024 
L 87.369655 120.152653 
L 88.022367 119.780257 
L 88.68488 120.897443 
L 89.336286 118.290677 
L 89.988018 120.525048 
L 90.63975 116.428701 
L 91.294422 118.290677 
L 91.951381 117.918281 
L 92.607033 114.93912 
L 93.272813 115.68391 
L 93.916378 114.19433 
L 94.570397 113.077144 
L 95.230623 112.704749 
L 95.883335 117.545886 
L 96.536701 124.249 
L 97.19464 109.353192 
L 97.846372 109.725587 
L 98.504311 141.006783 
L 99.16029 149.944267 
L 99.812349 154.41301 
L 100.471595 153.295824 
L 101.123327 157.764566 
L 101.777346 157.764566 
L 103.090284 160.743728 
L 103.743976 161.860913 
L 104.408449 162.233308 
L 105.060834 125.366185 
L 105.707993 117.545886 
L 106.363972 117.918281 
L 107.022238 120.525048 
L 107.672663 118.663072 
L 108.334522 113.449539 
L 108.988868 106.001636 
L 109.638967 103.394869 
L 110.301479 110.470378 
L 110.950925 107.118821 
L 111.608537 106.001636 
L 112.260923 107.491216 
L 112.917555 104.13966 
L 113.579741 98.926127 
L 114.231146 95.202175 
L 114.887125 98.181337 
L 116.194837 92.967804 
L 116.854409 104.512055 
L 118.159834 90.361038 
L 118.817773 93.712594 
L 119.471792 105.256845 
L 120.126137 105.256845 
L 120.776563 94.82978 
L 121.439075 101.160498 
L 122.095381 91.105828 
L 122.750053 93.340199 
L 123.402765 91.478223 
L 124.060378 87.381876 
L 124.716357 94.82978 
L 125.371356 93.712594 
L 126.67678 85.5199 
L 127.340926 103.394869 
L 127.997232 98.553732 
L 128.646677 97.808941 
L 129.305596 100.415708 
L 129.965822 100.788103 
L 130.616901 100.415708 
L 131.276147 97.436546 
L 131.927226 129.834927 
L 132.581245 133.558879 
L 133.240491 141.006783 
L 133.899083 142.868759 
L 134.559636 120.152653 
L 135.211041 106.374031 
L 135.8729 101.905289 
L 136.53476 102.277684 
L 137.187145 91.105828 
L 137.839531 88.499062 
L 139.154102 87.009481 
L 139.810081 85.892296 
L 140.462793 84.402715 
L 141.121386 102.277684 
L 141.780958 88.499062 
L 142.441184 87.009481 
L 143.091936 86.637086 
L 143.749222 81.051158 
L 144.411081 78.816787 
L 145.06608 91.478223 
L 145.719119 83.285529 
L 146.376405 81.051158 
L 147.025197 78.444392 
L 147.679869 79.561577 
L 148.332908 79.189182 
L 148.98464 77.327206 
L 149.638006 76.582416 
L 150.290718 83.285529 
L 150.947677 76.210021 
L 152.251141 78.444392 
L 152.906794 74.72044 
L 153.557872 75.46523 
L 154.214178 77.699601 
L 154.862643 74.348045 
L 155.520583 75.46523 
L 156.171661 80.678763 
L 156.8296 79.933973 
L 157.4895 78.071997 
L 158.139925 74.72044 
L 158.797211 73.603254 
L 159.446983 76.210021 
L 160.102962 75.092835 
L 160.753714 76.582416 
L 161.40904 79.561577 
L 162.063712 77.327206 
L 162.719364 79.561577 
L 163.378283 75.092835 
L 164.034916 84.77511 
L 164.687628 85.5199 
L 165.3472 84.03032 
L 165.997299 81.423553 
L 166.653278 84.402715 
L 167.309584 84.03032 
L 167.971116 81.423553 
L 168.626769 83.285529 
L 169.281441 84.77511 
L 169.939054 83.285529 
L 170.597973 83.285529 
L 171.253952 84.03032 
L 171.90405 82.168344 
L 172.557743 85.5199 
L 173.213068 79.933973 
L 173.870354 76.954811 
L 174.525353 72.113674 
L 175.177412 68.389722 
L 175.838944 68.389722 
L 176.48643 67.644932 
L 177.146982 68.762117 
L 177.799041 67.644932 
L 178.456327 68.762117 
L 179.107079 68.017327 
L 179.762731 68.389722 
L 180.416424 68.017327 
L 181.073056 68.017327 
L 181.731975 68.762117 
L 182.388934 69.879303 
L 183.044586 71.368883 
L 183.697299 69.134512 
L 184.353931 69.506907 
L 185.014484 70.624093 
L 185.663929 98.926127 
L 186.321215 81.423553 
L 186.976214 79.933973 
L 187.637746 78.816787 
L 188.295685 72.486069 
L 188.947418 70.624093 
L 189.599803 70.624093 
L 190.256109 70.996488 
L 190.907514 65.782956 
L 191.561206 69.506907 
L 192.217839 67.272536 
L 192.878065 69.506907 
L 193.531757 63.92098 
L 194.190023 65.038165 
L 194.845022 72.113674 
L 195.495447 70.996488 
L 196.152733 69.134512 
L 196.803485 68.017327 
L 197.458484 71.368883 
L 198.111849 66.900141 
L 198.771749 68.389722 
L 199.422501 66.900141 
L 200.0775 64.66577 
L 200.736419 65.41056 
L 202.043803 63.92098 
L 202.701089 63.92098 
L 203.359028 66.900141 
L 204.0088 64.293375 
L 204.662819 67.644932 
L 205.321085 66.527746 
L 205.969877 78.816787 
L 206.624549 78.071997 
L 207.287062 75.46523 
L 207.934874 73.97565 
L 208.59118 67.644932 
L 209.244545 71.741279 
L 209.898564 66.900141 
L 210.548663 64.293375 
L 211.204968 63.548584 
L 211.861928 64.293375 
L 212.521173 66.155351 
L 213.173559 69.134512 
L 213.830845 68.762117 
L 214.483557 65.782956 
L 215.141169 78.071997 
L 215.790288 76.582416 
L 216.448554 75.837626 
L 217.097019 69.879303 
L 217.759532 65.41056 
L 218.410937 65.038165 
L 219.073123 67.644932 
L 219.730736 65.782956 
L 220.386388 75.092835 
L 221.039753 76.954811 
L 221.697039 77.699601 
L 222.352692 75.092835 
L 223.006057 75.092835 
L 223.663669 77.327206 
L 224.322589 74.72044 
L 224.982488 76.954811 
L 225.6352 77.699601 
L 226.286932 74.72044 
L 226.944871 77.327206 
L 227.606404 66.527746 
L 228.259443 66.527746 
L 228.911502 65.782956 
L 229.56258 67.644932 
L 230.225093 65.41056 
L 230.882052 66.900141 
L 231.536071 65.41056 
L 232.190743 68.762117 
L 232.847376 66.527746 
L 233.499435 65.782956 
L 234.15182 65.41056 
L 234.806166 67.644932 
L 235.458551 66.900141 
L 236.764302 64.66577 
L 237.418974 68.389722 
L 238.075934 63.92098 
L 238.731586 69.506907 
L 239.394752 71.741279 
L 240.044524 63.92098 
L 240.70083 65.41056 
L 241.362362 66.155351 
L 242.018668 68.389722 
L 242.673994 62.059004 
L 243.332913 63.176189 
L 243.988565 62.803794 
L 245.29497 64.293375 
L 245.955849 66.527746 
L 246.606928 63.92098 
L 247.25964 64.293375 
L 247.914639 62.059004 
L 248.567024 65.038165 
L 249.22137 65.41056 
L 249.874409 65.038165 
L 250.525161 65.782956 
L 251.181793 60.941818 
L 251.835159 63.92098 
L 252.486891 68.389722 
L 253.14483 65.782956 
L 253.804729 65.038165 
L 254.462015 63.176189 
L 255.77234 63.176189 
L 256.428319 66.900141 
L 257.083971 63.548584 
L 257.734396 62.431399 
L 258.391682 65.782956 
L 259.048314 64.66577 
L 259.702007 68.017327 
L 260.356352 67.272536 
L 261.010698 64.293375 
L 261.66929 70.624093 
L 262.324616 66.527746 
L 262.978635 63.92098 
L 263.634941 65.41056 
L 264.28994 65.41056 
L 264.943958 66.527746 
L 265.594057 65.038165 
L 266.251996 67.644932 
L 266.903075 65.41056 
L 267.561341 64.293375 
L 268.216993 64.66577 
L 268.864805 68.389722 
L 269.519804 69.134512 
L 270.17317 64.66577 
L 270.831109 62.431399 
L 271.484148 63.176189 
L 272.149274 66.527746 
L 272.796106 65.41056 
L 273.451431 65.41056 
L 274.105777 65.782956 
L 274.756856 65.038165 
L 275.418388 66.900141 
L 276.06914 68.017327 
L 276.723486 65.038165 
L 277.380772 64.66577 
L 278.033484 61.314213 
L 278.690443 66.155351 
L 279.354916 65.41056 
L 280.004034 65.038165 
L 280.66524 65.038165 
L 281.314359 63.92098 
L 281.972298 66.155351 
L 282.627297 65.782956 
L 283.28981 64.66577 
L 283.945135 67.272536 
L 284.605361 63.548584 
L 285.259707 83.285529 
L 285.912092 69.134512 
L 286.568725 71.741279 
L 288.530782 69.506907 
L 289.180554 72.486069 
L 289.841433 68.389722 
L 290.501332 71.741279 
L 291.154371 72.113674 
L 291.80937 72.113674 
L 292.461429 71.741279 
L 293.124268 70.251698 
L 293.776 70.251698 
L 294.431326 71.741279 
L 295.092205 74.72044 
L 295.740344 80.678763 
L 296.395996 85.147505 
L 297.053282 85.892296 
L 297.708934 90.733433 
L 298.358706 91.850619 
L 299.012072 100.415708 
L 299.670338 101.160498 
L 300.975109 93.712594 
L 301.630108 91.105828 
L 302.28184 94.457385 
L 302.937492 100.788103 
L 303.588571 97.808941 
L 304.239976 103.022474 
L 304.896935 101.532893 
L 305.550301 104.512055 
L 306.202686 104.88445 
L 306.858339 108.980797 
L 307.517258 116.056306 
L 308.17389 111.587563 
L 308.827909 114.19433 
L 309.482581 119.780257 
L 310.142807 117.918281 
L 311.457705 122.387024 
L 312.113684 119.035467 
L 312.771624 120.897443 
L 313.431523 120.897443 
L 314.085215 120.152653 
L 314.737927 121.269838 
L 315.389986 122.014628 
L 316.044985 125.73858 
L 316.702597 122.759419 
L 317.351389 130.207323 
L 318.004102 129.462532 
L 318.661387 132.814089 
L 319.309526 134.30367 
L 319.962892 140.634388 
L 320.619197 129.834927 
L 321.27387 136.165645 
L 321.923968 133.186484 
L 322.582234 133.558879 
L 323.237886 138.400017 
L 323.892232 134.30367 
L 324.543964 133.931274 
L 325.197656 135.420855 
L 325.852982 140.261993 
L 326.511901 137.282831 
L 327.170494 140.634388 
L 327.821572 137.282831 
L 328.485392 138.400017 
L 329.135164 136.165645 
L 329.787223 138.400017 
L 330.442875 138.027621 
L 331.098854 143.613549 
L 331.746993 136.910436 
L 332.401665 138.772412 
L 333.060911 142.496364 
L 333.716563 140.634388 
L 334.374176 143.613549 
L 335.028521 141.751573 
L 335.6845 145.10313 
L 336.340479 139.889597 
L 336.998745 141.006783 
L 337.650477 142.868759 
L 338.961128 143.613549 
L 339.615801 145.84792 
L 340.266879 145.84792 
L 340.923839 144.35834 
L 341.57165 142.123968 
L 342.225669 145.84792 
L 342.883935 146.220315 
L 343.535014 143.985944 
L 344.841092 144.730735 
L 345.497397 143.241154 
L 346.148476 148.454687 
L 346.802822 147.337501 
L 347.454227 142.868759 
L 348.108246 142.123968 
L 348.761612 145.475525 
L 349.416284 147.337501 
L 350.068996 143.241154 
L 350.725629 142.496364 
L 351.380954 143.241154 
L 352.03432 140.634388 
L 352.685725 145.84792 
L 353.346931 142.868759 
L 353.99899 146.220315 
L 354.656602 148.082291 
L 355.307028 145.10313 
L 355.96268 147.337501 
L 356.617352 144.730735 
L 357.270065 145.84792 
L 357.927677 149.199477 
L 358.576469 145.84792 
L 359.228201 147.709896 
L 359.88712 144.35834 
L 360.547673 141.751573 
L 361.202999 149.199477 
L 361.852444 146.965106 
L 362.512016 148.454687 
L 363.165382 146.592711 
L 363.818748 149.571872 
L 364.475053 151.061453 
L 365.128745 149.199477 
L 365.778844 149.571872 
L 366.43319 162.978099 
L 367.087535 162.605704 
L 367.736981 165.95726 
L 368.39198 167.819236 
L 369.045672 166.702051 
L 369.706551 167.074446 
L 370.365797 165.584865 
L 371.021449 167.446841 
L 371.680369 170.053607 
L 372.333734 168.191631 
L 372.992 168.564027 
L 373.647326 168.191631 
L 374.298731 169.681212 
L 374.951116 170.798398 
L 375.612976 169.308817 
L 376.92428 171.543188 
L 377.579933 164.095284 
L 378.891237 155.90259 
L 379.552117 158.881752 
L 380.204176 155.530195 
L 380.857868 157.019776 
L 381.512213 156.647381 
L 382.166886 148.082291 
L 382.817638 153.295824 
L 383.47427 153.668219 
L 384.127636 152.551034 
L 384.778388 154.040614 
L 385.432733 152.923429 
L 386.092306 153.668219 
L 386.751552 152.923429 
L 387.406224 153.295824 
L 388.059916 148.827082 
L 388.713608 152.923429 
L 389.367301 150.316663 
L 390.02622 151.061453 
L 390.678932 150.689058 
L 391.334584 151.061453 
L 391.99579 150.316663 
L 392.650136 154.785405 
L 393.302195 152.923429 
L 393.952947 149.944267 
L 394.610559 152.551034 
L 395.271439 149.571872 
L 395.921211 150.316663 
L 396.577843 148.454687 
L 397.225982 146.220315 
L 397.880327 151.433848 
L 398.534999 149.944267 
L 399.190325 149.571872 
L 399.841077 145.10313 
L 400.50065 152.178638 
L 401.156302 153.668219 
L 401.808034 145.475525 
L 402.45748 152.923429 
L 403.115745 151.061453 
L 403.771398 153.668219 
L 404.425417 149.571872 
L 405.082049 151.433848 
L 405.742275 148.082291 
L 406.3927 150.316663 
L 407.046719 153.295824 
L 407.703678 150.689058 
L 408.354104 156.274985 
L 409.013349 150.316663 
L 409.667042 151.806243 
L 410.323674 154.785405 
L 410.980633 154.41301 
L 411.633019 166.702051 
L 412.285731 157.019776 
L 412.937136 158.881752 
L 413.592789 157.019776 
L 414.248768 157.392171 
L 414.908994 158.881752 
L 415.560726 159.626542 
L 416.211478 158.136961 
L 416.865497 159.998937 
L 417.524743 159.998937 
L 418.178108 161.116123 
L 418.838334 161.488518 
L 419.488433 162.605704 
L 420.144085 160.371333 
L 420.802351 159.626542 
L 421.45931 161.860913 
L 422.114636 159.626542 
L 422.773555 159.626542 
L 423.42986 159.998937 
L 424.742145 162.233308 
L 425.399431 154.785405 
L 426.050836 158.136961 
L 426.715962 152.178638 
L 427.371288 149.944267 
L 428.026287 149.944267 
L 428.676712 145.475525 
L 429.332365 151.061453 
L 429.985404 150.316663 
L 430.643016 150.689058 
L 431.290501 147.337501 
L 431.941253 149.571872 
L 432.599193 149.571872 
L 433.253865 148.454687 
L 433.904617 146.220315 
L 434.559616 148.454687 
L 435.210368 143.241154 
L 435.86602 152.551034 
L 436.518406 149.571872 
L 437.180919 149.571872 
L 437.828404 143.241154 
L 438.48765 145.84792 
L 439.135788 146.965106 
L 439.791441 145.10313 
L 440.44644 148.454687 
L 441.104052 147.337501 
L 441.755457 145.475525 
L 442.407843 150.689058 
L 443.060555 148.082291 
L 443.712287 148.454687 
L 444.364019 151.061453 
L 445.019018 152.178638 
L 445.673691 151.061453 
L 446.330323 152.178638 
L 446.988262 151.806243 
L 447.643588 153.668219 
L 448.305447 175.26714 
L 448.951299 171.915583 
L 449.615772 158.509357 
L 450.265544 154.785405 
L 450.919563 146.965106 
L 451.577502 151.061453 
L 452.2276 146.965106 
L 452.887826 146.965106 
L 453.537925 152.178638 
L 454.194557 146.965106 
L 454.84825 149.199477 
L 455.505535 148.454687 
L 456.157921 149.944267 
L 456.81586 148.827082 
L 457.466612 151.061453 
L 458.118998 152.178638 
L 458.774977 148.454687 
L 459.433896 150.316663 
L 460.089221 150.689058 
L 460.738667 151.806243 
L 461.403466 149.944267 
L 462.055525 156.274985 
L 462.710524 154.41301 
L 463.372383 151.806243 
L 464.029996 152.551034 
L 464.680095 151.806243 
L 465.338687 152.551034 
L 465.989112 153.668219 
L 466.642805 153.668219 
L 467.30107 154.785405 
L 467.949536 161.116123 
L 468.605841 156.647381 
L 469.2579 154.785405 
L 469.907999 154.785405 
L 470.560058 155.1578 
L 471.215057 151.433848 
L 471.871036 154.040614 
L 472.522441 154.040614 
L 473.17548 152.178638 
L 473.829172 151.061453 
L 475.144397 151.061453 
L 475.792863 158.136961 
L 476.452762 159.254147 
L 477.109721 153.668219 
L 477.768967 159.254147 
L 478.427559 159.626542 
L 479.086478 155.90259 
L 479.743764 156.647381 
L 480.405297 156.647381 
L 481.057682 157.764566 
L 481.711048 161.116123 
L 482.363107 157.019776 
L 483.014512 156.647381 
L 483.675718 153.295824 
L 484.331697 157.019776 
L 484.989636 156.274985 
L 485.647248 154.040614 
L 486.301594 155.90259 
L 486.957573 154.040614 
L 487.612572 156.274985 
L 488.269858 156.274985 
L 488.92551 157.019776 
L 489.580836 154.785405 
L 490.895081 154.785405 
L 491.554653 159.254147 
L 492.207039 157.392171 
L 492.858444 158.881752 
L 493.514423 160.743728 
L 494.163542 167.446841 
L 494.819847 163.350494 
L 495.471253 164.095284 
L 496.130172 154.040614 
L 496.777657 152.178638 
L 497.432656 152.178638 
L 498.092882 154.040614 
L 498.746901 148.454687 
L 499.403207 148.827082 
L 500.059186 143.613549 
L 500.709611 144.730735 
L 501.365264 149.944267 
L 502.018302 150.316663 
L 502.674935 152.551034 
L 503.333201 200.962408 
L 503.9931 209.527497 
L 504.642872 208.037916 
L 505.300158 214.368634 
L 505.96071 213.623844 
L 506.616689 216.603005 
L 507.268421 169.681212 
L 507.92538 167.819236 
L 508.581033 158.509357 
L 509.237338 159.998937 
L 509.894624 155.530195 
L 510.55191 156.647381 
L 511.205602 152.923429 
L 511.856354 157.392171 
L 512.512987 173.032769 
L 513.825271 157.019776 
L 514.475043 155.530195 
L 515.132002 156.647381 
L 515.786675 160.371333 
L 516.445267 154.785405 
L 517.106146 153.668219 
L 517.762779 167.819236 
L 518.420065 170.426002 
L 519.07343 169.308817 
L 519.728429 173.777559 
L 520.383755 162.605704 
L 521.039734 156.274985 
L 521.695713 182.715044 
L 522.353325 169.308817 
L 523.002117 168.564027 
L 523.659076 203.196779 
L 524.316362 212.134263 
L 524.975281 214.368634 
L 525.627667 214.368634 
L 526.280052 215.858215 
L 526.937991 219.209772 
L 527.59201 176.756721 
L 528.904948 162.605704 
L 529.567788 162.233308 
L 530.22246 166.702051 
L 530.878112 169.681212 
L 531.531804 165.584865 
L 532.184843 160.743728 
L 532.843763 169.308817 
L 533.493861 160.743728 
L 534.152454 164.840075 
L 535.467352 154.41301 
L 536.116471 153.295824 
L 536.77441 154.040614 
L 537.431369 152.923429 
L 538.091595 154.785405 
L 538.749534 152.923429 
L 539.400613 152.923429 
L 540.061165 156.647381 
L 540.720411 159.626542 
L 541.369856 154.785405 
L 542.026162 153.295824 
L 542.684101 149.571872 
L 543.335507 151.806243 
L 543.996059 151.433848 
L 544.648771 154.785405 
L 545.303444 147.337501 
L 545.955829 155.90259 
L 546.609521 148.454687 
L 547.260927 151.061453 
L 547.917232 148.454687 
L 548.569291 149.571872 
L 549.222003 151.433848 
L 549.882883 150.316663 
L 550.538208 151.806243 
L 551.200721 151.061453 
L 551.84984 149.199477 
L 552.508106 151.433848 
L 553.166371 159.254147 
L 553.817123 152.551034 
L 554.473102 153.295824 
L 555.123855 151.806243 
L 555.784734 148.082291 
L 556.437773 148.082291 
L 557.092772 147.709896 
L 557.749077 149.571872 
L 558.398523 149.571872 
L 559.051562 150.689058 
L 559.709501 148.454687 
L 560.366133 149.571872 
L 561.023092 151.061453 
L 561.687892 146.220315 
L 562.341584 148.082291 
L 562.997563 150.316663 
L 563.653215 150.689058 
L 564.314094 153.668219 
L 564.971707 148.827082 
L 565.625726 152.178638 
L 566.276478 149.199477 
L 566.928537 149.571872 
L 567.588109 148.827082 
L 568.244088 153.295824 
L 568.907581 151.806243 
L 569.563887 159.998937 
L 570.221826 151.433848 
L 570.880418 157.764566 
L 571.537051 158.136961 
L 572.189109 144.730735 
L 572.841495 151.433848 
L 573.500414 156.274985 
L 574.151493 154.785405 
L 574.811065 153.668219 
L 575.465411 145.84792 
L 576.121063 144.730735 
L 576.776716 145.10313 
L 577.434655 152.178638 
L 578.099781 156.647381 
L 578.745959 159.254147 
L 579.397692 166.329655 
L 580.054324 165.95726 
L 580.708016 166.329655 
L 581.359422 166.329655 
L 582.019647 167.446841 
L 582.67432 167.819236 
L 583.334219 170.426002 
L 583.989218 168.191631 
L 585.293662 170.426002 
L 585.950295 170.053607 
L 586.610847 165.95726 
L 587.273687 159.626542 
L 587.926072 159.626542 
L 588.577478 167.446841 
L 589.230516 167.446841 
L 589.883229 193.142109 
L 590.535941 203.196779 
L 591.194533 171.915583 
L 591.853779 199.845222 
L 592.502898 169.308817 
L 593.15953 165.95726 
L 593.809956 158.509357 
L 594.463974 152.551034 
L 595.118647 152.923429 
L 595.774299 158.881752 
L 596.431258 150.689058 
L 597.083317 152.923429 
L 597.737336 150.689058 
L 598.384821 151.061453 
L 599.043414 148.454687 
L 599.696126 149.571872 
L 600.350471 151.061453 
L 601.002204 151.433848 
L 601.659489 151.061453 
L 602.317755 158.881752 
L 602.970794 188.300971 
L 603.62612 168.191631 
L 604.277525 165.95726 
L 604.936771 158.881752 
L 605.58981 157.019776 
L 606.900788 148.454687 
L 607.557747 153.295824 
L 608.214706 154.41301 
L 608.867091 152.923429 
L 609.527317 167.074446 
L 610.183296 168.191631 
L 610.838295 168.564027 
L 611.491007 170.798398 
L 612.14274 168.936422 
L 612.796759 170.798398 
L 613.456331 171.543188 
L 614.111003 170.798398 
L 614.766002 170.426002 
L 615.423288 173.405164 
L 616.083841 173.405164 
L 616.736226 173.032769 
L 617.393185 174.149954 
L 618.046877 171.915583 
L 618.705797 162.978099 
L 619.364389 158.509357 
L 620.014161 159.998937 
L 620.66622 158.881752 
L 621.319912 154.41301 
L 621.975564 157.019776 
L 622.630237 153.668219 
L 623.292749 171.170793 
L 623.948728 170.053607 
L 624.606994 169.308817 
L 625.257093 193.142109 
L 625.911439 203.569174 
L 626.564477 184.204624 
L 627.220783 169.308817 
L 627.878396 164.840075 
L 628.531108 158.881752 
L 629.182513 155.530195 
L 629.834899 155.90259 
L 630.495778 154.040614 
L 631.154697 156.647381 
L 631.808063 153.668219 
L 632.462082 156.274985 
L 633.117407 152.178638 
L 633.77306 152.551034 
L 634.424138 152.551034 
L 635.083057 152.923429 
L 635.73577 150.689058 
L 636.395016 151.433848 
L 637.051321 152.923429 
L 637.707627 154.785405 
L 638.360666 146.592711 
L 639.014685 150.689058 
L 639.672297 148.827082 
L 640.325336 149.944267 
L 640.981642 148.827082 
L 641.640561 145.10313 
L 642.291313 145.10313 
L 642.948599 146.965106 
L 643.602944 145.10313 
L 644.25533 152.178638 
L 644.912616 151.433848 
L 645.567941 151.433848 
L 646.22392 149.944267 
L 646.876306 149.199477 
L 647.530978 149.199477 
L 648.182057 146.965106 
L 648.831829 149.571872 
L 649.491728 148.082291 
L 650.145747 147.337501 
L 650.804013 167.074446 
L 651.462932 164.840075 
L 652.115971 161.488518 
L 652.767703 154.040614 
L 653.427275 153.668219 
L 654.085868 153.668219 
L 654.739233 152.178638 
L 655.397826 148.827082 
L 656.053152 147.709896 
L 656.712724 152.178638 
L 657.37099 151.061453 
L 658.023049 148.454687 
L 658.682948 152.923429 
L 659.985759 149.944267 
L 660.641738 154.41301 
L 661.29739 150.316663 
L 661.948796 149.199477 
L 662.605755 148.827082 
L 663.266634 148.082291 
L 663.92098 148.827082 
L 664.575652 152.178638 
L 665.234571 150.689058 
L 665.887937 154.41301 
L 666.540649 154.040614 
L 667.192381 154.785405 
L 667.850973 146.965106 
L 669.158031 150.689058 
L 669.814664 150.316663 
L 670.471623 151.433848 
L 671.124335 149.571872 
L 671.779987 149.571872 
L 672.432373 145.475525 
L 673.094232 153.295824 
L 673.745964 151.061453 
L 674.40129 149.944267 
L 675.053022 147.709896 
L 676.365307 148.454687 
L 677.016385 150.689058 
L 677.673671 145.10313 
L 678.332917 148.454687 
L 678.986936 150.689058 
L 679.645528 150.316663 
L 680.29726 154.040614 
L 680.948993 149.571872 
L 681.604318 150.689058 
L 682.260951 154.785405 
L 682.915623 153.295824 
L 683.566048 149.944267 
L 684.221374 147.337501 
L 684.871146 147.337501 
L 685.528758 147.709896 
L 686.178204 146.965106 
L 687.492122 152.551034 
L 688.143854 150.316663 
L 688.797546 151.061453 
L 689.447645 148.827082 
L 690.104604 154.41301 
L 690.76385 152.923429 
L 691.416562 151.806243 
L 692.072214 159.254147 
L 692.734727 147.709896 
L 693.387439 149.571872 
L 694.046685 152.923429 
L 694.698744 151.061453 
L 695.356683 152.923429 
L 696.009395 149.571872 
L 696.667661 148.827082 
L 697.32364 148.827082 
L 697.977986 149.199477 
L 698.633311 149.944267 
L 699.286677 148.454687 
L 699.939389 152.923429 
L 700.593735 148.454687 
L 701.249714 149.944267 
L 701.906019 151.061453 
L 702.557098 151.433848 
L 703.210137 152.923429 
L 703.868729 151.433848 
L 704.517848 152.178638 
L 705.173827 150.316663 
L 705.823273 149.571872 
L 706.481538 150.316663 
L 707.13131 146.965106 
L 707.789249 146.220315 
L 708.440655 149.199477 
L 709.091734 150.316663 
L 709.745753 149.944267 
L 710.400098 144.35834 
L 711.056404 146.592711 
L 711.712056 152.178638 
L 712.371955 151.061453 
L 713.029568 151.433848 
L 713.685547 149.944267 
L 714.335646 147.337501 
L 714.988358 147.709896 
L 715.645317 145.84792 
L 716.302603 146.592711 
L 716.953028 148.454687 
L 717.610967 147.709896 
L 718.263679 149.571872 
L 718.916718 149.944267 
L 719.579558 151.806243 
L 720.232596 151.433848 
L 721.549128 149.199477 
L 722.19988 149.199477 
L 722.854879 155.530195 
L 723.515105 152.178638 
L 724.171084 153.668219 
L 724.826736 152.178638 
L 725.485002 148.827082 
L 726.792713 148.082291 
L 727.448366 150.316663 
L 728.097484 151.806243 
L 728.75673 152.923429 
L 729.408789 147.709896 
L 730.065095 150.689058 
L 730.7214 150.689058 
L 732.032705 149.199477 
L 732.685744 149.571872 
L 733.340743 152.551034 
L 734.004236 153.295824 
L 734.657928 152.551034 
L 735.319134 152.923429 
L 735.980013 150.689058 
L 736.630438 151.061453 
L 737.940763 150.316663 
L 738.593148 151.061453 
L 739.246841 149.944267 
L 739.9038 152.923429 
L 740.560432 151.433848 
L 741.219351 150.316663 
L 741.87533 150.316663 
L 742.530329 151.061453 
L 743.193822 152.178638 
L 743.842941 149.571872 
L 744.49892 150.689058 
L 745.157512 151.061453 
L 745.816105 152.178638 
L 746.470777 154.785405 
L 747.130349 154.41301 
L 747.786002 155.1578 
L 748.444921 151.433848 
L 749.101227 152.178638 
L 749.756879 152.178638 
L 750.408938 153.668219 
L 751.06753 152.551034 
L 751.721876 151.061453 
L 753.02828 151.061453 
L 753.681646 150.316663 
L 754.334358 152.551034 
L 754.98511 149.944267 
L 755.640436 150.316663 
L 757.604126 149.199477 
L 758.260105 149.199477 
L 758.915431 151.433848 
L 759.577617 152.178638 
L 760.235556 149.199477 
L 760.886961 148.827082 
L 761.53902 149.199477 
L 762.196306 148.082291 
L 762.846731 148.082291 
L 763.503037 148.454687 
L 764.155096 149.571872 
L 764.808135 149.944267 
L 765.458887 153.295824 
L 766.115846 148.454687 
L 766.765944 188.300971 
L 767.424864 172.287978 
L 768.084436 166.329655 
L 768.734208 165.21247 
L 769.392474 199.100432 
L 770.054007 206.920731 
L 770.713252 210.272287 
L 771.364004 212.879054 
L 772.015737 214.741029 
L 773.325081 213.251449 
L 774.630506 215.48582 
L 775.943117 175.639535 
L 776.594849 167.074446 
L 777.244294 170.053607 
L 777.902234 169.681212 
L 778.561806 168.564027 
L 779.211578 167.819236 
L 779.865924 170.426002 
L 780.519943 167.446841 
L 781.175595 173.032769 
L 781.837454 164.840075 
L 782.49474 167.074446 
L 783.149086 161.488518 
L 783.799184 163.350494 
L 784.455817 164.095284 
L 785.109836 161.116123 
L 785.759934 163.350494 
L 786.420814 162.605704 
L 787.079079 159.254147 
L 787.731465 161.860913 
L 788.391691 158.881752 
L 789.044403 159.254147 
L 789.698095 159.998937 
L 790.352114 158.881752 
L 791.0094 155.90259 
L 791.661785 161.860913 
L 792.319398 159.626542 
L 792.970803 155.90259 
L 793.620249 163.722889 
L 794.277861 164.840075 
L 794.932207 162.233308 
L 795.582632 169.308817 
L 796.233711 167.819236 
L 796.885116 167.819236 
L 797.538482 201.707198 
L 798.191847 204.313964 
L 798.84456 206.17594 
L 799.502499 211.389473 
L 800.803676 216.975401 
L 801.461942 219.582167 
L 802.115961 213.251449 
L 802.770633 182.715044 
L 803.418772 183.087439 
L 804.074424 210.644682 
L 804.726483 206.920731 
L 805.387689 173.777559 
L 806.039094 165.584865 
L 806.69148 159.998937 
L 807.344192 155.90259 
L 807.997884 159.998937 
L 808.657457 157.019776 
L 809.309516 155.1578 
L 809.968762 155.1578 
L 810.62082 154.41301 
L 811.277779 154.41301 
L 811.938985 156.647381 
L 812.588431 151.806243 
L 813.242776 153.668219 
L 813.896795 152.178638 
L 814.550161 148.082291 
L 815.209407 169.308817 
L 816.520058 167.819236 
L 817.17571 174.149954 
L 817.827769 160.743728 
L 818.481788 163.722889 
L 819.13352 155.90259 
L 819.788519 152.923429 
L 820.439598 156.274985 
L 821.092637 167.074446 
L 821.749269 168.191631 
L 822.399041 192.024923 
L 823.058287 206.17594 
L 823.716879 166.329655 
L 824.370898 167.819236 
L 825.022957 161.116123 
L 825.681223 157.764566 
L 826.340469 153.668219 
L 827.000041 154.41301 
L 827.652754 154.785405 
L 828.309059 151.433848 
L 828.964385 153.668219 
L 829.618077 153.668219 
L 830.28157 155.90259 
L 830.931342 159.998937 
L 831.581767 186.438995 
L 832.243627 162.233308 
L 832.897972 161.116123 
L 833.548071 154.785405 
L 834.20013 154.040614 
L 834.859049 149.944267 
L 835.512088 150.689058 
L 836.17264 145.84792 
L 836.828293 147.709896 
L 837.479045 140.634388 
L 838.794596 147.709896 
L 839.451555 141.006783 
L 840.102307 139.889597 
L 840.759267 142.496364 
L 841.416552 142.123968 
L 842.065344 140.261993 
L 842.721323 143.241154 
L 844.028054 143.241154 
L 845.341319 152.178638 
L 845.994358 152.178638 
L 846.651644 150.689058 
L 847.299456 145.84792 
L 847.953148 148.082291 
L 848.609127 149.199477 
L 849.264453 148.082291 
L 849.923698 149.571872 
L 850.577717 145.84792 
L 851.23337 164.840075 
L 851.894576 144.730735 
L 852.548921 142.868759 
L 853.2 200.217617 
L 853.2 200.217617 
" clip-path="url(#p9bff121425)" style="fill: none; stroke: #3498db; stroke-width: 2; stroke-linecap: square"/>
   </g>
   <g id="patch_3">
    <path d="M 47.45 387.16 
L 47.45 28.32 
" style="fill: none; stroke: #000000; stroke-width: 0.8; stroke-linejoin: miter; stroke-linecap: square"/>
   </g>
   <g id="patch_4">
    <path d="M 853.2 387.16 
L 853.2 28.32 
" style="fill: none; stroke: #000000; stroke-width: 0.8; stroke-linejoin: miter; stroke-linecap: square"/>
   </g>
   <g id="patch_5">
    <path d="M 47.45 387.16 
L 853.2 387.16 
" style="fill: none; stroke: #000000; stroke-width: 0.8; stroke-linejoin: miter; stroke-linecap: square"/>
   </g>
   <g id="patch_6">
    <path d="M 47.45 28.32 
L 853.2 28.32 
" style="fill: none; stroke: #000000; stroke-width: 0.8; stroke-linejoin: miter; stroke-linecap: square"/>
   </g>
   <g id="text_17">
    <!-- GPU temperature over time -->
    <g transform="translate(325.66 22.32) scale(0.16 -0.16)">
     <defs>
      <path id="DejaVuSans-Bold-47" d="M 4781 347 
Q 4331 128 3847 18 
Q 3363 -91 2847 -91 
Q 1681 -91 1000 561 
Q 319 1213 319 2328 
Q 319 3456 1012 4103 
Q 1706 4750 2913 4750 
Q 3378 4750 3804 4662 
Q 4231 4575 4609 4403 
L 4609 3438 
Q 4219 3659 3833 3768 
Q 3447 3878 3059 3878 
Q 2341 3878 1952 3476 
Q 1563 3075 1563 2328 
Q 1563 1588 1938 1184 
Q 2313 781 3003 781 
Q 3191 781 3352 804 
Q 3513 828 3641 878 
L 3641 1784 
L 2906 1784 
L 2906 2591 
L 4781 2591 
L 4781 347 
z
" transform="scale(0.015625)"/>
      <path id="DejaVuSans-Bold-50" d="M 588 4666 
L 2584 4666 
Q 3475 4666 3951 4270 
Q 4428 3875 4428 3144 
Q 4428 2409 3951 2014 
Q 3475 1619 2584 1619 
L 1791 1619 
L 1791 0 
L 588 0 
L 588 4666 
z
M 1791 3794 
L 1791 2491 
L 2456 2491 
Q 2806 2491 2997 2661 
Q 3188 2831 3188 3144 
Q 3188 3456 2997 3625 
Q 2806 3794 2456 3794 
L 1791 3794 
z
" transform="scale(0.015625)"/>
      <path id="DejaVuSans-Bold-55" d="M 588 4666 
L 1791 4666 
L 1791 1869 
Q 1791 1291 1980 1042 
Q 2169 794 2597 794 
Q 3028 794 3217 1042 
Q 3406 1291 3406 1869 
L 3406 4666 
L 4609 4666 
L 4609 1869 
Q 4609 878 4112 393 
Q 3616 -91 2597 -91 
Q 1581 -91 1084 393 
Q 588 878 588 1869 
L 588 4666 
z
" transform="scale(0.015625)"/>
      <path id="DejaVuSans-Bold-20" transform="scale(0.015625)"/>
      <path id="DejaVuSans-Bold-74" d="M 1759 4494 
L 1759 3500 
L 2913 3500 
L 2913 2700 
L 1759 2700 
L 1759 1216 
Q 1759 972 1856 886 
Q 1953 800 2241 800 
L 2816 800 
L 2816 0 
L 1856 0 
Q 1194 0 917 276 
Q 641 553 641 1216 
L 641 2700 
L 84 2700 
L 84 3500 
L 641 3500 
L 641 4494 
L 1759 4494 
z
" transform="scale(0.015625)"/>
      <path id="DejaVuSans-Bold-65" d="M 4031 1759 
L 4031 1441 
L 1416 1441 
Q 1456 1047 1700 850 
Q 1944 653 2381 653 
Q 2734 653 3104 758 
Q 3475 863 3866 1075 
L 3866 213 
Q 3469 63 3072 -14 
Q 2675 -91 2278 -91 
Q 1328 -91 801 392 
Q 275 875 275 1747 
Q 275 2603 792 3093 
Q 1309 3584 2216 3584 
Q 3041 3584 3536 3087 
Q 4031 2591 4031 1759 
z
M 2881 2131 
Q 2881 2450 2695 2645 
Q 2509 2841 2209 2841 
Q 1884 2841 1681 2658 
Q 1478 2475 1428 2131 
L 2881 2131 
z
" transform="scale(0.015625)"/>
      <path id="DejaVuSans-Bold-6d" d="M 3781 2919 
Q 3994 3244 4286 3414 
Q 4578 3584 4928 3584 
Q 5531 3584 5847 3212 
Q 6163 2841 6163 2131 
L 6163 0 
L 5038 0 
L 5038 1825 
Q 5041 1866 5042 1909 
Q 5044 1953 5044 2034 
Q 5044 2406 4934 2573 
Q 4825 2741 4581 2741 
Q 4263 2741 4089 2478 
Q 3916 2216 3909 1719 
L 3909 0 
L 2784 0 
L 2784 1825 
Q 2784 2406 2684 2573 
Q 2584 2741 2328 2741 
Q 2006 2741 1831 2477 
Q 1656 2213 1656 1722 
L 1656 0 
L 531 0 
L 531 3500 
L 1656 3500 
L 1656 2988 
Q 1863 3284 2130 3434 
Q 2397 3584 2719 3584 
Q 3081 3584 3359 3409 
Q 3638 3234 3781 2919 
z
" transform="scale(0.015625)"/>
      <path id="DejaVuSans-Bold-70" d="M 1656 506 
L 1656 -1331 
L 538 -1331 
L 538 3500 
L 1656 3500 
L 1656 2988 
Q 1888 3294 2169 3439 
Q 2450 3584 2816 3584 
Q 3463 3584 3878 3070 
Q 4294 2556 4294 1747 
Q 4294 938 3878 423 
Q 3463 -91 2816 -91 
Q 2450 -91 2169 54 
Q 1888 200 1656 506 
z
M 2400 2772 
Q 2041 2772 1848 2508 
Q 1656 2244 1656 1747 
Q 1656 1250 1848 986 
Q 2041 722 2400 722 
Q 2759 722 2948 984 
Q 3138 1247 3138 1747 
Q 3138 2247 2948 2509 
Q 2759 2772 2400 2772 
z
" transform="scale(0.015625)"/>
      <path id="DejaVuSans-Bold-72" d="M 3138 2547 
Q 2991 2616 2845 2648 
Q 2700 2681 2553 2681 
Q 2122 2681 1889 2404 
Q 1656 2128 1656 1613 
L 1656 0 
L 538 0 
L 538 3500 
L 1656 3500 
L 1656 2925 
Q 1872 3269 2151 3426 
Q 2431 3584 2822 3584 
Q 2878 3584 2943 3579 
Q 3009 3575 3134 3559 
L 3138 2547 
z
" transform="scale(0.015625)"/>
      <path id="DejaVuSans-Bold-61" d="M 2106 1575 
Q 1756 1575 1579 1456 
Q 1403 1338 1403 1106 
Q 1403 894 1545 773 
Q 1688 653 1941 653 
Q 2256 653 2472 879 
Q 2688 1106 2688 1447 
L 2688 1575 
L 2106 1575 
z
M 3816 1997 
L 3816 0 
L 2688 0 
L 2688 519 
Q 2463 200 2181 54 
Q 1900 -91 1497 -91 
Q 953 -91 614 226 
Q 275 544 275 1050 
Q 275 1666 698 1953 
Q 1122 2241 2028 2241 
L 2688 2241 
L 2688 2328 
Q 2688 2594 2478 2717 
Q 2269 2841 1825 2841 
Q 1466 2841 1156 2769 
Q 847 2697 581 2553 
L 581 3406 
Q 941 3494 1303 3539 
Q 1666 3584 2028 3584 
Q 2975 3584 3395 3211 
Q 3816 2838 3816 1997 
z
" transform="scale(0.015625)"/>
      <path id="DejaVuSans-Bold-75" d="M 500 1363 
L 500 3500 
L 1625 3500 
L 1625 3150 
Q 1625 2866 1622 2436 
Q 1619 2006 1619 1863 
Q 1619 1441 1641 1255 
Q 1663 1069 1716 984 
Q 1784 875 1895 815 
Q 2006 756 2150 756 
Q 2500 756 2700 1025 
Q 2900 1294 2900 1772 
L 2900 3500 
L 4019 3500 
L 4019 0 
L 2900 0 
L 2900 506 
Q 2647 200 2364 54 
Q 2081 -91 1741 -91 
Q 1134 -91 817 281 
Q 500 653 500 1363 
z
" transform="scale(0.015625)"/>
      <path id="DejaVuSans-Bold-6f" d="M 2203 2784 
Q 1831 2784 1636 2517 
Q 1441 2250 1441 1747 
Q 1441 1244 1636 976 
Q 1831 709 2203 709 
Q 2569 709 2762 976 
Q 2956 1244 2956 1747 
Q 2956 2250 2762 2517 
Q 2569 2784 2203 2784 
z
M 2203 3584 
Q 3106 3584 3614 3096 
Q 4122 2609 4122 1747 
Q 4122 884 3614 396 
Q 3106 -91 2203 -91 
Q 1297 -91 786 396 
Q 275 884 275 1747 
Q 275 2609 786 3096 
Q 1297 3584 2203 3584 
z
" transform="scale(0.015625)"/>
      <path id="DejaVuSans-Bold-76" d="M 97 3500 
L 1216 3500 
L 2088 1081 
L 2956 3500 
L 4078 3500 
L 2700 0 
L 1472 0 
L 97 3500 
z
" transform="scale(0.015625)"/>
      <path id="DejaVuSans-Bold-69" d="M 538 3500 
L 1656 3500 
L 1656 0 
L 538 0 
L 538 3500 
z
M 538 4863 
L 1656 4863 
L 1656 3950 
L 538 3950 
L 538 4863 
z
" transform="scale(0.015625)"/>
     </defs>
     <use xlink:href="#DejaVuSans-Bold-47"/>
     <use xlink:href="#DejaVuSans-Bold-50" x="82.080078"/>
     <use xlink:href="#DejaVuSans-Bold-55" x="155.371094"/>
     <use xlink:href="#DejaVuSans-Bold-20" x="236.572266"/>
     <use xlink:href="#DejaVuSans-Bold-74" x="271.386719"/>
     <use xlink:href="#DejaVuSans-Bold-65" x="319.189453"/>
     <use xlink:href="#DejaVuSans-Bold-6d" x="387.011719"/>
     <use xlink:href="#DejaVuSans-Bold-70" x="491.210938"/>
     <use xlink:href="#DejaVuSans-Bold-65" x="562.792969"/>
     <use xlink:href="#DejaVuSans-Bold-72" x="630.615234"/>
     <use xlink:href="#DejaVuSans-Bold-61" x="679.931641"/>
     <use xlink:href="#DejaVuSans-Bold-74" x="747.412109"/>
     <use xlink:href="#DejaVuSans-Bold-75" x="795.214844"/>
     <use xlink:href="#DejaVuSans-Bold-72" x="866.40625"/>
     <use xlink:href="#DejaVuSans-Bold-65" x="915.722656"/>
     <use xlink:href="#DejaVuSans-Bold-20" x="983.544922"/>
     <use xlink:href="#DejaVuSans-Bold-6f" x="1018.359375"/>
     <use xlink:href="#DejaVuSans-Bold-76" x="1087.060547"/>
     <use xlink:href="#DejaVuSans-Bold-65" x="1152.246094"/>
     <use xlink:href="#DejaVuSans-Bold-72" x="1220.068359"/>
     <use xlink:href="#DejaVuSans-Bold-20" x="1269.384766"/>
     <use xlink:href="#DejaVuSans-Bold-74" x="1304.199219"/>
     <use xlink:href="#DejaVuSans-Bold-69" x="1352.001953"/>
     <use xlink:href="#DejaVuSans-Bold-6d" x="1386.279297"/>
     <use xlink:href="#DejaVuSans-Bold-65" x="1490.478516"/>
    </g>
   </g>
   <g id="legend_1">
    <g id="patch_7">
     <path d="M 653.714063 82.354375 
L 848.2 82.354375 
Q 850.2 82.354375 850.2 80.354375 
L 850.2 37.32 
Q 850.2 35.32 848.2 35.32 
L 653.714063 35.32 
Q 651.714063 35.32 651.714063 37.32 
L 651.714063 80.354375 
Q 651.714063 82.354375 653.714063 82.354375 
z
" style="fill: #4d4d4d; opacity: 0.5; stroke: #4d4d4d; stroke-linejoin: miter"/>
    </g>
    <g id="patch_8">
     <path d="M 651.714063 80.354375 
L 846.2 80.354375 
Q 848.2 80.354375 848.2 78.354375 
L 848.2 35.32 
Q 848.2 33.32 846.2 33.32 
L 651.714063 33.32 
Q 649.714063 33.32 649.714063 35.32 
L 649.714063 78.354375 
Q 649.714063 80.354375 651.714063 80.354375 
z
" style="fill: #ffffff; stroke: #cccccc; stroke-linejoin: miter"/>
    </g>
    <g id="line2d_17">
     <path d="M 653.714063 41.418437 
L 663.714063 41.418437 
L 673.714063 41.418437 
" style="fill: none; stroke: #e74c3c; stroke-width: 2; stroke-linecap: square"/>
    </g>
    <g id="text_18">
     <!-- GPU temperature (°C) - Summer -->
     <g transform="translate(681.714063 44.918437) scale(0.1 -0.1)">
      <defs>
       <path id="DejaVuSans-47" d="M 3809 666 
L 3809 1919 
L 2778 1919 
L 2778 2438 
L 4434 2438 
L 4434 434 
Q 4069 175 3628 42 
Q 3188 -91 2688 -91 
Q 1594 -91 976 548 
Q 359 1188 359 2328 
Q 359 3472 976 4111 
Q 1594 4750 2688 4750 
Q 3144 4750 3555 4637 
Q 3966 4525 4313 4306 
L 4313 3634 
Q 3963 3931 3569 4081 
Q 3175 4231 2741 4231 
Q 1884 4231 1454 3753 
Q 1025 3275 1025 2328 
Q 1025 1384 1454 906 
Q 1884 428 2741 428 
Q 3075 428 3337 486 
Q 3600 544 3809 666 
z
" transform="scale(0.015625)"/>
       <path id="DejaVuSans-50" d="M 1259 4147 
L 1259 2394 
L 2053 2394 
Q 2494 2394 2734 2622 
Q 2975 2850 2975 3272 
Q 2975 3691 2734 3919 
Q 2494 4147 2053 4147 
L 1259 4147 
z
M 628 4666 
L 2053 4666 
Q 2838 4666 3239 4311 
Q 3641 3956 3641 3272 
Q 3641 2581 3239 2228 
Q 2838 1875 2053 1875 
L 1259 1875 
L 1259 0 
L 628 0 
L 628 4666 
z
" transform="scale(0.015625)"/>
       <path id="DejaVuSans-55" d="M 556 4666 
L 1191 4666 
L 1191 1831 
Q 1191 1081 1462 751 
Q 1734 422 2344 422 
Q 2950 422 3222 751 
Q 3494 1081 3494 1831 
L 3494 4666 
L 4128 4666 
L 4128 1753 
Q 4128 841 3676 375 
Q 3225 -91 2344 -91 
Q 1459 -91 1007 375 
Q 556 841 556 1753 
L 556 4666 
z
" transform="scale(0.015625)"/>
       <path id="DejaVuSans-2d" d="M 313 2009 
L 1997 2009 
L 1997 1497 
L 313 1497 
L 313 2009 
z
" transform="scale(0.015625)"/>
       <path id="DejaVuSans-53" d="M 3425 4513 
L 3425 3897 
Q 3066 4069 2747 4153 
Q 2428 4238 2131 4238 
Q 1616 4238 1336 4038 
Q 1056 3838 1056 3469 
Q 1056 3159 1242 3001 
Q 1428 2844 1947 2747 
L 2328 2669 
Q 3034 2534 3370 2195 
Q 3706 1856 3706 1288 
Q 3706 609 3251 259 
Q 2797 -91 1919 -91 
Q 1588 -91 1214 -16 
Q 841 59 441 206 
L 441 856 
Q 825 641 1194 531 
Q 1563 422 1919 422 
Q 2459 422 2753 634 
Q 3047 847 3047 1241 
Q 3047 1584 2836 1778 
Q 2625 1972 2144 2069 
L 1759 2144 
Q 1053 2284 737 2584 
Q 422 2884 422 3419 
Q 422 4038 858 4394 
Q 1294 4750 2059 4750 
Q 2388 4750 2728 4690 
Q 3069 4631 3425 4513 
z
" transform="scale(0.015625)"/>
      </defs>
      <use xlink:href="#DejaVuSans-47"/>
      <use xlink:href="#DejaVuSans-50" x="77.490234"/>
      <use xlink:href="#DejaVuSans-55" x="137.792969"/>
      <use xlink:href="#DejaVuSans-20" x="210.986328"/>
      <use xlink:href="#DejaVuSans-74" x="242.773438"/>
      <use xlink:href="#DejaVuSans-65" x="281.982422"/>
      <use xlink:href="#DejaVuSans-6d" x="343.505859"/>
      <use xlink:href="#DejaVuSans-70" x="440.917969"/>
      <use xlink:href="#DejaVuSans-65" x="504.394531"/>
      <use xlink:href="#DejaVuSans-72" x="565.917969"/>
      <use xlink:href="#DejaVuSans-61" x="607.03125"/>
      <use xlink:href="#DejaVuSans-74" x="668.310547"/>
      <use xlink:href="#DejaVuSans-75" x="707.519531"/>
      <use xlink:href="#DejaVuSans-72" x="770.898438"/>
      <use xlink:href="#DejaVuSans-65" x="809.761719"/>
      <use xlink:href="#DejaVuSans-20" x="871.285156"/>
      <use xlink:href="#DejaVuSans-28" x="903.072266"/>
      <use xlink:href="#DejaVuSans-b0" x="942.085938"/>
      <use xlink:href="#DejaVuSans-43" x="992.085938"/>
      <use xlink:href="#DejaVuSans-29" x="1061.910156"/>
      <use xlink:href="#DejaVuSans-20" x="1100.923828"/>
      <use xlink:href="#DejaVuSans-2d" x="1132.710938"/>
      <use xlink:href="#DejaVuSans-20" x="1168.794922"/>
      <use xlink:href="#DejaVuSans-53" x="1200.582031"/>
      <use xlink:href="#DejaVuSans-75" x="1264.058594"/>
      <use xlink:href="#DejaVuSans-6d" x="1327.4375"/>
      <use xlink:href="#DejaVuSans-6d" x="1424.849609"/>
      <use xlink:href="#DejaVuSans-65" x="1522.261719"/>
      <use xlink:href="#DejaVuSans-72" x="1583.785156"/>
     </g>
    </g>
    <g id="line2d_18">
     <path d="M 653.714063 56.096563 
L 663.714063 56.096563 
L 673.714063 56.096563 
" style="fill: none; stroke: #3498db; stroke-width: 2; stroke-linecap: square"/>
    </g>
    <g id="text_19">
     <!-- GPU temperature (°C) - Spring -->
     <g transform="translate(681.714063 59.596563) scale(0.1 -0.1)">
      <defs>
       <path id="DejaVuSans-67" d="M 2906 1791 
Q 2906 2416 2648 2759 
Q 2391 3103 1925 3103 
Q 1463 3103 1205 2759 
Q 947 2416 947 1791 
Q 947 1169 1205 825 
Q 1463 481 1925 481 
Q 2391 481 2648 825 
Q 2906 1169 2906 1791 
z
M 3481 434 
Q 3481 -459 3084 -895 
Q 2688 -1331 1869 -1331 
Q 1566 -1331 1297 -1286 
Q 1028 -1241 775 -1147 
L 775 -588 
Q 1028 -725 1275 -790 
Q 1522 -856 1778 -856 
Q 2344 -856 2625 -561 
Q 2906 -266 2906 331 
L 2906 616 
Q 2728 306 2450 153 
Q 2172 0 1784 0 
Q 1141 0 747 490 
Q 353 981 353 1791 
Q 353 2603 747 3093 
Q 1141 3584 1784 3584 
Q 2172 3584 2450 3431 
Q 2728 3278 2906 2969 
L 2906 3500 
L 3481 3500 
L 3481 434 
z
" transform="scale(0.015625)"/>
      </defs>
      <use xlink:href="#DejaVuSans-47"/>
      <use xlink:href="#DejaVuSans-50" x="77.490234"/>
      <use xlink:href="#DejaVuSans-55" x="137.792969"/>
      <use xlink:href="#DejaVuSans-20" x="210.986328"/>
      <use xlink:href="#DejaVuSans-74" x="242.773438"/>
      <use xlink:href="#DejaVuSans-65" x="281.982422"/>
      <use xlink:href="#DejaVuSans-6d" x="343.505859"/>
      <use xlink:href="#DejaVuSans-70" x="440.917969"/>
      <use xlink:href="#DejaVuSans-65" x="504.394531"/>
      <use xlink:href="#DejaVuSans-72" x="565.917969"/>
      <use xlink:href="#DejaVuSans-61" x="607.03125"/>
      <use xlink:href="#DejaVuSans-74" x="668.310547"/>
      <use xlink:href="#DejaVuSans-75" x="707.519531"/>
      <use xlink:href="#DejaVuSans-72" x="770.898438"/>
      <use xlink:href="#DejaVuSans-65" x="809.761719"/>
      <use xlink:href="#DejaVuSans-20" x="871.285156"/>
      <use xlink:href="#DejaVuSans-28" x="903.072266"/>
      <use xlink:href="#DejaVuSans-b0" x="942.085938"/>
      <use xlink:href="#DejaVuSans-43" x="992.085938"/>
      <use xlink:href="#DejaVuSans-29" x="1061.910156"/>
      <use xlink:href="#DejaVuSans-20" x="1100.923828"/>
      <use xlink:href="#DejaVuSans-2d" x="1132.710938"/>
      <use xlink:href="#DejaVuSans-20" x="1168.794922"/>
      <use xlink:href="#DejaVuSans-53" x="1200.582031"/>
      <use xlink:href="#DejaVuSans-70" x="1264.058594"/>
      <use xlink:href="#DejaVuSans-72" x="1327.535156"/>
      <use xlink:href="#DejaVuSans-69" x="1368.648438"/>
      <use xlink:href="#DejaVuSans-6e" x="1396.431641"/>
      <use xlink:href="#DejaVuSans-67" x="1459.810547"/>
     </g>
    </g>
    <g id="line2d_19">
     <path d="M 653.714063 70.774687 
L 663.714063 70.774687 
L 673.714063 70.774687 
" style="fill: none; stroke-dasharray: 7.4,3.2; stroke-dashoffset: 0; stroke: #000000; stroke-opacity: 0.9; stroke-width: 2"/>
    </g>
    <g id="text_20">
     <!-- Cooler on (5000 RPM) -->
     <g transform="translate(681.714063 74.274687) scale(0.1 -0.1)">
      <defs>
       <path id="DejaVuSans-6c" d="M 603 4863 
L 1178 4863 
L 1178 0 
L 603 0 
L 603 4863 
z
" transform="scale(0.015625)"/>
       <path id="DejaVuSans-52" d="M 2841 2188 
Q 3044 2119 3236 1894 
Q 3428 1669 3622 1275 
L 4263 0 
L 3584 0 
L 2988 1197 
Q 2756 1666 2539 1819 
Q 2322 1972 1947 1972 
L 1259 1972 
L 1259 0 
L 628 0 
L 628 4666 
L 2053 4666 
Q 2853 4666 3247 4331 
Q 3641 3997 3641 3322 
Q 3641 2881 3436 2590 
Q 3231 2300 2841 2188 
z
M 1259 4147 
L 1259 2491 
L 2053 2491 
Q 2509 2491 2742 2702 
Q 2975 2913 2975 3322 
Q 2975 3731 2742 3939 
Q 2509 4147 2053 4147 
L 1259 4147 
z
" transform="scale(0.015625)"/>
      </defs>
      <use xlink:href="#DejaVuSans-43"/>
      <use xlink:href="#DejaVuSans-6f" x="69.824219"/>
      <use xlink:href="#DejaVuSans-6f" x="131.005859"/>
      <use xlink:href="#DejaVuSans-6c" x="192.1875"/>
      <use xlink:href="#DejaVuSans-65" x="219.970703"/>
      <use xlink:href="#DejaVuSans-72" x="281.494141"/>
      <use xlink:href="#DejaVuSans-20" x="322.607422"/>
      <use xlink:href="#DejaVuSans-6f" x="354.394531"/>
      <use xlink:href="#DejaVuSans-6e" x="415.576172"/>
      <use xlink:href="#DejaVuSans-20" x="478.955078"/>
      <use xlink:href="#DejaVuSans-28" x="510.742188"/>
      <use xlink:href="#DejaVuSans-35" x="549.755859"/>
      <use xlink:href="#DejaVuSans-30" x="613.378906"/>
      <use xlink:href="#DejaVuSans-30" x="677.001953"/>
      <use xlink:href="#DejaVuSans-30" x="740.625"/>
      <use xlink:href="#DejaVuSans-20" x="804.248047"/>
      <use xlink:href="#DejaVuSans-52" x="836.035156"/>
      <use xlink:href="#DejaVuSans-50" x="905.517578"/>
      <use xlink:href="#DejaVuSans-4d" x="965.820312"/>
      <use xlink:href="#DejaVuSans-29" x="1052.099609"/>
     </g>
    </g>
   </g>
   <g id="line2d_20">
    <path d="M 292.462082 387.16 
L 292.462082 28.32 
" clip-path="url(#p9bff121425)" style="fill: none; stroke-dasharray: 7.4,3.2; stroke-dashoffset: 0; stroke: #000000; stroke-opacity: 0.9; stroke-width: 2"/>
   </g>
  </g>
 </g>
 <defs>
  <clipPath id="p9bff121425">
   <rect x="47.45" y="28.32" width="805.75" height="358.84"/>
  </clipPath>
 </defs>
</svg>
