<?xml version="1.0" encoding="utf-8" standalone="no"?>
<!DOCTYPE svg PUBLIC "-//W3C//DTD SVG 1.1//EN"
  "http://www.w3.org/Graphics/SVG/1.1/DTD/svg11.dtd">
<svg xmlns:xlink="http://www.w3.org/1999/xlink" width="864pt" height="432pt" viewBox="0 0 864 432" xmlns="http://www.w3.org/2000/svg" version="1.1">
 <metadata>
  <rdf:RDF xmlns:dc="http://purl.org/dc/elements/1.1/" xmlns:cc="http://creativecommons.org/ns#" xmlns:rdf="http://www.w3.org/1999/02/22-rdf-syntax-ns#">
   <cc:Work>
    <dc:type rdf:resource="http://purl.org/dc/dcmitype/StillImage"/>
    <dc:date>2026-05-21T23:06:33.553170</dc:date>
    <dc:format>image/svg+xml</dc:format>
    <dc:creator>
     <cc:Agent>
      <dc:title>Matplotlib v3.9.2, https://matplotlib.org/</dc:title>
     </cc:Agent>
    </dc:creator>
   </cc:Work>
  </rdf:RDF>
 </metadata>
 <defs>
  <style type="text/css">*{stroke-linejoin: round; stroke-linecap: butt}</style>
 </defs>
 <g id="figure_1">
  <g id="patch_1">
   <path d="M 0 432 
L 864 432 
L 864 0 
L 0 0 
z
" style="fill: #ffffff"/>
  </g>
  <g id="axes_1">
   <g id="patch_2">
    <path d="M 47.45 387.16 
L 853.2 387.16 
L 853.2 28.32 
L 47.45 28.32 
z
" style="fill: #ffffff"/>
   </g>
   <g id="matplotlib.axis_1">
    <g id="xtick_1">
     <g id="line2d_1">
      <defs>
       <path id="m5302563d5a" d="M 0 0 
L 0 3.5 
" style="stroke: #000000; stroke-width: 0.8"/>
      </defs>
      <g>
       <use xlink:href="#m5302563d5a" x="47.45" y="387.16" style="stroke: #000000; stroke-width: 0.8"/>
      </g>
     </g>
     <g id="text_1">
      <!-- 0 -->
      <g transform="translate(44.26875 401.758438) scale(0.1 -0.1)">
       <defs>
        <path id="DejaVuSans-30" d="M 2034 4250 
Q 1547 4250 1301 3770 
Q 1056 3291 1056 2328 
Q 1056 1369 1301 889 
Q 1547 409 2034 409 
Q 2525 409 2770 889 
Q 3016 1369 3016 2328 
Q 3016 3291 2770 3770 
Q 2525 4250 2034 4250 
z
M 2034 4750 
Q 2819 4750 3233 4129 
Q 3647 3509 3647 2328 
Q 3647 1150 3233 529 
Q 2819 -91 2034 -91 
Q 1250 -91 836 529 
Q 422 1150 422 2328 
Q 422 3509 836 4129 
Q 1250 4750 2034 4750 
z
" transform="scale(0.015625)"/>
       </defs>
       <use xlink:href="#DejaVuSans-30"/>
      </g>
     </g>
    </g>
    <g id="xtick_2">
     <g id="line2d_2">
      <g>
       <use xlink:href="#m5302563d5a" x="148.845285" y="387.16" style="stroke: #000000; stroke-width: 0.8"/>
      </g>
     </g>
     <g id="text_2">
      <!-- 5 -->
      <g transform="translate(145.664035 401.758438) scale(0.1 -0.1)">
       <defs>
        <path id="DejaVuSans-35" d="M 691 4666 
L 3169 4666 
L 3169 4134 
L 1269 4134 
L 1269 2991 
Q 1406 3038 1543 3061 
Q 1681 3084 1819 3084 
Q 2600 3084 3056 2656 
Q 3513 2228 3513 1497 
Q 3513 744 3044 326 
Q 2575 -91 1722 -91 
Q 1428 -91 1123 -41 
Q 819 9 494 109 
L 494 744 
Q 775 591 1075 516 
Q 1375 441 1709 441 
Q 2250 441 2565 725 
Q 2881 1009 2881 1497 
Q 2881 1984 2565 2268 
Q 2250 2553 1709 2553 
Q 1456 2553 1204 2497 
Q 953 2441 691 2322 
L 691 4666 
z
" transform="scale(0.015625)"/>
       </defs>
       <use xlink:href="#DejaVuSans-35"/>
      </g>
     </g>
    </g>
    <g id="xtick_3">
     <g id="line2d_3">
      <g>
       <use xlink:href="#m5302563d5a" x="250.240569" y="387.16" style="stroke: #000000; stroke-width: 0.8"/>
      </g>
     </g>
     <g id="text_3">
      <!-- 10 -->
      <g transform="translate(243.878069 401.758438) scale(0.1 -0.1)">
       <defs>
        <path id="DejaVuSans-31" d="M 794 531 
L 1825 531 
L 1825 4091 
L 703 3866 
L 703 4441 
L 1819 4666 
L 2450 4666 
L 2450 531 
L 3481 531 
L 3481 0 
L 794 0 
L 794 531 
z
" transform="scale(0.015625)"/>
       </defs>
       <use xlink:href="#DejaVuSans-31"/>
       <use xlink:href="#DejaVuSans-30" x="63.623047"/>
      </g>
     </g>
    </g>
    <g id="xtick_4">
     <g id="line2d_4">
      <g>
       <use xlink:href="#m5302563d5a" x="351.635854" y="387.16" style="stroke: #000000; stroke-width: 0.8"/>
      </g>
     </g>
     <g id="text_4">
      <!-- 15 -->
      <g transform="translate(345.273354 401.758438) scale(0.1 -0.1)">
       <use xlink:href="#DejaVuSans-31"/>
       <use xlink:href="#DejaVuSans-35" x="63.623047"/>
      </g>
     </g>
    </g>
    <g id="xtick_5">
     <g id="line2d_5">
      <g>
       <use xlink:href="#m5302563d5a" x="453.031139" y="387.16" style="stroke: #000000; stroke-width: 0.8"/>
      </g>
     </g>
     <g id="text_5">
      <!-- 20 -->
      <g transform="translate(446.668639 401.758438) scale(0.1 -0.1)">
       <defs>
        <path id="DejaVuSans-32" d="M 1228 531 
L 3431 531 
L 3431 0 
L 469 0 
L 469 531 
Q 828 903 1448 1529 
Q 2069 2156 2228 2338 
Q 2531 2678 2651 2914 
Q 2772 3150 2772 3378 
Q 2772 3750 2511 3984 
Q 2250 4219 1831 4219 
Q 1534 4219 1204 4116 
Q 875 4013 500 3803 
L 500 4441 
Q 881 4594 1212 4672 
Q 1544 4750 1819 4750 
Q 2544 4750 2975 4387 
Q 3406 4025 3406 3419 
Q 3406 3131 3298 2873 
Q 3191 2616 2906 2266 
Q 2828 2175 2409 1742 
Q 1991 1309 1228 531 
z
" transform="scale(0.015625)"/>
       </defs>
       <use xlink:href="#DejaVuSans-32"/>
       <use xlink:href="#DejaVuSans-30" x="63.623047"/>
      </g>
     </g>
    </g>
    <g id="xtick_6">
     <g id="line2d_6">
      <g>
       <use xlink:href="#m5302563d5a" x="554.426423" y="387.16" style="stroke: #000000; stroke-width: 0.8"/>
      </g>
     </g>
     <g id="text_6">
      <!-- 25 -->
      <g transform="translate(548.063923 401.758438) scale(0.1 -0.1)">
       <use xlink:href="#DejaVuSans-32"/>
       <use xlink:href="#DejaVuSans-35" x="63.623047"/>
      </g>
     </g>
    </g>
    <g id="xtick_7">
     <g id="line2d_7">
      <g>
       <use xlink:href="#m5302563d5a" x="655.821708" y="387.16" style="stroke: #000000; stroke-width: 0.8"/>
      </g>
     </g>
     <g id="text_7">
      <!-- 30 -->
      <g transform="translate(649.459208 401.758438) scale(0.1 -0.1)">
       <defs>
        <path id="DejaVuSans-33" d="M 2597 2516 
Q 3050 2419 3304 2112 
Q 3559 1806 3559 1356 
Q 3559 666 3084 287 
Q 2609 -91 1734 -91 
Q 1441 -91 1130 -33 
Q 819 25 488 141 
L 488 750 
Q 750 597 1062 519 
Q 1375 441 1716 441 
Q 2309 441 2620 675 
Q 2931 909 2931 1356 
Q 2931 1769 2642 2001 
Q 2353 2234 1838 2234 
L 1294 2234 
L 1294 2753 
L 1863 2753 
Q 2328 2753 2575 2939 
Q 2822 3125 2822 3475 
Q 2822 3834 2567 4026 
Q 2313 4219 1838 4219 
Q 1578 4219 1281 4162 
Q 984 4106 628 3988 
L 628 4550 
Q 988 4650 1302 4700 
Q 1616 4750 1894 4750 
Q 2613 4750 3031 4423 
Q 3450 4097 3450 3541 
Q 3450 3153 3228 2886 
Q 3006 2619 2597 2516 
z
" transform="scale(0.015625)"/>
       </defs>
       <use xlink:href="#DejaVuSans-33"/>
       <use xlink:href="#DejaVuSans-30" x="63.623047"/>
      </g>
     </g>
    </g>
    <g id="xtick_8">
     <g id="line2d_8">
      <g>
       <use xlink:href="#m5302563d5a" x="757.216993" y="387.16" style="stroke: #000000; stroke-width: 0.8"/>
      </g>
     </g>
     <g id="text_8">
      <!-- 35 -->
      <g transform="translate(750.854493 401.758438) scale(0.1 -0.1)">
       <use xlink:href="#DejaVuSans-33"/>
       <use xlink:href="#DejaVuSans-35" x="63.623047"/>
      </g>
     </g>
    </g>
    <g id="text_9">
     <!-- Test duration (Minutes) -->
     <g transform="translate(381.14875 416.95625) scale(0.12 -0.12)">
      <defs>
       <path id="DejaVuSans-54" d="M -19 4666 
L 3928 4666 
L 3928 4134 
L 2272 4134 
L 2272 0 
L 1638 0 
L 1638 4134 
L -19 4134 
L -19 4666 
z
" transform="scale(0.015625)"/>
       <path id="DejaVuSans-65" d="M 3597 1894 
L 3597 1613 
L 953 1613 
Q 991 1019 1311 708 
Q 1631 397 2203 397 
Q 2534 397 2845 478 
Q 3156 559 3463 722 
L 3463 178 
Q 3153 47 2828 -22 
Q 2503 -91 2169 -91 
Q 1331 -91 842 396 
Q 353 884 353 1716 
Q 353 2575 817 3079 
Q 1281 3584 2069 3584 
Q 2775 3584 3186 3129 
Q 3597 2675 3597 1894 
z
M 3022 2063 
Q 3016 2534 2758 2815 
Q 2500 3097 2075 3097 
Q 1594 3097 1305 2825 
Q 1016 2553 972 2059 
L 3022 2063 
z
" transform="scale(0.015625)"/>
       <path id="DejaVuSans-73" d="M 2834 3397 
L 2834 2853 
Q 2591 2978 2328 3040 
Q 2066 3103 1784 3103 
Q 1356 3103 1142 2972 
Q 928 2841 928 2578 
Q 928 2378 1081 2264 
Q 1234 2150 1697 2047 
L 1894 2003 
Q 2506 1872 2764 1633 
Q 3022 1394 3022 966 
Q 3022 478 2636 193 
Q 2250 -91 1575 -91 
Q 1294 -91 989 -36 
Q 684 19 347 128 
L 347 722 
Q 666 556 975 473 
Q 1284 391 1588 391 
Q 1994 391 2212 530 
Q 2431 669 2431 922 
Q 2431 1156 2273 1281 
Q 2116 1406 1581 1522 
L 1381 1569 
Q 847 1681 609 1914 
Q 372 2147 372 2553 
Q 372 3047 722 3315 
Q 1072 3584 1716 3584 
Q 2034 3584 2315 3537 
Q 2597 3491 2834 3397 
z
" transform="scale(0.015625)"/>
       <path id="DejaVuSans-74" d="M 1172 4494 
L 1172 3500 
L 2356 3500 
L 2356 3053 
L 1172 3053 
L 1172 1153 
Q 1172 725 1289 603 
Q 1406 481 1766 481 
L 2356 481 
L 2356 0 
L 1766 0 
Q 1100 0 847 248 
Q 594 497 594 1153 
L 594 3053 
L 172 3053 
L 172 3500 
L 594 3500 
L 594 4494 
L 1172 4494 
z
" transform="scale(0.015625)"/>
       <path id="DejaVuSans-20" transform="scale(0.015625)"/>
       <path id="DejaVuSans-64" d="M 2906 2969 
L 2906 4863 
L 3481 4863 
L 3481 0 
L 2906 0 
L 2906 525 
Q 2725 213 2448 61 
Q 2172 -91 1784 -91 
Q 1150 -91 751 415 
Q 353 922 353 1747 
Q 353 2572 751 3078 
Q 1150 3584 1784 3584 
Q 2172 3584 2448 3432 
Q 2725 3281 2906 2969 
z
M 947 1747 
Q 947 1113 1208 752 
Q 1469 391 1925 391 
Q 2381 391 2643 752 
Q 2906 1113 2906 1747 
Q 2906 2381 2643 2742 
Q 2381 3103 1925 3103 
Q 1469 3103 1208 2742 
Q 947 2381 947 1747 
z
" transform="scale(0.015625)"/>
       <path id="DejaVuSans-75" d="M 544 1381 
L 544 3500 
L 1119 3500 
L 1119 1403 
Q 1119 906 1312 657 
Q 1506 409 1894 409 
Q 2359 409 2629 706 
Q 2900 1003 2900 1516 
L 2900 3500 
L 3475 3500 
L 3475 0 
L 2900 0 
L 2900 538 
Q 2691 219 2414 64 
Q 2138 -91 1772 -91 
Q 1169 -91 856 284 
Q 544 659 544 1381 
z
M 1991 3584 
L 1991 3584 
z
" transform="scale(0.015625)"/>
       <path id="DejaVuSans-72" d="M 2631 2963 
Q 2534 3019 2420 3045 
Q 2306 3072 2169 3072 
Q 1681 3072 1420 2755 
Q 1159 2438 1159 1844 
L 1159 0 
L 581 0 
L 581 3500 
L 1159 3500 
L 1159 2956 
Q 1341 3275 1631 3429 
Q 1922 3584 2338 3584 
Q 2397 3584 2469 3576 
Q 2541 3569 2628 3553 
L 2631 2963 
z
" transform="scale(0.015625)"/>
       <path id="DejaVuSans-61" d="M 2194 1759 
Q 1497 1759 1228 1600 
Q 959 1441 959 1056 
Q 959 750 1161 570 
Q 1363 391 1709 391 
Q 2188 391 2477 730 
Q 2766 1069 2766 1631 
L 2766 1759 
L 2194 1759 
z
M 3341 1997 
L 3341 0 
L 2766 0 
L 2766 531 
Q 2569 213 2275 61 
Q 1981 -91 1556 -91 
Q 1019 -91 701 211 
Q 384 513 384 1019 
Q 384 1609 779 1909 
Q 1175 2209 1959 2209 
L 2766 2209 
L 2766 2266 
Q 2766 2663 2505 2880 
Q 2244 3097 1772 3097 
Q 1472 3097 1187 3025 
Q 903 2953 641 2809 
L 641 3341 
Q 956 3463 1253 3523 
Q 1550 3584 1831 3584 
Q 2591 3584 2966 3190 
Q 3341 2797 3341 1997 
z
" transform="scale(0.015625)"/>
       <path id="DejaVuSans-69" d="M 603 3500 
L 1178 3500 
L 1178 0 
L 603 0 
L 603 3500 
z
M 603 4863 
L 1178 4863 
L 1178 4134 
L 603 4134 
L 603 4863 
z
" transform="scale(0.015625)"/>
       <path id="DejaVuSans-6f" d="M 1959 3097 
Q 1497 3097 1228 2736 
Q 959 2375 959 1747 
Q 959 1119 1226 758 
Q 1494 397 1959 397 
Q 2419 397 2687 759 
Q 2956 1122 2956 1747 
Q 2956 2369 2687 2733 
Q 2419 3097 1959 3097 
z
M 1959 3584 
Q 2709 3584 3137 3096 
Q 3566 2609 3566 1747 
Q 3566 888 3137 398 
Q 2709 -91 1959 -91 
Q 1206 -91 779 398 
Q 353 888 353 1747 
Q 353 2609 779 3096 
Q 1206 3584 1959 3584 
z
" transform="scale(0.015625)"/>
       <path id="DejaVuSans-6e" d="M 3513 2113 
L 3513 0 
L 2938 0 
L 2938 2094 
Q 2938 2591 2744 2837 
Q 2550 3084 2163 3084 
Q 1697 3084 1428 2787 
Q 1159 2491 1159 1978 
L 1159 0 
L 581 0 
L 581 3500 
L 1159 3500 
L 1159 2956 
Q 1366 3272 1645 3428 
Q 1925 3584 2291 3584 
Q 2894 3584 3203 3211 
Q 3513 2838 3513 2113 
z
" transform="scale(0.015625)"/>
       <path id="DejaVuSans-28" d="M 1984 4856 
Q 1566 4138 1362 3434 
Q 1159 2731 1159 2009 
Q 1159 1288 1364 580 
Q 1569 -128 1984 -844 
L 1484 -844 
Q 1016 -109 783 600 
Q 550 1309 550 2009 
Q 550 2706 781 3412 
Q 1013 4119 1484 4856 
L 1984 4856 
z
" transform="scale(0.015625)"/>
       <path id="DejaVuSans-4d" d="M 628 4666 
L 1569 4666 
L 2759 1491 
L 3956 4666 
L 4897 4666 
L 4897 0 
L 4281 0 
L 4281 4097 
L 3078 897 
L 2444 897 
L 1241 4097 
L 1241 0 
L 628 0 
L 628 4666 
z
" transform="scale(0.015625)"/>
       <path id="DejaVuSans-29" d="M 513 4856 
L 1013 4856 
Q 1481 4119 1714 3412 
Q 1947 2706 1947 2009 
Q 1947 1309 1714 600 
Q 1481 -109 1013 -844 
L 513 -844 
Q 928 -128 1133 580 
Q 1338 1288 1338 2009 
Q 1338 2731 1133 3434 
Q 928 4138 513 4856 
z
" transform="scale(0.015625)"/>
      </defs>
      <use xlink:href="#DejaVuSans-54"/>
      <use xlink:href="#DejaVuSans-65" x="44.083984"/>
      <use xlink:href="#DejaVuSans-73" x="105.607422"/>
      <use xlink:href="#DejaVuSans-74" x="157.707031"/>
      <use xlink:href="#DejaVuSans-20" x="196.916016"/>
      <use xlink:href="#DejaVuSans-64" x="228.703125"/>
      <use xlink:href="#DejaVuSans-75" x="292.179688"/>
      <use xlink:href="#DejaVuSans-72" x="355.558594"/>
      <use xlink:href="#DejaVuSans-61" x="396.671875"/>
      <use xlink:href="#DejaVuSans-74" x="457.951172"/>
      <use xlink:href="#DejaVuSans-69" x="497.160156"/>
      <use xlink:href="#DejaVuSans-6f" x="524.943359"/>
      <use xlink:href="#DejaVuSans-6e" x="586.125"/>
      <use xlink:href="#DejaVuSans-20" x="649.503906"/>
      <use xlink:href="#DejaVuSans-28" x="681.291016"/>
      <use xlink:href="#DejaVuSans-4d" x="720.304688"/>
      <use xlink:href="#DejaVuSans-69" x="806.583984"/>
      <use xlink:href="#DejaVuSans-6e" x="834.367188"/>
      <use xlink:href="#DejaVuSans-75" x="897.746094"/>
      <use xlink:href="#DejaVuSans-74" x="961.125"/>
      <use xlink:href="#DejaVuSans-65" x="1000.333984"/>
      <use xlink:href="#DejaVuSans-73" x="1061.857422"/>
      <use xlink:href="#DejaVuSans-29" x="1113.957031"/>
     </g>
    </g>
   </g>
   <g id="matplotlib.axis_2">
    <g id="ytick_1">
     <g id="line2d_9">
      <defs>
       <path id="m75cc02586c" d="M 0 0 
L -3.5 0 
" style="stroke: #000000; stroke-width: 0.8"/>
      </defs>
      <g>
       <use xlink:href="#m75cc02586c" x="47.45" y="387.16" style="stroke: #000000; stroke-width: 0.8"/>
      </g>
     </g>
     <g id="text_10">
      <!-- 0 -->
      <g transform="translate(34.0875 390.959219) scale(0.1 -0.1)">
       <use xlink:href="#DejaVuSans-30"/>
      </g>
     </g>
    </g>
    <g id="ytick_2">
     <g id="line2d_10">
      <g>
       <use xlink:href="#m75cc02586c" x="47.45" y="341.63949" style="stroke: #000000; stroke-width: 0.8"/>
      </g>
     </g>
     <g id="text_11">
      <!-- 10 -->
      <g transform="translate(27.725 345.438709) scale(0.1 -0.1)">
       <use xlink:href="#DejaVuSans-31"/>
       <use xlink:href="#DejaVuSans-30" x="63.623047"/>
      </g>
     </g>
    </g>
    <g id="ytick_3">
     <g id="line2d_11">
      <g>
       <use xlink:href="#m75cc02586c" x="47.45" y="296.11898" style="stroke: #000000; stroke-width: 0.8"/>
      </g>
     </g>
     <g id="text_12">
      <!-- 20 -->
      <g transform="translate(27.725 299.918199) scale(0.1 -0.1)">
       <use xlink:href="#DejaVuSans-32"/>
       <use xlink:href="#DejaVuSans-30" x="63.623047"/>
      </g>
     </g>
    </g>
    <g id="ytick_4">
     <g id="line2d_12">
      <g>
       <use xlink:href="#m75cc02586c" x="47.45" y="250.59847" style="stroke: #000000; stroke-width: 0.8"/>
      </g>
     </g>
     <g id="text_13">
      <!-- 30 -->
      <g transform="translate(27.725 254.397689) scale(0.1 -0.1)">
       <use xlink:href="#DejaVuSans-33"/>
       <use xlink:href="#DejaVuSans-30" x="63.623047"/>
      </g>
     </g>
    </g>
    <g id="ytick_5">
     <g id="line2d_13">
      <g>
       <use xlink:href="#m75cc02586c" x="47.45" y="205.077961" style="stroke: #000000; stroke-width: 0.8"/>
      </g>
     </g>
     <g id="text_14">
      <!-- 40 -->
      <g transform="translate(27.725 208.877179) scale(0.1 -0.1)">
       <defs>
        <path id="DejaVuSans-34" d="M 2419 4116 
L 825 1625 
L 2419 1625 
L 2419 4116 
z
M 2253 4666 
L 3047 4666 
L 3047 1625 
L 3713 1625 
L 3713 1100 
L 3047 1100 
L 3047 0 
L 2419 0 
L 2419 1100 
L 313 1100 
L 313 1709 
L 2253 4666 
z
" transform="scale(0.015625)"/>
       </defs>
       <use xlink:href="#DejaVuSans-34"/>
       <use xlink:href="#DejaVuSans-30" x="63.623047"/>
      </g>
     </g>
    </g>
    <g id="ytick_6">
     <g id="line2d_14">
      <g>
       <use xlink:href="#m75cc02586c" x="47.45" y="159.557451" style="stroke: #000000; stroke-width: 0.8"/>
      </g>
     </g>
     <g id="text_15">
      <!-- 50 -->
      <g transform="translate(27.725 163.356669) scale(0.1 -0.1)">
       <use xlink:href="#DejaVuSans-35"/>
       <use xlink:href="#DejaVuSans-30" x="63.623047"/>
      </g>
     </g>
    </g>
    <g id="ytick_7">
     <g id="line2d_15">
      <g>
       <use xlink:href="#m75cc02586c" x="47.45" y="114.036941" style="stroke: #000000; stroke-width: 0.8"/>
      </g>
     </g>
     <g id="text_16">
      <!-- 60 -->
      <g transform="translate(27.725 117.83616) scale(0.1 -0.1)">
       <defs>
        <path id="DejaVuSans-36" d="M 2113 2584 
Q 1688 2584 1439 2293 
Q 1191 2003 1191 1497 
Q 1191 994 1439 701 
Q 1688 409 2113 409 
Q 2538 409 2786 701 
Q 3034 994 3034 1497 
Q 3034 2003 2786 2293 
Q 2538 2584 2113 2584 
z
M 3366 4563 
L 3366 3988 
Q 3128 4100 2886 4159 
Q 2644 4219 2406 4219 
Q 1781 4219 1451 3797 
Q 1122 3375 1075 2522 
Q 1259 2794 1537 2939 
Q 1816 3084 2150 3084 
Q 2853 3084 3261 2657 
Q 3669 2231 3669 1497 
Q 3669 778 3244 343 
Q 2819 -91 2113 -91 
Q 1303 -91 875 529 
Q 447 1150 447 2328 
Q 447 3434 972 4092 
Q 1497 4750 2381 4750 
Q 2619 4750 2861 4703 
Q 3103 4656 3366 4563 
z
" transform="scale(0.015625)"/>
       </defs>
       <use xlink:href="#DejaVuSans-36"/>
       <use xlink:href="#DejaVuSans-30" x="63.623047"/>
      </g>
     </g>
    </g>
    <g id="ytick_8">
     <g id="line2d_16">
      <g>
       <use xlink:href="#m75cc02586c" x="47.45" y="68.516431" style="stroke: #000000; stroke-width: 0.8"/>
      </g>
     </g>
     <g id="text_17">
      <!-- 70 -->
      <g transform="translate(27.725 72.31565) scale(0.1 -0.1)">
       <defs>
        <path id="DejaVuSans-37" d="M 525 4666 
L 3525 4666 
L 3525 4397 
L 1831 0 
L 1172 0 
L 2766 4134 
L 525 4134 
L 525 4666 
z
" transform="scale(0.015625)"/>
       </defs>
       <use xlink:href="#DejaVuSans-37"/>
       <use xlink:href="#DejaVuSans-30" x="63.623047"/>
      </g>
     </g>
    </g>
    <g id="text_18">
     <!-- Power (W) -->
     <g transform="translate(21.229375 238.398125) rotate(-90) scale(0.12 -0.12)">
      <defs>
       <path id="DejaVuSans-50" d="M 1259 4147 
L 1259 2394 
L 2053 2394 
Q 2494 2394 2734 2622 
Q 2975 2850 2975 3272 
Q 2975 3691 2734 3919 
Q 2494 4147 2053 4147 
L 1259 4147 
z
M 628 4666 
L 2053 4666 
Q 2838 4666 3239 4311 
Q 3641 3956 3641 3272 
Q 3641 2581 3239 2228 
Q 2838 1875 2053 1875 
L 1259 1875 
L 1259 0 
L 628 0 
L 628 4666 
z
" transform="scale(0.015625)"/>
       <path id="DejaVuSans-77" d="M 269 3500 
L 844 3500 
L 1563 769 
L 2278 3500 
L 2956 3500 
L 3675 769 
L 4391 3500 
L 4966 3500 
L 4050 0 
L 3372 0 
L 2619 2869 
L 1863 0 
L 1184 0 
L 269 3500 
z
" transform="scale(0.015625)"/>
       <path id="DejaVuSans-57" d="M 213 4666 
L 850 4666 
L 1831 722 
L 2809 4666 
L 3519 4666 
L 4500 722 
L 5478 4666 
L 6119 4666 
L 4947 0 
L 4153 0 
L 3169 4050 
L 2175 0 
L 1381 0 
L 213 4666 
z
" transform="scale(0.015625)"/>
      </defs>
      <use xlink:href="#DejaVuSans-50"/>
      <use xlink:href="#DejaVuSans-6f" x="56.677734"/>
      <use xlink:href="#DejaVuSans-77" x="117.859375"/>
      <use xlink:href="#DejaVuSans-65" x="199.646484"/>
      <use xlink:href="#DejaVuSans-72" x="261.169922"/>
      <use xlink:href="#DejaVuSans-20" x="302.283203"/>
      <use xlink:href="#DejaVuSans-28" x="334.070312"/>
      <use xlink:href="#DejaVuSans-57" x="373.083984"/>
      <use xlink:href="#DejaVuSans-29" x="471.960938"/>
     </g>
    </g>
   </g>
   <g id="line2d_17">
    <path d="M 47.45 343.938276 
L 48.121237 338.325597 
L 48.810049 317.431683 
L 49.474526 275.58923 
L 50.158606 288.694585 
L 50.859923 174.688468 
L 51.510881 271.756403 
L 52.214564 259.543251 
L 52.86417 239.828318 
L 53.67736 243.119451 
L 54.222867 182.777463 
L 54.904919 182.777463 
L 55.585282 126.013387 
L 56.263954 223.568392 
L 56.936543 228.862427 
L 57.617919 226.07202 
L 58.298282 240.105993 
L 58.983038 228.179619 
L 59.657316 247.220849 
L 60.340045 238.221444 
L 61.019055 239.45505 
L 61.693334 130.865873 
L 62.36288 152.72027 
L 63.042567 199.583635 
L 63.720563 260.776856 
L 64.401264 255.705872 
L 65.075542 143.001641 
L 65.757933 140.825761 
L 66.432211 104.15899 
L 67.10649 244.639836 
L 67.780769 206.662074 
L 68.455047 200.994771 
L 69.132368 233.510071 
L 69.80766 233.673945 
L 70.486671 228.880635 
L 71.160273 171.115108 
L 71.835904 225.51667 
L 72.513562 214.086469 
L 73.871245 143.324837 
L 74.549918 231.680147 
L 75.227576 231.566345 
L 75.905235 230.464749 
L 76.590667 234.233847 
L 77.266635 231.1339 
L 77.945984 205.774424 
L 78.62736 229.281216 
L 79.300287 227.856424 
L 79.979973 198.832547 
L 80.653914 203.553024 
L 81.329206 183.041482 
L 82.002809 133.56524 
L 83.359816 199.365137 
L 84.041192 163.449454 
L 84.715471 159.325296 
L 86.066732 274.155334 
L 86.745067 277.086855 
L 87.425091 258.05473 
L 88.104439 288.776522 
L 88.779394 264.9784 
L 89.456377 279.458474 
L 90.130655 278.202108 
L 90.81068 266.016267 
L 91.489352 137.944313 
L 92.165321 196.870613 
L 92.848725 89.264679 
L 93.524693 94.162686 
L 94.199986 148.600664 
L 95.548543 198.095114 
L 96.234313 212.151848 
L 96.908254 213.298965 
L 97.589968 114.492146 
L 98.267965 157.290529 
L 98.941905 231.261358 
L 99.621592 270.978003 
L 100.297898 291.503201 
L 100.975219 276.522401 
L 101.653215 280.423508 
L 102.335268 276.617994 
L 103.009208 274.747101 
L 103.688895 288.831147 
L 104.362497 276.25383 
L 105.72018 279.490338 
L 106.393783 280.974307 
L 107.070089 279.913679 
L 107.751804 280.041136 
L 108.430814 276.135476 
L 109.103741 280.327915 
L 109.790525 279.194455 
L 110.472577 281.484136 
L 111.145166 276.536057 
L 111.824852 280.418956 
L 112.502511 274.751653 
L 113.187943 251.094644 
L 113.866953 257.608629 
L 114.538866 291.180005 
L 115.220242 276.540609 
L 116.57218 266.148277 
L 117.248148 256.652698 
L 117.927159 264.937431 
L 119.285179 248.477215 
L 119.962838 246.24671 
L 120.641848 239.386769 
L 121.314099 237.638781 
L 121.992095 228.552888 
L 122.669754 224.669988 
L 123.345385 230.250803 
L 124.030141 247.962833 
L 124.699688 212.338482 
L 125.38343 212.757271 
L 126.061764 212.720854 
L 126.742803 215.770728 
L 127.426545 215.90729 
L 128.103527 217.596101 
L 128.777468 221.63377 
L 130.131771 202.592541 
L 130.809429 207.34033 
L 131.48337 215.825353 
L 132.165084 221.019243 
L 132.845109 223.404518 
L 133.520401 214.609955 
L 134.200088 223.43183 
L 134.872338 210.472141 
L 135.551349 217.923848 
L 136.231373 229.140102 
L 136.910046 219.867574 
L 137.593112 222.002486 
L 138.27246 218.39271 
L 138.947415 219.644524 
L 139.630481 212.516012 
L 140.306788 208.091418 
L 140.986474 168.069786 
L 141.666837 168.183587 
L 142.350917 258.068386 
L 143.026885 261.691819 
L 143.70015 242.905504 
L 144.377132 288.198412 
L 145.056819 278.334117 
L 145.737857 280.678423 
L 146.420247 279.918231 
L 147.096554 283.664569 
L 147.770833 285.289651 
L 148.444773 285.890522 
L 149.123446 212.434075 
L 149.797724 211.865069 
L 150.477411 191.713139 
L 151.161153 205.077961 
L 151.837798 202.187408 
L 152.525934 192.764663 
L 153.197508 189.418905 
L 153.878885 162.047423 
L 154.555529 215.151649 
L 155.22947 197.5079 
L 155.901383 272.270785 
L 156.581745 286.254686 
L 157.266839 276.103612 
L 157.93909 281.538761 
L 158.615396 270.996211 
L 159.290351 284.529458 
L 160.651076 269.785365 
L 161.330086 279.007821 
L 162.007745 283.314061 
L 162.689121 176.745995 
L 163.358668 184.238671 
L 164.03734 206.024787 
L 164.710943 241.485264 
L 165.390291 244.926615 
L 166.070992 240.178826 
L 166.742228 237.461251 
L 167.421915 242.00875 
L 168.101601 189.455322 
L 168.781626 253.220452 
L 169.456242 186.273438 
L 170.131535 163.57236 
L 170.807503 238.662993 
L 171.486852 222.32113 
L 172.160792 227.251001 
L 172.842507 226.836764 
L 173.514419 225.066016 
L 174.19005 163.991148 
L 174.86906 223.996284 
L 175.545705 231.648282 
L 176.226405 230.237146 
L 176.90305 112.580285 
L 178.251945 225.885386 
L 178.935687 173.659705 
L 179.611318 196.101316 
L 180.286949 242.00875 
L 180.966297 236.136604 
L 181.646321 242.359258 
L 182.3206 243.624728 
L 182.995217 239.696308 
L 183.669495 237.197232 
L 184.347154 211.705747 
L 185.029206 221.606458 
L 185.705175 251.627234 
L 186.384523 251.81842 
L 187.064209 267.623141 
L 187.738488 254.026165 
L 188.420202 275.202306 
L 189.100227 280.910578 
L 189.781265 283.20026 
L 190.462303 277.783319 
L 191.142666 276.581577 
L 191.821338 279.035133 
L 192.497983 290.23773 
L 193.847554 273.290445 
L 194.522509 295.413412 
L 195.199829 279.230871 
L 195.877825 284.13343 
L 196.554808 277.592133 
L 197.234494 205.178106 
L 197.902689 255.796913 
L 198.583052 276.745451 
L 199.260372 268.274084 
L 199.9431 275.69848 
L 200.618393 259.911967 
L 201.299093 281.261086 
L 201.976752 265.306147 
L 202.656438 274.27824 
L 203.329703 266.348567 
L 204.005671 270.34982 
L 204.682654 254.422193 
L 205.358961 283.459727 
L 206.029859 271.547009 
L 206.710222 287.069503 
L 207.385852 281.506897 
L 208.067567 281.129076 
L 208.749281 276.044435 
L 209.424236 280.855953 
L 210.098514 274.305552 
L 210.779552 273.003665 
L 211.452817 283.837547 
L 212.131152 275.885114 
L 212.815232 279.31736 
L 213.493904 279.408401 
L 214.170887 243.501823 
L 214.853277 287.629405 
L 215.528232 280.350676 
L 216.208932 274.961047 
L 216.88997 276.613442 
L 217.568981 274.10071 
L 218.247991 280.71484 
L 218.932747 279.818086 
L 219.607364 275.976155 
L 220.284008 279.085206 
L 220.964371 278.425158 
L 221.646085 278.730146 
L 222.323406 278.534407 
L 222.99836 279.535859 
L 223.680751 276.718139 
L 224.353339 265.351668 
L 225.029646 290.743008 
L 225.705952 277.746903 
L 226.379217 276.645306 
L 227.058227 288.899427 
L 227.732844 280.810433 
L 228.41253 276.663514 
L 229.093569 276.417704 
L 229.774607 288.407806 
L 230.449562 277.614893 
L 231.12891 281.165493 
L 231.801837 280.063896 
L 232.482537 273.977804 
L 233.159858 271.251126 
L 233.839206 273.445214 
L 234.519906 252.86084 
L 235.198917 288.366837 
L 235.877589 274.533155 
L 236.54984 277.737798 
L 237.228512 268.1967 
L 237.904481 277.546612 
L 238.579436 275.466325 
L 239.257432 280.687527 
L 239.936781 282.1806 
L 240.611397 274.897319 
L 241.290408 278.529855 
L 241.966714 278.538959 
L 242.650456 281.461376 
L 243.324397 279.199007 
L 243.998 275.730344 
L 244.676334 270.340716 
L 245.350951 295.003728 
L 246.028271 281.921133 
L 246.70931 280.805881 
L 247.387644 283.746506 
L 248.747017 273.263132 
L 249.421633 289.359185 
L 250.100982 286.992118 
L 250.772557 276.690827 
L 251.448525 275.102161 
L 252.124156 283.591736 
L 252.799786 278.370533 
L 253.482515 284.383793 
L 254.161187 270.968899 
L 254.834452 270.886962 
L 255.516842 294.589491 
L 256.194838 279.217215 
L 256.880609 280.528206 
L 257.555225 280.446269 
L 258.229504 285.303307 
L 258.911894 279.012373 
L 259.587863 284.752509 
L 260.265521 277.774215 
L 260.94149 281.834644 
L 261.621176 273.99146 
L 262.303904 280.036584 
L 262.979197 280.195906 
L 263.6528 279.909127 
L 264.327754 276.750003 
L 265.013186 262.288137 
L 265.686451 283.050042 
L 266.369179 281.643458 
L 267.041768 277.491988 
L 267.723482 284.734301 
L 268.393367 274.605987 
L 269.077109 274.6333 
L 269.753078 283.596288 
L 270.432426 275.093057 
L 271.104339 283.983212 
L 271.790447 277.350874 
L 272.463374 272.334514 
L 273.141708 278.634552 
L 273.815987 279.362881 
L 274.49297 279.080653 
L 275.171642 273.486183 
L 275.848624 304.417369 
L 276.527635 284.256335 
L 277.203265 277.528404 
L 278.554189 283.864859 
L 279.230495 280.20501 
L 279.906464 281.634354 
L 280.583446 284.720645 
L 281.259753 276.440464 
L 281.936397 277.205208 
L 282.61338 278.461575 
L 283.291714 277.478332 
L 283.967683 282.781471 
L 284.645341 281.547865 
L 285.320972 275.347972 
L 286.00539 294.662324 
L 286.677641 276.604338 
L 287.354623 282.285297 
L 288.033972 160.144665 
L 288.712982 208.391854 
L 289.388613 235.440141 
L 290.742916 243.551896 
L 291.416519 226.158509 
L 292.090459 288.444222 
L 292.768456 274.232719 
L 293.441044 291.758115 
L 294.119379 283.145635 
L 294.793995 276.504193 
L 295.474696 277.969953 
L 296.15472 290.001024 
L 296.830351 290.929642 
L 297.511051 286.081708 
L 298.18702 290.242282 
L 298.859608 127.124087 
L 299.537943 209.989624 
L 300.218981 198.969108 
L 300.890556 108.638208 
L 302.248239 151.850828 
L 302.924207 88.436206 
L 303.607274 60.941818 
L 304.28189 180.387636 
L 304.957521 216.348839 
L 305.632475 165.420492 
L 306.31081 141.472152 
L 306.991172 201.76862 
L 307.662747 214.719205 
L 308.341081 220.609559 
L 309.694371 226.486256 
L 310.371691 206.78498 
L 311.051377 172.244017 
L 311.732416 192.628101 
L 312.407708 262.147024 
L 313.087395 234.948519 
L 313.766067 233.983484 
L 314.442374 243.397126 
L 315.118004 257.649597 
L 315.801747 235.959074 
L 316.476701 253.229556 
L 317.1476 243.306085 
L 317.829314 258.43255 
L 318.507649 256.010859 
L 319.186659 265.351668 
L 319.866683 257.326402 
L 320.540962 245.263467 
L 321.218621 204.531714 
L 321.894927 197.466931 
L 322.570558 250.762344 
L 323.252272 212.31117 
L 323.932296 243.797706 
L 324.606575 268.884059 
L 325.288965 279.909127 
L 325.95378 280.664767 
L 326.632115 222.717158 
L 327.313153 188.540359 
L 327.988446 188.340069 
L 328.666104 173.859995 
L 329.346129 207.313018 
L 330.698404 259.902863 
L 331.385526 249.915663 
L 332.06217 196.520105 
L 332.742871 236.487112 
L 333.418501 251.763795 
L 334.102581 165.470565 
L 334.775508 195.281947 
L 335.452829 218.174211 
L 336.130149 131.926501 
L 336.808822 210.367444 
L 337.493916 179.172238 
L 338.171574 216.530921 
L 338.844501 226.763931 
L 339.518104 248.741234 
L 340.195762 138.394966 
L 342.226034 213.230684 
L 342.910452 215.661479 
L 343.590138 215.370148 
L 344.266107 219.562587 
L 344.950525 226.021947 
L 345.626494 217.973921 
L 346.311926 191.276142 
L 346.984514 223.623016 
L 347.662849 218.834259 
L 348.339155 215.975571 
L 349.016476 219.890334 
L 349.697176 220.727912 
L 350.370779 218.447334 
L 351.045396 221.174013 
L 352.407472 222.152704 
L 353.084793 221.337887 
L 353.761099 223.272508 
L 354.439772 223.07677 
L 355.119458 224.387761 
L 356.479169 202.255689 
L 357.157165 222.157256 
L 357.834486 225.480253 
L 358.513834 235.403724 
L 359.193859 238.403526 
L 359.870503 238.512775 
L 360.549852 237.939217 
L 361.229538 236.696507 
L 361.905168 238.430838 
L 362.581475 238.430838 
L 363.25812 230.396468 
L 363.936454 233.073074 
L 364.612423 234.593459 
L 365.292447 236.892245 
L 365.972133 238.430838 
L 366.646412 220.732464 
L 367.33083 237.006046 
L 368.011531 237.748031 
L 368.691555 234.452346 
L 369.369551 231.985134 
L 370.045182 234.689052 
L 370.721151 234.689052 
L 371.401175 236.764787 
L 372.083565 234.625324 
L 372.759196 234.625324 
L 374.111471 238.271516 
L 374.785749 238.107643 
L 375.460366 237.32469 
L 376.137011 239.801006 
L 376.821767 207.922992 
L 377.493004 220.309123 
L 378.173366 225.657783 
L 378.847983 227.36025 
L 379.521585 210.813545 
L 380.201272 221.292366 
L 380.880958 236.955974 
L 381.557265 238.030258 
L 382.232219 205.442125 
L 382.90616 234.821062 
L 383.589564 235.116945 
L 385.616118 214.782933 
L 386.292086 221.524521 
L 386.967717 204.936847 
L 387.646389 231.771188 
L 388.325738 236.132052 
L 389.000354 236.077428 
L 389.683083 225.571294 
L 391.032992 236.864933 
L 391.712002 233.400822 
L 392.385267 229.039957 
L 393.066981 236.391519 
L 393.743964 236.965078 
L 394.42196 236.487112 
L 395.097253 174.49273 
L 395.776263 224.974975 
L 396.456626 156.430192 
L 397.133946 178.298245 
L 397.808563 231.652834 
L 398.484531 235.321787 
L 399.16557 230.715112 
L 399.844918 221.010139 
L 400.519197 223.704953 
L 401.197869 216.235038 
L 401.877218 225.698752 
L 402.550482 223.172363 
L 403.229831 227.49226 
L 403.902419 210.463037 
L 404.58481 215.438429 
L 405.26044 222.038903 
L 405.9479 233.159563 
L 406.623193 234.898447 
L 407.302541 174.738541 
L 407.977158 226.363351 
L 408.653802 217.855568 
L 409.329433 233.601112 
L 410.009795 204.285904 
L 411.374576 276.895669 
L 412.048179 281.142733 
L 412.726175 280.628351 
L 413.40451 278.930436 
L 414.082506 282.444619 
L 414.761516 275.229618 
L 415.443569 279.016925 
L 416.792126 282.35813 
L 417.471812 267.655005 
L 418.148795 294.029589 
L 418.82375 276.663514 
L 419.508168 280.523654 
L 420.187854 282.444619 
L 420.869568 278.174795 
L 421.542495 280.687527 
L 422.222857 275.89877 
L 422.902544 274.387489 
L 423.581554 279.900023 
L 424.264959 270.472725 
L 424.948025 279.781669 
L 425.622979 283.150187 
L 426.303342 279.736149 
L 426.97931 281.98031 
L 427.658321 258.163979 
L 428.335979 294.462034 
L 429.010258 279.299152 
L 429.691972 280.273291 
L 430.367265 287.724998 
L 431.047965 279.203559 
L 431.721906 284.024181 
L 432.39686 279.399297 
L 433.072153 277.869808 
L 433.754205 277.223417 
L 434.435244 286.145437 
L 435.110874 280.264187 
L 435.790898 280.236874 
L 436.469571 281.984862 
L 437.144864 275.307003 
L 437.819818 277.915328 
L 438.492745 295.572734 
L 439.171079 271.323959 
L 439.849414 281.597938 
L 440.52741 279.790773 
L 441.208787 274.551363 
L 441.886445 283.391446 
L 442.564104 280.086657 
L 443.24041 278.853051 
L 443.918069 273.313205 
L 444.593699 276.044435 
L 445.280821 280.500893 
L 445.951044 275.457221 
L 446.6358 286.468632 
L 447.317176 271.355823 
L 447.991117 282.922584 
L 448.673169 289.322768 
L 449.349138 282.476483 
L 450.028486 278.45247 
L 450.706145 277.38729 
L 451.386507 281.538761 
L 452.057744 274.260031 
L 452.733037 277.965401 
L 453.412385 279.904575 
L 454.093423 278.56172 
L 454.762294 279.066997 
L 455.447388 279.326464 
L 456.123019 283.696433 
L 456.800001 277.14148 
L 457.475632 275.675719 
L 458.153629 280.869609 
L 458.833653 288.321317 
L 459.513339 269.799021 
L 460.192012 303.902987 
L 460.875416 277.751455 
L 461.549357 276.822836 
L 462.231747 277.847048 
L 462.912785 281.784572 
L 463.593824 283.814786 
L 464.27182 278.070098 
L 464.946775 280.132177 
L 465.628489 275.798625 
L 466.304457 283.118323 
L 466.985158 273.977804 
L 467.653691 282.394547 
L 468.334053 278.507095 
L 469.011712 223.154155 
L 469.68937 136.351095 
L 470.370746 216.758523 
L 471.044687 222.976625 
L 471.724711 84.084445 
L 472.40744 199.569979 
L 473.07969 236.391519 
L 473.754983 254.044373 
L 474.432641 214.159302 
L 475.10692 244.881094 
L 475.787958 239.400425 
L 476.468997 237.666094 
L 477.152401 241.612722 
L 477.8233 261.750995 
L 478.501634 287.028534 
L 479.184025 268.510791 
L 479.858303 262.310898 
L 480.537314 252.992849 
L 481.212268 228.680345 
L 482.564205 259.292888 
L 483.245244 270.495485 
L 483.926282 246.365063 
L 484.602251 227.059815 
L 485.275177 220.21353 
L 485.955202 249.100846 
L 486.630494 206.47544 
L 487.319306 184.593731 
L 487.983783 266.744595 
L 488.668201 255.259771 
L 490.024194 237.907352 
L 491.381539 285.890522 
L 492.066971 183.455718 
L 492.741588 176.336311 
L 493.416543 180.801873 
L 494.099947 196.829644 
L 494.772874 204.513506 
L 495.45087 222.894688 
L 496.13664 163.504079 
L 496.810919 229.909399 
L 497.486211 231.270462 
L 498.164546 233.755882 
L 498.843556 201.172301 
L 499.516145 175.630743 
L 500.200901 240.338148 
L 500.872138 221.765779 
L 501.553514 218.406366 
L 502.232525 243.774946 
L 502.910183 170.181938 
L 503.589532 204.745661 
L 504.270232 207.54062 
L 504.949242 136.542281 
L 505.632985 172.863096 
L 506.306249 194.69018 
L 506.990329 222.403067 
L 507.662242 220.682391 
L 508.334155 147.37161 
L 509.017221 180.797321 
L 510.368144 279.795325 
L 511.046817 278.243076 
L 511.726841 269.047933 
L 512.401458 269.498586 
L 513.073709 278.334117 
L 513.754747 259.424897 
L 514.435785 277.109615 
L 515.108712 278.966852 
L 515.782653 267.482028 
L 516.469437 269.771709 
L 517.138307 281.452272 
L 518.495652 259.397585 
L 519.177367 271.515145 
L 519.857391 255.300739 
L 520.531332 284.64326 
L 521.21406 277.34177 
L 521.894084 278.420606 
L 522.575461 285.936042 
L 523.260893 277.054991 
L 523.931792 284.338272 
L 524.610802 284.68878 
L 525.287785 275.407148 
L 525.963077 292.236081 
L 526.63837 279.221767 
L 527.318732 279.199007 
L 528.00146 276.904773 
L 528.681823 265.219658 
L 529.353735 288.271244 
L 530.030718 277.255281 
L 530.705335 282.253433 
L 531.389077 281.998518 
L 532.064707 271.865653 
L 532.744732 280.783121 
L 533.425432 273.249476 
L 534.105118 277.69683 
L 534.776017 280.082105 
L 535.457394 279.34012 
L 536.131334 277.974505 
L 536.807979 276.954846 
L 537.482933 282.945345 
L 538.161606 276.285694 
L 538.840954 267.896264 
L 539.521655 292.272497 
L 540.197285 276.959398 
L 540.874268 278.889467 
L 541.545842 271.369479 
L 542.226881 283.009073 
L 542.902849 282.640357 
L 543.582198 280.364332 
L 544.256476 276.290246 
L 544.937177 277.969953 
L 545.616863 278.857603 
L 546.292494 281.074452 
L 546.972518 279.012373 
L 547.649839 278.579928 
L 548.324117 273.868555 
L 549.003128 264.099854 
L 549.678082 277.569373 
L 550.354389 281.506897 
L 551.037455 280.00472 
L 551.712072 274.719789 
L 552.393448 277.16424 
L 553.073472 277.537508 
L 553.752821 279.048789 
L 554.425747 277.205208 
L 555.100702 274.683372 
L 555.775319 278.930436 
L 556.451625 276.017123 
L 557.133002 279.153486 
L 557.80728 278.193004 
L 558.488319 279.526754 
L 559.162935 260.549254 
L 559.837214 304.781533 
L 560.517914 277.036783 
L 561.193883 280.787673 
L 561.874921 276.540609 
L 562.550214 283.391446 
L 563.224154 276.63165 
L 563.909248 282.471931 
L 564.588259 277.441915 
L 565.2622 279.003269 
L 565.938506 276.781868 
L 566.619882 273.750202 
L 567.298217 281.807332 
L 567.97182 278.766562 
L 568.646774 273.936836 
L 569.326461 271.665362 
L 570.005133 301.003331 
L 570.685833 285.662919 
L 571.364844 285.089361 
L 572.045544 278.347773 
L 572.7303 277.350874 
L 573.405931 273.276788 
L 574.081223 278.156587 
L 574.760572 271.137324 
L 575.433161 279.290048 
L 576.110819 282.995417 
L 576.78476 159.120454 
L 578.133655 233.783194 
L 578.811989 227.342042 
L 579.48593 187.616293 
L 580.165954 158.278324 
L 580.842261 148.755434 
L 581.516878 86.95679 
L 582.191494 188.399246 
L 582.866449 206.584689 
L 583.545121 159.402681 
L 584.228864 220.39106 
L 584.907874 254.763597 
L 585.584518 168.843635 
L 586.265557 229.080925 
L 586.940511 179.477226 
L 587.61479 235.321787 
L 588.292449 249.897455 
L 588.967403 236.441592 
L 589.641344 245.950826 
L 590.321706 243.993444 
L 590.991929 214.892183 
L 591.672291 237.670646 
L 592.349274 171.492928 
L 593.022539 170.127313 
L 593.702563 157.449851 
L 594.381235 189.596435 
L 595.05619 132.682142 
L 595.737228 220.377404 
L 596.407789 240.888946 
L 597.092883 208.91534 
L 597.775612 198.208916 
L 598.451918 263.489879 
L 599.128563 280.509997 
L 599.807235 231.097484 
L 600.485569 150.357756 
L 601.164242 193.73425 
L 601.844266 207.20832 
L 602.521925 192.20476 
L 603.201611 200.425764 
L 603.881298 203.757866 
L 604.559294 155.974987 
L 605.241008 176.249822 
L 605.920357 161.678706 
L 606.594973 213.116883 
L 607.277026 200.384796 
L 607.95367 247.91276 
L 608.629977 163.804514 
L 609.305269 234.397721 
L 609.981576 225.220786 
L 610.658896 211.109428 
L 611.334189 141.331039 
L 612.00644 150.398724 
L 612.684098 190.288347 
L 613.364123 263.230412 
L 614.035021 247.66695 
L 614.714708 274.460322 
L 615.388648 280.314259 
L 616.068673 261.578017 
L 616.741262 260.148673 
L 617.416216 182.650005 
L 618.095903 208.865267 
L 618.771871 230.196178 
L 619.447502 236.682851 
L 620.123808 203.762418 
L 620.803495 227.301073 
L 621.478111 227.851872 
L 622.161177 235.458349 
L 622.840864 229.29032 
L 623.52224 190.238274 
L 624.195505 72.567756 
L 625.553864 221.565489 
L 626.23693 230.942714 
L 626.919658 235.367308 
L 627.589881 261.486976 
L 628.275989 236.7921 
L 628.950606 178.59868 
L 629.630968 231.570897 
L 630.303557 212.989425 
L 630.983581 269.466722 
L 631.658198 277.587581 
L 632.33518 231.165765 
L 633.014191 270.295195 
L 633.688807 276.358527 
L 634.370522 243.155867 
L 635.043786 252.83808 
L 635.725839 220.318227 
L 637.085211 137.243297 
L 637.76625 171.875301 
L 638.440528 219.248495 
L 639.113117 221.12394 
L 639.792128 176.500184 
L 640.471814 69.82287 
L 641.145755 102.096911 
L 641.823413 128.011737 
L 642.503775 206.47544 
L 643.182448 158.606072 
L 643.866866 210.922794 
L 644.538779 148.673497 
L 645.217113 196.392647 
L 645.892406 221.961518 
L 646.567698 226.331487 
L 647.241639 220.336435 
L 647.917608 229.440537 
L 648.596618 131.202725 
L 649.269545 190.952946 
L 649.949907 215.911842 
L 650.6252 98.623696 
L 651.30083 143.529679 
L 651.981869 213.886179 
L 652.655809 218.9253 
L 653.33651 217.832807 
L 654.016534 182.672766 
L 654.695207 195.987515 
L 655.373541 224.893039 
L 656.052213 260.572014 
L 656.730886 253.229556 
L 657.412262 278.361429 
L 658.089583 278.174795 
L 658.760819 276.385839 
L 659.439492 277.264385 
L 660.117488 276.622546 
L 660.795485 280.778568 
L 661.477537 279.854502 
L 662.155534 275.957946 
L 662.834544 282.881616 
L 663.513554 165.534294 
L 664.191213 181.23887 
L 664.875631 253.070234 
L 665.557683 286.568777 
L 666.236018 277.446467 
L 666.912324 278.224868 
L 667.590659 276.932085 
L 668.268993 281.820988 
L 668.943948 281.675323 
L 669.62431 267.254425 
L 670.295547 256.461512 
L 670.974557 292.427267 
L 671.64985 277.828839 
L 672.33055 279.676972 
L 673.68046 276.317559 
L 674.359132 277.246177 
L 675.036791 276.968502 
L 675.717491 276.29935 
L 676.402923 280.245979 
L 677.079568 274.906423 
L 677.759592 278.752906 
L 678.431843 275.402596 
L 679.117275 273.463423 
L 679.791553 279.572275 
L 680.469888 271.701779 
L 681.15532 279.435713 
L 681.830613 278.079202 
L 682.503539 280.282395 
L 683.182888 279.158038 
L 683.859194 283.714641 
L 684.531783 268.519895 
L 685.213159 287.979913 
L 685.894198 279.490338 
L 686.568814 278.284045 
L 687.245797 281.047139 
L 687.928863 275.466325 
L 688.605846 279.918231 
L 689.281814 275.967051 
L 689.959811 281.356679 
L 690.636793 268.228564 
L 691.311072 298.153747 
L 691.990082 279.194455 
L 692.666051 277.705934 
L 693.347765 282.931689 
L 694.024748 276.526953 
L 694.697336 278.457022 
L 695.375671 276.021675 
L 696.048597 278.766562 
L 696.72727 278.334117 
L 697.401886 282.781471 
L 698.081235 281.019827 
L 698.767681 281.27019 
L 699.442298 277.910776 
L 700.127054 283.355029 
L 700.796601 271.651706 
L 701.479329 298.822899 
L 702.157325 278.525303 
L 702.831604 274.341968 
L 704.192667 277.692278 
L 704.872353 277.806079 
L 705.559137 276.445016 
L 706.23105 279.435713 
L 706.911074 279.144382 
L 707.584339 276.394943 
L 708.259294 281.051692 
L 708.939994 280.851401 
L 709.613597 276.367631 
L 710.289565 276.367631 
L 710.9679 276.750003 
L 711.64015 275.862353 
L 712.318823 297.566533 
L 713.000875 176.240718 
L 713.672788 144.613067 
L 714.351122 147.39437 
L 715.027429 244.799157 
L 715.701369 279.285496 
L 716.381394 277.309906 
L 717.054997 279.112518 
L 718.420115 279.745253 
L 719.101491 278.534407 
L 719.774418 280.619247 
L 720.447007 276.417704 
L 721.131425 280.041136 
L 721.805704 266.198349 
L 722.486404 281.534209 
L 723.163724 274.6333 
L 723.839355 278.261284 
L 724.517689 278.58448 
L 725.193996 277.87436 
L 725.866923 276.677171 
L 726.544243 279.922783 
L 727.222916 282.13508 
L 727.903616 281.95755 
L 728.582626 282.226121 
L 729.258933 278.233972 
L 729.93524 277.997265 
L 730.611546 288.075506 
L 731.29157 279.708836 
L 731.973285 273.572672 
L 732.649591 288.853907 
L 733.323194 277.546612 
L 734.007612 280.519102 
L 734.681891 275.124921 
L 735.359887 274.537707 
L 736.03349 281.010723 
L 736.71081 279.435713 
L 737.385427 280.168594 
L 738.068831 257.267225 
L 738.750208 283.081906 
L 739.429556 279.49489 
L 740.10958 294.216223 
L 740.787915 281.939341 
L 741.460842 283.318613 
L 742.1385 278.233972 
L 742.81751 300.3797 
L 743.490775 276.731795 
L 744.168096 270.381684 
L 744.849472 266.398639 
L 745.524089 298.340381 
L 746.197691 273.190299 
L 746.872984 301.171757 
L 747.549628 268.44251 
L 748.229991 183.23722 
L 748.903931 146.447544 
L 749.579224 181.179693 
L 750.256207 257.726982 
L 750.931499 285.462629 
L 751.609158 281.925685 
L 752.284788 275.862353 
L 752.965489 285.471733 
L 753.640443 285.55367 
L 754.312018 276.495088 
L 754.986297 279.686076 
L 755.664969 271.628946 
L 756.339248 248.463559 
L 757.01961 275.147681 
L 757.689495 277.309906 
L 758.373575 278.042786 
L 759.054951 279.508546 
L 759.735652 274.81083 
L 760.408916 273.23582 
L 761.089955 272.912624 
L 761.765247 269.735293 
L 762.445272 276.294798 
L 763.12631 284.916383 
L 763.804982 279.617795 
L 764.479599 269.671564 
L 765.163679 279.399297 
L 765.84269 275.375284 
L 766.517982 277.646757 
L 767.197669 276.668066 
L 767.876341 282.217017 
L 768.549944 254.85919 
L 769.230644 281.616146 
L 769.903909 267.240769 
L 770.580215 289.117926 
L 771.258888 274.747101 
L 771.94094 266.676315 
L 772.622654 235.458349 
L 773.299975 280.783121 
L 773.981689 282.585733 
L 774.654616 277.951745 
L 775.330584 279.303704 
L 776.014665 280.956098 
L 776.689281 286.477736 
L 777.363898 281.415856 
L 778.038515 279.285496 
L 778.714145 278.334117 
L 779.396535 278.557168 
L 780.075208 279.062445 
L 780.748473 280.469029 
L 781.430187 286.527809 
L 782.101086 280.400748 
L 782.77773 285.19861 
L 784.131019 270.090353 
L 785.486674 287.219721 
L 786.161967 280.236874 
L 786.843681 280.896922 
L 787.521678 275.002016 
L 788.202378 295.69564 
L 788.875305 278.589032 
L 789.556343 278.757458 
L 790.237719 278.684625 
L 790.914026 276.322111 
L 791.591684 277.00947 
L 792.275426 287.35173 
L 792.950719 275.957946 
L 793.628716 281.889269 
L 794.30874 277.346322 
L 794.987412 262.770655 
L 795.661015 285.266891 
L 796.336984 278.748354 
L 797.013966 279.076101 
L 798.366241 280.387092 
L 799.043562 271.610738 
L 799.719868 269.33016 
L 800.392119 285.917834 
L 801.074509 282.408203 
L 801.754196 263.412494 
L 802.438952 142.965225 
L 803.111879 145.17297 
L 803.794269 232.276465 
L 804.479025 163.180883 
L 805.148572 240.561198 
L 805.82792 267.787015 
L 806.502537 273.181195 
L 807.183575 290.77032 
L 807.864276 277.000366 
L 808.541258 280.974307 
L 809.216889 275.170442 
L 809.898603 275.753104 
L 810.579641 279.572275 
L 811.258652 278.948644 
L 811.935634 270.481829 
L 812.609913 278.40695 
L 813.284867 279.371985 
L 813.964554 282.426411 
L 814.648634 282.745054 
L 815.325279 273.736546 
L 816.008345 279.754357 
L 816.687017 279.831742 
L 817.361296 277.155136 
L 818.037264 275.967051 
L 818.714247 280.7376 
L 819.390891 277.300802 
L 820.064494 278.365981 
L 820.743843 277.123272 
L 821.420487 272.780615 
L 822.097132 285.90873 
L 822.779522 263.699273 
L 823.460898 261.354967 
L 824.138219 263.885907 
L 824.818919 273.900419 
L 825.493198 262.502084 
L 826.171194 265.938882 
L 826.845811 283.227572 
L 827.525497 267.614037 
L 828.197748 281.361231 
L 828.875744 280.245979 
L 829.553065 276.435912 
L 830.223288 283.186603 
L 830.90027 271.337615 
L 831.580633 288.080058 
L 832.260995 279.904575 
L 832.941019 268.55176 
L 833.616988 293.924892 
L 834.293294 277.278041 
L 835.641514 281.397647 
L 836.32458 270.067593 
L 837.006294 274.778965 
L 837.679897 267.955441 
L 838.359245 280.628351 
L 839.036566 261.568913 
L 839.711182 271.23747 
L 840.388841 271.833788 
L 841.069541 262.215305 
L 841.741792 276.267486 
L 842.42283 279.877262 
L 843.094067 265.510989 
L 843.77105 282.221569 
L 844.446004 279.745253 
L 845.123325 274.382937 
L 845.803349 267.245321 
L 846.486753 285.75396 
L 847.16306 280.218666 
L 848.518377 279.476682 
L 849.197049 279.531307 
L 849.875722 273.313205 
L 850.550338 279.831742 
L 851.228335 275.398044 
L 851.907683 280.341572 
L 852.586356 280.837745 
L 853.267732 268.569968 
L 853.267732 268.569968 
" clip-path="url(#pbee05e008e)" style="fill: none; stroke: #e74c3c; stroke-width: 2; stroke-linecap: square"/>
   </g>
   <g id="patch_3">
    <path d="M 47.45 387.16 
L 47.45 28.32 
" style="fill: none; stroke: #000000; stroke-width: 0.8; stroke-linejoin: miter; stroke-linecap: square"/>
   </g>
   <g id="patch_4">
    <path d="M 853.2 387.16 
L 853.2 28.32 
" style="fill: none; stroke: #000000; stroke-width: 0.8; stroke-linejoin: miter; stroke-linecap: square"/>
   </g>
   <g id="patch_5">
    <path d="M 47.45 387.16 
L 853.2 387.16 
" style="fill: none; stroke: #000000; stroke-width: 0.8; stroke-linejoin: miter; stroke-linecap: square"/>
   </g>
   <g id="patch_6">
    <path d="M 47.45 28.32 
L 853.2 28.32 
" style="fill: none; stroke: #000000; stroke-width: 0.8; stroke-linejoin: miter; stroke-linecap: square"/>
   </g>
   <g id="text_19">
    <!-- CPU package power over time -->
    <g transform="translate(314.81875 22.32) scale(0.16 -0.16)">
     <defs>
      <path id="DejaVuSans-Bold-43" d="M 4288 256 
Q 3956 84 3597 -3 
Q 3238 -91 2847 -91 
Q 1681 -91 1000 561 
Q 319 1213 319 2328 
Q 319 3447 1000 4098 
Q 1681 4750 2847 4750 
Q 3238 4750 3597 4662 
Q 3956 4575 4288 4403 
L 4288 3438 
Q 3953 3666 3628 3772 
Q 3303 3878 2944 3878 
Q 2300 3878 1931 3465 
Q 1563 3053 1563 2328 
Q 1563 1606 1931 1193 
Q 2300 781 2944 781 
Q 3303 781 3628 887 
Q 3953 994 4288 1222 
L 4288 256 
z
" transform="scale(0.015625)"/>
      <path id="DejaVuSans-Bold-50" d="M 588 4666 
L 2584 4666 
Q 3475 4666 3951 4270 
Q 4428 3875 4428 3144 
Q 4428 2409 3951 2014 
Q 3475 1619 2584 1619 
L 1791 1619 
L 1791 0 
L 588 0 
L 588 4666 
z
M 1791 3794 
L 1791 2491 
L 2456 2491 
Q 2806 2491 2997 2661 
Q 3188 2831 3188 3144 
Q 3188 3456 2997 3625 
Q 2806 3794 2456 3794 
L 1791 3794 
z
" transform="scale(0.015625)"/>
      <path id="DejaVuSans-Bold-55" d="M 588 4666 
L 1791 4666 
L 1791 1869 
Q 1791 1291 1980 1042 
Q 2169 794 2597 794 
Q 3028 794 3217 1042 
Q 3406 1291 3406 1869 
L 3406 4666 
L 4609 4666 
L 4609 1869 
Q 4609 878 4112 393 
Q 3616 -91 2597 -91 
Q 1581 -91 1084 393 
Q 588 878 588 1869 
L 588 4666 
z
" transform="scale(0.015625)"/>
      <path id="DejaVuSans-Bold-20" transform="scale(0.015625)"/>
      <path id="DejaVuSans-Bold-70" d="M 1656 506 
L 1656 -1331 
L 538 -1331 
L 538 3500 
L 1656 3500 
L 1656 2988 
Q 1888 3294 2169 3439 
Q 2450 3584 2816 3584 
Q 3463 3584 3878 3070 
Q 4294 2556 4294 1747 
Q 4294 938 3878 423 
Q 3463 -91 2816 -91 
Q 2450 -91 2169 54 
Q 1888 200 1656 506 
z
M 2400 2772 
Q 2041 2772 1848 2508 
Q 1656 2244 1656 1747 
Q 1656 1250 1848 986 
Q 2041 722 2400 722 
Q 2759 722 2948 984 
Q 3138 1247 3138 1747 
Q 3138 2247 2948 2509 
Q 2759 2772 2400 2772 
z
" transform="scale(0.015625)"/>
      <path id="DejaVuSans-Bold-61" d="M 2106 1575 
Q 1756 1575 1579 1456 
Q 1403 1338 1403 1106 
Q 1403 894 1545 773 
Q 1688 653 1941 653 
Q 2256 653 2472 879 
Q 2688 1106 2688 1447 
L 2688 1575 
L 2106 1575 
z
M 3816 1997 
L 3816 0 
L 2688 0 
L 2688 519 
Q 2463 200 2181 54 
Q 1900 -91 1497 -91 
Q 953 -91 614 226 
Q 275 544 275 1050 
Q 275 1666 698 1953 
Q 1122 2241 2028 2241 
L 2688 2241 
L 2688 2328 
Q 2688 2594 2478 2717 
Q 2269 2841 1825 2841 
Q 1466 2841 1156 2769 
Q 847 2697 581 2553 
L 581 3406 
Q 941 3494 1303 3539 
Q 1666 3584 2028 3584 
Q 2975 3584 3395 3211 
Q 3816 2838 3816 1997 
z
" transform="scale(0.015625)"/>
      <path id="DejaVuSans-Bold-63" d="M 3366 3391 
L 3366 2478 
Q 3138 2634 2908 2709 
Q 2678 2784 2431 2784 
Q 1963 2784 1702 2511 
Q 1441 2238 1441 1747 
Q 1441 1256 1702 982 
Q 1963 709 2431 709 
Q 2694 709 2930 787 
Q 3166 866 3366 1019 
L 3366 103 
Q 3103 6 2833 -42 
Q 2563 -91 2291 -91 
Q 1344 -91 809 395 
Q 275 881 275 1747 
Q 275 2613 809 3098 
Q 1344 3584 2291 3584 
Q 2566 3584 2833 3536 
Q 3100 3488 3366 3391 
z
" transform="scale(0.015625)"/>
      <path id="DejaVuSans-Bold-6b" d="M 538 4863 
L 1656 4863 
L 1656 2216 
L 2944 3500 
L 4244 3500 
L 2534 1894 
L 4378 0 
L 3022 0 
L 1656 1459 
L 1656 0 
L 538 0 
L 538 4863 
z
" transform="scale(0.015625)"/>
      <path id="DejaVuSans-Bold-67" d="M 2919 594 
Q 2688 288 2409 144 
Q 2131 0 1766 0 
Q 1125 0 706 504 
Q 288 1009 288 1791 
Q 288 2575 706 3076 
Q 1125 3578 1766 3578 
Q 2131 3578 2409 3434 
Q 2688 3291 2919 2981 
L 2919 3500 
L 4044 3500 
L 4044 353 
Q 4044 -491 3511 -936 
Q 2978 -1381 1966 -1381 
Q 1638 -1381 1331 -1331 
Q 1025 -1281 716 -1178 
L 716 -306 
Q 1009 -475 1290 -558 
Q 1572 -641 1856 -641 
Q 2406 -641 2662 -400 
Q 2919 -159 2919 353 
L 2919 594 
z
M 2181 2772 
Q 1834 2772 1640 2515 
Q 1447 2259 1447 1791 
Q 1447 1309 1634 1061 
Q 1822 813 2181 813 
Q 2531 813 2725 1069 
Q 2919 1325 2919 1791 
Q 2919 2259 2725 2515 
Q 2531 2772 2181 2772 
z
" transform="scale(0.015625)"/>
      <path id="DejaVuSans-Bold-65" d="M 4031 1759 
L 4031 1441 
L 1416 1441 
Q 1456 1047 1700 850 
Q 1944 653 2381 653 
Q 2734 653 3104 758 
Q 3475 863 3866 1075 
L 3866 213 
Q 3469 63 3072 -14 
Q 2675 -91 2278 -91 
Q 1328 -91 801 392 
Q 275 875 275 1747 
Q 275 2603 792 3093 
Q 1309 3584 2216 3584 
Q 3041 3584 3536 3087 
Q 4031 2591 4031 1759 
z
M 2881 2131 
Q 2881 2450 2695 2645 
Q 2509 2841 2209 2841 
Q 1884 2841 1681 2658 
Q 1478 2475 1428 2131 
L 2881 2131 
z
" transform="scale(0.015625)"/>
      <path id="DejaVuSans-Bold-6f" d="M 2203 2784 
Q 1831 2784 1636 2517 
Q 1441 2250 1441 1747 
Q 1441 1244 1636 976 
Q 1831 709 2203 709 
Q 2569 709 2762 976 
Q 2956 1244 2956 1747 
Q 2956 2250 2762 2517 
Q 2569 2784 2203 2784 
z
M 2203 3584 
Q 3106 3584 3614 3096 
Q 4122 2609 4122 1747 
Q 4122 884 3614 396 
Q 3106 -91 2203 -91 
Q 1297 -91 786 396 
Q 275 884 275 1747 
Q 275 2609 786 3096 
Q 1297 3584 2203 3584 
z
" transform="scale(0.015625)"/>
      <path id="DejaVuSans-Bold-77" d="M 225 3500 
L 1313 3500 
L 1900 1088 
L 2491 3500 
L 3425 3500 
L 4013 1113 
L 4603 3500 
L 5691 3500 
L 4769 0 
L 3547 0 
L 2956 2406 
L 2369 0 
L 1147 0 
L 225 3500 
z
" transform="scale(0.015625)"/>
      <path id="DejaVuSans-Bold-72" d="M 3138 2547 
Q 2991 2616 2845 2648 
Q 2700 2681 2553 2681 
Q 2122 2681 1889 2404 
Q 1656 2128 1656 1613 
L 1656 0 
L 538 0 
L 538 3500 
L 1656 3500 
L 1656 2925 
Q 1872 3269 2151 3426 
Q 2431 3584 2822 3584 
Q 2878 3584 2943 3579 
Q 3009 3575 3134 3559 
L 3138 2547 
z
" transform="scale(0.015625)"/>
      <path id="DejaVuSans-Bold-76" d="M 97 3500 
L 1216 3500 
L 2088 1081 
L 2956 3500 
L 4078 3500 
L 2700 0 
L 1472 0 
L 97 3500 
z
" transform="scale(0.015625)"/>
      <path id="DejaVuSans-Bold-74" d="M 1759 4494 
L 1759 3500 
L 2913 3500 
L 2913 2700 
L 1759 2700 
L 1759 1216 
Q 1759 972 1856 886 
Q 1953 800 2241 800 
L 2816 800 
L 2816 0 
L 1856 0 
Q 1194 0 917 276 
Q 641 553 641 1216 
L 641 2700 
L 84 2700 
L 84 3500 
L 641 3500 
L 641 4494 
L 1759 4494 
z
" transform="scale(0.015625)"/>
      <path id="DejaVuSans-Bold-69" d="M 538 3500 
L 1656 3500 
L 1656 0 
L 538 0 
L 538 3500 
z
M 538 4863 
L 1656 4863 
L 1656 3950 
L 538 3950 
L 538 4863 
z
" transform="scale(0.015625)"/>
      <path id="DejaVuSans-Bold-6d" d="M 3781 2919 
Q 3994 3244 4286 3414 
Q 4578 3584 4928 3584 
Q 5531 3584 5847 3212 
Q 6163 2841 6163 2131 
L 6163 0 
L 5038 0 
L 5038 1825 
Q 5041 1866 5042 1909 
Q 5044 1953 5044 2034 
Q 5044 2406 4934 2573 
Q 4825 2741 4581 2741 
Q 4263 2741 4089 2478 
Q 3916 2216 3909 1719 
L 3909 0 
L 2784 0 
L 2784 1825 
Q 2784 2406 2684 2573 
Q 2584 2741 2328 2741 
Q 2006 2741 1831 2477 
Q 1656 2213 1656 1722 
L 1656 0 
L 531 0 
L 531 3500 
L 1656 3500 
L 1656 2988 
Q 1863 3284 2130 3434 
Q 2397 3584 2719 3584 
Q 3081 3584 3359 3409 
Q 3638 3234 3781 2919 
z
" transform="scale(0.015625)"/>
     </defs>
     <use xlink:href="#DejaVuSans-Bold-43"/>
     <use xlink:href="#DejaVuSans-Bold-50" x="73.388672"/>
     <use xlink:href="#DejaVuSans-Bold-55" x="146.679688"/>
     <use xlink:href="#DejaVuSans-Bold-20" x="227.880859"/>
     <use xlink:href="#DejaVuSans-Bold-70" x="262.695312"/>
     <use xlink:href="#DejaVuSans-Bold-61" x="334.277344"/>
     <use xlink:href="#DejaVuSans-Bold-63" x="401.757812"/>
     <use xlink:href="#DejaVuSans-Bold-6b" x="461.035156"/>
     <use xlink:href="#DejaVuSans-Bold-61" x="527.539062"/>
     <use xlink:href="#DejaVuSans-Bold-67" x="595.019531"/>
     <use xlink:href="#DejaVuSans-Bold-65" x="666.601562"/>
     <use xlink:href="#DejaVuSans-Bold-20" x="734.423828"/>
     <use xlink:href="#DejaVuSans-Bold-70" x="769.238281"/>
     <use xlink:href="#DejaVuSans-Bold-6f" x="840.820312"/>
     <use xlink:href="#DejaVuSans-Bold-77" x="909.521484"/>
     <use xlink:href="#DejaVuSans-Bold-65" x="1001.904297"/>
     <use xlink:href="#DejaVuSans-Bold-72" x="1069.726562"/>
     <use xlink:href="#DejaVuSans-Bold-20" x="1119.042969"/>
     <use xlink:href="#DejaVuSans-Bold-6f" x="1153.857422"/>
     <use xlink:href="#DejaVuSans-Bold-76" x="1222.558594"/>
     <use xlink:href="#DejaVuSans-Bold-65" x="1287.744141"/>
     <use xlink:href="#DejaVuSans-Bold-72" x="1355.566406"/>
     <use xlink:href="#DejaVuSans-Bold-20" x="1404.882812"/>
     <use xlink:href="#DejaVuSans-Bold-74" x="1439.697266"/>
     <use xlink:href="#DejaVuSans-Bold-69" x="1487.5"/>
     <use xlink:href="#DejaVuSans-Bold-6d" x="1521.777344"/>
     <use xlink:href="#DejaVuSans-Bold-65" x="1625.976562"/>
    </g>
   </g>
   <g id="legend_1">
    <g id="patch_7">
     <path d="M 695.514063 67.67625 
L 848.2 67.67625 
Q 850.2 67.67625 850.2 65.67625 
L 850.2 37.32 
Q 850.2 35.32 848.2 35.32 
L 695.514063 35.32 
Q 693.514063 35.32 693.514063 37.32 
L 693.514063 65.67625 
Q 693.514063 67.67625 695.514063 67.67625 
z
" style="fill: #4d4d4d; opacity: 0.5; stroke: #4d4d4d; stroke-linejoin: miter"/>
    </g>
    <g id="patch_8">
     <path d="M 693.514063 65.67625 
L 846.2 65.67625 
Q 848.2 65.67625 848.2 63.67625 
L 848.2 35.32 
Q 848.2 33.32 846.2 33.32 
L 693.514063 33.32 
Q 691.514063 33.32 691.514063 35.32 
L 691.514063 63.67625 
Q 691.514063 65.67625 693.514063 65.67625 
z
" style="fill: #ffffff; stroke: #cccccc; stroke-linejoin: miter"/>
    </g>
    <g id="line2d_18">
     <path d="M 695.514063 41.418437 
L 705.514063 41.418437 
L 715.514063 41.418437 
" style="fill: none; stroke: #e74c3c; stroke-width: 2; stroke-linecap: square"/>
    </g>
    <g id="text_20">
     <!-- CPU package power (W) -->
     <g transform="translate(723.514063 44.918437) scale(0.1 -0.1)">
      <defs>
       <path id="DejaVuSans-43" d="M 4122 4306 
L 4122 3641 
Q 3803 3938 3442 4084 
Q 3081 4231 2675 4231 
Q 1875 4231 1450 3742 
Q 1025 3253 1025 2328 
Q 1025 1406 1450 917 
Q 1875 428 2675 428 
Q 3081 428 3442 575 
Q 3803 722 4122 1019 
L 4122 359 
Q 3791 134 3420 21 
Q 3050 -91 2638 -91 
Q 1578 -91 968 557 
Q 359 1206 359 2328 
Q 359 3453 968 4101 
Q 1578 4750 2638 4750 
Q 3056 4750 3426 4639 
Q 3797 4528 4122 4306 
z
" transform="scale(0.015625)"/>
       <path id="DejaVuSans-55" d="M 556 4666 
L 1191 4666 
L 1191 1831 
Q 1191 1081 1462 751 
Q 1734 422 2344 422 
Q 2950 422 3222 751 
Q 3494 1081 3494 1831 
L 3494 4666 
L 4128 4666 
L 4128 1753 
Q 4128 841 3676 375 
Q 3225 -91 2344 -91 
Q 1459 -91 1007 375 
Q 556 841 556 1753 
L 556 4666 
z
" transform="scale(0.015625)"/>
       <path id="DejaVuSans-70" d="M 1159 525 
L 1159 -1331 
L 581 -1331 
L 581 3500 
L 1159 3500 
L 1159 2969 
Q 1341 3281 1617 3432 
Q 1894 3584 2278 3584 
Q 2916 3584 3314 3078 
Q 3713 2572 3713 1747 
Q 3713 922 3314 415 
Q 2916 -91 2278 -91 
Q 1894 -91 1617 61 
Q 1341 213 1159 525 
z
M 3116 1747 
Q 3116 2381 2855 2742 
Q 2594 3103 2138 3103 
Q 1681 3103 1420 2742 
Q 1159 2381 1159 1747 
Q 1159 1113 1420 752 
Q 1681 391 2138 391 
Q 2594 391 2855 752 
Q 3116 1113 3116 1747 
z
" transform="scale(0.015625)"/>
       <path id="DejaVuSans-63" d="M 3122 3366 
L 3122 2828 
Q 2878 2963 2633 3030 
Q 2388 3097 2138 3097 
Q 1578 3097 1268 2742 
Q 959 2388 959 1747 
Q 959 1106 1268 751 
Q 1578 397 2138 397 
Q 2388 397 2633 464 
Q 2878 531 3122 666 
L 3122 134 
Q 2881 22 2623 -34 
Q 2366 -91 2075 -91 
Q 1284 -91 818 406 
Q 353 903 353 1747 
Q 353 2603 823 3093 
Q 1294 3584 2113 3584 
Q 2378 3584 2631 3529 
Q 2884 3475 3122 3366 
z
" transform="scale(0.015625)"/>
       <path id="DejaVuSans-6b" d="M 581 4863 
L 1159 4863 
L 1159 1991 
L 2875 3500 
L 3609 3500 
L 1753 1863 
L 3688 0 
L 2938 0 
L 1159 1709 
L 1159 0 
L 581 0 
L 581 4863 
z
" transform="scale(0.015625)"/>
       <path id="DejaVuSans-67" d="M 2906 1791 
Q 2906 2416 2648 2759 
Q 2391 3103 1925 3103 
Q 1463 3103 1205 2759 
Q 947 2416 947 1791 
Q 947 1169 1205 825 
Q 1463 481 1925 481 
Q 2391 481 2648 825 
Q 2906 1169 2906 1791 
z
M 3481 434 
Q 3481 -459 3084 -895 
Q 2688 -1331 1869 -1331 
Q 1566 -1331 1297 -1286 
Q 1028 -1241 775 -1147 
L 775 -588 
Q 1028 -725 1275 -790 
Q 1522 -856 1778 -856 
Q 2344 -856 2625 -561 
Q 2906 -266 2906 331 
L 2906 616 
Q 2728 306 2450 153 
Q 2172 0 1784 0 
Q 1141 0 747 490 
Q 353 981 353 1791 
Q 353 2603 747 3093 
Q 1141 3584 1784 3584 
Q 2172 3584 2450 3431 
Q 2728 3278 2906 2969 
L 2906 3500 
L 3481 3500 
L 3481 434 
z
" transform="scale(0.015625)"/>
      </defs>
      <use xlink:href="#DejaVuSans-43"/>
      <use xlink:href="#DejaVuSans-50" x="69.824219"/>
      <use xlink:href="#DejaVuSans-55" x="130.126953"/>
      <use xlink:href="#DejaVuSans-20" x="203.320312"/>
      <use xlink:href="#DejaVuSans-70" x="235.107422"/>
      <use xlink:href="#DejaVuSans-61" x="298.583984"/>
      <use xlink:href="#DejaVuSans-63" x="359.863281"/>
      <use xlink:href="#DejaVuSans-6b" x="414.84375"/>
      <use xlink:href="#DejaVuSans-61" x="471.003906"/>
      <use xlink:href="#DejaVuSans-67" x="532.283203"/>
      <use xlink:href="#DejaVuSans-65" x="595.759766"/>
      <use xlink:href="#DejaVuSans-20" x="657.283203"/>
      <use xlink:href="#DejaVuSans-70" x="689.070312"/>
      <use xlink:href="#DejaVuSans-6f" x="752.546875"/>
      <use xlink:href="#DejaVuSans-77" x="813.728516"/>
      <use xlink:href="#DejaVuSans-65" x="895.515625"/>
      <use xlink:href="#DejaVuSans-72" x="957.039062"/>
      <use xlink:href="#DejaVuSans-20" x="998.152344"/>
      <use xlink:href="#DejaVuSans-28" x="1029.939453"/>
      <use xlink:href="#DejaVuSans-57" x="1068.953125"/>
      <use xlink:href="#DejaVuSans-29" x="1167.830078"/>
     </g>
    </g>
    <g id="line2d_19">
     <path d="M 695.514063 56.096563 
L 705.514063 56.096563 
L 715.514063 56.096563 
" style="fill: none; stroke-dasharray: 7.4,3.2; stroke-dashoffset: 0; stroke: #000000; stroke-opacity: 0.9; stroke-width: 2"/>
    </g>
    <g id="text_21">
     <!-- Cooler on (5000 RPM) -->
     <g transform="translate(723.514063 59.596563) scale(0.1 -0.1)">
      <defs>
       <path id="DejaVuSans-6c" d="M 603 4863 
L 1178 4863 
L 1178 0 
L 603 0 
L 603 4863 
z
" transform="scale(0.015625)"/>
       <path id="DejaVuSans-52" d="M 2841 2188 
Q 3044 2119 3236 1894 
Q 3428 1669 3622 1275 
L 4263 0 
L 3584 0 
L 2988 1197 
Q 2756 1666 2539 1819 
Q 2322 1972 1947 1972 
L 1259 1972 
L 1259 0 
L 628 0 
L 628 4666 
L 2053 4666 
Q 2853 4666 3247 4331 
Q 3641 3997 3641 3322 
Q 3641 2881 3436 2590 
Q 3231 2300 2841 2188 
z
M 1259 4147 
L 1259 2491 
L 2053 2491 
Q 2509 2491 2742 2702 
Q 2975 2913 2975 3322 
Q 2975 3731 2742 3939 
Q 2509 4147 2053 4147 
L 1259 4147 
z
" transform="scale(0.015625)"/>
      </defs>
      <use xlink:href="#DejaVuSans-43"/>
      <use xlink:href="#DejaVuSans-6f" x="69.824219"/>
      <use xlink:href="#DejaVuSans-6f" x="131.005859"/>
      <use xlink:href="#DejaVuSans-6c" x="192.1875"/>
      <use xlink:href="#DejaVuSans-65" x="219.970703"/>
      <use xlink:href="#DejaVuSans-72" x="281.494141"/>
      <use xlink:href="#DejaVuSans-20" x="322.607422"/>
      <use xlink:href="#DejaVuSans-6f" x="354.394531"/>
      <use xlink:href="#DejaVuSans-6e" x="415.576172"/>
      <use xlink:href="#DejaVuSans-20" x="478.955078"/>
      <use xlink:href="#DejaVuSans-28" x="510.742188"/>
      <use xlink:href="#DejaVuSans-35" x="549.755859"/>
      <use xlink:href="#DejaVuSans-30" x="613.378906"/>
      <use xlink:href="#DejaVuSans-30" x="677.001953"/>
      <use xlink:href="#DejaVuSans-30" x="740.625"/>
      <use xlink:href="#DejaVuSans-20" x="804.248047"/>
      <use xlink:href="#DejaVuSans-52" x="836.035156"/>
      <use xlink:href="#DejaVuSans-50" x="905.517578"/>
      <use xlink:href="#DejaVuSans-4d" x="965.820312"/>
      <use xlink:href="#DejaVuSans-29" x="1052.099609"/>
     </g>
    </g>
   </g>
   <g id="line2d_20">
    <path d="M 138.705756 387.16 
L 138.705756 28.32 
" clip-path="url(#pbee05e008e)" style="fill: none; stroke-dasharray: 7.4,3.2; stroke-dashoffset: 0; stroke: #000000; stroke-opacity: 0.9; stroke-width: 2"/>
   </g>
  </g>
 </g>
 <defs>
  <clipPath id="pbee05e008e">
   <rect x="47.45" y="28.32" width="805.75" height="358.84"/>
  </clipPath>
 </defs>
</svg>
