<?xml version="1.0" encoding="utf-8" standalone="no"?>
<!DOCTYPE svg PUBLIC "-//W3C//DTD SVG 1.1//EN"
  "http://www.w3.org/Graphics/SVG/1.1/DTD/svg11.dtd">
<svg xmlns:xlink="http://www.w3.org/1999/xlink" width="864pt" height="432pt" viewBox="0 0 864 432" xmlns="http://www.w3.org/2000/svg" version="1.1">
 <metadata>
  <rdf:RDF xmlns:dc="http://purl.org/dc/elements/1.1/" xmlns:cc="http://creativecommons.org/ns#" xmlns:rdf="http://www.w3.org/1999/02/22-rdf-syntax-ns#">
   <cc:Work>
    <dc:type rdf:resource="http://purl.org/dc/dcmitype/StillImage"/>
    <dc:date>2026-05-21T23:05:40.312184</dc:date>
    <dc:format>image/svg+xml</dc:format>
    <dc:creator>
     <cc:Agent>
      <dc:title>Matplotlib v3.9.2, https://matplotlib.org/</dc:title>
     </cc:Agent>
    </dc:creator>
   </cc:Work>
  </rdf:RDF>
 </metadata>
 <defs>
  <style type="text/css">*{stroke-linejoin: round; stroke-linecap: butt}</style>
 </defs>
 <g id="figure_1">
  <g id="patch_1">
   <path d="M 0 432 
L 864 432 
L 864 0 
L 0 0 
z
" style="fill: #ffffff"/>
  </g>
  <g id="axes_1">
   <g id="patch_2">
    <path d="M 53.75 387.16 
L 853.2 387.16 
L 853.2 28.32 
L 53.75 28.32 
z
" style="fill: #ffffff"/>
   </g>
   <g id="matplotlib.axis_1">
    <g id="xtick_1">
     <g id="line2d_1">
      <defs>
       <path id="m37483dd0d9" d="M 0 0 
L 0 3.5 
" style="stroke: #000000; stroke-width: 0.8"/>
      </defs>
      <g>
       <use xlink:href="#m37483dd0d9" x="53.75" y="387.16" style="stroke: #000000; stroke-width: 0.8"/>
      </g>
     </g>
     <g id="text_1">
      <!-- 0 -->
      <g transform="translate(50.56875 401.758438) scale(0.1 -0.1)">
       <defs>
        <path id="DejaVuSans-30" d="M 2034 4250 
Q 1547 4250 1301 3770 
Q 1056 3291 1056 2328 
Q 1056 1369 1301 889 
Q 1547 409 2034 409 
Q 2525 409 2770 889 
Q 3016 1369 3016 2328 
Q 3016 3291 2770 3770 
Q 2525 4250 2034 4250 
z
M 2034 4750 
Q 2819 4750 3233 4129 
Q 3647 3509 3647 2328 
Q 3647 1150 3233 529 
Q 2819 -91 2034 -91 
Q 1250 -91 836 529 
Q 422 1150 422 2328 
Q 422 3509 836 4129 
Q 1250 4750 2034 4750 
z
" transform="scale(0.015625)"/>
       </defs>
       <use xlink:href="#DejaVuSans-30"/>
      </g>
     </g>
    </g>
    <g id="xtick_2">
     <g id="line2d_2">
      <g>
       <use xlink:href="#m37483dd0d9" x="154.352495" y="387.16" style="stroke: #000000; stroke-width: 0.8"/>
      </g>
     </g>
     <g id="text_2">
      <!-- 5 -->
      <g transform="translate(151.171245 401.758438) scale(0.1 -0.1)">
       <defs>
        <path id="DejaVuSans-35" d="M 691 4666 
L 3169 4666 
L 3169 4134 
L 1269 4134 
L 1269 2991 
Q 1406 3038 1543 3061 
Q 1681 3084 1819 3084 
Q 2600 3084 3056 2656 
Q 3513 2228 3513 1497 
Q 3513 744 3044 326 
Q 2575 -91 1722 -91 
Q 1428 -91 1123 -41 
Q 819 9 494 109 
L 494 744 
Q 775 591 1075 516 
Q 1375 441 1709 441 
Q 2250 441 2565 725 
Q 2881 1009 2881 1497 
Q 2881 1984 2565 2268 
Q 2250 2553 1709 2553 
Q 1456 2553 1204 2497 
Q 953 2441 691 2322 
L 691 4666 
z
" transform="scale(0.015625)"/>
       </defs>
       <use xlink:href="#DejaVuSans-35"/>
      </g>
     </g>
    </g>
    <g id="xtick_3">
     <g id="line2d_3">
      <g>
       <use xlink:href="#m37483dd0d9" x="254.95499" y="387.16" style="stroke: #000000; stroke-width: 0.8"/>
      </g>
     </g>
     <g id="text_3">
      <!-- 10 -->
      <g transform="translate(248.59249 401.758438) scale(0.1 -0.1)">
       <defs>
        <path id="DejaVuSans-31" d="M 794 531 
L 1825 531 
L 1825 4091 
L 703 3866 
L 703 4441 
L 1819 4666 
L 2450 4666 
L 2450 531 
L 3481 531 
L 3481 0 
L 794 0 
L 794 531 
z
" transform="scale(0.015625)"/>
       </defs>
       <use xlink:href="#DejaVuSans-31"/>
       <use xlink:href="#DejaVuSans-30" x="63.623047"/>
      </g>
     </g>
    </g>
    <g id="xtick_4">
     <g id="line2d_4">
      <g>
       <use xlink:href="#m37483dd0d9" x="355.557485" y="387.16" style="stroke: #000000; stroke-width: 0.8"/>
      </g>
     </g>
     <g id="text_4">
      <!-- 15 -->
      <g transform="translate(349.194985 401.758438) scale(0.1 -0.1)">
       <use xlink:href="#DejaVuSans-31"/>
       <use xlink:href="#DejaVuSans-35" x="63.623047"/>
      </g>
     </g>
    </g>
    <g id="xtick_5">
     <g id="line2d_5">
      <g>
       <use xlink:href="#m37483dd0d9" x="456.15998" y="387.16" style="stroke: #000000; stroke-width: 0.8"/>
      </g>
     </g>
     <g id="text_5">
      <!-- 20 -->
      <g transform="translate(449.79748 401.758438) scale(0.1 -0.1)">
       <defs>
        <path id="DejaVuSans-32" d="M 1228 531 
L 3431 531 
L 3431 0 
L 469 0 
L 469 531 
Q 828 903 1448 1529 
Q 2069 2156 2228 2338 
Q 2531 2678 2651 2914 
Q 2772 3150 2772 3378 
Q 2772 3750 2511 3984 
Q 2250 4219 1831 4219 
Q 1534 4219 1204 4116 
Q 875 4013 500 3803 
L 500 4441 
Q 881 4594 1212 4672 
Q 1544 4750 1819 4750 
Q 2544 4750 2975 4387 
Q 3406 4025 3406 3419 
Q 3406 3131 3298 2873 
Q 3191 2616 2906 2266 
Q 2828 2175 2409 1742 
Q 1991 1309 1228 531 
z
" transform="scale(0.015625)"/>
       </defs>
       <use xlink:href="#DejaVuSans-32"/>
       <use xlink:href="#DejaVuSans-30" x="63.623047"/>
      </g>
     </g>
    </g>
    <g id="xtick_6">
     <g id="line2d_6">
      <g>
       <use xlink:href="#m37483dd0d9" x="556.762475" y="387.16" style="stroke: #000000; stroke-width: 0.8"/>
      </g>
     </g>
     <g id="text_6">
      <!-- 25 -->
      <g transform="translate(550.399975 401.758438) scale(0.1 -0.1)">
       <use xlink:href="#DejaVuSans-32"/>
       <use xlink:href="#DejaVuSans-35" x="63.623047"/>
      </g>
     </g>
    </g>
    <g id="xtick_7">
     <g id="line2d_7">
      <g>
       <use xlink:href="#m37483dd0d9" x="657.36497" y="387.16" style="stroke: #000000; stroke-width: 0.8"/>
      </g>
     </g>
     <g id="text_7">
      <!-- 30 -->
      <g transform="translate(651.00247 401.758438) scale(0.1 -0.1)">
       <defs>
        <path id="DejaVuSans-33" d="M 2597 2516 
Q 3050 2419 3304 2112 
Q 3559 1806 3559 1356 
Q 3559 666 3084 287 
Q 2609 -91 1734 -91 
Q 1441 -91 1130 -33 
Q 819 25 488 141 
L 488 750 
Q 750 597 1062 519 
Q 1375 441 1716 441 
Q 2309 441 2620 675 
Q 2931 909 2931 1356 
Q 2931 1769 2642 2001 
Q 2353 2234 1838 2234 
L 1294 2234 
L 1294 2753 
L 1863 2753 
Q 2328 2753 2575 2939 
Q 2822 3125 2822 3475 
Q 2822 3834 2567 4026 
Q 2313 4219 1838 4219 
Q 1578 4219 1281 4162 
Q 984 4106 628 3988 
L 628 4550 
Q 988 4650 1302 4700 
Q 1616 4750 1894 4750 
Q 2613 4750 3031 4423 
Q 3450 4097 3450 3541 
Q 3450 3153 3228 2886 
Q 3006 2619 2597 2516 
z
" transform="scale(0.015625)"/>
       </defs>
       <use xlink:href="#DejaVuSans-33"/>
       <use xlink:href="#DejaVuSans-30" x="63.623047"/>
      </g>
     </g>
    </g>
    <g id="xtick_8">
     <g id="line2d_8">
      <g>
       <use xlink:href="#m37483dd0d9" x="757.967465" y="387.16" style="stroke: #000000; stroke-width: 0.8"/>
      </g>
     </g>
     <g id="text_8">
      <!-- 35 -->
      <g transform="translate(751.604965 401.758438) scale(0.1 -0.1)">
       <use xlink:href="#DejaVuSans-33"/>
       <use xlink:href="#DejaVuSans-35" x="63.623047"/>
      </g>
     </g>
    </g>
    <g id="text_9">
     <!-- Test duration (Minutes) -->
     <g transform="translate(384.29875 416.95625) scale(0.12 -0.12)">
      <defs>
       <path id="DejaVuSans-54" d="M -19 4666 
L 3928 4666 
L 3928 4134 
L 2272 4134 
L 2272 0 
L 1638 0 
L 1638 4134 
L -19 4134 
L -19 4666 
z
" transform="scale(0.015625)"/>
       <path id="DejaVuSans-65" d="M 3597 1894 
L 3597 1613 
L 953 1613 
Q 991 1019 1311 708 
Q 1631 397 2203 397 
Q 2534 397 2845 478 
Q 3156 559 3463 722 
L 3463 178 
Q 3153 47 2828 -22 
Q 2503 -91 2169 -91 
Q 1331 -91 842 396 
Q 353 884 353 1716 
Q 353 2575 817 3079 
Q 1281 3584 2069 3584 
Q 2775 3584 3186 3129 
Q 3597 2675 3597 1894 
z
M 3022 2063 
Q 3016 2534 2758 2815 
Q 2500 3097 2075 3097 
Q 1594 3097 1305 2825 
Q 1016 2553 972 2059 
L 3022 2063 
z
" transform="scale(0.015625)"/>
       <path id="DejaVuSans-73" d="M 2834 3397 
L 2834 2853 
Q 2591 2978 2328 3040 
Q 2066 3103 1784 3103 
Q 1356 3103 1142 2972 
Q 928 2841 928 2578 
Q 928 2378 1081 2264 
Q 1234 2150 1697 2047 
L 1894 2003 
Q 2506 1872 2764 1633 
Q 3022 1394 3022 966 
Q 3022 478 2636 193 
Q 2250 -91 1575 -91 
Q 1294 -91 989 -36 
Q 684 19 347 128 
L 347 722 
Q 666 556 975 473 
Q 1284 391 1588 391 
Q 1994 391 2212 530 
Q 2431 669 2431 922 
Q 2431 1156 2273 1281 
Q 2116 1406 1581 1522 
L 1381 1569 
Q 847 1681 609 1914 
Q 372 2147 372 2553 
Q 372 3047 722 3315 
Q 1072 3584 1716 3584 
Q 2034 3584 2315 3537 
Q 2597 3491 2834 3397 
z
" transform="scale(0.015625)"/>
       <path id="DejaVuSans-74" d="M 1172 4494 
L 1172 3500 
L 2356 3500 
L 2356 3053 
L 1172 3053 
L 1172 1153 
Q 1172 725 1289 603 
Q 1406 481 1766 481 
L 2356 481 
L 2356 0 
L 1766 0 
Q 1100 0 847 248 
Q 594 497 594 1153 
L 594 3053 
L 172 3053 
L 172 3500 
L 594 3500 
L 594 4494 
L 1172 4494 
z
" transform="scale(0.015625)"/>
       <path id="DejaVuSans-20" transform="scale(0.015625)"/>
       <path id="DejaVuSans-64" d="M 2906 2969 
L 2906 4863 
L 3481 4863 
L 3481 0 
L 2906 0 
L 2906 525 
Q 2725 213 2448 61 
Q 2172 -91 1784 -91 
Q 1150 -91 751 415 
Q 353 922 353 1747 
Q 353 2572 751 3078 
Q 1150 3584 1784 3584 
Q 2172 3584 2448 3432 
Q 2725 3281 2906 2969 
z
M 947 1747 
Q 947 1113 1208 752 
Q 1469 391 1925 391 
Q 2381 391 2643 752 
Q 2906 1113 2906 1747 
Q 2906 2381 2643 2742 
Q 2381 3103 1925 3103 
Q 1469 3103 1208 2742 
Q 947 2381 947 1747 
z
" transform="scale(0.015625)"/>
       <path id="DejaVuSans-75" d="M 544 1381 
L 544 3500 
L 1119 3500 
L 1119 1403 
Q 1119 906 1312 657 
Q 1506 409 1894 409 
Q 2359 409 2629 706 
Q 2900 1003 2900 1516 
L 2900 3500 
L 3475 3500 
L 3475 0 
L 2900 0 
L 2900 538 
Q 2691 219 2414 64 
Q 2138 -91 1772 -91 
Q 1169 -91 856 284 
Q 544 659 544 1381 
z
M 1991 3584 
L 1991 3584 
z
" transform="scale(0.015625)"/>
       <path id="DejaVuSans-72" d="M 2631 2963 
Q 2534 3019 2420 3045 
Q 2306 3072 2169 3072 
Q 1681 3072 1420 2755 
Q 1159 2438 1159 1844 
L 1159 0 
L 581 0 
L 581 3500 
L 1159 3500 
L 1159 2956 
Q 1341 3275 1631 3429 
Q 1922 3584 2338 3584 
Q 2397 3584 2469 3576 
Q 2541 3569 2628 3553 
L 2631 2963 
z
" transform="scale(0.015625)"/>
       <path id="DejaVuSans-61" d="M 2194 1759 
Q 1497 1759 1228 1600 
Q 959 1441 959 1056 
Q 959 750 1161 570 
Q 1363 391 1709 391 
Q 2188 391 2477 730 
Q 2766 1069 2766 1631 
L 2766 1759 
L 2194 1759 
z
M 3341 1997 
L 3341 0 
L 2766 0 
L 2766 531 
Q 2569 213 2275 61 
Q 1981 -91 1556 -91 
Q 1019 -91 701 211 
Q 384 513 384 1019 
Q 384 1609 779 1909 
Q 1175 2209 1959 2209 
L 2766 2209 
L 2766 2266 
Q 2766 2663 2505 2880 
Q 2244 3097 1772 3097 
Q 1472 3097 1187 3025 
Q 903 2953 641 2809 
L 641 3341 
Q 956 3463 1253 3523 
Q 1550 3584 1831 3584 
Q 2591 3584 2966 3190 
Q 3341 2797 3341 1997 
z
" transform="scale(0.015625)"/>
       <path id="DejaVuSans-69" d="M 603 3500 
L 1178 3500 
L 1178 0 
L 603 0 
L 603 3500 
z
M 603 4863 
L 1178 4863 
L 1178 4134 
L 603 4134 
L 603 4863 
z
" transform="scale(0.015625)"/>
       <path id="DejaVuSans-6f" d="M 1959 3097 
Q 1497 3097 1228 2736 
Q 959 2375 959 1747 
Q 959 1119 1226 758 
Q 1494 397 1959 397 
Q 2419 397 2687 759 
Q 2956 1122 2956 1747 
Q 2956 2369 2687 2733 
Q 2419 3097 1959 3097 
z
M 1959 3584 
Q 2709 3584 3137 3096 
Q 3566 2609 3566 1747 
Q 3566 888 3137 398 
Q 2709 -91 1959 -91 
Q 1206 -91 779 398 
Q 353 888 353 1747 
Q 353 2609 779 3096 
Q 1206 3584 1959 3584 
z
" transform="scale(0.015625)"/>
       <path id="DejaVuSans-6e" d="M 3513 2113 
L 3513 0 
L 2938 0 
L 2938 2094 
Q 2938 2591 2744 2837 
Q 2550 3084 2163 3084 
Q 1697 3084 1428 2787 
Q 1159 2491 1159 1978 
L 1159 0 
L 581 0 
L 581 3500 
L 1159 3500 
L 1159 2956 
Q 1366 3272 1645 3428 
Q 1925 3584 2291 3584 
Q 2894 3584 3203 3211 
Q 3513 2838 3513 2113 
z
" transform="scale(0.015625)"/>
       <path id="DejaVuSans-28" d="M 1984 4856 
Q 1566 4138 1362 3434 
Q 1159 2731 1159 2009 
Q 1159 1288 1364 580 
Q 1569 -128 1984 -844 
L 1484 -844 
Q 1016 -109 783 600 
Q 550 1309 550 2009 
Q 550 2706 781 3412 
Q 1013 4119 1484 4856 
L 1984 4856 
z
" transform="scale(0.015625)"/>
       <path id="DejaVuSans-4d" d="M 628 4666 
L 1569 4666 
L 2759 1491 
L 3956 4666 
L 4897 4666 
L 4897 0 
L 4281 0 
L 4281 4097 
L 3078 897 
L 2444 897 
L 1241 4097 
L 1241 0 
L 628 0 
L 628 4666 
z
" transform="scale(0.015625)"/>
       <path id="DejaVuSans-29" d="M 513 4856 
L 1013 4856 
Q 1481 4119 1714 3412 
Q 1947 2706 1947 2009 
Q 1947 1309 1714 600 
Q 1481 -109 1013 -844 
L 513 -844 
Q 928 -128 1133 580 
Q 1338 1288 1338 2009 
Q 1338 2731 1133 3434 
Q 928 4138 513 4856 
z
" transform="scale(0.015625)"/>
      </defs>
      <use xlink:href="#DejaVuSans-54"/>
      <use xlink:href="#DejaVuSans-65" x="44.083984"/>
      <use xlink:href="#DejaVuSans-73" x="105.607422"/>
      <use xlink:href="#DejaVuSans-74" x="157.707031"/>
      <use xlink:href="#DejaVuSans-20" x="196.916016"/>
      <use xlink:href="#DejaVuSans-64" x="228.703125"/>
      <use xlink:href="#DejaVuSans-75" x="292.179688"/>
      <use xlink:href="#DejaVuSans-72" x="355.558594"/>
      <use xlink:href="#DejaVuSans-61" x="396.671875"/>
      <use xlink:href="#DejaVuSans-74" x="457.951172"/>
      <use xlink:href="#DejaVuSans-69" x="497.160156"/>
      <use xlink:href="#DejaVuSans-6f" x="524.943359"/>
      <use xlink:href="#DejaVuSans-6e" x="586.125"/>
      <use xlink:href="#DejaVuSans-20" x="649.503906"/>
      <use xlink:href="#DejaVuSans-28" x="681.291016"/>
      <use xlink:href="#DejaVuSans-4d" x="720.304688"/>
      <use xlink:href="#DejaVuSans-69" x="806.583984"/>
      <use xlink:href="#DejaVuSans-6e" x="834.367188"/>
      <use xlink:href="#DejaVuSans-75" x="897.746094"/>
      <use xlink:href="#DejaVuSans-74" x="961.125"/>
      <use xlink:href="#DejaVuSans-65" x="1000.333984"/>
      <use xlink:href="#DejaVuSans-73" x="1061.857422"/>
      <use xlink:href="#DejaVuSans-29" x="1113.957031"/>
     </g>
    </g>
   </g>
   <g id="matplotlib.axis_2">
    <g id="ytick_1">
     <g id="line2d_9">
      <defs>
       <path id="m0991d4dbab" d="M 0 0 
L -3.5 0 
" style="stroke: #000000; stroke-width: 0.8"/>
      </defs>
      <g>
       <use xlink:href="#m0991d4dbab" x="53.75" y="387.16" style="stroke: #000000; stroke-width: 0.8"/>
      </g>
     </g>
     <g id="text_10">
      <!-- 0 -->
      <g transform="translate(40.3875 390.959219) scale(0.1 -0.1)">
       <use xlink:href="#DejaVuSans-30"/>
      </g>
     </g>
    </g>
    <g id="ytick_2">
     <g id="line2d_10">
      <g>
       <use xlink:href="#m0991d4dbab" x="53.75" y="319.898519" style="stroke: #000000; stroke-width: 0.8"/>
      </g>
     </g>
     <g id="text_11">
      <!-- 20 -->
      <g transform="translate(34.025 323.697738) scale(0.1 -0.1)">
       <use xlink:href="#DejaVuSans-32"/>
       <use xlink:href="#DejaVuSans-30" x="63.623047"/>
      </g>
     </g>
    </g>
    <g id="ytick_3">
     <g id="line2d_11">
      <g>
       <use xlink:href="#m0991d4dbab" x="53.75" y="252.637038" style="stroke: #000000; stroke-width: 0.8"/>
      </g>
     </g>
     <g id="text_12">
      <!-- 40 -->
      <g transform="translate(34.025 256.436257) scale(0.1 -0.1)">
       <defs>
        <path id="DejaVuSans-34" d="M 2419 4116 
L 825 1625 
L 2419 1625 
L 2419 4116 
z
M 2253 4666 
L 3047 4666 
L 3047 1625 
L 3713 1625 
L 3713 1100 
L 3047 1100 
L 3047 0 
L 2419 0 
L 2419 1100 
L 313 1100 
L 313 1709 
L 2253 4666 
z
" transform="scale(0.015625)"/>
       </defs>
       <use xlink:href="#DejaVuSans-34"/>
       <use xlink:href="#DejaVuSans-30" x="63.623047"/>
      </g>
     </g>
    </g>
    <g id="ytick_4">
     <g id="line2d_12">
      <g>
       <use xlink:href="#m0991d4dbab" x="53.75" y="185.375558" style="stroke: #000000; stroke-width: 0.8"/>
      </g>
     </g>
     <g id="text_13">
      <!-- 60 -->
      <g transform="translate(34.025 189.174776) scale(0.1 -0.1)">
       <defs>
        <path id="DejaVuSans-36" d="M 2113 2584 
Q 1688 2584 1439 2293 
Q 1191 2003 1191 1497 
Q 1191 994 1439 701 
Q 1688 409 2113 409 
Q 2538 409 2786 701 
Q 3034 994 3034 1497 
Q 3034 2003 2786 2293 
Q 2538 2584 2113 2584 
z
M 3366 4563 
L 3366 3988 
Q 3128 4100 2886 4159 
Q 2644 4219 2406 4219 
Q 1781 4219 1451 3797 
Q 1122 3375 1075 2522 
Q 1259 2794 1537 2939 
Q 1816 3084 2150 3084 
Q 2853 3084 3261 2657 
Q 3669 2231 3669 1497 
Q 3669 778 3244 343 
Q 2819 -91 2113 -91 
Q 1303 -91 875 529 
Q 447 1150 447 2328 
Q 447 3434 972 4092 
Q 1497 4750 2381 4750 
Q 2619 4750 2861 4703 
Q 3103 4656 3366 4563 
z
" transform="scale(0.015625)"/>
       </defs>
       <use xlink:href="#DejaVuSans-36"/>
       <use xlink:href="#DejaVuSans-30" x="63.623047"/>
      </g>
     </g>
    </g>
    <g id="ytick_5">
     <g id="line2d_13">
      <g>
       <use xlink:href="#m0991d4dbab" x="53.75" y="118.114077" style="stroke: #000000; stroke-width: 0.8"/>
      </g>
     </g>
     <g id="text_14">
      <!-- 80 -->
      <g transform="translate(34.025 121.913296) scale(0.1 -0.1)">
       <defs>
        <path id="DejaVuSans-38" d="M 2034 2216 
Q 1584 2216 1326 1975 
Q 1069 1734 1069 1313 
Q 1069 891 1326 650 
Q 1584 409 2034 409 
Q 2484 409 2743 651 
Q 3003 894 3003 1313 
Q 3003 1734 2745 1975 
Q 2488 2216 2034 2216 
z
M 1403 2484 
Q 997 2584 770 2862 
Q 544 3141 544 3541 
Q 544 4100 942 4425 
Q 1341 4750 2034 4750 
Q 2731 4750 3128 4425 
Q 3525 4100 3525 3541 
Q 3525 3141 3298 2862 
Q 3072 2584 2669 2484 
Q 3125 2378 3379 2068 
Q 3634 1759 3634 1313 
Q 3634 634 3220 271 
Q 2806 -91 2034 -91 
Q 1263 -91 848 271 
Q 434 634 434 1313 
Q 434 1759 690 2068 
Q 947 2378 1403 2484 
z
M 1172 3481 
Q 1172 3119 1398 2916 
Q 1625 2713 2034 2713 
Q 2441 2713 2670 2916 
Q 2900 3119 2900 3481 
Q 2900 3844 2670 4047 
Q 2441 4250 2034 4250 
Q 1625 4250 1398 4047 
Q 1172 3844 1172 3481 
z
" transform="scale(0.015625)"/>
       </defs>
       <use xlink:href="#DejaVuSans-38"/>
       <use xlink:href="#DejaVuSans-30" x="63.623047"/>
      </g>
     </g>
    </g>
    <g id="ytick_6">
     <g id="line2d_14">
      <g>
       <use xlink:href="#m0991d4dbab" x="53.75" y="50.852596" style="stroke: #000000; stroke-width: 0.8"/>
      </g>
     </g>
     <g id="text_15">
      <!-- 100 -->
      <g transform="translate(27.6625 54.651815) scale(0.1 -0.1)">
       <use xlink:href="#DejaVuSans-31"/>
       <use xlink:href="#DejaVuSans-30" x="63.623047"/>
       <use xlink:href="#DejaVuSans-30" x="127.246094"/>
      </g>
     </g>
    </g>
    <g id="text_16">
     <!-- Temperature (°C) -->
     <g transform="translate(21.166875 259.521875) rotate(-90) scale(0.12 -0.12)">
      <defs>
       <path id="DejaVuSans-6d" d="M 3328 2828 
Q 3544 3216 3844 3400 
Q 4144 3584 4550 3584 
Q 5097 3584 5394 3201 
Q 5691 2819 5691 2113 
L 5691 0 
L 5113 0 
L 5113 2094 
Q 5113 2597 4934 2840 
Q 4756 3084 4391 3084 
Q 3944 3084 3684 2787 
Q 3425 2491 3425 1978 
L 3425 0 
L 2847 0 
L 2847 2094 
Q 2847 2600 2669 2842 
Q 2491 3084 2119 3084 
Q 1678 3084 1418 2786 
Q 1159 2488 1159 1978 
L 1159 0 
L 581 0 
L 581 3500 
L 1159 3500 
L 1159 2956 
Q 1356 3278 1631 3431 
Q 1906 3584 2284 3584 
Q 2666 3584 2933 3390 
Q 3200 3197 3328 2828 
z
" transform="scale(0.015625)"/>
       <path id="DejaVuSans-70" d="M 1159 525 
L 1159 -1331 
L 581 -1331 
L 581 3500 
L 1159 3500 
L 1159 2969 
Q 1341 3281 1617 3432 
Q 1894 3584 2278 3584 
Q 2916 3584 3314 3078 
Q 3713 2572 3713 1747 
Q 3713 922 3314 415 
Q 2916 -91 2278 -91 
Q 1894 -91 1617 61 
Q 1341 213 1159 525 
z
M 3116 1747 
Q 3116 2381 2855 2742 
Q 2594 3103 2138 3103 
Q 1681 3103 1420 2742 
Q 1159 2381 1159 1747 
Q 1159 1113 1420 752 
Q 1681 391 2138 391 
Q 2594 391 2855 752 
Q 3116 1113 3116 1747 
z
" transform="scale(0.015625)"/>
       <path id="DejaVuSans-b0" d="M 1600 4347 
Q 1350 4347 1178 4173 
Q 1006 4000 1006 3750 
Q 1006 3503 1178 3333 
Q 1350 3163 1600 3163 
Q 1850 3163 2022 3333 
Q 2194 3503 2194 3750 
Q 2194 3997 2020 4172 
Q 1847 4347 1600 4347 
z
M 1600 4750 
Q 1800 4750 1984 4673 
Q 2169 4597 2303 4453 
Q 2447 4313 2519 4134 
Q 2591 3956 2591 3750 
Q 2591 3338 2302 3052 
Q 2013 2766 1594 2766 
Q 1172 2766 890 3047 
Q 609 3328 609 3750 
Q 609 4169 896 4459 
Q 1184 4750 1600 4750 
z
" transform="scale(0.015625)"/>
       <path id="DejaVuSans-43" d="M 4122 4306 
L 4122 3641 
Q 3803 3938 3442 4084 
Q 3081 4231 2675 4231 
Q 1875 4231 1450 3742 
Q 1025 3253 1025 2328 
Q 1025 1406 1450 917 
Q 1875 428 2675 428 
Q 3081 428 3442 575 
Q 3803 722 4122 1019 
L 4122 359 
Q 3791 134 3420 21 
Q 3050 -91 2638 -91 
Q 1578 -91 968 557 
Q 359 1206 359 2328 
Q 359 3453 968 4101 
Q 1578 4750 2638 4750 
Q 3056 4750 3426 4639 
Q 3797 4528 4122 4306 
z
" transform="scale(0.015625)"/>
      </defs>
      <use xlink:href="#DejaVuSans-54"/>
      <use xlink:href="#DejaVuSans-65" x="44.083984"/>
      <use xlink:href="#DejaVuSans-6d" x="105.607422"/>
      <use xlink:href="#DejaVuSans-70" x="203.019531"/>
      <use xlink:href="#DejaVuSans-65" x="266.496094"/>
      <use xlink:href="#DejaVuSans-72" x="328.019531"/>
      <use xlink:href="#DejaVuSans-61" x="369.132812"/>
      <use xlink:href="#DejaVuSans-74" x="430.412109"/>
      <use xlink:href="#DejaVuSans-75" x="469.621094"/>
      <use xlink:href="#DejaVuSans-72" x="533"/>
      <use xlink:href="#DejaVuSans-65" x="571.863281"/>
      <use xlink:href="#DejaVuSans-20" x="633.386719"/>
      <use xlink:href="#DejaVuSans-28" x="665.173828"/>
      <use xlink:href="#DejaVuSans-b0" x="704.1875"/>
      <use xlink:href="#DejaVuSans-43" x="754.1875"/>
      <use xlink:href="#DejaVuSans-29" x="824.011719"/>
     </g>
    </g>
   </g>
   <g id="line2d_15">
    <path d="M 53.75 195.46478 
L 54.415989 175.286336 
L 55.099415 198.827854 
L 55.758696 155.107891 
L 56.437428 192.101706 
L 57.133262 148.381743 
L 57.77913 148.381743 
L 58.477311 155.107891 
L 59.121838 141.655595 
L 59.92867 148.381743 
L 60.469911 121.477151 
L 61.146631 138.292521 
L 61.821674 151.744817 
L 62.49504 155.107891 
L 63.162369 134.929447 
L 65.192863 155.107891 
L 65.86187 111.387929 
L 66.53926 138.292521 
L 67.212961 138.292521 
L 67.881968 104.661781 
L 68.54628 155.107891 
L 69.220652 134.929447 
L 69.893347 138.292521 
L 70.568725 108.024855 
L 71.914786 148.381743 
L 72.583793 141.655595 
L 73.2528 97.935633 
L 73.921806 121.477151 
L 74.590813 121.477151 
L 75.262838 128.203299 
L 75.93285 108.024855 
L 76.606552 121.477151 
L 77.274887 111.387929 
L 77.945235 87.84641 
L 78.617595 97.935633 
L 79.290291 118.114077 
L 79.964663 118.114077 
L 80.638029 124.840225 
L 81.310389 108.024855 
L 81.982749 108.024855 
L 82.662822 114.751003 
L 83.333505 91.209485 
L 84.007542 121.477151 
L 84.683591 114.751003 
L 85.351256 101.298707 
L 86.025628 108.024855 
L 86.694299 87.84641 
L 87.364312 94.572559 
L 88.032648 91.209485 
L 88.708361 114.751003 
L 89.379044 94.572559 
L 90.055093 87.84641 
L 90.7241 128.203299 
L 91.393777 121.477151 
L 92.064796 131.566373 
L 92.737826 134.929447 
L 93.412534 108.024855 
L 94.08657 118.114077 
L 94.756248 124.840225 
L 95.427937 121.477151 
L 96.096944 81.120262 
L 96.771651 71.03104 
L 97.445017 91.209485 
L 98.1157 87.84641 
L 98.793761 81.120262 
L 99.464444 104.661781 
L 100.134457 91.209485 
L 100.803128 104.661781 
L 101.47247 94.572559 
L 102.82155 94.572559 
L 103.497934 97.935633 
L 104.170629 118.114077 
L 104.8393 121.477151 
L 105.513672 118.114077 
L 106.856716 124.840225 
L 107.529411 111.387929 
L 108.206131 124.840225 
L 108.874802 114.751003 
L 109.549174 111.387929 
L 110.21751 118.114077 
L 110.887187 111.387929 
L 112.903932 111.387929 
L 113.580316 104.661781 
L 114.254017 111.387929 
L 114.921682 121.477151 
L 115.603097 108.024855 
L 116.279816 101.298707 
L 116.947146 104.661781 
L 117.621518 97.935633 
L 118.293878 108.024855 
L 118.973951 111.387929 
L 119.647652 97.935633 
L 120.99036 97.935633 
L 121.658696 87.84641 
L 122.331727 104.661781 
L 123.00241 97.935633 
L 123.676112 101.298707 
L 124.344447 97.935633 
L 125.023514 97.935633 
L 125.695874 87.84641 
L 126.369576 81.120262 
L 127.03657 71.03104 
L 127.709266 91.209485 
L 128.381626 101.298707 
L 129.051974 64.304892 
L 129.731376 64.304892 
L 130.395688 74.394114 
L 131.747114 74.394114 
L 132.422828 81.120262 
L 133.101224 67.667966 
L 134.441585 67.667966 
L 135.115957 77.757188 
L 135.785299 67.667966 
L 136.457659 67.667966 
L 137.12633 60.941818 
L 137.802714 64.304892 
L 138.477421 64.304892 
L 139.147434 67.667966 
L 139.821806 67.667966 
L 140.488801 77.757188 
L 141.162502 67.667966 
L 142.510575 67.667966 
L 143.188301 81.120262 
L 143.862338 64.304892 
L 144.532015 71.03104 
L 145.20974 67.667966 
L 145.880759 60.941818 
L 146.555131 94.572559 
L 147.230174 108.024855 
L 147.908905 97.935633 
L 148.579588 114.751003 
L 149.919278 108.024855 
L 150.59365 118.114077 
L 151.269364 108.024855 
L 151.946419 121.477151 
L 152.617437 124.840225 
L 153.286444 118.114077 
L 153.955115 91.209485 
L 155.297488 104.661781 
L 155.97186 108.024855 
L 156.650256 104.661781 
L 157.32161 104.661781 
L 158.004366 111.387929 
L 158.670689 104.661781 
L 160.018092 138.292521 
L 160.686763 148.381743 
L 161.353423 134.929447 
L 162.028465 151.744817 
L 163.375197 151.744817 
L 164.046216 148.381743 
L 164.715893 155.107891 
L 165.391271 155.107891 
L 166.065979 145.018669 
L 166.73968 151.744817 
L 167.41204 104.661781 
L 168.088089 118.114077 
L 168.752401 124.840225 
L 169.425767 138.292521 
L 170.094103 128.203299 
L 170.768139 138.292521 
L 171.443518 131.566373 
L 172.109506 121.477151 
L 172.783878 141.655595 
L 173.45825 158.470965 
L 174.132958 121.477151 
L 175.472312 128.203299 
L 176.142995 128.203299 
L 176.817032 134.929447 
L 177.485703 148.381743 
L 178.162087 128.203299 
L 178.828747 145.018669 
L 179.499095 151.744817 
L 180.172796 145.018669 
L 180.84415 155.107891 
L 181.519528 128.203299 
L 182.190882 148.381743 
L 183.529231 128.203299 
L 184.207627 138.292521 
L 184.877975 155.107891 
L 185.548323 138.292521 
L 186.222359 148.381743 
L 186.897067 138.292521 
L 187.566073 134.929447 
L 188.235415 141.655595 
L 188.904422 138.292521 
L 189.576782 111.387929 
L 190.253501 171.923261 
L 190.924185 155.107891 
L 191.598221 161.834039 
L 192.272593 161.834039 
L 192.9416 168.560187 
L 193.617984 165.197113 
L 194.292692 171.923261 
L 194.968405 161.834039 
L 196.319161 161.834039 
L 196.992527 158.470965 
L 197.663881 165.197113 
L 198.333894 161.834039 
L 199.0029 168.560187 
L 199.672578 168.560187 
L 200.344602 165.197113 
L 201.017298 158.470965 
L 202.363359 165.197113 
L 203.026329 165.197113 
L 203.701372 161.834039 
L 204.373397 165.197113 
L 205.050787 151.744817 
L 205.7208 165.197113 
L 206.396178 165.197113 
L 207.068538 158.470965 
L 207.74291 161.834039 
L 208.41091 158.470965 
L 209.081594 161.834039 
L 212.435345 161.834039 
L 213.11173 165.197113 
L 213.788114 158.470965 
L 214.457791 155.107891 
L 215.126798 148.381743 
L 215.802511 161.834039 
L 216.470512 165.197113 
L 217.143542 165.197113 
L 217.822274 158.470965 
L 218.49564 161.834039 
L 219.844384 161.834039 
L 220.514061 155.107891 
L 221.189439 158.470965 
L 222.538854 158.470965 
L 223.212555 165.197113 
L 223.891958 161.834039 
L 225.232654 161.834039 
L 225.907696 165.197113 
L 226.58408 165.197113 
L 227.256105 161.834039 
L 227.925782 155.107891 
L 228.602837 158.470965 
L 229.270167 165.197113 
L 230.612204 158.470965 
L 231.953906 158.470965 
L 233.29762 165.197113 
L 233.973334 155.107891 
L 234.649047 158.470965 
L 235.318724 165.197113 
L 235.992761 155.107891 
L 236.660426 161.834039 
L 237.335804 161.834039 
L 238.007829 158.470965 
L 238.681866 161.834039 
L 240.030945 155.107891 
L 240.704311 161.834039 
L 242.044672 155.107891 
L 243.385032 168.560187 
L 244.057728 161.834039 
L 244.731764 161.834039 
L 245.401106 158.470965 
L 246.074808 161.834039 
L 246.745826 158.470965 
L 247.424223 148.381743 
L 248.092894 155.107891 
L 248.76123 165.197113 
L 249.43426 158.470965 
L 250.103602 148.381743 
L 250.775627 151.744817 
L 251.45134 161.834039 
L 252.124371 161.834039 
L 252.803103 151.744817 
L 253.473115 155.107891 
L 254.816494 148.381743 
L 255.482818 158.470965 
L 256.153501 155.107891 
L 256.823849 158.470965 
L 257.494197 151.744817 
L 258.171587 165.197113 
L 258.844953 168.560187 
L 259.512954 158.470965 
L 260.190008 161.834039 
L 260.862704 161.834039 
L 261.543112 158.470965 
L 262.212454 161.834039 
L 262.881461 158.470965 
L 263.558515 158.470965 
L 264.229199 161.834039 
L 264.901559 161.834039 
L 265.572242 158.470965 
L 266.246614 161.834039 
L 266.924004 168.560187 
L 267.594017 148.381743 
L 268.262353 158.470965 
L 268.93203 161.834039 
L 269.612103 161.834039 
L 270.280103 155.107891 
L 270.957494 158.470965 
L 271.624823 141.655595 
L 272.965855 168.560187 
L 273.644251 165.197113 
L 274.314934 165.197113 
L 274.988971 161.834039 
L 275.65563 161.834039 
L 276.336374 158.470965 
L 277.004039 151.744817 
L 277.67707 165.197113 
L 278.346076 161.834039 
L 279.017765 168.560187 
L 279.691131 161.834039 
L 280.362821 161.834039 
L 281.036522 148.381743 
L 281.70687 148.381743 
L 282.376883 161.834039 
L 283.047231 158.470965 
L 284.388933 165.197113 
L 285.060622 161.834039 
L 285.731641 168.560187 
L 286.402995 168.560187 
L 287.074684 161.834039 
L 288.418398 161.834039 
L 289.090758 168.560187 
L 289.761106 148.381743 
L 290.440173 165.197113 
L 291.107167 148.381743 
L 291.778857 124.840225 
L 292.452893 151.744817 
L 293.126595 151.744817 
L 293.796943 134.929447 
L 294.46662 134.929447 
L 295.140657 165.197113 
L 295.808993 161.834039 
L 296.477664 161.834039 
L 297.150359 165.197113 
L 297.817689 158.470965 
L 299.160062 165.197113 
L 299.83544 141.655595 
L 300.510147 171.923261 
L 301.180495 151.744817 
L 301.855873 151.744817 
L 302.526556 124.840225 
L 303.193886 145.018669 
L 303.866917 128.203299 
L 304.54263 124.840225 
L 305.208954 128.203299 
L 305.88232 124.840225 
L 307.226705 124.840225 
L 307.904431 121.477151 
L 308.573772 165.197113 
L 309.24412 168.560187 
L 309.913798 118.114077 
L 310.586828 138.292521 
L 311.261871 128.203299 
L 311.928195 128.203299 
L 312.601226 145.018669 
L 313.269562 155.107891 
L 313.943934 148.381743 
L 314.615958 145.018669 
L 315.29033 148.381743 
L 315.966044 141.655595 
L 316.636056 168.560187 
L 317.310428 158.470965 
L 317.983794 161.834039 
L 318.654813 151.744817 
L 319.325161 151.744817 
L 320.003557 161.834039 
L 320.673235 151.744817 
L 321.338888 161.834039 
L 322.015272 155.107891 
L 322.688302 165.197113 
L 324.036711 158.470965 
L 324.705718 161.834039 
L 325.378078 131.566373 
L 326.049097 161.834039 
L 326.719444 145.018669 
L 327.395829 155.107891 
L 328.070536 161.834039 
L 329.416597 168.560187 
L 330.076214 168.560187 
L 330.749245 134.929447 
L 331.424958 151.744817 
L 332.094971 155.107891 
L 332.767331 161.834039 
L 333.442039 138.292521 
L 334.111716 165.197113 
L 334.78374 168.560187 
L 335.46549 158.470965 
L 336.136844 158.470965 
L 336.812222 151.744817 
L 337.48257 168.560187 
L 338.161302 128.203299 
L 338.828967 151.744817 
L 339.500991 145.018669 
L 340.173016 134.929447 
L 340.846382 151.744817 
L 341.52612 145.018669 
L 342.19848 158.470965 
L 342.866145 168.560187 
L 343.534481 128.203299 
L 344.206841 134.929447 
L 344.875847 148.381743 
L 345.549549 148.381743 
L 346.221238 145.018669 
L 346.900305 151.744817 
L 347.574677 151.744817 
L 348.24536 145.018669 
L 348.924427 151.744817 
L 349.59511 128.203299 
L 350.275183 138.292521 
L 350.942513 155.107891 
L 351.615544 138.292521 
L 352.286563 151.744817 
L 352.958587 141.655595 
L 353.633965 148.381743 
L 354.302301 131.566373 
L 354.971643 155.107891 
L 355.651716 148.381743 
L 356.32307 138.292521 
L 357.666113 151.744817 
L 358.339479 138.292521 
L 359.013851 141.655595 
L 359.687888 121.477151 
L 360.362931 145.018669 
L 361.035626 155.107891 
L 361.707651 145.018669 
L 362.381688 138.292521 
L 363.056395 145.018669 
L 363.727749 155.107891 
L 364.401786 134.929447 
L 365.076158 148.381743 
L 365.746506 138.292521 
L 366.417524 138.292521 
L 367.088878 155.107891 
L 368.432592 148.381743 
L 369.1073 155.107891 
L 369.781672 131.566373 
L 370.450678 158.470965 
L 371.129745 161.834039 
L 371.805123 155.107891 
L 372.479831 141.655595 
L 373.822874 141.655595 
L 374.493557 151.744817 
L 375.168265 148.381743 
L 375.845319 151.744817 
L 376.515667 151.744817 
L 377.185009 145.018669 
L 377.857369 161.834039 
L 378.526376 148.381743 
L 379.195718 145.018669 
L 379.867072 128.203299 
L 380.546474 158.470965 
L 381.212463 141.655595 
L 381.887505 151.744817 
L 382.556847 158.470965 
L 383.225183 155.107891 
L 383.899555 148.381743 
L 384.573927 155.107891 
L 385.244946 148.381743 
L 386.583294 148.381743 
L 387.261355 151.744817 
L 387.931368 141.655595 
L 388.600374 124.840225 
L 389.272064 155.107891 
L 389.942747 138.292521 
L 391.286461 151.744817 
L 391.960498 141.655595 
L 392.62984 134.929447 
L 393.30723 141.655595 
L 393.975566 138.292521 
L 395.320286 138.292521 
L 395.988286 158.470965 
L 397.33636 145.018669 
L 398.009055 134.929447 
L 398.679068 128.203299 
L 399.352769 141.655595 
L 400.027812 134.929447 
L 400.699837 148.381743 
L 401.369178 158.470965 
L 402.039862 141.655595 
L 402.715575 151.744817 
L 404.058619 138.292521 
L 404.731985 158.470965 
L 405.406021 134.929447 
L 406.074022 145.018669 
L 406.748059 151.744817 
L 407.415388 134.929447 
L 408.092443 155.107891 
L 408.762791 145.018669 
L 409.444876 145.018669 
L 410.114889 141.655595 
L 410.788925 148.381743 
L 411.458267 141.655595 
L 412.129621 155.107891 
L 412.799969 128.203299 
L 413.475012 165.197113 
L 414.155085 161.834039 
L 414.829122 175.286336 
L 415.497458 161.834039 
L 416.843184 168.560187 
L 420.204313 168.560187 
L 420.878685 161.834039 
L 421.550374 168.560187 
L 422.220052 161.834039 
L 422.899118 168.560187 
L 423.57349 168.560187 
L 424.249875 165.197113 
L 424.91754 168.560187 
L 425.592583 158.470965 
L 426.266955 151.744817 
L 426.940656 168.560187 
L 427.618717 161.834039 
L 428.96612 161.834039 
L 429.641162 168.560187 
L 430.311846 168.560187 
L 431.657907 155.107891 
L 432.326914 165.197113 
L 433.003298 161.834039 
L 434.348688 168.560187 
L 435.01736 168.560187 
L 436.35705 161.834039 
L 437.033769 165.197113 
L 437.709482 161.834039 
L 438.37983 165.197113 
L 439.054538 161.834039 
L 439.727904 165.197113 
L 440.397916 171.923261 
L 441.067594 155.107891 
L 442.40829 168.560187 
L 443.08132 168.560187 
L 443.754016 161.834039 
L 444.430064 168.560187 
L 445.102424 161.834039 
L 445.774784 161.834039 
L 446.445803 165.197113 
L 447.788511 158.470965 
L 448.470261 161.834039 
L 449.135243 151.744817 
L 449.814645 161.834039 
L 450.490694 168.560187 
L 451.159365 165.197113 
L 451.836085 168.560187 
L 452.506768 165.197113 
L 453.180805 151.744817 
L 453.853165 161.834039 
L 454.528208 155.107891 
L 455.864209 168.560187 
L 456.538245 161.834039 
L 457.213959 168.560187 
L 457.8776 165.197113 
L 458.557337 165.197113 
L 459.227685 151.744817 
L 459.899375 158.470965 
L 460.569723 168.560187 
L 461.242418 148.381743 
L 461.917125 158.470965 
L 462.591497 161.834039 
L 464.611596 141.655595 
L 465.964364 161.834039 
L 466.640077 155.107891 
L 467.98245 148.381743 
L 469.329517 161.834039 
L 470.004895 158.470965 
L 470.668201 161.834039 
L 471.343244 114.751003 
L 472.015604 128.203299 
L 472.687964 151.744817 
L 473.364013 148.381743 
L 474.032684 118.114077 
L 474.707391 155.107891 
L 475.384781 158.470965 
L 476.051776 155.107891 
L 476.721789 158.470965 
L 477.394149 151.744817 
L 478.063155 158.470965 
L 478.738869 158.470965 
L 480.092643 165.197113 
L 480.758296 161.834039 
L 481.431327 165.197113 
L 482.108382 165.197113 
L 482.777388 161.834039 
L 484.793127 161.834039 
L 485.462133 158.470965 
L 486.137847 161.834039 
L 486.81356 151.744817 
L 487.484244 155.107891 
L 488.151909 161.834039 
L 488.826616 155.107891 
L 489.496629 151.744817 
L 490.180055 134.929447 
L 490.839337 158.470965 
L 491.518404 165.197113 
L 492.188752 158.470965 
L 492.863794 161.834039 
L 493.533807 161.834039 
L 494.210526 141.655595 
L 494.890599 131.566373 
L 495.559941 141.655595 
L 496.229618 134.929447 
L 496.907679 151.744817 
L 497.575344 118.114077 
L 498.24804 141.655595 
L 498.928448 141.655595 
L 499.597455 145.018669 
L 500.267467 145.018669 
L 500.940498 151.744817 
L 501.614199 148.381743 
L 502.281529 165.197113 
L 502.960931 158.470965 
L 503.62692 148.381743 
L 504.302969 158.470965 
L 504.97667 104.661781 
L 505.64903 145.018669 
L 506.323067 118.114077 
L 506.998445 134.929447 
L 507.672146 128.203299 
L 509.018543 148.381743 
L 509.697274 148.381743 
L 510.363934 108.024855 
L 511.030593 155.107891 
L 511.708318 168.560187 
L 512.381684 168.560187 
L 513.048679 175.286336 
L 514.396752 168.560187 
L 515.066094 171.923261 
L 515.733089 168.560187 
L 516.408802 175.286336 
L 517.084516 161.834039 
L 517.752181 161.834039 
L 518.420852 171.923261 
L 519.102266 168.560187 
L 519.765907 161.834039 
L 520.442962 158.470965 
L 521.11264 158.470965 
L 521.789024 168.560187 
L 522.463731 168.560187 
L 523.132402 158.470965 
L 523.809792 168.560187 
L 524.4845 175.286336 
L 525.160549 161.834039 
L 525.840621 161.834039 
L 526.506275 171.923261 
L 527.179976 161.834039 
L 527.851665 158.470965 
L 529.191691 165.197113 
L 529.866733 158.470965 
L 530.544123 155.107891 
L 531.219166 158.470965 
L 531.885825 165.197113 
L 532.557515 168.560187 
L 533.226857 165.197113 
L 533.905253 158.470965 
L 534.575601 168.560187 
L 535.250308 158.470965 
L 535.925686 161.834039 
L 536.600058 158.470965 
L 537.94176 165.197113 
L 538.610431 155.107891 
L 539.951463 161.834039 
L 540.624829 161.834039 
L 541.298865 158.470965 
L 541.974244 165.197113 
L 542.644592 161.834039 
L 543.316281 168.560187 
L 544.658318 161.834039 
L 545.329001 165.197113 
L 546.003038 161.834039 
L 547.347423 161.834039 
L 548.021795 155.107891 
L 548.692143 155.107891 
L 549.36685 168.560187 
L 550.038875 158.470965 
L 551.381583 165.197113 
L 552.05126 165.197113 
L 552.722279 161.834039 
L 553.400004 168.560187 
L 554.069346 161.834039 
L 555.420102 161.834039 
L 556.094139 158.470965 
L 556.761804 161.834039 
L 557.431482 161.834039 
L 558.100824 158.470965 
L 559.447891 165.197113 
L 560.116898 155.107891 
L 560.792611 161.834039 
L 561.461953 165.197113 
L 562.130959 165.197113 
L 562.806338 158.470965 
L 563.477021 158.470965 
L 564.822747 165.197113 
L 565.491418 161.834039 
L 566.171156 165.197113 
L 566.844857 161.834039 
L 567.513528 155.107891 
L 568.184547 161.834039 
L 570.87164 161.834039 
L 571.546012 155.107891 
L 572.894756 161.834039 
L 573.568457 155.107891 
L 574.243835 151.744817 
L 574.923237 158.470965 
L 575.593585 158.470965 
L 576.263598 165.197113 
L 577.604965 158.470965 
L 578.277325 124.840225 
L 578.945996 138.292521 
L 579.616679 138.292521 
L 580.284344 151.744817 
L 580.957375 145.018669 
L 581.626046 121.477151 
L 582.300754 131.566373 
L 582.971772 118.114077 
L 583.641114 151.744817 
L 584.310456 138.292521 
L 584.980133 158.470965 
L 585.653499 161.834039 
L 586.331896 161.834039 
L 587.005597 155.107891 
L 587.676951 158.470965 
L 588.352664 148.381743 
L 589.022342 161.834039 
L 589.691348 158.470965 
L 590.363708 158.470965 
L 591.033386 161.834039 
L 592.3771 161.834039 
L 593.042082 155.107891 
L 593.717125 131.566373 
L 594.388814 141.655595 
L 595.056815 148.381743 
L 595.731522 134.929447 
L 596.404888 155.107891 
L 597.074565 141.655595 
L 597.750279 141.655595 
L 598.415597 155.107891 
L 599.095334 161.834039 
L 599.772724 158.470965 
L 600.443743 168.560187 
L 601.115097 128.203299 
L 601.788463 148.381743 
L 602.461494 141.655595 
L 603.13486 151.744817 
L 603.809567 138.292521 
L 604.481927 141.655595 
L 605.156299 151.744817 
L 605.830671 134.929447 
L 606.503367 151.744817 
L 609.199849 165.197113 
L 609.871203 151.744817 
L 610.542221 155.107891 
L 611.212234 165.197113 
L 611.883253 161.834039 
L 612.555277 148.381743 
L 613.22529 145.018669 
L 613.892285 155.107891 
L 615.905005 165.197113 
L 616.579377 161.834039 
L 617.248048 161.834039 
L 617.922756 168.560187 
L 618.590086 124.840225 
L 619.259763 155.107891 
L 620.604818 148.381743 
L 621.275166 148.381743 
L 621.946185 138.292521 
L 622.620557 145.018669 
L 623.289899 138.292521 
L 623.967624 148.381743 
L 624.641996 141.655595 
L 625.318045 121.477151 
L 625.986046 161.834039 
L 626.660753 158.470965 
L 627.333784 165.197113 
L 628.011509 158.470965 
L 628.688899 168.560187 
L 629.353882 128.203299 
L 630.034626 158.470965 
L 630.703967 161.834039 
L 631.37901 158.470965 
L 632.04634 168.560187 
L 632.721047 161.834039 
L 634.062079 168.560187 
L 635.405122 168.560187 
L 636.081506 134.929447 
L 636.749507 161.834039 
L 637.426226 155.107891 
L 638.098586 134.929447 
L 638.77497 148.381743 
L 639.450684 148.381743 
L 640.11969 134.929447 
L 640.78702 138.292521 
L 641.460722 134.929447 
L 642.135094 128.203299 
L 642.803765 128.203299 
L 643.476125 155.107891 
L 644.151168 155.107891 
L 644.824534 158.470965 
L 645.5036 118.114077 
L 646.17026 145.018669 
L 646.84329 141.655595 
L 647.513303 134.929447 
L 648.183316 134.929447 
L 648.851987 141.655595 
L 649.52267 158.470965 
L 650.196372 148.381743 
L 650.864037 118.114077 
L 651.539079 108.024855 
L 652.209092 158.470965 
L 652.87944 161.834039 
L 654.223825 155.107891 
L 654.899203 141.655595 
L 655.57391 155.107891 
L 656.247276 165.197113 
L 656.920307 158.470965 
L 658.267039 165.197113 
L 659.615112 165.197113 
L 660.281101 161.834039 
L 660.954467 161.834039 
L 661.627162 168.560187 
L 662.299858 168.560187 
L 662.976577 161.834039 
L 663.649273 161.834039 
L 664.322974 124.840225 
L 664.996675 134.929447 
L 665.669035 165.197113 
L 666.348102 165.197113 
L 667.024822 161.834039 
L 667.697852 165.197113 
L 668.368871 161.834039 
L 669.041902 168.560187 
L 670.38461 161.834039 
L 671.059652 161.834039 
L 671.725641 165.197113 
L 672.399342 165.197113 
L 673.069355 161.834039 
L 674.421452 168.560187 
L 675.084087 158.470965 
L 675.757453 168.560187 
L 676.429813 161.834039 
L 677.105192 165.197113 
L 678.456618 158.470965 
L 679.131326 161.834039 
L 680.478393 161.834039 
L 681.1474 158.470965 
L 681.82043 158.470965 
L 683.170516 165.197113 
L 683.838181 165.197113 
L 684.512218 161.834039 
L 686.526615 161.834039 
L 687.202329 165.197113 
L 687.871671 165.197113 
L 688.54336 158.470965 
L 689.221085 161.834039 
L 691.236153 161.834039 
L 691.907843 155.107891 
L 692.576849 161.834039 
L 693.250551 148.381743 
L 693.921234 161.834039 
L 697.950699 161.834039 
L 698.620041 158.470965 
L 699.294078 161.834039 
L 699.975157 158.470965 
L 700.644499 161.834039 
L 701.323901 158.470965 
L 701.988213 158.470965 
L 703.338298 165.197113 
L 704.007305 165.197113 
L 704.68503 161.834039 
L 706.713512 161.834039 
L 707.380171 158.470965 
L 708.054878 161.834039 
L 711.406954 161.834039 
L 712.079984 165.197113 
L 712.746979 165.197113 
L 713.420345 124.840225 
L 714.097064 124.840225 
L 714.763724 155.107891 
L 715.436754 161.834039 
L 716.107773 161.834039 
L 716.776444 165.197113 
L 717.451151 161.834039 
L 718.792518 161.834039 
L 719.473932 158.470965 
L 720.149981 161.834039 
L 724.8508 161.834039 
L 725.523831 158.470965 
L 726.862515 165.197113 
L 727.53454 161.834039 
L 728.207906 151.744817 
L 728.883284 165.197113 
L 729.556985 165.197113 
L 730.899022 151.744817 
L 732.244748 165.197113 
L 732.921132 158.470965 
L 733.592151 158.470965 
L 735.60856 168.560187 
L 736.281256 155.107891 
L 736.949592 158.470965 
L 737.621616 158.470965 
L 738.290958 151.744817 
L 738.969019 161.834039 
L 739.645068 158.470965 
L 740.319105 168.560187 
L 740.993812 161.834039 
L 741.666843 161.834039 
L 742.334508 168.560187 
L 743.006868 158.470965 
L 743.680569 161.834039 
L 744.34857 158.470965 
L 745.020595 161.834039 
L 745.696643 158.470965 
L 746.365985 165.197113 
L 747.034321 155.107891 
L 747.704334 155.107891 
L 748.375688 118.114077 
L 749.050731 131.566373 
L 749.719402 148.381743 
L 750.389414 161.834039 
L 751.061104 161.834039 
L 751.731116 158.470965 
L 752.403476 165.197113 
L 753.073824 161.834039 
L 753.749202 165.197113 
L 754.41888 161.834039 
L 755.75421 148.381743 
L 756.427576 161.834039 
L 757.096583 161.834039 
L 757.771625 155.107891 
L 758.436273 161.834039 
L 759.115004 161.834039 
L 759.791053 165.197113 
L 761.134432 165.197113 
L 761.810145 161.834039 
L 762.480158 165.197113 
L 763.830578 165.197113 
L 764.503944 158.470965 
L 765.173286 161.834039 
L 768.54347 161.834039 
L 769.211806 165.197113 
L 770.555184 158.470965 
L 771.226203 161.834039 
L 771.899569 158.470965 
L 772.576289 161.834039 
L 775.268747 161.834039 
L 775.93943 165.197113 
L 776.618162 155.107891 
L 777.287503 165.197113 
L 777.956845 165.197113 
L 778.626187 161.834039 
L 779.296535 165.197113 
L 779.97359 165.197113 
L 780.646956 158.470965 
L 781.991341 165.197113 
L 782.656994 165.197113 
L 783.328348 158.470965 
L 784.000708 161.834039 
L 784.671056 161.834039 
L 785.341069 158.470965 
L 786.016111 161.834039 
L 786.686124 155.107891 
L 787.362508 161.834039 
L 788.035203 158.470965 
L 788.710581 161.834039 
L 789.378247 161.834039 
L 790.05396 155.107891 
L 790.730009 165.197113 
L 791.401027 165.197113 
L 792.073387 158.470965 
L 792.751784 165.197113 
L 793.421796 161.834039 
L 794.094492 161.834039 
L 794.769199 158.470965 
L 795.442565 151.744817 
L 796.110901 161.834039 
L 796.781584 161.834039 
L 797.453274 165.197113 
L 798.125969 165.197113 
L 798.794976 161.834039 
L 799.467 165.197113 
L 800.138019 155.107891 
L 800.805013 161.834039 
L 801.482068 145.018669 
L 802.15644 118.114077 
L 802.835842 148.381743 
L 803.503508 141.655595 
L 804.180562 158.470965 
L 804.859965 165.197113 
L 805.524276 161.834039 
L 806.198313 161.834039 
L 806.867655 158.470965 
L 807.543368 161.834039 
L 808.218747 161.834039 
L 808.890436 158.470965 
L 809.560784 165.197113 
L 810.237168 161.834039 
L 811.586583 161.834039 
L 812.258272 148.381743 
L 812.927279 165.197113 
L 813.596956 165.197113 
L 814.271328 158.470965 
L 814.95006 158.470965 
L 815.621413 165.197113 
L 816.299139 165.197113 
L 817.641512 158.470965 
L 818.312195 158.470965 
L 818.983884 165.197113 
L 819.655238 158.470965 
L 820.323574 161.834039 
L 820.997611 161.834039 
L 821.668965 155.107891 
L 822.340319 151.744817 
L 823.017374 161.834039 
L 824.365447 161.834039 
L 825.040825 165.197113 
L 825.709832 155.107891 
L 826.382527 161.834039 
L 827.051869 165.197113 
L 827.726241 165.197113 
L 828.393236 158.470965 
L 829.065931 161.834039 
L 830.402938 155.107891 
L 831.074627 161.834039 
L 831.74967 161.834039 
L 832.424713 158.470965 
L 833.770104 165.197113 
L 834.441122 161.834039 
L 835.111806 165.197113 
L 835.7788 161.834039 
L 836.456526 165.197113 
L 837.801246 151.744817 
L 838.475282 158.470965 
L 839.147307 161.834039 
L 839.816649 148.381743 
L 840.489009 151.744817 
L 841.164387 161.834039 
L 841.831382 161.834039 
L 842.507095 155.107891 
L 843.173083 161.834039 
L 844.51445 161.834039 
L 845.186475 158.470965 
L 845.861182 161.834039 
L 846.539243 161.834039 
L 847.210262 158.470965 
L 847.878262 161.834039 
L 850.571056 161.834039 
L 851.243751 165.197113 
L 852.591154 158.470965 
L 853.267202 161.834039 
L 853.267202 161.834039 
" clip-path="url(#pa3fb6b54dd)" style="fill: none; stroke: #e74c3c; stroke-width: 2; stroke-linecap: square"/>
   </g>
   <g id="patch_3">
    <path d="M 53.75 387.16 
L 53.75 28.32 
" style="fill: none; stroke: #000000; stroke-width: 0.8; stroke-linejoin: miter; stroke-linecap: square"/>
   </g>
   <g id="patch_4">
    <path d="M 853.2 387.16 
L 853.2 28.32 
" style="fill: none; stroke: #000000; stroke-width: 0.8; stroke-linejoin: miter; stroke-linecap: square"/>
   </g>
   <g id="patch_5">
    <path d="M 53.75 387.16 
L 853.2 387.16 
" style="fill: none; stroke: #000000; stroke-width: 0.8; stroke-linejoin: miter; stroke-linecap: square"/>
   </g>
   <g id="patch_6">
    <path d="M 53.75 28.32 
L 853.2 28.32 
" style="fill: none; stroke: #000000; stroke-width: 0.8; stroke-linejoin: miter; stroke-linecap: square"/>
   </g>
   <g id="text_17">
    <!-- CPU package temperature over time -->
    <g transform="translate(288.98125 22.32) scale(0.16 -0.16)">
     <defs>
      <path id="DejaVuSans-Bold-43" d="M 4288 256 
Q 3956 84 3597 -3 
Q 3238 -91 2847 -91 
Q 1681 -91 1000 561 
Q 319 1213 319 2328 
Q 319 3447 1000 4098 
Q 1681 4750 2847 4750 
Q 3238 4750 3597 4662 
Q 3956 4575 4288 4403 
L 4288 3438 
Q 3953 3666 3628 3772 
Q 3303 3878 2944 3878 
Q 2300 3878 1931 3465 
Q 1563 3053 1563 2328 
Q 1563 1606 1931 1193 
Q 2300 781 2944 781 
Q 3303 781 3628 887 
Q 3953 994 4288 1222 
L 4288 256 
z
" transform="scale(0.015625)"/>
      <path id="DejaVuSans-Bold-50" d="M 588 4666 
L 2584 4666 
Q 3475 4666 3951 4270 
Q 4428 3875 4428 3144 
Q 4428 2409 3951 2014 
Q 3475 1619 2584 1619 
L 1791 1619 
L 1791 0 
L 588 0 
L 588 4666 
z
M 1791 3794 
L 1791 2491 
L 2456 2491 
Q 2806 2491 2997 2661 
Q 3188 2831 3188 3144 
Q 3188 3456 2997 3625 
Q 2806 3794 2456 3794 
L 1791 3794 
z
" transform="scale(0.015625)"/>
      <path id="DejaVuSans-Bold-55" d="M 588 4666 
L 1791 4666 
L 1791 1869 
Q 1791 1291 1980 1042 
Q 2169 794 2597 794 
Q 3028 794 3217 1042 
Q 3406 1291 3406 1869 
L 3406 4666 
L 4609 4666 
L 4609 1869 
Q 4609 878 4112 393 
Q 3616 -91 2597 -91 
Q 1581 -91 1084 393 
Q 588 878 588 1869 
L 588 4666 
z
" transform="scale(0.015625)"/>
      <path id="DejaVuSans-Bold-20" transform="scale(0.015625)"/>
      <path id="DejaVuSans-Bold-70" d="M 1656 506 
L 1656 -1331 
L 538 -1331 
L 538 3500 
L 1656 3500 
L 1656 2988 
Q 1888 3294 2169 3439 
Q 2450 3584 2816 3584 
Q 3463 3584 3878 3070 
Q 4294 2556 4294 1747 
Q 4294 938 3878 423 
Q 3463 -91 2816 -91 
Q 2450 -91 2169 54 
Q 1888 200 1656 506 
z
M 2400 2772 
Q 2041 2772 1848 2508 
Q 1656 2244 1656 1747 
Q 1656 1250 1848 986 
Q 2041 722 2400 722 
Q 2759 722 2948 984 
Q 3138 1247 3138 1747 
Q 3138 2247 2948 2509 
Q 2759 2772 2400 2772 
z
" transform="scale(0.015625)"/>
      <path id="DejaVuSans-Bold-61" d="M 2106 1575 
Q 1756 1575 1579 1456 
Q 1403 1338 1403 1106 
Q 1403 894 1545 773 
Q 1688 653 1941 653 
Q 2256 653 2472 879 
Q 2688 1106 2688 1447 
L 2688 1575 
L 2106 1575 
z
M 3816 1997 
L 3816 0 
L 2688 0 
L 2688 519 
Q 2463 200 2181 54 
Q 1900 -91 1497 -91 
Q 953 -91 614 226 
Q 275 544 275 1050 
Q 275 1666 698 1953 
Q 1122 2241 2028 2241 
L 2688 2241 
L 2688 2328 
Q 2688 2594 2478 2717 
Q 2269 2841 1825 2841 
Q 1466 2841 1156 2769 
Q 847 2697 581 2553 
L 581 3406 
Q 941 3494 1303 3539 
Q 1666 3584 2028 3584 
Q 2975 3584 3395 3211 
Q 3816 2838 3816 1997 
z
" transform="scale(0.015625)"/>
      <path id="DejaVuSans-Bold-63" d="M 3366 3391 
L 3366 2478 
Q 3138 2634 2908 2709 
Q 2678 2784 2431 2784 
Q 1963 2784 1702 2511 
Q 1441 2238 1441 1747 
Q 1441 1256 1702 982 
Q 1963 709 2431 709 
Q 2694 709 2930 787 
Q 3166 866 3366 1019 
L 3366 103 
Q 3103 6 2833 -42 
Q 2563 -91 2291 -91 
Q 1344 -91 809 395 
Q 275 881 275 1747 
Q 275 2613 809 3098 
Q 1344 3584 2291 3584 
Q 2566 3584 2833 3536 
Q 3100 3488 3366 3391 
z
" transform="scale(0.015625)"/>
      <path id="DejaVuSans-Bold-6b" d="M 538 4863 
L 1656 4863 
L 1656 2216 
L 2944 3500 
L 4244 3500 
L 2534 1894 
L 4378 0 
L 3022 0 
L 1656 1459 
L 1656 0 
L 538 0 
L 538 4863 
z
" transform="scale(0.015625)"/>
      <path id="DejaVuSans-Bold-67" d="M 2919 594 
Q 2688 288 2409 144 
Q 2131 0 1766 0 
Q 1125 0 706 504 
Q 288 1009 288 1791 
Q 288 2575 706 3076 
Q 1125 3578 1766 3578 
Q 2131 3578 2409 3434 
Q 2688 3291 2919 2981 
L 2919 3500 
L 4044 3500 
L 4044 353 
Q 4044 -491 3511 -936 
Q 2978 -1381 1966 -1381 
Q 1638 -1381 1331 -1331 
Q 1025 -1281 716 -1178 
L 716 -306 
Q 1009 -475 1290 -558 
Q 1572 -641 1856 -641 
Q 2406 -641 2662 -400 
Q 2919 -159 2919 353 
L 2919 594 
z
M 2181 2772 
Q 1834 2772 1640 2515 
Q 1447 2259 1447 1791 
Q 1447 1309 1634 1061 
Q 1822 813 2181 813 
Q 2531 813 2725 1069 
Q 2919 1325 2919 1791 
Q 2919 2259 2725 2515 
Q 2531 2772 2181 2772 
z
" transform="scale(0.015625)"/>
      <path id="DejaVuSans-Bold-65" d="M 4031 1759 
L 4031 1441 
L 1416 1441 
Q 1456 1047 1700 850 
Q 1944 653 2381 653 
Q 2734 653 3104 758 
Q 3475 863 3866 1075 
L 3866 213 
Q 3469 63 3072 -14 
Q 2675 -91 2278 -91 
Q 1328 -91 801 392 
Q 275 875 275 1747 
Q 275 2603 792 3093 
Q 1309 3584 2216 3584 
Q 3041 3584 3536 3087 
Q 4031 2591 4031 1759 
z
M 2881 2131 
Q 2881 2450 2695 2645 
Q 2509 2841 2209 2841 
Q 1884 2841 1681 2658 
Q 1478 2475 1428 2131 
L 2881 2131 
z
" transform="scale(0.015625)"/>
      <path id="DejaVuSans-Bold-74" d="M 1759 4494 
L 1759 3500 
L 2913 3500 
L 2913 2700 
L 1759 2700 
L 1759 1216 
Q 1759 972 1856 886 
Q 1953 800 2241 800 
L 2816 800 
L 2816 0 
L 1856 0 
Q 1194 0 917 276 
Q 641 553 641 1216 
L 641 2700 
L 84 2700 
L 84 3500 
L 641 3500 
L 641 4494 
L 1759 4494 
z
" transform="scale(0.015625)"/>
      <path id="DejaVuSans-Bold-6d" d="M 3781 2919 
Q 3994 3244 4286 3414 
Q 4578 3584 4928 3584 
Q 5531 3584 5847 3212 
Q 6163 2841 6163 2131 
L 6163 0 
L 5038 0 
L 5038 1825 
Q 5041 1866 5042 1909 
Q 5044 1953 5044 2034 
Q 5044 2406 4934 2573 
Q 4825 2741 4581 2741 
Q 4263 2741 4089 2478 
Q 3916 2216 3909 1719 
L 3909 0 
L 2784 0 
L 2784 1825 
Q 2784 2406 2684 2573 
Q 2584 2741 2328 2741 
Q 2006 2741 1831 2477 
Q 1656 2213 1656 1722 
L 1656 0 
L 531 0 
L 531 3500 
L 1656 3500 
L 1656 2988 
Q 1863 3284 2130 3434 
Q 2397 3584 2719 3584 
Q 3081 3584 3359 3409 
Q 3638 3234 3781 2919 
z
" transform="scale(0.015625)"/>
      <path id="DejaVuSans-Bold-72" d="M 3138 2547 
Q 2991 2616 2845 2648 
Q 2700 2681 2553 2681 
Q 2122 2681 1889 2404 
Q 1656 2128 1656 1613 
L 1656 0 
L 538 0 
L 538 3500 
L 1656 3500 
L 1656 2925 
Q 1872 3269 2151 3426 
Q 2431 3584 2822 3584 
Q 2878 3584 2943 3579 
Q 3009 3575 3134 3559 
L 3138 2547 
z
" transform="scale(0.015625)"/>
      <path id="DejaVuSans-Bold-75" d="M 500 1363 
L 500 3500 
L 1625 3500 
L 1625 3150 
Q 1625 2866 1622 2436 
Q 1619 2006 1619 1863 
Q 1619 1441 1641 1255 
Q 1663 1069 1716 984 
Q 1784 875 1895 815 
Q 2006 756 2150 756 
Q 2500 756 2700 1025 
Q 2900 1294 2900 1772 
L 2900 3500 
L 4019 3500 
L 4019 0 
L 2900 0 
L 2900 506 
Q 2647 200 2364 54 
Q 2081 -91 1741 -91 
Q 1134 -91 817 281 
Q 500 653 500 1363 
z
" transform="scale(0.015625)"/>
      <path id="DejaVuSans-Bold-6f" d="M 2203 2784 
Q 1831 2784 1636 2517 
Q 1441 2250 1441 1747 
Q 1441 1244 1636 976 
Q 1831 709 2203 709 
Q 2569 709 2762 976 
Q 2956 1244 2956 1747 
Q 2956 2250 2762 2517 
Q 2569 2784 2203 2784 
z
M 2203 3584 
Q 3106 3584 3614 3096 
Q 4122 2609 4122 1747 
Q 4122 884 3614 396 
Q 3106 -91 2203 -91 
Q 1297 -91 786 396 
Q 275 884 275 1747 
Q 275 2609 786 3096 
Q 1297 3584 2203 3584 
z
" transform="scale(0.015625)"/>
      <path id="DejaVuSans-Bold-76" d="M 97 3500 
L 1216 3500 
L 2088 1081 
L 2956 3500 
L 4078 3500 
L 2700 0 
L 1472 0 
L 97 3500 
z
" transform="scale(0.015625)"/>
      <path id="DejaVuSans-Bold-69" d="M 538 3500 
L 1656 3500 
L 1656 0 
L 538 0 
L 538 3500 
z
M 538 4863 
L 1656 4863 
L 1656 3950 
L 538 3950 
L 538 4863 
z
" transform="scale(0.015625)"/>
     </defs>
     <use xlink:href="#DejaVuSans-Bold-43"/>
     <use xlink:href="#DejaVuSans-Bold-50" x="73.388672"/>
     <use xlink:href="#DejaVuSans-Bold-55" x="146.679688"/>
     <use xlink:href="#DejaVuSans-Bold-20" x="227.880859"/>
     <use xlink:href="#DejaVuSans-Bold-70" x="262.695312"/>
     <use xlink:href="#DejaVuSans-Bold-61" x="334.277344"/>
     <use xlink:href="#DejaVuSans-Bold-63" x="401.757812"/>
     <use xlink:href="#DejaVuSans-Bold-6b" x="461.035156"/>
     <use xlink:href="#DejaVuSans-Bold-61" x="527.539062"/>
     <use xlink:href="#DejaVuSans-Bold-67" x="595.019531"/>
     <use xlink:href="#DejaVuSans-Bold-65" x="666.601562"/>
     <use xlink:href="#DejaVuSans-Bold-20" x="734.423828"/>
     <use xlink:href="#DejaVuSans-Bold-74" x="769.238281"/>
     <use xlink:href="#DejaVuSans-Bold-65" x="817.041016"/>
     <use xlink:href="#DejaVuSans-Bold-6d" x="884.863281"/>
     <use xlink:href="#DejaVuSans-Bold-70" x="989.0625"/>
     <use xlink:href="#DejaVuSans-Bold-65" x="1060.644531"/>
     <use xlink:href="#DejaVuSans-Bold-72" x="1128.466797"/>
     <use xlink:href="#DejaVuSans-Bold-61" x="1177.783203"/>
     <use xlink:href="#DejaVuSans-Bold-74" x="1245.263672"/>
     <use xlink:href="#DejaVuSans-Bold-75" x="1293.066406"/>
     <use xlink:href="#DejaVuSans-Bold-72" x="1364.257812"/>
     <use xlink:href="#DejaVuSans-Bold-65" x="1413.574219"/>
     <use xlink:href="#DejaVuSans-Bold-20" x="1481.396484"/>
     <use xlink:href="#DejaVuSans-Bold-6f" x="1516.210938"/>
     <use xlink:href="#DejaVuSans-Bold-76" x="1584.912109"/>
     <use xlink:href="#DejaVuSans-Bold-65" x="1650.097656"/>
     <use xlink:href="#DejaVuSans-Bold-72" x="1717.919922"/>
     <use xlink:href="#DejaVuSans-Bold-20" x="1767.236328"/>
     <use xlink:href="#DejaVuSans-Bold-74" x="1802.050781"/>
     <use xlink:href="#DejaVuSans-Bold-69" x="1849.853516"/>
     <use xlink:href="#DejaVuSans-Bold-6d" x="1884.130859"/>
     <use xlink:href="#DejaVuSans-Bold-65" x="1988.330078"/>
    </g>
   </g>
   <g id="legend_1">
    <g id="patch_7">
     <path d="M 707.0875 67.67625 
L 848.2 67.67625 
Q 850.2 67.67625 850.2 65.67625 
L 850.2 37.32 
Q 850.2 35.32 848.2 35.32 
L 707.0875 35.32 
Q 705.0875 35.32 705.0875 37.32 
L 705.0875 65.67625 
Q 705.0875 67.67625 707.0875 67.67625 
z
" style="fill: #4d4d4d; opacity: 0.5; stroke: #4d4d4d; stroke-linejoin: miter"/>
    </g>
    <g id="patch_8">
     <path d="M 705.0875 65.67625 
L 846.2 65.67625 
Q 848.2 65.67625 848.2 63.67625 
L 848.2 35.32 
Q 848.2 33.32 846.2 33.32 
L 705.0875 33.32 
Q 703.0875 33.32 703.0875 35.32 
L 703.0875 63.67625 
Q 703.0875 65.67625 705.0875 65.67625 
z
" style="fill: #ffffff; stroke: #cccccc; stroke-linejoin: miter"/>
    </g>
    <g id="line2d_16">
     <path d="M 707.0875 41.418437 
L 717.0875 41.418437 
L 727.0875 41.418437 
" style="fill: none; stroke: #e74c3c; stroke-width: 2; stroke-linecap: square"/>
    </g>
    <g id="text_18">
     <!-- CPU package (°C) -->
     <g transform="translate(735.0875 44.918437) scale(0.1 -0.1)">
      <defs>
       <path id="DejaVuSans-50" d="M 1259 4147 
L 1259 2394 
L 2053 2394 
Q 2494 2394 2734 2622 
Q 2975 2850 2975 3272 
Q 2975 3691 2734 3919 
Q 2494 4147 2053 4147 
L 1259 4147 
z
M 628 4666 
L 2053 4666 
Q 2838 4666 3239 4311 
Q 3641 3956 3641 3272 
Q 3641 2581 3239 2228 
Q 2838 1875 2053 1875 
L 1259 1875 
L 1259 0 
L 628 0 
L 628 4666 
z
" transform="scale(0.015625)"/>
       <path id="DejaVuSans-55" d="M 556 4666 
L 1191 4666 
L 1191 1831 
Q 1191 1081 1462 751 
Q 1734 422 2344 422 
Q 2950 422 3222 751 
Q 3494 1081 3494 1831 
L 3494 4666 
L 4128 4666 
L 4128 1753 
Q 4128 841 3676 375 
Q 3225 -91 2344 -91 
Q 1459 -91 1007 375 
Q 556 841 556 1753 
L 556 4666 
z
" transform="scale(0.015625)"/>
       <path id="DejaVuSans-63" d="M 3122 3366 
L 3122 2828 
Q 2878 2963 2633 3030 
Q 2388 3097 2138 3097 
Q 1578 3097 1268 2742 
Q 959 2388 959 1747 
Q 959 1106 1268 751 
Q 1578 397 2138 397 
Q 2388 397 2633 464 
Q 2878 531 3122 666 
L 3122 134 
Q 2881 22 2623 -34 
Q 2366 -91 2075 -91 
Q 1284 -91 818 406 
Q 353 903 353 1747 
Q 353 2603 823 3093 
Q 1294 3584 2113 3584 
Q 2378 3584 2631 3529 
Q 2884 3475 3122 3366 
z
" transform="scale(0.015625)"/>
       <path id="DejaVuSans-6b" d="M 581 4863 
L 1159 4863 
L 1159 1991 
L 2875 3500 
L 3609 3500 
L 1753 1863 
L 3688 0 
L 2938 0 
L 1159 1709 
L 1159 0 
L 581 0 
L 581 4863 
z
" transform="scale(0.015625)"/>
       <path id="DejaVuSans-67" d="M 2906 1791 
Q 2906 2416 2648 2759 
Q 2391 3103 1925 3103 
Q 1463 3103 1205 2759 
Q 947 2416 947 1791 
Q 947 1169 1205 825 
Q 1463 481 1925 481 
Q 2391 481 2648 825 
Q 2906 1169 2906 1791 
z
M 3481 434 
Q 3481 -459 3084 -895 
Q 2688 -1331 1869 -1331 
Q 1566 -1331 1297 -1286 
Q 1028 -1241 775 -1147 
L 775 -588 
Q 1028 -725 1275 -790 
Q 1522 -856 1778 -856 
Q 2344 -856 2625 -561 
Q 2906 -266 2906 331 
L 2906 616 
Q 2728 306 2450 153 
Q 2172 0 1784 0 
Q 1141 0 747 490 
Q 353 981 353 1791 
Q 353 2603 747 3093 
Q 1141 3584 1784 3584 
Q 2172 3584 2450 3431 
Q 2728 3278 2906 2969 
L 2906 3500 
L 3481 3500 
L 3481 434 
z
" transform="scale(0.015625)"/>
      </defs>
      <use xlink:href="#DejaVuSans-43"/>
      <use xlink:href="#DejaVuSans-50" x="69.824219"/>
      <use xlink:href="#DejaVuSans-55" x="130.126953"/>
      <use xlink:href="#DejaVuSans-20" x="203.320312"/>
      <use xlink:href="#DejaVuSans-70" x="235.107422"/>
      <use xlink:href="#DejaVuSans-61" x="298.583984"/>
      <use xlink:href="#DejaVuSans-63" x="359.863281"/>
      <use xlink:href="#DejaVuSans-6b" x="414.84375"/>
      <use xlink:href="#DejaVuSans-61" x="471.003906"/>
      <use xlink:href="#DejaVuSans-67" x="532.283203"/>
      <use xlink:href="#DejaVuSans-65" x="595.759766"/>
      <use xlink:href="#DejaVuSans-20" x="657.283203"/>
      <use xlink:href="#DejaVuSans-28" x="689.070312"/>
      <use xlink:href="#DejaVuSans-b0" x="728.083984"/>
      <use xlink:href="#DejaVuSans-43" x="778.083984"/>
      <use xlink:href="#DejaVuSans-29" x="847.908203"/>
     </g>
    </g>
    <g id="line2d_17">
     <path d="M 707.0875 56.096563 
L 717.0875 56.096563 
L 727.0875 56.096563 
" style="fill: none; stroke-dasharray: 7.4,3.2; stroke-dashoffset: 0; stroke: #000000; stroke-opacity: 0.9; stroke-width: 2"/>
    </g>
    <g id="text_19">
     <!-- Cooler on (5000 RPM) -->
     <g transform="translate(735.0875 59.596563) scale(0.1 -0.1)">
      <defs>
       <path id="DejaVuSans-6c" d="M 603 4863 
L 1178 4863 
L 1178 0 
L 603 0 
L 603 4863 
z
" transform="scale(0.015625)"/>
       <path id="DejaVuSans-52" d="M 2841 2188 
Q 3044 2119 3236 1894 
Q 3428 1669 3622 1275 
L 4263 0 
L 3584 0 
L 2988 1197 
Q 2756 1666 2539 1819 
Q 2322 1972 1947 1972 
L 1259 1972 
L 1259 0 
L 628 0 
L 628 4666 
L 2053 4666 
Q 2853 4666 3247 4331 
Q 3641 3997 3641 3322 
Q 3641 2881 3436 2590 
Q 3231 2300 2841 2188 
z
M 1259 4147 
L 1259 2491 
L 2053 2491 
Q 2509 2491 2742 2702 
Q 2975 2913 2975 3322 
Q 2975 3731 2742 3939 
Q 2509 4147 2053 4147 
L 1259 4147 
z
" transform="scale(0.015625)"/>
      </defs>
      <use xlink:href="#DejaVuSans-43"/>
      <use xlink:href="#DejaVuSans-6f" x="69.824219"/>
      <use xlink:href="#DejaVuSans-6f" x="131.005859"/>
      <use xlink:href="#DejaVuSans-6c" x="192.1875"/>
      <use xlink:href="#DejaVuSans-65" x="219.970703"/>
      <use xlink:href="#DejaVuSans-72" x="281.494141"/>
      <use xlink:href="#DejaVuSans-20" x="322.607422"/>
      <use xlink:href="#DejaVuSans-6f" x="354.394531"/>
      <use xlink:href="#DejaVuSans-6e" x="415.576172"/>
      <use xlink:href="#DejaVuSans-20" x="478.955078"/>
      <use xlink:href="#DejaVuSans-28" x="510.742188"/>
      <use xlink:href="#DejaVuSans-35" x="549.755859"/>
      <use xlink:href="#DejaVuSans-30" x="613.378906"/>
      <use xlink:href="#DejaVuSans-30" x="677.001953"/>
      <use xlink:href="#DejaVuSans-30" x="740.625"/>
      <use xlink:href="#DejaVuSans-20" x="804.248047"/>
      <use xlink:href="#DejaVuSans-52" x="836.035156"/>
      <use xlink:href="#DejaVuSans-50" x="905.517578"/>
      <use xlink:href="#DejaVuSans-4d" x="965.820312"/>
      <use xlink:href="#DejaVuSans-29" x="1052.099609"/>
     </g>
    </g>
   </g>
   <g id="line2d_18">
    <path d="M 144.292245 387.16 
L 144.292245 28.32 
" clip-path="url(#pa3fb6b54dd)" style="fill: none; stroke-dasharray: 7.4,3.2; stroke-dashoffset: 0; stroke: #000000; stroke-opacity: 0.9; stroke-width: 2"/>
   </g>
  </g>
 </g>
 <defs>
  <clipPath id="pa3fb6b54dd">
   <rect x="53.75" y="28.32" width="799.45" height="358.84"/>
  </clipPath>
 </defs>
</svg>
