<?xml version="1.0" encoding="utf-8" standalone="no"?>
<!DOCTYPE svg PUBLIC "-//W3C//DTD SVG 1.1//EN"
  "http://www.w3.org/Graphics/SVG/1.1/DTD/svg11.dtd">
<svg xmlns:xlink="http://www.w3.org/1999/xlink" width="864pt" height="432pt" viewBox="0 0 864 432" xmlns="http://www.w3.org/2000/svg" version="1.1">
 <metadata>
  <rdf:RDF xmlns:dc="http://purl.org/dc/elements/1.1/" xmlns:cc="http://creativecommons.org/ns#" xmlns:rdf="http://www.w3.org/1999/02/22-rdf-syntax-ns#">
   <cc:Work>
    <dc:type rdf:resource="http://purl.org/dc/dcmitype/StillImage"/>
    <dc:date>2026-05-21T23:06:46.526375</dc:date>
    <dc:format>image/svg+xml</dc:format>
    <dc:creator>
     <cc:Agent>
      <dc:title>Matplotlib v3.9.2, https://matplotlib.org/</dc:title>
     </cc:Agent>
    </dc:creator>
   </cc:Work>
  </rdf:RDF>
 </metadata>
 <defs>
  <style type="text/css">*{stroke-linejoin: round; stroke-linecap: butt}</style>
 </defs>
 <g id="figure_1">
  <g id="patch_1">
   <path d="M 0 432 
L 864 432 
L 864 0 
L 0 0 
z
" style="fill: #ffffff"/>
  </g>
  <g id="axes_1">
   <g id="patch_2">
    <path d="M 53.75 387.16 
L 853.2 387.16 
L 853.2 28.32 
L 53.75 28.32 
z
" style="fill: #ffffff"/>
   </g>
   <g id="matplotlib.axis_1">
    <g id="xtick_1">
     <g id="line2d_1">
      <defs>
       <path id="m129d47460a" d="M 0 0 
L 0 3.5 
" style="stroke: #000000; stroke-width: 0.8"/>
      </defs>
      <g>
       <use xlink:href="#m129d47460a" x="53.75" y="387.16" style="stroke: #000000; stroke-width: 0.8"/>
      </g>
     </g>
     <g id="text_1">
      <!-- 0 -->
      <g transform="translate(50.56875 401.758438) scale(0.1 -0.1)">
       <defs>
        <path id="DejaVuSans-30" d="M 2034 4250 
Q 1547 4250 1301 3770 
Q 1056 3291 1056 2328 
Q 1056 1369 1301 889 
Q 1547 409 2034 409 
Q 2525 409 2770 889 
Q 3016 1369 3016 2328 
Q 3016 3291 2770 3770 
Q 2525 4250 2034 4250 
z
M 2034 4750 
Q 2819 4750 3233 4129 
Q 3647 3509 3647 2328 
Q 3647 1150 3233 529 
Q 2819 -91 2034 -91 
Q 1250 -91 836 529 
Q 422 1150 422 2328 
Q 422 3509 836 4129 
Q 1250 4750 2034 4750 
z
" transform="scale(0.015625)"/>
       </defs>
       <use xlink:href="#DejaVuSans-30"/>
      </g>
     </g>
    </g>
    <g id="xtick_2">
     <g id="line2d_2">
      <g>
       <use xlink:href="#m129d47460a" x="154.352495" y="387.16" style="stroke: #000000; stroke-width: 0.8"/>
      </g>
     </g>
     <g id="text_2">
      <!-- 5 -->
      <g transform="translate(151.171245 401.758438) scale(0.1 -0.1)">
       <defs>
        <path id="DejaVuSans-35" d="M 691 4666 
L 3169 4666 
L 3169 4134 
L 1269 4134 
L 1269 2991 
Q 1406 3038 1543 3061 
Q 1681 3084 1819 3084 
Q 2600 3084 3056 2656 
Q 3513 2228 3513 1497 
Q 3513 744 3044 326 
Q 2575 -91 1722 -91 
Q 1428 -91 1123 -41 
Q 819 9 494 109 
L 494 744 
Q 775 591 1075 516 
Q 1375 441 1709 441 
Q 2250 441 2565 725 
Q 2881 1009 2881 1497 
Q 2881 1984 2565 2268 
Q 2250 2553 1709 2553 
Q 1456 2553 1204 2497 
Q 953 2441 691 2322 
L 691 4666 
z
" transform="scale(0.015625)"/>
       </defs>
       <use xlink:href="#DejaVuSans-35"/>
      </g>
     </g>
    </g>
    <g id="xtick_3">
     <g id="line2d_3">
      <g>
       <use xlink:href="#m129d47460a" x="254.95499" y="387.16" style="stroke: #000000; stroke-width: 0.8"/>
      </g>
     </g>
     <g id="text_3">
      <!-- 10 -->
      <g transform="translate(248.59249 401.758438) scale(0.1 -0.1)">
       <defs>
        <path id="DejaVuSans-31" d="M 794 531 
L 1825 531 
L 1825 4091 
L 703 3866 
L 703 4441 
L 1819 4666 
L 2450 4666 
L 2450 531 
L 3481 531 
L 3481 0 
L 794 0 
L 794 531 
z
" transform="scale(0.015625)"/>
       </defs>
       <use xlink:href="#DejaVuSans-31"/>
       <use xlink:href="#DejaVuSans-30" x="63.623047"/>
      </g>
     </g>
    </g>
    <g id="xtick_4">
     <g id="line2d_4">
      <g>
       <use xlink:href="#m129d47460a" x="355.557485" y="387.16" style="stroke: #000000; stroke-width: 0.8"/>
      </g>
     </g>
     <g id="text_4">
      <!-- 15 -->
      <g transform="translate(349.194985 401.758438) scale(0.1 -0.1)">
       <use xlink:href="#DejaVuSans-31"/>
       <use xlink:href="#DejaVuSans-35" x="63.623047"/>
      </g>
     </g>
    </g>
    <g id="xtick_5">
     <g id="line2d_5">
      <g>
       <use xlink:href="#m129d47460a" x="456.15998" y="387.16" style="stroke: #000000; stroke-width: 0.8"/>
      </g>
     </g>
     <g id="text_5">
      <!-- 20 -->
      <g transform="translate(449.79748 401.758438) scale(0.1 -0.1)">
       <defs>
        <path id="DejaVuSans-32" d="M 1228 531 
L 3431 531 
L 3431 0 
L 469 0 
L 469 531 
Q 828 903 1448 1529 
Q 2069 2156 2228 2338 
Q 2531 2678 2651 2914 
Q 2772 3150 2772 3378 
Q 2772 3750 2511 3984 
Q 2250 4219 1831 4219 
Q 1534 4219 1204 4116 
Q 875 4013 500 3803 
L 500 4441 
Q 881 4594 1212 4672 
Q 1544 4750 1819 4750 
Q 2544 4750 2975 4387 
Q 3406 4025 3406 3419 
Q 3406 3131 3298 2873 
Q 3191 2616 2906 2266 
Q 2828 2175 2409 1742 
Q 1991 1309 1228 531 
z
" transform="scale(0.015625)"/>
       </defs>
       <use xlink:href="#DejaVuSans-32"/>
       <use xlink:href="#DejaVuSans-30" x="63.623047"/>
      </g>
     </g>
    </g>
    <g id="xtick_6">
     <g id="line2d_6">
      <g>
       <use xlink:href="#m129d47460a" x="556.762475" y="387.16" style="stroke: #000000; stroke-width: 0.8"/>
      </g>
     </g>
     <g id="text_6">
      <!-- 25 -->
      <g transform="translate(550.399975 401.758438) scale(0.1 -0.1)">
       <use xlink:href="#DejaVuSans-32"/>
       <use xlink:href="#DejaVuSans-35" x="63.623047"/>
      </g>
     </g>
    </g>
    <g id="xtick_7">
     <g id="line2d_7">
      <g>
       <use xlink:href="#m129d47460a" x="657.36497" y="387.16" style="stroke: #000000; stroke-width: 0.8"/>
      </g>
     </g>
     <g id="text_7">
      <!-- 30 -->
      <g transform="translate(651.00247 401.758438) scale(0.1 -0.1)">
       <defs>
        <path id="DejaVuSans-33" d="M 2597 2516 
Q 3050 2419 3304 2112 
Q 3559 1806 3559 1356 
Q 3559 666 3084 287 
Q 2609 -91 1734 -91 
Q 1441 -91 1130 -33 
Q 819 25 488 141 
L 488 750 
Q 750 597 1062 519 
Q 1375 441 1716 441 
Q 2309 441 2620 675 
Q 2931 909 2931 1356 
Q 2931 1769 2642 2001 
Q 2353 2234 1838 2234 
L 1294 2234 
L 1294 2753 
L 1863 2753 
Q 2328 2753 2575 2939 
Q 2822 3125 2822 3475 
Q 2822 3834 2567 4026 
Q 2313 4219 1838 4219 
Q 1578 4219 1281 4162 
Q 984 4106 628 3988 
L 628 4550 
Q 988 4650 1302 4700 
Q 1616 4750 1894 4750 
Q 2613 4750 3031 4423 
Q 3450 4097 3450 3541 
Q 3450 3153 3228 2886 
Q 3006 2619 2597 2516 
z
" transform="scale(0.015625)"/>
       </defs>
       <use xlink:href="#DejaVuSans-33"/>
       <use xlink:href="#DejaVuSans-30" x="63.623047"/>
      </g>
     </g>
    </g>
    <g id="xtick_8">
     <g id="line2d_8">
      <g>
       <use xlink:href="#m129d47460a" x="757.967465" y="387.16" style="stroke: #000000; stroke-width: 0.8"/>
      </g>
     </g>
     <g id="text_8">
      <!-- 35 -->
      <g transform="translate(751.604965 401.758438) scale(0.1 -0.1)">
       <use xlink:href="#DejaVuSans-33"/>
       <use xlink:href="#DejaVuSans-35" x="63.623047"/>
      </g>
     </g>
    </g>
    <g id="text_9">
     <!-- Test duration (Minutes) -->
     <g transform="translate(384.29875 416.95625) scale(0.12 -0.12)">
      <defs>
       <path id="DejaVuSans-54" d="M -19 4666 
L 3928 4666 
L 3928 4134 
L 2272 4134 
L 2272 0 
L 1638 0 
L 1638 4134 
L -19 4134 
L -19 4666 
z
" transform="scale(0.015625)"/>
       <path id="DejaVuSans-65" d="M 3597 1894 
L 3597 1613 
L 953 1613 
Q 991 1019 1311 708 
Q 1631 397 2203 397 
Q 2534 397 2845 478 
Q 3156 559 3463 722 
L 3463 178 
Q 3153 47 2828 -22 
Q 2503 -91 2169 -91 
Q 1331 -91 842 396 
Q 353 884 353 1716 
Q 353 2575 817 3079 
Q 1281 3584 2069 3584 
Q 2775 3584 3186 3129 
Q 3597 2675 3597 1894 
z
M 3022 2063 
Q 3016 2534 2758 2815 
Q 2500 3097 2075 3097 
Q 1594 3097 1305 2825 
Q 1016 2553 972 2059 
L 3022 2063 
z
" transform="scale(0.015625)"/>
       <path id="DejaVuSans-73" d="M 2834 3397 
L 2834 2853 
Q 2591 2978 2328 3040 
Q 2066 3103 1784 3103 
Q 1356 3103 1142 2972 
Q 928 2841 928 2578 
Q 928 2378 1081 2264 
Q 1234 2150 1697 2047 
L 1894 2003 
Q 2506 1872 2764 1633 
Q 3022 1394 3022 966 
Q 3022 478 2636 193 
Q 2250 -91 1575 -91 
Q 1294 -91 989 -36 
Q 684 19 347 128 
L 347 722 
Q 666 556 975 473 
Q 1284 391 1588 391 
Q 1994 391 2212 530 
Q 2431 669 2431 922 
Q 2431 1156 2273 1281 
Q 2116 1406 1581 1522 
L 1381 1569 
Q 847 1681 609 1914 
Q 372 2147 372 2553 
Q 372 3047 722 3315 
Q 1072 3584 1716 3584 
Q 2034 3584 2315 3537 
Q 2597 3491 2834 3397 
z
" transform="scale(0.015625)"/>
       <path id="DejaVuSans-74" d="M 1172 4494 
L 1172 3500 
L 2356 3500 
L 2356 3053 
L 1172 3053 
L 1172 1153 
Q 1172 725 1289 603 
Q 1406 481 1766 481 
L 2356 481 
L 2356 0 
L 1766 0 
Q 1100 0 847 248 
Q 594 497 594 1153 
L 594 3053 
L 172 3053 
L 172 3500 
L 594 3500 
L 594 4494 
L 1172 4494 
z
" transform="scale(0.015625)"/>
       <path id="DejaVuSans-20" transform="scale(0.015625)"/>
       <path id="DejaVuSans-64" d="M 2906 2969 
L 2906 4863 
L 3481 4863 
L 3481 0 
L 2906 0 
L 2906 525 
Q 2725 213 2448 61 
Q 2172 -91 1784 -91 
Q 1150 -91 751 415 
Q 353 922 353 1747 
Q 353 2572 751 3078 
Q 1150 3584 1784 3584 
Q 2172 3584 2448 3432 
Q 2725 3281 2906 2969 
z
M 947 1747 
Q 947 1113 1208 752 
Q 1469 391 1925 391 
Q 2381 391 2643 752 
Q 2906 1113 2906 1747 
Q 2906 2381 2643 2742 
Q 2381 3103 1925 3103 
Q 1469 3103 1208 2742 
Q 947 2381 947 1747 
z
" transform="scale(0.015625)"/>
       <path id="DejaVuSans-75" d="M 544 1381 
L 544 3500 
L 1119 3500 
L 1119 1403 
Q 1119 906 1312 657 
Q 1506 409 1894 409 
Q 2359 409 2629 706 
Q 2900 1003 2900 1516 
L 2900 3500 
L 3475 3500 
L 3475 0 
L 2900 0 
L 2900 538 
Q 2691 219 2414 64 
Q 2138 -91 1772 -91 
Q 1169 -91 856 284 
Q 544 659 544 1381 
z
M 1991 3584 
L 1991 3584 
z
" transform="scale(0.015625)"/>
       <path id="DejaVuSans-72" d="M 2631 2963 
Q 2534 3019 2420 3045 
Q 2306 3072 2169 3072 
Q 1681 3072 1420 2755 
Q 1159 2438 1159 1844 
L 1159 0 
L 581 0 
L 581 3500 
L 1159 3500 
L 1159 2956 
Q 1341 3275 1631 3429 
Q 1922 3584 2338 3584 
Q 2397 3584 2469 3576 
Q 2541 3569 2628 3553 
L 2631 2963 
z
" transform="scale(0.015625)"/>
       <path id="DejaVuSans-61" d="M 2194 1759 
Q 1497 1759 1228 1600 
Q 959 1441 959 1056 
Q 959 750 1161 570 
Q 1363 391 1709 391 
Q 2188 391 2477 730 
Q 2766 1069 2766 1631 
L 2766 1759 
L 2194 1759 
z
M 3341 1997 
L 3341 0 
L 2766 0 
L 2766 531 
Q 2569 213 2275 61 
Q 1981 -91 1556 -91 
Q 1019 -91 701 211 
Q 384 513 384 1019 
Q 384 1609 779 1909 
Q 1175 2209 1959 2209 
L 2766 2209 
L 2766 2266 
Q 2766 2663 2505 2880 
Q 2244 3097 1772 3097 
Q 1472 3097 1187 3025 
Q 903 2953 641 2809 
L 641 3341 
Q 956 3463 1253 3523 
Q 1550 3584 1831 3584 
Q 2591 3584 2966 3190 
Q 3341 2797 3341 1997 
z
" transform="scale(0.015625)"/>
       <path id="DejaVuSans-69" d="M 603 3500 
L 1178 3500 
L 1178 0 
L 603 0 
L 603 3500 
z
M 603 4863 
L 1178 4863 
L 1178 4134 
L 603 4134 
L 603 4863 
z
" transform="scale(0.015625)"/>
       <path id="DejaVuSans-6f" d="M 1959 3097 
Q 1497 3097 1228 2736 
Q 959 2375 959 1747 
Q 959 1119 1226 758 
Q 1494 397 1959 397 
Q 2419 397 2687 759 
Q 2956 1122 2956 1747 
Q 2956 2369 2687 2733 
Q 2419 3097 1959 3097 
z
M 1959 3584 
Q 2709 3584 3137 3096 
Q 3566 2609 3566 1747 
Q 3566 888 3137 398 
Q 2709 -91 1959 -91 
Q 1206 -91 779 398 
Q 353 888 353 1747 
Q 353 2609 779 3096 
Q 1206 3584 1959 3584 
z
" transform="scale(0.015625)"/>
       <path id="DejaVuSans-6e" d="M 3513 2113 
L 3513 0 
L 2938 0 
L 2938 2094 
Q 2938 2591 2744 2837 
Q 2550 3084 2163 3084 
Q 1697 3084 1428 2787 
Q 1159 2491 1159 1978 
L 1159 0 
L 581 0 
L 581 3500 
L 1159 3500 
L 1159 2956 
Q 1366 3272 1645 3428 
Q 1925 3584 2291 3584 
Q 2894 3584 3203 3211 
Q 3513 2838 3513 2113 
z
" transform="scale(0.015625)"/>
       <path id="DejaVuSans-28" d="M 1984 4856 
Q 1566 4138 1362 3434 
Q 1159 2731 1159 2009 
Q 1159 1288 1364 580 
Q 1569 -128 1984 -844 
L 1484 -844 
Q 1016 -109 783 600 
Q 550 1309 550 2009 
Q 550 2706 781 3412 
Q 1013 4119 1484 4856 
L 1984 4856 
z
" transform="scale(0.015625)"/>
       <path id="DejaVuSans-4d" d="M 628 4666 
L 1569 4666 
L 2759 1491 
L 3956 4666 
L 4897 4666 
L 4897 0 
L 4281 0 
L 4281 4097 
L 3078 897 
L 2444 897 
L 1241 4097 
L 1241 0 
L 628 0 
L 628 4666 
z
" transform="scale(0.015625)"/>
       <path id="DejaVuSans-29" d="M 513 4856 
L 1013 4856 
Q 1481 4119 1714 3412 
Q 1947 2706 1947 2009 
Q 1947 1309 1714 600 
Q 1481 -109 1013 -844 
L 513 -844 
Q 928 -128 1133 580 
Q 1338 1288 1338 2009 
Q 1338 2731 1133 3434 
Q 928 4138 513 4856 
z
" transform="scale(0.015625)"/>
      </defs>
      <use xlink:href="#DejaVuSans-54"/>
      <use xlink:href="#DejaVuSans-65" x="44.083984"/>
      <use xlink:href="#DejaVuSans-73" x="105.607422"/>
      <use xlink:href="#DejaVuSans-74" x="157.707031"/>
      <use xlink:href="#DejaVuSans-20" x="196.916016"/>
      <use xlink:href="#DejaVuSans-64" x="228.703125"/>
      <use xlink:href="#DejaVuSans-75" x="292.179688"/>
      <use xlink:href="#DejaVuSans-72" x="355.558594"/>
      <use xlink:href="#DejaVuSans-61" x="396.671875"/>
      <use xlink:href="#DejaVuSans-74" x="457.951172"/>
      <use xlink:href="#DejaVuSans-69" x="497.160156"/>
      <use xlink:href="#DejaVuSans-6f" x="524.943359"/>
      <use xlink:href="#DejaVuSans-6e" x="586.125"/>
      <use xlink:href="#DejaVuSans-20" x="649.503906"/>
      <use xlink:href="#DejaVuSans-28" x="681.291016"/>
      <use xlink:href="#DejaVuSans-4d" x="720.304688"/>
      <use xlink:href="#DejaVuSans-69" x="806.583984"/>
      <use xlink:href="#DejaVuSans-6e" x="834.367188"/>
      <use xlink:href="#DejaVuSans-75" x="897.746094"/>
      <use xlink:href="#DejaVuSans-74" x="961.125"/>
      <use xlink:href="#DejaVuSans-65" x="1000.333984"/>
      <use xlink:href="#DejaVuSans-73" x="1061.857422"/>
      <use xlink:href="#DejaVuSans-29" x="1113.957031"/>
     </g>
    </g>
   </g>
   <g id="matplotlib.axis_2">
    <g id="ytick_1">
     <g id="line2d_9">
      <defs>
       <path id="mb477e50a93" d="M 0 0 
L -3.5 0 
" style="stroke: #000000; stroke-width: 0.8"/>
      </defs>
      <g>
       <use xlink:href="#mb477e50a93" x="53.75" y="387.16" style="stroke: #000000; stroke-width: 0.8"/>
      </g>
     </g>
     <g id="text_10">
      <!-- 0 -->
      <g transform="translate(40.3875 390.959219) scale(0.1 -0.1)">
       <use xlink:href="#DejaVuSans-30"/>
      </g>
     </g>
    </g>
    <g id="ytick_2">
     <g id="line2d_10">
      <g>
       <use xlink:href="#mb477e50a93" x="53.75" y="338.903586" style="stroke: #000000; stroke-width: 0.8"/>
      </g>
     </g>
     <g id="text_11">
      <!-- 20 -->
      <g transform="translate(34.025 342.702805) scale(0.1 -0.1)">
       <use xlink:href="#DejaVuSans-32"/>
       <use xlink:href="#DejaVuSans-30" x="63.623047"/>
      </g>
     </g>
    </g>
    <g id="ytick_3">
     <g id="line2d_11">
      <g>
       <use xlink:href="#mb477e50a93" x="53.75" y="290.647173" style="stroke: #000000; stroke-width: 0.8"/>
      </g>
     </g>
     <g id="text_12">
      <!-- 40 -->
      <g transform="translate(34.025 294.446391) scale(0.1 -0.1)">
       <defs>
        <path id="DejaVuSans-34" d="M 2419 4116 
L 825 1625 
L 2419 1625 
L 2419 4116 
z
M 2253 4666 
L 3047 4666 
L 3047 1625 
L 3713 1625 
L 3713 1100 
L 3047 1100 
L 3047 0 
L 2419 0 
L 2419 1100 
L 313 1100 
L 313 1709 
L 2253 4666 
z
" transform="scale(0.015625)"/>
       </defs>
       <use xlink:href="#DejaVuSans-34"/>
       <use xlink:href="#DejaVuSans-30" x="63.623047"/>
      </g>
     </g>
    </g>
    <g id="ytick_4">
     <g id="line2d_12">
      <g>
       <use xlink:href="#mb477e50a93" x="53.75" y="242.390759" style="stroke: #000000; stroke-width: 0.8"/>
      </g>
     </g>
     <g id="text_13">
      <!-- 60 -->
      <g transform="translate(34.025 246.189978) scale(0.1 -0.1)">
       <defs>
        <path id="DejaVuSans-36" d="M 2113 2584 
Q 1688 2584 1439 2293 
Q 1191 2003 1191 1497 
Q 1191 994 1439 701 
Q 1688 409 2113 409 
Q 2538 409 2786 701 
Q 3034 994 3034 1497 
Q 3034 2003 2786 2293 
Q 2538 2584 2113 2584 
z
M 3366 4563 
L 3366 3988 
Q 3128 4100 2886 4159 
Q 2644 4219 2406 4219 
Q 1781 4219 1451 3797 
Q 1122 3375 1075 2522 
Q 1259 2794 1537 2939 
Q 1816 3084 2150 3084 
Q 2853 3084 3261 2657 
Q 3669 2231 3669 1497 
Q 3669 778 3244 343 
Q 2819 -91 2113 -91 
Q 1303 -91 875 529 
Q 447 1150 447 2328 
Q 447 3434 972 4092 
Q 1497 4750 2381 4750 
Q 2619 4750 2861 4703 
Q 3103 4656 3366 4563 
z
" transform="scale(0.015625)"/>
       </defs>
       <use xlink:href="#DejaVuSans-36"/>
       <use xlink:href="#DejaVuSans-30" x="63.623047"/>
      </g>
     </g>
    </g>
    <g id="ytick_5">
     <g id="line2d_13">
      <g>
       <use xlink:href="#mb477e50a93" x="53.75" y="194.134345" style="stroke: #000000; stroke-width: 0.8"/>
      </g>
     </g>
     <g id="text_14">
      <!-- 80 -->
      <g transform="translate(34.025 197.933564) scale(0.1 -0.1)">
       <defs>
        <path id="DejaVuSans-38" d="M 2034 2216 
Q 1584 2216 1326 1975 
Q 1069 1734 1069 1313 
Q 1069 891 1326 650 
Q 1584 409 2034 409 
Q 2484 409 2743 651 
Q 3003 894 3003 1313 
Q 3003 1734 2745 1975 
Q 2488 2216 2034 2216 
z
M 1403 2484 
Q 997 2584 770 2862 
Q 544 3141 544 3541 
Q 544 4100 942 4425 
Q 1341 4750 2034 4750 
Q 2731 4750 3128 4425 
Q 3525 4100 3525 3541 
Q 3525 3141 3298 2862 
Q 3072 2584 2669 2484 
Q 3125 2378 3379 2068 
Q 3634 1759 3634 1313 
Q 3634 634 3220 271 
Q 2806 -91 2034 -91 
Q 1263 -91 848 271 
Q 434 634 434 1313 
Q 434 1759 690 2068 
Q 947 2378 1403 2484 
z
M 1172 3481 
Q 1172 3119 1398 2916 
Q 1625 2713 2034 2713 
Q 2441 2713 2670 2916 
Q 2900 3119 2900 3481 
Q 2900 3844 2670 4047 
Q 2441 4250 2034 4250 
Q 1625 4250 1398 4047 
Q 1172 3844 1172 3481 
z
" transform="scale(0.015625)"/>
       </defs>
       <use xlink:href="#DejaVuSans-38"/>
       <use xlink:href="#DejaVuSans-30" x="63.623047"/>
      </g>
     </g>
    </g>
    <g id="ytick_6">
     <g id="line2d_14">
      <g>
       <use xlink:href="#mb477e50a93" x="53.75" y="145.877932" style="stroke: #000000; stroke-width: 0.8"/>
      </g>
     </g>
     <g id="text_15">
      <!-- 100 -->
      <g transform="translate(27.6625 149.677151) scale(0.1 -0.1)">
       <use xlink:href="#DejaVuSans-31"/>
       <use xlink:href="#DejaVuSans-30" x="63.623047"/>
       <use xlink:href="#DejaVuSans-30" x="127.246094"/>
      </g>
     </g>
    </g>
    <g id="ytick_7">
     <g id="line2d_15">
      <g>
       <use xlink:href="#mb477e50a93" x="53.75" y="97.621518" style="stroke: #000000; stroke-width: 0.8"/>
      </g>
     </g>
     <g id="text_16">
      <!-- 120 -->
      <g transform="translate(27.6625 101.420737) scale(0.1 -0.1)">
       <use xlink:href="#DejaVuSans-31"/>
       <use xlink:href="#DejaVuSans-32" x="63.623047"/>
       <use xlink:href="#DejaVuSans-30" x="127.246094"/>
      </g>
     </g>
    </g>
    <g id="ytick_8">
     <g id="line2d_16">
      <g>
       <use xlink:href="#mb477e50a93" x="53.75" y="49.365105" style="stroke: #000000; stroke-width: 0.8"/>
      </g>
     </g>
     <g id="text_17">
      <!-- 140 -->
      <g transform="translate(27.6625 53.164323) scale(0.1 -0.1)">
       <use xlink:href="#DejaVuSans-31"/>
       <use xlink:href="#DejaVuSans-34" x="63.623047"/>
       <use xlink:href="#DejaVuSans-30" x="127.246094"/>
      </g>
     </g>
    </g>
    <g id="text_18">
     <!-- Power (W) -->
     <g transform="translate(21.166875 238.398125) rotate(-90) scale(0.12 -0.12)">
      <defs>
       <path id="DejaVuSans-50" d="M 1259 4147 
L 1259 2394 
L 2053 2394 
Q 2494 2394 2734 2622 
Q 2975 2850 2975 3272 
Q 2975 3691 2734 3919 
Q 2494 4147 2053 4147 
L 1259 4147 
z
M 628 4666 
L 2053 4666 
Q 2838 4666 3239 4311 
Q 3641 3956 3641 3272 
Q 3641 2581 3239 2228 
Q 2838 1875 2053 1875 
L 1259 1875 
L 1259 0 
L 628 0 
L 628 4666 
z
" transform="scale(0.015625)"/>
       <path id="DejaVuSans-77" d="M 269 3500 
L 844 3500 
L 1563 769 
L 2278 3500 
L 2956 3500 
L 3675 769 
L 4391 3500 
L 4966 3500 
L 4050 0 
L 3372 0 
L 2619 2869 
L 1863 0 
L 1184 0 
L 269 3500 
z
" transform="scale(0.015625)"/>
       <path id="DejaVuSans-57" d="M 213 4666 
L 850 4666 
L 1831 722 
L 2809 4666 
L 3519 4666 
L 4500 722 
L 5478 4666 
L 6119 4666 
L 4947 0 
L 4153 0 
L 3169 4050 
L 2175 0 
L 1381 0 
L 213 4666 
z
" transform="scale(0.015625)"/>
      </defs>
      <use xlink:href="#DejaVuSans-50"/>
      <use xlink:href="#DejaVuSans-6f" x="56.677734"/>
      <use xlink:href="#DejaVuSans-77" x="117.859375"/>
      <use xlink:href="#DejaVuSans-65" x="199.646484"/>
      <use xlink:href="#DejaVuSans-72" x="261.169922"/>
      <use xlink:href="#DejaVuSans-20" x="302.283203"/>
      <use xlink:href="#DejaVuSans-28" x="334.070312"/>
      <use xlink:href="#DejaVuSans-57" x="373.083984"/>
      <use xlink:href="#DejaVuSans-29" x="471.960938"/>
     </g>
    </g>
   </g>
   <g id="line2d_17">
    <path d="M 53.75 387.16 
L 55.758696 387.16 
L 56.437428 346.158938 
L 57.133262 346.390569 
L 57.77913 339.666038 
L 58.477311 346.108269 
L 59.121838 345.418202 
L 59.92867 345.57021 
L 60.469911 381.678071 
L 61.146631 343.586871 
L 61.821674 345.068343 
L 62.49504 366.055057 
L 63.162369 343.613412 
L 63.838418 366.366311 
L 64.513461 360.954355 
L 65.192863 358.980667 
L 65.86187 359.969924 
L 66.53926 366.453173 
L 67.212961 357.127621 
L 67.881968 157.203712 
L 68.54628 139.496021 
L 69.220652 328.398165 
L 69.893347 363.002839 
L 70.568725 363.81596 
L 71.237732 158.977135 
L 71.914786 169.989249 
L 72.583793 126.645338 
L 73.2528 234.27403 
L 73.921806 181.476688 
L 74.590813 181.539421 
L 75.262838 181.112352 
L 75.93285 179.293085 
L 76.606552 181.52977 
L 77.274887 179.565734 
L 77.945235 182.550393 
L 78.617595 175.808972 
L 79.290291 177.160152 
L 79.964663 184.092186 
L 80.638029 177.362829 
L 81.310389 179.81908 
L 81.982749 161.920777 
L 82.662822 179.278609 
L 83.333505 174.491572 
L 84.007542 172.660241 
L 84.683591 177.331462 
L 85.351256 313.298733 
L 86.025628 329.580447 
L 86.694299 328.272698 
L 87.364312 355.59548 
L 88.032648 346.764556 
L 88.708361 347.493228 
L 89.379044 157.428104 
L 90.055093 163.240589 
L 91.393777 113.102176 
L 92.064796 99.069211 
L 92.737826 105.64656 
L 93.412534 98.514262 
L 94.08657 114.914204 
L 94.756248 101.36139 
L 95.427937 98.174054 
L 96.096944 307.363194 
L 96.771651 333.64605 
L 97.445017 308.941179 
L 98.1157 315.69949 
L 98.793761 338.141135 
L 99.464444 334.374722 
L 100.134457 309.358597 
L 100.803128 306.472864 
L 101.47247 308.304194 
L 102.152878 308.979784 
L 102.82155 174.872798 
L 103.497934 177.010557 
L 104.170629 139.857944 
L 104.8393 114.853883 
L 105.513672 97.809718 
L 106.184691 98.060652 
L 106.856716 98.157164 
L 107.529411 99.112641 
L 108.206131 98.152339 
L 108.874802 98.844818 
L 109.549174 98.053413 
L 110.21751 97.99068 
L 110.887187 98.379144 
L 111.564577 98.077541 
L 112.232913 98.420162 
L 112.903932 97.809718 
L 114.254017 98.480482 
L 116.279816 98.432226 
L 116.947146 99.305667 
L 117.621518 102.488178 
L 118.293878 116.279861 
L 118.973951 109.584283 
L 119.647652 115.264063 
L 120.314311 111.294973 
L 120.99036 109.999288 
L 121.658696 111.878876 
L 122.331727 117.541766 
L 123.00241 119.34173 
L 123.676112 121.810046 
L 124.344447 132.8487 
L 125.023514 119.858074 
L 125.695874 130.0257 
L 126.369576 129.791656 
L 127.03657 132.906608 
L 127.709266 131.444439 
L 128.381626 132.407154 
L 129.051974 146.148168 
L 129.731376 141.349067 
L 130.395688 139.604598 
L 131.074084 145.069637 
L 131.747114 138.35717 
L 132.422828 149.66606 
L 133.101224 151.429832 
L 133.772913 148.297991 
L 134.441585 148.710583 
L 135.115957 161.013556 
L 135.785299 155.823579 
L 136.457659 157.910669 
L 137.12633 157.978228 
L 137.802714 158.554892 
L 138.477421 160.863961 
L 139.147434 158.301546 
L 139.821806 303.748789 
L 140.488801 326.376221 
L 141.162502 300.518022 
L 141.837209 301.25152 
L 142.510575 301.741322 
L 143.188301 301.524168 
L 143.862338 298.947276 
L 144.532015 299.868973 
L 145.20974 301.263584 
L 145.880759 169.784159 
L 146.555131 157.630781 
L 147.230174 119.730194 
L 147.908905 124.604092 
L 148.579588 115.290604 
L 149.247589 103.571534 
L 149.919278 109.371955 
L 150.59365 107.837401 
L 151.269364 105.422167 
L 151.946419 101.026008 
L 152.617437 97.660123 
L 153.286444 97.677013 
L 153.955115 318.329464 
L 154.628481 353.843772 
L 155.297488 340.496048 
L 155.97186 351.993139 
L 156.650256 354.294969 
L 157.32161 354.946431 
L 158.004366 128.363266 
L 158.670689 150.65773 
L 159.346738 142.881209 
L 160.018092 139.792798 
L 160.686763 112.564117 
L 161.353423 98.811039 
L 162.028465 100.036752 
L 162.708203 107.103903 
L 163.375197 123.264976 
L 164.046216 97.119651 
L 164.715893 109.929316 
L 165.391271 110.641099 
L 166.065979 109.572219 
L 166.73968 101.033247 
L 167.41204 190.954248 
L 168.088089 184.972865 
L 168.752401 186.507419 
L 169.425767 186.024855 
L 170.094103 188.469042 
L 170.768139 186.45675 
L 171.443518 184.960801 
L 172.109506 186.96103 
L 172.783878 132.798031 
L 173.45825 120.263427 
L 174.132958 183.209093 
L 174.802299 181.43567 
L 175.472312 120.408197 
L 176.142995 322.894521 
L 176.817032 354.898175 
L 177.485703 361.084647 
L 178.162087 355.486903 
L 178.828747 189.936037 
L 179.499095 322.648413 
L 180.172796 348.84682 
L 180.84415 350.721582 
L 181.519528 230.239794 
L 182.190882 158.97231 
L 182.859889 131.1549 
L 183.529231 190.392061 
L 184.877975 194.218794 
L 185.548323 191.086953 
L 186.222359 191.217245 
L 186.897067 191.120732 
L 187.566073 191.258263 
L 188.235415 191.834927 
L 188.904422 190.12665 
L 189.576782 191.197943 
L 190.253501 98.400859 
L 190.924185 140.852026 
L 191.598221 102.13108 
L 192.272593 115.65494 
L 192.9416 99.469739 
L 193.617984 98.106495 
L 194.292692 98.885836 
L 194.968405 101.291418 
L 195.644118 100.673736 
L 196.319161 99.317731 
L 196.992527 99.542123 
L 197.663881 98.466005 
L 198.333894 98.463593 
L 199.0029 99.30808 
L 199.672578 98.323649 
L 200.344602 98.058239 
L 201.017298 98.593885 
L 201.688987 128.343964 
L 203.026329 112.957406 
L 203.701372 101.028421 
L 204.373397 119.199374 
L 205.050787 116.113376 
L 205.7208 100.630306 
L 206.396178 112.706473 
L 207.068538 112.397632 
L 207.74291 107.552688 
L 208.41091 109.550504 
L 209.081594 101.310721 
L 209.753283 106.314911 
L 210.424302 110.093388 
L 211.764998 103.245803 
L 212.435345 98.552867 
L 213.11173 98.823103 
L 213.788114 109.844868 
L 214.457791 109.23925 
L 215.126798 114.904553 
L 215.802511 100.569985 
L 217.143542 103.998603 
L 217.822274 106.650293 
L 218.49564 112.318009 
L 219.167329 108.964188 
L 219.844384 96.103854 
L 220.514061 102.427857 
L 221.189439 100.931908 
L 221.865153 102.116603 
L 222.538854 97.966552 
L 223.212555 99.10299 
L 223.891958 99.672416 
L 224.5613 98.63249 
L 225.232654 98.306759 
L 225.907696 100.466234 
L 226.58408 99.783406 
L 227.256105 99.747213 
L 227.925782 98.873772 
L 228.602837 102.920072 
L 229.270167 98.055826 
L 229.941186 98.190944 
L 231.280205 99.614508 
L 231.953906 99.04267 
L 232.623248 98.000331 
L 233.29762 98.043762 
L 233.973334 98.7097 
L 234.649047 98.393621 
L 235.318724 104.268839 
L 236.660426 110.63386 
L 237.335804 108.932822 
L 238.007829 111.046452 
L 238.681866 109.842455 
L 239.357244 109.996875 
L 240.030945 111.731694 
L 240.704311 110.65075 
L 241.371306 107.803621 
L 242.044672 102.437508 
L 242.715355 103.629442 
L 243.385032 99.317731 
L 244.057728 108.141416 
L 244.731764 101.556829 
L 245.401106 99.199503 
L 246.074808 102.044218 
L 246.745826 101.064613 
L 247.424223 99.204329 
L 248.092894 101.076677 
L 248.76123 99.423895 
L 249.43426 100.485536 
L 250.103602 98.253677 
L 250.775627 99.595206 
L 251.45134 99.527647 
L 252.124371 98.890662 
L 252.803103 98.601123 
L 253.473115 98.683159 
L 254.142457 107.907373 
L 254.816494 108.119701 
L 255.482818 107.311406 
L 256.153501 111.59175 
L 256.823849 102.485765 
L 257.494197 103.438829 
L 258.171587 110.759327 
L 258.844953 123.89231 
L 259.512954 104.978208 
L 260.190008 108.180021 
L 260.862704 105.550047 
L 261.543112 105.296701 
L 262.212454 104.143372 
L 262.881461 107.92185 
L 263.558515 102.423031 
L 264.229199 106.855383 
L 264.901559 104.131308 
L 265.572242 98.405685 
L 266.246614 109.835216 
L 266.924004 102.731872 
L 267.594017 101.593021 
L 268.262353 101.158713 
L 268.93203 106.505524 
L 269.612103 104.997511 
L 270.280103 98.499785 
L 270.957494 102.835624 
L 271.624823 100.350418 
L 272.301208 98.625252 
L 272.965855 99.303254 
L 273.644251 100.234603 
L 274.314934 98.282631 
L 274.988971 98.268154 
L 275.65563 106.191857 
L 276.336374 105.101262 
L 277.004039 110.320193 
L 277.67707 102.239657 
L 278.346076 99.457675 
L 279.017765 105.566937 
L 279.691131 98.092018 
L 280.362821 98.605949 
L 281.036522 98.207834 
L 281.70687 98.441877 
L 282.376883 97.978616 
L 283.047231 98.022046 
L 283.718249 99.486629 
L 284.388933 99.341859 
L 285.060622 102.531608 
L 285.731641 101.935642 
L 286.402995 98.690398 
L 287.074684 99.655526 
L 287.747715 98.806213 
L 288.418398 98.958221 
L 289.090758 105.024052 
L 289.761106 99.515582 
L 290.440173 99.865441 
L 291.107167 98.055826 
L 291.778857 202.197992 
L 292.452893 183.336973 
L 293.126595 239.454356 
L 293.796943 187.786214 
L 294.46662 189.067422 
L 295.140657 121.925861 
L 295.808993 95.088056 
L 296.477664 98.217485 
L 297.150359 98.579408 
L 297.817689 98.543216 
L 298.49072 99.168136 
L 299.160062 96.183477 
L 299.83544 98.678334 
L 300.510147 107.231783 
L 301.180495 99.250172 
L 301.855873 98.27298 
L 302.526556 187.460483 
L 303.193886 183.100516 
L 303.866917 327.114545 
L 304.54263 348.081956 
L 305.208954 350.205238 
L 305.88232 354.555554 
L 306.556022 352.784544 
L 307.226705 268.321343 
L 307.904431 146.712768 
L 308.573772 126.498156 
L 309.24412 157.068594 
L 309.913798 205.822049 
L 310.586828 188.191568 
L 311.261871 191.707048 
L 311.928195 191.113494 
L 312.601226 190.811891 
L 313.269562 191.49472 
L 313.943934 187.067194 
L 314.615958 142.893273 
L 315.29033 133.075505 
L 315.966044 118.933963 
L 316.636056 144.403698 
L 317.310428 127.945849 
L 317.983794 130.440705 
L 318.654813 121.686992 
L 319.325161 127.475348 
L 320.003557 120.724276 
L 320.673235 120.963145 
L 321.338888 125.682623 
L 322.015272 121.329894 
L 322.688302 113.67884 
L 323.362004 121.783504 
L 324.036711 121.255097 
L 324.705718 130.252505 
L 325.378078 144.005583 
L 326.049097 132.228605 
L 326.719444 132.228605 
L 327.395829 108.681888 
L 328.070536 108.681888 
L 328.739543 106.114647 
L 329.416597 101.605085 
L 330.076214 96.241385 
L 330.749245 328.487439 
L 331.424958 357.3496 
L 332.767331 149.070094 
L 333.442039 129.921949 
L 334.111716 130.812279 
L 334.78374 120.750817 
L 335.46549 133.285421 
L 336.812222 144.005583 
L 337.48257 125.072179 
L 338.161302 187.634207 
L 338.828967 187.330191 
L 339.500991 189.525858 
L 340.846382 137.213493 
L 341.52612 154.675076 
L 342.19848 141.662734 
L 342.866145 120.593984 
L 343.534481 197.813897 
L 344.206841 190.305199 
L 344.875847 190.705727 
L 345.549549 192.331968 
L 346.221238 181.175086 
L 346.900305 182.825455 
L 347.574677 183.267001 
L 348.24536 185.221386 
L 348.924427 182.415275 
L 349.59511 184.188699 
L 350.275183 182.065416 
L 350.942513 181.915822 
L 351.615544 188.283255 
L 352.286563 189.839525 
L 352.958587 264.453591 
L 353.633965 189.115678 
L 354.302301 189.405217 
L 354.971643 189.209778 
L 355.651716 188.763407 
L 356.32307 190.006009 
L 356.995095 176.096098 
L 357.666113 189.571702 
L 358.339479 189.805745 
L 359.013851 189.40763 
L 359.687888 189.559637 
L 360.362931 190.324502 
L 361.035626 190.16043 
L 361.707651 187.694527 
L 362.381688 190.413776 
L 363.056395 190.155604 
L 363.727749 189.697168 
L 364.401786 189.921561 
L 365.076158 189.682691 
L 365.746506 190.358281 
L 366.417524 190.285896 
L 367.088878 188.41596 
L 367.761909 190.633343 
L 368.432592 189.701994 
L 369.1073 190.206273 
L 369.781672 190.184558 
L 370.450678 192.165484 
L 371.129745 190.302786 
L 371.805123 189.492078 
L 372.479831 192.064145 
L 373.152526 190.585086 
L 374.493557 190.642994 
L 375.168265 190.850497 
L 375.845319 189.383502 
L 376.515667 176.494213 
L 377.185009 190.758809 
L 377.857369 191.405445 
L 378.526376 190.69125 
L 379.195718 190.664709 
L 379.867072 189.016753 
L 380.546474 190.881863 
L 381.212463 190.848084 
L 381.887505 193.900302 
L 382.556847 189.007102 
L 383.225183 191.130384 
L 383.899555 193.946145 
L 384.573927 191.793909 
L 385.244946 191.159338 
L 385.914623 189.632022 
L 386.583294 191.453702 
L 387.261355 195.649597 
L 387.931368 190.898753 
L 388.600374 191.699809 
L 389.272064 191.692571 
L 389.942747 190.363107 
L 390.613095 192.739735 
L 391.286461 191.557453 
L 391.960498 192.901394 
L 392.62984 197.135894 
L 393.30723 191.605709 
L 393.975566 191.805973 
L 395.320286 194.706184 
L 395.988286 192.954476 
L 396.66467 193.007558 
L 397.33636 192.937586 
L 398.009055 145.957555 
L 398.679068 192.259584 
L 399.352769 192.450197 
L 400.027812 192.486389 
L 400.699837 188.987799 
L 401.369178 190.430666 
L 402.039862 200.277387 
L 402.715575 192.377812 
L 403.389612 192.346445 
L 404.058619 193.893063 
L 404.731985 191.76013 
L 406.074022 193.709689 
L 406.748059 194.211556 
L 407.415388 194.421471 
L 408.092443 192.732497 
L 408.762791 192.930348 
L 409.444876 192.602204 
L 410.114889 168.816618 
L 410.788925 192.481563 
L 411.458267 190.792589 
L 412.129621 145.499119 
L 412.799969 128.669695 
L 413.475012 124.500341 
L 414.155085 109.174104 
L 414.829122 106.563432 
L 415.497458 100.075357 
L 416.170153 100.794377 
L 416.843184 99.344272 
L 417.515879 100.666498 
L 418.18958 98.6156 
L 418.8663 97.947249 
L 419.536983 98.311585 
L 420.204313 102.160034 
L 420.878685 98.786911 
L 421.550374 106.129124 
L 422.220052 101.48927 
L 422.899118 99.310493 
L 423.57349 98.072716 
L 424.249875 95.237651 
L 424.91754 100.635131 
L 425.592583 104.932365 
L 426.266955 98.3333 
L 426.940656 108.370634 
L 427.618717 100.085008 
L 428.296442 100.012623 
L 428.96612 104.174739 
L 429.641162 100.432454 
L 430.311846 117.206384 
L 430.985547 99.860616 
L 431.657907 98.429813 
L 432.326914 99.677241 
L 433.003298 100.524141 
L 433.67331 101.595434 
L 434.348688 99.322557 
L 435.01736 101.986311 
L 435.687037 97.266834 
L 436.35705 99.641049 
L 437.033769 100.425216 
L 437.709482 98.982349 
L 438.37983 106.008483 
L 439.054538 98.85447 
L 439.727904 107.837401 
L 440.397916 101.870495 
L 441.067594 103.846596 
L 441.735259 100.010211 
L 442.40829 105.936098 
L 443.08132 98.550454 
L 443.754016 100.174282 
L 444.430064 101.226272 
L 445.102424 98.772434 
L 445.774784 101.322785 
L 446.445803 101.906688 
L 447.118163 95.104946 
L 447.788511 100.092247 
L 448.470261 103.612552 
L 449.135243 103.880375 
L 449.814645 107.82775 
L 450.490694 107.518909 
L 451.159365 99.397354 
L 451.836085 98.379144 
L 452.506768 99.397354 
L 453.180805 99.177788 
L 453.853165 98.625252 
L 454.528208 99.66759 
L 455.194196 98.970285 
L 455.864209 99.110229 
L 456.538245 101.136998 
L 457.213959 98.159577 
L 457.8776 94.393164 
L 458.557337 99.491454 
L 459.227685 98.316411 
L 459.899375 98.108908 
L 460.569723 100.560334 
L 461.242418 98.620426 
L 461.917125 93.818913 
L 462.591497 98.253677 
L 463.264864 97.821782 
L 463.942924 99.563839 
L 464.611596 97.652885 
L 465.28865 98.941331 
L 465.964364 99.02578 
L 466.640077 98.1451 
L 467.312773 98.301934 
L 467.98245 100.876413 
L 468.658834 98.466005 
L 469.329517 98.712113 
L 470.004895 104.558378 
L 470.668201 95.985626 
L 471.343244 179.823906 
L 472.015604 183.592732 
L 472.687964 304.05763 
L 473.364013 329.77106 
L 474.032684 161.10283 
L 474.707391 153.705122 
L 475.384781 120.661543 
L 476.051776 127.620118 
L 476.721789 108.681888 
L 477.394149 119.882202 
L 478.063155 122.478397 
L 478.738869 128.877197 
L 479.414582 122.695551 
L 480.092643 119.100448 
L 480.758296 104.536662 
L 481.431327 109.859345 
L 482.108382 112.62685 
L 482.777388 130.472072 
L 483.451089 130.32489 
L 484.120767 137.539224 
L 484.793127 60.941818 
L 485.462133 131.234523 
L 486.137847 130.544456 
L 486.81356 132.397503 
L 487.484244 143.354121 
L 488.151909 129.712033 
L 488.826616 134.040634 
L 489.496629 171.330777 
L 490.180055 111.509714 
L 490.839337 107.856704 
L 491.518404 103.236152 
L 492.188752 112.696822 
L 492.863794 98.668682 
L 493.533807 122.345692 
L 494.210526 341.022043 
L 494.890599 347.510118 
L 495.559941 150.761481 
L 496.229618 128.809638 
L 496.907679 131.147662 
L 497.575344 194.406994 
L 498.24804 189.615132 
L 498.928448 190.980789 
L 499.597455 191.542976 
L 500.267467 190.515114 
L 500.940498 193.569745 
L 502.281529 124.912933 
L 502.960931 137.662277 
L 503.62692 207.313172 
L 504.302969 119.686763 
L 504.97667 184.724345 
L 505.64903 189.549986 
L 506.323067 323.736596 
L 506.998445 351.679472 
L 507.672146 352.482941 
L 508.350542 345.546082 
L 509.018543 341.827925 
L 509.697274 348.509025 
L 510.363934 149.222101 
L 511.030593 141.742357 
L 512.381684 114.134863 
L 513.048679 105.747898 
L 513.722045 112.033296 
L 514.396752 110.83895 
L 515.066094 116.542858 
L 515.733089 115.971019 
L 516.408802 112.202194 
L 517.084516 112.539988 
L 517.752181 118.866404 
L 518.420852 109.024509 
L 519.102266 67.224803 
L 519.765907 117.64793 
L 520.442962 113.613694 
L 521.11264 118.936376 
L 521.789024 109.232011 
L 523.132402 100.760598 
L 523.809792 102.956265 
L 524.4845 107.518909 
L 525.840621 97.947249 
L 526.506275 97.954487 
L 527.179976 100.384198 
L 527.851665 98.494959 
L 528.521678 98.466005 
L 529.191691 98.598711 
L 529.866733 98.569757 
L 530.544123 129.970205 
L 531.219166 98.801387 
L 532.557515 97.455034 
L 533.226857 98.318823 
L 533.905253 104.905824 
L 534.575601 105.137455 
L 535.250308 109.569806 
L 535.925686 106.360755 
L 536.600058 106.710614 
L 537.265711 102.046631 
L 537.94176 101.624388 
L 538.610431 102.538847 
L 539.281785 98.811039 
L 539.951463 97.508116 
L 540.624829 98.108908 
L 541.298865 99.817185 
L 541.974244 100.167044 
L 542.644592 106.355929 
L 543.316281 86.869989 
L 543.982605 101.624388 
L 544.658318 99.587967 
L 545.329001 101.426536 
L 546.003038 98.280218 
L 546.672045 99.228457 
L 547.347423 99.047495 
L 548.021795 98.227136 
L 548.692143 97.826608 
L 549.36685 98.907552 
L 550.038875 101.231098 
L 550.707881 102.135906 
L 551.381583 102.135906 
L 552.05126 98.574582 
L 552.722279 105.714119 
L 554.069346 98.950982 
L 554.745395 98.371905 
L 555.420102 99.57349 
L 556.761804 96.832526 
L 558.100824 101.506159 
L 558.771842 98.535977 
L 559.447891 98.852057 
L 560.116898 98.535977 
L 560.792611 91.52432 
L 561.461953 98.757957 
L 562.130959 98.393621 
L 562.806338 98.557693 
L 563.477021 97.923121 
L 564.152734 98.449116 
L 564.822747 99.537298 
L 565.491418 98.724177 
L 566.171156 100.244254 
L 566.844857 98.859295 
L 568.184547 99.365988 
L 568.860596 98.142687 
L 569.533626 99.341859 
L 570.201962 98.44429 
L 570.87164 97.013487 
L 571.546012 98.376731 
L 572.219378 99.40218 
L 572.894756 98.656618 
L 573.568457 98.137862 
L 574.243835 98.041349 
L 574.923237 99.045082 
L 575.593585 100.340767 
L 576.263598 101.098393 
L 576.937635 113.239706 
L 577.604965 99.631398 
L 578.277325 183.327322 
L 578.945996 184.618181 
L 579.616679 186.406081 
L 580.284344 320.392426 
L 580.957375 347.645236 
L 581.626046 354.5266 
L 582.300754 354.931954 
L 582.971772 181.631109 
L 583.641114 145.376065 
L 584.310456 161.252425 
L 584.980133 154.40484 
L 585.653499 161.708448 
L 586.331896 116.024102 
L 587.005597 136.245952 
L 587.676951 120.145199 
L 588.352664 144.782511 
L 589.022342 131.54819 
L 589.691348 124.242169 
L 590.363708 120.29962 
L 591.033386 113.205927 
L 591.702057 138.115888 
L 592.3771 123.998474 
L 593.042082 119.493738 
L 593.717125 138.521242 
L 594.388814 146.68864 
L 595.056815 159.399379 
L 595.731522 149.444081 
L 596.404888 175.485654 
L 597.074565 152.629004 
L 597.750279 115.35575 
L 598.415597 129.224643 
L 599.095334 129.263249 
L 599.772724 118.994284 
L 600.443743 96.584005 
L 601.115097 327.570568 
L 601.788463 355.658213 
L 602.461494 357.207244 
L 603.13486 341.625248 
L 603.809567 353.247805 
L 604.481927 334.172045 
L 605.156299 335.07444 
L 605.830671 139.143749 
L 606.503367 323.369847 
L 607.179751 149.943535 
L 607.853787 138.086934 
L 608.523129 157.027576 
L 609.199849 140.439434 
L 609.871203 157.051704 
L 610.542221 147.402834 
L 611.212234 143.486827 
L 611.883253 135.850249 
L 612.555277 152.793076 
L 613.22529 160.405525 
L 613.892285 160.106335 
L 614.564645 123.274628 
L 615.239352 123.511084 
L 615.905005 108.978665 
L 616.579377 98.690398 
L 617.248048 128.273992 
L 617.922756 109.634952 
L 618.590086 181.60698 
L 619.259763 185.383045 
L 619.934135 185.477145 
L 620.604818 185.197258 
L 621.275166 186.111717 
L 621.946185 307.249792 
L 622.620557 350.639546 
L 623.289899 354.367354 
L 623.967624 345.673961 
L 624.641996 362.146288 
L 625.318045 202.697446 
L 625.986046 170.042331 
L 626.660753 191.171402 
L 627.333784 136.680259 
L 628.011509 117.546591 
L 628.688899 112.199781 
L 629.353882 156.518471 
L 630.034626 135.401464 
L 630.703967 140.743449 
L 632.04634 103.820055 
L 632.721047 105.284637 
L 633.390389 118.188402 
L 634.062079 109.005206 
L 634.73578 109.154801 
L 635.405122 118.540673 
L 636.081506 154.385538 
L 636.749507 128.843418 
L 637.426226 145.474991 
L 638.098586 187.506327 
L 638.77497 184.910132 
L 639.450684 170.121954 
L 640.11969 187.376035 
L 640.78702 182.195709 
L 641.460722 170.271549 
L 642.135094 172.1632 
L 642.803765 170.717921 
L 643.476125 139.445352 
L 644.151168 163.766584 
L 644.824534 131.70261 
L 645.5036 185.945232 
L 646.17026 189.163935 
L 646.84329 187.875489 
L 648.183316 190.418602 
L 648.851987 190.372758 
L 649.52267 164.678631 
L 650.196372 150.271678 
L 650.864037 196.988712 
L 651.539079 188.794773 
L 652.209092 170.903708 
L 652.87944 138.830083 
L 653.555153 131.340687 
L 654.223825 133.427777 
L 654.899203 164.574879 
L 655.57391 136.815377 
L 656.247276 125.56922 
L 656.920307 124.23493 
L 657.593673 114.545042 
L 658.267039 108.677063 
L 658.943088 109.654255 
L 659.615112 104.360526 
L 660.281101 104.355701 
L 660.954467 104.773119 
L 661.627162 104.98786 
L 662.299858 99.981257 
L 662.976577 101.713662 
L 663.649273 98.902726 
L 664.322974 185.127286 
L 665.669035 109.95827 
L 666.348102 100.946385 
L 667.024822 100.919844 
L 667.697852 98.564931 
L 668.368871 98.548041 
L 669.041902 100.982577 
L 669.714932 99.561426 
L 670.38461 110.940288 
L 671.059652 112.665455 
L 671.725641 97.56361 
L 672.399342 111.95126 
L 673.069355 98.210246 
L 673.744733 98.533564 
L 674.421452 97.686664 
L 675.084087 98.72659 
L 675.757453 101.78846 
L 676.429813 102.526783 
L 677.105192 99.421482 
L 677.785264 101.390344 
L 678.456618 106.334214 
L 679.131326 106.93018 
L 679.79832 93.285679 
L 680.478393 99.822011 
L 681.1474 108.054555 
L 681.82043 105.839585 
L 682.500503 106.761283 
L 683.170516 97.539482 
L 683.838181 104.580093 
L 684.512218 101.747442 
L 685.183237 112.298706 
L 685.850566 103.023824 
L 686.526615 104.457039 
L 687.202329 103.800752 
L 687.871671 103.834531 
L 688.54336 102.442334 
L 689.221085 98.38397 
L 689.892775 97.964139 
L 690.563458 98.10167 
L 691.236153 100.485536 
L 691.907843 100.589288 
L 692.576849 99.238108 
L 693.250551 98.5215 
L 693.921234 98.859295 
L 695.269307 98.76037 
L 695.936637 98.263328 
L 696.609668 98.584234 
L 697.277333 99.267062 
L 697.950699 102.287913 
L 698.620041 103.146878 
L 699.294078 100.536206 
L 699.975157 105.680339 
L 700.644499 98.215072 
L 701.323901 98.248852 
L 701.988213 102.756001 
L 702.665603 100.24908 
L 703.338298 99.522821 
L 704.007305 104.896173 
L 704.68503 98.28987 
L 705.357726 107.502019 
L 706.032098 101.694359 
L 706.713512 97.746985 
L 707.380171 100.263557 
L 708.054878 98.946157 
L 708.722879 100.931908 
L 709.392556 100.661672 
L 710.067934 100.198411 
L 711.406954 100.263557 
L 712.079984 100.943972 
L 712.746979 103.257867 
L 713.420345 177.160152 
L 714.097064 188.300145 
L 714.763724 166.444815 
L 715.436754 117.906102 
L 716.107773 113.702968 
L 716.776444 103.043126 
L 717.451151 98.690398 
L 718.792518 98.359841 
L 719.473932 100.569985 
L 720.149981 98.381557 
L 720.817646 99.361162 
L 721.484976 101.366216 
L 722.164043 117.94712 
L 722.83305 105.077134 
L 723.508428 109.376781 
L 724.180452 102.237244 
L 724.8508 107.217306 
L 726.19485 103.113098 
L 726.862515 102.758413 
L 727.53454 102.654662 
L 728.883284 98.634903 
L 729.556985 103.511213 
L 730.228004 105.190537 
L 730.899022 101.477206 
L 731.570041 102.799431 
L 732.244748 110.33467 
L 732.921132 99.32497 
L 733.592151 108.874914 
L 734.260487 104.722449 
L 734.939554 110.655576 
L 735.60856 109.905188 
L 736.281256 107.253498 
L 736.949592 118.251135 
L 737.621616 107.461001 
L 738.290958 99.563839 
L 738.969019 110.185075 
L 739.645068 105.943337 
L 740.319105 104.411196 
L 740.993812 98.613187 
L 741.666843 101.600259 
L 742.334508 103.877962 
L 743.006868 97.778352 
L 744.34857 98.950982 
L 745.020595 105.190537 
L 745.696643 98.999239 
L 746.365985 102.11419 
L 747.034321 98.659031 
L 747.704334 100.951211 
L 748.375688 187.308476 
L 749.050731 187.721068 
L 749.719402 158.825128 
L 750.389414 112.675106 
L 751.061104 98.193357 
L 751.731116 97.853149 
L 752.403476 104.382242 
L 753.073824 97.725269 
L 753.749202 102.401316 
L 754.41888 99.13677 
L 755.085203 102.951439 
L 755.75421 112.967058 
L 756.427576 120.528838 
L 757.096583 120.540902 
L 757.771625 97.078634 
L 758.436273 101.069439 
L 759.115004 103.298885 
L 759.791053 109.289919 
L 760.466431 109.077591 
L 761.134432 111.644832 
L 761.810145 107.948391 
L 762.480158 109.253727 
L 763.154865 105.057832 
L 763.830578 109.072765 
L 764.503944 103.009347 
L 765.173286 107.113555 
L 765.852018 104.568029 
L 767.195732 106.273893 
L 767.870104 102.929724 
L 768.54347 112.42176 
L 769.211806 105.607955 
L 769.887184 114.50885 
L 770.555184 100.244254 
L 771.226203 103.892439 
L 771.899569 98.323649 
L 772.576289 116.20265 
L 773.252673 114.63673 
L 773.924697 110.703832 
L 774.601082 100.709929 
L 775.268747 106.276306 
L 775.93943 106.874686 
L 776.618162 101.327611 
L 777.287503 102.022503 
L 777.956845 97.952075 
L 778.626187 98.958221 
L 779.296535 98.412923 
L 779.97359 106.925355 
L 780.646956 102.275849 
L 781.314957 105.815457 
L 781.991341 105.359434 
L 782.656994 98.757957 
L 783.328348 107.670916 
L 784.000708 106.828842 
L 784.671056 106.819191 
L 785.341069 98.76037 
L 786.686124 103.035888 
L 787.362508 109.449165 
L 788.035203 102.893531 
L 788.710581 104.251949 
L 789.378247 103.209611 
L 790.05396 98.190944 
L 790.730009 98.371905 
L 791.401027 98.224723 
L 792.073387 98.292282 
L 792.751784 91.620833 
L 793.421796 98.72659 
L 794.094492 102.575039 
L 794.769199 94.692354 
L 795.442565 102.760826 
L 796.110901 114.062478 
L 796.781584 102.13108 
L 797.453274 104.874457 
L 798.125969 106.10017 
L 798.794976 110.544586 
L 800.138019 101.07909 
L 800.805013 99.561426 
L 801.482068 109.753181 
L 802.15644 188.469042 
L 802.835842 186.758353 
L 803.503508 182.634842 
L 804.180562 161.2476 
L 804.859965 131.485456 
L 805.524276 115.177201 
L 806.867655 100.613416 
L 807.543368 102.669139 
L 808.218747 99.112641 
L 808.890436 99.057146 
L 810.237168 104.700734 
L 810.912881 106.22805 
L 811.586583 112.810224 
L 812.258272 111.543494 
L 813.596956 100.056054 
L 814.271328 105.634496 
L 814.95006 109.309222 
L 815.621413 104.942016 
L 816.299139 101.812588 
L 816.972505 101.238336 
L 817.641512 98.965459 
L 818.312195 98.806213 
L 818.983884 106.575496 
L 819.655238 102.710157 
L 820.323574 103.602901 
L 820.997611 111.565209 
L 821.668965 110.467375 
L 822.340319 109.827978 
L 823.017374 114.610189 
L 823.693422 110.735199 
L 824.365447 108.978665 
L 825.040825 124.483451 
L 825.709832 111.261194 
L 826.382527 104.32916 
L 827.051869 111.77995 
L 827.726241 100.553095 
L 828.393236 105.98918 
L 829.065931 106.814365 
L 829.737956 98.697636 
L 830.402938 108.792878 
L 831.074627 105.728596 
L 831.74967 102.010439 
L 832.424713 103.663221 
L 833.09942 101.438601 
L 833.770104 111.960911 
L 834.441122 104.153024 
L 835.111806 106.481396 
L 835.7788 117.281181 
L 836.456526 102.312042 
L 837.13291 110.674878 
L 837.801246 112.06225 
L 838.475282 114.05524 
L 839.147307 107.482716 
L 839.816649 113.384476 
L 840.489009 116.960276 
L 841.831382 104.049272 
L 842.507095 110.877555 
L 843.173083 108.327204 
L 843.844773 103.90209 
L 844.51445 101.798111 
L 845.186475 115.191678 
L 845.861182 109.065527 
L 846.539243 99.846139 
L 847.210262 101.742616 
L 847.878262 104.010667 
L 848.554982 98.490134 
L 849.228348 100.538618 
L 849.901714 108.003886 
L 851.243751 99.788231 
L 851.917788 99.834075 
L 852.591154 105.759962 
L 853.267202 102.871816 
L 853.267202 102.871816 
" clip-path="url(#p3506100baa)" style="fill: none; stroke: #e74c3c; stroke-width: 2; stroke-linecap: square"/>
   </g>
   <g id="patch_3">
    <path d="M 53.75 387.16 
L 53.75 28.32 
" style="fill: none; stroke: #000000; stroke-width: 0.8; stroke-linejoin: miter; stroke-linecap: square"/>
   </g>
   <g id="patch_4">
    <path d="M 853.2 387.16 
L 853.2 28.32 
" style="fill: none; stroke: #000000; stroke-width: 0.8; stroke-linejoin: miter; stroke-linecap: square"/>
   </g>
   <g id="patch_5">
    <path d="M 53.75 387.16 
L 853.2 387.16 
" style="fill: none; stroke: #000000; stroke-width: 0.8; stroke-linejoin: miter; stroke-linecap: square"/>
   </g>
   <g id="patch_6">
    <path d="M 53.75 28.32 
L 853.2 28.32 
" style="fill: none; stroke: #000000; stroke-width: 0.8; stroke-linejoin: miter; stroke-linecap: square"/>
   </g>
   <g id="text_19">
    <!-- GPU power over time -->
    <g transform="translate(357.7975 22.32) scale(0.16 -0.16)">
     <defs>
      <path id="DejaVuSans-Bold-47" d="M 4781 347 
Q 4331 128 3847 18 
Q 3363 -91 2847 -91 
Q 1681 -91 1000 561 
Q 319 1213 319 2328 
Q 319 3456 1012 4103 
Q 1706 4750 2913 4750 
Q 3378 4750 3804 4662 
Q 4231 4575 4609 4403 
L 4609 3438 
Q 4219 3659 3833 3768 
Q 3447 3878 3059 3878 
Q 2341 3878 1952 3476 
Q 1563 3075 1563 2328 
Q 1563 1588 1938 1184 
Q 2313 781 3003 781 
Q 3191 781 3352 804 
Q 3513 828 3641 878 
L 3641 1784 
L 2906 1784 
L 2906 2591 
L 4781 2591 
L 4781 347 
z
" transform="scale(0.015625)"/>
      <path id="DejaVuSans-Bold-50" d="M 588 4666 
L 2584 4666 
Q 3475 4666 3951 4270 
Q 4428 3875 4428 3144 
Q 4428 2409 3951 2014 
Q 3475 1619 2584 1619 
L 1791 1619 
L 1791 0 
L 588 0 
L 588 4666 
z
M 1791 3794 
L 1791 2491 
L 2456 2491 
Q 2806 2491 2997 2661 
Q 3188 2831 3188 3144 
Q 3188 3456 2997 3625 
Q 2806 3794 2456 3794 
L 1791 3794 
z
" transform="scale(0.015625)"/>
      <path id="DejaVuSans-Bold-55" d="M 588 4666 
L 1791 4666 
L 1791 1869 
Q 1791 1291 1980 1042 
Q 2169 794 2597 794 
Q 3028 794 3217 1042 
Q 3406 1291 3406 1869 
L 3406 4666 
L 4609 4666 
L 4609 1869 
Q 4609 878 4112 393 
Q 3616 -91 2597 -91 
Q 1581 -91 1084 393 
Q 588 878 588 1869 
L 588 4666 
z
" transform="scale(0.015625)"/>
      <path id="DejaVuSans-Bold-20" transform="scale(0.015625)"/>
      <path id="DejaVuSans-Bold-70" d="M 1656 506 
L 1656 -1331 
L 538 -1331 
L 538 3500 
L 1656 3500 
L 1656 2988 
Q 1888 3294 2169 3439 
Q 2450 3584 2816 3584 
Q 3463 3584 3878 3070 
Q 4294 2556 4294 1747 
Q 4294 938 3878 423 
Q 3463 -91 2816 -91 
Q 2450 -91 2169 54 
Q 1888 200 1656 506 
z
M 2400 2772 
Q 2041 2772 1848 2508 
Q 1656 2244 1656 1747 
Q 1656 1250 1848 986 
Q 2041 722 2400 722 
Q 2759 722 2948 984 
Q 3138 1247 3138 1747 
Q 3138 2247 2948 2509 
Q 2759 2772 2400 2772 
z
" transform="scale(0.015625)"/>
      <path id="DejaVuSans-Bold-6f" d="M 2203 2784 
Q 1831 2784 1636 2517 
Q 1441 2250 1441 1747 
Q 1441 1244 1636 976 
Q 1831 709 2203 709 
Q 2569 709 2762 976 
Q 2956 1244 2956 1747 
Q 2956 2250 2762 2517 
Q 2569 2784 2203 2784 
z
M 2203 3584 
Q 3106 3584 3614 3096 
Q 4122 2609 4122 1747 
Q 4122 884 3614 396 
Q 3106 -91 2203 -91 
Q 1297 -91 786 396 
Q 275 884 275 1747 
Q 275 2609 786 3096 
Q 1297 3584 2203 3584 
z
" transform="scale(0.015625)"/>
      <path id="DejaVuSans-Bold-77" d="M 225 3500 
L 1313 3500 
L 1900 1088 
L 2491 3500 
L 3425 3500 
L 4013 1113 
L 4603 3500 
L 5691 3500 
L 4769 0 
L 3547 0 
L 2956 2406 
L 2369 0 
L 1147 0 
L 225 3500 
z
" transform="scale(0.015625)"/>
      <path id="DejaVuSans-Bold-65" d="M 4031 1759 
L 4031 1441 
L 1416 1441 
Q 1456 1047 1700 850 
Q 1944 653 2381 653 
Q 2734 653 3104 758 
Q 3475 863 3866 1075 
L 3866 213 
Q 3469 63 3072 -14 
Q 2675 -91 2278 -91 
Q 1328 -91 801 392 
Q 275 875 275 1747 
Q 275 2603 792 3093 
Q 1309 3584 2216 3584 
Q 3041 3584 3536 3087 
Q 4031 2591 4031 1759 
z
M 2881 2131 
Q 2881 2450 2695 2645 
Q 2509 2841 2209 2841 
Q 1884 2841 1681 2658 
Q 1478 2475 1428 2131 
L 2881 2131 
z
" transform="scale(0.015625)"/>
      <path id="DejaVuSans-Bold-72" d="M 3138 2547 
Q 2991 2616 2845 2648 
Q 2700 2681 2553 2681 
Q 2122 2681 1889 2404 
Q 1656 2128 1656 1613 
L 1656 0 
L 538 0 
L 538 3500 
L 1656 3500 
L 1656 2925 
Q 1872 3269 2151 3426 
Q 2431 3584 2822 3584 
Q 2878 3584 2943 3579 
Q 3009 3575 3134 3559 
L 3138 2547 
z
" transform="scale(0.015625)"/>
      <path id="DejaVuSans-Bold-76" d="M 97 3500 
L 1216 3500 
L 2088 1081 
L 2956 3500 
L 4078 3500 
L 2700 0 
L 1472 0 
L 97 3500 
z
" transform="scale(0.015625)"/>
      <path id="DejaVuSans-Bold-74" d="M 1759 4494 
L 1759 3500 
L 2913 3500 
L 2913 2700 
L 1759 2700 
L 1759 1216 
Q 1759 972 1856 886 
Q 1953 800 2241 800 
L 2816 800 
L 2816 0 
L 1856 0 
Q 1194 0 917 276 
Q 641 553 641 1216 
L 641 2700 
L 84 2700 
L 84 3500 
L 641 3500 
L 641 4494 
L 1759 4494 
z
" transform="scale(0.015625)"/>
      <path id="DejaVuSans-Bold-69" d="M 538 3500 
L 1656 3500 
L 1656 0 
L 538 0 
L 538 3500 
z
M 538 4863 
L 1656 4863 
L 1656 3950 
L 538 3950 
L 538 4863 
z
" transform="scale(0.015625)"/>
      <path id="DejaVuSans-Bold-6d" d="M 3781 2919 
Q 3994 3244 4286 3414 
Q 4578 3584 4928 3584 
Q 5531 3584 5847 3212 
Q 6163 2841 6163 2131 
L 6163 0 
L 5038 0 
L 5038 1825 
Q 5041 1866 5042 1909 
Q 5044 1953 5044 2034 
Q 5044 2406 4934 2573 
Q 4825 2741 4581 2741 
Q 4263 2741 4089 2478 
Q 3916 2216 3909 1719 
L 3909 0 
L 2784 0 
L 2784 1825 
Q 2784 2406 2684 2573 
Q 2584 2741 2328 2741 
Q 2006 2741 1831 2477 
Q 1656 2213 1656 1722 
L 1656 0 
L 531 0 
L 531 3500 
L 1656 3500 
L 1656 2988 
Q 1863 3284 2130 3434 
Q 2397 3584 2719 3584 
Q 3081 3584 3359 3409 
Q 3638 3234 3781 2919 
z
" transform="scale(0.015625)"/>
     </defs>
     <use xlink:href="#DejaVuSans-Bold-47"/>
     <use xlink:href="#DejaVuSans-Bold-50" x="82.080078"/>
     <use xlink:href="#DejaVuSans-Bold-55" x="155.371094"/>
     <use xlink:href="#DejaVuSans-Bold-20" x="236.572266"/>
     <use xlink:href="#DejaVuSans-Bold-70" x="271.386719"/>
     <use xlink:href="#DejaVuSans-Bold-6f" x="342.96875"/>
     <use xlink:href="#DejaVuSans-Bold-77" x="411.669922"/>
     <use xlink:href="#DejaVuSans-Bold-65" x="504.052734"/>
     <use xlink:href="#DejaVuSans-Bold-72" x="571.875"/>
     <use xlink:href="#DejaVuSans-Bold-20" x="621.191406"/>
     <use xlink:href="#DejaVuSans-Bold-6f" x="656.005859"/>
     <use xlink:href="#DejaVuSans-Bold-76" x="724.707031"/>
     <use xlink:href="#DejaVuSans-Bold-65" x="789.892578"/>
     <use xlink:href="#DejaVuSans-Bold-72" x="857.714844"/>
     <use xlink:href="#DejaVuSans-Bold-20" x="907.03125"/>
     <use xlink:href="#DejaVuSans-Bold-74" x="941.845703"/>
     <use xlink:href="#DejaVuSans-Bold-69" x="989.648438"/>
     <use xlink:href="#DejaVuSans-Bold-6d" x="1023.925781"/>
     <use xlink:href="#DejaVuSans-Bold-65" x="1128.125"/>
    </g>
   </g>
   <g id="legend_1">
    <g id="patch_7">
     <path d="M 707.0875 67.67625 
L 848.2 67.67625 
Q 850.2 67.67625 850.2 65.67625 
L 850.2 37.32 
Q 850.2 35.32 848.2 35.32 
L 707.0875 35.32 
Q 705.0875 35.32 705.0875 37.32 
L 705.0875 65.67625 
Q 705.0875 67.67625 707.0875 67.67625 
z
" style="fill: #4d4d4d; opacity: 0.5; stroke: #4d4d4d; stroke-linejoin: miter"/>
    </g>
    <g id="patch_8">
     <path d="M 705.0875 65.67625 
L 846.2 65.67625 
Q 848.2 65.67625 848.2 63.67625 
L 848.2 35.32 
Q 848.2 33.32 846.2 33.32 
L 705.0875 33.32 
Q 703.0875 33.32 703.0875 35.32 
L 703.0875 63.67625 
Q 703.0875 65.67625 705.0875 65.67625 
z
" style="fill: #ffffff; stroke: #cccccc; stroke-linejoin: miter"/>
    </g>
    <g id="line2d_18">
     <path d="M 707.0875 41.418437 
L 717.0875 41.418437 
L 727.0875 41.418437 
" style="fill: none; stroke: #e74c3c; stroke-width: 2; stroke-linecap: square"/>
    </g>
    <g id="text_20">
     <!-- GPU power (W) -->
     <g transform="translate(735.0875 44.918437) scale(0.1 -0.1)">
      <defs>
       <path id="DejaVuSans-47" d="M 3809 666 
L 3809 1919 
L 2778 1919 
L 2778 2438 
L 4434 2438 
L 4434 434 
Q 4069 175 3628 42 
Q 3188 -91 2688 -91 
Q 1594 -91 976 548 
Q 359 1188 359 2328 
Q 359 3472 976 4111 
Q 1594 4750 2688 4750 
Q 3144 4750 3555 4637 
Q 3966 4525 4313 4306 
L 4313 3634 
Q 3963 3931 3569 4081 
Q 3175 4231 2741 4231 
Q 1884 4231 1454 3753 
Q 1025 3275 1025 2328 
Q 1025 1384 1454 906 
Q 1884 428 2741 428 
Q 3075 428 3337 486 
Q 3600 544 3809 666 
z
" transform="scale(0.015625)"/>
       <path id="DejaVuSans-55" d="M 556 4666 
L 1191 4666 
L 1191 1831 
Q 1191 1081 1462 751 
Q 1734 422 2344 422 
Q 2950 422 3222 751 
Q 3494 1081 3494 1831 
L 3494 4666 
L 4128 4666 
L 4128 1753 
Q 4128 841 3676 375 
Q 3225 -91 2344 -91 
Q 1459 -91 1007 375 
Q 556 841 556 1753 
L 556 4666 
z
" transform="scale(0.015625)"/>
       <path id="DejaVuSans-70" d="M 1159 525 
L 1159 -1331 
L 581 -1331 
L 581 3500 
L 1159 3500 
L 1159 2969 
Q 1341 3281 1617 3432 
Q 1894 3584 2278 3584 
Q 2916 3584 3314 3078 
Q 3713 2572 3713 1747 
Q 3713 922 3314 415 
Q 2916 -91 2278 -91 
Q 1894 -91 1617 61 
Q 1341 213 1159 525 
z
M 3116 1747 
Q 3116 2381 2855 2742 
Q 2594 3103 2138 3103 
Q 1681 3103 1420 2742 
Q 1159 2381 1159 1747 
Q 1159 1113 1420 752 
Q 1681 391 2138 391 
Q 2594 391 2855 752 
Q 3116 1113 3116 1747 
z
" transform="scale(0.015625)"/>
      </defs>
      <use xlink:href="#DejaVuSans-47"/>
      <use xlink:href="#DejaVuSans-50" x="77.490234"/>
      <use xlink:href="#DejaVuSans-55" x="137.792969"/>
      <use xlink:href="#DejaVuSans-20" x="210.986328"/>
      <use xlink:href="#DejaVuSans-70" x="242.773438"/>
      <use xlink:href="#DejaVuSans-6f" x="306.25"/>
      <use xlink:href="#DejaVuSans-77" x="367.431641"/>
      <use xlink:href="#DejaVuSans-65" x="449.21875"/>
      <use xlink:href="#DejaVuSans-72" x="510.742188"/>
      <use xlink:href="#DejaVuSans-20" x="551.855469"/>
      <use xlink:href="#DejaVuSans-28" x="583.642578"/>
      <use xlink:href="#DejaVuSans-57" x="622.65625"/>
      <use xlink:href="#DejaVuSans-29" x="721.533203"/>
     </g>
    </g>
    <g id="line2d_19">
     <path d="M 707.0875 56.096563 
L 717.0875 56.096563 
L 727.0875 56.096563 
" style="fill: none; stroke-dasharray: 7.4,3.2; stroke-dashoffset: 0; stroke: #000000; stroke-opacity: 0.9; stroke-width: 2"/>
    </g>
    <g id="text_21">
     <!-- Cooler on (5000 RPM) -->
     <g transform="translate(735.0875 59.596563) scale(0.1 -0.1)">
      <defs>
       <path id="DejaVuSans-43" d="M 4122 4306 
L 4122 3641 
Q 3803 3938 3442 4084 
Q 3081 4231 2675 4231 
Q 1875 4231 1450 3742 
Q 1025 3253 1025 2328 
Q 1025 1406 1450 917 
Q 1875 428 2675 428 
Q 3081 428 3442 575 
Q 3803 722 4122 1019 
L 4122 359 
Q 3791 134 3420 21 
Q 3050 -91 2638 -91 
Q 1578 -91 968 557 
Q 359 1206 359 2328 
Q 359 3453 968 4101 
Q 1578 4750 2638 4750 
Q 3056 4750 3426 4639 
Q 3797 4528 4122 4306 
z
" transform="scale(0.015625)"/>
       <path id="DejaVuSans-6c" d="M 603 4863 
L 1178 4863 
L 1178 0 
L 603 0 
L 603 4863 
z
" transform="scale(0.015625)"/>
       <path id="DejaVuSans-52" d="M 2841 2188 
Q 3044 2119 3236 1894 
Q 3428 1669 3622 1275 
L 4263 0 
L 3584 0 
L 2988 1197 
Q 2756 1666 2539 1819 
Q 2322 1972 1947 1972 
L 1259 1972 
L 1259 0 
L 628 0 
L 628 4666 
L 2053 4666 
Q 2853 4666 3247 4331 
Q 3641 3997 3641 3322 
Q 3641 2881 3436 2590 
Q 3231 2300 2841 2188 
z
M 1259 4147 
L 1259 2491 
L 2053 2491 
Q 2509 2491 2742 2702 
Q 2975 2913 2975 3322 
Q 2975 3731 2742 3939 
Q 2509 4147 2053 4147 
L 1259 4147 
z
" transform="scale(0.015625)"/>
      </defs>
      <use xlink:href="#DejaVuSans-43"/>
      <use xlink:href="#DejaVuSans-6f" x="69.824219"/>
      <use xlink:href="#DejaVuSans-6f" x="131.005859"/>
      <use xlink:href="#DejaVuSans-6c" x="192.1875"/>
      <use xlink:href="#DejaVuSans-65" x="219.970703"/>
      <use xlink:href="#DejaVuSans-72" x="281.494141"/>
      <use xlink:href="#DejaVuSans-20" x="322.607422"/>
      <use xlink:href="#DejaVuSans-6f" x="354.394531"/>
      <use xlink:href="#DejaVuSans-6e" x="415.576172"/>
      <use xlink:href="#DejaVuSans-20" x="478.955078"/>
      <use xlink:href="#DejaVuSans-28" x="510.742188"/>
      <use xlink:href="#DejaVuSans-35" x="549.755859"/>
      <use xlink:href="#DejaVuSans-30" x="613.378906"/>
      <use xlink:href="#DejaVuSans-30" x="677.001953"/>
      <use xlink:href="#DejaVuSans-30" x="740.625"/>
      <use xlink:href="#DejaVuSans-20" x="804.248047"/>
      <use xlink:href="#DejaVuSans-52" x="836.035156"/>
      <use xlink:href="#DejaVuSans-50" x="905.517578"/>
      <use xlink:href="#DejaVuSans-4d" x="965.820312"/>
      <use xlink:href="#DejaVuSans-29" x="1052.099609"/>
     </g>
    </g>
   </g>
   <g id="line2d_20">
    <path d="M 144.292245 387.16 
L 144.292245 28.32 
" clip-path="url(#p3506100baa)" style="fill: none; stroke-dasharray: 7.4,3.2; stroke-dashoffset: 0; stroke: #000000; stroke-opacity: 0.9; stroke-width: 2"/>
   </g>
  </g>
 </g>
 <defs>
  <clipPath id="p3506100baa">
   <rect x="53.75" y="28.32" width="799.45" height="358.84"/>
  </clipPath>
 </defs>
</svg>
