<?xml version="1.0" encoding="utf-8" standalone="no"?>
<!DOCTYPE svg PUBLIC "-//W3C//DTD SVG 1.1//EN"
  "http://www.w3.org/Graphics/SVG/1.1/DTD/svg11.dtd">
<svg xmlns:xlink="http://www.w3.org/1999/xlink" width="864pt" height="432pt" viewBox="0 0 864 432" xmlns="http://www.w3.org/2000/svg" version="1.1">
 <metadata>
  <rdf:RDF xmlns:dc="http://purl.org/dc/elements/1.1/" xmlns:cc="http://creativecommons.org/ns#" xmlns:rdf="http://www.w3.org/1999/02/22-rdf-syntax-ns#">
   <cc:Work>
    <dc:type rdf:resource="http://purl.org/dc/dcmitype/StillImage"/>
    <dc:date>2026-05-21T23:06:06.084385</dc:date>
    <dc:format>image/svg+xml</dc:format>
    <dc:creator>
     <cc:Agent>
      <dc:title>Matplotlib v3.9.2, https://matplotlib.org/</dc:title>
     </cc:Agent>
    </dc:creator>
   </cc:Work>
  </rdf:RDF>
 </metadata>
 <defs>
  <style type="text/css">*{stroke-linejoin: round; stroke-linecap: butt}</style>
 </defs>
 <g id="figure_1">
  <g id="patch_1">
   <path d="M 0 432 
L 864 432 
L 864 0 
L 0 0 
z
" style="fill: #ffffff"/>
  </g>
  <g id="axes_1">
   <g id="patch_2">
    <path d="M 47.45 387.16 
L 853.2 387.16 
L 853.2 28.32 
L 47.45 28.32 
z
" style="fill: #ffffff"/>
   </g>
   <g id="matplotlib.axis_1">
    <g id="xtick_1">
     <g id="line2d_1">
      <defs>
       <path id="m9956603ba5" d="M 0 0 
L 0 3.5 
" style="stroke: #000000; stroke-width: 0.8"/>
      </defs>
      <g>
       <use xlink:href="#m9956603ba5" x="47.45" y="387.16" style="stroke: #000000; stroke-width: 0.8"/>
      </g>
     </g>
     <g id="text_1">
      <!-- 0 -->
      <g transform="translate(44.26875 401.758438) scale(0.1 -0.1)">
       <defs>
        <path id="DejaVuSans-30" d="M 2034 4250 
Q 1547 4250 1301 3770 
Q 1056 3291 1056 2328 
Q 1056 1369 1301 889 
Q 1547 409 2034 409 
Q 2525 409 2770 889 
Q 3016 1369 3016 2328 
Q 3016 3291 2770 3770 
Q 2525 4250 2034 4250 
z
M 2034 4750 
Q 2819 4750 3233 4129 
Q 3647 3509 3647 2328 
Q 3647 1150 3233 529 
Q 2819 -91 2034 -91 
Q 1250 -91 836 529 
Q 422 1150 422 2328 
Q 422 3509 836 4129 
Q 1250 4750 2034 4750 
z
" transform="scale(0.015625)"/>
       </defs>
       <use xlink:href="#DejaVuSans-30"/>
      </g>
     </g>
    </g>
    <g id="xtick_2">
     <g id="line2d_2">
      <g>
       <use xlink:href="#m9956603ba5" x="148.845285" y="387.16" style="stroke: #000000; stroke-width: 0.8"/>
      </g>
     </g>
     <g id="text_2">
      <!-- 5 -->
      <g transform="translate(145.664035 401.758438) scale(0.1 -0.1)">
       <defs>
        <path id="DejaVuSans-35" d="M 691 4666 
L 3169 4666 
L 3169 4134 
L 1269 4134 
L 1269 2991 
Q 1406 3038 1543 3061 
Q 1681 3084 1819 3084 
Q 2600 3084 3056 2656 
Q 3513 2228 3513 1497 
Q 3513 744 3044 326 
Q 2575 -91 1722 -91 
Q 1428 -91 1123 -41 
Q 819 9 494 109 
L 494 744 
Q 775 591 1075 516 
Q 1375 441 1709 441 
Q 2250 441 2565 725 
Q 2881 1009 2881 1497 
Q 2881 1984 2565 2268 
Q 2250 2553 1709 2553 
Q 1456 2553 1204 2497 
Q 953 2441 691 2322 
L 691 4666 
z
" transform="scale(0.015625)"/>
       </defs>
       <use xlink:href="#DejaVuSans-35"/>
      </g>
     </g>
    </g>
    <g id="xtick_3">
     <g id="line2d_3">
      <g>
       <use xlink:href="#m9956603ba5" x="250.240569" y="387.16" style="stroke: #000000; stroke-width: 0.8"/>
      </g>
     </g>
     <g id="text_3">
      <!-- 10 -->
      <g transform="translate(243.878069 401.758438) scale(0.1 -0.1)">
       <defs>
        <path id="DejaVuSans-31" d="M 794 531 
L 1825 531 
L 1825 4091 
L 703 3866 
L 703 4441 
L 1819 4666 
L 2450 4666 
L 2450 531 
L 3481 531 
L 3481 0 
L 794 0 
L 794 531 
z
" transform="scale(0.015625)"/>
       </defs>
       <use xlink:href="#DejaVuSans-31"/>
       <use xlink:href="#DejaVuSans-30" x="63.623047"/>
      </g>
     </g>
    </g>
    <g id="xtick_4">
     <g id="line2d_4">
      <g>
       <use xlink:href="#m9956603ba5" x="351.635854" y="387.16" style="stroke: #000000; stroke-width: 0.8"/>
      </g>
     </g>
     <g id="text_4">
      <!-- 15 -->
      <g transform="translate(345.273354 401.758438) scale(0.1 -0.1)">
       <use xlink:href="#DejaVuSans-31"/>
       <use xlink:href="#DejaVuSans-35" x="63.623047"/>
      </g>
     </g>
    </g>
    <g id="xtick_5">
     <g id="line2d_5">
      <g>
       <use xlink:href="#m9956603ba5" x="453.031139" y="387.16" style="stroke: #000000; stroke-width: 0.8"/>
      </g>
     </g>
     <g id="text_5">
      <!-- 20 -->
      <g transform="translate(446.668639 401.758438) scale(0.1 -0.1)">
       <defs>
        <path id="DejaVuSans-32" d="M 1228 531 
L 3431 531 
L 3431 0 
L 469 0 
L 469 531 
Q 828 903 1448 1529 
Q 2069 2156 2228 2338 
Q 2531 2678 2651 2914 
Q 2772 3150 2772 3378 
Q 2772 3750 2511 3984 
Q 2250 4219 1831 4219 
Q 1534 4219 1204 4116 
Q 875 4013 500 3803 
L 500 4441 
Q 881 4594 1212 4672 
Q 1544 4750 1819 4750 
Q 2544 4750 2975 4387 
Q 3406 4025 3406 3419 
Q 3406 3131 3298 2873 
Q 3191 2616 2906 2266 
Q 2828 2175 2409 1742 
Q 1991 1309 1228 531 
z
" transform="scale(0.015625)"/>
       </defs>
       <use xlink:href="#DejaVuSans-32"/>
       <use xlink:href="#DejaVuSans-30" x="63.623047"/>
      </g>
     </g>
    </g>
    <g id="xtick_6">
     <g id="line2d_6">
      <g>
       <use xlink:href="#m9956603ba5" x="554.426423" y="387.16" style="stroke: #000000; stroke-width: 0.8"/>
      </g>
     </g>
     <g id="text_6">
      <!-- 25 -->
      <g transform="translate(548.063923 401.758438) scale(0.1 -0.1)">
       <use xlink:href="#DejaVuSans-32"/>
       <use xlink:href="#DejaVuSans-35" x="63.623047"/>
      </g>
     </g>
    </g>
    <g id="xtick_7">
     <g id="line2d_7">
      <g>
       <use xlink:href="#m9956603ba5" x="655.821708" y="387.16" style="stroke: #000000; stroke-width: 0.8"/>
      </g>
     </g>
     <g id="text_7">
      <!-- 30 -->
      <g transform="translate(649.459208 401.758438) scale(0.1 -0.1)">
       <defs>
        <path id="DejaVuSans-33" d="M 2597 2516 
Q 3050 2419 3304 2112 
Q 3559 1806 3559 1356 
Q 3559 666 3084 287 
Q 2609 -91 1734 -91 
Q 1441 -91 1130 -33 
Q 819 25 488 141 
L 488 750 
Q 750 597 1062 519 
Q 1375 441 1716 441 
Q 2309 441 2620 675 
Q 2931 909 2931 1356 
Q 2931 1769 2642 2001 
Q 2353 2234 1838 2234 
L 1294 2234 
L 1294 2753 
L 1863 2753 
Q 2328 2753 2575 2939 
Q 2822 3125 2822 3475 
Q 2822 3834 2567 4026 
Q 2313 4219 1838 4219 
Q 1578 4219 1281 4162 
Q 984 4106 628 3988 
L 628 4550 
Q 988 4650 1302 4700 
Q 1616 4750 1894 4750 
Q 2613 4750 3031 4423 
Q 3450 4097 3450 3541 
Q 3450 3153 3228 2886 
Q 3006 2619 2597 2516 
z
" transform="scale(0.015625)"/>
       </defs>
       <use xlink:href="#DejaVuSans-33"/>
       <use xlink:href="#DejaVuSans-30" x="63.623047"/>
      </g>
     </g>
    </g>
    <g id="xtick_8">
     <g id="line2d_8">
      <g>
       <use xlink:href="#m9956603ba5" x="757.216993" y="387.16" style="stroke: #000000; stroke-width: 0.8"/>
      </g>
     </g>
     <g id="text_8">
      <!-- 35 -->
      <g transform="translate(750.854493 401.758438) scale(0.1 -0.1)">
       <use xlink:href="#DejaVuSans-33"/>
       <use xlink:href="#DejaVuSans-35" x="63.623047"/>
      </g>
     </g>
    </g>
    <g id="text_9">
     <!-- Test duration (Minutes) -->
     <g transform="translate(381.14875 416.95625) scale(0.12 -0.12)">
      <defs>
       <path id="DejaVuSans-54" d="M -19 4666 
L 3928 4666 
L 3928 4134 
L 2272 4134 
L 2272 0 
L 1638 0 
L 1638 4134 
L -19 4134 
L -19 4666 
z
" transform="scale(0.015625)"/>
       <path id="DejaVuSans-65" d="M 3597 1894 
L 3597 1613 
L 953 1613 
Q 991 1019 1311 708 
Q 1631 397 2203 397 
Q 2534 397 2845 478 
Q 3156 559 3463 722 
L 3463 178 
Q 3153 47 2828 -22 
Q 2503 -91 2169 -91 
Q 1331 -91 842 396 
Q 353 884 353 1716 
Q 353 2575 817 3079 
Q 1281 3584 2069 3584 
Q 2775 3584 3186 3129 
Q 3597 2675 3597 1894 
z
M 3022 2063 
Q 3016 2534 2758 2815 
Q 2500 3097 2075 3097 
Q 1594 3097 1305 2825 
Q 1016 2553 972 2059 
L 3022 2063 
z
" transform="scale(0.015625)"/>
       <path id="DejaVuSans-73" d="M 2834 3397 
L 2834 2853 
Q 2591 2978 2328 3040 
Q 2066 3103 1784 3103 
Q 1356 3103 1142 2972 
Q 928 2841 928 2578 
Q 928 2378 1081 2264 
Q 1234 2150 1697 2047 
L 1894 2003 
Q 2506 1872 2764 1633 
Q 3022 1394 3022 966 
Q 3022 478 2636 193 
Q 2250 -91 1575 -91 
Q 1294 -91 989 -36 
Q 684 19 347 128 
L 347 722 
Q 666 556 975 473 
Q 1284 391 1588 391 
Q 1994 391 2212 530 
Q 2431 669 2431 922 
Q 2431 1156 2273 1281 
Q 2116 1406 1581 1522 
L 1381 1569 
Q 847 1681 609 1914 
Q 372 2147 372 2553 
Q 372 3047 722 3315 
Q 1072 3584 1716 3584 
Q 2034 3584 2315 3537 
Q 2597 3491 2834 3397 
z
" transform="scale(0.015625)"/>
       <path id="DejaVuSans-74" d="M 1172 4494 
L 1172 3500 
L 2356 3500 
L 2356 3053 
L 1172 3053 
L 1172 1153 
Q 1172 725 1289 603 
Q 1406 481 1766 481 
L 2356 481 
L 2356 0 
L 1766 0 
Q 1100 0 847 248 
Q 594 497 594 1153 
L 594 3053 
L 172 3053 
L 172 3500 
L 594 3500 
L 594 4494 
L 1172 4494 
z
" transform="scale(0.015625)"/>
       <path id="DejaVuSans-20" transform="scale(0.015625)"/>
       <path id="DejaVuSans-64" d="M 2906 2969 
L 2906 4863 
L 3481 4863 
L 3481 0 
L 2906 0 
L 2906 525 
Q 2725 213 2448 61 
Q 2172 -91 1784 -91 
Q 1150 -91 751 415 
Q 353 922 353 1747 
Q 353 2572 751 3078 
Q 1150 3584 1784 3584 
Q 2172 3584 2448 3432 
Q 2725 3281 2906 2969 
z
M 947 1747 
Q 947 1113 1208 752 
Q 1469 391 1925 391 
Q 2381 391 2643 752 
Q 2906 1113 2906 1747 
Q 2906 2381 2643 2742 
Q 2381 3103 1925 3103 
Q 1469 3103 1208 2742 
Q 947 2381 947 1747 
z
" transform="scale(0.015625)"/>
       <path id="DejaVuSans-75" d="M 544 1381 
L 544 3500 
L 1119 3500 
L 1119 1403 
Q 1119 906 1312 657 
Q 1506 409 1894 409 
Q 2359 409 2629 706 
Q 2900 1003 2900 1516 
L 2900 3500 
L 3475 3500 
L 3475 0 
L 2900 0 
L 2900 538 
Q 2691 219 2414 64 
Q 2138 -91 1772 -91 
Q 1169 -91 856 284 
Q 544 659 544 1381 
z
M 1991 3584 
L 1991 3584 
z
" transform="scale(0.015625)"/>
       <path id="DejaVuSans-72" d="M 2631 2963 
Q 2534 3019 2420 3045 
Q 2306 3072 2169 3072 
Q 1681 3072 1420 2755 
Q 1159 2438 1159 1844 
L 1159 0 
L 581 0 
L 581 3500 
L 1159 3500 
L 1159 2956 
Q 1341 3275 1631 3429 
Q 1922 3584 2338 3584 
Q 2397 3584 2469 3576 
Q 2541 3569 2628 3553 
L 2631 2963 
z
" transform="scale(0.015625)"/>
       <path id="DejaVuSans-61" d="M 2194 1759 
Q 1497 1759 1228 1600 
Q 959 1441 959 1056 
Q 959 750 1161 570 
Q 1363 391 1709 391 
Q 2188 391 2477 730 
Q 2766 1069 2766 1631 
L 2766 1759 
L 2194 1759 
z
M 3341 1997 
L 3341 0 
L 2766 0 
L 2766 531 
Q 2569 213 2275 61 
Q 1981 -91 1556 -91 
Q 1019 -91 701 211 
Q 384 513 384 1019 
Q 384 1609 779 1909 
Q 1175 2209 1959 2209 
L 2766 2209 
L 2766 2266 
Q 2766 2663 2505 2880 
Q 2244 3097 1772 3097 
Q 1472 3097 1187 3025 
Q 903 2953 641 2809 
L 641 3341 
Q 956 3463 1253 3523 
Q 1550 3584 1831 3584 
Q 2591 3584 2966 3190 
Q 3341 2797 3341 1997 
z
" transform="scale(0.015625)"/>
       <path id="DejaVuSans-69" d="M 603 3500 
L 1178 3500 
L 1178 0 
L 603 0 
L 603 3500 
z
M 603 4863 
L 1178 4863 
L 1178 4134 
L 603 4134 
L 603 4863 
z
" transform="scale(0.015625)"/>
       <path id="DejaVuSans-6f" d="M 1959 3097 
Q 1497 3097 1228 2736 
Q 959 2375 959 1747 
Q 959 1119 1226 758 
Q 1494 397 1959 397 
Q 2419 397 2687 759 
Q 2956 1122 2956 1747 
Q 2956 2369 2687 2733 
Q 2419 3097 1959 3097 
z
M 1959 3584 
Q 2709 3584 3137 3096 
Q 3566 2609 3566 1747 
Q 3566 888 3137 398 
Q 2709 -91 1959 -91 
Q 1206 -91 779 398 
Q 353 888 353 1747 
Q 353 2609 779 3096 
Q 1206 3584 1959 3584 
z
" transform="scale(0.015625)"/>
       <path id="DejaVuSans-6e" d="M 3513 2113 
L 3513 0 
L 2938 0 
L 2938 2094 
Q 2938 2591 2744 2837 
Q 2550 3084 2163 3084 
Q 1697 3084 1428 2787 
Q 1159 2491 1159 1978 
L 1159 0 
L 581 0 
L 581 3500 
L 1159 3500 
L 1159 2956 
Q 1366 3272 1645 3428 
Q 1925 3584 2291 3584 
Q 2894 3584 3203 3211 
Q 3513 2838 3513 2113 
z
" transform="scale(0.015625)"/>
       <path id="DejaVuSans-28" d="M 1984 4856 
Q 1566 4138 1362 3434 
Q 1159 2731 1159 2009 
Q 1159 1288 1364 580 
Q 1569 -128 1984 -844 
L 1484 -844 
Q 1016 -109 783 600 
Q 550 1309 550 2009 
Q 550 2706 781 3412 
Q 1013 4119 1484 4856 
L 1984 4856 
z
" transform="scale(0.015625)"/>
       <path id="DejaVuSans-4d" d="M 628 4666 
L 1569 4666 
L 2759 1491 
L 3956 4666 
L 4897 4666 
L 4897 0 
L 4281 0 
L 4281 4097 
L 3078 897 
L 2444 897 
L 1241 4097 
L 1241 0 
L 628 0 
L 628 4666 
z
" transform="scale(0.015625)"/>
       <path id="DejaVuSans-29" d="M 513 4856 
L 1013 4856 
Q 1481 4119 1714 3412 
Q 1947 2706 1947 2009 
Q 1947 1309 1714 600 
Q 1481 -109 1013 -844 
L 513 -844 
Q 928 -128 1133 580 
Q 1338 1288 1338 2009 
Q 1338 2731 1133 3434 
Q 928 4138 513 4856 
z
" transform="scale(0.015625)"/>
      </defs>
      <use xlink:href="#DejaVuSans-54"/>
      <use xlink:href="#DejaVuSans-65" x="44.083984"/>
      <use xlink:href="#DejaVuSans-73" x="105.607422"/>
      <use xlink:href="#DejaVuSans-74" x="157.707031"/>
      <use xlink:href="#DejaVuSans-20" x="196.916016"/>
      <use xlink:href="#DejaVuSans-64" x="228.703125"/>
      <use xlink:href="#DejaVuSans-75" x="292.179688"/>
      <use xlink:href="#DejaVuSans-72" x="355.558594"/>
      <use xlink:href="#DejaVuSans-61" x="396.671875"/>
      <use xlink:href="#DejaVuSans-74" x="457.951172"/>
      <use xlink:href="#DejaVuSans-69" x="497.160156"/>
      <use xlink:href="#DejaVuSans-6f" x="524.943359"/>
      <use xlink:href="#DejaVuSans-6e" x="586.125"/>
      <use xlink:href="#DejaVuSans-20" x="649.503906"/>
      <use xlink:href="#DejaVuSans-28" x="681.291016"/>
      <use xlink:href="#DejaVuSans-4d" x="720.304688"/>
      <use xlink:href="#DejaVuSans-69" x="806.583984"/>
      <use xlink:href="#DejaVuSans-6e" x="834.367188"/>
      <use xlink:href="#DejaVuSans-75" x="897.746094"/>
      <use xlink:href="#DejaVuSans-74" x="961.125"/>
      <use xlink:href="#DejaVuSans-65" x="1000.333984"/>
      <use xlink:href="#DejaVuSans-73" x="1061.857422"/>
      <use xlink:href="#DejaVuSans-29" x="1113.957031"/>
     </g>
    </g>
   </g>
   <g id="matplotlib.axis_2">
    <g id="ytick_1">
     <g id="line2d_9">
      <defs>
       <path id="m3d9698f61d" d="M 0 0 
L -3.5 0 
" style="stroke: #000000; stroke-width: 0.8"/>
      </defs>
      <g>
       <use xlink:href="#m3d9698f61d" x="47.45" y="387.16" style="stroke: #000000; stroke-width: 0.8"/>
      </g>
     </g>
     <g id="text_10">
      <!-- 0 -->
      <g transform="translate(34.0875 390.959219) scale(0.1 -0.1)">
       <use xlink:href="#DejaVuSans-30"/>
      </g>
     </g>
    </g>
    <g id="ytick_2">
     <g id="line2d_10">
      <g>
       <use xlink:href="#m3d9698f61d" x="47.45" y="312.51053" style="stroke: #000000; stroke-width: 0.8"/>
      </g>
     </g>
     <g id="text_11">
      <!-- 20 -->
      <g transform="translate(27.725 316.309749) scale(0.1 -0.1)">
       <use xlink:href="#DejaVuSans-32"/>
       <use xlink:href="#DejaVuSans-30" x="63.623047"/>
      </g>
     </g>
    </g>
    <g id="ytick_3">
     <g id="line2d_11">
      <g>
       <use xlink:href="#m3d9698f61d" x="47.45" y="237.861061" style="stroke: #000000; stroke-width: 0.8"/>
      </g>
     </g>
     <g id="text_12">
      <!-- 40 -->
      <g transform="translate(27.725 241.66028) scale(0.1 -0.1)">
       <defs>
        <path id="DejaVuSans-34" d="M 2419 4116 
L 825 1625 
L 2419 1625 
L 2419 4116 
z
M 2253 4666 
L 3047 4666 
L 3047 1625 
L 3713 1625 
L 3713 1100 
L 3047 1100 
L 3047 0 
L 2419 0 
L 2419 1100 
L 313 1100 
L 313 1709 
L 2253 4666 
z
" transform="scale(0.015625)"/>
       </defs>
       <use xlink:href="#DejaVuSans-34"/>
       <use xlink:href="#DejaVuSans-30" x="63.623047"/>
      </g>
     </g>
    </g>
    <g id="ytick_4">
     <g id="line2d_12">
      <g>
       <use xlink:href="#m3d9698f61d" x="47.45" y="163.211591" style="stroke: #000000; stroke-width: 0.8"/>
      </g>
     </g>
     <g id="text_13">
      <!-- 60 -->
      <g transform="translate(27.725 167.01081) scale(0.1 -0.1)">
       <defs>
        <path id="DejaVuSans-36" d="M 2113 2584 
Q 1688 2584 1439 2293 
Q 1191 2003 1191 1497 
Q 1191 994 1439 701 
Q 1688 409 2113 409 
Q 2538 409 2786 701 
Q 3034 994 3034 1497 
Q 3034 2003 2786 2293 
Q 2538 2584 2113 2584 
z
M 3366 4563 
L 3366 3988 
Q 3128 4100 2886 4159 
Q 2644 4219 2406 4219 
Q 1781 4219 1451 3797 
Q 1122 3375 1075 2522 
Q 1259 2794 1537 2939 
Q 1816 3084 2150 3084 
Q 2853 3084 3261 2657 
Q 3669 2231 3669 1497 
Q 3669 778 3244 343 
Q 2819 -91 2113 -91 
Q 1303 -91 875 529 
Q 447 1150 447 2328 
Q 447 3434 972 4092 
Q 1497 4750 2381 4750 
Q 2619 4750 2861 4703 
Q 3103 4656 3366 4563 
z
" transform="scale(0.015625)"/>
       </defs>
       <use xlink:href="#DejaVuSans-36"/>
       <use xlink:href="#DejaVuSans-30" x="63.623047"/>
      </g>
     </g>
    </g>
    <g id="ytick_5">
     <g id="line2d_13">
      <g>
       <use xlink:href="#m3d9698f61d" x="47.45" y="88.562122" style="stroke: #000000; stroke-width: 0.8"/>
      </g>
     </g>
     <g id="text_14">
      <!-- 80 -->
      <g transform="translate(27.725 92.361341) scale(0.1 -0.1)">
       <defs>
        <path id="DejaVuSans-38" d="M 2034 2216 
Q 1584 2216 1326 1975 
Q 1069 1734 1069 1313 
Q 1069 891 1326 650 
Q 1584 409 2034 409 
Q 2484 409 2743 651 
Q 3003 894 3003 1313 
Q 3003 1734 2745 1975 
Q 2488 2216 2034 2216 
z
M 1403 2484 
Q 997 2584 770 2862 
Q 544 3141 544 3541 
Q 544 4100 942 4425 
Q 1341 4750 2034 4750 
Q 2731 4750 3128 4425 
Q 3525 4100 3525 3541 
Q 3525 3141 3298 2862 
Q 3072 2584 2669 2484 
Q 3125 2378 3379 2068 
Q 3634 1759 3634 1313 
Q 3634 634 3220 271 
Q 2806 -91 2034 -91 
Q 1263 -91 848 271 
Q 434 634 434 1313 
Q 434 1759 690 2068 
Q 947 2378 1403 2484 
z
M 1172 3481 
Q 1172 3119 1398 2916 
Q 1625 2713 2034 2713 
Q 2441 2713 2670 2916 
Q 2900 3119 2900 3481 
Q 2900 3844 2670 4047 
Q 2441 4250 2034 4250 
Q 1625 4250 1398 4047 
Q 1172 3844 1172 3481 
z
" transform="scale(0.015625)"/>
       </defs>
       <use xlink:href="#DejaVuSans-38"/>
       <use xlink:href="#DejaVuSans-30" x="63.623047"/>
      </g>
     </g>
    </g>
    <g id="text_15">
     <!-- Temperature (°C) -->
     <g transform="translate(21.229375 259.521875) rotate(-90) scale(0.12 -0.12)">
      <defs>
       <path id="DejaVuSans-6d" d="M 3328 2828 
Q 3544 3216 3844 3400 
Q 4144 3584 4550 3584 
Q 5097 3584 5394 3201 
Q 5691 2819 5691 2113 
L 5691 0 
L 5113 0 
L 5113 2094 
Q 5113 2597 4934 2840 
Q 4756 3084 4391 3084 
Q 3944 3084 3684 2787 
Q 3425 2491 3425 1978 
L 3425 0 
L 2847 0 
L 2847 2094 
Q 2847 2600 2669 2842 
Q 2491 3084 2119 3084 
Q 1678 3084 1418 2786 
Q 1159 2488 1159 1978 
L 1159 0 
L 581 0 
L 581 3500 
L 1159 3500 
L 1159 2956 
Q 1356 3278 1631 3431 
Q 1906 3584 2284 3584 
Q 2666 3584 2933 3390 
Q 3200 3197 3328 2828 
z
" transform="scale(0.015625)"/>
       <path id="DejaVuSans-70" d="M 1159 525 
L 1159 -1331 
L 581 -1331 
L 581 3500 
L 1159 3500 
L 1159 2969 
Q 1341 3281 1617 3432 
Q 1894 3584 2278 3584 
Q 2916 3584 3314 3078 
Q 3713 2572 3713 1747 
Q 3713 922 3314 415 
Q 2916 -91 2278 -91 
Q 1894 -91 1617 61 
Q 1341 213 1159 525 
z
M 3116 1747 
Q 3116 2381 2855 2742 
Q 2594 3103 2138 3103 
Q 1681 3103 1420 2742 
Q 1159 2381 1159 1747 
Q 1159 1113 1420 752 
Q 1681 391 2138 391 
Q 2594 391 2855 752 
Q 3116 1113 3116 1747 
z
" transform="scale(0.015625)"/>
       <path id="DejaVuSans-b0" d="M 1600 4347 
Q 1350 4347 1178 4173 
Q 1006 4000 1006 3750 
Q 1006 3503 1178 3333 
Q 1350 3163 1600 3163 
Q 1850 3163 2022 3333 
Q 2194 3503 2194 3750 
Q 2194 3997 2020 4172 
Q 1847 4347 1600 4347 
z
M 1600 4750 
Q 1800 4750 1984 4673 
Q 2169 4597 2303 4453 
Q 2447 4313 2519 4134 
Q 2591 3956 2591 3750 
Q 2591 3338 2302 3052 
Q 2013 2766 1594 2766 
Q 1172 2766 890 3047 
Q 609 3328 609 3750 
Q 609 4169 896 4459 
Q 1184 4750 1600 4750 
z
" transform="scale(0.015625)"/>
       <path id="DejaVuSans-43" d="M 4122 4306 
L 4122 3641 
Q 3803 3938 3442 4084 
Q 3081 4231 2675 4231 
Q 1875 4231 1450 3742 
Q 1025 3253 1025 2328 
Q 1025 1406 1450 917 
Q 1875 428 2675 428 
Q 3081 428 3442 575 
Q 3803 722 4122 1019 
L 4122 359 
Q 3791 134 3420 21 
Q 3050 -91 2638 -91 
Q 1578 -91 968 557 
Q 359 1206 359 2328 
Q 359 3453 968 4101 
Q 1578 4750 2638 4750 
Q 3056 4750 3426 4639 
Q 3797 4528 4122 4306 
z
" transform="scale(0.015625)"/>
      </defs>
      <use xlink:href="#DejaVuSans-54"/>
      <use xlink:href="#DejaVuSans-65" x="44.083984"/>
      <use xlink:href="#DejaVuSans-6d" x="105.607422"/>
      <use xlink:href="#DejaVuSans-70" x="203.019531"/>
      <use xlink:href="#DejaVuSans-65" x="266.496094"/>
      <use xlink:href="#DejaVuSans-72" x="328.019531"/>
      <use xlink:href="#DejaVuSans-61" x="369.132812"/>
      <use xlink:href="#DejaVuSans-74" x="430.412109"/>
      <use xlink:href="#DejaVuSans-75" x="469.621094"/>
      <use xlink:href="#DejaVuSans-72" x="533"/>
      <use xlink:href="#DejaVuSans-65" x="571.863281"/>
      <use xlink:href="#DejaVuSans-20" x="633.386719"/>
      <use xlink:href="#DejaVuSans-28" x="665.173828"/>
      <use xlink:href="#DejaVuSans-b0" x="704.1875"/>
      <use xlink:href="#DejaVuSans-43" x="754.1875"/>
      <use xlink:href="#DejaVuSans-29" x="824.011719"/>
     </g>
    </g>
   </g>
   <g id="line2d_14">
    <path d="M 47.45 387.16 
L 49.474526 387.16 
L 50.158606 208.747768 
L 51.510881 205.761789 
L 52.86417 202.402563 
L 53.67736 200.909574 
L 54.222867 204.2688 
L 54.904919 196.803853 
L 55.585282 196.430605 
L 56.263954 199.043337 
L 56.936543 193.817874 
L 57.617919 196.430605 
L 58.298282 196.057358 
L 59.657316 193.817874 
L 60.340045 194.191121 
L 61.019055 191.951637 
L 61.693334 150.521182 
L 62.36288 137.830772 
L 63.042567 174.035765 
L 63.720563 182.247206 
L 64.401264 182.247206 
L 65.075542 140.070256 
L 65.757933 133.725051 
L 66.432211 121.781136 
L 67.10649 141.189998 
L 67.780769 128.499588 
L 68.455047 127.006599 
L 69.132368 125.140362 
L 69.80766 134.098298 
L 70.486671 122.527631 
L 71.160273 117.675415 
L 71.835904 118.795157 
L 72.513562 113.942942 
L 73.191559 113.942942 
L 73.871245 111.33021 
L 74.549918 111.33021 
L 75.227576 110.583715 
L 75.905235 110.210468 
L 76.590667 107.970984 
L 77.266635 108.717479 
L 77.945984 108.344231 
L 78.62736 105.358253 
L 79.300287 137.084277 
L 79.979973 142.30974 
L 80.653914 144.549224 
L 81.329206 149.40144 
L 82.002809 149.40144 
L 82.683847 150.894429 
L 83.359816 110.583715 
L 84.041192 108.344231 
L 84.715471 101.625779 
L 85.390426 88.935369 
L 86.066732 89.308617 
L 86.745067 87.815627 
L 87.425091 87.815627 
L 88.104439 88.562122 
L 88.779394 84.456401 
L 89.456377 84.083154 
L 90.130655 126.260104 
L 90.81068 132.978556 
L 91.489352 131.11232 
L 92.165321 134.844793 
L 92.848725 137.084277 
L 93.524693 137.457524 
L 94.199986 132.605309 
L 95.548543 134.098298 
L 96.234313 134.471546 
L 96.908254 101.999026 
L 97.589968 97.520058 
L 98.267965 88.935369 
L 98.941905 83.709906 
L 99.621592 81.470422 
L 100.297898 78.111196 
L 101.653215 75.125217 
L 102.335268 77.737949 
L 103.009208 72.512486 
L 103.688895 72.139239 
L 104.362497 71.392744 
L 105.037452 69.899755 
L 105.72018 70.646249 
L 106.393783 71.019497 
L 107.070089 69.15326 
L 107.751804 67.66027 
L 109.103741 66.167281 
L 109.790525 66.167281 
L 110.472577 65.047539 
L 111.145166 64.674292 
L 111.824852 66.167281 
L 112.502511 65.794034 
L 113.187943 63.927797 
L 113.866953 65.794034 
L 114.538866 63.927797 
L 115.220242 63.927797 
L 115.893845 63.55455 
L 117.248148 65.047539 
L 117.927159 61.688313 
L 118.600761 64.301044 
L 119.285179 63.181302 
L 120.641848 64.674292 
L 121.314099 66.167281 
L 121.992095 65.420786 
L 122.669754 65.794034 
L 123.345385 64.301044 
L 124.030141 64.674292 
L 124.699688 63.927797 
L 125.38343 63.927797 
L 126.061764 63.181302 
L 126.742803 65.047539 
L 127.426545 65.047539 
L 128.103527 62.06156 
L 128.777468 63.55455 
L 129.457154 64.674292 
L 130.809429 64.674292 
L 131.48337 65.047539 
L 132.165084 63.181302 
L 133.520401 63.181302 
L 134.200088 92.294595 
L 134.872338 100.13279 
L 135.551349 97.893306 
L 136.231373 99.759542 
L 136.910046 101.252532 
L 137.593112 102.372274 
L 138.27246 103.865263 
L 138.947415 104.611758 
L 139.630481 106.851242 
L 140.306788 73.632228 
L 140.986474 66.167281 
L 141.666837 60.941818 
L 142.350917 62.434808 
L 143.026885 66.913776 
L 143.70015 61.315066 
L 144.377132 62.434808 
L 145.056819 68.406765 
L 145.737857 63.181302 
L 146.420247 63.55455 
L 147.096554 68.780012 
L 147.770833 72.885733 
L 148.444773 126.633351 
L 149.123446 138.577266 
L 149.797724 141.189998 
L 150.477411 147.161955 
L 151.161153 151.267676 
L 151.837798 154.626902 
L 152.525934 125.886857 
L 153.197508 112.449952 
L 153.878885 146.415461 
L 154.555529 106.477995 
L 155.22947 101.625779 
L 155.901383 98.6398 
L 157.266839 99.386295 
L 157.93909 105.358253 
L 158.615396 96.400316 
L 159.290351 102.372274 
L 159.971051 103.865263 
L 160.651076 103.118768 
L 161.330086 101.625779 
L 162.007745 119.168404 
L 162.689121 120.288146 
L 163.358668 119.541652 
L 164.03734 122.527631 
L 164.710943 120.661394 
L 165.390291 121.781136 
L 166.070992 125.886857 
L 166.742228 123.647373 
L 167.421915 120.288146 
L 168.101601 111.33021 
L 168.781626 122.527631 
L 169.456242 122.900878 
L 170.807503 165.451076 
L 171.486852 171.423033 
L 172.842507 177.021743 
L 173.514419 140.070256 
L 174.19005 172.169528 
L 174.86906 180.007722 
L 175.545705 182.620454 
L 176.226405 143.056235 
L 176.90305 134.844793 
L 177.577329 129.61933 
L 178.251945 139.323761 
L 178.935687 137.457524 
L 179.611318 140.070256 
L 180.286949 138.204019 
L 180.966297 137.457524 
L 181.646321 138.950514 
L 182.3206 139.697009 
L 182.995217 139.323761 
L 183.669495 137.084277 
L 184.347154 125.886857 
L 185.029206 121.781136 
L 185.705175 122.154383 
L 186.384523 125.886857 
L 187.064209 119.541652 
L 187.738488 114.689436 
L 188.420202 118.048662 
L 189.100227 115.809178 
L 189.781265 116.555673 
L 190.462303 118.795157 
L 191.142666 115.062684 
L 191.821338 114.316189 
L 192.497983 113.942942 
L 193.173275 113.196447 
L 194.522509 113.196447 
L 195.199829 112.8232 
L 195.877825 118.048662 
L 196.554808 120.288146 
L 197.234494 114.316189 
L 197.902689 118.048662 
L 198.583052 114.316189 
L 199.260372 116.182426 
L 199.9431 116.182426 
L 200.618393 110.583715 
L 201.299093 118.42191 
L 202.656438 116.182426 
L 203.329703 114.689436 
L 204.005671 112.076705 
L 204.682654 113.196447 
L 205.358961 113.942942 
L 206.029859 114.316189 
L 206.710222 112.8232 
L 207.385852 113.569694 
L 208.067567 113.196447 
L 208.749281 113.942942 
L 209.424236 113.569694 
L 210.098514 117.302168 
L 210.779552 112.076705 
L 211.452817 113.196447 
L 212.131152 113.569694 
L 212.815232 113.196447 
L 213.493904 115.435931 
L 214.170887 114.689436 
L 214.853277 112.076705 
L 215.528232 112.449952 
L 216.208932 113.196447 
L 216.88997 112.076705 
L 217.568981 112.449952 
L 218.247991 110.210468 
L 218.932747 111.703457 
L 219.607364 112.076705 
L 220.964371 113.569694 
L 221.646085 112.076705 
L 222.323406 110.956963 
L 222.99836 112.8232 
L 223.680751 113.196447 
L 224.353339 112.076705 
L 225.029646 111.703457 
L 225.705952 113.569694 
L 227.058227 110.583715 
L 227.732844 110.956963 
L 228.41253 112.076705 
L 229.093569 111.33021 
L 229.774607 111.703457 
L 231.12891 113.942942 
L 231.801837 117.675415 
L 232.482537 116.555673 
L 233.159858 113.942942 
L 233.839206 116.182426 
L 234.519906 115.062684 
L 235.198917 116.555673 
L 235.877589 115.809178 
L 236.54984 116.555673 
L 237.228512 114.316189 
L 237.904481 111.33021 
L 238.579436 112.449952 
L 239.257432 110.210468 
L 239.936781 112.8232 
L 240.611397 112.8232 
L 241.290408 113.196447 
L 241.966714 110.956963 
L 242.650456 113.942942 
L 243.324397 113.569694 
L 243.998 112.076705 
L 244.676334 111.33021 
L 245.350951 113.942942 
L 246.028271 112.449952 
L 246.70931 111.33021 
L 247.387644 111.33021 
L 248.071724 109.837221 
L 248.747017 112.8232 
L 249.421633 113.942942 
L 250.100982 113.196447 
L 250.772557 114.689436 
L 251.448525 115.062684 
L 252.124156 111.33021 
L 252.799786 113.196447 
L 253.482515 115.435931 
L 254.161187 114.689436 
L 254.834452 116.182426 
L 255.516842 116.92892 
L 256.194838 112.076705 
L 256.880609 115.062684 
L 257.555225 114.689436 
L 258.229504 115.435931 
L 258.911894 113.569694 
L 259.587863 117.675415 
L 260.265521 112.8232 
L 260.94149 115.435931 
L 261.621176 113.942942 
L 262.303904 113.196447 
L 262.979197 112.8232 
L 263.6528 113.569694 
L 264.327754 114.689436 
L 265.013186 114.316189 
L 265.686451 112.8232 
L 266.369179 112.449952 
L 267.041768 110.210468 
L 267.723482 110.956963 
L 268.393367 113.196447 
L 269.077109 113.196447 
L 269.753078 112.076705 
L 270.432426 112.076705 
L 271.104339 113.942942 
L 271.790447 113.942942 
L 272.463374 114.689436 
L 273.141708 113.196447 
L 273.815987 109.837221 
L 274.49297 114.316189 
L 275.171642 120.661394 
L 275.848624 110.210468 
L 276.527635 110.956963 
L 277.203265 110.210468 
L 277.878558 110.956963 
L 278.554189 112.076705 
L 279.230495 113.942942 
L 279.906464 113.196447 
L 280.583446 115.062684 
L 281.259753 113.196447 
L 281.936397 112.076705 
L 282.61338 114.316189 
L 283.291714 113.196447 
L 283.967683 112.449952 
L 284.645341 112.449952 
L 285.320972 114.316189 
L 286.00539 112.8232 
L 286.677641 112.449952 
L 287.354623 130.739072 
L 288.033972 129.61933 
L 288.712982 131.11232 
L 289.388613 132.232062 
L 290.063567 134.471546 
L 291.416519 116.182426 
L 292.090459 117.302168 
L 292.768456 120.288146 
L 293.441044 119.168404 
L 294.119379 115.435931 
L 294.793995 114.689436 
L 295.474696 114.689436 
L 296.15472 114.316189 
L 296.830351 113.196447 
L 297.511051 140.816751 
L 298.18702 132.978556 
L 298.859608 131.485567 
L 299.537943 165.077828 
L 300.218981 173.662517 
L 301.569228 180.007722 
L 302.248239 181.500711 
L 302.924207 143.056235 
L 303.607274 136.337782 
L 304.28189 128.126341 
L 304.957521 152.760666 
L 305.632475 136.71103 
L 306.31081 139.697009 
L 306.991172 138.204019 
L 307.662747 139.697009 
L 308.341081 137.457524 
L 309.014684 138.577266 
L 309.694371 138.950514 
L 310.371691 128.126341 
L 311.051377 129.61933 
L 311.732416 121.781136 
L 312.407708 124.767115 
L 313.087395 124.767115 
L 313.766067 125.140362 
L 314.442374 121.781136 
L 315.118004 123.647373 
L 315.801747 121.407888 
L 316.476701 118.048662 
L 317.1476 119.914899 
L 317.829314 118.42191 
L 318.507649 119.914899 
L 319.186659 121.034641 
L 319.866683 119.168404 
L 320.540962 127.753093 
L 321.218621 125.513609 
L 321.894927 122.527631 
L 322.570558 122.527631 
L 323.932296 113.569694 
L 324.606575 113.569694 
L 325.288965 117.675415 
L 325.95378 112.076705 
L 326.632115 168.063807 
L 327.313153 175.528754 
L 327.988446 128.126341 
L 328.666104 130.739072 
L 329.346129 129.61933 
L 330.021083 124.393867 
L 330.698404 124.02062 
L 331.385526 131.858814 
L 332.06217 128.499588 
L 332.742871 122.900878 
L 333.418501 118.795157 
L 334.102581 136.71103 
L 334.775508 136.71103 
L 335.452829 135.591288 
L 336.130149 132.232062 
L 336.808822 124.393867 
L 337.493916 128.126341 
L 338.171574 125.513609 
L 338.844501 122.154383 
L 339.518104 134.844793 
L 340.195762 131.858814 
L 340.870041 132.978556 
L 341.549051 132.978556 
L 342.226034 134.098298 
L 342.910452 133.725051 
L 343.590138 132.605309 
L 344.266107 135.591288 
L 344.950525 134.844793 
L 345.626494 135.21804 
L 346.311926 134.844793 
L 346.984514 134.844793 
L 347.662849 138.577266 
L 348.339155 135.591288 
L 349.016476 137.457524 
L 349.697176 138.577266 
L 350.370779 137.457524 
L 351.045396 140.070256 
L 351.730828 138.950514 
L 352.407472 136.71103 
L 353.084793 137.457524 
L 353.761099 137.830772 
L 354.439772 140.443503 
L 355.119458 138.577266 
L 355.798806 137.457524 
L 356.479169 140.070256 
L 357.157165 138.204019 
L 357.834486 137.830772 
L 358.513834 138.577266 
L 359.193859 140.070256 
L 359.870503 138.577266 
L 360.549852 138.950514 
L 361.229538 141.936493 
L 361.905168 140.070256 
L 362.581475 141.936493 
L 363.25812 142.30974 
L 363.936454 141.936493 
L 364.612423 139.323761 
L 365.292447 139.323761 
L 366.646412 140.816751 
L 367.33083 139.697009 
L 368.011531 142.682987 
L 368.691555 140.070256 
L 369.369551 140.443503 
L 370.045182 142.30974 
L 370.721151 142.30974 
L 371.401175 140.443503 
L 372.083565 143.429482 
L 372.759196 141.936493 
L 373.433812 140.816751 
L 374.111471 143.056235 
L 374.785749 143.056235 
L 375.460366 142.682987 
L 376.137011 139.697009 
L 376.821767 139.697009 
L 378.173366 142.682987 
L 378.847983 142.30974 
L 379.521585 142.682987 
L 380.201272 140.070256 
L 380.880958 141.189998 
L 381.557265 141.936493 
L 382.232219 141.563245 
L 382.90616 141.563245 
L 383.589564 142.30974 
L 384.264857 142.682987 
L 384.939135 141.189998 
L 385.616118 142.682987 
L 386.292086 143.802729 
L 386.967717 143.056235 
L 387.646389 140.443503 
L 388.325738 141.936493 
L 389.000354 143.056235 
L 389.683083 142.30974 
L 390.356685 143.802729 
L 391.032992 141.563245 
L 391.712002 143.056235 
L 392.385267 140.816751 
L 393.066981 143.429482 
L 393.743964 144.175977 
L 394.42196 135.591288 
L 395.097253 141.189998 
L 395.776263 138.577266 
L 396.456626 138.204019 
L 397.133946 140.816751 
L 397.808563 139.697009 
L 399.16557 141.936493 
L 399.844918 141.936493 
L 400.519197 142.30974 
L 401.197869 141.189998 
L 401.877218 141.936493 
L 402.550482 140.816751 
L 403.229831 140.070256 
L 403.902419 142.682987 
L 405.26044 142.682987 
L 405.9479 139.697009 
L 406.623193 140.070256 
L 407.302541 141.563245 
L 407.977158 140.070256 
L 408.653802 143.056235 
L 409.329433 131.11232 
L 410.009795 127.753093 
L 410.695228 121.407888 
L 411.374576 121.781136 
L 412.048179 117.675415 
L 412.726175 119.914899 
L 413.40451 118.048662 
L 414.082506 119.914899 
L 414.761516 118.048662 
L 415.443569 117.675415 
L 416.119537 118.42191 
L 416.792126 119.914899 
L 417.471812 118.795157 
L 418.148795 122.154383 
L 418.82375 117.675415 
L 419.508168 116.555673 
L 420.187854 118.048662 
L 420.869568 118.42191 
L 421.542495 116.555673 
L 422.902544 115.809178 
L 423.581554 118.42191 
L 424.264959 114.689436 
L 424.948025 114.689436 
L 425.622979 117.302168 
L 426.303342 116.182426 
L 426.97931 118.048662 
L 427.658321 114.689436 
L 428.335979 115.435931 
L 429.010258 117.675415 
L 429.691972 116.92892 
L 430.367265 113.569694 
L 431.047965 115.435931 
L 431.721906 114.689436 
L 432.39686 115.435931 
L 433.072153 113.569694 
L 433.754205 114.689436 
L 434.435244 113.942942 
L 435.110874 119.914899 
L 435.790898 117.302168 
L 436.469571 117.675415 
L 437.144864 116.555673 
L 438.492745 116.555673 
L 439.171079 115.435931 
L 440.52741 113.942942 
L 441.208787 115.062684 
L 441.886445 113.196447 
L 442.564104 113.942942 
L 443.24041 116.182426 
L 443.918069 112.449952 
L 444.593699 116.182426 
L 445.280821 114.316189 
L 445.951044 115.435931 
L 446.6358 116.92892 
L 447.317176 116.555673 
L 447.991117 112.076705 
L 448.673169 116.92892 
L 449.349138 115.435931 
L 450.028486 115.809178 
L 450.706145 115.062684 
L 451.386507 114.689436 
L 452.057744 115.809178 
L 452.733037 115.809178 
L 453.412385 113.196447 
L 454.093423 114.689436 
L 454.762294 113.196447 
L 455.447388 114.316189 
L 456.123019 113.196447 
L 456.800001 111.703457 
L 457.475632 115.809178 
L 458.153629 114.316189 
L 458.833653 115.062684 
L 459.513339 111.703457 
L 460.192012 112.8232 
L 460.875416 117.302168 
L 461.549357 113.942942 
L 462.231747 113.942942 
L 462.912785 112.8232 
L 463.593824 111.33021 
L 464.27182 112.8232 
L 464.946775 115.435931 
L 465.628489 112.8232 
L 466.304457 116.555673 
L 466.985158 113.942942 
L 467.653691 114.689436 
L 468.334053 131.485567 
L 469.011712 132.605309 
L 469.68937 159.479118 
L 470.370746 168.063807 
L 471.044687 134.098298 
L 471.724711 125.886857 
L 472.40744 120.288146 
L 473.07969 122.900878 
L 473.754983 119.914899 
L 474.432641 125.886857 
L 475.10692 117.302168 
L 475.787958 121.034641 
L 476.468997 122.527631 
L 477.152401 116.182426 
L 477.8233 126.633351 
L 478.501634 115.062684 
L 479.858303 127.006599 
L 480.537314 120.288146 
L 481.212268 117.675415 
L 481.889927 116.92892 
L 482.564205 123.647373 
L 483.245244 124.393867 
L 483.926282 121.034641 
L 484.602251 121.781136 
L 485.275177 121.034641 
L 485.955202 122.900878 
L 486.630494 119.914899 
L 487.983783 116.92892 
L 488.668201 116.182426 
L 489.343832 114.689436 
L 490.024194 113.942942 
L 490.699487 148.654945 
L 491.381539 168.063807 
L 492.066971 174.035765 
L 492.741588 129.61933 
L 493.416543 128.499588 
L 494.099947 122.527631 
L 494.772874 135.21804 
L 495.45087 132.978556 
L 496.13664 134.098298 
L 496.810919 137.084277 
L 497.486211 134.844793 
L 498.164546 137.830772 
L 498.843556 128.499588 
L 499.516145 121.781136 
L 500.200901 122.900878 
L 500.872138 127.753093 
L 501.553514 121.034641 
L 502.232525 132.605309 
L 502.910183 134.098298 
L 503.589532 165.824323 
L 504.270232 175.902001 
L 504.949242 178.514733 
L 505.632985 179.634475 
L 506.306249 181.500711 
L 506.990329 184.48669 
L 507.662242 144.549224 
L 508.334155 134.844793 
L 509.017221 127.753093 
L 509.695894 125.513609 
L 510.368144 122.900878 
L 511.046817 121.781136 
L 511.726841 125.140362 
L 512.401458 125.513609 
L 513.073709 124.393867 
L 513.754747 121.781136 
L 514.435785 119.914899 
L 515.108712 126.260104 
L 515.782653 119.914899 
L 516.469437 119.914899 
L 517.138307 121.034641 
L 517.820698 122.527631 
L 518.495652 119.168404 
L 519.177367 119.168404 
L 519.857391 118.42191 
L 520.531332 118.795157 
L 521.21406 121.034641 
L 521.894084 118.42191 
L 522.575461 117.675415 
L 523.260893 116.182426 
L 523.931792 115.809178 
L 524.610802 114.689436 
L 525.287785 114.689436 
L 525.963077 113.942942 
L 526.63837 114.689436 
L 527.318732 113.196447 
L 528.00146 113.942942 
L 528.681823 114.316189 
L 529.353735 113.942942 
L 530.705335 113.942942 
L 531.389077 117.675415 
L 532.064707 117.302168 
L 532.744732 118.42191 
L 533.425432 116.92892 
L 534.105118 115.062684 
L 534.776017 115.809178 
L 535.457394 116.182426 
L 536.131334 113.569694 
L 536.807979 115.062684 
L 537.482933 115.435931 
L 538.161606 114.316189 
L 538.840954 113.942942 
L 539.521655 115.435931 
L 540.197285 117.302168 
L 540.874268 115.062684 
L 541.545842 116.182426 
L 542.226881 113.569694 
L 542.902849 114.689436 
L 543.582198 115.435931 
L 544.256476 112.449952 
L 544.937177 113.196447 
L 545.616863 115.062684 
L 546.292494 114.316189 
L 546.972518 113.942942 
L 547.649839 116.92892 
L 549.003128 112.076705 
L 549.678082 118.42191 
L 550.354389 119.541652 
L 551.037455 112.8232 
L 551.712072 116.182426 
L 552.393448 112.8232 
L 553.073472 115.435931 
L 553.752821 114.689436 
L 554.425747 114.316189 
L 555.100702 114.689436 
L 555.775319 113.196447 
L 556.451625 113.196447 
L 557.133002 116.555673 
L 557.80728 112.449952 
L 558.488319 117.302168 
L 559.162935 112.076705 
L 559.837214 113.569694 
L 560.517914 111.703457 
L 561.193883 113.569694 
L 561.874921 112.449952 
L 562.550214 113.942942 
L 563.224154 113.569694 
L 563.909248 115.062684 
L 564.588259 117.675415 
L 565.2622 112.076705 
L 565.938506 113.196447 
L 566.619882 115.809178 
L 567.298217 115.062684 
L 567.97182 115.809178 
L 568.646774 113.942942 
L 569.326461 115.435931 
L 570.005133 112.076705 
L 570.685833 111.703457 
L 571.364844 111.703457 
L 572.045544 111.33021 
L 572.7303 112.076705 
L 573.405931 112.449952 
L 574.081223 112.449952 
L 574.760572 110.583715 
L 575.433161 141.189998 
L 576.110819 131.485567 
L 576.78476 132.605309 
L 577.460728 155.373397 
L 578.133655 168.810302 
L 578.811989 175.155507 
L 579.48593 179.261227 
L 580.165954 181.127464 
L 580.842261 139.697009 
L 581.516878 130.365825 
L 582.191494 135.591288 
L 582.866449 131.858814 
L 583.545121 131.485567 
L 584.228864 121.407888 
L 584.907874 130.365825 
L 585.584518 129.61933 
L 586.940511 119.914899 
L 587.61479 119.168404 
L 588.292449 125.140362 
L 588.967403 122.154383 
L 590.321706 119.168404 
L 590.991929 118.42191 
L 591.672291 122.900878 
L 592.349274 123.274125 
L 593.022539 125.886857 
L 593.702563 123.274125 
L 594.381235 125.513609 
L 595.05619 119.541652 
L 595.737228 117.675415 
L 596.407789 119.168404 
L 597.092883 121.034641 
L 597.775612 114.316189 
L 598.451918 110.956963 
L 599.128563 163.584839 
L 599.807235 173.28927 
L 600.485569 177.768238 
L 601.164242 177.394991 
L 601.844266 181.873959 
L 602.521925 179.634475 
L 603.201611 181.127464 
L 603.881298 139.323761 
L 604.559294 168.063807 
L 605.241008 137.084277 
L 605.920357 127.753093 
L 606.594973 130.739072 
L 607.277026 127.753093 
L 607.95367 129.992577 
L 608.629977 130.739072 
L 609.305269 126.633351 
L 609.981576 124.02062 
L 610.658896 130.739072 
L 611.334189 130.739072 
L 612.00644 129.246083 
L 612.684098 118.795157 
L 613.364123 120.661394 
L 614.035021 116.555673 
L 614.714708 115.062684 
L 615.388648 120.288146 
L 616.068673 116.92892 
L 616.741262 131.11232 
L 617.416216 134.471546 
L 618.095903 132.978556 
L 618.771871 134.844793 
L 619.447502 133.351804 
L 620.123808 166.570818 
L 620.803495 177.394991 
L 621.478111 182.247206 
L 622.161177 182.993701 
L 622.840864 185.606432 
L 623.52224 143.056235 
L 624.195505 137.830772 
L 624.875529 130.739072 
L 625.553864 127.753093 
L 626.23693 125.886857 
L 626.919658 121.407888 
L 627.589881 127.006599 
L 628.275989 130.739072 
L 628.950606 119.168404 
L 629.630968 126.633351 
L 630.303557 119.168404 
L 630.983581 121.407888 
L 631.658198 118.42191 
L 632.33518 119.168404 
L 633.014191 118.048662 
L 633.688807 116.182426 
L 634.370522 123.647373 
L 635.043786 119.914899 
L 635.725839 131.858814 
L 636.403497 132.605309 
L 637.085211 132.232062 
L 637.76625 132.605309 
L 638.440528 133.351804 
L 639.113117 128.126341 
L 639.792128 130.365825 
L 640.471814 127.006599 
L 641.145755 130.365825 
L 641.823413 124.393867 
L 642.503775 128.499588 
L 643.182448 122.154383 
L 643.866866 134.098298 
L 644.538779 132.978556 
L 645.217113 131.485567 
L 645.892406 136.337782 
L 646.567698 133.351804 
L 647.241639 136.71103 
L 647.917608 127.753093 
L 648.596618 125.513609 
L 649.269545 134.098298 
L 649.949907 132.605309 
L 650.6252 129.992577 
L 651.30083 121.407888 
L 651.981869 118.42191 
L 652.655809 117.675415 
L 653.33651 125.140362 
L 654.016534 121.034641 
L 654.695207 121.034641 
L 655.373541 116.555673 
L 656.052213 114.689436 
L 656.730886 116.555673 
L 658.089583 111.33021 
L 658.760819 113.196447 
L 659.439492 112.449952 
L 660.117488 112.449952 
L 660.795485 112.8232 
L 661.477537 110.956963 
L 662.155534 114.689436 
L 662.834544 128.499588 
L 663.513554 123.274125 
L 664.191213 114.316189 
L 664.875631 110.583715 
L 665.557683 109.837221 
L 666.236018 109.837221 
L 666.912324 111.703457 
L 667.590659 113.942942 
L 668.268993 112.076705 
L 668.943948 114.689436 
L 669.62431 111.703457 
L 670.295547 112.076705 
L 670.974557 113.196447 
L 671.64985 110.583715 
L 672.33055 112.076705 
L 673.012603 111.33021 
L 673.68046 110.210468 
L 674.359132 114.689436 
L 675.036791 110.583715 
L 675.717491 111.703457 
L 676.402923 117.675415 
L 677.079568 113.569694 
L 677.759592 112.076705 
L 678.431843 108.717479 
L 679.117275 112.076705 
L 679.791553 113.942942 
L 680.469888 111.703457 
L 681.15532 110.956963 
L 681.830613 112.8232 
L 682.503539 111.33021 
L 683.182888 113.942942 
L 683.859194 112.076705 
L 685.213159 113.569694 
L 685.894198 112.8232 
L 686.568814 113.196447 
L 687.245797 112.076705 
L 687.928863 110.210468 
L 688.605846 109.837221 
L 689.281814 111.703457 
L 689.959811 107.970984 
L 690.636793 110.210468 
L 691.311072 110.583715 
L 691.990082 109.090726 
L 692.666051 112.076705 
L 694.024748 112.076705 
L 694.697336 110.956963 
L 695.375671 112.076705 
L 696.048597 109.837221 
L 696.72727 110.956963 
L 697.401886 110.956963 
L 698.081235 109.463973 
L 698.767681 110.583715 
L 699.442298 113.196447 
L 700.127054 111.703457 
L 701.479329 110.956963 
L 702.157325 109.837221 
L 702.831604 109.463973 
L 703.51467 110.583715 
L 704.192667 108.717479 
L 704.872353 111.703457 
L 705.559137 111.33021 
L 706.23105 108.344231 
L 706.911074 110.956963 
L 707.584339 109.463973 
L 708.259294 110.583715 
L 708.939994 107.970984 
L 709.613597 108.344231 
L 710.289565 111.33021 
L 710.9679 109.463973 
L 711.64015 111.703457 
L 712.318823 130.739072 
L 713.000875 131.485567 
L 713.672788 128.872835 
L 714.351122 117.302168 
L 715.027429 117.675415 
L 715.701369 112.8232 
L 716.381394 113.196447 
L 717.054997 110.956963 
L 717.733331 114.689436 
L 718.420115 112.449952 
L 719.101491 112.449952 
L 719.774418 112.076705 
L 720.447007 112.076705 
L 721.131425 115.809178 
L 721.805704 112.8232 
L 722.486404 112.076705 
L 723.163724 113.569694 
L 723.839355 114.316189 
L 724.517689 114.689436 
L 725.193996 111.703457 
L 725.866923 113.569694 
L 726.544243 112.8232 
L 727.222916 112.449952 
L 727.903616 114.316189 
L 728.582626 112.8232 
L 729.93524 116.555673 
L 730.611546 114.316189 
L 731.29157 119.541652 
L 731.973285 115.435931 
L 732.649591 113.942942 
L 733.323194 113.196447 
L 734.007612 113.196447 
L 734.681891 116.555673 
L 735.359887 113.569694 
L 736.03349 117.302168 
L 736.71081 116.555673 
L 737.385427 115.435931 
L 738.068831 112.076705 
L 738.750208 113.196447 
L 739.429556 113.196447 
L 740.10958 112.8232 
L 740.787915 112.076705 
L 742.81751 113.196447 
L 743.490775 114.689436 
L 744.168096 112.8232 
L 744.849472 115.809178 
L 745.524089 113.942942 
L 746.197691 112.449952 
L 746.872984 112.449952 
L 747.549628 127.753093 
L 748.229991 130.739072 
L 748.903931 128.126341 
L 749.579224 116.182426 
L 750.256207 112.076705 
L 750.931499 114.316189 
L 751.609158 111.33021 
L 752.284788 113.942942 
L 752.965489 112.8232 
L 753.640443 114.689436 
L 754.986297 116.92892 
L 755.664969 119.168404 
L 756.339248 118.42191 
L 757.01961 116.92892 
L 757.689495 115.062684 
L 758.373575 116.555673 
L 759.054951 115.809178 
L 759.735652 115.435931 
L 760.408916 116.182426 
L 761.089955 115.809178 
L 761.765247 116.182426 
L 763.12631 119.168404 
L 763.804982 115.809178 
L 764.479599 113.942942 
L 765.163679 118.048662 
L 765.84269 116.182426 
L 766.517982 116.555673 
L 767.197669 116.182426 
L 767.876341 117.302168 
L 768.549944 113.196447 
L 769.903909 117.302168 
L 770.580215 115.435931 
L 771.258888 113.196447 
L 771.94094 116.182426 
L 772.622654 115.435931 
L 773.299975 117.675415 
L 773.981689 114.689436 
L 774.654616 116.182426 
L 775.330584 116.555673 
L 776.014665 118.048662 
L 776.689281 115.435931 
L 777.363898 113.942942 
L 778.038515 112.8232 
L 778.714145 114.689436 
L 779.396535 115.435931 
L 780.075208 113.196447 
L 780.748473 114.689436 
L 781.430187 116.555673 
L 782.101086 113.942942 
L 782.77773 117.675415 
L 783.455389 114.316189 
L 784.131019 116.182426 
L 784.806312 114.316189 
L 785.486674 115.062684 
L 786.161967 114.689436 
L 786.843681 115.809178 
L 787.521678 114.316189 
L 788.202378 117.302168 
L 788.875305 114.316189 
L 789.556343 112.076705 
L 790.237719 111.703457 
L 790.914026 113.569694 
L 791.591684 113.569694 
L 792.275426 112.449952 
L 792.950719 115.435931 
L 793.628716 115.435931 
L 794.30874 118.048662 
L 794.987412 118.048662 
L 795.661015 117.675415 
L 796.336984 115.435931 
L 797.013966 116.92892 
L 797.691963 116.182426 
L 798.366241 116.92892 
L 799.043562 114.689436 
L 799.719868 119.168404 
L 800.392119 115.435931 
L 801.074509 131.485567 
L 801.754196 131.485567 
L 802.438952 131.11232 
L 803.111879 133.725051 
L 803.794269 130.365825 
L 804.479025 121.034641 
L 805.148572 115.062684 
L 805.82792 113.942942 
L 806.502537 118.42191 
L 807.183575 113.569694 
L 807.864276 114.689436 
L 809.216889 115.435931 
L 809.898603 116.182426 
L 810.579641 114.316189 
L 811.258652 116.182426 
L 811.935634 116.182426 
L 812.609913 114.316189 
L 813.284867 116.182426 
L 813.964554 115.062684 
L 814.648634 112.8232 
L 815.325279 116.555673 
L 816.008345 116.92892 
L 816.687017 113.942942 
L 817.361296 113.196447 
L 818.714247 114.689436 
L 819.390891 115.062684 
L 820.064494 114.689436 
L 820.743843 114.689436 
L 821.420487 118.048662 
L 822.097132 115.435931 
L 822.779522 119.168404 
L 823.460898 115.809178 
L 824.138219 117.302168 
L 824.818919 118.048662 
L 826.171194 115.062684 
L 826.845811 118.42191 
L 827.525497 111.703457 
L 828.197748 117.302168 
L 828.875744 112.449952 
L 829.553065 116.555673 
L 830.90027 115.062684 
L 831.580633 113.196447 
L 832.260995 115.062684 
L 832.941019 113.196447 
L 833.616988 117.302168 
L 834.293294 115.809178 
L 834.969263 116.92892 
L 835.641514 120.661394 
L 836.32458 116.92892 
L 837.006294 116.555673 
L 837.679897 117.675415 
L 838.359245 116.555673 
L 839.036566 116.92892 
L 839.711182 120.661394 
L 840.388841 118.048662 
L 841.069541 116.92892 
L 841.741792 115.062684 
L 842.42283 116.555673 
L 843.094067 116.555673 
L 843.77105 114.316189 
L 844.446004 115.435931 
L 845.123325 116.182426 
L 845.803349 118.048662 
L 846.486753 114.689436 
L 847.16306 116.182426 
L 847.836325 115.809178 
L 848.518377 115.809178 
L 849.197049 115.062684 
L 849.875722 116.555673 
L 850.550338 113.569694 
L 851.228335 114.689436 
L 851.907683 114.689436 
L 852.586356 113.196447 
L 853.267732 114.316189 
L 853.267732 114.316189 
" clip-path="url(#p23ced0c50c)" style="fill: none; stroke: #e74c3c; stroke-width: 2; stroke-linecap: square"/>
   </g>
   <g id="patch_3">
    <path d="M 47.45 387.16 
L 47.45 28.32 
" style="fill: none; stroke: #000000; stroke-width: 0.8; stroke-linejoin: miter; stroke-linecap: square"/>
   </g>
   <g id="patch_4">
    <path d="M 853.2 387.16 
L 853.2 28.32 
" style="fill: none; stroke: #000000; stroke-width: 0.8; stroke-linejoin: miter; stroke-linecap: square"/>
   </g>
   <g id="patch_5">
    <path d="M 47.45 387.16 
L 853.2 387.16 
" style="fill: none; stroke: #000000; stroke-width: 0.8; stroke-linejoin: miter; stroke-linecap: square"/>
   </g>
   <g id="patch_6">
    <path d="M 47.45 28.32 
L 853.2 28.32 
" style="fill: none; stroke: #000000; stroke-width: 0.8; stroke-linejoin: miter; stroke-linecap: square"/>
   </g>
   <g id="text_16">
    <!-- GPU temperature over time -->
    <g transform="translate(325.66 22.32) scale(0.16 -0.16)">
     <defs>
      <path id="DejaVuSans-Bold-47" d="M 4781 347 
Q 4331 128 3847 18 
Q 3363 -91 2847 -91 
Q 1681 -91 1000 561 
Q 319 1213 319 2328 
Q 319 3456 1012 4103 
Q 1706 4750 2913 4750 
Q 3378 4750 3804 4662 
Q 4231 4575 4609 4403 
L 4609 3438 
Q 4219 3659 3833 3768 
Q 3447 3878 3059 3878 
Q 2341 3878 1952 3476 
Q 1563 3075 1563 2328 
Q 1563 1588 1938 1184 
Q 2313 781 3003 781 
Q 3191 781 3352 804 
Q 3513 828 3641 878 
L 3641 1784 
L 2906 1784 
L 2906 2591 
L 4781 2591 
L 4781 347 
z
" transform="scale(0.015625)"/>
      <path id="DejaVuSans-Bold-50" d="M 588 4666 
L 2584 4666 
Q 3475 4666 3951 4270 
Q 4428 3875 4428 3144 
Q 4428 2409 3951 2014 
Q 3475 1619 2584 1619 
L 1791 1619 
L 1791 0 
L 588 0 
L 588 4666 
z
M 1791 3794 
L 1791 2491 
L 2456 2491 
Q 2806 2491 2997 2661 
Q 3188 2831 3188 3144 
Q 3188 3456 2997 3625 
Q 2806 3794 2456 3794 
L 1791 3794 
z
" transform="scale(0.015625)"/>
      <path id="DejaVuSans-Bold-55" d="M 588 4666 
L 1791 4666 
L 1791 1869 
Q 1791 1291 1980 1042 
Q 2169 794 2597 794 
Q 3028 794 3217 1042 
Q 3406 1291 3406 1869 
L 3406 4666 
L 4609 4666 
L 4609 1869 
Q 4609 878 4112 393 
Q 3616 -91 2597 -91 
Q 1581 -91 1084 393 
Q 588 878 588 1869 
L 588 4666 
z
" transform="scale(0.015625)"/>
      <path id="DejaVuSans-Bold-20" transform="scale(0.015625)"/>
      <path id="DejaVuSans-Bold-74" d="M 1759 4494 
L 1759 3500 
L 2913 3500 
L 2913 2700 
L 1759 2700 
L 1759 1216 
Q 1759 972 1856 886 
Q 1953 800 2241 800 
L 2816 800 
L 2816 0 
L 1856 0 
Q 1194 0 917 276 
Q 641 553 641 1216 
L 641 2700 
L 84 2700 
L 84 3500 
L 641 3500 
L 641 4494 
L 1759 4494 
z
" transform="scale(0.015625)"/>
      <path id="DejaVuSans-Bold-65" d="M 4031 1759 
L 4031 1441 
L 1416 1441 
Q 1456 1047 1700 850 
Q 1944 653 2381 653 
Q 2734 653 3104 758 
Q 3475 863 3866 1075 
L 3866 213 
Q 3469 63 3072 -14 
Q 2675 -91 2278 -91 
Q 1328 -91 801 392 
Q 275 875 275 1747 
Q 275 2603 792 3093 
Q 1309 3584 2216 3584 
Q 3041 3584 3536 3087 
Q 4031 2591 4031 1759 
z
M 2881 2131 
Q 2881 2450 2695 2645 
Q 2509 2841 2209 2841 
Q 1884 2841 1681 2658 
Q 1478 2475 1428 2131 
L 2881 2131 
z
" transform="scale(0.015625)"/>
      <path id="DejaVuSans-Bold-6d" d="M 3781 2919 
Q 3994 3244 4286 3414 
Q 4578 3584 4928 3584 
Q 5531 3584 5847 3212 
Q 6163 2841 6163 2131 
L 6163 0 
L 5038 0 
L 5038 1825 
Q 5041 1866 5042 1909 
Q 5044 1953 5044 2034 
Q 5044 2406 4934 2573 
Q 4825 2741 4581 2741 
Q 4263 2741 4089 2478 
Q 3916 2216 3909 1719 
L 3909 0 
L 2784 0 
L 2784 1825 
Q 2784 2406 2684 2573 
Q 2584 2741 2328 2741 
Q 2006 2741 1831 2477 
Q 1656 2213 1656 1722 
L 1656 0 
L 531 0 
L 531 3500 
L 1656 3500 
L 1656 2988 
Q 1863 3284 2130 3434 
Q 2397 3584 2719 3584 
Q 3081 3584 3359 3409 
Q 3638 3234 3781 2919 
z
" transform="scale(0.015625)"/>
      <path id="DejaVuSans-Bold-70" d="M 1656 506 
L 1656 -1331 
L 538 -1331 
L 538 3500 
L 1656 3500 
L 1656 2988 
Q 1888 3294 2169 3439 
Q 2450 3584 2816 3584 
Q 3463 3584 3878 3070 
Q 4294 2556 4294 1747 
Q 4294 938 3878 423 
Q 3463 -91 2816 -91 
Q 2450 -91 2169 54 
Q 1888 200 1656 506 
z
M 2400 2772 
Q 2041 2772 1848 2508 
Q 1656 2244 1656 1747 
Q 1656 1250 1848 986 
Q 2041 722 2400 722 
Q 2759 722 2948 984 
Q 3138 1247 3138 1747 
Q 3138 2247 2948 2509 
Q 2759 2772 2400 2772 
z
" transform="scale(0.015625)"/>
      <path id="DejaVuSans-Bold-72" d="M 3138 2547 
Q 2991 2616 2845 2648 
Q 2700 2681 2553 2681 
Q 2122 2681 1889 2404 
Q 1656 2128 1656 1613 
L 1656 0 
L 538 0 
L 538 3500 
L 1656 3500 
L 1656 2925 
Q 1872 3269 2151 3426 
Q 2431 3584 2822 3584 
Q 2878 3584 2943 3579 
Q 3009 3575 3134 3559 
L 3138 2547 
z
" transform="scale(0.015625)"/>
      <path id="DejaVuSans-Bold-61" d="M 2106 1575 
Q 1756 1575 1579 1456 
Q 1403 1338 1403 1106 
Q 1403 894 1545 773 
Q 1688 653 1941 653 
Q 2256 653 2472 879 
Q 2688 1106 2688 1447 
L 2688 1575 
L 2106 1575 
z
M 3816 1997 
L 3816 0 
L 2688 0 
L 2688 519 
Q 2463 200 2181 54 
Q 1900 -91 1497 -91 
Q 953 -91 614 226 
Q 275 544 275 1050 
Q 275 1666 698 1953 
Q 1122 2241 2028 2241 
L 2688 2241 
L 2688 2328 
Q 2688 2594 2478 2717 
Q 2269 2841 1825 2841 
Q 1466 2841 1156 2769 
Q 847 2697 581 2553 
L 581 3406 
Q 941 3494 1303 3539 
Q 1666 3584 2028 3584 
Q 2975 3584 3395 3211 
Q 3816 2838 3816 1997 
z
" transform="scale(0.015625)"/>
      <path id="DejaVuSans-Bold-75" d="M 500 1363 
L 500 3500 
L 1625 3500 
L 1625 3150 
Q 1625 2866 1622 2436 
Q 1619 2006 1619 1863 
Q 1619 1441 1641 1255 
Q 1663 1069 1716 984 
Q 1784 875 1895 815 
Q 2006 756 2150 756 
Q 2500 756 2700 1025 
Q 2900 1294 2900 1772 
L 2900 3500 
L 4019 3500 
L 4019 0 
L 2900 0 
L 2900 506 
Q 2647 200 2364 54 
Q 2081 -91 1741 -91 
Q 1134 -91 817 281 
Q 500 653 500 1363 
z
" transform="scale(0.015625)"/>
      <path id="DejaVuSans-Bold-6f" d="M 2203 2784 
Q 1831 2784 1636 2517 
Q 1441 2250 1441 1747 
Q 1441 1244 1636 976 
Q 1831 709 2203 709 
Q 2569 709 2762 976 
Q 2956 1244 2956 1747 
Q 2956 2250 2762 2517 
Q 2569 2784 2203 2784 
z
M 2203 3584 
Q 3106 3584 3614 3096 
Q 4122 2609 4122 1747 
Q 4122 884 3614 396 
Q 3106 -91 2203 -91 
Q 1297 -91 786 396 
Q 275 884 275 1747 
Q 275 2609 786 3096 
Q 1297 3584 2203 3584 
z
" transform="scale(0.015625)"/>
      <path id="DejaVuSans-Bold-76" d="M 97 3500 
L 1216 3500 
L 2088 1081 
L 2956 3500 
L 4078 3500 
L 2700 0 
L 1472 0 
L 97 3500 
z
" transform="scale(0.015625)"/>
      <path id="DejaVuSans-Bold-69" d="M 538 3500 
L 1656 3500 
L 1656 0 
L 538 0 
L 538 3500 
z
M 538 4863 
L 1656 4863 
L 1656 3950 
L 538 3950 
L 538 4863 
z
" transform="scale(0.015625)"/>
     </defs>
     <use xlink:href="#DejaVuSans-Bold-47"/>
     <use xlink:href="#DejaVuSans-Bold-50" x="82.080078"/>
     <use xlink:href="#DejaVuSans-Bold-55" x="155.371094"/>
     <use xlink:href="#DejaVuSans-Bold-20" x="236.572266"/>
     <use xlink:href="#DejaVuSans-Bold-74" x="271.386719"/>
     <use xlink:href="#DejaVuSans-Bold-65" x="319.189453"/>
     <use xlink:href="#DejaVuSans-Bold-6d" x="387.011719"/>
     <use xlink:href="#DejaVuSans-Bold-70" x="491.210938"/>
     <use xlink:href="#DejaVuSans-Bold-65" x="562.792969"/>
     <use xlink:href="#DejaVuSans-Bold-72" x="630.615234"/>
     <use xlink:href="#DejaVuSans-Bold-61" x="679.931641"/>
     <use xlink:href="#DejaVuSans-Bold-74" x="747.412109"/>
     <use xlink:href="#DejaVuSans-Bold-75" x="795.214844"/>
     <use xlink:href="#DejaVuSans-Bold-72" x="866.40625"/>
     <use xlink:href="#DejaVuSans-Bold-65" x="915.722656"/>
     <use xlink:href="#DejaVuSans-Bold-20" x="983.544922"/>
     <use xlink:href="#DejaVuSans-Bold-6f" x="1018.359375"/>
     <use xlink:href="#DejaVuSans-Bold-76" x="1087.060547"/>
     <use xlink:href="#DejaVuSans-Bold-65" x="1152.246094"/>
     <use xlink:href="#DejaVuSans-Bold-72" x="1220.068359"/>
     <use xlink:href="#DejaVuSans-Bold-20" x="1269.384766"/>
     <use xlink:href="#DejaVuSans-Bold-74" x="1304.199219"/>
     <use xlink:href="#DejaVuSans-Bold-69" x="1352.001953"/>
     <use xlink:href="#DejaVuSans-Bold-6d" x="1386.279297"/>
     <use xlink:href="#DejaVuSans-Bold-65" x="1490.478516"/>
    </g>
   </g>
   <g id="legend_1">
    <g id="patch_7">
     <path d="M 706.109375 67.67625 
L 848.2 67.67625 
Q 850.2 67.67625 850.2 65.67625 
L 850.2 37.32 
Q 850.2 35.32 848.2 35.32 
L 706.109375 35.32 
Q 704.109375 35.32 704.109375 37.32 
L 704.109375 65.67625 
Q 704.109375 67.67625 706.109375 67.67625 
z
" style="fill: #4d4d4d; opacity: 0.5; stroke: #4d4d4d; stroke-linejoin: miter"/>
    </g>
    <g id="patch_8">
     <path d="M 704.109375 65.67625 
L 846.2 65.67625 
Q 848.2 65.67625 848.2 63.67625 
L 848.2 35.32 
Q 848.2 33.32 846.2 33.32 
L 704.109375 33.32 
Q 702.109375 33.32 702.109375 35.32 
L 702.109375 63.67625 
Q 702.109375 65.67625 704.109375 65.67625 
z
" style="fill: #ffffff; stroke: #cccccc; stroke-linejoin: miter"/>
    </g>
    <g id="line2d_15">
     <path d="M 706.109375 41.418437 
L 716.109375 41.418437 
L 726.109375 41.418437 
" style="fill: none; stroke: #e74c3c; stroke-width: 2; stroke-linecap: square"/>
    </g>
    <g id="text_17">
     <!-- GPU temperature (°C) -->
     <g transform="translate(734.109375 44.918437) scale(0.1 -0.1)">
      <defs>
       <path id="DejaVuSans-47" d="M 3809 666 
L 3809 1919 
L 2778 1919 
L 2778 2438 
L 4434 2438 
L 4434 434 
Q 4069 175 3628 42 
Q 3188 -91 2688 -91 
Q 1594 -91 976 548 
Q 359 1188 359 2328 
Q 359 3472 976 4111 
Q 1594 4750 2688 4750 
Q 3144 4750 3555 4637 
Q 3966 4525 4313 4306 
L 4313 3634 
Q 3963 3931 3569 4081 
Q 3175 4231 2741 4231 
Q 1884 4231 1454 3753 
Q 1025 3275 1025 2328 
Q 1025 1384 1454 906 
Q 1884 428 2741 428 
Q 3075 428 3337 486 
Q 3600 544 3809 666 
z
" transform="scale(0.015625)"/>
       <path id="DejaVuSans-50" d="M 1259 4147 
L 1259 2394 
L 2053 2394 
Q 2494 2394 2734 2622 
Q 2975 2850 2975 3272 
Q 2975 3691 2734 3919 
Q 2494 4147 2053 4147 
L 1259 4147 
z
M 628 4666 
L 2053 4666 
Q 2838 4666 3239 4311 
Q 3641 3956 3641 3272 
Q 3641 2581 3239 2228 
Q 2838 1875 2053 1875 
L 1259 1875 
L 1259 0 
L 628 0 
L 628 4666 
z
" transform="scale(0.015625)"/>
       <path id="DejaVuSans-55" d="M 556 4666 
L 1191 4666 
L 1191 1831 
Q 1191 1081 1462 751 
Q 1734 422 2344 422 
Q 2950 422 3222 751 
Q 3494 1081 3494 1831 
L 3494 4666 
L 4128 4666 
L 4128 1753 
Q 4128 841 3676 375 
Q 3225 -91 2344 -91 
Q 1459 -91 1007 375 
Q 556 841 556 1753 
L 556 4666 
z
" transform="scale(0.015625)"/>
      </defs>
      <use xlink:href="#DejaVuSans-47"/>
      <use xlink:href="#DejaVuSans-50" x="77.490234"/>
      <use xlink:href="#DejaVuSans-55" x="137.792969"/>
      <use xlink:href="#DejaVuSans-20" x="210.986328"/>
      <use xlink:href="#DejaVuSans-74" x="242.773438"/>
      <use xlink:href="#DejaVuSans-65" x="281.982422"/>
      <use xlink:href="#DejaVuSans-6d" x="343.505859"/>
      <use xlink:href="#DejaVuSans-70" x="440.917969"/>
      <use xlink:href="#DejaVuSans-65" x="504.394531"/>
      <use xlink:href="#DejaVuSans-72" x="565.917969"/>
      <use xlink:href="#DejaVuSans-61" x="607.03125"/>
      <use xlink:href="#DejaVuSans-74" x="668.310547"/>
      <use xlink:href="#DejaVuSans-75" x="707.519531"/>
      <use xlink:href="#DejaVuSans-72" x="770.898438"/>
      <use xlink:href="#DejaVuSans-65" x="809.761719"/>
      <use xlink:href="#DejaVuSans-20" x="871.285156"/>
      <use xlink:href="#DejaVuSans-28" x="903.072266"/>
      <use xlink:href="#DejaVuSans-b0" x="942.085938"/>
      <use xlink:href="#DejaVuSans-43" x="992.085938"/>
      <use xlink:href="#DejaVuSans-29" x="1061.910156"/>
     </g>
    </g>
    <g id="line2d_16">
     <path d="M 706.109375 56.096563 
L 716.109375 56.096563 
L 726.109375 56.096563 
" style="fill: none; stroke-dasharray: 7.4,3.2; stroke-dashoffset: 0; stroke: #000000; stroke-opacity: 0.9; stroke-width: 2"/>
    </g>
    <g id="text_18">
     <!-- Cooler on (5000 RPM) -->
     <g transform="translate(734.109375 59.596563) scale(0.1 -0.1)">
      <defs>
       <path id="DejaVuSans-6c" d="M 603 4863 
L 1178 4863 
L 1178 0 
L 603 0 
L 603 4863 
z
" transform="scale(0.015625)"/>
       <path id="DejaVuSans-52" d="M 2841 2188 
Q 3044 2119 3236 1894 
Q 3428 1669 3622 1275 
L 4263 0 
L 3584 0 
L 2988 1197 
Q 2756 1666 2539 1819 
Q 2322 1972 1947 1972 
L 1259 1972 
L 1259 0 
L 628 0 
L 628 4666 
L 2053 4666 
Q 2853 4666 3247 4331 
Q 3641 3997 3641 3322 
Q 3641 2881 3436 2590 
Q 3231 2300 2841 2188 
z
M 1259 4147 
L 1259 2491 
L 2053 2491 
Q 2509 2491 2742 2702 
Q 2975 2913 2975 3322 
Q 2975 3731 2742 3939 
Q 2509 4147 2053 4147 
L 1259 4147 
z
" transform="scale(0.015625)"/>
      </defs>
      <use xlink:href="#DejaVuSans-43"/>
      <use xlink:href="#DejaVuSans-6f" x="69.824219"/>
      <use xlink:href="#DejaVuSans-6f" x="131.005859"/>
      <use xlink:href="#DejaVuSans-6c" x="192.1875"/>
      <use xlink:href="#DejaVuSans-65" x="219.970703"/>
      <use xlink:href="#DejaVuSans-72" x="281.494141"/>
      <use xlink:href="#DejaVuSans-20" x="322.607422"/>
      <use xlink:href="#DejaVuSans-6f" x="354.394531"/>
      <use xlink:href="#DejaVuSans-6e" x="415.576172"/>
      <use xlink:href="#DejaVuSans-20" x="478.955078"/>
      <use xlink:href="#DejaVuSans-28" x="510.742188"/>
      <use xlink:href="#DejaVuSans-35" x="549.755859"/>
      <use xlink:href="#DejaVuSans-30" x="613.378906"/>
      <use xlink:href="#DejaVuSans-30" x="677.001953"/>
      <use xlink:href="#DejaVuSans-30" x="740.625"/>
      <use xlink:href="#DejaVuSans-20" x="804.248047"/>
      <use xlink:href="#DejaVuSans-52" x="836.035156"/>
      <use xlink:href="#DejaVuSans-50" x="905.517578"/>
      <use xlink:href="#DejaVuSans-4d" x="965.820312"/>
      <use xlink:href="#DejaVuSans-29" x="1052.099609"/>
     </g>
    </g>
   </g>
   <g id="line2d_17">
    <path d="M 138.705756 387.16 
L 138.705756 28.32 
" clip-path="url(#p23ced0c50c)" style="fill: none; stroke-dasharray: 7.4,3.2; stroke-dashoffset: 0; stroke: #000000; stroke-opacity: 0.9; stroke-width: 2"/>
   </g>
  </g>
 </g>
 <defs>
  <clipPath id="p23ced0c50c">
   <rect x="47.45" y="28.32" width="805.75" height="358.84"/>
  </clipPath>
 </defs>
</svg>
