<?xml version="1.0" encoding="utf-8" standalone="no"?>
<!DOCTYPE svg PUBLIC "-//W3C//DTD SVG 1.1//EN"
  "http://www.w3.org/Graphics/SVG/1.1/DTD/svg11.dtd">
<svg xmlns:xlink="http://www.w3.org/1999/xlink" width="864pt" height="432pt" viewBox="0 0 864 432" xmlns="http://www.w3.org/2000/svg" version="1.1">
 <metadata>
  <rdf:RDF xmlns:dc="http://purl.org/dc/elements/1.1/" xmlns:cc="http://creativecommons.org/ns#" xmlns:rdf="http://www.w3.org/1999/02/22-rdf-syntax-ns#">
   <cc:Work>
    <dc:type rdf:resource="http://purl.org/dc/dcmitype/StillImage"/>
    <dc:date>2026-05-21T23:07:04.017573</dc:date>
    <dc:format>image/svg+xml</dc:format>
    <dc:creator>
     <cc:Agent>
      <dc:title>Matplotlib v3.9.2, https://matplotlib.org/</dc:title>
     </cc:Agent>
    </dc:creator>
   </cc:Work>
  </rdf:RDF>
 </metadata>
 <defs>
  <style type="text/css">*{stroke-linejoin: round; stroke-linecap: butt}</style>
 </defs>
 <g id="figure_1">
  <g id="patch_1">
   <path d="M 0 432 
L 864 432 
L 864 0 
L 0 0 
z
" style="fill: #ffffff"/>
  </g>
  <g id="axes_1">
   <g id="patch_2">
    <path d="M 60.05 387.16 
L 853.2 387.16 
L 853.2 28.32 
L 60.05 28.32 
z
" style="fill: #ffffff"/>
   </g>
   <g id="matplotlib.axis_1">
    <g id="xtick_1">
     <g id="line2d_1">
      <defs>
       <path id="mccb5b99a0d" d="M 0 0 
L 0 3.5 
" style="stroke: #000000; stroke-width: 0.8"/>
      </defs>
      <g>
       <use xlink:href="#mccb5b99a0d" x="60.05" y="387.16" style="stroke: #000000; stroke-width: 0.8"/>
      </g>
     </g>
     <g id="text_1">
      <!-- 0 -->
      <g transform="translate(56.86875 401.758438) scale(0.1 -0.1)">
       <defs>
        <path id="DejaVuSans-30" d="M 2034 4250 
Q 1547 4250 1301 3770 
Q 1056 3291 1056 2328 
Q 1056 1369 1301 889 
Q 1547 409 2034 409 
Q 2525 409 2770 889 
Q 3016 1369 3016 2328 
Q 3016 3291 2770 3770 
Q 2525 4250 2034 4250 
z
M 2034 4750 
Q 2819 4750 3233 4129 
Q 3647 3509 3647 2328 
Q 3647 1150 3233 529 
Q 2819 -91 2034 -91 
Q 1250 -91 836 529 
Q 422 1150 422 2328 
Q 422 3509 836 4129 
Q 1250 4750 2034 4750 
z
" transform="scale(0.015625)"/>
       </defs>
       <use xlink:href="#DejaVuSans-30"/>
      </g>
     </g>
    </g>
    <g id="xtick_2">
     <g id="line2d_2">
      <g>
       <use xlink:href="#mccb5b99a0d" x="159.859705" y="387.16" style="stroke: #000000; stroke-width: 0.8"/>
      </g>
     </g>
     <g id="text_2">
      <!-- 5 -->
      <g transform="translate(156.678455 401.758438) scale(0.1 -0.1)">
       <defs>
        <path id="DejaVuSans-35" d="M 691 4666 
L 3169 4666 
L 3169 4134 
L 1269 4134 
L 1269 2991 
Q 1406 3038 1543 3061 
Q 1681 3084 1819 3084 
Q 2600 3084 3056 2656 
Q 3513 2228 3513 1497 
Q 3513 744 3044 326 
Q 2575 -91 1722 -91 
Q 1428 -91 1123 -41 
Q 819 9 494 109 
L 494 744 
Q 775 591 1075 516 
Q 1375 441 1709 441 
Q 2250 441 2565 725 
Q 2881 1009 2881 1497 
Q 2881 1984 2565 2268 
Q 2250 2553 1709 2553 
Q 1456 2553 1204 2497 
Q 953 2441 691 2322 
L 691 4666 
z
" transform="scale(0.015625)"/>
       </defs>
       <use xlink:href="#DejaVuSans-35"/>
      </g>
     </g>
    </g>
    <g id="xtick_3">
     <g id="line2d_3">
      <g>
       <use xlink:href="#mccb5b99a0d" x="259.669411" y="387.16" style="stroke: #000000; stroke-width: 0.8"/>
      </g>
     </g>
     <g id="text_3">
      <!-- 10 -->
      <g transform="translate(253.306911 401.758438) scale(0.1 -0.1)">
       <defs>
        <path id="DejaVuSans-31" d="M 794 531 
L 1825 531 
L 1825 4091 
L 703 3866 
L 703 4441 
L 1819 4666 
L 2450 4666 
L 2450 531 
L 3481 531 
L 3481 0 
L 794 0 
L 794 531 
z
" transform="scale(0.015625)"/>
       </defs>
       <use xlink:href="#DejaVuSans-31"/>
       <use xlink:href="#DejaVuSans-30" x="63.623047"/>
      </g>
     </g>
    </g>
    <g id="xtick_4">
     <g id="line2d_4">
      <g>
       <use xlink:href="#mccb5b99a0d" x="359.479116" y="387.16" style="stroke: #000000; stroke-width: 0.8"/>
      </g>
     </g>
     <g id="text_4">
      <!-- 15 -->
      <g transform="translate(353.116616 401.758438) scale(0.1 -0.1)">
       <use xlink:href="#DejaVuSans-31"/>
       <use xlink:href="#DejaVuSans-35" x="63.623047"/>
      </g>
     </g>
    </g>
    <g id="xtick_5">
     <g id="line2d_5">
      <g>
       <use xlink:href="#mccb5b99a0d" x="459.288821" y="387.16" style="stroke: #000000; stroke-width: 0.8"/>
      </g>
     </g>
     <g id="text_5">
      <!-- 20 -->
      <g transform="translate(452.926321 401.758438) scale(0.1 -0.1)">
       <defs>
        <path id="DejaVuSans-32" d="M 1228 531 
L 3431 531 
L 3431 0 
L 469 0 
L 469 531 
Q 828 903 1448 1529 
Q 2069 2156 2228 2338 
Q 2531 2678 2651 2914 
Q 2772 3150 2772 3378 
Q 2772 3750 2511 3984 
Q 2250 4219 1831 4219 
Q 1534 4219 1204 4116 
Q 875 4013 500 3803 
L 500 4441 
Q 881 4594 1212 4672 
Q 1544 4750 1819 4750 
Q 2544 4750 2975 4387 
Q 3406 4025 3406 3419 
Q 3406 3131 3298 2873 
Q 3191 2616 2906 2266 
Q 2828 2175 2409 1742 
Q 1991 1309 1228 531 
z
" transform="scale(0.015625)"/>
       </defs>
       <use xlink:href="#DejaVuSans-32"/>
       <use xlink:href="#DejaVuSans-30" x="63.623047"/>
      </g>
     </g>
    </g>
    <g id="xtick_6">
     <g id="line2d_6">
      <g>
       <use xlink:href="#mccb5b99a0d" x="559.098527" y="387.16" style="stroke: #000000; stroke-width: 0.8"/>
      </g>
     </g>
     <g id="text_6">
      <!-- 25 -->
      <g transform="translate(552.736027 401.758438) scale(0.1 -0.1)">
       <use xlink:href="#DejaVuSans-32"/>
       <use xlink:href="#DejaVuSans-35" x="63.623047"/>
      </g>
     </g>
    </g>
    <g id="xtick_7">
     <g id="line2d_7">
      <g>
       <use xlink:href="#mccb5b99a0d" x="658.908232" y="387.16" style="stroke: #000000; stroke-width: 0.8"/>
      </g>
     </g>
     <g id="text_7">
      <!-- 30 -->
      <g transform="translate(652.545732 401.758438) scale(0.1 -0.1)">
       <defs>
        <path id="DejaVuSans-33" d="M 2597 2516 
Q 3050 2419 3304 2112 
Q 3559 1806 3559 1356 
Q 3559 666 3084 287 
Q 2609 -91 1734 -91 
Q 1441 -91 1130 -33 
Q 819 25 488 141 
L 488 750 
Q 750 597 1062 519 
Q 1375 441 1716 441 
Q 2309 441 2620 675 
Q 2931 909 2931 1356 
Q 2931 1769 2642 2001 
Q 2353 2234 1838 2234 
L 1294 2234 
L 1294 2753 
L 1863 2753 
Q 2328 2753 2575 2939 
Q 2822 3125 2822 3475 
Q 2822 3834 2567 4026 
Q 2313 4219 1838 4219 
Q 1578 4219 1281 4162 
Q 984 4106 628 3988 
L 628 4550 
Q 988 4650 1302 4700 
Q 1616 4750 1894 4750 
Q 2613 4750 3031 4423 
Q 3450 4097 3450 3541 
Q 3450 3153 3228 2886 
Q 3006 2619 2597 2516 
z
" transform="scale(0.015625)"/>
       </defs>
       <use xlink:href="#DejaVuSans-33"/>
       <use xlink:href="#DejaVuSans-30" x="63.623047"/>
      </g>
     </g>
    </g>
    <g id="xtick_8">
     <g id="line2d_8">
      <g>
       <use xlink:href="#mccb5b99a0d" x="758.717937" y="387.16" style="stroke: #000000; stroke-width: 0.8"/>
      </g>
     </g>
     <g id="text_8">
      <!-- 35 -->
      <g transform="translate(752.355437 401.758438) scale(0.1 -0.1)">
       <use xlink:href="#DejaVuSans-33"/>
       <use xlink:href="#DejaVuSans-35" x="63.623047"/>
      </g>
     </g>
    </g>
    <g id="text_9">
     <!-- Test duration (Minutes) -->
     <g transform="translate(387.44875 416.95625) scale(0.12 -0.12)">
      <defs>
       <path id="DejaVuSans-54" d="M -19 4666 
L 3928 4666 
L 3928 4134 
L 2272 4134 
L 2272 0 
L 1638 0 
L 1638 4134 
L -19 4134 
L -19 4666 
z
" transform="scale(0.015625)"/>
       <path id="DejaVuSans-65" d="M 3597 1894 
L 3597 1613 
L 953 1613 
Q 991 1019 1311 708 
Q 1631 397 2203 397 
Q 2534 397 2845 478 
Q 3156 559 3463 722 
L 3463 178 
Q 3153 47 2828 -22 
Q 2503 -91 2169 -91 
Q 1331 -91 842 396 
Q 353 884 353 1716 
Q 353 2575 817 3079 
Q 1281 3584 2069 3584 
Q 2775 3584 3186 3129 
Q 3597 2675 3597 1894 
z
M 3022 2063 
Q 3016 2534 2758 2815 
Q 2500 3097 2075 3097 
Q 1594 3097 1305 2825 
Q 1016 2553 972 2059 
L 3022 2063 
z
" transform="scale(0.015625)"/>
       <path id="DejaVuSans-73" d="M 2834 3397 
L 2834 2853 
Q 2591 2978 2328 3040 
Q 2066 3103 1784 3103 
Q 1356 3103 1142 2972 
Q 928 2841 928 2578 
Q 928 2378 1081 2264 
Q 1234 2150 1697 2047 
L 1894 2003 
Q 2506 1872 2764 1633 
Q 3022 1394 3022 966 
Q 3022 478 2636 193 
Q 2250 -91 1575 -91 
Q 1294 -91 989 -36 
Q 684 19 347 128 
L 347 722 
Q 666 556 975 473 
Q 1284 391 1588 391 
Q 1994 391 2212 530 
Q 2431 669 2431 922 
Q 2431 1156 2273 1281 
Q 2116 1406 1581 1522 
L 1381 1569 
Q 847 1681 609 1914 
Q 372 2147 372 2553 
Q 372 3047 722 3315 
Q 1072 3584 1716 3584 
Q 2034 3584 2315 3537 
Q 2597 3491 2834 3397 
z
" transform="scale(0.015625)"/>
       <path id="DejaVuSans-74" d="M 1172 4494 
L 1172 3500 
L 2356 3500 
L 2356 3053 
L 1172 3053 
L 1172 1153 
Q 1172 725 1289 603 
Q 1406 481 1766 481 
L 2356 481 
L 2356 0 
L 1766 0 
Q 1100 0 847 248 
Q 594 497 594 1153 
L 594 3053 
L 172 3053 
L 172 3500 
L 594 3500 
L 594 4494 
L 1172 4494 
z
" transform="scale(0.015625)"/>
       <path id="DejaVuSans-20" transform="scale(0.015625)"/>
       <path id="DejaVuSans-64" d="M 2906 2969 
L 2906 4863 
L 3481 4863 
L 3481 0 
L 2906 0 
L 2906 525 
Q 2725 213 2448 61 
Q 2172 -91 1784 -91 
Q 1150 -91 751 415 
Q 353 922 353 1747 
Q 353 2572 751 3078 
Q 1150 3584 1784 3584 
Q 2172 3584 2448 3432 
Q 2725 3281 2906 2969 
z
M 947 1747 
Q 947 1113 1208 752 
Q 1469 391 1925 391 
Q 2381 391 2643 752 
Q 2906 1113 2906 1747 
Q 2906 2381 2643 2742 
Q 2381 3103 1925 3103 
Q 1469 3103 1208 2742 
Q 947 2381 947 1747 
z
" transform="scale(0.015625)"/>
       <path id="DejaVuSans-75" d="M 544 1381 
L 544 3500 
L 1119 3500 
L 1119 1403 
Q 1119 906 1312 657 
Q 1506 409 1894 409 
Q 2359 409 2629 706 
Q 2900 1003 2900 1516 
L 2900 3500 
L 3475 3500 
L 3475 0 
L 2900 0 
L 2900 538 
Q 2691 219 2414 64 
Q 2138 -91 1772 -91 
Q 1169 -91 856 284 
Q 544 659 544 1381 
z
M 1991 3584 
L 1991 3584 
z
" transform="scale(0.015625)"/>
       <path id="DejaVuSans-72" d="M 2631 2963 
Q 2534 3019 2420 3045 
Q 2306 3072 2169 3072 
Q 1681 3072 1420 2755 
Q 1159 2438 1159 1844 
L 1159 0 
L 581 0 
L 581 3500 
L 1159 3500 
L 1159 2956 
Q 1341 3275 1631 3429 
Q 1922 3584 2338 3584 
Q 2397 3584 2469 3576 
Q 2541 3569 2628 3553 
L 2631 2963 
z
" transform="scale(0.015625)"/>
       <path id="DejaVuSans-61" d="M 2194 1759 
Q 1497 1759 1228 1600 
Q 959 1441 959 1056 
Q 959 750 1161 570 
Q 1363 391 1709 391 
Q 2188 391 2477 730 
Q 2766 1069 2766 1631 
L 2766 1759 
L 2194 1759 
z
M 3341 1997 
L 3341 0 
L 2766 0 
L 2766 531 
Q 2569 213 2275 61 
Q 1981 -91 1556 -91 
Q 1019 -91 701 211 
Q 384 513 384 1019 
Q 384 1609 779 1909 
Q 1175 2209 1959 2209 
L 2766 2209 
L 2766 2266 
Q 2766 2663 2505 2880 
Q 2244 3097 1772 3097 
Q 1472 3097 1187 3025 
Q 903 2953 641 2809 
L 641 3341 
Q 956 3463 1253 3523 
Q 1550 3584 1831 3584 
Q 2591 3584 2966 3190 
Q 3341 2797 3341 1997 
z
" transform="scale(0.015625)"/>
       <path id="DejaVuSans-69" d="M 603 3500 
L 1178 3500 
L 1178 0 
L 603 0 
L 603 3500 
z
M 603 4863 
L 1178 4863 
L 1178 4134 
L 603 4134 
L 603 4863 
z
" transform="scale(0.015625)"/>
       <path id="DejaVuSans-6f" d="M 1959 3097 
Q 1497 3097 1228 2736 
Q 959 2375 959 1747 
Q 959 1119 1226 758 
Q 1494 397 1959 397 
Q 2419 397 2687 759 
Q 2956 1122 2956 1747 
Q 2956 2369 2687 2733 
Q 2419 3097 1959 3097 
z
M 1959 3584 
Q 2709 3584 3137 3096 
Q 3566 2609 3566 1747 
Q 3566 888 3137 398 
Q 2709 -91 1959 -91 
Q 1206 -91 779 398 
Q 353 888 353 1747 
Q 353 2609 779 3096 
Q 1206 3584 1959 3584 
z
" transform="scale(0.015625)"/>
       <path id="DejaVuSans-6e" d="M 3513 2113 
L 3513 0 
L 2938 0 
L 2938 2094 
Q 2938 2591 2744 2837 
Q 2550 3084 2163 3084 
Q 1697 3084 1428 2787 
Q 1159 2491 1159 1978 
L 1159 0 
L 581 0 
L 581 3500 
L 1159 3500 
L 1159 2956 
Q 1366 3272 1645 3428 
Q 1925 3584 2291 3584 
Q 2894 3584 3203 3211 
Q 3513 2838 3513 2113 
z
" transform="scale(0.015625)"/>
       <path id="DejaVuSans-28" d="M 1984 4856 
Q 1566 4138 1362 3434 
Q 1159 2731 1159 2009 
Q 1159 1288 1364 580 
Q 1569 -128 1984 -844 
L 1484 -844 
Q 1016 -109 783 600 
Q 550 1309 550 2009 
Q 550 2706 781 3412 
Q 1013 4119 1484 4856 
L 1984 4856 
z
" transform="scale(0.015625)"/>
       <path id="DejaVuSans-4d" d="M 628 4666 
L 1569 4666 
L 2759 1491 
L 3956 4666 
L 4897 4666 
L 4897 0 
L 4281 0 
L 4281 4097 
L 3078 897 
L 2444 897 
L 1241 4097 
L 1241 0 
L 628 0 
L 628 4666 
z
" transform="scale(0.015625)"/>
       <path id="DejaVuSans-29" d="M 513 4856 
L 1013 4856 
Q 1481 4119 1714 3412 
Q 1947 2706 1947 2009 
Q 1947 1309 1714 600 
Q 1481 -109 1013 -844 
L 513 -844 
Q 928 -128 1133 580 
Q 1338 1288 1338 2009 
Q 1338 2731 1133 3434 
Q 928 4138 513 4856 
z
" transform="scale(0.015625)"/>
      </defs>
      <use xlink:href="#DejaVuSans-54"/>
      <use xlink:href="#DejaVuSans-65" x="44.083984"/>
      <use xlink:href="#DejaVuSans-73" x="105.607422"/>
      <use xlink:href="#DejaVuSans-74" x="157.707031"/>
      <use xlink:href="#DejaVuSans-20" x="196.916016"/>
      <use xlink:href="#DejaVuSans-64" x="228.703125"/>
      <use xlink:href="#DejaVuSans-75" x="292.179688"/>
      <use xlink:href="#DejaVuSans-72" x="355.558594"/>
      <use xlink:href="#DejaVuSans-61" x="396.671875"/>
      <use xlink:href="#DejaVuSans-74" x="457.951172"/>
      <use xlink:href="#DejaVuSans-69" x="497.160156"/>
      <use xlink:href="#DejaVuSans-6f" x="524.943359"/>
      <use xlink:href="#DejaVuSans-6e" x="586.125"/>
      <use xlink:href="#DejaVuSans-20" x="649.503906"/>
      <use xlink:href="#DejaVuSans-28" x="681.291016"/>
      <use xlink:href="#DejaVuSans-4d" x="720.304688"/>
      <use xlink:href="#DejaVuSans-69" x="806.583984"/>
      <use xlink:href="#DejaVuSans-6e" x="834.367188"/>
      <use xlink:href="#DejaVuSans-75" x="897.746094"/>
      <use xlink:href="#DejaVuSans-74" x="961.125"/>
      <use xlink:href="#DejaVuSans-65" x="1000.333984"/>
      <use xlink:href="#DejaVuSans-73" x="1061.857422"/>
      <use xlink:href="#DejaVuSans-29" x="1113.957031"/>
     </g>
    </g>
   </g>
   <g id="matplotlib.axis_2">
    <g id="ytick_1">
     <g id="line2d_9">
      <defs>
       <path id="m9c49925244" d="M 0 0 
L -3.5 0 
" style="stroke: #000000; stroke-width: 0.8"/>
      </defs>
      <g>
       <use xlink:href="#m9c49925244" x="60.05" y="387.16" style="stroke: #000000; stroke-width: 0.8"/>
      </g>
     </g>
     <g id="text_10">
      <!-- 0 -->
      <g transform="translate(46.6875 390.959219) scale(0.1 -0.1)">
       <use xlink:href="#DejaVuSans-30"/>
      </g>
     </g>
    </g>
    <g id="ytick_2">
     <g id="line2d_10">
      <g>
       <use xlink:href="#m9c49925244" x="60.05" y="320.855492" style="stroke: #000000; stroke-width: 0.8"/>
      </g>
     </g>
     <g id="text_11">
      <!-- 500 -->
      <g transform="translate(33.9625 324.65471) scale(0.1 -0.1)">
       <use xlink:href="#DejaVuSans-35"/>
       <use xlink:href="#DejaVuSans-30" x="63.623047"/>
       <use xlink:href="#DejaVuSans-30" x="127.246094"/>
      </g>
     </g>
    </g>
    <g id="ytick_3">
     <g id="line2d_11">
      <g>
       <use xlink:href="#m9c49925244" x="60.05" y="254.550983" style="stroke: #000000; stroke-width: 0.8"/>
      </g>
     </g>
     <g id="text_12">
      <!-- 1000 -->
      <g transform="translate(27.6 258.350202) scale(0.1 -0.1)">
       <use xlink:href="#DejaVuSans-31"/>
       <use xlink:href="#DejaVuSans-30" x="63.623047"/>
       <use xlink:href="#DejaVuSans-30" x="127.246094"/>
       <use xlink:href="#DejaVuSans-30" x="190.869141"/>
      </g>
     </g>
    </g>
    <g id="ytick_4">
     <g id="line2d_12">
      <g>
       <use xlink:href="#m9c49925244" x="60.05" y="188.246475" style="stroke: #000000; stroke-width: 0.8"/>
      </g>
     </g>
     <g id="text_13">
      <!-- 1500 -->
      <g transform="translate(27.6 192.045693) scale(0.1 -0.1)">
       <use xlink:href="#DejaVuSans-31"/>
       <use xlink:href="#DejaVuSans-35" x="63.623047"/>
       <use xlink:href="#DejaVuSans-30" x="127.246094"/>
       <use xlink:href="#DejaVuSans-30" x="190.869141"/>
      </g>
     </g>
    </g>
    <g id="ytick_5">
     <g id="line2d_13">
      <g>
       <use xlink:href="#m9c49925244" x="60.05" y="121.941966" style="stroke: #000000; stroke-width: 0.8"/>
      </g>
     </g>
     <g id="text_14">
      <!-- 2000 -->
      <g transform="translate(27.6 125.741185) scale(0.1 -0.1)">
       <use xlink:href="#DejaVuSans-32"/>
       <use xlink:href="#DejaVuSans-30" x="63.623047"/>
       <use xlink:href="#DejaVuSans-30" x="127.246094"/>
       <use xlink:href="#DejaVuSans-30" x="190.869141"/>
      </g>
     </g>
    </g>
    <g id="ytick_6">
     <g id="line2d_14">
      <g>
       <use xlink:href="#m9c49925244" x="60.05" y="55.637458" style="stroke: #000000; stroke-width: 0.8"/>
      </g>
     </g>
     <g id="text_15">
      <!-- 2500 -->
      <g transform="translate(27.6 59.436676) scale(0.1 -0.1)">
       <use xlink:href="#DejaVuSans-32"/>
       <use xlink:href="#DejaVuSans-35" x="63.623047"/>
       <use xlink:href="#DejaVuSans-30" x="127.246094"/>
       <use xlink:href="#DejaVuSans-30" x="190.869141"/>
      </g>
     </g>
    </g>
    <g id="text_16">
     <!-- Clock (MHz) -->
     <g transform="translate(21.104375 243.468125) rotate(-90) scale(0.12 -0.12)">
      <defs>
       <path id="DejaVuSans-43" d="M 4122 4306 
L 4122 3641 
Q 3803 3938 3442 4084 
Q 3081 4231 2675 4231 
Q 1875 4231 1450 3742 
Q 1025 3253 1025 2328 
Q 1025 1406 1450 917 
Q 1875 428 2675 428 
Q 3081 428 3442 575 
Q 3803 722 4122 1019 
L 4122 359 
Q 3791 134 3420 21 
Q 3050 -91 2638 -91 
Q 1578 -91 968 557 
Q 359 1206 359 2328 
Q 359 3453 968 4101 
Q 1578 4750 2638 4750 
Q 3056 4750 3426 4639 
Q 3797 4528 4122 4306 
z
" transform="scale(0.015625)"/>
       <path id="DejaVuSans-6c" d="M 603 4863 
L 1178 4863 
L 1178 0 
L 603 0 
L 603 4863 
z
" transform="scale(0.015625)"/>
       <path id="DejaVuSans-63" d="M 3122 3366 
L 3122 2828 
Q 2878 2963 2633 3030 
Q 2388 3097 2138 3097 
Q 1578 3097 1268 2742 
Q 959 2388 959 1747 
Q 959 1106 1268 751 
Q 1578 397 2138 397 
Q 2388 397 2633 464 
Q 2878 531 3122 666 
L 3122 134 
Q 2881 22 2623 -34 
Q 2366 -91 2075 -91 
Q 1284 -91 818 406 
Q 353 903 353 1747 
Q 353 2603 823 3093 
Q 1294 3584 2113 3584 
Q 2378 3584 2631 3529 
Q 2884 3475 3122 3366 
z
" transform="scale(0.015625)"/>
       <path id="DejaVuSans-6b" d="M 581 4863 
L 1159 4863 
L 1159 1991 
L 2875 3500 
L 3609 3500 
L 1753 1863 
L 3688 0 
L 2938 0 
L 1159 1709 
L 1159 0 
L 581 0 
L 581 4863 
z
" transform="scale(0.015625)"/>
       <path id="DejaVuSans-48" d="M 628 4666 
L 1259 4666 
L 1259 2753 
L 3553 2753 
L 3553 4666 
L 4184 4666 
L 4184 0 
L 3553 0 
L 3553 2222 
L 1259 2222 
L 1259 0 
L 628 0 
L 628 4666 
z
" transform="scale(0.015625)"/>
       <path id="DejaVuSans-7a" d="M 353 3500 
L 3084 3500 
L 3084 2975 
L 922 459 
L 3084 459 
L 3084 0 
L 275 0 
L 275 525 
L 2438 3041 
L 353 3041 
L 353 3500 
z
" transform="scale(0.015625)"/>
      </defs>
      <use xlink:href="#DejaVuSans-43"/>
      <use xlink:href="#DejaVuSans-6c" x="69.824219"/>
      <use xlink:href="#DejaVuSans-6f" x="97.607422"/>
      <use xlink:href="#DejaVuSans-63" x="158.789062"/>
      <use xlink:href="#DejaVuSans-6b" x="213.769531"/>
      <use xlink:href="#DejaVuSans-20" x="271.679688"/>
      <use xlink:href="#DejaVuSans-28" x="303.466797"/>
      <use xlink:href="#DejaVuSans-4d" x="342.480469"/>
      <use xlink:href="#DejaVuSans-48" x="428.759766"/>
      <use xlink:href="#DejaVuSans-7a" x="503.955078"/>
      <use xlink:href="#DejaVuSans-29" x="556.445312"/>
     </g>
    </g>
   </g>
   <g id="line2d_15">
    <path d="M 60.05 387.16 
L 62.042867 387.16 
L 62.71625 98.735388 
L 66.179979 98.735388 
L 66.716956 355.333836 
L 67.388342 98.735388 
L 68.058065 98.735388 
L 68.726125 261.844479 
L 69.388196 98.735388 
L 70.058917 249.909667 
L 70.72864 305.605455 
L 71.402689 184.268204 
L 72.066423 224.050909 
L 72.738475 245.931397 
L 73.406867 277.757561 
L 74.070602 104.702794 
L 74.729679 94.757118 
L 75.398736 60.941818 
L 76.066131 279.746696 
L 76.736187 311.57286 
L 77.399921 76.8549 
L 78.07164 100.724523 
L 78.735375 76.8549 
L 79.399109 60.941818 
L 80.062844 62.930953 
L 91.402225 62.930953 
L 92.071282 94.757118 
L 92.734684 86.800576 
L 93.399417 180.289933 
L 94.062486 186.257339 
L 94.732874 184.268204 
L 95.398273 88.789712 
L 96.068994 90.778847 
L 96.732728 88.789712 
L 97.397128 64.920089 
L 98.062859 62.930953 
L 102.063232 62.930953 
L 102.732622 128.572417 
L 103.400682 62.930953 
L 104.06608 112.659335 
L 104.738797 148.463769 
L 105.404195 122.605011 
L 106.068928 62.930953 
L 108.071444 62.930953 
L 108.734845 98.735388 
L 109.405899 90.778847 
L 110.736695 64.920089 
L 111.405753 68.898359 
L 113.405607 68.898359 
L 114.740395 64.920089 
L 115.409453 68.898359 
L 116.072522 70.887494 
L 116.736922 66.909224 
L 117.408974 70.887494 
L 118.072043 70.887494 
L 118.737774 72.87663 
L 119.408828 70.887494 
L 120.07722 70.887494 
L 120.739624 68.898359 
L 121.415668 70.887494 
L 122.087055 66.909224 
L 122.749126 72.87663 
L 123.418184 72.87663 
L 124.085245 80.833171 
L 124.759959 74.865765 
L 125.428351 86.800576 
L 126.089757 80.833171 
L 126.760478 80.833171 
L 127.423547 84.811441 
L 128.091274 86.800576 
L 128.756672 92.767982 
L 129.425065 86.800576 
L 130.088134 90.778847 
L 130.761849 98.735388 
L 131.428911 86.800576 
L 132.759041 94.757118 
L 133.426436 102.713659 
L 134.093497 94.757118 
L 134.758563 98.735388 
L 136.091687 94.757118 
L 136.764738 102.713659 
L 137.432465 98.735388 
L 138.102853 104.702794 
L 138.775903 106.691929 
L 139.442299 102.713659 
L 140.105701 100.724523 
L 140.774759 110.6702 
L 141.438826 106.691929 
L 142.105888 110.6702 
L 142.769289 106.691929 
L 143.440343 108.681064 
L 144.109734 108.681064 
L 144.774466 106.691929 
L 145.443524 62.930953 
L 146.105263 106.691929 
L 146.773655 62.930953 
L 150.788999 62.930953 
L 151.45473 102.713659 
L 152.123788 100.724523 
L 152.793511 80.833171 
L 153.466894 84.811441 
L 154.132292 64.920089 
L 154.795028 72.87663 
L 155.461424 76.8549 
L 156.130482 64.920089 
L 156.800871 70.887494 
L 157.47259 66.909224 
L 158.138321 84.811441 
L 158.802055 82.822306 
L 159.465457 62.930953 
L 160.133517 166.365987 
L 160.797251 122.605011 
L 161.466309 212.116098 
L 162.139359 235.985721 
L 162.805422 251.898803 
L 163.482798 70.887494 
L 164.143871 72.87663 
L 164.814592 60.941818 
L 165.480655 88.789712 
L 166.144057 62.930953 
L 166.805463 68.898359 
L 167.475186 62.930953 
L 168.811305 62.930953 
L 169.477036 76.8549 
L 170.141436 62.930953 
L 175.477263 62.930953 
L 176.145988 60.941818 
L 177.476784 60.941818 
L 178.145841 82.822306 
L 178.814899 66.909224 
L 179.48429 62.930953 
L 180.148357 62.930953 
L 180.813089 60.941818 
L 181.478487 174.322528 
L 182.147213 226.040044 
L 182.810614 186.257339 
L 183.481668 176.311663 
L 184.143074 60.941818 
L 184.808139 154.431175 
L 185.476532 194.21388 
L 186.142595 208.137827 
L 186.812651 88.789712 
L 187.478714 90.778847 
L 188.142449 84.811441 
L 188.806516 60.941818 
L 194.139349 60.941818 
L 194.80641 68.898359 
L 195.477797 80.833171 
L 196.143195 62.930953 
L 198.144712 62.930953 
L 198.815766 68.898359 
L 199.485156 66.909224 
L 200.155545 62.930953 
L 202.163716 62.930953 
L 202.82978 64.920089 
L 203.494512 64.920089 
L 204.158247 62.930953 
L 206.15677 62.930953 
L 206.823166 70.887494 
L 207.492224 70.887494 
L 208.14997 62.930953 
L 220.155081 62.930953 
L 220.82547 64.920089 
L 221.488206 62.930953 
L 222.829316 62.930953 
L 223.497375 64.920089 
L 224.163771 62.930953 
L 224.835491 66.909224 
L 225.499891 62.930953 
L 226.169947 62.930953 
L 227.508727 66.909224 
L 228.17712 62.930953 
L 228.851168 64.920089 
L 229.515235 62.930953 
L 230.851022 62.930953 
L 231.522076 66.909224 
L 232.188804 62.930953 
L 233.524924 66.909224 
L 234.186995 64.920089 
L 235.518456 64.920089 
L 236.181193 62.930953 
L 236.849585 64.920089 
L 238.853098 64.920089 
L 239.523487 66.909224 
L 240.187887 62.930953 
L 247.526229 62.930953 
L 248.190629 64.920089 
L 248.858023 62.930953 
L 252.861391 62.930953 
L 253.52446 64.920089 
L 254.192187 62.930953 
L 254.856254 62.930953 
L 255.522983 64.920089 
L 256.193371 62.930953 
L 256.861098 64.920089 
L 257.534481 62.930953 
L 268.870535 62.930953 
L 269.537596 64.920089 
L 270.202994 62.930953 
L 274.873756 62.930953 
L 275.545808 64.920089 
L 276.207879 62.930953 
L 276.878933 66.909224 
L 277.538342 66.909224 
L 278.211392 62.930953 
L 278.87679 64.920089 
L 279.545515 64.920089 
L 280.206921 62.930953 
L 280.8823 62.930953 
L 281.544704 64.920089 
L 282.212431 62.930953 
L 283.542561 62.930953 
L 284.210621 66.909224 
L 284.877017 78.844035 
L 285.545409 72.87663 
L 286.210475 74.865765 
L 286.875207 66.909224 
L 287.540273 70.887494 
L 288.206003 64.920089 
L 288.871401 62.930953 
L 290.203528 62.930953 
L 290.869592 68.898359 
L 291.535988 62.930953 
L 295.536694 62.930953 
L 296.20309 60.941818 
L 298.869672 60.941818 
L 299.538397 88.789712 
L 300.201467 66.909224 
L 300.864868 62.930953 
L 302.194334 62.930953 
L 302.862061 64.920089 
L 303.526128 64.920089 
L 304.196184 66.909224 
L 304.865574 62.930953 
L 305.530639 64.920089 
L 306.866093 60.941818 
L 308.195891 60.941818 
L 308.86628 178.300798 
L 309.527353 214.105233 
L 310.195412 237.974856 
L 310.863805 192.224745 
L 311.529203 86.800576 
L 312.201587 78.844035 
L 312.865655 64.920089 
L 313.53072 62.930953 
L 318.193497 62.930953 
L 318.860226 84.811441 
L 319.529283 68.898359 
L 320.199672 62.930953 
L 331.539385 62.930953 
L 332.208776 70.887494 
L 332.87251 64.920089 
L 333.544229 62.930953 
L 334.198648 78.844035 
L 334.866375 144.485499 
L 335.536764 82.822306 
L 336.201496 78.844035 
L 336.868558 84.811441 
L 337.537948 68.898359 
L 338.202348 62.930953 
L 343.549154 62.930953 
L 344.215883 102.713659 
L 344.883943 76.8549 
L 345.558324 74.865765 
L 346.225385 62.930953 
L 346.887789 68.898359 
L 347.550858 62.930953 
L 400.928756 62.930953 
L 401.59615 74.865765 
L 402.260883 62.930953 
L 415.60544 62.930953 
L 416.270506 84.811441 
L 416.940229 66.909224 
L 417.614942 62.930953 
L 419.614131 62.930953 
L 420.281858 66.909224 
L 420.949252 62.930953 
L 421.617644 66.909224 
L 422.954429 62.930953 
L 423.6165 66.909224 
L 424.285558 62.930953 
L 426.290069 62.930953 
L 427.630181 66.909224 
L 428.292585 62.930953 
L 429.631365 66.909224 
L 430.972475 62.930953 
L 432.978983 62.930953 
L 433.644381 66.909224 
L 434.312773 66.909224 
L 435.643569 62.930953 
L 437.649412 62.930953 
L 438.312814 64.920089 
L 439.641946 64.920089 
L 440.313333 62.930953 
L 445.6455 62.930953 
L 446.313227 66.909224 
L 446.980621 62.930953 
L 447.651342 62.930953 
L 448.318404 66.909224 
L 448.985465 62.930953 
L 454.327613 62.930953 
L 454.999 68.898359 
L 455.664398 62.930953 
L 458.330648 62.930953 
L 458.995381 64.920089 
L 459.664106 62.930953 
L 460.334494 66.909224 
L 460.992906 66.909224 
L 461.667287 62.930953 
L 462.332352 66.909224 
L 462.998748 68.898359 
L 463.663813 62.930953 
L 464.331208 66.909224 
L 465.000598 68.898359 
L 465.669656 74.865765 
L 466.337715 70.887494 
L 467.010433 62.930953 
L 467.673835 70.887494 
L 469.015942 66.909224 
L 469.686331 68.898359 
L 470.353725 64.920089 
L 471.018125 68.898359 
L 471.689179 66.909224 
L 472.354577 62.930953 
L 473.024633 66.909224 
L 473.682712 68.898359 
L 474.352435 60.941818 
L 475.686558 60.941818 
L 476.357279 100.724523 
L 477.020681 82.822306 
L 477.690071 80.833171 
L 478.362123 60.941818 
L 479.023862 62.930953 
L 487.029265 62.930953 
L 487.696327 64.920089 
L 488.360061 62.930953 
L 491.698031 62.930953 
L 492.362763 82.822306 
L 493.040804 62.930953 
L 493.69489 62.930953 
L 494.368606 66.909224 
L 495.033671 66.909224 
L 495.703394 74.865765 
L 496.368127 60.941818 
L 497.714227 142.496364 
L 498.378294 82.822306 
L 499.042694 70.887494 
L 499.715412 70.887494 
L 500.377815 62.930953 
L 503.71645 62.930953 
L 504.384842 76.8549 
L 505.046913 66.909224 
L 505.720962 62.930953 
L 508.387877 62.930953 
L 509.056602 60.941818 
L 509.726658 186.257339 
L 510.39505 196.203016 
L 511.0681 152.44204 
L 511.730837 152.44204 
L 512.404219 176.311663 
L 513.065625 88.789712 
L 513.727031 78.844035 
L 515.067475 62.930953 
L 523.729627 62.930953 
L 524.400681 64.920089 
L 525.070071 62.930953 
L 528.42035 62.930953 
L 529.080758 64.920089 
L 529.74915 70.887494 
L 530.415546 68.898359 
L 531.080279 70.887494 
L 532.414735 66.909224 
L 533.086787 70.887494 
L 533.75651 64.920089 
L 535.084311 64.920089 
L 535.748379 66.909224 
L 536.421429 62.930953 
L 539.094998 62.930953 
L 539.755406 64.920089 
L 540.426127 62.930953 
L 541.755592 66.909224 
L 542.419992 64.920089 
L 543.088052 64.920089 
L 543.756777 62.930953 
L 548.423879 62.930953 
L 549.757669 66.909224 
L 551.091792 66.909224 
L 551.761182 62.930953 
L 552.427911 64.920089 
L 553.091646 68.898359 
L 553.760038 64.920089 
L 554.424438 62.930953 
L 556.426621 62.930953 
L 557.097342 64.920089 
L 557.766732 62.930953 
L 558.435457 66.909224 
L 559.097861 62.930953 
L 559.762261 64.920089 
L 560.426328 64.920089 
L 561.092059 66.909224 
L 561.76278 64.920089 
L 562.426515 64.920089 
L 563.096903 70.887494 
L 563.760971 70.887494 
L 564.424705 62.930953 
L 565.094761 66.909224 
L 565.760159 66.909224 
L 566.430547 64.920089 
L 568.433063 64.920089 
L 569.101455 62.930953 
L 569.764857 68.898359 
L 571.101309 64.920089 
L 571.769036 64.920089 
L 572.432105 62.930953 
L 573.096505 66.909224 
L 573.765563 62.930953 
L 574.433622 70.887494 
L 575.103678 70.887494 
L 575.772071 72.87663 
L 576.442126 64.920089 
L 577.116175 66.909224 
L 577.78124 62.930953 
L 579.776769 62.930953 
L 580.44383 60.941818 
L 581.77263 60.941818 
L 583.766162 247.920532 
L 584.435553 220.072639 
L 585.101284 90.778847 
L 586.429418 60.941818 
L 587.093818 68.898359 
L 587.761878 66.909224 
L 588.434928 62.930953 
L 589.10332 80.833171 
L 589.769384 62.930953 
L 590.439772 68.898359 
L 591.104172 64.920089 
L 591.767907 62.930953 
L 593.099368 62.930953 
L 593.76277 64.920089 
L 594.432493 62.930953 
L 595.761958 62.930953 
L 597.091091 86.800576 
L 597.760481 66.909224 
L 599.092941 66.909224 
L 599.763329 62.930953 
L 601.097785 96.746253 
L 601.769837 64.920089 
L 602.435568 70.887494 
L 603.101631 60.941818 
L 603.769691 230.018315 
L 604.437418 247.920532 
L 605.105477 98.735388 
L 605.774868 190.23561 
L 606.441929 60.941818 
L 607.110987 60.941818 
L 607.780045 98.735388 
L 608.447439 60.941818 
L 609.118493 90.778847 
L 609.787218 62.930953 
L 610.451285 70.887494 
L 611.122672 60.941818 
L 611.788735 70.887494 
L 612.454466 60.941818 
L 613.784929 64.920089 
L 614.451658 84.811441 
L 615.116391 82.822306 
L 615.778129 68.898359 
L 616.445191 62.930953 
L 619.776839 62.930953 
L 620.43891 60.941818 
L 623.768562 60.941818 
L 624.437619 210.126962 
L 625.101687 253.887938 
L 625.774071 220.072639 
L 626.443129 204.159557 
L 627.11385 76.8549 
L 627.776587 82.822306 
L 628.445977 66.909224 
L 629.113704 66.909224 
L 629.786089 60.941818 
L 630.458141 60.941818 
L 631.117883 62.930953 
L 631.793262 62.930953 
L 632.457329 64.920089 
L 633.127052 68.898359 
L 633.789123 62.930953 
L 637.792491 62.930953 
L 638.455227 64.920089 
L 639.126614 86.800576 
L 639.793675 60.941818 
L 641.798852 60.941818 
L 642.460923 84.811441 
L 643.129316 80.833171 
L 643.798373 66.909224 
L 644.461775 90.778847 
L 645.128837 62.930953 
L 645.79856 84.811441 
L 646.466619 68.898359 
L 647.140335 62.930953 
L 650.462335 62.930953 
L 651.127733 94.757118 
L 651.796125 74.865765 
L 652.458529 60.941818 
L 653.128252 60.941818 
L 653.792984 82.822306 
L 654.45805 70.887494 
L 655.79184 70.887494 
L 656.461896 64.920089 
L 657.131286 76.8549 
L 657.799346 62.930953 
L 665.811404 62.930953 
L 666.479796 82.822306 
L 667.146858 70.887494 
L 667.820573 64.920089 
L 668.49196 64.920089 
L 669.159687 66.909224 
L 669.825417 64.920089 
L 670.493144 64.920089 
L 671.160871 66.909224 
L 671.825271 62.930953 
L 673.824127 62.930953 
L 674.48886 68.898359 
L 675.158915 62.930953 
L 675.830302 62.930953 
L 676.487715 68.898359 
L 677.155775 62.930953 
L 677.822836 62.930953 
L 678.492892 66.909224 
L 679.167606 62.930953 
L 680.50306 62.930953 
L 681.164798 66.909224 
L 681.839512 62.930953 
L 683.845687 62.930953 
L 684.510419 64.920089 
L 685.172823 62.930953 
L 689.840923 62.930953 
L 690.513308 66.909224 
L 691.179704 64.920089 
L 691.845102 64.920089 
L 692.512496 62.930953 
L 693.178892 64.920089 
L 693.842627 64.920089 
L 694.511019 62.930953 
L 696.513867 62.930953 
L 697.175938 64.920089 
L 697.843665 62.930953 
L 705.85539 62.930953 
L 706.522784 68.898359 
L 707.191842 62.930953 
L 707.867887 62.930953 
L 708.529292 68.898359 
L 709.198683 62.930953 
L 715.193254 62.930953 
L 715.854659 106.691929 
L 716.522386 80.833171 
L 717.188117 62.930953 
L 718.520909 62.930953 
L 719.183978 66.909224 
L 719.851705 62.930953 
L 720.52775 64.920089 
L 721.198471 62.930953 
L 738.532422 62.930953 
L 739.19649 66.909224 
L 739.869207 62.930953 
L 740.539928 62.930953 
L 741.878044 66.909224 
L 743.208174 66.909224 
L 743.875236 68.898359 
L 744.543628 68.898359 
L 745.206365 62.930953 
L 745.873093 64.920089 
L 746.543815 64.920089 
L 747.207882 62.930953 
L 749.87147 62.930953 
L 750.534872 96.746253 
L 751.866001 64.920089 
L 752.530734 64.920089 
L 753.197795 62.930953 
L 753.86286 70.887494 
L 754.532916 62.930953 
L 772.540251 62.930953 
L 773.211637 66.909224 
L 773.882691 62.930953 
L 778.549793 62.930953 
L 779.21386 66.909224 
L 780.550645 62.930953 
L 790.551577 62.930953 
L 791.222298 68.898359 
L 791.888029 64.920089 
L 792.555091 66.909224 
L 793.228141 62.930953 
L 803.895137 62.930953 
L 804.566856 92.767982 
L 805.240904 64.920089 
L 805.899981 62.930953 
L 813.244645 62.930953 
L 813.909044 64.920089 
L 814.578102 62.930953 
L 816.589933 62.930953 
L 817.257993 64.920089 
L 817.921727 62.930953 
L 846.591732 62.930953 
L 847.257463 64.920089 
L 847.9202 62.930953 
L 851.927892 62.930953 
L 852.595952 64.920089 
L 853.266673 62.930953 
L 853.266673 62.930953 
" clip-path="url(#p85e63d14da)" style="fill: none; stroke: #e74c3c; stroke-width: 2; stroke-linecap: square"/>
   </g>
   <g id="patch_3">
    <path d="M 60.05 387.16 
L 60.05 28.32 
" style="fill: none; stroke: #000000; stroke-width: 0.8; stroke-linejoin: miter; stroke-linecap: square"/>
   </g>
   <g id="patch_4">
    <path d="M 853.2 387.16 
L 853.2 28.32 
" style="fill: none; stroke: #000000; stroke-width: 0.8; stroke-linejoin: miter; stroke-linecap: square"/>
   </g>
   <g id="patch_5">
    <path d="M 60.05 387.16 
L 853.2 387.16 
" style="fill: none; stroke: #000000; stroke-width: 0.8; stroke-linejoin: miter; stroke-linecap: square"/>
   </g>
   <g id="patch_6">
    <path d="M 60.05 28.32 
L 853.2 28.32 
" style="fill: none; stroke: #000000; stroke-width: 0.8; stroke-linejoin: miter; stroke-linecap: square"/>
   </g>
   <g id="text_17">
    <!-- GPU clock over time -->
    <g transform="translate(365.88875 22.32) scale(0.16 -0.16)">
     <defs>
      <path id="DejaVuSans-Bold-47" d="M 4781 347 
Q 4331 128 3847 18 
Q 3363 -91 2847 -91 
Q 1681 -91 1000 561 
Q 319 1213 319 2328 
Q 319 3456 1012 4103 
Q 1706 4750 2913 4750 
Q 3378 4750 3804 4662 
Q 4231 4575 4609 4403 
L 4609 3438 
Q 4219 3659 3833 3768 
Q 3447 3878 3059 3878 
Q 2341 3878 1952 3476 
Q 1563 3075 1563 2328 
Q 1563 1588 1938 1184 
Q 2313 781 3003 781 
Q 3191 781 3352 804 
Q 3513 828 3641 878 
L 3641 1784 
L 2906 1784 
L 2906 2591 
L 4781 2591 
L 4781 347 
z
" transform="scale(0.015625)"/>
      <path id="DejaVuSans-Bold-50" d="M 588 4666 
L 2584 4666 
Q 3475 4666 3951 4270 
Q 4428 3875 4428 3144 
Q 4428 2409 3951 2014 
Q 3475 1619 2584 1619 
L 1791 1619 
L 1791 0 
L 588 0 
L 588 4666 
z
M 1791 3794 
L 1791 2491 
L 2456 2491 
Q 2806 2491 2997 2661 
Q 3188 2831 3188 3144 
Q 3188 3456 2997 3625 
Q 2806 3794 2456 3794 
L 1791 3794 
z
" transform="scale(0.015625)"/>
      <path id="DejaVuSans-Bold-55" d="M 588 4666 
L 1791 4666 
L 1791 1869 
Q 1791 1291 1980 1042 
Q 2169 794 2597 794 
Q 3028 794 3217 1042 
Q 3406 1291 3406 1869 
L 3406 4666 
L 4609 4666 
L 4609 1869 
Q 4609 878 4112 393 
Q 3616 -91 2597 -91 
Q 1581 -91 1084 393 
Q 588 878 588 1869 
L 588 4666 
z
" transform="scale(0.015625)"/>
      <path id="DejaVuSans-Bold-20" transform="scale(0.015625)"/>
      <path id="DejaVuSans-Bold-63" d="M 3366 3391 
L 3366 2478 
Q 3138 2634 2908 2709 
Q 2678 2784 2431 2784 
Q 1963 2784 1702 2511 
Q 1441 2238 1441 1747 
Q 1441 1256 1702 982 
Q 1963 709 2431 709 
Q 2694 709 2930 787 
Q 3166 866 3366 1019 
L 3366 103 
Q 3103 6 2833 -42 
Q 2563 -91 2291 -91 
Q 1344 -91 809 395 
Q 275 881 275 1747 
Q 275 2613 809 3098 
Q 1344 3584 2291 3584 
Q 2566 3584 2833 3536 
Q 3100 3488 3366 3391 
z
" transform="scale(0.015625)"/>
      <path id="DejaVuSans-Bold-6c" d="M 538 4863 
L 1656 4863 
L 1656 0 
L 538 0 
L 538 4863 
z
" transform="scale(0.015625)"/>
      <path id="DejaVuSans-Bold-6f" d="M 2203 2784 
Q 1831 2784 1636 2517 
Q 1441 2250 1441 1747 
Q 1441 1244 1636 976 
Q 1831 709 2203 709 
Q 2569 709 2762 976 
Q 2956 1244 2956 1747 
Q 2956 2250 2762 2517 
Q 2569 2784 2203 2784 
z
M 2203 3584 
Q 3106 3584 3614 3096 
Q 4122 2609 4122 1747 
Q 4122 884 3614 396 
Q 3106 -91 2203 -91 
Q 1297 -91 786 396 
Q 275 884 275 1747 
Q 275 2609 786 3096 
Q 1297 3584 2203 3584 
z
" transform="scale(0.015625)"/>
      <path id="DejaVuSans-Bold-6b" d="M 538 4863 
L 1656 4863 
L 1656 2216 
L 2944 3500 
L 4244 3500 
L 2534 1894 
L 4378 0 
L 3022 0 
L 1656 1459 
L 1656 0 
L 538 0 
L 538 4863 
z
" transform="scale(0.015625)"/>
      <path id="DejaVuSans-Bold-76" d="M 97 3500 
L 1216 3500 
L 2088 1081 
L 2956 3500 
L 4078 3500 
L 2700 0 
L 1472 0 
L 97 3500 
z
" transform="scale(0.015625)"/>
      <path id="DejaVuSans-Bold-65" d="M 4031 1759 
L 4031 1441 
L 1416 1441 
Q 1456 1047 1700 850 
Q 1944 653 2381 653 
Q 2734 653 3104 758 
Q 3475 863 3866 1075 
L 3866 213 
Q 3469 63 3072 -14 
Q 2675 -91 2278 -91 
Q 1328 -91 801 392 
Q 275 875 275 1747 
Q 275 2603 792 3093 
Q 1309 3584 2216 3584 
Q 3041 3584 3536 3087 
Q 4031 2591 4031 1759 
z
M 2881 2131 
Q 2881 2450 2695 2645 
Q 2509 2841 2209 2841 
Q 1884 2841 1681 2658 
Q 1478 2475 1428 2131 
L 2881 2131 
z
" transform="scale(0.015625)"/>
      <path id="DejaVuSans-Bold-72" d="M 3138 2547 
Q 2991 2616 2845 2648 
Q 2700 2681 2553 2681 
Q 2122 2681 1889 2404 
Q 1656 2128 1656 1613 
L 1656 0 
L 538 0 
L 538 3500 
L 1656 3500 
L 1656 2925 
Q 1872 3269 2151 3426 
Q 2431 3584 2822 3584 
Q 2878 3584 2943 3579 
Q 3009 3575 3134 3559 
L 3138 2547 
z
" transform="scale(0.015625)"/>
      <path id="DejaVuSans-Bold-74" d="M 1759 4494 
L 1759 3500 
L 2913 3500 
L 2913 2700 
L 1759 2700 
L 1759 1216 
Q 1759 972 1856 886 
Q 1953 800 2241 800 
L 2816 800 
L 2816 0 
L 1856 0 
Q 1194 0 917 276 
Q 641 553 641 1216 
L 641 2700 
L 84 2700 
L 84 3500 
L 641 3500 
L 641 4494 
L 1759 4494 
z
" transform="scale(0.015625)"/>
      <path id="DejaVuSans-Bold-69" d="M 538 3500 
L 1656 3500 
L 1656 0 
L 538 0 
L 538 3500 
z
M 538 4863 
L 1656 4863 
L 1656 3950 
L 538 3950 
L 538 4863 
z
" transform="scale(0.015625)"/>
      <path id="DejaVuSans-Bold-6d" d="M 3781 2919 
Q 3994 3244 4286 3414 
Q 4578 3584 4928 3584 
Q 5531 3584 5847 3212 
Q 6163 2841 6163 2131 
L 6163 0 
L 5038 0 
L 5038 1825 
Q 5041 1866 5042 1909 
Q 5044 1953 5044 2034 
Q 5044 2406 4934 2573 
Q 4825 2741 4581 2741 
Q 4263 2741 4089 2478 
Q 3916 2216 3909 1719 
L 3909 0 
L 2784 0 
L 2784 1825 
Q 2784 2406 2684 2573 
Q 2584 2741 2328 2741 
Q 2006 2741 1831 2477 
Q 1656 2213 1656 1722 
L 1656 0 
L 531 0 
L 531 3500 
L 1656 3500 
L 1656 2988 
Q 1863 3284 2130 3434 
Q 2397 3584 2719 3584 
Q 3081 3584 3359 3409 
Q 3638 3234 3781 2919 
z
" transform="scale(0.015625)"/>
     </defs>
     <use xlink:href="#DejaVuSans-Bold-47"/>
     <use xlink:href="#DejaVuSans-Bold-50" x="82.080078"/>
     <use xlink:href="#DejaVuSans-Bold-55" x="155.371094"/>
     <use xlink:href="#DejaVuSans-Bold-20" x="236.572266"/>
     <use xlink:href="#DejaVuSans-Bold-63" x="271.386719"/>
     <use xlink:href="#DejaVuSans-Bold-6c" x="330.664062"/>
     <use xlink:href="#DejaVuSans-Bold-6f" x="364.941406"/>
     <use xlink:href="#DejaVuSans-Bold-63" x="433.642578"/>
     <use xlink:href="#DejaVuSans-Bold-6b" x="492.919922"/>
     <use xlink:href="#DejaVuSans-Bold-20" x="559.423828"/>
     <use xlink:href="#DejaVuSans-Bold-6f" x="594.238281"/>
     <use xlink:href="#DejaVuSans-Bold-76" x="662.939453"/>
     <use xlink:href="#DejaVuSans-Bold-65" x="728.125"/>
     <use xlink:href="#DejaVuSans-Bold-72" x="795.947266"/>
     <use xlink:href="#DejaVuSans-Bold-20" x="845.263672"/>
     <use xlink:href="#DejaVuSans-Bold-74" x="880.078125"/>
     <use xlink:href="#DejaVuSans-Bold-69" x="927.880859"/>
     <use xlink:href="#DejaVuSans-Bold-6d" x="962.158203"/>
     <use xlink:href="#DejaVuSans-Bold-65" x="1066.357422"/>
    </g>
   </g>
   <g id="legend_1">
    <g id="patch_7">
     <path d="M 707.0875 67.67625 
L 848.2 67.67625 
Q 850.2 67.67625 850.2 65.67625 
L 850.2 37.32 
Q 850.2 35.32 848.2 35.32 
L 707.0875 35.32 
Q 705.0875 35.32 705.0875 37.32 
L 705.0875 65.67625 
Q 705.0875 67.67625 707.0875 67.67625 
z
" style="fill: #4d4d4d; opacity: 0.5; stroke: #4d4d4d; stroke-linejoin: miter"/>
    </g>
    <g id="patch_8">
     <path d="M 705.0875 65.67625 
L 846.2 65.67625 
Q 848.2 65.67625 848.2 63.67625 
L 848.2 35.32 
Q 848.2 33.32 846.2 33.32 
L 705.0875 33.32 
Q 703.0875 33.32 703.0875 35.32 
L 703.0875 63.67625 
Q 703.0875 65.67625 705.0875 65.67625 
z
" style="fill: #ffffff; stroke: #cccccc; stroke-linejoin: miter"/>
    </g>
    <g id="line2d_16">
     <path d="M 707.0875 41.418437 
L 717.0875 41.418437 
L 727.0875 41.418437 
" style="fill: none; stroke: #e74c3c; stroke-width: 2; stroke-linecap: square"/>
    </g>
    <g id="text_18">
     <!-- GPU clock (MHz) -->
     <g transform="translate(735.0875 44.918437) scale(0.1 -0.1)">
      <defs>
       <path id="DejaVuSans-47" d="M 3809 666 
L 3809 1919 
L 2778 1919 
L 2778 2438 
L 4434 2438 
L 4434 434 
Q 4069 175 3628 42 
Q 3188 -91 2688 -91 
Q 1594 -91 976 548 
Q 359 1188 359 2328 
Q 359 3472 976 4111 
Q 1594 4750 2688 4750 
Q 3144 4750 3555 4637 
Q 3966 4525 4313 4306 
L 4313 3634 
Q 3963 3931 3569 4081 
Q 3175 4231 2741 4231 
Q 1884 4231 1454 3753 
Q 1025 3275 1025 2328 
Q 1025 1384 1454 906 
Q 1884 428 2741 428 
Q 3075 428 3337 486 
Q 3600 544 3809 666 
z
" transform="scale(0.015625)"/>
       <path id="DejaVuSans-50" d="M 1259 4147 
L 1259 2394 
L 2053 2394 
Q 2494 2394 2734 2622 
Q 2975 2850 2975 3272 
Q 2975 3691 2734 3919 
Q 2494 4147 2053 4147 
L 1259 4147 
z
M 628 4666 
L 2053 4666 
Q 2838 4666 3239 4311 
Q 3641 3956 3641 3272 
Q 3641 2581 3239 2228 
Q 2838 1875 2053 1875 
L 1259 1875 
L 1259 0 
L 628 0 
L 628 4666 
z
" transform="scale(0.015625)"/>
       <path id="DejaVuSans-55" d="M 556 4666 
L 1191 4666 
L 1191 1831 
Q 1191 1081 1462 751 
Q 1734 422 2344 422 
Q 2950 422 3222 751 
Q 3494 1081 3494 1831 
L 3494 4666 
L 4128 4666 
L 4128 1753 
Q 4128 841 3676 375 
Q 3225 -91 2344 -91 
Q 1459 -91 1007 375 
Q 556 841 556 1753 
L 556 4666 
z
" transform="scale(0.015625)"/>
      </defs>
      <use xlink:href="#DejaVuSans-47"/>
      <use xlink:href="#DejaVuSans-50" x="77.490234"/>
      <use xlink:href="#DejaVuSans-55" x="137.792969"/>
      <use xlink:href="#DejaVuSans-20" x="210.986328"/>
      <use xlink:href="#DejaVuSans-63" x="242.773438"/>
      <use xlink:href="#DejaVuSans-6c" x="297.753906"/>
      <use xlink:href="#DejaVuSans-6f" x="325.537109"/>
      <use xlink:href="#DejaVuSans-63" x="386.71875"/>
      <use xlink:href="#DejaVuSans-6b" x="441.699219"/>
      <use xlink:href="#DejaVuSans-20" x="499.609375"/>
      <use xlink:href="#DejaVuSans-28" x="531.396484"/>
      <use xlink:href="#DejaVuSans-4d" x="570.410156"/>
      <use xlink:href="#DejaVuSans-48" x="656.689453"/>
      <use xlink:href="#DejaVuSans-7a" x="731.884766"/>
      <use xlink:href="#DejaVuSans-29" x="784.375"/>
     </g>
    </g>
    <g id="line2d_17">
     <path d="M 707.0875 56.096563 
L 717.0875 56.096563 
L 727.0875 56.096563 
" style="fill: none; stroke-dasharray: 7.4,3.2; stroke-dashoffset: 0; stroke: #000000; stroke-opacity: 0.9; stroke-width: 2"/>
    </g>
    <g id="text_19">
     <!-- Cooler on (5000 RPM) -->
     <g transform="translate(735.0875 59.596563) scale(0.1 -0.1)">
      <defs>
       <path id="DejaVuSans-52" d="M 2841 2188 
Q 3044 2119 3236 1894 
Q 3428 1669 3622 1275 
L 4263 0 
L 3584 0 
L 2988 1197 
Q 2756 1666 2539 1819 
Q 2322 1972 1947 1972 
L 1259 1972 
L 1259 0 
L 628 0 
L 628 4666 
L 2053 4666 
Q 2853 4666 3247 4331 
Q 3641 3997 3641 3322 
Q 3641 2881 3436 2590 
Q 3231 2300 2841 2188 
z
M 1259 4147 
L 1259 2491 
L 2053 2491 
Q 2509 2491 2742 2702 
Q 2975 2913 2975 3322 
Q 2975 3731 2742 3939 
Q 2509 4147 2053 4147 
L 1259 4147 
z
" transform="scale(0.015625)"/>
      </defs>
      <use xlink:href="#DejaVuSans-43"/>
      <use xlink:href="#DejaVuSans-6f" x="69.824219"/>
      <use xlink:href="#DejaVuSans-6f" x="131.005859"/>
      <use xlink:href="#DejaVuSans-6c" x="192.1875"/>
      <use xlink:href="#DejaVuSans-65" x="219.970703"/>
      <use xlink:href="#DejaVuSans-72" x="281.494141"/>
      <use xlink:href="#DejaVuSans-20" x="322.607422"/>
      <use xlink:href="#DejaVuSans-6f" x="354.394531"/>
      <use xlink:href="#DejaVuSans-6e" x="415.576172"/>
      <use xlink:href="#DejaVuSans-20" x="478.955078"/>
      <use xlink:href="#DejaVuSans-28" x="510.742188"/>
      <use xlink:href="#DejaVuSans-35" x="549.755859"/>
      <use xlink:href="#DejaVuSans-30" x="613.378906"/>
      <use xlink:href="#DejaVuSans-30" x="677.001953"/>
      <use xlink:href="#DejaVuSans-30" x="740.625"/>
      <use xlink:href="#DejaVuSans-20" x="804.248047"/>
      <use xlink:href="#DejaVuSans-52" x="836.035156"/>
      <use xlink:href="#DejaVuSans-50" x="905.517578"/>
      <use xlink:href="#DejaVuSans-4d" x="965.820312"/>
      <use xlink:href="#DejaVuSans-29" x="1052.099609"/>
     </g>
    </g>
   </g>
   <g id="line2d_18">
    <path d="M 149.878735 387.16 
L 149.878735 28.32 
" clip-path="url(#p85e63d14da)" style="fill: none; stroke-dasharray: 7.4,3.2; stroke-dashoffset: 0; stroke: #000000; stroke-opacity: 0.9; stroke-width: 2"/>
   </g>
  </g>
 </g>
 <defs>
  <clipPath id="p85e63d14da">
   <rect x="60.05" y="28.32" width="793.15" height="358.84"/>
  </clipPath>
 </defs>
</svg>
